<!-- Generated by IcoMoon.io -->
<svg version="1.1" xmlns="http://www.w3.org/2000/svg" width="35" height="32" viewBox="0 0 35 32">
<title>sixth-item</title>
<path fill="none" stroke="#0a0070" stroke-linejoin="round" stroke-linecap="round" stroke-miterlimit="4" stroke-width="1.6842" d="M34.246 30.877h-21.333v-19.217h3.938M34.246 26.849v-15.188h-3.282M30.964 11.66s0.657-10.538-6.565-10.538c-8.86 0-7.547 10.538-7.547 10.538M30.964 11.66h-14.114"></path>
<path fill="#0a0070" d="M22.456 18.526c0-0.842 0.49-1.684 1.404-1.684s1.404 0.842 1.404 1.684c0 0.959-1.404 2.105-1.404 2.105s-1.404-1.146-1.404-2.105z"></path>
<path fill="none" stroke="#0a0070" stroke-linejoin="round" stroke-linecap="round" stroke-miterlimit="4" stroke-width="1.1228" d="M23.86 20.632s-1.404-1.146-1.404-2.105c0-0.842 0.49-1.684 1.404-1.684s1.404 0.842 1.404 1.684c0 0.959-1.404 2.105-1.404 2.105zM23.86 20.632v2.947"></path>
<path fill="none" stroke="#0a0070" stroke-linejoin="miter" stroke-linecap="butt" stroke-miterlimit="4" stroke-width="1.6842" d="M12.070 18.246c0 2.17-1.759 3.93-3.93 3.93s-3.93-1.759-3.93-3.93c0-2.17 1.759-3.93 3.93-3.93s3.93 1.759 3.93 3.93z"></path>
<path fill="none" stroke="#0a0070" stroke-linejoin="miter" stroke-linecap="butt" stroke-miterlimit="4" stroke-width="1.6842" d="M15.719 30.877h-14.597s0-7.298 7.298-7.298c1.991 0 3.439 0.543 4.491 1.333"></path>
</svg>
