<!-- Generated by IcoMoon.io -->
<svg version="1.1" xmlns="http://www.w3.org/2000/svg" width="29" height="32" viewBox="0 0 29 32">
<title>third-item</title>
<path fill="none" stroke="#0a0070" stroke-linejoin="round" stroke-linecap="round" stroke-miterlimit="4" stroke-width="1.4545" d="M26.597 22.637c0.657-1.521 1.040-3.292 1.040-5.153 0-0.006 0-0.012 0-0.018v0.001c0-7.364-5.969-13.333-13.333-13.333s-13.333 5.969-13.333 13.333 5.969 13.333 13.333 13.333c2.153 0 4.186-0.511 5.986-1.416"></path>
<path fill="none" stroke="#0a0070" stroke-linejoin="miter" stroke-linecap="butt" stroke-miterlimit="4" stroke-width="1.4545" d="M24.188 17.467c0 5.459-4.426 9.885-9.885 9.885s-9.885-4.426-9.885-9.885c0-5.459 4.426-9.885 9.885-9.885s9.885 4.426 9.885 9.885z"></path>
<path fill="none" stroke="#0a0070" stroke-linejoin="round" stroke-linecap="round" stroke-miterlimit="4" stroke-width="0.9697" d="M22.194 18.011h-2.177M14.303 25.63v-2.448M8.589 18.011h-2.177M14.303 11.48v-2.176M11.152 14.929l1.697 1.455M15.273 16.384l3.636-3.394M12.398 3.589l-0.271-1.089M12.127 2.501h4.353M12.126 2.501h-1.361l-0.272-1.633h7.619l-0.544 1.633h-1.088M16.48 2.501l-0.273 1.089"></path>
<path fill="none" stroke="#0a0070" stroke-linejoin="miter" stroke-linecap="butt" stroke-miterlimit="4" stroke-width="0.4848" d="M15.273 17.353c0 0.669-0.543 1.212-1.212 1.212s-1.212-0.543-1.212-1.212c0-0.669 0.543-1.212 1.212-1.212s1.212 0.543 1.212 1.212z"></path>
</svg>
