<svg width="163" height="121" fill="none" xmlns="http://www.w3.org/2000/svg"><circle cx="81.5" cy="81.5" r="81.5" fill="#30D4FE"/><path d="m114.34 76.56 4.403 7.306s4.693 7.792 5.433 9.892c.74 2.1 3.823 20.225 3.828 21.607.014 3.112-3.302 5.908-5.284 5.908-1.981 0-5.95-1.711-9.407-3.564-3.456-1.852-9.891-9.335-9.891-9.335l-1.156-16.072-1.508-14.746 13.582-.996Z" fill="#455A64"/><path d="M113.203 110.575a.389.389 0 0 1-.025-.082l-.055-.24c-.046-.222-.115-.533-.198-.933-.17-.825-.413-1.987-.71-3.429l-1.029-5.091c-.19-.958-.394-1.965-.6-3.008a31.482 31.482 0 0 1-.501-3.261 17.24 17.24 0 0 1-.058-1.68c.008-.552.044-1.1.072-1.623.027-.523.052-1.051.044-1.56l-.033-.375a2.326 2.326 0 0 0-.025-.363 5.456 5.456 0 0 0-.171-.713 13.48 13.48 0 0 0-1.1-2.53 35.111 35.111 0 0 0-1.222-2.082c-.782-1.255-1.418-2.27-1.809-3-.192-.369-.341-.653-.423-.853l-.099-.229a.733.733 0 0 1-.031-.08.439.439 0 0 1 .044.075c.028.055.066.129.11.22.094.198.248.479.446.84.405.72 1.054 1.725 1.847 2.974.391.628.826 1.313 1.241 2.078.46.81.835 1.663 1.12 2.549.073.239.132.483.176.729.028.124.045.25.053.377 0 .13.024.259.033.385 0 .515 0 1.04-.042 1.572a28.5 28.5 0 0 0-.071 1.618c-.011.548.014 1.1.06 1.651.106 1.091.266 2.176.482 3.25.204 1.044.405 2.048.592 3.009.377 1.926.718 3.643 1.001 5.097.284 1.453.507 2.617.664 3.437l.173.938c.019.1.033.182.041.243.006.03.007.06.003.09ZM118.377 85.151a1.8 1.8 0 0 1-.22.275 8.861 8.861 0 0 1-.275.308 5.644 5.644 0 0 1-.399.389 10.522 10.522 0 0 1-2.681 1.777c-.539.245-1.095.448-1.665.609a9.796 9.796 0 0 1-1.423.275c-.203.033-.391.041-.55.055a3.982 3.982 0 0 1-.419.017 1.805 1.805 0 0 1-.357 0c0-.028.506-.034 1.315-.16a11.57 11.57 0 0 0 1.398-.311 12.58 12.58 0 0 0 1.652-.611c.528-.251 1.04-.538 1.53-.859.399-.264.78-.554 1.142-.867.6-.53.933-.916.952-.897Z" fill="#263238"/><path opacity=".3" d="M105.717 80.282a58.713 58.713 0 0 1 3.248 9.3c.784 3.181 1.026 6.558.181 9.723-.55 2.062-1.288 4.621-.258 6.49-.088-1.891.371-6.358 1.376-7.189.894 3.028 1.775 7.536 2.669 10.577-.668-4.775-1.948-8.909-2.548-13.723-.165-1.304.052-4.249-.129-5.548-.551-3.935-1.035-3.578-4.53-9.632" fill="#000"/><path d="M110.635 97.891c.022 0-.22.443-.531 1.175a14.749 14.749 0 0 0-.9 2.964 14.603 14.603 0 0 0-.245 3.088c.022.793.088 1.283.061 1.288a1.788 1.788 0 0 1-.066-.341 8.316 8.316 0 0 1-.096-.944 12.95 12.95 0 0 1 1.153-6.096c.17-.363.319-.65.435-.842a1.49 1.49 0 0 1 .189-.292ZM65.418 95.127c.033.023-1.83 2.992-4.159 6.636-2.328 3.644-4.246 6.578-4.28 6.558-.032-.019 1.828-2.991 4.16-6.635 2.33-3.644 4.246-6.578 4.279-6.559Z" fill="#263238"/><path d="m60.054 76.846 15.354-2.832 16.543.33h4.098l8.766 5.81s1.651 23.484-1.825 30.975c-1.148 2.477-5.689 10.15-5.689 10.15l-34.305.126-8.807-7.598 3.283-14.066 2.582-22.895Z" fill="#455A64"/><path opacity=".3" d="m84.82 112.488-.181-.027a9.971 9.971 0 0 0-3.468 5.163c2.279-.099 4.29-1.668 5.504-3.6 1.214-1.932 1.737-4.203 2.202-6.435-1.21 1.753-2.43 3.534-4.056 4.899Z" fill="#000"/><path d="M36.328 121.273c-2.02-.713-1.068-12.194 4.043-17.657.668-.716 12.024-22.031 16.892-25.502 3.523-2.512 6.74-1.524 7.571 3.468.832 4.992.595 13.546.595 13.546l-8.46 13.194 2.614 1.425 8.915.595-1.666 10.931H36.328Z" fill="#455A64"/><path d="M66.843 121.273v-.049l.017-.146c.02-.138.044-.328.077-.57l.305-2.138c.276-1.841.66-4.437 1.101-7.486l.058.074-6.828-.88-2-.262h-.014l-1.396-.795c-.462-.248-.878-.551-1.33-.784a15.742 15.742 0 0 0-2.655-1.143 18.17 18.17 0 0 0-2.532-.6 16.881 16.881 0 0 0-2.246-.178 15.117 15.117 0 0 0-3.225.291c-.377.061-.66.146-.856.187l-.223.05-.074.014s.022 0 .071-.025l.22-.063c.193-.053.477-.143.85-.215a14.553 14.553 0 0 1 3.237-.341c.757.003 1.513.058 2.263.165.865.131 1.718.328 2.554.589.927.298 1.824.682 2.68 1.147.46.226.875.551 1.338.785l1.395.784h-.028l2.001.259 6.828.894h.066v.066c-.476 3.047-.877 5.639-1.164 7.478-.146.908-.275 1.629-.344 2.133-.041.242-.074.429-.096.567 0 .058-.022.107-.028.146-.005.038-.019.049-.022.046Z" fill="#263238"/><path d="M59.848 109.846c-.479.153-.947.337-1.401.551a6.646 6.646 0 0 0-3.738 5.779c-.006.502.022 1.004.083 1.503 0 0-.017-.033-.033-.102a2.762 2.762 0 0 1-.063-.295 5.864 5.864 0 0 1-.088-1.1 6.503 6.503 0 0 1 3.795-5.865 5.807 5.807 0 0 1 1.046-.377c.126-.036.228-.05.294-.064.066-.013.105-.03.105-.03Z" fill="#263238"/><path opacity=".3" d="M57.035 108.234c-2.769-2.986-7.178-4.235-11.009-2.881-.36.126-.781.382-.726.759.066.476.74.498 1.21.413a15.472 15.472 0 0 1 10.459 1.709" fill="#000"/><path d="M65.855 89.412s.025-.19.072-.523a9.3 9.3 0 0 0 .09-1.426 8.848 8.848 0 0 0-4.587-7.706 9.42 9.42 0 0 0-1.296-.6 4.737 4.737 0 0 1-.493-.187c.045.003.09.012.132.028.128.028.254.064.377.107.46.146.903.335 1.327.564a8.694 8.694 0 0 1 4.505 9.236c-.028.168-.066.295-.085.383a.468.468 0 0 1-.042.124ZM103.513 84.832a.316.316 0 0 1 .022.08l.044.242.159.933c.133.81.322 1.979.532 3.432.209 1.453.434 3.184.597 5.119.186 2.097.244 4.203.173 6.308a34.93 34.93 0 0 1-.812 6.261 26.433 26.433 0 0 1-1.604 4.896 21.225 21.225 0 0 1-1.651 3.06c-.215.353-.413.6-.534.779-.061.083-.108.149-.146.198a.374.374 0 0 1-.053.066s0-.027.042-.074l.132-.206c.113-.182.305-.438.512-.79a23.094 23.094 0 0 0 1.599-3.074 26.944 26.944 0 0 0 1.568-4.885c.451-2.051.717-4.138.796-6.237.168-4.47-.344-8.507-.727-11.407-.203-1.445-.369-2.618-.487-3.438l-.129-.936-.033-.244a.38.38 0 0 1 0-.083Z" fill="#263238"/><path d="M112.485 120.351H74.186v2.719h38.299v-2.719Z" fill="#EBEBEB"/><path d="m121.655 116.452-39.378.977-6.484 1.904-1.607 1.018h38.299l3.418 1.118 4.89-1.456.862-3.561Z" fill="#fff"/><path d="M112.485 120.351s4.252.655 5.919 0c1.668-.655 3.24-3.899 3.24-3.899l.187 5.017-9.357 1.602.011-2.72Z" fill="#E0E0E0"/><path d="M112.482 120.334c.076.455.104.916.083 1.377.029.459.009.92-.061 1.376a6.967 6.967 0 0 1-.083-1.376 6.82 6.82 0 0 1 .061-1.377ZM121.47 117.002a.348.348 0 0 1-.024.105 2.99 2.99 0 0 1-.097.275 4.25 4.25 0 0 1-.55.968 5.86 5.86 0 0 1-3.008 2.043 9.27 9.27 0 0 1-3.65.25 12.292 12.292 0 0 1-1.1-.176 2.085 2.085 0 0 1-.397-.102c.136.006.271.022.405.047.259.036.636.088 1.101.129a9.75 9.75 0 0 0 3.599-.275 6.007 6.007 0 0 0 2.973-1.962c.3-.403.552-.84.748-1.302ZM118.039 120.916a3.624 3.624 0 0 1-.743.255c-1.222.339-2.479.53-3.746.567a3.635 3.635 0 0 1-.787-.022c.258-.046.519-.072.782-.077a26.348 26.348 0 0 0 1.874-.212c.729-.11 1.376-.247 1.852-.355.252-.069.509-.122.768-.156ZM110.685 123.213a.95.95 0 0 1-.518-.294 1.58 1.58 0 0 1-.505-1.332 1.568 1.568 0 0 1 .781-1.192.979.979 0 0 1 .569-.173 5.363 5.363 0 0 0-.514.258 1.63 1.63 0 0 0-.697 1.121 1.602 1.602 0 0 0 .432 1.246c.142.133.292.256.452.366Z" fill="#263238"/><path d="M110.313 123.332a.986.986 0 0 1-.492-.275 1.787 1.787 0 0 1-.275-2.477 1.02 1.02 0 0 1 .418-.366c.016.019-.154.146-.336.424a1.815 1.815 0 0 0 .275 2.342c.223.247.421.333.41.352ZM108.293 123.213a.948.948 0 0 1-.517-.294 1.567 1.567 0 0 1 .275-2.524.98.98 0 0 1 .57-.173 4.899 4.899 0 0 0-.518.258 1.539 1.539 0 0 0-.63 1.791c.074.216.195.413.355.576.146.134.301.256.465.366Z" fill="#263238"/><path d="M107.922 123.332a.985.985 0 0 1-.493-.275 1.791 1.791 0 0 1-.275-2.477c.103-.159.249-.286.421-.366.014.019-.157.146-.338.424a1.81 1.81 0 0 0 .275 2.342c.225.247.421.333.41.352ZM105.902 123.213a.95.95 0 0 1-.518-.294 1.567 1.567 0 0 1 .276-2.524.979.979 0 0 1 .569-.173c-.177.076-.35.162-.517.258a1.53 1.53 0 0 0-.275 2.367c.145.134.301.256.465.366Z" fill="#263238"/><path d="M105.53 123.332a.994.994 0 0 1-.492-.275 1.787 1.787 0 0 1-.276-2.477c.103-.159.249-.286.421-.366.014.019-.156.146-.338.424a1.815 1.815 0 0 0 .275 2.342c.226.247.421.333.41.352ZM103.513 123.213a.94.94 0 0 1-.52-.294 1.567 1.567 0 0 1 .275-2.524.98.98 0 0 1 .57-.173 4.67 4.67 0 0 0-.515.258 1.535 1.535 0 0 0-.705 1.118 1.514 1.514 0 0 0 .43 1.249c.144.136.3.258.465.366Z" fill="#263238"/><path d="M103.138 123.332a.992.992 0 0 1-.49-.275 1.787 1.787 0 0 1-.275-2.477c.103-.159.249-.286.421-.366.017.019-.157.146-.338.424a1.81 1.81 0 0 0 .275 2.342c.223.247.418.333.407.352ZM101.121 123.213a.932.932 0 0 1-.517-.294 1.572 1.572 0 0 1-.506-1.332 1.57 1.57 0 0 1 .781-1.192.984.984 0 0 1 .57-.173 4.67 4.67 0 0 0-.515.258 1.535 1.535 0 0 0-.705 1.118c-.027.227-.002.457.073.673.074.217.196.414.357.576.143.135.298.258.462.366Z" fill="#263238"/><path d="M100.747 123.332a.984.984 0 0 1-.49-.275 1.807 1.807 0 0 1-.639-1.181 1.835 1.835 0 0 1 .361-1.293c.104-.159.25-.285.421-.366.017.019-.157.146-.338.424a1.807 1.807 0 0 0 .261 2.342c.24.245.435.33.424.349ZM98.73 123.213a.94.94 0 0 1-.518-.294 1.576 1.576 0 0 1-.505-1.332 1.57 1.57 0 0 1 .78-1.192.981.981 0 0 1 .57-.173 4.956 4.956 0 0 0-.514.258 1.538 1.538 0 0 0-.706 1.118 1.524 1.524 0 0 0 .43 1.249c.144.135.298.258.463.366Z" fill="#263238"/><path d="M98.355 123.332a.985.985 0 0 1-.49-.275 1.794 1.794 0 0 1-.275-2.477c.104-.159.25-.285.421-.366.017.019-.157.146-.338.424a1.81 1.81 0 0 0 .261 2.342c.237.247.432.333.421.352ZM96.338 123.213a.94.94 0 0 1-.517-.294 1.576 1.576 0 0 1-.506-1.332 1.57 1.57 0 0 1 .78-1.192.981.981 0 0 1 .57-.173 4.956 4.956 0 0 0-.514.258 1.536 1.536 0 0 0-.63 1.791c.074.216.195.413.355.576.144.135.298.257.462.366Z" fill="#263238"/><path d="M95.964 123.332a.985.985 0 0 1-.49-.275 1.794 1.794 0 0 1-.276-2.477c.104-.159.25-.285.422-.366.016.019-.157.146-.339.424-.236.36-.342.79-.3 1.219.049.426.243.823.55 1.123.243.247.446.333.433.352ZM93.947 123.213a.949.949 0 0 1-.518-.294 1.576 1.576 0 0 1-.505-1.332 1.57 1.57 0 0 1 .78-1.192.981.981 0 0 1 .57-.173 4.956 4.956 0 0 0-.515.258 1.536 1.536 0 0 0-.63 1.791c.074.216.195.413.355.576.144.135.299.257.463.366Z" fill="#263238"/><path d="M93.572 123.332a.985.985 0 0 1-.493-.275 1.794 1.794 0 0 1-.275-2.477c.104-.159.25-.285.421-.366.017.019-.156.146-.338.424a1.814 1.814 0 0 0 .275 2.342c.226.247.424.333.41.352ZM91.555 123.213a.949.949 0 0 1-.518-.294 1.576 1.576 0 0 1-.505-1.332 1.57 1.57 0 0 1 .78-1.192.989.989 0 0 1 .57-.173 5.458 5.458 0 0 0-.514.258 1.536 1.536 0 0 0-.63 1.791c.074.216.195.413.355.576.144.134.299.256.462.366Z" fill="#263238"/><path d="M91.183 123.332a.985.985 0 0 1-.492-.275 1.788 1.788 0 0 1-.275-2.477c.103-.158.248-.285.418-.366.016.019-.154.146-.336.424a1.81 1.81 0 0 0 .262 2.342c.24.247.434.333.423.352ZM89.169 123.213a.95.95 0 0 1-.518-.294 1.572 1.572 0 0 1-.507-1.332 1.563 1.563 0 0 1 .783-1.192.98.98 0 0 1 .57-.173c-.178.076-.35.162-.518.258a1.546 1.546 0 0 0-.702 1.118 1.534 1.534 0 0 0 .427 1.249c.145.134.3.256.465.366Z" fill="#263238"/><path d="M88.792 123.332a.996.996 0 0 1-.493-.275 1.789 1.789 0 0 1-.275-2.477 1.01 1.01 0 0 1 .42-.366c0 .019-.156.146-.338.424a1.81 1.81 0 0 0 .276 2.342c.236.247.42.333.41.352ZM86.772 123.213a.95.95 0 0 1-.518-.294 1.57 1.57 0 0 1-.507-1.332 1.561 1.561 0 0 1 .782-1.192.981.981 0 0 1 .57-.173 4.7 4.7 0 0 0-.514.258 1.536 1.536 0 0 0-.704 1.118 1.53 1.53 0 0 0 .428 1.249c.145.134.3.256.463.366Z" fill="#263238"/><path d="M86.4 123.332a.996.996 0 0 1-.493-.275 1.788 1.788 0 0 1-.275-2.477 1.01 1.01 0 0 1 .421-.366c.017.019-.157.146-.338.424a1.81 1.81 0 0 0 .275 2.342c.226.247.427.333.41.352ZM84.383 123.213a.941.941 0 0 1-.52-.294 1.57 1.57 0 0 1-.508-1.332 1.561 1.561 0 0 1 .783-1.192.981.981 0 0 1 .57-.173 4.7 4.7 0 0 0-.515.258 1.538 1.538 0 0 0-.706 1.118 1.53 1.53 0 0 0 .43 1.249c.145.136.3.258.466.366Z" fill="#263238"/><path d="M84.009 123.332a.985.985 0 0 1-.49-.275 1.82 1.82 0 0 1-.642-1.181 1.848 1.848 0 0 1 .364-1.293 1.01 1.01 0 0 1 .42-.366c.017.019-.156.146-.338.424a1.81 1.81 0 0 0 .276 2.342c.225.245.42.33.41.349ZM81.991 123.213a.928.928 0 0 1-.528-.294 1.576 1.576 0 0 1-.506-1.332 1.571 1.571 0 0 1 .781-1.192.981.981 0 0 1 .57-.173 4.702 4.702 0 0 0-.515.258 1.537 1.537 0 0 0-.705 1.118 1.524 1.524 0 0 0 .43 1.249c.147.136.305.258.473.366Z" fill="#263238"/><path d="M81.617 123.332a.985.985 0 0 1-.49-.275 1.806 1.806 0 0 1-.638-1.181 1.835 1.835 0 0 1 .36-1.293c.104-.159.25-.285.421-.366.017.019-.157.146-.338.424a1.81 1.81 0 0 0 .275 2.342c.226.245.421.33.41.349ZM79.6 123.213a.94.94 0 0 1-.518-.294 1.575 1.575 0 0 1-.505-1.332 1.571 1.571 0 0 1 .78-1.192.981.981 0 0 1 .57-.173 4.946 4.946 0 0 0-.515.258 1.535 1.535 0 0 0-.275 2.367c.144.135.299.257.463.366Z" fill="#263238"/><path d="M79.225 123.332a.985.985 0 0 1-.49-.275 1.794 1.794 0 0 1-.275-2.477c.104-.159.25-.285.421-.366.017.019-.157.146-.338.424a1.817 1.817 0 0 0 .275 2.342c.223.247.418.333.407.352ZM77.208 123.213a.94.94 0 0 1-.517-.294 1.575 1.575 0 0 1-.506-1.332 1.571 1.571 0 0 1 .78-1.192.981.981 0 0 1 .57-.173 4.946 4.946 0 0 0-.514.258 1.535 1.535 0 0 0-.275 2.367c.144.135.298.257.462.366Z" fill="#263238"/><path d="M76.834 123.332a.985.985 0 0 1-.49-.275 1.794 1.794 0 0 1-.275-2.477c.103-.159.25-.285.42-.366.017.019-.156.146-.338.424-.236.36-.342.79-.3 1.219.053.428.252.825.564 1.123.234.247.432.333.419.352ZM74.816 123.213a.954.954 0 0 1-.509-.294 1.575 1.575 0 0 1-.505-1.332 1.571 1.571 0 0 1 .78-1.192.981.981 0 0 1 .57-.173 4.946 4.946 0 0 0-.514.258 1.535 1.535 0 0 0-.276 2.367c.142.134.293.257.454.366Z" fill="#263238"/><path d="M74.445 123.332a.985.985 0 0 1-.493-.275 1.794 1.794 0 0 1-.275-2.477c.104-.159.25-.285.421-.366.017.019-.154.146-.336.424a1.81 1.81 0 0 0 .276 2.342c.22.247.418.333.407.352Z" fill="#263238"/><path d="M68.696 102.055c3.374 3.247 15.296 14.66 15.296 14.66l2.408.887-.746-2.491-15.25-14.823a1.226 1.226 0 0 0-1.354-.245 1.226 1.226 0 0 0-.354 2.012Z" fill="#FC7387"/><path d="m85.418 113.567-3.578-4.546-6.958-1.85-6.47 4.17-1.326 8.551s1.425 0 2.119-.05c.454-.033 3.946-.487 3.946-.487s2.898-.036 4.206-.316c1.307-.281 1.788-.865 2.713-.865s1.167-1.067 1.167-1.067a8.518 8.518 0 0 0 1.69-.766c.682-.44.682-1.486.682-1.486s.364.16 1.288 0c.925-.159.52-1.288.52-1.288Z" fill="#FFBE9D"/><path d="M83.698 114.624a1.301 1.301 0 0 1-.215-.234l-.55-.661a7.225 7.225 0 0 0-2.142-1.802 10.347 10.347 0 0 0-2.686-.854l-.845-.162a1.579 1.579 0 0 1-.31-.074c.106-.007.213-.001.319.019.2.022.495.061.856.118.948.132 1.87.411 2.733.826a6.778 6.778 0 0 1 2.154 1.866c.229.275.402.523.52.691.064.083.12.173.166.267ZM81.686 116.535a1.784 1.784 0 0 0-.493-.7c-.405-.355-1.142-.566-1.91-.88-.768-.314-1.475-.589-1.979-.801a5.306 5.306 0 0 1-.806-.369c.288.068.57.16.842.275.512.188 1.22.454 1.995.76.386.154.754.297 1.101.438.303.118.582.288.826.503.166.147.295.331.377.537a.443.443 0 0 1 .047.237ZM79.685 117.932a2.428 2.428 0 0 1-.617-.094 17.956 17.956 0 0 1-1.458-.374 18.497 18.497 0 0 1-1.423-.487 2.455 2.455 0 0 1-.57-.275c.206.033.408.088.603.165.366.118.87.275 1.431.446.561.17 1.07.311 1.442.415.204.046.403.114.592.204Z" fill="#EB996E"/><path d="M88.307 117.596a2.261 2.261 0 0 1-.473.317 25.379 25.379 0 0 1-2.444 1.246c-.168.09-.347.156-.534.196a18.01 18.01 0 0 1 1.707-.914 16.859 16.859 0 0 1 1.744-.845ZM90.234 117.434c-.579.408-1.185.776-1.814 1.1-.605.369-1.235.694-1.885.975.58-.407 1.185-.775 1.814-1.101a16.121 16.121 0 0 1 1.885-.974ZM90.92 117.552c-.422.369-.873.701-1.35.994-.451.33-.93.622-1.43.872a9.827 9.827 0 0 1 1.35-.993c.451-.331.93-.623 1.43-.873ZM94.398 117.434c-.57.433-1.167.828-1.79 1.183-.596.395-1.218.749-1.862 1.06a16.43 16.43 0 0 1 1.788-1.184c.598-.393 1.22-.747 1.864-1.059ZM95.617 117.489c.016.038-.784.432-1.717 1.015-.933.584-1.638 1.126-1.665 1.101.124-.153.27-.287.432-.399.37-.297.757-.573 1.158-.826.401-.25.816-.476 1.244-.677.172-.096.356-.168.548-.214ZM96.919 117.332c-.512.422-1.053.807-1.618 1.153-.54.386-1.108.732-1.698 1.035.512-.419 1.054-.8 1.62-1.142.54-.389 1.106-.739 1.696-1.046ZM98.694 117.106c-.545.45-1.12.862-1.72 1.233-.575.407-1.176.775-1.8 1.101.545-.448 1.12-.86 1.72-1.233a15.642 15.642 0 0 1 1.8-1.101ZM100.948 117.04c.022.036-.694.487-1.511 1.128-.817.642-1.431 1.222-1.461 1.192a2.01 2.01 0 0 1 .366-.418c.317-.316.653-.612 1.007-.886.351-.276.719-.531 1.101-.763.152-.109.32-.195.498-.253ZM101.947 117.236c.025.033-.625.509-1.376 1.142-.751.633-1.346 1.183-1.376 1.156a10.715 10.715 0 0 1 2.752-2.298ZM104.088 117.236c.025.033-.625.509-1.376 1.142-.751.633-1.346 1.183-1.376 1.156a7.528 7.528 0 0 1 1.282-1.266c.446-.403.94-.75 1.47-1.032ZM105.701 117.236c.025.033-.625.509-1.376 1.142-.752.633-1.346 1.183-1.376 1.156a7.492 7.492 0 0 1 1.282-1.266 7.3 7.3 0 0 1 1.47-1.032ZM106.532 117.236c.022.033-.625.509-1.376 1.142-.751.633-1.343 1.183-1.376 1.156a10.703 10.703 0 0 1 2.752-2.298ZM109.468 117.153c.025.033-.624.509-1.376 1.142-.751.633-1.343 1.186-1.376 1.156a7.355 7.355 0 0 1 1.283-1.266c.445-.404.939-.75 1.469-1.032ZM112.405 117.071c.025.036-.625.509-1.376 1.145-.751.635-1.346 1.183-1.376 1.153a7.51 7.51 0 0 1 1.282-1.263c.446-.404.94-.751 1.47-1.035ZM115.341 117.002c.025.033-.624.509-1.376 1.142-.751.633-1.345 1.184-1.376 1.156a7.534 7.534 0 0 1 1.283-1.266c.446-.403.939-.75 1.469-1.032ZM118.278 116.908c.025.033-.625.509-1.376 1.142-.751.633-1.346 1.187-1.376 1.156a10.646 10.646 0 0 1 2.752-2.298Z" fill="#263238"/><path d="M102.621 58.921a7.503 7.503 0 1 0-8.406-12.43 7.503 7.503 0 0 0 8.406 12.43Z" fill="#FC7387"/><path d="M100.89 45.966s1.247 12.42 1.401 20.859l.55 9.96s-5.842-1.858-11.748-1.583L86.32 62.97l14.57-17.003Z" fill="#263238"/><path d="M67.876 48.132c1.128-5.229 2.284-10.661 6.536-13.898 3.79-2.887 8.07-3.65 12.83-3.374 2.342.13 4.97 1.25 6.996 2.433 2.774 1.624 3.914 4.852 5.23 7.791 2.619 5.884 2.165 13.794.302 15.963L75.158 69.599c-4.29-2.312-7.17-3.404-8.257-8.157-.734-3.237.273-10.065.975-13.31Z" fill="#263238"/><path d="m74.871 39.067 15.437-4.318c4.954-.65 8.424 5.394 8.865 10.378.49 5.54.867 12.321.313 16.477-1.1 8.356-7.466 9.575-7.466 9.575s-.017.126 0 2.6l.146 5.565c-1.927 6.793-8.782 6.105-17.859-4.819l-1.86-30.455c-.124-2.391.916-4.805 2.424-5.003Z" fill="#FFBE9D"/><path d="M97.777 51.974a1.07 1.07 0 0 1-1.004 1.101 1.018 1.018 0 0 1-1.123-.936 1.068 1.068 0 0 1 1.002-1.1 1.023 1.023 0 0 1 1.125.935ZM97.816 50.125c-.13.144-.952-.434-2.103-.404-1.15.03-1.976.627-2.102.49-.064-.06.066-.314.426-.592a2.936 2.936 0 0 1 1.679-.55 2.807 2.807 0 0 1 1.676.495c.36.248.487.498.424.561ZM86.918 51.974a1.065 1.065 0 0 1-1.002 1.101 1.018 1.018 0 0 1-1.123-.936 1.065 1.065 0 0 1 1.002-1.1 1.017 1.017 0 0 1 1.123.935ZM86.521 50.1c-.13.144-.955-.434-2.103-.404-1.147.03-1.976.627-2.102.49-.063-.06.063-.314.427-.592a2.912 2.912 0 0 1 1.678-.55 2.806 2.806 0 0 1 1.676.495c.36.248.488.498.424.561ZM90.886 57.608c0-.066.705-.206 1.858-.385.291-.036.57-.102.613-.303.044-.201-.066-.529-.217-.864l-.925-2.202c-1.285-3.151-2.22-5.744-2.094-5.78.126-.035 1.271 2.461 2.557 5.612.308.776.605 1.517.886 2.227.12.33.319.702.181 1.145a.734.734 0 0 1-.47.443c-.162.047-.33.074-.498.08-1.162.068-1.886.09-1.891.027Z" fill="#263238"/><path d="M92.02 71.179a21.164 21.164 0 0 1-11.22-2.692s2.9 5.755 11.212 4.767l.008-2.075ZM87.146 59.846a1.841 1.841 0 0 1 1.513-.873A2.394 2.394 0 0 1 90.861 60c.201.231.201.892.124 1.076-.077.184 0 .094-.154.223-.501.465-1.032.933-1.69 1.1a1.803 1.803 0 0 1-1.926-.651 1.836 1.836 0 0 1-.07-1.902Z" fill="#EB996E"/><path d="M87.32 58.532c.187-.016.228 1.23 1.32 2.084 1.093.853 2.417.671 2.433.847.02.078-.275.25-.847.276a3.096 3.096 0 0 1-2.029-.639 2.703 2.703 0 0 1-1.029-1.748c-.063-.511.074-.825.151-.82ZM87.014 45.904c-.085.322-1.241.275-2.57.55-1.33.275-2.387.73-2.59.465-.091-.126.074-.437.487-.773a4.58 4.58 0 0 1 3.933-.768c.509.151.778.374.74.526ZM97.763 47.034c-.275.22-1.1-.184-2.14-.366-1.041-.182-1.968-.135-2.13-.438-.07-.143.112-.38.55-.55a3.282 3.282 0 0 1 1.813-.146 3.206 3.206 0 0 1 1.63.793c.319.31.396.597.277.707ZM90.107 33.849c.014.06.022.12.036.181h-.03c0-.052-.003-.115-.006-.181Z" fill="#263238"/><path d="M73.872 74.3c.14.07.443 8.6 1.55 12.257.393 1.302 4.54 1.283 4.54 1.283.488 0-.484-16.367-.701-20.036-.14-2.323-2.785-5.697-3.369-7.95-.93-3.606.455-5.843 1.002-9.548 2.086-.228 5.144-1.635 6.553-3.23 1.695-1.927 2.738-4.319 3.757-6.672a11.254 11.254 0 0 1-2.356 6.434c.919.207 1.901-.176 2.603-.806a6.737 6.737 0 0 0 1.555-2.342 18.408 18.408 0 0 0 1.569-6.633 23.89 23.89 0 0 1-1.225 9.702c.587-.171 1.206 0 1.808.096.603.096 1.294.088 1.726-.341.263-.314.432-.696.487-1.101.614-2.778.749-5.64.4-8.463.718 1.53 1.433 3.077 1.84 4.72.408 1.643.493 3.399-.035 5.006.234.308.743.275 1.032 0 .267-.284.431-.65.468-1.038.239-1.395 0-2.823-.215-4.218.812 1.486 1.062 3.2 1.5 4.838.437 1.637 1.145 3.316 2.548 4.266.27-2.125.231-4.277-.115-6.39-.256-1.748-1.06-3.49-1.8-5.095-.826-1.794-1.996-3.559-3.303-4.742-2.419-2.182-3.46-1.271-5.036-.476l-.185.074v-.115l-.066-.333a23.473 23.473 0 0 0-12.384.401c-2.964.92-6.638 3.903-8.18 6.605-.027.05-.06.1-.088.155-3.302 6.572-7.326 22.688-7.064 35.755l3.965-.732 7.22-1.332Z" fill="#263238"/><path d="M76.06 59.905a7.502 7.502 0 1 0-10.61-10.61 7.502 7.502 0 0 0 10.61 10.61Z" fill="#FC7387"/><path d="M70.62 47.098s.368-15.478 13.988-17.493c0 0 6.916-.55 7.858 2.752 0 0-3.548-1.926-7.076-1.001-2.326.608-10.816 4.378-11.215 16.983l-3.506 1.51-.05-2.751Z" fill="#FC7387"/><path d="M76.074 54.559v-.088c0-.058 0-.155-.02-.262a2.746 2.746 0 0 0-.049-.421 4.28 4.28 0 0 0-.118-.567 5.307 5.307 0 0 0-.614-1.453 5.458 5.458 0 0 0-1.392-1.544 5.394 5.394 0 0 0-2.293-1.013 5.471 5.471 0 0 0-2.86.24 5.126 5.126 0 0 0-1.375.74 6.226 6.226 0 0 0-.617.526 5.865 5.865 0 0 0-.534.63 5.463 5.463 0 0 0-1.057 3.212c.006.582.1 1.16.276 1.714.177.537.439 1.043.776 1.497.318.445.707.836 1.15 1.156.418.316.882.566 1.376.74a5.438 5.438 0 0 0 5.152-.773 5.386 5.386 0 0 0 1.393-1.544c.273-.449.478-.936.608-1.445a4.28 4.28 0 0 0 .118-.567c.028-.138.044-.28.05-.42 0-.108.014-.193.019-.262.005-.069 0-.088 0-.088.004.03.004.06 0 .09v.262c.001.142-.01.284-.036.424a3.79 3.79 0 0 1-.104.575 5.171 5.171 0 0 1-.6 1.48 5.551 5.551 0 0 1-3.724 2.635 5.548 5.548 0 0 1-2.925-.234 5.264 5.264 0 0 1-1.412-.755 6.476 6.476 0 0 1-.633-.536 6.24 6.24 0 0 1-.55-.647 5.362 5.362 0 0 1-.799-1.536 5.504 5.504 0 0 1 0-3.517c.181-.551.45-1.07.798-1.535.17-.228.353-.444.55-.647.2-.192.412-.372.634-.537.43-.321.906-.575 1.412-.754a5.595 5.595 0 0 1 2.922-.234c.851.162 1.652.522 2.337 1.051.565.431 1.04.97 1.398 1.583.275.46.478.959.6 1.48.05.19.085.382.105.576.025.14.036.282.035.424v.275a.31.31 0 0 1 .003.069Z" fill="#263238"/><path d="M72.342 52.299c.028.027-.955 1.054-2.202 2.295-1.246 1.241-2.267 2.221-2.295 2.202-.028-.02.952-1.057 2.202-2.295 1.25-1.239 2.267-2.23 2.295-2.202ZM71.478 54.253a5.227 5.227 0 0 1-.826.908 5.37 5.37 0 0 1-.927.806 10.599 10.599 0 0 1 1.75-1.714h.003Z" fill="#263238"/><path d="M89.617 51.815a7.619 7.619 0 0 0-.176-1.173 4.639 4.639 0 0 0-.55-1.271 4.783 4.783 0 0 0-1.222-1.354 4.726 4.726 0 0 0-2.01-.887 4.802 4.802 0 0 0-2.501.212c-.433.153-.84.372-1.205.65-.388.28-.728.62-1.005 1.01a4.739 4.739 0 0 0 0 5.625c.278.39.617.73 1.005 1.01a4.42 4.42 0 0 0 1.205.65c.8.291 1.664.364 2.502.212a4.725 4.725 0 0 0 2.009-.887c.492-.37.907-.831 1.225-1.359.245-.394.431-.822.55-1.272.089-.385.148-.777.176-1.172a.249.249 0 0 1 0 .077v.231c0 .126-.01.25-.03.375-.02.17-.05.338-.094.503a4.607 4.607 0 0 1-.523 1.3 4.859 4.859 0 0 1-5.848 2.11 4.576 4.576 0 0 1-1.239-.663 4.354 4.354 0 0 1-1.037-1.038 4.866 4.866 0 0 1 0-5.78c.147-.199.307-.388.479-.566.172-.17.356-.327.55-.47a4.498 4.498 0 0 1 1.239-.664 4.864 4.864 0 0 1 5.848 2.11c.24.404.416.843.523 1.3a3.5 3.5 0 0 1 .094.504c.02.123.03.248.03.374v.228c.005.025.007.05.005.075ZM102.104 51.815a7.865 7.865 0 0 0-.179-1.173 4.62 4.62 0 0 0-.551-1.271 4.803 4.803 0 0 0-1.219-1.354 4.75 4.75 0 0 0-2.012-.886 4.8 4.8 0 0 0-2.501.212c-.433.152-.84.371-1.206.649-.387.28-.727.62-1.004 1.01a4.739 4.739 0 0 0 0 5.625c.142.194.297.378.465.55.173.166.357.32.55.46a4.42 4.42 0 0 0 1.206.65c.8.291 1.663.364 2.501.212a4.803 4.803 0 0 0 3.23-2.24 4.62 4.62 0 0 0 .552-1.272c.089-.386.148-.778.179-1.172a.33.33 0 0 1 0 .077v.23c0 .126-.01.252-.031.375a3.44 3.44 0 0 1-.09.504 4.553 4.553 0 0 1-.526 1.299 4.857 4.857 0 0 1-5.846 2.11 4.586 4.586 0 0 1-1.24-.662 4.976 4.976 0 0 1-.551-.471 5.635 5.635 0 0 1-.482-.567 4.866 4.866 0 0 1 0-5.78c.148-.199.309-.388.482-.566.172-.17.356-.328.55-.471a4.516 4.516 0 0 1 1.242-.663 4.853 4.853 0 0 1 5.846 2.11c.241.403.418.842.525 1.3.042.165.073.333.09.503.017.119.023.238.02.358v.228a.405.405 0 0 1 0 .086Z" fill="#455A64"/><path d="M92.694 50.354a4.975 4.975 0 0 1-.49-.157 3.104 3.104 0 0 0-2.355.275c-.276.151-.421.275-.438.275.1-.145.231-.266.385-.352a2.776 2.776 0 0 1 2.442-.275c.168.043.324.122.456.234Z" fill="#455A64"/><path d="M74.307 48.05a14.802 14.802 0 0 0-1.948-.624 14.992 14.992 0 0 0-2.037-.207 1.88 1.88 0 0 1 .605-.071 6.537 6.537 0 0 1 2.854.597c.191.073.369.176.526.306ZM92.171 32.272a3.027 3.027 0 0 0-.71-.908 3.627 3.627 0 0 0-1.178-.658 5.153 5.153 0 0 0-1.772-.234c-.73.029-1.455.12-2.169.275-.817.158-1.62.38-2.402.663a17.158 17.158 0 0 0-4.987 2.824 16.593 16.593 0 0 0-3.765 4.332 17.556 17.556 0 0 0-1.836 4.315 17.381 17.381 0 0 0-.55 3.124c-.036.374-.044.663-.055.861v.226a.618.618 0 0 1 0 .077.243.243 0 0 1 0-.077v-.226c0-.198 0-.49.027-.867a16.19 16.19 0 0 1 .507-3.143 17.215 17.215 0 0 1 1.819-4.359 16.513 16.513 0 0 1 3.773-4.373 17.186 17.186 0 0 1 5.03-2.835c.795-.288 1.612-.511 2.442-.668.72-.149 1.453-.235 2.188-.256a5.174 5.174 0 0 1 1.802.261c.438.15.84.385 1.187.69.22.194.405.422.55.675.044.09.077.184.1.28Z" fill="#263238"/><path d="m99.855 70.893-9.357.503-2.53 4.64a.514.514 0 0 0 .447.765c.448 0 .971-.063 1.26-.322.575-.517 1.668-2.072 1.668-2.072l-.576 3.454 2.65 2.879.579.58a.587.587 0 0 0 .878-.055c.289-.377.616-.867.616-1.158 0 0 1.266-.347 1.324-1.153a13.829 13.829 0 0 0-.116-2.13s.865-.518.98-1.035l1.376 1.439 6.173 2.202 3.666-1.101 5.014-1.839s-3.049-2.658-3.685-3.118c-.635-.46-10.367-2.48-10.367-2.48Z" fill="#FFBE9D"/><path d="M99.855 70.893s.094.013.275.05l.807.162c.707.143 1.745.357 3.066.644 1.321.286 2.928.633 4.761 1.1.48.112.951.26 1.409.44.216.14.421.296.614.466l.605.503c.826.686 1.651 1.418 2.546 2.183l.077.066-.077.038-4.128 1.514c-.361.127-.721.275-1.101.39l-1.134.345-2.331.71h-.044l-6.176-2.202h-.016l-1.376-1.44.12-.035c-.062.21-.18.4-.34.55a3.335 3.335 0 0 1-.499.422l-.173.112.036-.071c.09.67.131 1.345.12 2.02a.996.996 0 0 1-.129.51c-.09.149-.21.28-.35.384-.273.2-.579.352-.905.446l.055-.069a1.158 1.158 0 0 1-.145.466 4.108 4.108 0 0 1-.24.396 5.59 5.59 0 0 1-.275.371.657.657 0 0 1-.911.072c-.118-.11-.215-.212-.322-.32a11.186 11.186 0 0 1-.614-.64l-2.339-2.543-.022-.025v-.033l.578-3.454.118.047c-.286.401-.578.791-.875 1.17-.149.186-.3.37-.457.55-.148.19-.327.354-.528.487a1.843 1.843 0 0 1-.683.193c-.115.013-.23.019-.344.022a.66.66 0 0 1-.358-.067.578.578 0 0 1-.294-.624 1.1 1.1 0 0 1 .14-.314l.157-.275 2.298-4.2.014-.025h.028l6.88-.347 1.852-.085.482-.02h.162l-.165.017-.479.033-1.855.113-6.867.391.04-.027-2.282 4.208-.155.275a.979.979 0 0 0-.129.275.457.457 0 0 0 .234.498.55.55 0 0 0 .3.05c.11 0 .223 0 .333-.022.222-.019.439-.08.639-.18.186-.127.352-.283.492-.462.154-.173.303-.357.452-.55.294-.374.583-.765.866-1.164l.163-.229-.044.276a785.158 785.158 0 0 1-.576 3.453l-.016-.057 2.34 2.54c.198.22.401.435.613.641.105.102.215.215.314.308a.518.518 0 0 0 .713-.057c.088-.108.178-.237.275-.358.085-.123.162-.25.231-.383a.985.985 0 0 0 .13-.399v-.052l.052-.017c.307-.09.597-.232.856-.42a.96.96 0 0 0 .42-.79c.01-.667-.03-1.333-.12-1.993v-.047l.04-.025.163-.107c.173-.117.334-.252.48-.402.14-.132.244-.298.302-.481l.033-.127.088.094c.476.492.947.982 1.376 1.439l-.025-.02 6.173 2.202h-.044l2.331-.704 1.134-.344c.374-.11.732-.262 1.101-.385l4.128-1.506-.019.102a691.098 691.098 0 0 0-2.538-2.202l-.602-.503a4.856 4.856 0 0 0-.603-.46 10.149 10.149 0 0 0-1.376-.435c-1.827-.479-3.435-.825-4.753-1.131l-3.058-.677-.803-.176c-.226-.036-.317-.063-.317-.063Z" fill="#EB996E"/><path d="M97.857 71.968a.558.558 0 0 1-.126.055l-.366.135-1.363.463-2.02.674c-.185.06-.352.168-.481.314-.125.162-.213.35-.26.55-.115.432-.206.87-.274 1.313a9.363 9.363 0 0 0-.075 2.581c.106.699.304 1.38.59 2.026.186.439.41.862.668 1.263.187.275.308.427.297.435a.564.564 0 0 1-.096-.1 2.693 2.693 0 0 1-.245-.305 7.08 7.08 0 0 1-.715-1.252 7.586 7.586 0 0 1-.628-2.047 9.196 9.196 0 0 1 .06-2.623c.072-.448.169-.892.29-1.33.051-.218.15-.423.288-.6.15-.163.34-.284.55-.35.769-.25 1.457-.461 2.038-.646l1.376-.42.377-.108a.468.468 0 0 1 .115-.028Z" fill="#EB996E"/><path d="M100.309 72.83a2.544 2.544 0 0 1-.393.16l-1.101.386-1.626.55c-.321.093-.635.21-.939.35-.302.179-.54.45-.677.773-.303.627-.54 1.283-.707 1.96a4.604 4.604 0 0 0-.088 1.684c.077.518.264 1.014.55 1.453 0 0-.03-.025-.077-.08a2.013 2.013 0 0 1-.182-.259 3.152 3.152 0 0 1-.393-1.1 4.488 4.488 0 0 1 .058-1.729c.162-.689.399-1.358.707-1.995.152-.347.412-.637.74-.826a7.1 7.1 0 0 1 .969-.363l1.635-.523 1.1-.344a2.19 2.19 0 0 1 .424-.096Z" fill="#EB996E"/><path d="M99.976 74.834a2.12 2.12 0 0 1-1.054.748 2.15 2.15 0 0 1-1.282.143 7.44 7.44 0 0 0 1.233-.275 7.35 7.35 0 0 0 1.103-.617ZM105.902 78.436a1.976 1.976 0 0 1-.688.099 4.263 4.263 0 0 1-1.652-.314c-.524-.21-1-.524-1.4-.922a2.01 2.01 0 0 1-.424-.55c.019-.014.181.192.495.476a4.729 4.729 0 0 0 2.978 1.208c.424.014.685-.022.691.003ZM95.309 71.473c0 .017-.317.042-.826.14a26.2 26.2 0 0 0-.886.182c-.36.059-.709.168-1.038.325-.322.16-.591.408-.776.716a2.797 2.797 0 0 0-.31.825c-.11.498-.144.826-.169.826a.643.643 0 0 1 0-.226c.012-.205.035-.409.07-.61.05-.306.151-.601.3-.873.19-.336.478-.607.825-.779.34-.16.703-.27 1.076-.325.336-.066.641-.118.897-.151.275-.061.557-.078.837-.05Z" fill="#EB996E"/><path d="M64.4 96.72c.033.023-1.72 2.632-3.911 5.822-2.19 3.189-3.999 5.763-4.032 5.741-.033-.022 1.72-2.629 3.913-5.821 2.194-3.193 3.991-5.763 4.03-5.741Z" fill="#263238"/></svg>