<svg width="157" height="101" fill="none" xmlns="http://www.w3.org/2000/svg"><circle cx="78.677" cy="78.677" r="78.677" fill="#30D4FE"/><path d="M97.94 100.334s8.626 41.866 8.507 48.554c-.044 2.798 0 52.348 0 52.348l-18.338.458V147.84c0 2.635-10.176-47.506-10.176-47.506H97.94Z" fill="#263238"/><path d="m60.78 137.257 6.274-25.001c-1.161-3.056-.358-9.003 1.035-14.882l.477-1.995 23.062 3.977 6.274 1.08-3.614 4.598c-8.783 20.942-14.78 34.82-18.784 43.491-3.068 6.656-9.988 7.44-16.795 4.711l-37.643-21.82 7.63-13.652 32.084 19.493Z" fill="#263238"/><path d="M120.996 45.74s-.063-.872-.031-3.382l-2.002-5.646s.753-1.035 1.832 1.512a1.356 1.356 0 0 0 2.56-.74 2.171 2.171 0 0 0-1.457-1.88 2.177 2.177 0 0 0-2.307.575s-.885 0-.891-.722c-.006-.721 2.177-2.102 3.764-1.392a5.076 5.076 0 0 1 1.707 1.292s.389-5.647.847-5.647c.458 0 1.047.44.571 6.613 0 0 .834-4.812 1.01-5.414.175-.602 1.066-.916.966.627l-.345 4.969s.96-3.074 1.054-3.313c.245-.627.891-.489.834.402-.044.671-.207 3.538-.207 3.538l-.765 8.828h.05" fill="#FFBE9D"/><path d="M126.981 38.456c.032.043-.232.22-.514.627a2.6 2.6 0 0 0-.471 1.782l.101.778-.402-.678-.056-.094a4.571 4.571 0 0 0-1.255-1.55c-.414-.288-.747-.326-.74-.376.006-.05.364-.088.859.182a3.91 3.91 0 0 1 1.405 1.58l.057.095-.301.1a2.564 2.564 0 0 1 .627-1.963c.358-.402.678-.515.69-.483Z" fill="#EB996E"/><path d="M81.829 51.03s-4.869.514-8.564.865c-4.317.414-8.784 4.83-6.594 13.602 1.148 4.649 4.04 7.528 3.388 13.175l-2.73 18.225 30.856 2.692-.571-27.147 1.035-10.873c1.085-13.626-9.367-11.293-9.367-11.293l-7.466.766" fill="#FC7387"/><path d="M67.53 68.715c3.501 22.391-8.024 42.662-20.935 58.723a66.62 66.62 0 0 0 25.754 16.876c2.032.747 4.222 1.393 6.343.954 2.823-.583 4.887-2.936 7.384-4.392 8.558-4.956 20.471 1.318 28.941-3.764-11.374-24.982-15.446-49.62-16.739-77.043" fill="#FC7387"/><path opacity=".5" d="M71.044 52.485s13.432 14.43 13.464 14.33c.031-.101 8.482-16.482 8.482-16.482-.364-.734-20.378.665-21.946 2.152Z" fill="#000"/><path d="M72.374 52.039 84.1 63.018 91.202 50.1c-6.318.135-12.615.784-18.828 1.939Z" fill="#fff"/><path d="m94.74 50.728 20.848 9.868 2.591-17.397 13.288-.884-4.486 21.211c0 5.521-3.94 8.545-8.112 9.693-2.509.684-6.838-.89-9.147-2.07-4.586-2.359-14.141-6.613-14.43-6.713-2.29-.834-14.01-18.257-.552-13.708Z" fill="#FC7387"/><path opacity=".5" d="m130.426 47.253-12.918.42.671-4.448 13.288-.885-1.041 4.913Z" fill="#000"/><path opacity=".2" d="m82.425 116.848-.822 1.468 13.35 2.327s7.134-14.26 1.136-38.86l-13.664 35.065ZM55.246 115.499l12.033 5.747s6.105-9.517 9.411-19.643c5.74-17.724.314-49.118.314-49.118-3.902 31.84-13.206 49.532-21.758 63.014Z" fill="#000"/><path d="M67.054 54.787 51.13 71.432l-8.645-15.283-12.73 3.915 11.763 18.194c1.952 5.17 6.732 6.581 11.036 6.16 2.585-.25 6.073-3.268 7.805-5.2 3.444-3.84 10.853-11.224 11.06-11.413 1.839-1.606 6.588-22.096-4.366-13.018Z" fill="#FC7387"/><path opacity=".5" d="M32.479 64.286 44.7 60.063l-2.215-3.915-12.73 3.915 2.724 4.223Z" fill="#000"/><path d="M84.495 24.541a7.077 7.077 0 0 1 1.669 3.714c.12.897.113 1.92.778 2.51.803.74 2.208.483 3.005 1.254 1.148 1.092.12 3.27 1.123 4.486.665.81 1.882.797 2.836 1.255a3.313 3.313 0 0 1 1.675 3.689c-.301 1.255-1.255 2.22-2.165 3.137l-2.082 2.07a2.372 2.372 0 0 1-1.312.81c-.934.094-1.618-.904-2.51-1.11-1.129-.258-2.126.727-3.23 1.072a3.031 3.031 0 0 1-3.877-2.365" fill="#263238"/><path d="M87.983 50.885c-.953-2.755-1.882-5.647-1.882-5.647s3.338-1.826 2.453-6.707c-.84-4.649-5.126-14.574-5.126-14.574A14.073 14.073 0 0 0 69.79 32.49l8.156 22.228a5.084 5.084 0 0 0 6.67 2.798c2.74-1.042 4.272-4.01 3.368-6.631Z" fill="#FFBE9D"/><path d="M85.04 32.113a.627.627 0 0 1-1.16.477.627.627 0 0 1 1.16-.477Z" fill="#263238"/><path d="M85.6 31.348c-.045.1-.628-.075-1.256.15-.627.227-.99.71-1.091.628-.1-.081 0-.188.132-.408.209-.29.502-.51.84-.627a1.65 1.65 0 0 1 1.03 0c.256.094.37.188.344.257ZM78.428 34.566a.627.627 0 0 1-1.16.477.627.627 0 0 1 1.16-.477Z" fill="#263238"/><path d="M79.024 33.907c-.044.1-.627-.075-1.255.151-.627.226-.99.709-1.085.627-.094-.081 0-.188.132-.407a1.707 1.707 0 0 1 1.882-.628c.238.088.351.207.326.257ZM82.995 37.822c.302-.22.628-.403.973-.545.157-.076.295-.163.288-.283a.93.93 0 0 0-.282-.445l-.916-1.073a22.58 22.58 0 0 1-2.215-2.86c.884.826 1.7 1.722 2.441 2.678l.897 1.086c.177.164.288.387.314.627a.453.453 0 0 1-.188.332c-.083.056-.171.102-.264.139-.333.159-.685.275-1.048.344Z" fill="#263238"/><path d="M86.101 45.22a12.49 12.49 0 0 1-6.77.514s2.617 2.647 7.09.627l-.32-1.142ZM83.265 39.435a1.254 1.254 0 0 0-1.18-.062 1.1 1.1 0 0 0-.59.627.704.704 0 0 0 .214.778.816.816 0 0 0 .91-.081c.257-.214.47-.477.627-.772a.626.626 0 0 0 .113-.251.225.225 0 0 0-.081-.239" fill="#EB996E"/><path d="M81.27 38.92c.107-.037.345.628 1.11.935.766.308 1.475-.05 1.513.044.037.094-.113.195-.42.314a1.883 1.883 0 0 1-1.256 0 1.606 1.606 0 0 1-.884-.778c-.126-.301-.107-.502-.063-.515Z" fill="#263238"/><path d="M73.296 36.994a2.856 2.856 0 0 0-1.455.627c-.42.34-.689.831-.747 1.368-.026.54.156 1.07.508 1.48.342.407.77.73 1.255.948.34.18.719.277 1.104.282a1.16 1.16 0 0 0 .973-.52" fill="#FFBE9D"/><path d="M74.068 40.063c.063 0-.05.376-.54.414a1.042 1.042 0 0 1-.734-.295 2.227 2.227 0 0 1-.527-.734 1.343 1.343 0 0 1-.1-.941.942.942 0 0 1 .514-.628c.465-.17.722.1.672.132-.05.031-.264-.056-.54.125a.878.878 0 0 0-.182 1.136c.232.49.59.885.903.903.314.02.49-.112.534-.112Z" fill="#EB996E"/><path d="M81.879 23.067a3.564 3.564 0 0 1-.188 4.26c-1.004 1.166-2.63 1.524-4.047 2.139-1.418.615-2.842 1.882-2.579 3.42.157.921.929 1.724.803 2.653-.138 1.08-1.417 1.7-1.668 2.767-.396 1.706 2.013 2.892 2.139 4.642.069 1.042-.69 1.99-.659 3.03.05 1.481 1.688 2.855 1.048 4.192-.496 1.022-1.939 1.072-3.037.79-1.097-.282-2.32-.715-3.318-.17a9.456 9.456 0 0 0-1.487 1.4 3.136 3.136 0 0 1-5.239-2.56c.14-.906.42-1.785.834-2.604.411-.83.477-1.788.182-2.666a5.976 5.976 0 0 0-1.361-1.594 2.063 2.063 0 0 1-.721-1.882c.326-1.185 2.139-1.324 2.66-2.44.715-1.531-1.6-3.074-1.255-4.737.37-1.882 3.614-1.97 3.99-3.846.138-.69-.188-1.38-.207-2.076-.044-1.594 1.48-2.817 3.005-3.288 1.525-.47 3.175-.477 4.655-1.08.81-.325 1.537-.82 2.328-1.197a3.958 3.958 0 0 1 2.51-.44 1.926 1.926 0 0 1 1.562 1.839" fill="#263238"/><path d="M81.603 26.517a5.967 5.967 0 0 0 4.711 2.34 14.544 14.544 0 0 0-.878-3.5 5.69 5.69 0 0 0-2.259-2.749 3.588 3.588 0 0 0-3.463-.17" fill="#263238"/><path d="M67.543 52.334a.822.822 0 0 1-.307-.226 1.13 1.13 0 0 1-.164-1.035c.088-.243.238-.459.433-.627.236-.212.493-.399.766-.559a5.06 5.06 0 0 0 .89-.627 1.557 1.557 0 0 0 .534-1.117 1.976 1.976 0 0 0-.565-1.255c-.307-.363-.677-.69-.966-1.097a3.407 3.407 0 0 1-.395-3.043c.176-.548.5-1.036.935-1.412.451-.383 1.003-.659 1.505-1.041.25-.194.463-.432.628-.703.167-.288.242-.621.213-.954a6.835 6.835 0 0 0-.627-1.882 3.594 3.594 0 0 1-.201-1.882 4.811 4.811 0 0 1 .627-1.744 7.196 7.196 0 0 1 2.554-2.41 25.72 25.72 0 0 1 2.904-1.423c.865-.371 1.704-.8 2.51-1.287a8.11 8.11 0 0 0 1.8-1.48c.395-.441.719-.94.96-1.48.152-.34.257-.7.314-1.067.021-.129.034-.259.038-.39 0 0 0 .133-.063.384a4.25 4.25 0 0 1-.339 1.047 6.801 6.801 0 0 1-2.766 2.905 20.42 20.42 0 0 1-2.51 1.255 25.24 25.24 0 0 0-2.917 1.418 7.354 7.354 0 0 0-2.61 2.446 4.976 4.976 0 0 0-.628 1.795 3.765 3.765 0 0 0 .207 1.957c.294.572.505 1.182.628 1.813.023.307-.047.613-.2.879-.162.262-.375.489-.628.665-.483.376-1.035.627-1.5 1.041a3.339 3.339 0 0 0-.978 1.474 3.526 3.526 0 0 0 .426 3.137c.301.42.678.74.979 1.098.313.313.507.726.546 1.167a1.42 1.42 0 0 1-.496 1.048c-.266.24-.559.451-.872.627a4.39 4.39 0 0 0-.765.578 1.537 1.537 0 0 0-.44.677 1.154 1.154 0 0 0 .195 1.073.627.627 0 0 0 .345.257Z" fill="#455A64"/><path d="M65.103 37.409h.244c.236-.01.47-.034.703-.07.37-.044.733-.145 1.073-.3a2.252 2.252 0 0 0 1.047-1.035 4.39 4.39 0 0 0 .396-1.75c-.004-.68.032-1.359.106-2.034.126-.735.43-1.429.885-2.02a7.139 7.139 0 0 1 1.763-1.612 18.74 18.74 0 0 1 4.291-1.807c.684-.232 1.33-.458 1.92-.715.55-.235 1.082-.514 1.587-.835A6.5 6.5 0 0 0 81 23.481c.19-.255.343-.533.458-.828l-.031.05-.088.163a6.21 6.21 0 0 1-.382.584 6.707 6.707 0 0 1-1.883 1.7c-.5.313-1.028.584-1.574.81-.59.244-1.255.47-1.92.695a18.755 18.755 0 0 0-4.323 1.82c-.69.44-1.3.996-1.8 1.644a4.756 4.756 0 0 0-.904 2.083 19.71 19.71 0 0 0-.094 2.051 4.16 4.16 0 0 1-.364 1.707 2.177 2.177 0 0 1-.991 1.01 3.976 3.976 0 0 1-1.048.32c-.301.05-.54.075-.696.094a2.075 2.075 0 0 0-.257.025ZM93.153 43.996l.081-.056a1.31 1.31 0 0 0 .22-.195c.255-.255.454-.56.583-.897.198-.5.252-1.046.157-1.575a2.735 2.735 0 0 0-1.029-1.637 2.823 2.823 0 0 0-1.844-.596 9.622 9.622 0 0 1-1.556.15 1.198 1.198 0 0 1-.866-.49 1.09 1.09 0 0 1-.125-.357v.1c.009.1.038.196.088.283a1.218 1.218 0 0 0 .897.565 8.523 8.523 0 0 0 1.574-.126 2.78 2.78 0 0 1 1.75.577c.508.39.858.948.986 1.575a2.842 2.842 0 0 1-.126 1.518 2.71 2.71 0 0 1-.527.898c-.092.083-.18.17-.263.263Z" fill="#455A64"/><path d="m59.544 26.09-.414-.91a.966.966 0 0 1 .508-1.285c4.643-1.952 25.465-10.666 26.036-10.666.684 0 .992 1.06.992 1.06.028.393-.01.787-.113 1.167L59.544 26.09Z" fill="#FF725E"/><path d="M85.36 14.032 59.965 24.698a.94.94 0 0 0-.081 1.694l5.514 3.005a.93.93 0 0 0 .785.05l19.147-7.529a.947.947 0 0 0 .59-.765l.722-6.092a.934.934 0 0 0-1.28-1.029Z" fill="#FF725E"/><path opacity=".5" d="M85.36 14.032 59.965 24.698a.94.94 0 0 0-.081 1.694l5.514 3.005a.93.93 0 0 0 .785.05l19.147-7.529a.947.947 0 0 0 .59-.765l.722-6.092a.934.934 0 0 0-1.28-1.029Z" fill="#000"/><path d="M69.262 31.028c0-.081-.395-.934-.84-1.976a5.552 5.552 0 0 1 2.471-7.07 29.33 29.33 0 0 1 6.575-2.623 5.509 5.509 0 0 1 6.23 2.723l1.33 2.447-15.766 6.5Z" fill="#FC7387"/><path d="M58.791 31.279s.22-.038.577-.163c.505-.19.953-.508 1.299-.923a4.668 4.668 0 0 0 1.016-2.139c.173-.981.286-1.972.339-2.967a7.378 7.378 0 0 1 .797-2.95 3.244 3.244 0 0 1 1.882-1.599 2.397 2.397 0 0 1 1.681.05c.198.069.372.193.502.358 0 0-.188-.12-.546-.239a2.459 2.459 0 0 0-1.568.05 3.075 3.075 0 0 0-1.72 1.525 7.435 7.435 0 0 0-.733 2.836 22.746 22.746 0 0 1-.37 3.005 4.694 4.694 0 0 1-1.142 2.227c-.384.424-.88.731-1.43.885a1.173 1.173 0 0 1-.584.044Z" fill="#263238"/><path d="M58.986 31.197c-1.255-.52-2.698-.144-3.953-.627.22.345.56.597.954.709a.628.628 0 0 1-.509.113c-.181 0-.401 0-.483.163a.446.446 0 0 0-.037.257c.031.47.15.93.351 1.355.81-.282 1.6-.627 2.378-.96.483-.22 1.33-.389 1.292-.96" fill="#263238"/><path d="M88.266 50.195s3.086-1.255 4.761.17c.866.727 4.906 45.961 4.166 55.052-.74 9.091-2.679 13.545-2.679 13.545l-13.275-2.321s4.222-13.74 5.364-23.602c1.142-9.863 1.663-42.844 1.663-42.844ZM76.766 49.8s-5.678 1.474-5.647 3.764c.031 2.29-1.7 29.405-8.557 44.877-4.517 10.258-11.507 13.771-11.507 13.771l15.955 7.001s8.601-10.872 10.157-30.603c.9-12.927.765-25.905-.401-38.81Z" fill="#455A64"/><path d="m34.499 59.768-1.682-1.85c-1.38-1.82-2.22-2.773-2.208-3.652 0-1.173 1.393-.86 1.393-.86s-.703-1.587.138-2.157a1.004 1.004 0 0 1 1.16.137s-.57-1.449-.32-2.076c.34-.847 1.356-.39 1.356-.39-.446-2.283.558-2.967.96-2.716.401.251.922 1.882.922 1.882.627 1.205 2.233 4.555 2.78 2.253.545-2.303 1.825-3.859 2.465-4.04a.74.74 0 0 1 .677 1.254 8.617 8.617 0 0 0-.978 2.17 5.694 5.694 0 0 0-.295 1.883c0 .747.056 1.38.106 1.92l-.062 3.093-6.412 3.15Z" fill="#FFBE9D"/><path d="M38.288 45.91a2.874 2.874 0 0 1-4.523 1.781 4.617 4.617 0 0 1-1.519-2.51 25.4 25.4 0 0 0-.815-2.873 6.838 6.838 0 0 0-5.44-3.902 9.41 9.41 0 0 0-6.593 1.882l2.039-2.359-3.42-1.167a9.6 9.6 0 0 1 15.208 3.388c.32.753.546 1.543.935 2.258.354.745.98 1.324 1.75 1.62a1.738 1.738 0 0 0 2.083-.816" fill="#FC7387"/><path d="M40.227 32.309 28.965 66.087c.515 2.309 2.334 2.948 5.239 2.215l11.35-34.663c-1.08-2.196-2.943-2.416-5.327-1.33Z" fill="#FAFAFA"/><path d="m40.227 32.308.088-.05.282-.132c.37-.162.755-.29 1.148-.383a3.663 3.663 0 0 1 1.964 0 3.443 3.443 0 0 1 1.92 1.832v.063c-2.228 6.958-6.393 19.782-11.18 34.406l-.094.282v.088h-.088a6.48 6.48 0 0 1-3.357.113 2.848 2.848 0 0 1-1.405-.941 3.765 3.765 0 0 1-.671-1.506v-.088l8.074-24.047c1.023-3 1.844-5.408 2.415-7.096.283-.81.502-1.443.665-1.882.07-.201.126-.364.176-.49a.983.983 0 0 1 .063-.156.547.547 0 0 1-.044.175l-.15.508c-.151.458-.358 1.105-.628 1.933l-2.321 7.133c-2.008 6.06-4.8 14.493-7.962 24.066v-.081c.105.499.32.968.628 1.374.322.4.76.691 1.254.834a6.273 6.273 0 0 0 3.181-.119l-.113.107.088-.282c4.793-14.625 9.016-27.43 11.337-34.356v.063a3.312 3.312 0 0 0-1.826-1.77 3.695 3.695 0 0 0-1.882-.062c-.53.123-1.051.278-1.562.464Z" fill="#263238"/><path d="M34.085 68.376c-.057 0-.044-.408-.276-.991a3.007 3.007 0 0 0-3.984-1.725c-.59.225-.885.514-.922.47-.038-.044.22-.376.828-.684a3.044 3.044 0 0 1 4.291 1.883c.14.332.161.701.063 1.047Z" fill="#263238"/><path d="M33.74 67.322a1.813 1.813 0 0 1-1.042.558c-.432.096-.88.096-1.311 0a2.896 2.896 0 0 1-.74-.257 1.469 1.469 0 0 1-.628-.627.854.854 0 0 1 .1-.929.872.872 0 0 1 .829-.238 1.004 1.004 0 0 1 .86 1.023.577.577 0 0 1-.32.458.452.452 0 0 1-.427 0c-.201-.138-.163-.308-.15-.302.012.007.05.12.212.189a.308.308 0 0 0 .277 0 .429.429 0 0 0 .181-.327.778.778 0 0 0-.69-.715.583.583 0 0 0-.54.157.54.54 0 0 0-.043.577 1.765 1.765 0 0 0 1.154.716c.39.096.796.113 1.192.05.684-.12 1.054-.383 1.086-.333ZM44.65 32.395a1.788 1.788 0 0 1-.1.346c-.095.257-.207.577-.345.972-.32.878-.766 2.083-1.305 3.551l-4.26 11.738c-1.657 4.587-3.194 8.727-4.348 11.707a181.706 181.706 0 0 1-1.406 3.514c-.156.389-.294.702-.395.953-.041.113-.096.22-.163.32.018-.119.052-.235.1-.345.088-.257.201-.577.346-.972.32-.879.759-2.083 1.298-3.551l4.26-11.739c1.663-4.586 3.194-8.727 4.354-11.707a153.755 153.755 0 0 1 1.4-3.513c.162-.389.294-.703.4-.947.038-.117.093-.227.164-.327Z" fill="#263238"/><path d="M34.455 49.981s3.52-1.512 5.02 1.776l1.128-3.539s-1.587-3.042-5.107-1.424l-1.04 3.187Z" fill="#FC7387"/></svg>