<svg width="226" height="168" fill="none" xmlns="http://www.w3.org/2000/svg"><circle cx="113" cy="113.001" r="113" fill="#30D4FE"/><path d="M140.667 144.107s12.389 60.129 12.218 69.735c-.063 4.018 0 75.186 0 75.186l-26.338.658v-77.349c0 3.784-14.616-68.23-14.616-68.23h28.736Z" fill="#263238"/><path d="m87.295 197.136 9.011-35.908c-1.667-4.388-.513-12.93 1.487-21.373l.685-2.866 33.124 5.713 9.01 1.55-5.19 6.605c-12.615 30.078-21.229 50.01-26.978 62.463-4.406 9.56-14.345 10.687-24.122 6.767l-54.065-31.34 10.957-19.607 46.081 27.996Z" fill="#263238"/><path d="M173.781 65.695s-.09-1.252-.045-4.856l-2.874-8.11s1.081-1.487 2.631 2.172a1.944 1.944 0 0 0 3.35.218c.255-.376.371-.83.326-1.282a3.123 3.123 0 0 0-5.406-1.874s-1.271 0-1.28-1.036c-.009-1.036 3.127-3.019 5.407-2a7.298 7.298 0 0 1 2.451 1.856s.558-8.11 1.216-8.11c.658 0 1.505.63.82 9.497 0 0 1.199-6.911 1.451-7.776.252-.865 1.532-1.316 1.388.901l-.496 7.137s1.379-4.416 1.514-4.758c.351-.901 1.279-.703 1.198.577-.063.964-.297 5.082-.297 5.082l-1.099 12.678h.072" fill="#FFBE9D"/><path d="M182.378 55.234c.045.063-.334.315-.739.9a3.729 3.729 0 0 0-.676 2.56l.144 1.117-.577-.973-.081-.135a6.558 6.558 0 0 0-1.802-2.226c-.595-.414-1.072-.468-1.063-.54.009-.073.523-.127 1.234.26a5.633 5.633 0 0 1 2.019 2.271l.081.136-.433.144a3.687 3.687 0 0 1 .901-2.82c.514-.577.974-.74.992-.694Z" fill="#EB996E"/><path d="M117.527 73.292s-6.993.739-12.3 1.243c-6.2.595-12.615 6.939-9.47 19.536 1.649 6.677 5.803 10.813 4.865 18.922l-3.92 26.177 44.316 3.865-.82-38.989 1.487-15.616c1.559-19.572-13.453-16.22-13.453-16.22l-10.723 1.1" fill="#FC7387"/><path d="M96.991 98.693c5.028 32.159-11.525 61.273-30.069 84.341a95.682 95.682 0 0 0 36.989 24.239c2.92 1.072 6.065 2 9.11 1.37 4.055-.838 7.02-4.217 10.606-6.308 12.291-7.118 29.402 1.892 41.567-5.406-16.337-35.881-22.185-71.267-24.041-110.653" fill="#FC7387"/><path opacity=".5" d="M102.037 75.382s19.292 20.725 19.337 20.581c.045-.144 12.183-23.671 12.183-23.671-.523-1.055-29.267.955-31.52 3.09Z" fill="#000"/><path d="m103.947 74.742 16.842 15.77 10.2-18.554a167.62 167.62 0 0 0-27.042 2.784Z" fill="#fff"/><path d="m136.071 72.859 29.943 14.174 3.721-24.987 19.085-1.27-6.442 30.465c0 7.93-5.659 12.273-11.651 13.922-3.605.982-9.822-1.28-13.138-2.974-6.587-3.388-20.311-9.497-20.725-9.641-3.289-1.199-20.121-26.222-.793-19.69Z" fill="#FC7387"/><path opacity=".5" d="m187.325 67.868-18.554.604.964-6.389 19.085-1.27-1.495 7.055Z" fill="#000"/><path d="M115.076 168.004c.135 0-.901 8.534-2.235 19.022-1.333 10.489-2.577 18.977-2.703 18.923-.126-.054.901-8.533 2.235-19.022 1.333-10.488 2.577-18.932 2.703-18.923ZM137.36 154.074a9.505 9.505 0 0 1-.352 1.496c-.279 1.027-.64 2.396-1.081 4.045-.901 3.424-2.001 8.182-2.965 13.517a177.079 177.079 0 0 0-1.91 13.678 666.014 666.014 0 0 0-.406 4.172 8.972 8.972 0 0 1-.189 1.532 10.71 10.71 0 0 1 0-1.541c0-.991.117-2.424.253-4.19.27-3.532.829-8.407 1.802-13.732.973-5.326 2.135-10.084 3.108-13.517.487-1.703.902-3.081 1.217-4.019.139-.492.314-.974.523-1.441Z" fill="#263238"/><path opacity=".2" d="m118.383 167.824-1.181 2.109 19.175 3.343s10.246-20.482 1.631-55.813l-19.625 50.361ZM79.348 165.887l17.283 8.254s8.767-13.67 13.516-28.213c8.245-25.456.45-70.546.45-70.546-5.604 45.73-18.967 71.141-31.25 90.505Z" fill="#000"/><path d="m96.306 78.69-22.87 23.905-12.416-21.95-18.283 5.623 16.895 26.131c2.803 7.425 9.669 9.452 15.85 8.849 3.713-.361 8.723-4.695 11.21-7.47 4.947-5.515 15.588-16.12 15.886-16.391 2.64-2.307 9.461-31.736-6.272-18.698Z" fill="#FC7387"/><path opacity=".5" d="M46.648 92.332 64.2 86.267l-3.181-5.623-18.283 5.623 3.91 6.065Z" fill="#000"/><path d="M121.356 35.248a10.158 10.158 0 0 1 2.397 5.334c.171 1.289.162 2.758 1.118 3.605 1.153 1.063 3.171.694 4.316 1.802 1.649 1.568.171 4.695 1.613 6.443.955 1.162 2.703 1.144 4.073 1.802a4.76 4.76 0 0 1 2.405 5.298c-.432 1.802-1.802 3.19-3.108 4.506l-2.992 2.973a3.408 3.408 0 0 1-1.883 1.163c-1.343.135-2.325-1.298-3.604-1.595-1.622-.37-3.055 1.045-4.641 1.54a4.353 4.353 0 0 1-5.569-3.397" fill="#263238"/><path d="M126.366 73.084a439.455 439.455 0 0 1-2.703-8.11s4.794-2.622 3.523-9.632c-1.207-6.677-7.361-20.932-7.361-20.932a20.21 20.21 0 0 0-19.59 12.254l11.714 31.925a7.298 7.298 0 0 0 9.579 4.02c3.937-1.496 6.136-5.759 4.838-9.525Z" fill="#FFBE9D"/><path d="M122.14 46.124a.9.9 0 0 1-1.667.685.9.9 0 0 1 1.186-1.141.897.897 0 0 1 .481.456Z" fill="#263238"/><path d="M122.942 45.025c-.063.144-.901-.108-1.802.216-.901.325-1.424 1.019-1.568.901-.144-.117 0-.27.189-.585a2.507 2.507 0 0 1 1.208-.901 2.37 2.37 0 0 1 1.478 0c.369.135.531.27.495.37ZM112.643 49.648a.901.901 0 0 1-1.667.684.903.903 0 0 1 1.667-.685Z" fill="#263238"/><path d="M113.499 48.701c-.063.144-.901-.108-1.802.216-.901.325-1.424 1.018-1.559.901-.135-.117 0-.27.189-.585a2.456 2.456 0 0 1 2.703-.901c.343.126.505.297.469.369ZM119.203 54.324a6.79 6.79 0 0 1 1.396-.784c.226-.108.424-.234.415-.405a1.332 1.332 0 0 0-.406-.64l-1.315-1.54a32.41 32.41 0 0 1-3.181-4.11 32.61 32.61 0 0 1 3.505 3.848l1.289 1.559c.253.236.413.556.45.9a.639.639 0 0 1-.27.478c-.118.08-.245.147-.378.199a6.248 6.248 0 0 1-1.505.495Z" fill="#263238"/><path d="M123.663 64.948a17.941 17.941 0 0 1-9.723.739s3.758 3.802 10.183.9l-.46-1.64ZM119.59 56.64a1.8 1.8 0 0 0-1.694-.09 1.575 1.575 0 0 0-.847.901 1.007 1.007 0 0 0 .307 1.118 1.17 1.17 0 0 0 1.306-.118c.37-.307.676-.683.901-1.108a.892.892 0 0 0 .162-.36.32.32 0 0 0-.117-.343" fill="#EB996E"/><path d="M116.725 55.9c.153-.053.495.902 1.595 1.343 1.099.442 2.117-.072 2.171.063.054.136-.162.28-.603.45a2.706 2.706 0 0 1-1.803 0 2.31 2.31 0 0 1-1.27-1.117c-.18-.432-.153-.72-.09-.738Z" fill="#263238"/><path d="M105.272 53.134a4.095 4.095 0 0 0-2.09.9A2.93 2.93 0 0 0 102.109 56a3.038 3.038 0 0 0 .73 2.127 5.076 5.076 0 0 0 1.802 1.36c.49.259 1.033.398 1.586.406a1.667 1.667 0 0 0 1.397-.748" fill="#FFBE9D"/><path d="M106.38 57.541c.09 0-.072.54-.775.595a1.496 1.496 0 0 1-1.054-.424 3.2 3.2 0 0 1-.757-1.054 1.934 1.934 0 0 1-.144-1.352 1.36 1.36 0 0 1 .739-.9c.667-.244 1.036.144.964.189-.072.045-.378-.081-.775.18a1.262 1.262 0 0 0-.261 1.63c.333.704.847 1.271 1.297 1.298.451.027.703-.162.766-.162Z" fill="#EB996E"/><path d="M117.599 33.13a5.12 5.12 0 0 1-.271 6.118c-1.441 1.677-3.775 2.19-5.811 3.074-2.037.883-4.082 2.703-3.704 4.91.225 1.325 1.334 2.479 1.153 3.812-.198 1.55-2.036 2.442-2.396 3.974-.568 2.45 2.892 4.154 3.072 6.668.099 1.496-.991 2.856-.946 4.352.072 2.127 2.424 4.1 1.505 6.02-.712 1.468-2.784 1.54-4.361 1.135-1.577-.406-3.334-1.028-4.767-.244a13.604 13.604 0 0 0-2.136 2.01 4.506 4.506 0 0 1-7.524-3.677c.2-1.301.605-2.563 1.199-3.739a5.028 5.028 0 0 0 .261-3.83 8.579 8.579 0 0 0-1.955-2.288 2.966 2.966 0 0 1-1.037-2.704c.47-1.703 3.073-1.9 3.821-3.505 1.027-2.199-2.298-4.415-1.802-6.803.532-2.703 5.19-2.83 5.73-5.524.2-.99-.27-1.982-.296-2.982-.064-2.289 2.126-4.046 4.316-4.722 2.189-.676 4.559-.685 6.686-1.55 1.162-.468 2.207-1.18 3.343-1.72a5.685 5.685 0 0 1 3.604-.632 2.765 2.765 0 0 1 2.244 2.64" fill="#263238"/><path d="M117.202 38.086a8.568 8.568 0 0 0 6.767 3.361 20.867 20.867 0 0 0-1.261-5.028 8.176 8.176 0 0 0-3.244-3.947 5.154 5.154 0 0 0-4.974-.243" fill="#263238"/><path d="M97.01 75.166a1.18 1.18 0 0 1-.442-.324 1.622 1.622 0 0 1-.235-1.487c.127-.349.34-.659.622-.901a6.793 6.793 0 0 1 1.1-.802 7.269 7.269 0 0 0 1.279-.901 2.235 2.235 0 0 0 .766-1.604 2.84 2.84 0 0 0-.811-1.802c-.442-.523-.973-.991-1.388-1.577a4.891 4.891 0 0 1-.567-4.37 4.505 4.505 0 0 1 1.342-2.028c.649-.55 1.442-.946 2.163-1.495.359-.279.665-.621.901-1.01.24-.414.347-.892.306-1.37a9.814 9.814 0 0 0-.901-2.703 5.163 5.163 0 0 1-.288-2.703 6.905 6.905 0 0 1 .901-2.505 10.337 10.337 0 0 1 3.667-3.46 37.01 37.01 0 0 1 4.172-2.046 29.446 29.446 0 0 0 3.605-1.847c.959-.58 1.83-1.297 2.586-2.126a8.252 8.252 0 0 0 1.378-2.127 6.066 6.066 0 0 0 .451-1.532 4.36 4.36 0 0 0 .054-.558s0 .189-.09.55a6.128 6.128 0 0 1-.487 1.504 9.769 9.769 0 0 1-3.974 4.172 29.295 29.295 0 0 1-3.604 1.802 36.273 36.273 0 0 0-4.19 2.037 10.556 10.556 0 0 0-3.748 3.514 7.133 7.133 0 0 0-.902 2.577 5.414 5.414 0 0 0 .298 2.812c.421.82.725 1.697.901 2.604.034.44-.067.88-.288 1.261a3.195 3.195 0 0 1-.901.955c-.694.54-1.487.901-2.154 1.496a4.794 4.794 0 0 0-1.406 2.118 5.064 5.064 0 0 0 .613 4.505c.432.604.973 1.063 1.406 1.577.45.449.728 1.042.784 1.676a2.039 2.039 0 0 1-.712 1.505 6.971 6.971 0 0 1-1.253.9 6.313 6.313 0 0 0-1.1.83 2.207 2.207 0 0 0-.63.973 1.657 1.657 0 0 0 .28 1.54.901.901 0 0 0 .495.37Z" fill="#455A64"/><path d="M93.504 53.73h.351a9.751 9.751 0 0 0 1.01-.1 5.23 5.23 0 0 0 1.54-.432 3.235 3.235 0 0 0 1.505-1.487c.36-.79.554-1.646.568-2.514-.005-.975.046-1.95.153-2.92a6.56 6.56 0 0 1 1.27-2.9 10.266 10.266 0 0 1 2.533-2.317 26.905 26.905 0 0 1 6.163-2.595c.982-.333 1.91-.658 2.757-1.027a15.79 15.79 0 0 0 2.28-1.198 9.317 9.317 0 0 0 2.703-2.514 5.11 5.11 0 0 0 .658-1.19l-.045.072-.126.235c-.168.289-.351.569-.55.837a9.626 9.626 0 0 1-2.703 2.442c-.72.45-1.477.84-2.262 1.163-.847.351-1.802.676-2.757 1a26.903 26.903 0 0 0-6.208 2.613 10.146 10.146 0 0 0-2.587 2.361 6.83 6.83 0 0 0-1.297 2.992c-.096.979-.142 1.962-.135 2.946a5.975 5.975 0 0 1-.523 2.451c-.3.629-.8 1.14-1.424 1.45a5.713 5.713 0 0 1-1.504.46c-.433.072-.775.108-1 .136a2.991 2.991 0 0 0-.37.036ZM133.791 63.19l.117-.08c.116-.081.221-.175.316-.28.367-.366.652-.805.838-1.288a4.168 4.168 0 0 0 .225-2.262 3.928 3.928 0 0 0-1.478-2.352 4.053 4.053 0 0 0-2.649-.856c-.738.133-1.485.205-2.235.216a1.725 1.725 0 0 1-1.243-.703 1.542 1.542 0 0 1-.18-.513v.144c.013.142.056.28.126.405a1.752 1.752 0 0 0 1.288.811c.758.01 1.515-.05 2.262-.18a3.991 3.991 0 0 1 2.514.83 3.804 3.804 0 0 1 1.415 2.26 4.09 4.09 0 0 1-.18 2.181 3.9 3.9 0 0 1-.757 1.29c-.133.118-.259.245-.379.377Z" fill="#455A64"/><path d="m85.52 37.474-.594-1.307a1.388 1.388 0 0 1 .73-1.847C92.323 31.517 122.23 19 123.05 19c.983 0 1.424 1.523 1.424 1.523.04.564-.015 1.13-.162 1.676L85.52 37.474Z" fill="#FF725E"/><path d="M122.6 20.155 86.124 35.473a1.35 1.35 0 0 0-.117 2.433l7.92 4.316a1.335 1.335 0 0 0 1.127.072l27.501-10.813a1.359 1.359 0 0 0 .847-1.099l1.036-8.75a1.347 1.347 0 0 0-.48-1.285 1.343 1.343 0 0 0-1.358-.192Z" fill="#FF725E"/><path opacity=".5" d="M122.6 20.155 86.124 35.473a1.35 1.35 0 0 0-.117 2.433l7.92 4.316a1.335 1.335 0 0 0 1.127.072l27.501-10.813a1.359 1.359 0 0 0 .847-1.099l1.036-8.75a1.347 1.347 0 0 0-.48-1.285 1.343 1.343 0 0 0-1.358-.192Z" fill="#000"/><path d="M99.478 44.566c0-.117-.568-1.343-1.207-2.839a7.975 7.975 0 0 1 3.55-10.155 42.13 42.13 0 0 1 9.443-3.766 7.91 7.91 0 0 1 8.948 3.91l1.91 3.515-22.644 9.335Z" fill="#FC7387"/><path d="M84.439 44.925s.315-.054.829-.234a4.505 4.505 0 0 0 1.865-1.325 6.705 6.705 0 0 0 1.46-3.072c.248-1.41.41-2.833.487-4.262a10.597 10.597 0 0 1 1.144-4.235 4.658 4.658 0 0 1 2.703-2.298 3.441 3.441 0 0 1 2.415.072c.284.099.535.277.721.513 0 0-.27-.17-.784-.342a3.532 3.532 0 0 0-2.253.072 4.415 4.415 0 0 0-2.469 2.19 10.676 10.676 0 0 0-1.054 4.073 32.657 32.657 0 0 1-.531 4.316 6.74 6.74 0 0 1-1.64 3.199 4.344 4.344 0 0 1-2.055 1.27c-.27.092-.558.113-.838.063Z" fill="#263238"/><path d="M84.718 44.808c-1.802-.748-3.874-.207-5.677-.9.317.495.805.857 1.37 1.017a.902.902 0 0 1-.73.163c-.261 0-.576 0-.694.234a.64.64 0 0 0-.054.37c.045.674.217 1.334.505 1.946 1.162-.406 2.298-.901 3.415-1.379.694-.315 1.91-.559 1.856-1.379" fill="#263238"/><path d="M126.772 72.093s4.433-1.802 6.839.244c1.243 1.045 7.046 66.013 5.983 79.07-1.063 13.056-3.847 19.454-3.847 19.454l-19.067-3.334s6.064-19.734 7.704-33.899c1.64-14.165 2.388-61.535 2.388-61.535Z" fill="#455A64"/><path d="M137.531 164.581c-.22.178-.467.321-.73.424-.692.346-1.405.647-2.136.901a8.573 8.573 0 0 1-3.433.513 10.162 10.162 0 0 1-4.019-1.387 29.422 29.422 0 0 0-3.694-1.893 6.04 6.04 0 0 0-3.244-.387 4.095 4.095 0 0 0-2.009.901c-.406.342-.559.604-.595.586-.036-.018.081-.307.468-.721a4.05 4.05 0 0 1 2.064-1.109 6.235 6.235 0 0 1 3.469.307 26.64 26.64 0 0 1 3.767 1.883 10.2 10.2 0 0 0 3.829 1.37 8.733 8.733 0 0 0 3.298-.397c1.838-.549 2.938-1.072 2.965-.991ZM138.008 160.516a2.692 2.692 0 0 1-.694.478c-.66.399-1.343.76-2.045 1.081a11.04 11.04 0 0 1-3.316.965 6.376 6.376 0 0 1-4.127-.902c-1.306-.775-2.343-1.748-3.415-2.396a5.336 5.336 0 0 0-3.082-.983 3.373 3.373 0 0 0-2.036.757c-.397.343-.523.622-.568.604.059-.292.211-.558.433-.757a3.331 3.331 0 0 1 2.135-.955 5.473 5.473 0 0 1 3.334.946c1.127.658 2.19 1.622 3.424 2.37a6.154 6.154 0 0 0 3.857.901 11.48 11.48 0 0 0 3.226-.838c1.784-.757 2.838-1.352 2.874-1.271Z" fill="#263238"/><path d="M110.255 71.526s-8.155 2.118-8.11 5.407c.045 3.289-2.442 42.234-12.29 64.454-6.488 14.733-16.526 19.779-16.526 19.779l22.914 10.056s12.354-15.616 14.589-43.955a349.756 349.756 0 0 0-.577-55.74Z" fill="#455A64"/><path d="M99.866 164.77s0-.352-.082-.955a5.403 5.403 0 0 0-.9-2.37 5.209 5.209 0 0 0-3.02-2.1 13.34 13.34 0 0 0-4.649-.216 18.72 18.72 0 0 1-4.812 0 6.306 6.306 0 0 1-2.027-.685 5.403 5.403 0 0 1-1.442-1.18 3.848 3.848 0 0 1-1.027-2.451 2.088 2.088 0 0 1 .09-.721c0-.162.072-.243.09-.234.018.009-.054.342 0 .946a3.997 3.997 0 0 0 1.09 2.243 5.52 5.52 0 0 0 3.298 1.658c1.565.167 3.144.146 4.704-.063a13.255 13.255 0 0 1 4.812.262 5.404 5.404 0 0 1 3.172 2.342c.482.763.755 1.64.793 2.542.051.329.02.667-.09.982Z" fill="#263238"/><path d="M101.812 161.67s0-.342-.054-.901a5.316 5.316 0 0 0-.901-2.343 5.123 5.123 0 0 0-2.938-2.099 13.429 13.429 0 0 0-4.568-.298 19.107 19.107 0 0 1-4.731-.081 6.539 6.539 0 0 1-1.982-.703 5.388 5.388 0 0 1-1.406-1.18 3.758 3.758 0 0 1-.982-2.424 2.512 2.512 0 0 1 .099-.712c.054-.153.09-.234.099-.225.009.009-.054.342 0 .901a3.834 3.834 0 0 0 1.045 2.217c.392.421.848.776 1.352 1.054.588.303 1.22.51 1.874.613a19.69 19.69 0 0 0 4.623.045 13.319 13.319 0 0 1 4.721.351 5.41 5.41 0 0 1 3.091 2.334c.473.755.735 1.623.757 2.514.037.316.003.636-.099.937Z" fill="#263238"/><path d="m49.55 85.844-2.416-2.658c-1.982-2.614-3.19-3.983-3.172-5.245 0-1.685 2-1.234 2-1.234s-1.008-2.28.2-3.1a1.441 1.441 0 0 1 1.666.198s-.82-2.081-.46-2.982c.487-1.217 1.947-.559 1.947-.559-.64-3.28.802-4.262 1.379-3.902.576.36 1.324 2.704 1.324 2.704.901 1.73 3.208 6.541 3.992 3.234.784-3.306 2.622-5.541 3.541-5.802a1.063 1.063 0 0 1 .973 1.802c-.61.969-1.083 2.018-1.405 3.118a8.173 8.173 0 0 0-.424 2.703c0 1.072.081 1.982.153 2.757l-.09 4.442-9.209 4.524Z" fill="#FFBE9D"/><path d="M54.992 65.939a4.127 4.127 0 0 1-6.497 2.559 6.631 6.631 0 0 1-2.18-3.604c-.31-1.398-.701-2.776-1.172-4.127a9.822 9.822 0 0 0-7.813-5.605 13.517 13.517 0 0 0-9.47 2.703l2.929-3.388-4.911-1.676a13.786 13.786 0 0 1 21.842 4.866c.46 1.081.784 2.217 1.343 3.244a4.613 4.613 0 0 0 2.514 2.325 2.496 2.496 0 0 0 2.991-1.172" fill="#FC7387"/><path d="M57.776 46.404 41.602 94.918c.739 3.316 3.352 4.235 7.524 3.181l16.3-49.785c-1.55-3.154-4.226-3.469-7.65-1.91Z" fill="#FAFAFA"/><path d="m57.776 46.404.126-.072.406-.19a9.595 9.595 0 0 1 1.649-.55 5.261 5.261 0 0 1 2.82 0 4.947 4.947 0 0 1 2.757 2.632v.09c-3.199 9.993-9.182 28.411-16.057 49.415l-.135.406v.126h-.126a9.309 9.309 0 0 1-4.821.162 4.091 4.091 0 0 1-2.019-1.351 5.405 5.405 0 0 1-.964-2.163v-.126L53.01 60.244c1.469-4.307 2.65-7.767 3.47-10.19.405-1.163.72-2.073.955-2.704.099-.288.18-.523.252-.703.023-.077.054-.153.09-.225a.784.784 0 0 1-.063.252l-.216.73c-.217.658-.514 1.586-.901 2.775l-3.334 10.246c-2.884 8.704-6.894 20.815-11.435 34.565v-.117c.15.716.459 1.39.9 1.973a3.605 3.605 0 0 0 1.803 1.199 9.012 9.012 0 0 0 4.569-.171l-.163.153.127-.406c6.884-21.004 12.948-39.395 16.282-49.343v.09a4.757 4.757 0 0 0-2.622-2.54 5.307 5.307 0 0 0-2.703-.091c-.761.177-1.51.4-2.244.667Z" fill="#263238"/><path d="M48.954 98.207c-.08 0-.063-.586-.396-1.424a4.315 4.315 0 0 0-5.722-2.478c-.847.324-1.27.739-1.325.676-.054-.063.316-.54 1.19-.982a4.37 4.37 0 0 1 6.163 2.703c.2.477.232 1.008.09 1.505Z" fill="#263238"/><path d="M48.459 96.693c-.395.427-.922.71-1.496.802a4.363 4.363 0 0 1-1.883 0 4.157 4.157 0 0 1-1.063-.37c-.387-.2-.701-.514-.902-.9a1.224 1.224 0 0 1 .145-1.334 1.252 1.252 0 0 1 1.189-.343 1.442 1.442 0 0 1 1.235 1.47.828.828 0 0 1-.46.657.649.649 0 0 1-.613 0c-.288-.198-.234-.441-.216-.432.018.009.072.17.306.27a.442.442 0 0 0 .397 0 .613.613 0 0 0 .261-.469 1.117 1.117 0 0 0-.991-1.027.838.838 0 0 0-.775.225.775.775 0 0 0-.063.83 2.533 2.533 0 0 0 1.658 1.027c.56.138 1.142.162 1.712.072.982-.172 1.514-.55 1.559-.478ZM64.129 46.529c-.032.17-.08.335-.145.495-.135.37-.297.83-.495 1.397-.46 1.262-1.1 2.992-1.874 5.1l-6.119 16.86c-2.379 6.586-4.586 12.534-6.244 16.814a262.33 262.33 0 0 1-2.019 5.046c-.225.558-.423 1.009-.567 1.37-.06.161-.139.315-.234.459.025-.171.074-.338.144-.496.126-.37.288-.829.495-1.396.46-1.262 1.09-2.992 1.866-5.1l6.118-16.86c2.388-6.587 4.586-12.534 6.253-16.814a220.972 220.972 0 0 1 2.01-5.046c.234-.559.423-1.01.576-1.36a1.74 1.74 0 0 1 .235-.47Z" fill="#263238"/><path d="M49.486 71.787s5.055-2.171 7.209 2.55l1.622-5.082s-2.28-4.37-7.335-2.045l-1.496 4.577Z" fill="#FC7387"/></svg>