<svg width="161" height="110" fill="none" xmlns="http://www.w3.org/2000/svg"><circle cx="80.5" cy="80.5" r="80.5" fill="#30D4FE"/><path d="M133.652 37.129H27.412a4.085 4.085 0 0 0-4.086 4.085v67.489a4.085 4.085 0 0 0 4.085 4.086h106.241a4.085 4.085 0 0 0 4.085-4.086V41.214a4.085 4.085 0 0 0-4.085-4.085Z" fill="#455A64"/><path d="M18.702 107.192h123.956v1.629a4.99 4.99 0 0 1-4.991 4.991H23.693a4.988 4.988 0 0 1-4.61-3.081 4.993 4.993 0 0 1-.38-1.91v-1.629Z" fill="#455A64"/><path d="M134.507 40.135H26.559v63.891h107.948V40.135Z" fill="#F5F5F5"/><path d="M69.412 107.192H71.297l5.23-.022 17.487-.037h.13l-.065.112c-.219.376-.457.78-.693 1.189-.235.41-.499.842-.734 1.257l-.023.036h-.042l-21.644-.039h-.02v-.017l-1.12-1.842-.281-.469-.093-.154.11.163c.07.112.17.266.302.468.264.412.654 1.015 1.156 1.8l-.028-.017 21.644-.039-.065.037.735-1.259c.238-.407.474-.814.695-1.189l.062.112-17.416-.039-5.28-.034h-1.806l-.126-.017Z" fill="#263238"/><path fill-rule="evenodd" clip-rule="evenodd" d="M60.453 81.014c.571-.761 1.24-1.444 1.988-2.03l-.473-2.591 4.007-1.708 1.545 2.134a10.69 10.69 0 0 1 2.84-.034l1.495-2.164 4.043 1.626-.418 2.596a10.75 10.75 0 0 1 2.03 1.988l2.591-.47 1.708 4.017-2.134 1.543c.138.94.148 1.896.03 2.84l2.168 1.497-1.626 4.041-2.597-.418a10.747 10.747 0 0 1-1.988 2.03l.471 2.591-4.007 1.711-1.542-2.134a10.69 10.69 0 0 1-2.84.03l-1.495 2.165-4.043-1.623.418-2.6a10.655 10.655 0 0 1-2.03-1.988l-2.591.474-1.71-4.007 2.133-1.545a10.673 10.673 0 0 1-.03-2.837l-2.165-1.49 1.623-4.043 2.6.418v-.02Zm4.335 4.503a4.675 4.675 0 1 0 .996-1.523c-.429.44-.767.959-.996 1.528v-.005Z" fill="#F5F5F5"/><path d="M137.737 107.192c0 .04-25.614.07-57.201.07s-57.202-.03-57.202-.07c0-.039 25.61-.067 57.202-.067s57.201.031 57.201.067ZM76.2 21.23c-1.763.773-2.79 2.677-3.173 4.564-.385 1.887-.261 3.839-.427 5.76-.165 1.92-.692 3.925-2.094 5.246-1.307 1.234-3.228 1.736-4.34 3.146a3.954 3.954 0 0 0 2.242 6.312c-.88 1.402-.44 3.34.687 4.542 1.128 1.203 2.78 1.778 4.408 2.025 2.866.437 5.922-.045 8.342-1.64 2.42-1.596 4.114-4.366 4.108-7.263" fill="#263238"/><path d="M68.56 49.713a2.243 2.243 0 0 1-.312-.626 3.763 3.763 0 0 1-.112-1.89c.082-.434.218-.857.404-1.258.224-.454.496-.883.81-1.279a23.695 23.695 0 0 1 2.426-2.453 25.246 25.246 0 0 0 2.358-2.496c.596-.72 1.104-1.51 1.511-2.353a8.22 8.22 0 0 0 .612-1.78c.053-.216.067-.39.092-.505.006-.06.02-.12.04-.176.006.06.006.12 0 .179-.017.118-.023.294-.068.513a7.547 7.547 0 0 1-.578 1.811c-.397.856-.9 1.659-1.497 2.39a24.243 24.243 0 0 1-2.36 2.523 24.107 24.107 0 0 0-2.423 2.434 6.798 6.798 0 0 0-.805 1.248c-.19.389-.328.8-.412 1.225a3.811 3.811 0 0 0 .067 1.859c.07.216.152.428.247.634Z" fill="#455A64"/><path d="M97.292 27.564c0 2.59 1.195 4.966 2.269 5.84 1.522 1.234 3.754 1.832 5.223 2.244 2.143.597 3.926 2.473 4.206 4.682.281 2.21-1.177 4.568-3.331 5.123 1.354 1.383.951 3.76-.163 5.328-2.111 2.997-6.325 4.15-9.813 3.04-3.489-1.11-6.17-4.206-7.218-7.72" fill="#263238"/><path d="M102.62 53.086c.296-.064.576-.187.824-.362.286-.209.522-.479.69-.79.229-.41.356-.867.37-1.335a3.282 3.282 0 0 0-.435-1.615 5.257 5.257 0 0 0-1.258-1.478c-1.063-.894-2.507-1.452-3.904-2.243a7.674 7.674 0 0 1-1.85-1.455 4.144 4.144 0 0 1-1.012-1.943 6.954 6.954 0 0 1-.09-1.986c.047-.62.126-1.189.18-1.713a7.621 7.621 0 0 0-.04-2.467l-.101-.376c-.03-.112-.076-.194-.1-.267a2.032 2.032 0 0 1-.082-.221c.042.066.078.137.106.21.031.073.079.157.115.264l.115.378c.17.82.199 1.662.084 2.49-.047.525-.12 1.097-.162 1.71a6.904 6.904 0 0 0 .1 1.963c.155.704.496 1.353.988 1.88a7.57 7.57 0 0 0 1.82 1.426c1.382.794 2.834 1.36 3.925 2.277.518.422.952.938 1.279 1.52.289.513.438 1.093.431 1.682a2.933 2.933 0 0 1-.4 1.372c-.18.316-.428.588-.727.796a2.054 2.054 0 0 1-.619.28c-.082.01-.165.01-.247.003ZM107.667 44.441c.155-.21.246-.46.263-.72.01-.305-.06-.606-.201-.875a2.205 2.205 0 0 0-.794-.878 3.889 3.889 0 0 0-1.382-.463c-.522-.092-1.091-.126-1.683-.218a9.015 9.015 0 0 1-3.625-1.433 8.895 8.895 0 0 1-2.68-2.835 9.004 9.004 0 0 1-1.1-2.995 8.426 8.426 0 0 1-.115-2.15c.013-.195.035-.389.067-.58a.845.845 0 0 1 .04-.2c.014 0-.034.28-.054.785a9.226 9.226 0 0 0 1.27 5.076 8.914 8.914 0 0 0 2.647 2.784 9.073 9.073 0 0 0 3.57 1.422c.589.095 1.161.134 1.682.23.495.073.971.241 1.402.496.353.226.635.546.813.925.142.282.206.597.185.911-.016.2-.08.392-.185.561-.036.053-.072.093-.095.12l-.025.037Z" fill="#455A64"/><path d="M77.46 57.94c.37-3.872.687-7.955.687-7.955s-4.905-1.318-5.297-7.927c-.376-6.3 2.055-20.528 2.055-20.528 7.467-2.22 15.778.56 20.329 6.81l-3.516 31.406c-.407 3.645-3.867 6.196-7.767 5.728-3.937-.474-6.842-3.844-6.491-7.534Z" fill="#B78876"/><path d="M75.651 32.903a.841.841 0 0 0 .72.92.799.799 0 0 0 .934-.668.841.841 0 0 0-.72-.92.8.8 0 0 0-.934.668ZM74.39 31.834c.092.121.77-.28 1.668-.196.897.084 1.51.606 1.62.505.053-.045-.033-.25-.3-.488a2.302 2.302 0 0 0-1.284-.538 2.243 2.243 0 0 0-1.34.28c-.297.196-.41.384-.365.437ZM84.826 33.966a.84.84 0 0 0 .723.92.798.798 0 0 0 .934-.668.841.841 0 0 0-.72-.92.8.8 0 0 0-.937.668Z" fill="#263238"/><path d="M83.727 33.083c.092.12.77-.28 1.668-.194.897.087 1.511.603 1.62.502.051-.042-.033-.25-.3-.488a2.312 2.312 0 0 0-1.284-.538 2.244 2.244 0 0 0-1.34.28c-.297.196-.41.384-.364.438ZM79.812 39.422c0-.05-.538-.202-1.433-.406-.227-.048-.437-.115-.462-.28.005-.24.082-.471.221-.665l.841-1.683c1.186-2.392 2.07-4.368 1.963-4.416-.106-.048-1.135 1.856-2.322 4.248-.28.592-.56 1.153-.824 1.683-.17.262-.244.575-.207.886a.559.559 0 0 0 .344.372c.124.048.253.079.385.093.922.16 1.486.219 1.494.168Z" fill="#263238"/><path d="M78.147 49.985c3.059.35 6.154-.158 8.941-1.466 0 0-2.565 4.262-9.014 3.011l.073-1.545ZM79.98 41.623a1.627 1.627 0 0 1 1.51-.46 1.501 1.501 0 0 1 .966.648.942.942 0 0 1-.036 1.08 1.085 1.085 0 0 1-1.206.179 3.397 3.397 0 0 1-1.08-.796 1 1 0 0 1-.23-.28.3.3 0 0 1 .035-.334" fill="#AA6550"/><path d="M82.395 40.303c-.146-.023-.244.95-1.147 1.561-.903.612-1.93.401-1.949.536-.02.059.213.213.65.28a2.428 2.428 0 0 0 1.621-.392c.46-.304.782-.776.898-1.315.092-.418-.006-.67-.073-.67Z" fill="#263238"/><path d="M92.138 35.283a3.89 3.89 0 0 1 2.08.34 2.715 2.715 0 0 1 1.403 1.542 2.837 2.837 0 0 1-.185 2.08 4.833 4.833 0 0 1-1.357 1.635 3.26 3.26 0 0 1-1.346.712 1.549 1.549 0 0 1-1.428-.367" fill="#B78876"/><path d="M92.108 39.54c-.082.017.18.469.84.36.35-.086.652-.304.842-.61.226-.34.383-.72.463-1.12.09-.426.029-.87-.174-1.254a1.231 1.231 0 0 0-.861-.631c-.653-.079-.903.356-.841.376.062.02.325-.152.743 0 .418.151.751.72.594 1.402-.157.681-.487 1.334-.886 1.46-.398.127-.67-.036-.72.017Z" fill="#AA6550"/><path d="M78.051 24.312a7.97 7.97 0 0 1-5.37 4.523c-.137-1.607-.232-3.233.031-4.826.264-1.593.909-3.16 2.07-4.279 1.16-1.119 2.88-1.721 4.438-1.306" fill="#263238"/><path d="M78.5 21.361a6.398 6.398 0 0 0 6.615 8.726c.426-.044.874-.128 1.273.026.398.154.709.56.964.948 1.037 1.55 2.134 3.162 3.769 4.06 1.634.897 3.973.807 5.066-.704.53-.735.687-1.669.81-2.566.416-3.02.587-6.264-.855-8.95-1.068-2-2.947-3.483-5.024-4.383-2.078-.9-4.355-1.259-6.618-1.402-1.312-.081-2.672-.084-3.891.415-1.22.5-2.272 1.604-2.342 2.92" fill="#263238"/><path d="M96.709 32.704a1.656 1.656 0 0 1-.079-.221 11.847 11.847 0 0 0-1.326-2.84 11.547 11.547 0 0 0-2.431-2.712 15.766 15.766 0 0 0-3.895-2.193c-1.47-.617-2.908-1.122-4.167-1.713a14.562 14.562 0 0 1-3.143-1.921 8.187 8.187 0 0 1-1.665-1.837 5.333 5.333 0 0 1-.334-.589 1.127 1.127 0 0 1-.098-.213c.045.065.086.133.123.202.108.193.226.38.353.561a8.488 8.488 0 0 0 1.683 1.792 14.622 14.622 0 0 0 3.132 1.878c1.253.58 2.692 1.086 4.167 1.702a15.799 15.799 0 0 1 3.925 2.221 11.407 11.407 0 0 1 2.434 2.762c.44.706.8 1.458 1.074 2.243.093.28.16.497.194.648.024.075.041.152.053.23ZM94.687 32.348a1.063 1.063 0 0 1-.11-.185c-.072-.12-.179-.3-.336-.516a6.872 6.872 0 0 0-1.612-1.556 15.866 15.866 0 0 0-2.961-1.557c-.58-.25-1.195-.507-1.817-.804a22.85 22.85 0 0 1-1.887-1.004 16.4 16.4 0 0 1-3.264-2.524 12.605 12.605 0 0 1-2.041-2.678 10.57 10.57 0 0 1-.898-2.086 7.438 7.438 0 0 1-.15-.597c-.02-.07-.034-.14-.04-.213.028.066.05.134.064.205a11.182 11.182 0 0 0 1.11 2.641 12.79 12.79 0 0 0 2.045 2.639 16.748 16.748 0 0 0 3.247 2.503c.622.373 1.253.704 1.873 1.004.62.3 1.228.561 1.808.808 1.045.42 2.04.954 2.967 1.592.622.44 1.164.983 1.601 1.607a4.533 4.533 0 0 1 .401.72ZM72.704 31.417a.975.975 0 0 1-.062-.152c-.036-.098-.092-.246-.154-.44a7.58 7.58 0 0 1-.28-1.682 8.092 8.092 0 0 1 1.682-5.31c.33-.43.706-.821 1.122-1.167.406-.331.824-.612 1.222-.875.723-.434 1.4-.939 2.025-1.506.414-.387.75-.85.992-1.363.163-.367.2-.591.213-.588 0 .055-.009.11-.025.162-.034.152-.08.301-.137.446a4.372 4.372 0 0 1-.973 1.402 12.407 12.407 0 0 1-2.022 1.542c-.417.271-.82.563-1.208.875-.409.34-.78.724-1.105 1.144a7.99 7.99 0 0 0-1.38 2.734 8.09 8.09 0 0 0-.31 2.49c.021.567.1 1.13.235 1.682.05.187.092.336.126.446.02.051.033.105.04.16Z" fill="#455A64"/><path d="M88.774 44.391a6.26 6.26 0 0 1-4.167-1.528l.18-.2a5.905 5.905 0 0 0 9.446-6.552l.25-.098a6.39 6.39 0 0 1-2.227 7.332 6.127 6.127 0 0 1-3.482 1.046Z" fill="#FC7387"/><path d="M85.314 44.542a1.293 1.293 0 1 0 0-2.585 1.293 1.293 0 0 0 0 2.585ZM99.504 37.37a4.326 4.326 0 1 0-8.542-1.378 4.326 4.326 0 0 0 8.542 1.379Z" fill="#FC7387"/><path d="M94.536 36.08a5.288 5.288 0 0 1 .022-1.097l.05-1.281c0-.5.023-1.069 0-1.697 0-.314-.022-.642-.038-.981-.017-.34-.054-.696-.087-1.063-.034-.367-.099-.74-.146-1.121-.037-.191-.073-.387-.11-.584a7.817 7.817 0 0 0-.129-.597 11.436 11.436 0 0 0-2.265-4.767 10.543 10.543 0 0 0-4.313-3.022 19.004 19.004 0 0 0-4.245-1.066c-1.245-.174-2.263-.227-2.964-.28a5.382 5.382 0 0 1-1.093-.09c.362-.06.73-.083 1.096-.07a26.626 26.626 0 0 1 2.998.143c1.485.153 2.946.49 4.349 1.004 1.74.63 3.286 1.703 4.486 3.112a11.57 11.57 0 0 1 2.319 4.952c.05.205.09.41.123.614l.101.597c.045.398.107.78.13 1.153.022.373.058.734.06 1.08.004.344.023.678 0 .995 0 .636-.036 1.208-.064 1.71a19.79 19.79 0 0 1-.12 1.284c-.019.362-.072.72-.16 1.072Z" fill="#FC7387"/><path opacity=".4" d="M96.5 39.438a2.978 2.978 0 1 0-2.294-5.496 2.978 2.978 0 0 0 2.294 5.496Z" fill="#000"/><path d="M94.373 33.907a.654.654 0 0 1 .135-.068 2.01 2.01 0 0 1 .412-.123c.53-.09 1.075.002 1.545.264.328.178.602.442.793.762.217.37.327.792.317 1.22a2.244 2.244 0 0 1-3.185 1.993 2.192 2.192 0 0 1-.993-.978 2.27 2.27 0 0 1-.255-1.237c.039-.37.165-.725.368-1.037a2.154 2.154 0 0 1 1.233-.959c.14-.039.285-.056.43-.05.05.001.1.009.148.022-.19 0-.378.027-.56.078-.492.17-.905.512-1.165.962a2.106 2.106 0 0 0-.084 2.162c.206.398.535.718.937.914a2.185 2.185 0 0 0 2.582-.628c.267-.361.414-.796.42-1.245a2.195 2.195 0 0 0-.28-1.158 1.982 1.982 0 0 0-.743-.735 2.342 2.342 0 0 0-1.486-.297c-.192.034-.382.08-.569.138Z" fill="#263238"/><path d="M95.327 39.616a1.48 1.48 0 0 1-.135-.704 1.505 1.505 0 0 1 .076-.71c.053.231.074.468.061.704.034.236.033.475-.002.71ZM96.97 39.038a3.31 3.31 0 0 1-.488-1.256c.247.38.413.808.488 1.256ZM98.077 37.743c-.025.028-.23-.115-.457-.32-.227-.205-.387-.395-.362-.423.026-.028.23.115.457.32.227.204.387.395.362.423ZM98.156 35.934c-.014.037-.16.017-.33-.045-.172-.061-.298-.14-.281-.176.016-.037.16-.017.33.044.172.062.295.14.281.177ZM93.383 38.954c.078-.48.304-.922.648-1.264a2.787 2.787 0 0 1-.3.644 2.86 2.86 0 0 1-.348.62ZM92.495 37.432c-.029-.028.142-.239.378-.468.236-.23.449-.399.477-.37.028.027-.143.238-.379.468-.235.23-.449.398-.477.37ZM93.19 35.368c0 .036-.112.1-.28.143-.169.042-.298.048-.306 0-.008-.048.11-.104.28-.146.171-.042.295-.034.306.003Z" fill="#263238"/><path d="M115.821 59.039c-.28-1.584-.9-2.445-1.363-2.897a7.82 7.82 0 0 0-1.371-1.177c-.628-.384-1.483-.858-2.03-.979-.676-.146-.841-1.023-.28-1.276.56-.252 2.439.11 4.242 1.433 1.803 1.324.889-2.03.581-3.258-.309-1.228-1.074-5.07-.794-5.457.446-.56 1.15-.179 1.433 1.055.283 1.234 1.385 4.879 2.027 4.7.642-.18-1.029-6.41-1.029-6.41s-.561-1.28.165-1.51c1.33-.417 2.608 6.33 2.715 6.974.073.446.779.28.675-.199-.103-.48-1.805-6.183-.457-6.62 1.035-.334 1.105 5.54 2.115 6.544 1.009 1.004-.511-4.46.493-4.741.373-.104.667-.13 1.085 3.124.227 1.746.082 4.155.763 7.489" fill="#B78876"/><path d="m112.459 71.578 6.129 8.796-2.941-22.684 8.762-3.457s11.059 42.396-3.771 42.99c0 0-10.265-.28-17.926-18.046l9.747-7.599Z" fill="#B78876"/><path d="M122.29 54.068c.017.022-.191.16-.463.463a3.128 3.128 0 0 0-.718 1.401l-.033.166-.121-.123a3.95 3.95 0 0 0-.454-.396 3.887 3.887 0 0 0-1.862-.723c-.519-.056-.841 0-.841-.031.274-.1.568-.135.858-.101a3.573 3.573 0 0 1 2.439 1.122l-.157.042a2.926 2.926 0 0 1 .813-1.458c.149-.162.333-.286.539-.362Z" fill="#AA6550"/><path d="m108.057 89.917-7.417-9.408-1.929 9.624a19.937 19.937 0 0 0 1.155 11.605l.956 2.291H66.479l.858-3.059c.485-3.746-.163-7.655-.05-13.022l-.954-6.048-5.195 22.129H45.864S54.24 69.683 59.5 62.886c6.62-8.566 18.19-7.436 18.19-7.436l7.085 11.11 6.923-10.02S103.593 54.018 112.88 70l4.969 8.516-2.308-17.534 10.762-2.478s3.884 17.224 3.629 26.45c-.228 8.238-3.735 12.559-8.595 12.985-7.652.667-13.279-8.022-13.279-8.022Z" fill="#FC7387"/><path d="m77.69 55.45.12-1.385s5.25 1.166 7.01 10.333c0 0 1.767-8.46 7.42-9.31l.953 2.437-3.472 9.037-6.096 1.784-5.933-1.784-2.703-5.358 2.7-5.754Z" fill="#FC7387"/><path d="M63.058 59.095c.016.078.026.157.028.236 0 .168.028.395.05.684a138.692 138.692 0 0 0 1.1 10.745c.457 3.205 1.001 6.09 1.43 8.168.216 1.04.395 1.879.527 2.459.06.28.107.505.143.667.02.077.033.156.04.236a1.578 1.578 0 0 1-.068-.227c-.043-.163-.099-.385-.168-.665a60.511 60.511 0 0 1-.56-2.448c-.455-2.075-1.01-4.96-1.473-8.17a112 112 0 0 1-1.018-10.762c0-.28-.017-.516-.022-.684-.006-.169-.011-.239-.009-.239ZM93.064 56.215a.73.73 0 0 1-.076.132l-.235.365-.875 1.334a99.67 99.67 0 0 0-2.757 4.487c-.039.07-.08.137-.117.204l-.068.115-.056-.12a4.137 4.137 0 0 0-.754-1.214 1.37 1.37 0 0 0-1.17-.438c-.388.085-.732.31-.964.634a2.98 2.98 0 0 0-.482.922c-.196.617-.311 1.136-.46 1.473a3.05 3.05 0 0 1-.182.378c-.05.082-.079.122-.084.118 0 0 .095-.177.218-.516.124-.34.228-.841.418-1.48.1-.349.264-.676.483-.965a1.682 1.682 0 0 1 1.034-.687 1.483 1.483 0 0 1 1.282.465c.335.367.602.79.788 1.25h-.124l.118-.204a68.068 68.068 0 0 1 2.804-4.47c.378-.56.692-1.006.911-1.312.107-.14.19-.258.258-.35a.718.718 0 0 1 .09-.12Z" fill="#263238"/><path d="M88.064 61.406s-.014.042-.056.117l-.185.326-.704 1.183-1.06 1.741-.63 1.03c-.113.176-.225.358-.34.543a.5.5 0 0 1-.132.135.25.25 0 0 1-.213.028.533.533 0 0 1-.28-.255c-.984-1.48-1.719-2.914-2.294-3.926-.28-.507-.518-.914-.681-1.194a3.789 3.789 0 0 1-.247-.44s.034.033.081.103c.048.07.124.171.21.309.18.28.427.672.721 1.174.598.996 1.346 2.42 2.328 3.892.059.096.115.177.19.2.076.022.135-.029.194-.11l.336-.538.637-1.024 1.085-1.727.74-1.158c.084-.123.152-.227.21-.311a.519.519 0 0 1 .09-.098ZM107.081 62.227c-.023.063-.05.123-.081.182-.062.13-.146.3-.253.513a68.988 68.988 0 0 0-2.164 4.742 64.507 64.507 0 0 0-1.349 3.567 59.17 59.17 0 0 0-1.122 3.645 85.974 85.974 0 0 0-.765 3.017 52.073 52.073 0 0 0-.443 2.052c-.048.233-.087.418-.115.561-.011.066-.028.131-.051.194a.953.953 0 0 1 .023-.2l.089-.56c.079-.49.216-1.197.401-2.067.185-.869.432-1.895.738-3.03a59.6 59.6 0 0 1 1.121-3.646 59.984 59.984 0 0 1 1.36-3.57 50.625 50.625 0 0 1 1.285-2.846c.389-.799.715-1.438.953-1.873l.28-.499c.025-.064.056-.125.093-.182ZM91.37 97.064a2.047 2.047 0 0 1-.213 0l-.614-.048a20.29 20.29 0 0 1-.968-.098c-.375-.048-.807-.09-1.278-.163a50.224 50.224 0 0 1-11.18-2.921 43.395 43.395 0 0 1-3.084-1.321c-.437-.197-.822-.395-1.16-.561-.34-.165-.632-.32-.864-.449l-.542-.294a1.407 1.407 0 0 1-.182-.11c.068.022.134.05.196.085l.561.28c.239.12.53.28.872.426.342.146.73.354 1.167.541.869.399 1.915.842 3.084 1.29 1.17.449 2.487.9 3.88 1.318 1.394.418 2.743.746 3.971 1.018 1.228.272 2.35.468 3.295.608.468.082.897.132 1.273.183.376.05.698.092.965.12l.61.076c.071 0 .142.007.211.02ZM89.85 97.664a.608.608 0 0 1-.143.036l-.409.079c-.356.064-.875.145-1.517.235a50.98 50.98 0 0 1-10.094.35c-.648-.044-1.17-.09-1.528-.131l-.415-.048a.962.962 0 0 1-.143-.025.531.531 0 0 1 .145 0l.415.022c.362.026.884.056 1.531.087 1.29.062 3.085.104 5.048.037a62.748 62.748 0 0 0 5.047-.387c.642-.076 1.16-.143 1.52-.19l.415-.054a.482.482 0 0 1 .128-.011ZM102.006 82.242a.991.991 0 0 1 .039-.202l.143-.561.533-2.1c.451-1.772 1.048-4.226 1.786-6.918.37-1.346.748-2.621 1.121-3.774a57.392 57.392 0 0 1 1.063-3.03c.157-.433.32-.814.454-1.15.135-.337.261-.623.368-.856l.244-.535c.026-.065.058-.127.095-.185a1.354 1.354 0 0 1-.07.196c-.053.134-.126.317-.219.544-.092.227-.216.527-.345.866-.129.34-.28.721-.434 1.153-.32.855-.668 1.887-1.032 3.037-.365 1.15-.738 2.428-1.108 3.77-.734 2.69-1.346 5.14-1.822 6.907-.236.883-.432 1.598-.575 2.089l-.168.56a.968.968 0 0 1-.073.189ZM66.154 81.782a1.667 1.667 0 0 1-.146-.168c-.09-.118-.233-.28-.39-.507a14.628 14.628 0 0 1-1.225-2.014 19.5 19.5 0 0 1-1.287-3.252 28.713 28.713 0 0 1-.892-4.187c-.41-3.011-.477-5.765-.6-7.744-.056-.993-.11-1.795-.149-2.35l-.047-.637a1.5 1.5 0 0 1 0-.224c.018.073.03.147.036.222.017.143.045.359.073.636.059.561.126 1.355.194 2.344.148 1.983.23 4.733.639 7.734.19 1.41.484 2.803.878 4.17a19.977 19.977 0 0 0 1.242 3.246c.345.703.74 1.38 1.18 2.028.152.232.28.398.37.521.047.057.088.118.124.182Z" fill="#263238"/><path d="M64.85 75.608c0 .042-.398.129-.841.387-.443.258-.71.56-.74.533a1.963 1.963 0 0 1 1.57-.92h.011ZM64.59 72.007c-.36.1-.71.225-1.05.376a7.572 7.572 0 0 0-.902.65 2.21 2.21 0 0 1 1.962-1.026h-.01ZM63.801 68.715c-.285.077-.566.17-.84.28-.252.15-.495.314-.727.491a1.584 1.584 0 0 1 1.556-.771h.011ZM63.417 65.312c0 .039-.35.11-.754.28-.404.171-.701.382-.726.35.17-.223.404-.39.67-.479.25-.13.531-.182.81-.151ZM63.196 62.569c0 .04-.354.106-.757.297-.404.19-.684.423-.71.393.156-.238.384-.42.65-.52.248-.14.534-.2.817-.17ZM102.726 78.042c-.033.025-.216-.222-.56-.353a3.912 3.912 0 0 0-.643-.132.754.754 0 0 1 .693 0c.393.157.547.474.51.485ZM103.769 75.235a1.798 1.798 0 0 0-1.486-.962c0-.017.104-.053.281-.048a1.358 1.358 0 0 1 1.13.732c.081.168.092.272.075.278ZM104.552 72.147a1.893 1.893 0 0 0-1.565-.62c0-.013.09-.064.258-.086a1.319 1.319 0 0 1 1.181.468c.106.132.14.233.126.238ZM105.474 69.183c-.036.02-.182-.258-.507-.423a3.007 3.007 0 0 0-.634-.18c0-.016.073-.05.205-.058a1.019 1.019 0 0 1 .869.46c.067.112.081.193.067.201ZM106.551 66.46a1.909 1.909 0 0 0-.561-.481 1.994 1.994 0 0 0-.737-.124c0-.014.073-.067.221-.092a1.061 1.061 0 0 1 1.013.468c.067.129.078.224.064.23ZM88.925 62.57a.577.577 0 0 1-.062.129l-.196.358a81.955 81.955 0 0 1-1.924 3.202 48.46 48.46 0 0 1-.723 1.103 12.21 12.21 0 0 1-.841 1.14c-.08.1-.175.188-.28.259a.194.194 0 0 1-.124.025.394.394 0 0 1-.107-.034 1.146 1.146 0 0 1-.16-.11 4.014 4.014 0 0 1-.49-.512c-.28-.353-.56-.712-.794-1.054a46.2 46.2 0 0 1-1.23-1.865c-.34-.538-.603-.976-.783-1.284l-.202-.356a.451.451 0 0 1-.061-.13c.03.036.059.075.084.115l.224.343c.205.314.482.74.819 1.261.336.522.768 1.158 1.253 1.84.244.342.505.695.794 1.043.144.177.302.342.474.493.084.068.19.14.243.099.092-.064.174-.14.244-.225.301-.358.582-.733.842-1.121.258-.376.499-.743.726-1.097.454-.704.855-1.343 1.192-1.884.336-.541.597-.956.793-1.276l.222-.345c.033-.081.061-.12.067-.117Z" fill="#263238"/><path d="M82.95 66.559c-.017 0-.048-.095-.037-.258.022-.211.103-.412.236-.578.13-.168.306-.295.507-.364.155-.048.255-.04.258-.022a2.025 2.025 0 0 0-.656.473c-.154.226-.259.48-.308.749ZM84.803 68.769a4.9 4.9 0 0 1-.017-2.21c.035.367.042.737.02 1.105.027.368.026.737-.003 1.105ZM86.884 65.953c-.04 0-.127-.3-.418-.538a2.735 2.735 0 0 0-.603-.314c0-.017.084-.037.219-.014a1.024 1.024 0 0 1 .776.647c.045.138.042.214.026.22ZM88.25 63.669a2.726 2.726 0 0 0-.346-.58 2.861 2.861 0 0 0-.56-.385c0-.017.086-.025.215 0 .169.054.32.15.44.28a.998.998 0 0 1 .247.457c.034.14.02.225.003.227ZM81.556 64.47c-.017 0-.062-.104-.067-.28-.005-.246.054-.49.17-.707.117-.217.286-.402.491-.538.16-.098.28-.12.28-.107a1.93 1.93 0 0 0-.877 1.643l.003-.01Z" fill="#263238"/><path opacity=".4" d="M77.616 55.427c.6 2.305 1.604 6.06 2.69 8.995.04.139.11.266.207.373.28.261.748.101 1.01-.176.22-.286.418-.589.59-.906a1.171 1.171 0 0 1 .862-.586 1.004 1.004 0 0 1 .763.381c.18.233.337.484.468.749a.562.562 0 0 0 .33.317.2.2 0 0 0 .236-.28l-.959-2.49s-.44-1.826-1.963-1.543c-1.704.317-.93 3.121-.93 3.121s-3.329-8.053-3.304-7.955Z" fill="#000"/><path d="M84.82 64.398a.67.67 0 0 1-.081-.163c-.05-.11-.12-.28-.208-.48-.17-.437-.412-1.043-.706-1.786a26.788 26.788 0 0 0-.244-.586 1.836 1.836 0 0 0-.35-.56 1.683 1.683 0 0 0-1.33-.497c-.26.033-.504.142-.701.314a1.746 1.746 0 0 0-.379.727c-.077.273-.097.56-.058.84.034.301.087.599.16.892.025.11.053.22.078.32l-.135.04a43.467 43.467 0 0 0-1.256-3.122c-.415-.944-.793-1.797-1.09-2.523a24.381 24.381 0 0 1-.648-1.727c-.07-.205-.112-.368-.143-.48a.706.706 0 0 1-.04-.168c.026.051.048.105.065.16.04.11.09.28.168.47.146.407.379.993.687 1.706.309.712.693 1.559 1.122 2.504.429.945.877 1.993 1.273 3.129l-.132.042a29.505 29.505 0 0 0-.081-.323 7.29 7.29 0 0 1-.16-.91 2.163 2.163 0 0 1 .067-.91 1.88 1.88 0 0 1 .415-.779c.219-.192.49-.312.78-.345a1.78 1.78 0 0 1 1.427.544c.156.178.28.382.364.603.087.205.163.404.239.592.28.748.502 1.36.664 1.803l.182.488c.023.06.04.122.051.185Z" fill="#263238"/><path opacity=".4" d="M84.954 64.33c-.055.04-.013.143.054.157a.244.244 0 0 0 .193-.067 4.23 4.23 0 0 0 .808-1.071c.252-.376.62-.735 1.071-.735.451 0 .866.398 1.102.816.236.418.398.889.74 1.225a33.618 33.618 0 0 0 4.069-8.157c-.561.39-.934.999-1.284 1.585l-2.731 4.556a3.506 3.506 0 0 0-.772-1.214A1.498 1.498 0 0 0 86.881 61c-.53.126-.9.606-1.158 1.088a6.47 6.47 0 0 0-.732 2.268" fill="#000"/><path d="M120.764 86.793a1.71 1.71 0 0 1-.182-.306 21 21 0 0 1-.437-.866 31.673 31.673 0 0 1-2.157-6.023c-.098-.398-.168-.72-.213-.948a1.976 1.976 0 0 1-.053-.35c.047.109.083.223.106.34.068.246.155.56.256.933.218.788.541 1.87.961 3.045a43.99 43.99 0 0 0 1.189 2.96c.16.354.281.651.396.884.056.106.101.216.134.331ZM118.098 86.266a1.589 1.589 0 0 1-.112-.306 13.62 13.62 0 0 1-.236-.858 18.67 18.67 0 0 1-.46-5.832c.031-.373.065-.676.098-.883.008-.11.029-.217.065-.32.012.108.012.217 0 .325-.017.208-.034.51-.053.883a22.714 22.714 0 0 0 .457 5.805c.078.367.143.661.193.866.03.104.046.212.048.32ZM126.667 61.72c.074.019.145.046.213.081l.042.02-.042.017a37.96 37.96 0 0 1-5.344 1.368c-1.565.28-2.998.454-4.035.538-.519.042-.94.068-1.231.076a2.58 2.58 0 0 1-.455 0c.148-.03.298-.048.449-.056l1.228-.12c1.032-.11 2.459-.281 4.018-.578 2.602-.474 4.742-1.105 5.367-1.268v.034a.982.982 0 0 1-.21-.112ZM124.252 60.502s.026-.044.113-.07a.444.444 0 0 1 .361.082.514.514 0 0 1 .23.499.408.408 0 0 1-.204.28.563.563 0 0 1-.359.067.605.605 0 0 1-.331-.154.442.442 0 0 1-.132-.322.553.553 0 0 1 .3-.46.516.516 0 0 1 .362-.059c.087.022.12.062.118.067a.585.585 0 0 0-.43.076.476.476 0 0 0-.221.376.364.364 0 0 0 .35.336.354.354 0 0 0 .421-.235.471.471 0 0 0-.119-.348.465.465 0 0 0-.335-.151c-.079.005-.118.03-.124.016Z" fill="#263238"/><path d="M82.585 66.433c-.048.048-.1.093-.154.134-.107.079-.252.213-.463.354-.584.416-1.208.772-1.865 1.062a11.394 11.394 0 0 1-4.943.97 11.449 11.449 0 0 1-2.008-.25c-1.357-.305-2.58-.804-3.732-1.12a9.908 9.908 0 0 0-1.651-.326 6.69 6.69 0 0 0-1.472.017 4.487 4.487 0 0 0-1.983.698 7.727 7.727 0 0 0-.608.49 2.74 2.74 0 0 1 .577-.535 4.416 4.416 0 0 1 2.002-.751 6.813 6.813 0 0 1 1.487-.031 9.755 9.755 0 0 1 1.682.317c1.164.302 2.386.799 3.727 1.102.653.14 1.317.223 1.985.25.62.016 1.242-.015 1.859-.093a11.463 11.463 0 0 0 3.04-.842 11.035 11.035 0 0 0 1.872-1.015c.216-.131.365-.258.477-.33a.88.88 0 0 1 .171-.101ZM100.402 77.969a.38.38 0 0 1-.084-.04l-.244-.126c-.107-.053-.244-.109-.404-.182a3.625 3.625 0 0 0-.56-.193 8.859 8.859 0 0 0-3.82-.138c-.877.144-1.746.34-2.6.59-.924.252-1.912.546-2.971.762a10.997 10.997 0 0 1-3.39.207 16.18 16.18 0 0 1-3.547-.84c-1.186-.399-2.32-.842-3.432-1.215a17.386 17.386 0 0 0-3.273-.805 15.394 15.394 0 0 0-5.675.309c-.711.18-1.41.405-2.092.676-.294.129-.575.243-.824.364-.25.12-.477.23-.676.342l-.53.295-.378.235-.233.14a.28.28 0 0 1-.084.045l.075-.056.228-.154c.098-.065.221-.151.37-.244l.524-.309c.2-.115.429-.224.676-.353.246-.129.527-.244.824-.378a16.615 16.615 0 0 1 2.095-.698 15.316 15.316 0 0 1 5.717-.34c1.124.16 2.23.428 3.3.802 1.122.37 2.243.813 3.43 1.211 1.138.411 2.318.693 3.519.842 1.12.11 2.25.043 3.35-.197 1.055-.21 2.039-.499 2.967-.748.86-.245 1.733-.437 2.616-.575a8.721 8.721 0 0 1 3.828.17c.221.063.409.147.574.208.166.062.295.135.401.194l.236.14c.062.04.09.056.087.059ZM86.272 66.223c.236.066.476.118.718.157a5.214 5.214 0 0 0 1.977-.157c.949-.29 1.879-.64 2.784-1.043a9.159 9.159 0 0 1 1.7-.505 8.012 8.012 0 0 1 1.898-.11c1.225.08 2.427.365 3.558.842.92.388 1.806.848 2.653 1.376.726.443 1.295.841 1.682 1.097.188.129.337.232.449.314.054.033.104.072.151.115a.856.856 0 0 1-.165-.093l-.463-.28c-.404-.253-.978-.626-1.71-1.057-.85-.512-1.735-.96-2.65-1.343a11.128 11.128 0 0 0-3.52-.842 8.22 8.22 0 0 0-1.867.104 9.304 9.304 0 0 0-1.682.494c-1.043.403-1.963.84-2.804 1.017a4.988 4.988 0 0 1-2.007.115 2.482 2.482 0 0 1-.702-.201ZM102.662 59.19c-.129.051-.262.091-.398.121a5.415 5.415 0 0 1-.477.112c-.196.037-.398.087-.636.121-.557.093-1.119.154-1.683.182-.682.035-1.365.027-2.047-.022a16.47 16.47 0 0 1-2.04-.314 14.76 14.76 0 0 1-1.624-.46c-.228-.073-.427-.16-.606-.227a6.19 6.19 0 0 1-.449-.19 2.444 2.444 0 0 1-.373-.189c.135.035.266.08.393.138.126.05.28.109.457.168.177.059.381.14.608.207a16.396 16.396 0 0 0 5.692.774 17.495 17.495 0 0 0 1.666-.148c.238-.028.449-.07.637-.101.187-.031.347-.062.476-.09.132-.04.267-.068.404-.081ZM63.173 60.99a.891.891 0 0 1 .12-.106c.085-.067.208-.168.371-.28.322-.247.794-.595 1.402-.999a19.552 19.552 0 0 1 5.078-2.506 11.945 11.945 0 0 1 5.625-.393c.565.104 1.12.262 1.654.474.19.07.331.146.43.188.05.02.097.045.142.075l-.589-.213a9.422 9.422 0 0 0-1.654-.426 12.265 12.265 0 0 0-5.569.426 20.666 20.666 0 0 0-5.047 2.457c-.608.392-1.09.729-1.421.961l-.385.28a.6.6 0 0 1-.157.063ZM98.464 90.396a.256.256 0 0 1-.078.022l-.236.05a2.717 2.717 0 0 1-.387.06l-.247.028h-.28c-.805.033-1.963-.174-3.328-.612-.684-.213-1.425-.476-2.23-.715a13.704 13.704 0 0 0-2.621-.507c-1.882-.18-3.962.047-6.104.437-2.143.39-4.178.875-6.063 1.1-1.668.234-3.36.244-5.03.03a10.43 10.43 0 0 1-3.241-.978l-.472-.247-.336-.2-.202-.131-.064-.048c.026.009.05.02.073.037l.207.118.337.199.473.235c1.023.477 2.114.791 3.233.931 1.663.197 3.343.176 5-.062 1.876-.232 3.9-.72 6.054-1.121 2.153-.401 4.242-.617 6.14-.426.896.087 1.78.262 2.642.524.807.244 1.548.51 2.226.729 1.058.392 2.173.613 3.3.653h.28l.248-.022c.13-.005.259-.02.387-.045l.235-.036.084-.003Z" fill="#FAFAFA"/><path opacity=".3" d="M73.761 92.328c1.27 3.17 3.73 5.422 7.114 5.888 3.385.466 6.808-.308 10.094-1.206-5.992-.84-11.294-1.668-17.216-4.682" fill="#000"/><path d="m99.322 101.048-.081-.031-.238-.101-.906-.403c-.79-.345-1.92-.878-3.331-1.49a14.71 14.71 0 0 0-2.375-.804 7.622 7.622 0 0 0-2.85-.132c-.512.076-1.018.191-1.513.345-.515.161-1.021.348-1.517.56-1.012.444-2.02.993-3.056 1.549a24.34 24.34 0 0 1-3.119 1.452 9.635 9.635 0 0 1-3.137.637 7.068 7.068 0 0 1-2.84-.561 19.246 19.246 0 0 1-2.244-1.144c-.67-.384-1.273-.732-1.82-.998a9.735 9.735 0 0 0-1.45-.59 5.02 5.02 0 0 0-.56-.148 3.077 3.077 0 0 0-.41-.078l-.255-.043a.344.344 0 0 1-.087-.016.282.282 0 0 1 .087 0l.258.028c.14.012.279.035.415.067.19.034.377.079.561.135a9.68 9.68 0 0 1 1.467.56c.56.261 1.163.606 1.833.982.723.422 1.472.797 2.244 1.121a7.004 7.004 0 0 0 2.804.536 9.617 9.617 0 0 0 3.084-.639c1.06-.41 2.091-.894 3.084-1.447 1.035-.561 2.044-1.105 3.065-1.548.5-.22 1.013-.412 1.534-.578a10.582 10.582 0 0 1 1.537-.342 7.708 7.708 0 0 1 2.89.146c.82.21 1.62.49 2.39.841 1.401.626 2.523 1.17 3.314 1.531l.894.427.233.114c.07.045.098.059.095.062Z" fill="#FAFAFA"/></svg>