<svg width="226" height="165" fill="none" xmlns="http://www.w3.org/2000/svg"><circle cx="113" cy="113.001" r="113" fill="#30D4FE"/><path d="M187.358 57.15H38.225a5.735 5.735 0 0 0-5.735 5.735v94.736a5.735 5.735 0 0 0 5.735 5.735h149.133a5.735 5.735 0 0 0 5.734-5.735V62.885a5.734 5.734 0 0 0-5.734-5.735Z" fill="#455A64"/><path d="M26 155.5h174v2.286a7.004 7.004 0 0 1-7.006 7.006H33.006A7.008 7.008 0 0 1 26 157.786V155.5Z" fill="#455A64"/><path d="M188.558 61.37H37.028v89.685h151.53V61.369Z" fill="#F5F5F5"/><path d="M97.183 155.5h2.645l7.341-.032 24.549-.051h.181l-.091.157c-.307.528-.641 1.095-.972 1.669-.33.575-.7 1.181-1.031 1.764l-.032.051h-.059l-30.382-.055h-.027v-.024l-1.575-2.586-.393-.657-.13-.217.153.229c.099.157.24.374.425.657.37.579.917 1.425 1.622 2.527l-.04-.024 30.383-.055-.091.051 1.032-1.767c.334-.571.665-1.141.976-1.669l.086.158-24.446-.055-7.412-.048H97.36l-.177-.023Z" fill="#263238"/><path fill-rule="evenodd" clip-rule="evenodd" d="M84.608 118.752a15.202 15.202 0 0 1 2.79-2.849l-.665-3.637 5.624-2.397 2.17 2.995a14.995 14.995 0 0 1 3.986-.047l2.098-3.039 5.676 2.283-.586 3.645c1.069.8 2.027 1.738 2.849 2.791l3.637-.662 2.397 5.641-2.995 2.165c.194 1.321.208 2.662.043 3.987l3.043 2.102-2.283 5.671-3.645-.586a15.097 15.097 0 0 1-2.791 2.85l.662 3.636-5.625 2.401-2.165-2.995a14.995 14.995 0 0 1-3.987.043l-2.098 3.039-5.675-2.279.586-3.649a14.933 14.933 0 0 1-2.85-2.79l-3.637.665-2.4-5.625 2.995-2.168a14.988 14.988 0 0 1-.044-3.984l-3.038-2.09 2.279-5.675 3.648.586v-.028Zm6.085 6.322a6.56 6.56 0 1 0 12.648 2.377 6.566 6.566 0 0 0-4.115-6.018 6.553 6.553 0 0 0-5.023.057 6.55 6.55 0 0 0-3.51 3.592v-.008Z" fill="#F5F5F5"/><path d="M193.092 155.5c0 .055-35.955.098-80.295.098s-80.295-.043-80.295-.098c0-.055 35.948-.095 80.295-.095 44.348 0 80.295.044 80.295.095ZM106.712 34.833c-2.476 1.086-3.916 3.758-4.455 6.407-.54 2.65-.366 5.389-.599 8.085-.232 2.696-.972 5.51-2.94 7.364-1.834 1.732-4.53 2.437-6.093 4.416a5.55 5.55 0 0 0 3.149 8.86c-1.236 1.968-.618 4.688.964 6.377 1.583 1.688 3.901 2.495 6.188 2.842 4.022.614 8.313-.063 11.709-2.303 3.397-2.24 5.775-6.128 5.767-10.194" fill="#263238"/><path d="M95.987 74.815a3.148 3.148 0 0 1-.437-.878 5.283 5.283 0 0 1-.158-2.653c.115-.61.305-1.204.567-1.767.315-.637.696-1.239 1.138-1.795a33.304 33.304 0 0 1 3.404-3.444 35.321 35.321 0 0 0 3.31-3.503 16.373 16.373 0 0 0 2.122-3.303c.381-.797.669-1.636.858-2.499.075-.303.094-.547.13-.708.008-.085.027-.168.055-.248.009.083.009.168 0 .252-.024.165-.032.413-.094.72a10.61 10.61 0 0 1-.811 2.543 15.863 15.863 0 0 1-2.102 3.353 34.084 34.084 0 0 1-3.314 3.542 33.824 33.824 0 0 0-3.401 3.417 9.553 9.553 0 0 0-1.13 1.751 7.145 7.145 0 0 0-.578 1.72 5.35 5.35 0 0 0 .094 2.61c.098.303.214.6.347.89Z" fill="#455A64"/><path d="M136.319 43.724c0 3.637 1.677 6.97 3.184 8.199 2.137 1.732 5.271 2.57 7.333 3.149 3.007.838 5.51 3.471 5.904 6.573.394 3.101-1.653 6.412-4.676 7.191 1.901 1.94 1.334 5.278-.228 7.478-2.964 4.208-8.88 5.826-13.776 4.267-4.897-1.559-8.66-5.904-10.132-10.836" fill="#263238"/><path d="M143.798 79.55c.415-.09.809-.263 1.157-.508.401-.293.732-.673.968-1.11a4.106 4.106 0 0 0 .52-1.874 4.614 4.614 0 0 0-.611-2.267 7.366 7.366 0 0 0-1.767-2.074c-1.492-1.255-3.519-2.039-5.479-3.149a10.777 10.777 0 0 1-2.598-2.043 5.807 5.807 0 0 1-1.42-2.728 9.72 9.72 0 0 1-.126-2.786c.066-.87.177-1.669.251-2.405.17-1.15.152-2.32-.055-3.464-.051-.196-.098-.37-.141-.527-.044-.157-.107-.272-.142-.374a2.862 2.862 0 0 1-.114-.31c.06.092.11.191.149.294.044.103.111.22.162.37l.161.532c.239 1.15.279 2.332.118 3.495-.067.736-.169 1.539-.228 2.4a9.647 9.647 0 0 0 .142 2.756 5.624 5.624 0 0 0 1.385 2.637c.744.795 1.606 1.47 2.555 2.004 1.94 1.114 3.979 1.909 5.51 3.196a7.46 7.46 0 0 1 1.795 2.133c.407.72.616 1.535.606 2.362a4.12 4.12 0 0 1-.563 1.924 3.435 3.435 0 0 1-1.019 1.118c-.266.179-.56.312-.87.394a1.74 1.74 0 0 1-.346.004ZM150.882 67.415c.218-.295.346-.646.37-1.011a2.474 2.474 0 0 0-.283-1.228 3.091 3.091 0 0 0-1.114-1.232 5.452 5.452 0 0 0-1.94-.65c-.733-.13-1.532-.177-2.362-.307a12.654 12.654 0 0 1-5.089-2.011 12.477 12.477 0 0 1-3.763-3.98 12.626 12.626 0 0 1-1.543-4.203 11.795 11.795 0 0 1-.161-3.02c.017-.272.049-.544.094-.814.007-.095.026-.189.055-.28.02 0-.047.394-.075 1.103a12.958 12.958 0 0 0 1.783 7.124 12.514 12.514 0 0 0 3.716 3.909 12.73 12.73 0 0 0 5.011 1.995c.826.134 1.629.189 2.361.323.695.103 1.363.34 1.968.697.495.317.891.767 1.142 1.298.198.396.288.838.259 1.28-.023.279-.112.549-.259.787-.052.075-.103.13-.134.169l-.036.051Z" fill="#455A64"/><path d="M108.479 86.364c.52-5.436.965-11.167.965-11.167s-6.884-1.85-7.435-11.127c-.528-8.844 2.885-28.816 2.885-28.816 10.481-3.117 22.148.787 28.536 9.56l-4.936 44.084c-.571 5.117-5.428 8.699-10.903 8.042-5.526-.666-9.604-5.397-9.112-10.576Z" fill="#B78876"/><path d="M105.941 51.218a1.177 1.177 0 0 0 1.011 1.291 1.12 1.12 0 0 0 1.311-.937 1.182 1.182 0 0 0-1.012-1.29 1.12 1.12 0 0 0-1.31.936ZM104.17 49.718c.129.17 1.082-.393 2.341-.275 1.26.118 2.122.85 2.275.708.075-.063-.047-.35-.421-.684a3.23 3.23 0 0 0-1.802-.756 3.151 3.151 0 0 0-1.882.393c-.417.276-.574.54-.511.614ZM118.819 52.71a1.18 1.18 0 0 0 1.016 1.291 1.12 1.12 0 0 0 1.311-.936 1.183 1.183 0 0 0-1.012-1.291 1.127 1.127 0 0 0-1.315.936Z" fill="#263238"/><path d="M117.277 51.47c.129.17 1.082-.393 2.341-.271 1.26.122 2.122.846 2.276.704.07-.059-.048-.35-.422-.684a3.242 3.242 0 0 0-1.802-.756 3.15 3.15 0 0 0-1.882.393c-.417.276-.574.54-.511.614ZM111.782 60.37c0-.071-.756-.284-2.012-.571-.318-.067-.614-.162-.649-.394.007-.335.116-.66.311-.933l1.181-2.361c1.665-3.358 2.905-6.133 2.755-6.2-.15-.067-1.594 2.606-3.259 5.963-.394.831-.787 1.618-1.157 2.362a1.882 1.882 0 0 0-.291 1.244.779.779 0 0 0 .484.523c.173.067.354.11.539.13 1.295.225 2.086.307 2.098.236Z" fill="#263238"/><path d="M109.444 75.197c4.294.49 8.639-.222 12.552-2.059 0 0-3.602 5.983-12.655 4.227l.103-2.168ZM112.018 63.46a2.283 2.283 0 0 1 2.117-.646 2.105 2.105 0 0 1 1.358.91 1.324 1.324 0 0 1-.051 1.515 1.523 1.523 0 0 1-1.692.251 4.766 4.766 0 0 1-1.516-1.117 1.4 1.4 0 0 1-.322-.394.414.414 0 0 1-.048-.241.415.415 0 0 1 .095-.227" fill="#AA6550"/><path d="M115.407 61.605c-.205-.031-.343 1.335-1.61 2.193-1.267.858-2.708.563-2.735.752-.028.082.299.299.913.393a3.41 3.41 0 0 0 2.275-.55 2.957 2.957 0 0 0 1.259-1.847c.13-.586-.008-.94-.102-.94Z" fill="#263238"/><path d="M129.085 54.56a5.459 5.459 0 0 1 2.92.476 3.806 3.806 0 0 1 1.968 2.165 3.982 3.982 0 0 1-.26 2.92 6.777 6.777 0 0 1-1.905 2.295 4.573 4.573 0 0 1-1.889 1 2.174 2.174 0 0 1-2.003-.516" fill="#B78876"/><path d="M129.041 60.535c-.114.024.252.658 1.181.504.49-.12.914-.426 1.181-.854a4.382 4.382 0 0 0 .649-1.575 2.6 2.6 0 0 0-.244-1.759 1.728 1.728 0 0 0-1.208-.886c-.917-.11-1.267.5-1.181.528.087.027.457-.213 1.043 0 .587.212 1.055 1.011.835 1.968-.221.956-.685 1.873-1.244 2.05-.559.178-.941-.05-1.012.024Z" fill="#AA6550"/><path d="M109.31 39.159a11.18 11.18 0 0 1-7.537 6.349c-.193-2.256-.327-4.539.043-6.774.37-2.236 1.275-4.436 2.905-6.007 1.629-1.57 4.042-2.416 6.23-1.834" fill="#263238"/><path d="M109.94 35.018a8.982 8.982 0 0 0 9.285 12.248c.598-.062 1.228-.18 1.787.036.559.216.996.787 1.354 1.33 1.456 2.177 2.995 4.44 5.29 5.7 2.295 1.26 5.577 1.133 7.112-.988.744-1.032.965-2.342 1.138-3.602.582-4.239.822-8.793-1.201-12.563-1.499-2.807-4.136-4.89-7.053-6.153s-6.113-1.767-9.289-1.968c-1.842-.114-3.751-.118-5.463.583-1.712.7-3.188 2.251-3.287 4.097" fill="#263238"/><path d="M135.5 50.939a2.287 2.287 0 0 1-.11-.311 16.62 16.62 0 0 0-1.862-3.987 16.197 16.197 0 0 0-3.412-3.806 22.135 22.135 0 0 0-5.467-3.078c-2.063-.866-4.082-1.575-5.849-2.405a20.415 20.415 0 0 1-4.412-2.696 11.463 11.463 0 0 1-2.338-2.579 7.495 7.495 0 0 1-.469-.826 1.635 1.635 0 0 1-.138-.3c.064.092.121.186.174.284.151.27.317.533.495.787a11.919 11.919 0 0 0 2.362 2.515 20.539 20.539 0 0 0 4.397 2.638c1.759.814 3.778 1.523 5.849 2.389 1.976.77 3.832 1.82 5.51 3.117a16.006 16.006 0 0 1 3.416 3.877c.618.99 1.123 2.047 1.508 3.149.13.393.224.697.272.91.034.104.059.212.074.322Z" fill="#455A64"/><path d="M132.662 50.44a1.528 1.528 0 0 1-.153-.26c-.102-.17-.252-.422-.472-.725a9.646 9.646 0 0 0-2.264-2.184 22.224 22.224 0 0 0-4.156-2.185c-.815-.35-1.677-.712-2.551-1.13a32.048 32.048 0 0 1-2.648-1.409 22.999 22.999 0 0 1-4.582-3.542 17.663 17.663 0 0 1-2.865-3.759 14.801 14.801 0 0 1-1.26-2.928 10.914 10.914 0 0 1-.213-.839 1.6 1.6 0 0 1-.055-.299c.04.093.07.189.091.288a15.635 15.635 0 0 0 1.559 3.708c.79 1.354 1.755 2.6 2.869 3.703a23.503 23.503 0 0 0 4.558 3.515c.874.523 1.759.988 2.629 1.409.87.421 1.724.787 2.539 1.134 1.466.589 2.863 1.339 4.164 2.235a9.274 9.274 0 0 1 2.248 2.256c.163.239.311.488.44.747.048.085.088.173.122.264ZM101.804 49.133a1.362 1.362 0 0 1-.087-.213c-.051-.138-.13-.346-.216-.618-.22-.77-.352-1.562-.394-2.361a11.357 11.357 0 0 1 2.362-7.455 10.22 10.22 0 0 1 1.574-1.638 21.22 21.22 0 0 1 1.716-1.228 18.04 18.04 0 0 0 2.842-2.113 6.313 6.313 0 0 0 1.394-1.913c.228-.516.279-.83.299-.827a.804.804 0 0 1-.036.228 4.285 4.285 0 0 1-.193.626 6.127 6.127 0 0 1-1.365 1.968 17.47 17.47 0 0 1-2.838 2.165c-.586.38-1.152.79-1.697 1.228a10.341 10.341 0 0 0-1.55 1.606 11.214 11.214 0 0 0-1.937 3.838 11.344 11.344 0 0 0-.437 3.495c.031.796.142 1.587.331 2.361.071.263.13.472.177.626a.962.962 0 0 1 .055.225Z" fill="#455A64"/><path d="M124.361 67.344a8.791 8.791 0 0 1-5.849-2.145l.252-.28a8.294 8.294 0 0 0 10.274.654 8.29 8.29 0 0 0 2.987-9.852l.35-.137a8.97 8.97 0 0 1-3.125 10.293 8.6 8.6 0 0 1-4.889 1.467Z" fill="#FC7387"/><path d="M119.504 67.557a1.815 1.815 0 1 0 0-3.63 1.815 1.815 0 0 0 0 3.63ZM139.424 57.49a6.073 6.073 0 1 0-11.991-1.935 6.073 6.073 0 1 0 11.991 1.935Z" fill="#FC7387"/><path d="M132.45 55.678a7.47 7.47 0 0 1 .031-1.54l.071-1.798c0-.7.032-1.5 0-2.382 0-.44-.031-.9-.055-1.377-.023-.476-.075-.976-.122-1.492-.047-.515-.138-1.039-.205-1.574l-.153-.819a10.847 10.847 0 0 0-.181-.838 16.058 16.058 0 0 0-3.18-6.692 14.806 14.806 0 0 0-6.054-4.243 26.685 26.685 0 0 0-5.959-1.495c-1.748-.244-3.177-.32-4.161-.394a7.564 7.564 0 0 1-1.535-.126 7.74 7.74 0 0 1 1.539-.098c1.406-.013 2.81.054 4.208.2 2.086.215 4.136.688 6.105 1.41a14.977 14.977 0 0 1 6.297 4.368 16.251 16.251 0 0 1 3.256 6.952c.07.287.125.574.173.861.047.288.094.563.141.839.063.559.15 1.094.181 1.618.032.523.083 1.03.087 1.515.004.484.032.953 0 1.397 0 .894-.051 1.697-.09 2.401-.04.705-.111 1.307-.17 1.803a7.873 7.873 0 0 1-.224 1.504Z" fill="#FC7387"/><path opacity=".4" d="M135.207 60.39a4.18 4.18 0 1 0-3.223-7.715 4.18 4.18 0 0 0 3.223 7.716Z" fill="#000"/><path d="M132.222 52.628a.915.915 0 0 1 .188-.095c.187-.078.381-.136.579-.173a3.315 3.315 0 0 1 2.169.37c.46.251.844.62 1.114 1.07.304.52.458 1.112.444 1.713a3.14 3.14 0 0 1-1.477 2.61 3.148 3.148 0 0 1-2.994.188 3.076 3.076 0 0 1-1.393-1.373 3.189 3.189 0 0 1-.358-1.736c.054-.52.23-1.019.515-1.457a3.026 3.026 0 0 1 1.732-1.346c.196-.054.399-.078.602-.07a.891.891 0 0 1 .209.03c-.266.002-.531.039-.787.111-.69.239-1.27.718-1.634 1.35a2.951 2.951 0 0 0-.118 3.035c.289.558.75 1.008 1.315 1.283a3.066 3.066 0 0 0 3.625-.882c.374-.506.58-1.117.59-1.747a3.088 3.088 0 0 0-.393-1.626c-.25-.43-.61-.787-1.043-1.031a3.287 3.287 0 0 0-2.086-.417 6.465 6.465 0 0 0-.799.193Z" fill="#263238"/><path d="M133.56 60.642a2.076 2.076 0 0 1-.189-.989 2.12 2.12 0 0 1 .106-.995c.076.323.105.656.087.988.047.33.045.666-.004.995ZM135.866 59.83a4.658 4.658 0 0 1-.684-1.763c.346.535.579 1.135.684 1.763ZM137.421 58.012c-.035.04-.323-.162-.642-.449-.318-.287-.543-.555-.507-.594.035-.04.322.161.641.448.319.288.543.555.508.595ZM137.531 55.473c-.019.052-.224.024-.464-.063-.24-.086-.417-.196-.394-.248.024-.05.225-.023.465.063.24.087.413.197.393.248ZM130.832 59.712a3.24 3.24 0 0 1 .909-1.775 3.884 3.884 0 0 1-.421.905 4.03 4.03 0 0 1-.488.87ZM129.584 57.575c-.039-.04.201-.334.532-.657.33-.323.63-.559.669-.52.039.04-.201.335-.531.658-.331.322-.63.559-.67.52ZM130.561 54.678c0 .051-.158.142-.394.201-.236.059-.417.067-.429 0-.012-.067.154-.146.394-.205.24-.059.413-.047.429.004Z" fill="#263238"/><path d="M162.328 87.906c-.393-2.224-1.263-3.432-1.913-4.066a10.97 10.97 0 0 0-1.924-1.653c-.882-.54-2.082-1.204-2.85-1.374-.949-.204-1.181-1.436-.394-1.79.788-.355 3.425.153 5.956 2.01 2.53 1.859 1.247-2.849.814-4.573-.433-1.724-1.507-7.116-1.114-7.66.626-.787 1.614-.251 2.012 1.48.397 1.732 1.944 6.85 2.846 6.597.901-.252-1.445-8.997-1.445-8.997s-.787-1.795.232-2.118c1.866-.587 3.661 8.884 3.81 9.789.103.626 1.095.394.949-.28-.146-.673-2.535-8.678-.642-9.293 1.453-.468 1.551 7.778 2.968 9.187 1.417 1.41-.716-6.262.693-6.656.523-.145.937-.18 1.523 4.385.319 2.452.114 5.833 1.071 10.513" fill="#B78876"/><path d="m157.609 105.508 8.604 12.347-4.129-31.842 12.3-4.853s15.524 59.512-5.294 60.347c0 0-14.409-.394-25.163-25.332l13.682-10.667Z" fill="#B78876"/><path d="M171.409 80.928c.023.031-.268.224-.65.65a4.384 4.384 0 0 0-1.007 1.967l-.048.232-.169-.173a5.534 5.534 0 0 0-.637-.555 5.456 5.456 0 0 0-2.614-1.015c-.728-.079-1.181 0-1.181-.044.385-.14.798-.189 1.205-.141a5.02 5.02 0 0 1 3.424 1.574l-.22.06c.173-.78.57-1.49 1.141-2.047.208-.227.467-.402.756-.508Z" fill="#AA6550"/><path d="m151.429 131.25-10.41-13.206-2.708 13.509a27.984 27.984 0 0 0 1.621 16.291l1.342 3.216H93.066l1.204-4.295c.681-5.258-.228-10.745-.07-18.278l-1.339-8.49-7.293 31.063h-21.44s11.757-48.213 19.141-57.754c9.293-12.024 25.533-10.438 25.533-10.438l9.947 15.595 9.718-14.064s16.696-3.542 29.732 18.893l6.975 11.954-3.239-24.612 15.106-3.48s5.452 24.179 5.093 37.129c-.318 11.564-5.242 17.629-12.064 18.228-10.741.936-18.641-11.261-18.641-11.261Z" fill="#FC7387"/><path d="m108.802 82.868.169-1.944s7.369 1.637 9.841 14.504c0 0 2.479-11.875 10.414-13.067l1.339 3.42-4.873 12.686-8.557 2.503-8.329-2.503-3.794-7.522 3.79-8.077Z" fill="#FC7387"/><path d="M88.264 87.985c.022.109.035.22.04.33 0 .237.039.556.07.96.051.831.138 2.032.256 3.52.24 2.968.646 7.065 1.287 11.564a190.83 190.83 0 0 0 2.007 11.465c.304 1.461.555 2.638.74 3.452.083.394.15.709.201.937a1.9 1.9 0 0 1 .055.331 2.255 2.255 0 0 1-.094-.319 59.89 59.89 0 0 1-.236-.933 84.916 84.916 0 0 1-.788-3.436 165.474 165.474 0 0 1-2.066-11.47 157.233 157.233 0 0 1-1.429-15.106c0-.394-.023-.724-.031-.96-.008-.237-.016-.335-.012-.335ZM130.383 83.942a.96.96 0 0 1-.106.185l-.33.512-1.228 1.874a139.725 139.725 0 0 0-3.87 6.297c-.055.099-.114.193-.165.288l-.094.161-.079-.17a5.804 5.804 0 0 0-1.059-1.704 1.917 1.917 0 0 0-1.641-.614 2.254 2.254 0 0 0-1.354.89c-.3.388-.529.827-.677 1.295-.276.866-.437 1.594-.646 2.066-.073.183-.158.36-.256.532-.07.115-.11.17-.118.165 0 0 .134-.248.307-.724.174-.477.319-1.181.587-2.079.141-.488.37-.947.677-1.353a2.36 2.36 0 0 1 1.452-.965 2.082 2.082 0 0 1 1.799.654 5.826 5.826 0 0 1 1.106 1.755h-.173l.165-.287c1.449-2.504 2.862-4.724 3.936-6.274a84.63 84.63 0 0 1 1.279-1.842c.15-.197.268-.362.363-.492a.994.994 0 0 1 .125-.17Z" fill="#263238"/><path d="M123.366 91.228s-.02.06-.079.166l-.26.456-.988 1.661-1.488 2.444-.885 1.445c-.158.248-.315.504-.477.763a.686.686 0 0 1-.185.19.345.345 0 0 1-.299.039.75.75 0 0 1-.393-.358c-1.382-2.079-2.413-4.09-3.22-5.51-.394-.713-.728-1.284-.956-1.677a5.238 5.238 0 0 1-.347-.618s.047.047.114.145c.067.099.174.24.296.433.251.394.598.945 1.011 1.65.838 1.397 1.889 3.396 3.267 5.463.083.133.161.248.268.279.106.032.189-.04.271-.153l.473-.756.893-1.437 1.523-2.424 1.039-1.626c.118-.173.213-.319.296-.437a.728.728 0 0 1 .126-.138ZM150.06 92.381a2.327 2.327 0 0 1-.114.256c-.087.181-.205.421-.355.72a98.228 98.228 0 0 0-3.038 6.656 91.072 91.072 0 0 0-1.894 5.007 82.976 82.976 0 0 0-1.574 5.117 123.083 123.083 0 0 0-1.075 4.235 73.432 73.432 0 0 0-.621 2.881c-.067.327-.122.587-.162.787a1.344 1.344 0 0 1-.071.272c.001-.094.011-.188.032-.28.031-.2.075-.464.126-.787.11-.689.303-1.68.563-2.901.259-1.22.606-2.66 1.035-4.254a83.582 83.582 0 0 1 1.574-5.117 82.862 82.862 0 0 1 1.909-5.01 71.223 71.223 0 0 1 1.803-3.996 67.336 67.336 0 0 1 1.338-2.63l.394-.7c.034-.09.077-.175.13-.256ZM128.006 141.282a2.982 2.982 0 0 1-.299 0l-.862-.067c-.394-.031-.83-.071-1.358-.138-.527-.066-1.133-.126-1.795-.228a69.979 69.979 0 0 1-4.64-.815 70.066 70.066 0 0 1-5.593-1.417 73.233 73.233 0 0 1-5.46-1.869 60.85 60.85 0 0 1-4.329-1.854c-.614-.276-1.154-.555-1.63-.787a27.344 27.344 0 0 1-1.212-.63l-.76-.413a1.98 1.98 0 0 1-.256-.154c.096.03.188.07.276.118l.787.394c.335.169.744.393 1.224.598.48.205 1.024.496 1.638.76a74.712 74.712 0 0 0 4.329 1.81 77.112 77.112 0 0 0 5.448 1.85 78.204 78.204 0 0 0 5.573 1.429c1.724.382 3.299.657 4.625.854.657.114 1.259.185 1.787.256.527.071.98.13 1.354.169l.858.107c.099 0 .198.009.295.027ZM125.873 142.125a.872.872 0 0 1-.201.051l-.575.11c-.5.091-1.228.205-2.129.331a71.647 71.647 0 0 1-14.17.492 49.153 49.153 0 0 1-2.145-.185l-.582-.067a1.365 1.365 0 0 1-.201-.036.782.782 0 0 1 .205 0l.582.032c.508.035 1.24.079 2.149.122 1.811.087 4.33.146 7.085.051a87.694 87.694 0 0 0 7.085-.543c.901-.106 1.629-.201 2.133-.268l.583-.074a.646.646 0 0 1 .181-.016ZM142.936 120.477c.008-.097.027-.192.055-.284l.2-.787.748-2.948c.634-2.488 1.472-5.932 2.507-9.71.52-1.89 1.051-3.68 1.575-5.298a79.638 79.638 0 0 1 1.492-4.255c.22-.606.448-1.141.637-1.614.189-.472.366-.874.516-1.2l.342-.752c.037-.09.082-.177.134-.26a1.796 1.796 0 0 1-.098.276 86.45 86.45 0 0 1-.307.763c-.13.32-.303.74-.484 1.216-.181.477-.394 1.012-.61 1.618a91.642 91.642 0 0 0-1.449 4.263 147.546 147.546 0 0 0-1.555 5.294c-1.031 3.775-1.889 7.215-2.558 9.694-.331 1.24-.606 2.244-.807 2.933l-.236.787c-.024.091-.059.18-.102.264ZM92.61 119.831a2.368 2.368 0 0 1-.205-.236c-.126-.165-.327-.393-.547-.712a20.547 20.547 0 0 1-1.72-2.826 27.38 27.38 0 0 1-1.807-4.566 40.32 40.32 0 0 1-1.252-5.877c-.574-4.227-.669-8.092-.842-10.87-.079-1.394-.153-2.52-.209-3.3l-.067-.893a2.095 2.095 0 0 1 0-.315c.026.102.043.206.052.311.023.201.063.504.102.894.083.787.177 1.9.272 3.29.208 2.783.322 6.644.897 10.856.268 1.978.68 3.934 1.232 5.853a28.055 28.055 0 0 0 1.744 4.558 23.192 23.192 0 0 0 1.657 2.845c.212.327.393.559.52.732.065.08.123.166.172.256Z" fill="#263238"/><path d="M90.78 111.164c0 .059-.56.181-1.182.543-.621.362-.995.787-1.039.748a2.757 2.757 0 0 1 2.204-1.291h.016ZM90.413 106.11c-.503.139-.995.315-1.472.528-.444.273-.868.578-1.267.913a3.106 3.106 0 0 1 2.755-1.441h-.016ZM89.307 101.489c-.401.108-.795.239-1.18.394-.354.209-.694.439-1.02.689a2.227 2.227 0 0 1 2.184-1.083h.016ZM88.768 96.711c0 .055-.492.154-1.059.394-.567.24-.984.535-1.02.492.24-.314.567-.548.941-.673.35-.182.746-.256 1.138-.213ZM88.457 92.862c0 .055-.496.15-1.063.417s-.96.594-.996.55a1.87 1.87 0 0 1 .913-.727 1.894 1.894 0 0 1 1.146-.24ZM143.947 114.58c-.047.036-.303-.311-.787-.496a5.648 5.648 0 0 0-.901-.185 1.05 1.05 0 0 1 .972 0c.551.221.767.666.716.681ZM145.411 110.64a2.526 2.526 0 0 0-2.086-1.35c0-.023.146-.074.394-.067a1.914 1.914 0 0 1 1.586 1.028c.114.236.13.382.106.389ZM146.509 106.307a2.652 2.652 0 0 0-2.196-.87c0-.02.126-.091.362-.122a1.865 1.865 0 0 1 1.657.657c.15.185.197.327.177.335ZM147.804 102.146c-.051.028-.255-.362-.712-.594a4.224 4.224 0 0 0-.89-.252c0-.023.103-.071.288-.082a1.418 1.418 0 0 1 1.22.645c.094.157.114.272.094.283ZM149.316 98.324a2.683 2.683 0 0 0-.787-.677 2.806 2.806 0 0 0-1.036-.173c0-.02.103-.094.311-.13a1.488 1.488 0 0 1 1.421.658c.095.18.11.315.091.322ZM124.574 92.862a.772.772 0 0 1-.087.18l-.275.504a119.395 119.395 0 0 1-2.7 4.495 69.136 69.136 0 0 1-1.016 1.547c-.362.557-.756 1.091-1.181 1.602-.111.14-.244.263-.393.362a.269.269 0 0 1-.173.036.56.56 0 0 1-.15-.048 1.554 1.554 0 0 1-.224-.153 5.583 5.583 0 0 1-.689-.72c-.394-.496-.787-1-1.114-1.48a64.423 64.423 0 0 1-1.728-2.618 62.265 62.265 0 0 1-1.098-1.802l-.284-.5a.639.639 0 0 1-.086-.181c.044.05.083.104.118.161l.315.48c.287.441.677 1.04 1.149 1.771a69.842 69.842 0 0 0 1.76 2.582c.342.48.708.977 1.113 1.465.203.248.425.48.666.692.118.095.267.197.342.138.128-.088.244-.194.342-.315.422-.503.817-1.028 1.181-1.574.362-.528.701-1.043 1.02-1.54.637-.987 1.2-1.885 1.673-2.644.472-.76.838-1.342 1.113-1.791l.311-.484c.048-.114.087-.17.095-.165Z" fill="#263238"/><path d="M116.186 98.462c-.023 0-.067-.134-.051-.362a1.55 1.55 0 0 1 .331-.81 1.53 1.53 0 0 1 .712-.512c.217-.067.358-.056.362-.032a2.847 2.847 0 0 0-.921.665 2.757 2.757 0 0 0-.433 1.051ZM118.788 101.564a6.882 6.882 0 0 1-.024-3.102c.049.516.059 1.034.028 1.551.038.516.036 1.035-.004 1.551ZM121.708 97.612c-.055 0-.177-.42-.586-.755a3.847 3.847 0 0 0-.846-.441c0-.024.118-.051.307-.02a1.436 1.436 0 0 1 1.09.91c.063.192.059.298.035.306ZM123.625 94.405a3.807 3.807 0 0 0-.484-.815 4.009 4.009 0 0 0-.787-.54c0-.023.122-.035.303 0 .237.076.45.212.618.394.17.18.29.401.346.642.048.197.028.315.004.319ZM114.23 95.53c-.024 0-.087-.146-.094-.394a2.007 2.007 0 0 1 .24-.992c.163-.305.399-.565.688-.755.225-.138.394-.17.394-.15a2.717 2.717 0 0 0-1.232 2.307l.004-.016Z" fill="#263238"/><path opacity=".4" d="M108.7 82.837c.842 3.235 2.251 8.505 3.775 12.626.056.195.156.374.291.524.393.366 1.051.142 1.417-.248.31-.401.588-.826.83-1.271a1.637 1.637 0 0 1 1.209-.823 1.411 1.411 0 0 1 1.07.535c.254.327.475.68.658 1.051a.775.775 0 0 0 .464.445.28.28 0 0 0 .331-.394l-1.346-3.495s-.618-2.562-2.756-2.165c-2.393.445-1.306 4.381-1.306 4.381S108.664 82.7 108.7 82.837Z" fill="#000"/><path d="M118.812 95.428a.933.933 0 0 1-.115-.228c-.07-.154-.169-.394-.291-.673-.24-.614-.578-1.464-.992-2.508-.106-.263-.22-.539-.342-.822a2.584 2.584 0 0 0-.492-.787 2.368 2.368 0 0 0-1.866-.697c-.364.046-.707.2-.984.44a2.458 2.458 0 0 0-.531 1.02 2.889 2.889 0 0 0-.083 1.181c.048.422.123.84.224 1.252.036.153.075.307.111.449l-.189.055c-.551-1.575-1.181-3.055-1.764-4.381-.582-1.327-1.113-2.523-1.531-3.543a34.321 34.321 0 0 1-.909-2.424c-.098-.288-.157-.516-.201-.673a1.008 1.008 0 0 1-.055-.236c.037.072.067.147.091.224.055.153.126.394.236.661.205.57.531 1.394.964 2.393.433 1 .972 2.189 1.575 3.515.602 1.327 1.232 2.799 1.787 4.393l-.185.059c-.036-.146-.075-.3-.115-.453a10.45 10.45 0 0 1-.224-1.28 3.038 3.038 0 0 1 .095-1.274c.104-.406.304-.781.582-1.095.307-.269.689-.438 1.094-.484a2.499 2.499 0 0 1 2.004.764c.219.25.393.536.511.846.122.287.229.567.335.83.394 1.052.705 1.91.933 2.532.106.283.189.511.256.684.031.084.055.171.071.26Z" fill="#263238"/><path opacity=".4" d="M119 95.333c-.078.055-.019.2.075.22a.337.337 0 0 0 .272-.094 5.936 5.936 0 0 0 1.133-1.503c.355-.528.87-1.032 1.504-1.032s1.216.56 1.547 1.146c.33.586.559 1.247 1.039 1.72a47.175 47.175 0 0 0 5.711-11.45c-.787.547-1.311 1.401-1.803 2.224a8446.331 8446.331 0 0 1-3.833 6.396 4.917 4.917 0 0 0-1.083-1.705 2.097 2.097 0 0 0-1.857-.598c-.744.177-1.264.85-1.626 1.527a9.07 9.07 0 0 0-1.027 3.185" fill="#000"/><path d="M169.268 126.865a2.242 2.242 0 0 1-.256-.429 29.378 29.378 0 0 1-.614-1.216 44.922 44.922 0 0 1-1.728-4.153 44.174 44.174 0 0 1-1.299-4.302 29.599 29.599 0 0 1-.299-1.33 2.734 2.734 0 0 1-.075-.492c.066.153.116.313.15.476.094.346.216.787.358 1.311a61.815 61.815 0 0 0 1.35 4.274c.59 1.65 1.204 3.11 1.669 4.157.224.496.393.913.555 1.24.078.148.142.303.189.464ZM165.524 126.125a2.345 2.345 0 0 1-.157-.429 19.173 19.173 0 0 1-.331-1.205 26.191 26.191 0 0 1-.645-8.187c.043-.523.09-.948.138-1.24.01-.153.04-.303.09-.448.017.151.017.305 0 .456-.024.292-.047.717-.075 1.24-.136 2.732.08 5.471.642 8.148.11.515.201.929.271 1.216.042.146.064.297.067.449ZM177.553 91.669c.104.026.204.065.299.114l.059.028-.059.023a53.292 53.292 0 0 1-7.502 1.921 61.522 61.522 0 0 1-5.664.756c-.728.059-1.319.094-1.728.106a3.597 3.597 0 0 1-.638 0c.208-.041.419-.067.63-.079l1.724-.169a68.76 68.76 0 0 0 5.64-.81c3.653-.666 6.656-1.552 7.534-1.78v.047a1.395 1.395 0 0 1-.295-.157ZM174.164 89.96s.035-.063.157-.098a.633.633 0 0 1 .508.114.717.717 0 0 1 .323.7.57.57 0 0 1-.287.394.789.789 0 0 1-.504.095.85.85 0 0 1-.465-.217.622.622 0 0 1-.185-.452.795.795 0 0 1 .421-.646.726.726 0 0 1 .508-.082c.122.031.169.086.165.094a.82.82 0 0 0-.602.106.66.66 0 0 0-.311.528.509.509 0 0 0 .492.472.498.498 0 0 0 .591-.33.645.645 0 0 0-.381-.644.647.647 0 0 0-.257-.057c-.11.008-.165.043-.173.023Z" fill="#263238"/><path d="M115.675 98.285c-.068.068-.141.13-.217.19-.149.11-.354.298-.649.495a14.815 14.815 0 0 1-2.618 1.492 15.992 15.992 0 0 1-6.939 1.362 16.097 16.097 0 0 1-2.818-.351c-1.905-.429-3.621-1.129-5.24-1.574a13.93 13.93 0 0 0-2.317-.457 9.393 9.393 0 0 0-2.067.024 6.298 6.298 0 0 0-2.783.98c-.296.215-.58.445-.854.689.233-.289.506-.542.811-.752a6.2 6.2 0 0 1 2.81-1.055 9.574 9.574 0 0 1 2.087-.043c.798.079 1.588.228 2.361.445 1.634.425 3.35 1.121 5.231 1.547.917.196 1.85.313 2.787.35.872.023 1.744-.02 2.609-.13a16.06 16.06 0 0 0 4.267-1.181c.92-.389 1.801-.866 2.629-1.425.303-.185.512-.362.669-.464.075-.056.155-.104.241-.142ZM140.684 114.478a.527.527 0 0 1-.118-.055l-.342-.177c-.15-.075-.343-.153-.567-.256a5.072 5.072 0 0 0-.787-.271 12.422 12.422 0 0 0-5.361-.193 30.754 30.754 0 0 0-3.649.826c-1.299.355-2.684.768-4.172 1.071a15.435 15.435 0 0 1-4.759.291 22.719 22.719 0 0 1-4.979-1.181c-1.665-.559-3.255-1.18-4.818-1.704a24.441 24.441 0 0 0-4.593-1.13 21.63 21.63 0 0 0-7.966.433c-.999.253-1.98.569-2.937.949-.413.181-.807.342-1.157.512-.35.169-.67.322-.948.48l-.744.413-.532.331-.326.197a.43.43 0 0 1-.119.063l.107-.079.319-.217c.137-.09.31-.212.52-.342l.735-.433c.28-.161.602-.315.949-.496.346-.181.74-.342 1.157-.531.957-.392 1.94-.719 2.94-.98a21.507 21.507 0 0 1 8.026-.477c1.577.223 3.129.6 4.632 1.126 1.575.52 3.149 1.141 4.814 1.7a22.74 22.74 0 0 0 4.94 1.181c1.572.155 3.16.062 4.703-.275 1.48-.296 2.862-.701 4.165-1.051a30.512 30.512 0 0 1 3.672-.807 12.25 12.25 0 0 1 5.373.24c.311.087.574.205.807.291.232.087.413.189.562.272l.331.197c.087.055.126.078.122.082ZM120.85 97.99c.332.093.668.167 1.008.22.931.105 1.873.03 2.775-.22a34.01 34.01 0 0 0 3.908-1.464c.771-.313 1.57-.55 2.386-.709a11.239 11.239 0 0 1 2.664-.153c1.72.112 3.408.51 4.995 1.18a26.448 26.448 0 0 1 3.724 1.933c1.019.622 1.818 1.181 2.361 1.539a30 30 0 0 1 .63.441c.076.047.147.101.213.161a1.184 1.184 0 0 1-.233-.13l-.649-.393c-.567-.354-1.374-.878-2.401-1.484a28.77 28.77 0 0 0-3.72-1.885 15.622 15.622 0 0 0-4.939-1.181 11.542 11.542 0 0 0-2.622.145c-.807.157-1.598.388-2.361.693-1.465.567-2.756 1.181-3.936 1.429-.919.245-1.878.3-2.819.161a3.494 3.494 0 0 1-.984-.283ZM143.857 88.119c-.182.07-.369.127-.559.169a7.569 7.569 0 0 1-.669.157c-.276.051-.559.122-.894.17-.782.13-1.57.216-2.362.255a23.38 23.38 0 0 1-2.873-.031 23.124 23.124 0 0 1-2.865-.441 20.659 20.659 0 0 1-2.279-.645c-.319-.103-.599-.225-.85-.32a8.653 8.653 0 0 1-.63-.267 3.436 3.436 0 0 1-.524-.264c.189.049.373.114.551.193.177.071.394.154.642.236.248.083.535.197.854.292.638.204 1.409.413 2.271.602 1.879.4 3.8.562 5.719.484.882-.04 1.677-.114 2.338-.209.335-.039.63-.098.894-.141.263-.044.488-.087.669-.126.184-.057.374-.095.567-.114ZM88.425 90.645c.052-.054.109-.104.17-.149.118-.094.29-.236.52-.394a35.794 35.794 0 0 1 1.967-1.4 27.443 27.443 0 0 1 7.128-3.52c2.551-.81 5.258-1 7.896-.55.794.145 1.572.368 2.322.664.268.099.465.205.603.264.07.028.137.064.2.106l-.826-.299c-.755-.27-1.532-.47-2.323-.598a17.214 17.214 0 0 0-7.816.598 29.01 29.01 0 0 0-7.085 3.448 58.228 58.228 0 0 0-1.996 1.35l-.54.394a.837.837 0 0 1-.22.087ZM137.964 131.923a.354.354 0 0 1-.11.031l-.331.071c-.178.041-.36.068-.543.083l-.346.039h-.394c-1.129.047-2.755-.244-4.672-.858-.96-.299-1.999-.669-3.129-1.004a19.287 19.287 0 0 0-3.68-.712c-2.641-.252-5.562.067-8.569.614-3.007.547-5.865 1.228-8.51 1.543a26.54 26.54 0 0 1-7.061.043 14.658 14.658 0 0 1-4.55-1.373l-.661-.347-.472-.279-.284-.185-.09-.067a.358.358 0 0 1 .102.051l.291.165.473.28.665.33a15.166 15.166 0 0 0 4.538 1.307c2.333.276 4.692.247 7.018-.086 2.633-.327 5.475-1.012 8.498-1.575 3.023-.563 5.955-.866 8.62-.598 1.257.122 2.499.369 3.707.736 1.134.342 2.173.716 3.126 1.023 1.485.551 3.049.86 4.632.917h.394l.346-.031c.183-.007.364-.028.544-.063l.33-.051.118-.004Z" fill="#FAFAFA"/><path opacity=".3" d="M103.288 134.635c1.783 4.451 5.235 7.612 9.986 8.265 4.75.654 9.556-.433 14.169-1.692-8.411-1.181-15.854-2.342-24.167-6.573" fill="#000"/><path d="m139.169 146.876-.114-.044-.335-.141-1.271-.567c-1.11-.484-2.697-1.232-4.676-2.09a20.641 20.641 0 0 0-3.334-1.13 10.683 10.683 0 0 0-3.999-.185 14.07 14.07 0 0 0-2.126.484c-.722.226-1.433.489-2.129.787-1.421.622-2.834 1.394-4.29 2.173a34.24 34.24 0 0 1-4.377 2.039 13.533 13.533 0 0 1-4.405.893 9.876 9.876 0 0 1-3.987-.787 27.026 27.026 0 0 1-3.149-1.606c-.94-.539-1.787-1.027-2.554-1.401a13.575 13.575 0 0 0-2.035-.826 6.913 6.913 0 0 0-.787-.209 4.164 4.164 0 0 0-.575-.11l-.358-.059a.507.507 0 0 1-.122-.024.416.416 0 0 1 .122 0l.362.039c.196.018.39.049.583.095.266.047.528.11.787.189.706.206 1.395.469 2.058.787.788.366 1.634.85 2.574 1.378a27.278 27.278 0 0 0 3.149 1.574 9.843 9.843 0 0 0 3.936.752 13.445 13.445 0 0 0 4.33-.898 34.06 34.06 0 0 0 4.33-2.031c1.452-.787 2.869-1.55 4.302-2.172a21.706 21.706 0 0 1 2.153-.811 14.864 14.864 0 0 1 2.157-.48 10.831 10.831 0 0 1 4.058.204 20.13 20.13 0 0 1 3.353 1.181c1.968.878 3.543 1.642 4.653 2.149l1.255.599.327.161c.098.063.138.083.134.087Z" fill="#FAFAFA"/></svg>