<svg width="81" height="81" viewBox="0 0 81 81" fill="none" xmlns="http://www.w3.org/2000/svg">
<g filter="url(#filter0_f_942_8388)">
<circle cx="40.5" cy="40.5" r="31.5" stroke="white" stroke-width="2"/>
</g>
<circle cx="40.5" cy="40.5" r="31.5" fill="#B8E2ED" fill-opacity="0.12" stroke="#B8E2ED" stroke-width="2"/>
<path d="M35.6683 21C32.8649 20.9992 30.1066 21.7056 27.6488 23.054C25.191 24.4023 23.1131 26.3489 21.6074 28.7137C20.1017 31.0784 19.217 33.7847 19.0351 36.5822C18.8532 39.3797 19.38 42.1778 20.5668 44.7176C20.0076 47.0323 19.5031 49.3599 19.0538 51.6984C18.9854 52.0512 19.0039 52.4153 19.1078 52.7593C19.2117 53.1033 19.3978 53.4168 19.6501 53.6728C19.9023 53.9287 20.2131 54.1194 20.5555 54.2283C20.8979 54.3373 21.2617 54.3611 21.6155 54.2979C22.9997 54.0535 26.0102 53.4981 28.8052 52.8538C31.0706 53.8753 33.5358 54.3773 36.0204 54.3228C38.5049 54.2683 40.9457 53.6589 43.1642 52.539C45.3827 51.4191 47.3226 49.8172 48.8419 47.8506C50.3612 45.884 51.4213 43.6025 51.9447 41.1731C52.4682 38.7437 52.4416 36.2281 51.867 33.8103C51.2923 31.3926 50.1842 29.1339 48.6237 27.1999C47.0632 25.2658 45.0899 23.7052 42.8482 22.6325C40.6066 21.5597 38.1534 21.002 35.6683 21ZM35.5839 56.5486C38.6623 59.4107 42.7116 60.9987 46.915 60.9922C49.3589 60.9922 51.6807 60.4656 53.7759 59.5191C56.0932 60.0612 58.6327 60.6034 60.2479 60.9411C60.7027 61.0365 61.1741 61.0158 61.6187 60.8807C62.0633 60.7457 62.4667 60.5008 62.7916 60.1686C63.1165 59.8364 63.3524 59.4277 63.4775 58.9802C63.6026 58.5327 63.6128 58.0609 63.5073 57.6084C63.1474 56.0465 62.5786 53.6203 62.0165 51.3807C63.0039 49.2655 63.5362 46.9664 63.5786 44.6324C63.6211 42.2984 63.1729 39.9815 62.2631 37.8318C61.3533 35.682 60.002 33.7473 58.297 32.1529C56.5919 30.5585 54.5709 29.34 52.365 28.5763C53.1534 30.009 53.7509 31.5388 54.1425 33.1265C56.0158 34.334 57.5561 35.9923 58.6224 37.9494C59.6887 39.9066 60.2469 42.1 60.2457 44.3288C60.2457 46.5328 59.7125 48.6057 58.7682 50.432L58.4794 50.9941L58.6349 51.6073C59.1415 53.5958 59.6725 55.8287 60.0613 57.4951C58.3416 57.1329 56.0221 56.6286 53.9736 56.1398L53.387 56.002L52.8471 56.2709C51.0608 57.1596 49.0479 57.6595 46.915 57.6595C44.6444 57.6637 42.4106 57.0854 40.4274 55.9798C38.8441 56.3775 37.2161 56.5687 35.5839 56.5486Z" fill="#B8E2ED"/>
<defs>
<filter id="filter0_f_942_8388" x="0" y="0" width="81" height="81" filterUnits="userSpaceOnUse" color-interpolation-filters="sRGB">
<feFlood flood-opacity="0" result="BackgroundImageFix"/>
<feBlend mode="normal" in="SourceGraphic" in2="BackgroundImageFix" result="shape"/>
<feGaussianBlur stdDeviation="4" result="effect1_foregroundBlur_942_8388"/>
</filter>
</defs>
</svg>
