<svg aria-hidden="true" style="position: absolute; width: 0; height: 0; overflow: hidden;" version="1.1" xmlns="http://www.w3.org/2000/svg" xmlns:xlink="http://www.w3.org/1999/xlink">
<defs>
<symbol id="icon-chat" viewBox="0 0 32 32">
<path fill="none" stroke="#fff" style="stroke: var(--color1, #fff)" stroke-linejoin="miter" stroke-linecap="butt" stroke-miterlimit="4" stroke-width="0.7901" d="M28.444 16c0 6.873-5.572 12.444-12.444 12.444s-12.444-5.572-12.444-12.444c0-6.873 5.572-12.444 12.444-12.444s12.444 5.572 12.444 12.444z"></path>
<path fill="#b8e2ed" style="fill: var(--color2, #b8e2ed); stroke: var(--color2, #b8e2ed)" opacity="0.12" stroke="#b8e2ed" stroke-linejoin="miter" stroke-linecap="butt" stroke-miterlimit="4" stroke-width="0.7901" d="M28.444 16c0 6.873-5.572 12.444-12.444 12.444s-12.444-5.572-12.444-12.444c0-6.873 5.572-12.444 12.444-12.444s12.444 5.572 12.444 12.444z"></path>
<path fill="#b8e2ed" style="fill: var(--color2, #b8e2ed)" d="M14.091 8.296c-1.108-0-2.197 0.279-3.168 0.811s-1.792 1.302-2.387 2.236c-0.595 0.934-0.944 2.003-1.016 3.109s0.136 2.211 0.605 3.214c-0.221 0.914-0.42 1.834-0.598 2.758-0.027 0.139-0.020 0.283 0.021 0.419s0.115 0.26 0.214 0.361c0.1 0.101 0.222 0.176 0.358 0.219s0.279 0.052 0.419 0.027c0.547-0.097 1.736-0.316 2.84-0.57 0.895 0.404 1.869 0.602 2.85 0.58s1.946-0.262 2.822-0.705 1.643-1.075 2.243-1.852c0.6-0.777 1.019-1.678 1.226-2.638s0.196-1.954-0.031-2.909c-0.227-0.955-0.665-1.847-1.281-2.612s-1.396-1.381-2.282-1.804c-0.886-0.424-1.855-0.644-2.837-0.645zM14.058 22.34c1.216 1.131 2.816 1.758 4.476 1.756 0.965 0 1.883-0.208 2.71-0.582 0.915 0.214 1.919 0.428 2.557 0.562 0.18 0.038 0.366 0.029 0.542-0.024s0.335-0.15 0.463-0.281 0.222-0.293 0.271-0.47c0.049-0.177 0.053-0.363 0.012-0.542-0.142-0.617-0.367-1.576-0.589-2.46 0.39-0.836 0.6-1.744 0.617-2.666s-0.16-1.837-0.52-2.687c-0.359-0.849-0.893-1.614-1.567-2.244s-1.472-1.111-2.343-1.413c0.311 0.566 0.548 1.17 0.702 1.798 0.74 0.477 1.349 1.132 1.77 1.905s0.642 1.64 0.641 2.52c0 0.871-0.211 1.69-0.584 2.411l-0.114 0.222 0.061 0.242c0.2 0.786 0.41 1.668 0.564 2.326-0.679-0.143-1.596-0.342-2.405-0.535l-0.232-0.054-0.213 0.106c-0.706 0.351-1.501 0.549-2.344 0.549-0.897 0.002-1.78-0.227-2.563-0.664-0.626 0.157-1.269 0.233-1.913 0.225z"></path>
</symbol>
<symbol id="icon-mail" viewBox="0 0 38 32">
<path fill="#b8e2ed" style="fill: var(--color2, #b8e2ed)" d="M38.095 8.698v16.169c0 1.757-0.672 3.447-1.879 4.724s-2.856 2.044-4.61 2.143l-0.39 0.011h-24.339c-1.757 0-3.447-0.672-4.724-1.879s-2.044-2.856-2.143-4.61l-0.011-0.39v-16.169l18.307 9.638c0.228 0.121 0.483 0.183 0.741 0.183s0.512-0.063 0.741-0.183l18.307-9.638zM6.878 0h24.339c1.536-0 3.027 0.514 4.238 1.459s2.069 2.269 2.44 3.76l-18.847 9.917-18.847-9.917c0.355-1.424 1.155-2.696 2.284-3.633s2.528-1.488 3.993-1.573l0.4-0.013z"></path>
</symbol>
</defs>
</svg>
