<svg width="25" height="21" viewBox="0 0 25 21" fill="none" xmlns="http://www.w3.org/2000/svg">
<path d="M25 5.70833V16.3194C25.0001 17.4724 24.559 18.5817 23.7671 19.4198C22.9753 20.2578 21.8928 20.7611 20.7417 20.8264L20.4861 20.8333H4.51389C3.36092 20.8334 2.25163 20.3923 1.41357 19.6005C0.575509 18.8086 0.0722204 17.7261 0.0069446 16.575L0 16.3194V5.70833L12.0139 12.0333C12.1637 12.1124 12.3306 12.1537 12.5 12.1537C12.6694 12.1537 12.8363 12.1124 12.9861 12.0333L25 5.70833ZM4.51389 8.37588e-09H20.4861C21.494 -6.13585e-05 22.4729 0.337087 23.267 0.957761C24.0611 1.57844 24.6247 2.44695 24.8681 3.425L12.5 9.93333L0.131944 3.425C0.364787 2.4908 0.890054 1.65545 1.63111 1.04081C2.37217 0.426178 3.29024 0.064426 4.25139 0.0083334L4.51389 8.37588e-09Z" fill="#B8E2ED"/>
</svg>
