<svg width="76" height="55" fill="none" xmlns="http://www.w3.org/2000/svg"><circle cx="8" cy="36" r="8" fill="#FC7387"/><path d="M11.74 31.985v7h-1.6v-5.68h-2.4l-.05 1.46c-.033.993-.113 1.8-.24 2.42-.127.613-.34 1.087-.64 1.42-.293.327-.707.49-1.24.49-.22 0-.487-.037-.8-.11l.1-1.37c.087.027.183.04.29.04.387 0 .657-.227.81-.68.153-.46.25-1.177.29-2.15l.1-2.84h5.38Zm7.168 5.7v1.3h-5.42v-7h5.29v1.3h-3.68v1.52h3.25v1.26h-3.25v1.62h3.81Zm6.239-4.38h-3.33l.01 5.68h-1.61v-7h4.94l-.01 1.32Zm3.708 2.86h-1.12v2.82h-1.61v-7h1.61v2.83h1.16l1.84-2.83h1.71l-2.29 3.38 2.36 3.62h-1.84l-1.82-2.82Zm7.73 2.94c-.727 0-1.384-.157-1.97-.47a3.545 3.545 0 0 1-1.37-1.29 3.589 3.589 0 0 1-.49-1.86c0-.687.163-1.303.49-1.85.333-.553.79-.987 1.37-1.3.586-.313 1.243-.47 1.97-.47.726 0 1.38.157 1.96.47a3.523 3.523 0 0 1 1.87 3.15c0 .687-.167 1.307-.5 1.86-.334.547-.79.977-1.37 1.29-.58.313-1.234.47-1.96.47Zm0-1.38c.413 0 .786-.093 1.12-.28.333-.193.593-.46.78-.8.193-.34.29-.727.29-1.16 0-.433-.097-.82-.29-1.16a1.977 1.977 0 0 0-.78-.79 2.192 2.192 0 0 0-1.12-.29c-.414 0-.787.097-1.12.29-.334.187-.597.45-.79.79a2.37 2.37 0 0 0-.28 1.16c0 .433.093.82.28 1.16.193.34.456.607.79.8.333.187.706.28 1.12.28Z" fill="#0A0070"/><path fill="#FDE589" d="m64.627 38 11.115 5.627-5.628 11.115L59 49.115z"/><path d="M28.72 46.35c.427.127.753.333.98.62.227.287.34.64.34 1.06 0 .62-.237 1.103-.71 1.45-.467.347-1.137.52-2.01.52h-3.45v-7h3.26c.813 0 1.447.157 1.9.47.453.313.68.76.68 1.34 0 .347-.087.653-.26.92-.173.26-.417.467-.73.62Zm-3.24-.45h1.51c.353 0 .62-.07.8-.21.18-.147.27-.36.27-.64 0-.273-.093-.483-.28-.63-.18-.147-.443-.22-.79-.22h-1.51v1.7Zm1.78 2.9c.76 0 1.14-.3 1.14-.9 0-.58-.38-.87-1.14-.87h-1.78v1.77h1.78ZM40.473 43l-2.98 5.54c-.287.533-.633.937-1.04 1.21-.4.273-.837.41-1.31.41-.367 0-.746-.08-1.14-.24l.39-1.23c.28.087.514.13.7.13.2 0 .38-.047.54-.14.16-.1.307-.253.44-.46l.06-.08-2.76-5.14h1.73l1.86 3.76 1.92-3.76h1.59Zm6.666 0v7h-1.6v-2.52c-.606.22-1.17.33-1.69.33-.94 0-1.66-.223-2.16-.67-.5-.453-.75-1.103-.75-1.95V43h1.6v2.01c0 .48.127.843.38 1.09.26.24.634.36 1.12.36.534 0 1.034-.103 1.5-.31V43h1.6Zm7.16 5.7V50h-5.42v-7h5.29v1.3h-3.68v1.52h3.25v1.26h-3.25v1.62h3.81Zm1.31-5.7h5.65v1.29h-4.04v1.44h1.94c.846 0 1.49.177 1.93.53.446.353.67.863.67 1.53 0 .7-.247 1.243-.74 1.63-.494.387-1.19.58-2.09.58h-3.32v-7Zm3.23 5.8c.413 0 .73-.08.95-.24.22-.167.33-.407.33-.72 0-.613-.427-.92-1.28-.92h-1.62v1.88h1.62Zm9.572-.1V50h-5.42v-7h5.29v1.3h-3.68v1.52h3.25v1.26h-3.25v1.62h3.81Z" fill="#0A0070"/><path d="M52.186 33.992c-.196-1.225-.464-2.37-1.163-3.278-.968-1.259-1.821 2.548-1.938 3.278-.252 1.574-.073 2.951.405 3.02.203.028.407-.205.563-.614.117.587.334.962.583.962.25 0 .466-.374.583-.962.156.408.36.642.563.614.477-.068.656-1.446.404-3.02Z" fill="#9B4F1C"/><path d="M50.636 37.433c-.252 0-.467-.295-.603-.818-.16.331-.352.497-.552.468-.108-.015-.203-.084-.285-.203-.31-.457-.38-1.622-.176-2.9.005-.033.598-3.316 1.492-3.576.196-.056.385.032.563.263.679.882.961 1.962 1.177 3.313.205 1.278.134 2.444-.177 2.9-.08.12-.177.188-.285.203-.199.028-.391-.137-.551-.468-.136.522-.35.818-.603.818Zm0-.145c.205 0 .408-.355.518-.905l.046-.227.081.215c.145.38.329.592.492.57.07-.01.136-.06.195-.146.285-.42.348-1.567.153-2.79-.213-1.327-.49-2.388-1.149-3.245-.144-.186-.283-.256-.425-.215-.667.193-1.265 2.639-1.396 3.46-.196 1.223-.133 2.37.152 2.79.06.087.125.136.196.146.163.023.347-.19.492-.57l.081-.215.046.227c.109.55.312.905.518.905Z" fill="#281400"/><path d="M51.964 33.486c-.168-1.05-.398-2.03-.996-2.808-.83-1.078-1.56 2.182-1.66 2.808-.216 1.348-.063 2.529.346 2.586.173.025.348-.175.482-.525.1.503.286.824.5.824.213 0 .399-.32.5-.824.133.35.308.55.481.525.41-.057.563-1.238.347-2.586Z" fill="#7A421C"/><path d="M50.636 36.444c-.217 0-.402-.247-.52-.684-.137.273-.3.408-.471.384-.095-.013-.18-.073-.25-.178-.268-.393-.33-1.395-.154-2.492.004-.028.514-2.847 1.286-3.07.171-.05.336.026.491.227.583.758.826 1.684 1.011 2.843.176 1.098.114 2.1-.153 2.493-.072.104-.156.164-.25.178-.17.024-.335-.111-.472-.385-.117.437-.302.684-.519.684Zm0-.145c.17 0 .341-.301.434-.767l.045-.227.082.215c.122.32.277.5.411.481.058-.008.112-.048.16-.12.244-.358.297-1.337.13-2.382-.181-1.136-.418-2.043-.982-2.775-.12-.157-.236-.216-.354-.181-.566.164-1.077 2.254-1.19 2.956-.166 1.044-.113 2.024.13 2.382.049.072.103.112.16.12.136.02.29-.16.412-.481l.081-.215.046.227c.093.466.264.767.434.767Z" fill="#281400"/><path d="M51.69 32.863c-.133-.834-.315-1.612-.79-2.23-.66-.856-1.24 1.733-1.32 2.23-.17 1.07-.05 2.008.276 2.054.137.02.276-.14.383-.417.08.4.227.655.397.655s.317-.255.397-.655c.105.278.244.437.382.417.325-.046.447-.983.276-2.054Z" fill="#60300F"/><path d="M50.635 35.226c-.172 0-.32-.187-.416-.52-.108.202-.237.302-.372.283-.079-.011-.15-.061-.208-.148-.214-.315-.264-1.115-.124-1.99.003-.023.41-2.271 1.03-2.45.142-.041.279.02.405.185.465.604.659 1.342.806 2.265.14.875.09 1.675-.124 1.99-.06.087-.129.137-.209.148-.135.019-.263-.08-.372-.283-.096.333-.243.52-.416.52Zm-.377-.969.046.227c.072.363.202.598.332.598.129 0 .259-.235.331-.598l.046-.227.081.215c.093.244.212.388.313.374.041-.006.081-.036.118-.09.19-.28.232-1.054.1-1.88-.144-.9-.331-1.618-.777-2.197-.091-.12-.18-.164-.267-.139-.419.122-.832 1.699-.934 2.336-.132.826-.091 1.6.1 1.88.036.054.076.084.118.09.1.014.22-.13.312-.374l.081-.215Z" fill="#281400"/><path d="M47.922 40.284a.684.684 0 0 1-.32-.568l-.002-.188a.507.507 0 0 1-.078.007c-.278 0-.516-.212-.619-.515-.123.185-.307.302-.514.302a.51.51 0 0 1-.088-.008l-.082.439a.69.69 0 0 1-.373.49c-1.36.677-2.712 1.803-2.112 1.953.645.162 1.856-1.372 2.099-.95.174.306-.727 2.484 0 2.323.726-.162.645-2.1 1.453-2.261.807-.161 2.341 1.938 2.422.969.06-.737-1.186-1.615-1.786-1.993Z" fill="#9B4F1C"/><path d="M45.76 43.65a.236.236 0 0 1-.185-.08c-.195-.22-.056-.838.08-1.437.076-.339.171-.76.12-.848a.072.072 0 0 0-.047-.038c-.136-.03-.44.199-.735.42-.43.323-.918.688-1.274.6-.151-.038-.19-.13-.197-.199-.04-.421 1.178-1.334 2.296-1.89a.622.622 0 0 0 .336-.439l.095-.506.063.01a.454.454 0 0 0 .077.008c.177 0 .345-.1.46-.273l.074-.11.043.127c.097.284.315.468.556.468a.53.53 0 0 0 .07-.006l.074-.01.004.268c.003.207.11.397.286.507.706.445 1.882 1.303 1.819 2.062-.013.156-.064.257-.151.3-.21.103-.555-.166-.993-.507-.46-.36-.983-.768-1.333-.697-.377.075-.551.61-.72 1.127-.168.515-.342 1.046-.731 1.133a.463.463 0 0 1-.087.01Zm-.057-2.55a.205.205 0 0 1 .186.108c.076.133.013.436-.105.96-.108.48-.257 1.14-.113 1.301.011.013.046.052.148.029.316-.07.47-.541.633-1.04.181-.555.369-1.13.822-1.22.404-.082.952.345 1.435.721.354.276.72.561.859.493.04-.02.065-.081.073-.182.059-.703-1.206-1.58-1.753-1.923a.753.753 0 0 1-.352-.63l-.002-.11h-.012c-.264 0-.504-.174-.636-.452a.664.664 0 0 1-.497.24l-.034-.002-.07.374a.766.766 0 0 1-.41.541c-1.227.61-2.246 1.47-2.22 1.745.001.013.004.05.094.073.3.075.761-.271 1.168-.578.33-.248.597-.448.786-.448Z" fill="#281400"/><path d="M55.428 40.243a.689.689 0 0 1-.374-.49l-.081-.438a.516.516 0 0 1-.088.008c-.207 0-.391-.118-.515-.303-.102.302-.34.515-.618.515a.512.512 0 0 1-.078-.007l-.003.188a.683.683 0 0 1-.32.568c-.6.378-1.846 1.255-1.785 1.992.08.97 1.615-1.13 2.422-.969.807.162.727 2.1 1.453 2.261.727.162-.175-2.016 0-2.322.243-.423 1.453 1.111 2.1.95.6-.15-.753-1.277-2.113-1.953Z" fill="#9B4F1C"/><path d="M55.513 43.65a.413.413 0 0 1-.085-.01c-.39-.087-.564-.619-.731-1.133-.17-.518-.344-1.053-.721-1.128-.349-.07-.872.338-1.333.697-.437.341-.783.61-.992.507-.087-.043-.138-.144-.151-.3-.063-.758 1.112-1.617 1.818-2.061.177-.11.283-.3.286-.507l.005-.27.074.012a.456.456 0 0 0 .07.005c.24 0 .459-.183.555-.468l.043-.127.074.11c.115.174.283.273.46.273.024 0 .05-.002.078-.007l.063-.01.094.506c.035.187.161.35.336.438 1.118.556 2.337 1.47 2.297 1.89-.007.07-.047.162-.197.2-.357.088-.844-.278-1.274-.6-.295-.222-.6-.45-.735-.42a.069.069 0 0 0-.048.037c-.05.089.045.51.12.849.136.598.276 1.217.08 1.436a.24.24 0 0 1-.186.08Zm-1.617-2.423c.035 0 .07.003.104.01.453.09.64.665.822 1.221.163.499.316.97.633 1.04.102.022.136-.017.147-.03.144-.16-.004-.82-.113-1.301-.118-.523-.18-.826-.104-.959a.203.203 0 0 1 .134-.103c.191-.042.477.172.838.443.407.305.869.652 1.168.577.09-.022.093-.06.095-.072.026-.276-.993-1.135-2.22-1.745a.765.765 0 0 1-.41-.541l-.07-.374-.035.001a.663.663 0 0 1-.497-.24c-.134.283-.377.456-.648.452l-.002.111a.754.754 0 0 1-.352.63c-.547.343-1.812 1.22-1.753 1.923.008.1.033.161.073.181.14.069.505-.216.86-.492.441-.345.938-.732 1.33-.732Z" fill="#281400"/><path d="M50 32.755c-2.825-.309-5.252-2.663-6.573-6.036-1.628 3.787.19 9.086 1.223 10.955.072.13.1.278.091.427a.979.979 0 0 0-.002.054c0 .411.263.744.589.744.16 0 .305-.082.411-.213.068.331.289.584.562.63a.515.515 0 0 0 .088.007c.207 0 .391-.117.514-.303.103.303.341.515.619.515a.512.512 0 0 0 .078-.006c.25-.037.458-.246.547-.532a.478.478 0 0 0 .366.184c.294 0 .532-.3.532-.672v-.001a.42.42 0 0 1 .053-.213c.806-1.39.906-5.505.906-5.505L50 32.755Z" fill="#E8B17E"/><path d="M49.953 32.806c-.178-.02-.346-.037-.525-.07l-.278-.07-.139-.034-.07-.018-.067-.024-.272-.093c-.091-.032-.182-.061-.27-.103l-.264-.116-.132-.059-.127-.069a7.85 7.85 0 0 1-1.877-1.384 10.315 10.315 0 0 1-1.482-1.862 13.09 13.09 0 0 1-1.084-2.158l.122.003c-.417 1.02-.59 2.137-.605 3.248-.011 1.113.12 2.227.354 3.314.239 1.085.557 2.154.975 3.174.105.254.212.508.33.755l.091.184.094.182c.076.133.115.3.11.457-.002.044-.004.071-.004.103.001.03.002.062.006.093.006.061.02.122.04.18.04.115.112.218.203.287a.412.412 0 0 0 .314.084.482.482 0 0 0 .293-.172l.088-.098.027.13a.866.866 0 0 0 .153.345.598.598 0 0 0 .285.21.476.476 0 0 0 .338-.015.631.631 0 0 0 .27-.233l.073-.11.044.128c.044.13.12.25.218.336a.508.508 0 0 0 .346.131.517.517 0 0 0 .342-.145.777.777 0 0 0 .21-.342l.001-.001.04-.117.073.092c.08.102.197.17.32.17a.426.426 0 0 0 .33-.167.708.708 0 0 0 .15-.383l.004-.053c0-.018 0-.041.003-.061a.474.474 0 0 1 .056-.18l.027-.049.052-.096a4.88 4.88 0 0 0 .303-.84c.08-.29.142-.585.195-.883.105-.595.178-1.198.235-1.801.054-.604.084-1.212.067-1.818v.01c0 .002.006.009.014.008Zm.093-.103c.011.022.02.051.022.078v.01l-.154 1.819c-.053.605-.123 1.209-.225 1.807a12.43 12.43 0 0 1-.186.892 4.947 4.947 0 0 1-.293.861l-.052.102-.026.05a.363.363 0 0 0-.042.142c-.002.018-.001.033-.002.053l-.001.06a.82.82 0 0 1-.163.447.537.537 0 0 1-.406.22.539.539 0 0 1-.421-.2l.113-.025v.002a.927.927 0 0 1-.252.406.65.65 0 0 1-.425.18.637.637 0 0 1-.432-.163.918.918 0 0 1-.26-.4l.117.019a.762.762 0 0 1-.33.283.602.602 0 0 1-.425.018.73.73 0 0 1-.35-.256c-.089-.119-.148-.26-.18-.407l.116.032a.62.62 0 0 1-.37.239.558.558 0 0 1-.428-.098.792.792 0 0 1-.276-.362.924.924 0 0 1-.069-.343c-.001-.04.002-.082.002-.11a.66.66 0 0 0-.09-.344l-.101-.184-.096-.186c-.125-.25-.241-.504-.35-.762a18.107 18.107 0 0 1-.998-3.216c-.23-1.104-.366-2.237-.334-3.374.03-1.133.229-2.277.688-3.304l.06-.154.062.155c.294.746.65 1.463 1.071 2.133.421.67.908 1.292 1.461 1.837a7.706 7.706 0 0 0 1.845 1.36l.125.067.13.058.258.114c.086.041.175.07.264.1l.266.092.067.023.068.017.136.034.273.068c.093.02.198.033.296.053l.297.057Z" fill="#281400"/><path d="M57.846 26.718c-1.32 3.373-3.747 5.727-6.572 6.037l-.004.034s.1 4.116.905 5.506a.42.42 0 0 1 .053.213c0 .372.239.673.533.673a.48.48 0 0 0 .365-.184c.09.285.297.495.548.532a.495.495 0 0 0 .078.006c.277 0 .515-.212.618-.515.123.185.308.303.514.303a.51.51 0 0 0 .088-.008c.274-.045.495-.298.563-.629a.53.53 0 0 0 .411.212c.325 0 .589-.333.589-.743l-.002-.055a.782.782 0 0 1 .09-.426c1.034-1.869 2.852-7.169 1.223-10.956Z" fill="#E8B17E"/><path d="M57.847 26.79c-.06.187-.11.357-.178.522l-.026.063-.033.068-.066.137-.13.273c-.183.36-.376.713-.591 1.05-.426.678-.92 1.31-1.481 1.863a7.842 7.842 0 0 1-1.877 1.383 6.238 6.238 0 0 1-2.185.676l.06-.063-.004.035v-.01c.02.603.06 1.21.115 1.812.056.602.128 1.203.232 1.797.052.296.111.591.187.88.076.289.166.573.291.837l.05.096.026.048a.501.501 0 0 1 .059.193c.002.021.002.046.003.064l.002.052c.01.136.057.27.139.372.08.102.196.168.316.169a.41.41 0 0 0 .32-.16h.001l.078-.088.035.113a.783.783 0 0 0 .21.343c.096.09.217.144.342.146a.505.505 0 0 0 .347-.131.77.77 0 0 0 .218-.336l.044-.128.073.11c.07.104.163.188.27.233a.475.475 0 0 0 .337.015.596.596 0 0 0 .285-.208.87.87 0 0 0 .153-.345v-.002l.03-.127.086.095c.081.09.184.153.293.17a.42.42 0 0 0 .316-.078.62.62 0 0 0 .214-.285.749.749 0 0 0 .047-.183c.005-.032.006-.064.007-.096s0-.062-.001-.103a.86.86 0 0 1 .113-.44l.098-.18.094-.183c.123-.246.237-.497.346-.751.43-1.02.768-2.086 1.005-3.179.12-.545.208-1.1.267-1.657.058-.558.088-1.119.073-1.679s-.07-1.119-.178-1.665a7.988 7.988 0 0 0-.205-.807c-.04-.133-.089-.262-.133-.392-.024-.065-.044-.108-.057-.163-.013-.052-.022-.112-.037-.176Zm-.002-.145c.036.066.078.135.116.211.037.074.073.159.094.226.042.134.09.267.127.402.075.272.139.547.188.825.101.555.15 1.12.158 1.684.02 1.13-.12 2.255-.349 3.353a20.62 20.62 0 0 1-.415 1.63 17.932 17.932 0 0 1-.55 1.583 14.65 14.65 0 0 1-.336.765l-.093.188-.096.185a.698.698 0 0 0-.088.363c.001.03.005.07.004.108a.954.954 0 0 1-.061.337.783.783 0 0 1-.265.364.559.559 0 0 1-.426.104.6.6 0 0 1-.37-.24l.116-.032v.002c-.031.147-.091.288-.181.406a.728.728 0 0 1-.35.255.598.598 0 0 1-.424-.02.765.765 0 0 1-.329-.282l.117-.018a.92.92 0 0 1-.26.4.635.635 0 0 1-.433.162.648.648 0 0 1-.426-.18.932.932 0 0 1-.25-.407l.112.026a.543.543 0 0 1-.422.209.548.548 0 0 1-.418-.218.843.843 0 0 1-.174-.457l-.003-.063c0-.02 0-.033-.002-.05a.343.343 0 0 0-.04-.128l-.027-.05-.054-.103a4.98 4.98 0 0 1-.305-.864 10.94 10.94 0 0 1-.194-.894c-.104-.6-.173-1.206-.227-1.812a31.5 31.5 0 0 1-.107-1.824v-.011l.005-.034.006-.058.053-.006a6.117 6.117 0 0 0 2.14-.663 7.714 7.714 0 0 0 1.845-1.36 10.187 10.187 0 0 0 1.46-1.836c.213-.333.404-.683.584-1.038l.13-.27.064-.135.033-.067.032-.076c.088-.205.195-.407.29-.591Z" fill="#281400"/><g opacity=".7"><path opacity=".7" d="M50 32.755a6.207 6.207 0 0 1-2.384-.786c.451.292 1.408 1.058 1.462 2.343.071 1.686.61 4.84-3.34 4.374.068.331.289.584.562.629a.516.516 0 0 0 .088.008c.207 0 .391-.118.515-.303.103.303.34.515.618.515a.512.512 0 0 0 .078-.006c.25-.037.458-.247.547-.532a.478.478 0 0 0 .366.184c.294 0 .532-.3.532-.672v-.001a.42.42 0 0 1 .054-.213c.805-1.39.905-5.506.905-5.506l-.004-.034Z" fill="#E8B17E"/><path opacity=".7" d="M45.327 38.898c.16 0 .306-.082.412-.213-.33-.039-.62-.062-.874-.073.107.173.274.286.462.286ZM47.383 31.83v.002a.36.36 0 0 0 0-.001Z" fill="#E8B17E"/></g><path opacity=".7" d="M52.704 33.561c1.4-1.165 2.815-2.697 3.877-3.08 1.061-.382 1.36.996.786 3.907a25.574 25.574 0 0 0-.384 2.56c1.028-2.28 2.314-6.856.863-10.23-1.321 3.373-3.748 5.726-6.573 6.037l-.004.034s.1 4.116.905 5.506c.001 0-.87-3.569.53-4.734Z" fill="#E8B17E"/><path opacity=".5" d="M47.922 40.284a.684.684 0 0 1-.32-.568l-.002-.188a.507.507 0 0 1-.078.007c-.278 0-.516-.213-.618-.515-.124.184-.308.302-.515.302a.51.51 0 0 1-.088-.008l-.081.439a.682.682 0 0 1-.197.363s.862-.519 1.711.4c.418.452.733 1.034.945 1.509.535.416.986.765 1.029.251.061-.736-1.186-1.614-1.786-1.992ZM53.988 41.308c.807.161.727 2.1 1.453 2.26.322.072.324-.315.243-.795-.943-.495-1.147-1.974-1.58-1.797-3.75 1.532-.424-.536-.07-.919.353-.383 1-.415 1-.415l-.062-.328a.515.515 0 0 1-.087.008c-.207 0-.392-.117-.515-.303-.103.303-.34.516-.618.516a.513.513 0 0 1-.078-.007l-.003.188a.682.682 0 0 1-.32.568c-.6.378-1.846 1.255-1.785 1.992.081.97 1.615-1.13 2.422-.968Z" fill="#9B4F1C"/><path d="M45.78 43.965c-.1-.008-.334-.977.154-.877.295.047-.252.87-.153.877Z" fill="#E8B17E"/><path d="M45.78 44h-.004c-.033-.005-.062-.041-.092-.115-.07-.17-.142-.564-.007-.748.04-.055.12-.115.263-.085a.125.125 0 0 1 .098.07c.062.127-.057.391-.152.603-.034.078-.077.172-.084.21a.037.037 0 0 1 .013.032c0 .019-.017.033-.034.033Zm.006-.072h.001Zm.081-.812c-.086 0-.143.046-.174.14-.062.19.004.492.059.617.014-.041.039-.099.075-.179.079-.177.198-.443.152-.538-.005-.012-.017-.027-.05-.033a.317.317 0 0 0-.062-.007Z" fill="#000"/><path d="M49.657 42.822c.003.01-.064-.21-.214-.394-.128-.192-.338-.347-.149-.418.18-.089.388.068.425.3.056.223-.06.521-.063.512Z" fill="#E8B17E"/><path d="M49.657 42.86a.034.034 0 0 1-.03-.021l-.001-.002-.002-.007a1.295 1.295 0 0 0-.206-.377c-.033-.05-.07-.095-.104-.138-.08-.098-.143-.175-.125-.25.01-.039.04-.068.095-.089a.276.276 0 0 1 .265.014.439.439 0 0 1 .203.314.935.935 0 0 1-.065.534.035.035 0 0 1-.03.021Zm-.256-.839a.204.204 0 0 0-.093.022c-.024.01-.05.023-.055.041-.009.037.055.115.11.184.037.044.075.09.108.14.078.096.148.225.186.317.029-.097.065-.267.03-.405a.367.367 0 0 0-.169-.266.233.233 0 0 0-.117-.033Z" fill="#000"/><path d="M43.494 42.416c-.007.007.002-.297.134-.465.117-.184.357-.234.471-.09.13.13-.108.18-.287.296-.192.1-.325.266-.318.259Z" fill="#E8B17E"/><path d="M43.494 42.45a.03.03 0 0 1-.013-.002.028.028 0 0 1-.01-.007v-.002a.037.037 0 0 1-.01-.024v-.003a.843.843 0 0 1 .142-.486.395.395 0 0 1 .3-.186.26.26 0 0 1 .223.095c.035.035.05.07.044.107-.01.07-.092.113-.196.165-.048.025-.098.05-.143.08-.163.084-.286.219-.308.247l-.005.006-.001.001a.033.033 0 0 1-.023.01Zm.426-.637h-.014a.332.332 0 0 0-.25.157.765.765 0 0 0-.125.353c.065-.065.167-.148.267-.2.045-.03.099-.056.146-.08.072-.037.154-.079.159-.112.001-.01-.008-.027-.026-.045a.195.195 0 0 0-.157-.073Z" fill="#000"/><path d="M55.493 43.965c.101-.008.335-.977-.154-.877-.294.047.253.87.154.877Z" fill="#E8B17E"/><path d="M55.493 44c-.018 0-.032-.015-.034-.034 0-.011.004-.022.012-.03a1.545 1.545 0 0 0-.084-.21c-.095-.212-.214-.477-.151-.604a.126.126 0 0 1 .098-.07c.142-.03.221.03.262.086.135.183.062.578-.007.748-.03.073-.06.11-.092.114h-.004Zm-.087-.884a.272.272 0 0 0-.06.007c-.035.006-.046.021-.052.033-.046.094.074.361.152.538.037.08.061.137.076.18.055-.126.12-.428.058-.618-.03-.093-.087-.14-.173-.14Z" fill="#000"/><path d="M51.617 42.822c-.003.01.064-.21.214-.394.128-.192.338-.347.149-.418-.18-.089-.388.068-.425.3-.057.223.059.521.062.512Z" fill="#E8B17E"/><path d="M51.617 42.86a.034.034 0 0 1-.03-.022l-.002-.004a.937.937 0 0 1-.063-.534.436.436 0 0 1 .202-.31.279.279 0 0 1 .269-.013c.051.02.082.049.092.088.018.075-.046.152-.125.25a1.885 1.885 0 0 0-.103.134 1.306 1.306 0 0 0-.208.38c0 .002 0 .005-.002.007v.002a.032.032 0 0 1-.03.021Zm.255-.839a.232.232 0 0 0-.116.033.365.365 0 0 0-.168.262c-.036.14 0 .311.029.409.038-.093.109-.223.188-.32.032-.047.069-.093.105-.137.056-.07.12-.147.11-.184-.003-.018-.03-.032-.052-.04a.223.223 0 0 0-.096-.023Z" fill="#000"/><path d="M57.78 42.416c.007.007-.002-.297-.134-.465-.117-.184-.357-.234-.472-.09-.13.13.11.18.288.296.192.1.324.266.317.259Z" fill="#E8B17E"/><path d="M57.78 42.45a.033.033 0 0 1-.028-.016 1.084 1.084 0 0 0-.305-.245 1.656 1.656 0 0 0-.146-.08c-.104-.054-.186-.096-.197-.166-.005-.037.01-.073.047-.11a.257.257 0 0 1 .22-.092c.117.007.233.08.302.189a.839.839 0 0 1 .14.483v.003a.04.04 0 0 1-.009.024v.001a.028.028 0 0 1-.01.008.042.042 0 0 1-.014.002Zm-.426-.637a.192.192 0 0 0-.154.07c-.021.022-.03.038-.03.049.005.033.087.074.16.111.047.024.1.051.149.083.098.05.2.132.264.197a.755.755 0 0 0-.122-.35.332.332 0 0 0-.252-.16h-.015Z" fill="#000"/><path d="M56.19 13.004c-1.467 1.09-3.421 1.755-5.567 1.755-2.142 0-4.094-.663-5.56-1.75-.216.064-.429.13-.638.196a.61.61 0 0 1-.135.028c-1.201 2.069-1.925 4.733-1.925 7.64 0 2.125.386 4.119 1.062 5.846 1.32 3.373 3.748 5.727 6.573 6.037.21.023.422.034.636.034 4.568 0 8.27-5.335 8.27-11.916 0-2.907-.723-5.571-1.924-7.64a.586.586 0 0 1-.136-.028c-.215-.07-.434-.137-.656-.202Z" fill="#FFF9C5"/><path d="M56.2 13.075c-.094.071-.182.14-.283.207-.107.068-.211.14-.32.204a9.23 9.23 0 0 1-2.049.913c-.948.29-1.935.43-2.921.432a10.076 10.076 0 0 1-2.922-.43 8.86 8.86 0 0 1-2.68-1.333l.056.01-.385.118-.192.06c-.062.018-.134.044-.21.048l.052-.033c-.255.425-.482.87-.686 1.329-.05.115-.1.229-.148.345l-.139.35c-.045.118-.084.238-.126.357a6.86 6.86 0 0 0-.118.36c-.078.24-.143.484-.21.727-.06.247-.124.491-.172.74-.055.248-.096.499-.139.749-.034.252-.074.503-.097.756-.03.252-.047.506-.066.76-.01.127-.012.254-.017.38l-.008.191-.002.19c-.01.51.006 1.018.044 1.525l.034.38.043.377.054.377.062.375a14.868 14.868 0 0 0 1.462 4.238c.057.11.12.215.175.325.057.11.11.221.169.33.06.106.123.212.186.317l.095.158c.032.053.068.102.102.153l.206.303.052.076.055.072.111.145c.075.095.146.195.224.288l.238.274a7.839 7.839 0 0 0 2.224 1.772c.42.209.854.393 1.307.5.223.067.454.096.682.136.23.036.462.048.693.051.464 0 .928-.052 1.383-.16l.17-.041.084-.021.084-.027c.111-.037.224-.07.334-.109l.328-.13c.109-.045.214-.101.32-.151.423-.213.826-.47 1.207-.763.378-.297.731-.63 1.062-.989.333-.356.629-.75.907-1.159.28-.406.52-.843.745-1.287l.163-.337.148-.345c.052-.114.097-.23.141-.348.044-.117.092-.233.134-.352.08-.237.166-.473.235-.716.076-.239.136-.484.2-.727.473-1.96.605-4.01.392-6.02-.023-.252-.063-.501-.096-.751-.043-.25-.082-.498-.134-.745-.046-.248-.106-.492-.162-.738-.065-.243-.126-.487-.201-.727a14.344 14.344 0 0 0-1.153-2.764l.052.033c-.077-.005-.152-.031-.212-.05l-.188-.058-.378-.12Zm-.022-.143.414.12.206.063c.073.022.129.042.19.046l.032.002.019.031c.26.43.492.88.702 1.341.212.46.389.94.546 1.425.08.242.148.49.218.735.062.248.128.496.178.748.058.25.097.504.143.756.036.255.078.508.103.765.12 1.021.14 2.056.07 3.083a15.92 15.92 0 0 1-.512 3.032c-.07.246-.138.493-.22.733-.076.244-.167.482-.255.72-.044.12-.095.236-.143.354a6.328 6.328 0 0 1-.15.349l-.159.345-.17.338a11.738 11.738 0 0 1-1.683 2.475c-.333.366-.69.709-1.073 1.014a7.69 7.69 0 0 1-1.227.79c-.859.45-1.813.687-2.77.702-.24.001-.48-.008-.718-.04-.238-.035-.477-.06-.71-.125-.472-.1-.925-.282-1.365-.49a8.078 8.078 0 0 1-2.34-1.787l-.252-.278c-.082-.095-.158-.195-.237-.293l-.117-.147-.06-.074-.054-.077-.219-.309c-.035-.052-.074-.102-.108-.155l-.1-.162a24.065 24.065 0 0 0-.206-.319c-.07-.106-.13-.218-.195-.328-.062-.11-.127-.22-.18-.337l-.158-.349-.079-.175c-.026-.058-.048-.118-.072-.178-.093-.238-.193-.474-.274-.717a14.816 14.816 0 0 1-.42-1.479c-.451-2-.573-4.075-.342-6.108.23-2.03.82-4.02 1.802-5.78l.016-.03.035-.003h.001c.058-.004.115-.023.181-.044l.193-.06.386-.117.03-.01.025.02a8.727 8.727 0 0 0 2.64 1.312 9.932 9.932 0 0 0 2.886.424 9.927 9.927 0 0 0 2.886-.427 9.031 9.031 0 0 0 2.02-.9c.106-.063.208-.134.313-.2.108-.07.223-.152.334-.225Z" fill="#281400"/><path opacity=".5" d="M56.19 13.004c-1.467 1.09-3.421 1.755-5.567 1.755-2.142 0-4.094-.663-5.56-1.75-.216.064-.429.13-.638.196a.574.574 0 0 1-.134.027 13.744 13.744 0 0 0-1.359 3.296c.057.425.288.83.685 1.191a.814.814 0 0 1 .237.856 1.04 1.04 0 0 0-.02.083c-.12.578.276 1.117 1.083 1.546.448.24.642.663.536 1.106a.856.856 0 0 0-.013.066c-.084.552.493 1.047 1.512 1.39 1.07.36 1.965.966 2.609 1.741.516.627 1.836.608 2.31-.033.576-.77 1.423-1.372 2.451-1.732.978-.341 1.527-.827 1.446-1.366a.615.615 0 0 0-.013-.066c-.106-.442.088-.865.536-1.105.534-.284.887-.617 1.032-.976 0 0 1.072-1.332 1.173 0 .102 1.333-1.668 13.436-9.595 11.674-2.313-.514-3.913-1.714-5.02-3.156 1.383 2.816 3.591 4.73 6.118 5.007.21.024.423.035.637.035 4.567 0 8.27-5.335 8.27-11.916a16.53 16.53 0 0 0-.614-4.509v-.002l-.014-.049a11.213 11.213 0 0 0-.16-.518 9.983 9.983 0 0 0-.112-.33l-.06-.165a9.067 9.067 0 0 0-.06-.159c-.02-.056-.043-.113-.065-.169l-.04-.102h-.001a12.873 12.873 0 0 0-.802-1.638.614.614 0 0 1-.133-.028 29.578 29.578 0 0 0-.655-.2Z" fill="#E8B17E"/><path opacity=".5" d="m43.311 21.158.317.31h-.051l.314-.31-.263.363a.031.031 0 0 1-.052 0l-.265-.363ZM45.788 23.472a3.493 3.493 0 0 1 .31.36l-.056.002c.052-.083.107-.163.164-.243.058-.079.117-.156.183-.227-.04.092-.087.179-.135.264-.05.085-.1.168-.155.25h-.001a.033.033 0 0 1-.048.008 2.996 2.996 0 0 1-.262-.414ZM44.018 25.464c.057.06.108.125.157.191.048.066.094.135.138.205l-.054-.005c.101-.112.206-.22.325-.314-.08.134-.176.252-.275.367a.033.033 0 0 1-.053-.004 3.568 3.568 0 0 1-.128-.214 2.006 2.006 0 0 1-.11-.226ZM48.477 26c.14.138.263.29.381.448l-.06.01c.072-.183.149-.363.245-.534-.045.194-.11.38-.18.563-.007.02-.028.029-.046.02a.032.032 0 0 1-.014-.01 4.219 4.219 0 0 1-.326-.497ZM46 28.222c.035.032.068.069.102.103a4.08 4.08 0 0 1 .279.333l-.056.002a3.7 3.7 0 0 1 .323-.438c-.076.17-.169.327-.266.482a.034.034 0 0 1-.056.002 5.25 5.25 0 0 1-.252-.357c-.024-.042-.051-.083-.074-.127ZM50.636 28.241c.059.06.113.124.164.19.051.066.1.135.147.205l-.058.003c.078-.139.16-.274.26-.398a2.931 2.931 0 0 1-.2.437c-.01.018-.03.024-.047.013a.035.035 0 0 1-.01-.01 3.892 3.892 0 0 1-.137-.213 2.1 2.1 0 0 1-.12-.227ZM52.52 24.506c.088.13.163.266.234.405h-.06c.09-.205.19-.408.313-.596-.066.22-.156.426-.253.63-.009.018-.03.025-.046.016a.037.037 0 0 1-.014-.016 3.787 3.787 0 0 1-.174-.439ZM53.856 26.843c.095.112.17.237.243.364l-.056-.006c.091-.107.187-.21.299-.296a2.24 2.24 0 0 1-.247.347.033.033 0 0 1-.05.003 2.35 2.35 0 0 1-.189-.412ZM48.477 30.336c.085.096.163.197.238.302.075.104.145.212.213.321l-.055.003c.074-.126.153-.248.24-.365a3.966 3.966 0 0 1-.184.401.03.03 0 0 1-.053.004L48.875 31a6.064 6.064 0 0 1-.211-.323 3.957 3.957 0 0 1-.187-.341ZM52.062 31.116c.143.085.273.187.4.294l-.052.01c.044-.077.089-.153.137-.226.047-.074.097-.147.154-.215-.031.085-.068.166-.107.246-.038.08-.08.158-.123.235a.034.034 0 0 1-.048.013l-.004-.003a3.113 3.113 0 0 1-.357-.354ZM55.838 28.758c.043.06.081.124.117.189.036.064.069.13.1.197l-.059-.006c.048-.068.098-.134.15-.197.051-.064.106-.126.166-.183-.035.078-.077.15-.121.22-.044.071-.09.14-.139.207a.033.033 0 0 1-.05.006.038.038 0 0 1-.009-.013 3.119 3.119 0 0 1-.155-.42ZM55.949 23.855c.037.033.07.069.106.103a5.134 5.134 0 0 1 .29.333l-.055.002c.108-.153.22-.302.349-.438a4.06 4.06 0 0 1-.293.484.034.034 0 0 1-.049.008 5.678 5.678 0 0 1-.269-.364c-.026-.043-.054-.083-.079-.128ZM57.648 20.194c-.08.23-.182.449-.29.664-.01.018-.03.025-.047.015a.035.035 0 0 1-.012-.011 4.925 4.925 0 0 1-.309-.51c.133.146.251.304.365.465l-.059.005a5.48 5.48 0 0 1 .352-.628ZM43.546 30.46c.132.149.245.31.356.473.055.082.108.165.16.25.053.082.1.17.15.255l-.118.006c.058-.113.117-.225.18-.335.064-.11.13-.218.205-.322a4.173 4.173 0 0 1-.12.369c-.044.12-.093.237-.143.354-.016.036-.055.052-.089.035a.067.067 0 0 1-.027-.025l-.002-.003c-.051-.084-.105-.167-.154-.253a6.265 6.265 0 0 1-.398-.803ZM46.648 33.91c.1.115.187.237.27.362a7.329 7.329 0 0 1 .238.383l-.118-.003c.041-.066.084-.13.127-.194.044-.063.086-.128.133-.19a5.41 5.41 0 0 1 .14-.183c.05-.06.1-.119.154-.175-.028.076-.062.146-.095.218-.035.07-.07.14-.107.209-.036.069-.077.135-.114.203-.04.067-.08.133-.122.198a.067.067 0 0 1-.098.02.077.077 0 0 1-.02-.023 6.04 6.04 0 0 1-.109-.199c-.034-.067-.07-.133-.102-.202a4.032 4.032 0 0 1-.177-.424ZM44.729 36.339c.12.086.233.183.341.283.055.05.107.102.16.154.052.051.103.105.154.16l-.116.026c.026-.074.053-.147.081-.22.03-.073.057-.146.09-.218a5.55 5.55 0 0 1 .098-.214c.035-.07.07-.14.11-.208-.01.08-.028.158-.045.236a5.292 5.292 0 0 1-.059.23c-.02.076-.045.15-.067.226-.024.074-.05.15-.076.223-.014.04-.054.059-.09.044a.069.069 0 0 1-.025-.018c-.05-.054-.1-.109-.148-.166-.048-.057-.097-.112-.143-.171a3.457 3.457 0 0 1-.265-.367ZM53.007 36.947c.066.064.127.134.188.203a8.53 8.53 0 0 1 .507.658l-.117.01c.039-.075.076-.151.117-.225a6.15 6.15 0 0 1 .397-.647 4.98 4.98 0 0 1-.18.482c-.032.078-.067.156-.102.233-.034.078-.072.153-.109.229-.017.037-.059.051-.093.033a.07.07 0 0 1-.023-.021l-.001-.002a8.668 8.668 0 0 1-.453-.703 3.83 3.83 0 0 1-.131-.25ZM52.763 33.302c.059.062.113.128.167.194a8.82 8.82 0 0 1 .452.62l-.108-.007c.062-.08.129-.156.194-.233.065-.077.133-.152.2-.226a5.61 5.61 0 0 1 .43-.426 5.807 5.807 0 0 1-.343.51 9.281 9.281 0 0 1-.185.24c-.064.08-.127.16-.193.235l-.001.002a.066.066 0 0 1-.107-.008 8.881 8.881 0 0 1-.267-.44c-.043-.074-.083-.15-.124-.226a4.434 4.434 0 0 1-.115-.235ZM57.32 33.041c-.058.136-.122.268-.187.399a12.685 12.685 0 0 1-.415.767c-.071.126-.148.25-.222.373l-.001.003c-.02.033-.061.043-.092.022a.07.07 0 0 1-.027-.037 17.8 17.8 0 0 1-.163-.524 8.619 8.619 0 0 1-.138-.534c.082.163.155.33.226.498.07.168.136.337.2.508l-.12-.013c.073-.126.143-.253.219-.376a12.283 12.283 0 0 1 .72-1.086Z" fill="#E8B17E"/><path opacity=".7" d="M45.953 30.695c-1.037-1.029-1.904-2.39-2.525-3.977-1.09 2.536-.635 5.752.095 8.16-.07-1.589-.133-3.982.079-4.768.325-1.214 2.351.585 2.351.585Z" fill="#E8B17E"/><path d="M58.816 2.289c.24-.234.595-.664.787-.9.04-.05-.01-.12-.07-.101-.175.054-.42.131-.547.172-.19.06-.376.12-.56.177a40.885 40.885 0 0 1-1.284.37 5.816 5.816 0 0 1-3.364-.12 9.815 9.815 0 0 0-2.54-.489c-.136-.15.072-.443.242-.635.06-.067.003-.183-.076-.157-.327.108-.55.462-.645.643a.18.18 0 0 1-.165.103c-.077-.003-.135-.082-.129-.173.048-.683-.307-.979-.576-1.104-.05-.023-.09.05-.053.095.353.437.018 1.193.018 1.193l-.016.048c-.839.064-1.642.23-2.388.483a5.698 5.698 0 0 1-3.309.122l-.135-.037c-.333-.09-.69-.195-1.161-.338a199.283 199.283 0 0 0-1.107-.35c-.06-.02-.11.051-.07.1.193.236.548.664.788.898.105.102.214.204.328.305.04.036.006.103-.047.09a35.175 35.175 0 0 0-.634-.148c-.046-.01-.075.048-.041.08a12.566 12.566 0 0 0 1.453 1.146.523.523 0 0 1 .12.756l-.003.005c-.795 1.029-1.254 2.245-1.254 3.548 0 3.694 3.692 6.69 8.246 6.69 4.553 0 8.245-2.996 8.245-6.69 0-1.298-.456-2.51-1.244-3.535l-.005-.007a.54.54 0 0 1 .14-.768 12.884 12.884 0 0 0 1.45-1.147c.034-.032.005-.09-.04-.08-.207.046-.417.096-.627.146-.053.012-.088-.054-.047-.09.11-.1.217-.2.32-.301Z" fill="#9B4F1C"/><path d="M58.758 2.218c.148-.143.29-.3.43-.459.07-.079.138-.16.206-.241l.101-.123.05-.06a.028.028 0 0 0-.004.014c0 .007.002.011.003.013.003.005.01.005.01.005l-.07.022-.146.045-.294.092-.587.183-1.184.34a5.836 5.836 0 0 1-3.055.035c-.2-.05-.4-.115-.592-.18a9.33 9.33 0 0 0-1.183-.294c-.4-.073-.803-.12-1.207-.14h-.002l-.029-.001-.014-.02c-.012-.015-.023-.03-.033-.046-.007-.018-.017-.035-.02-.054a.3.3 0 0 1-.008-.108.569.569 0 0 1 .055-.178c.052-.104.117-.193.185-.277l.052-.061c.01-.013.012-.014.013-.017.002-.003.002-.006.003-.01 0-.006-.002-.016-.007-.02-.004-.004-.002-.004-.006-.003h-.002l-.008.003-.016.006-.032.013-.062.031a.845.845 0 0 0-.117.08c-.15.123-.27.291-.368.47a.263.263 0 0 1-.151.135.192.192 0 0 1-.205-.049.242.242 0 0 1-.066-.155c-.002-.02 0-.04 0-.05.002-.052.006-.104.002-.155a1.02 1.02 0 0 0-.173-.564.88.88 0 0 0-.325-.28L49.87.146 49.862.14h.002a.02.02 0 0 0 .01 0c.016-.005.013-.01.014-.013l-.002-.006.024.035c.016.024.035.047.047.074l.038.08c.011.026.019.055.028.083.032.113.043.23.04.345-.011.23-.065.445-.15.655l.003-.007-.015.043v.004l-.014.043-.045.005a10.355 10.355 0 0 0-2.153.476l-.354.121a5.66 5.66 0 0 1-3.365.06l-.718-.21c-.239-.071-.478-.14-.715-.217l-.711-.226-.089-.028-.039-.013a.077.077 0 0 0 .054-.006.092.092 0 0 0 .043-.048.114.114 0 0 0-.01-.102c-.006-.007-.005-.005-.001 0l.015.018.03.037c.082.1.164.198.247.295.166.194.332.389.51.559l.276.257.026.025a.224.224 0 0 1 .017.284.196.196 0 0 1-.195.076l-.016-.003-.022-.006-.18-.042-.361-.084-.045-.01-.011-.003c-.008-.002.01.002.013.001a.095.095 0 0 0 .048-.011.111.111 0 0 0 .056-.096.125.125 0 0 0-.033-.09c-.006-.007.003.002.004.003l.14.127a11.691 11.691 0 0 0 .881.708l.306.219c.051.038.096.066.165.122a.69.69 0 0 1 .097.934l-.115.155c-.04.05-.074.103-.11.155a5.654 5.654 0 0 0-.477.827 5.388 5.388 0 0 0-.486 3.017c.069.513.211 1.014.416 1.484.203.472.475.908.786 1.307a7.504 7.504 0 0 0 2.283 1.917c.866.48 1.805.8 2.765.979.961.177 1.946.217 2.917.11a9.466 9.466 0 0 0 2.831-.754 7.95 7.95 0 0 0 2.453-1.682c.353-.36.67-.762.935-1.2.265-.44.473-.917.613-1.417a5.377 5.377 0 0 0-.054-3.084 5.882 5.882 0 0 0-.66-1.396c-.034-.055-.072-.106-.107-.16a3.026 3.026 0 0 0-.111-.156l-.057-.077-.03-.04-.032-.048a.613.613 0 0 1-.084-.223.657.657 0 0 1 .246-.624l.081-.06.077-.054c.204-.148.412-.288.61-.446.198-.155.393-.316.581-.485l.07-.064.036-.032.017-.016c.005-.004.002-.002 0 .002a.049.049 0 0 0-.008.012c-.018.049.02.079.044.074l-.083.02-.361.082-.185.042a.135.135 0 0 1-.114-.031.152.152 0 0 1-.028-.195c.012-.02.031-.036.032-.038l.035-.033.28-.259Zm.117.14-.282.265-.036.033c-.009.01-.002.004.001-.002a.054.054 0 0 0 .008-.024c.002-.035-.027-.049-.042-.045l.178-.042.363-.085.045-.01.023-.006.011-.002.018-.004a.131.131 0 0 1 .122.051.152.152 0 0 1 0 .185.25.25 0 0 1-.018.018l-.018.017-.036.033-.071.065c-.191.172-.389.337-.59.496-.199.16-.41.304-.615.454l-.078.056a2.04 2.04 0 0 0-.072.054.435.435 0 0 0-.168.422c.009.051.028.1.055.144l.022.033.029.039.059.08a3.5 3.5 0 0 1 .115.16c.037.055.077.108.11.165.29.444.526.93.692 1.445a5.623 5.623 0 0 1 .07 3.221 6.022 6.022 0 0 1-.633 1.48 6.9 6.9 0 0 1-.965 1.25 8.187 8.187 0 0 1-2.516 1.742 9.704 9.704 0 0 1-2.897.787c-.994.114-2 .079-2.987-.098a9.361 9.361 0 0 1-2.845-1.001 7.776 7.776 0 0 1-2.37-1.985 6.27 6.27 0 0 1-.827-1.37 5.906 5.906 0 0 1-.443-1.571 5.724 5.724 0 0 1 .51-3.202 5.894 5.894 0 0 1 .5-.871c.038-.055.074-.111.115-.163l.116-.158a.352.352 0 0 0-.053-.49c-.03-.025-.09-.067-.14-.104l-.313-.223a11.907 11.907 0 0 1-.904-.723l-.143-.13-.014-.013a.206.206 0 0 1-.06-.156.21.21 0 0 1 .105-.176.184.184 0 0 1 .093-.022c.012 0 .037.005.037.005l.012.002.045.01.363.085.182.042.023.006c.002 0 .012.003.007.001l-.018-.001a.096.096 0 0 0-.073.038.118.118 0 0 0 .008.149c.009.008.003.002 0 0l-.008-.01-.286-.265c-.192-.183-.362-.382-.532-.579l-.25-.3-.03-.037-.016-.019-.015-.02a.236.236 0 0 1-.025-.22.22.22 0 0 1 .107-.118.202.202 0 0 1 .144-.014l.05.015.089.028.71.225c.236.077.474.145.712.214l.712.207a5.68 5.68 0 0 0 2.866.075 5.38 5.38 0 0 0 .352-.09l.356-.109a8.794 8.794 0 0 1 1.47-.3c.248-.03.496-.05.744-.058l-.058.049.001-.004.015-.044v-.002l.002-.005c.076-.186.128-.395.137-.598a.979.979 0 0 0-.034-.296c-.008-.022-.014-.046-.023-.068l-.03-.065c-.01-.021-.026-.039-.038-.059l-.02-.03a.135.135 0 0 1-.03-.08c-.002-.058.029-.119.094-.135a.105.105 0 0 1 .067.008l.008.005.037.018a1.018 1.018 0 0 1 .373.321c.13.187.195.42.2.647.003.057 0 .113-.002.17 0 .016-.002.023 0 .03a.093.093 0 0 0 .025.06c.018.02.041.024.074.015a.125.125 0 0 0 .073-.068c.105-.192.233-.374.404-.513a.992.992 0 0 1 .135-.093c.024-.014.05-.025.074-.037l.038-.015.02-.008.01-.003.016-.004c.046-.012.1.011.129.047a.181.181 0 0 1 .022.197c-.01.021-.028.04-.034.046l-.049.059a1.369 1.369 0 0 0-.166.247.417.417 0 0 0-.04.128c-.005.04.002.068.022.091l-.044-.022h.001c.41.03.817.081 1.22.155.405.075.804.177 1.197.302.197.065.388.125.586.174a6.047 6.047 0 0 0 1.198.17 5.738 5.738 0 0 0 1.796-.223l1.178-.346.585-.187.293-.093.147-.047.077-.024a.136.136 0 0 1 .146.055.152.152 0 0 1-.004.18l-.05.063-.102.125-.205.247a9.232 9.232 0 0 1-.431.48Z" fill="#281400"/><path d="M59.747 8.954a.405.405 0 0 0 .114-.272.415.415 0 0 0-.107-.28.132.132 0 0 1-.01-.16.382.382 0 0 0 .065-.282.464.464 0 0 0-.156-.27.136.136 0 0 1-.036-.157.381.381 0 0 0 .015-.288.526.526 0 0 0-.2-.259.144.144 0 0 1-.06-.15.403.403 0 0 0-.035-.293.588.588 0 0 0-.241-.244.153.153 0 0 1-.08-.141.448.448 0 0 0-.082-.296.646.646 0 0 0-.275-.225.16.16 0 0 1-.094-.13.506.506 0 0 0-.127-.295.684.684 0 0 0-.297-.202.176.176 0 0 1-.11-.124.573.573 0 0 0-.164-.287.693.693 0 0 0-.484-.2c-.475-.001-.954-.02-1.427-.078-2.821-.37-4.469.823-5.321 1.956-.852-1.133-2.5-2.325-5.32-1.956-.474.058-.953.077-1.428.078a.693.693 0 0 0-.484.2.573.573 0 0 0-.165.287.175.175 0 0 1-.11.124.684.684 0 0 0-.297.202.506.506 0 0 0-.126.295.16.16 0 0 1-.094.13.652.652 0 0 0-.275.225.448.448 0 0 0-.083.296.152.152 0 0 1-.079.141.588.588 0 0 0-.241.244c-.05.1-.06.2-.035.292a.144.144 0 0 1-.06.151.526.526 0 0 0-.2.259.381.381 0 0 0 .015.288.136.136 0 0 1-.036.157.464.464 0 0 0-.156.27.383.383 0 0 0 .065.282c.033.05.03.114-.01.16a.417.417 0 0 0-.108.28.405.405 0 0 0 .115.272c.041.045.048.11.016.16a.389.389 0 0 0-.057.286.45.45 0 0 0 .16.26c.049.04.066.104.043.157a.386.386 0 0 0-.007.29.5.5 0 0 0 .204.245.145.145 0 0 1 .065.15.402.402 0 0 0 .041.29.557.557 0 0 0 .241.228.154.154 0 0 1 .085.142.438.438 0 0 0 .087.288.602.602 0 0 0 .271.208.16.16 0 0 1 .1.13c.009.1.05.197.128.285.08.09.184.151.296.184a.162.162 0 0 1 .11.117c.021.1.076.197.163.278a.64.64 0 0 0 .31.158.167.167 0 0 1 .12.108c.035.099.1.19.194.265.085.065.203.062.331.022.761-.242 1.573-.479 2.426-.62 1.86-.308 3.115-1.295 3.784-2.307.67 1.012 1.926 2 3.785 2.307.853.142 1.665.378 2.425.62.129.04.247.043.332-.022a.578.578 0 0 0 .194-.265.167.167 0 0 1 .12-.108.635.635 0 0 0 .31-.158.535.535 0 0 0 .163-.278.16.16 0 0 1 .11-.117.63.63 0 0 0 .296-.184.487.487 0 0 0 .128-.285.16.16 0 0 1 .1-.13.605.605 0 0 0 .271-.208.44.44 0 0 0 .087-.288.154.154 0 0 1 .085-.142.562.562 0 0 0 .24-.228.404.404 0 0 0 .042-.29.145.145 0 0 1 .065-.15.505.505 0 0 0 .204-.246.384.384 0 0 0-.007-.289.136.136 0 0 1 .042-.157.449.449 0 0 0 .161-.26.389.389 0 0 0-.057-.285.133.133 0 0 1 .017-.16Z" fill="#FFF9C5"/><path d="M44.259 13.306a.323.323 0 0 1-.203-.065.65.65 0 0 1-.218-.297.1.1 0 0 0-.07-.063.706.706 0 0 1-.34-.174.614.614 0 0 1-.186-.316.091.091 0 0 0-.062-.064.699.699 0 0 1-.327-.204.566.566 0 0 1-.146-.328c-.002-.028-.026-.058-.056-.07a.676.676 0 0 1-.302-.23.516.516 0 0 1-.1-.339c.002-.026-.018-.056-.047-.071a.626.626 0 0 1-.27-.257.483.483 0 0 1-.048-.344c.006-.024-.008-.053-.035-.071a.576.576 0 0 1-.231-.28.462.462 0 0 1 .009-.346c.01-.023 0-.051-.023-.07a.522.522 0 0 1-.185-.303.466.466 0 0 1 .067-.34.056.056 0 0 0-.008-.07.478.478 0 0 1-.134-.321.49.49 0 0 1 .125-.33c.018-.02.02-.047.006-.068a.46.46 0 0 1-.078-.337.538.538 0 0 1 .18-.313c.021-.02.028-.048.018-.07a.46.46 0 0 1-.018-.345.596.596 0 0 1 .227-.294c.025-.018.039-.047.032-.07a.48.48 0 0 1 .04-.348.66.66 0 0 1 .27-.273c.03-.017.045-.049.043-.07a.522.522 0 0 1 .095-.345.72.72 0 0 1 .303-.25.088.088 0 0 0 .053-.068.583.583 0 0 1 .144-.34.754.754 0 0 1 .325-.221.105.105 0 0 0 .065-.072.65.65 0 0 1 .186-.324.754.754 0 0 1 .528-.218c.545-.001.997-.027 1.42-.078 3.006-.393 4.614.998 5.328 1.914.715-.916 2.323-2.308 5.329-1.914.423.051.874.077 1.42.078.197 0 .385.077.528.218.095.093.16.206.185.324.007.031.034.06.066.072a.75.75 0 0 1 .325.222.584.584 0 0 1 .144.339c.001.023.02.054.053.068a.72.72 0 0 1 .303.25.526.526 0 0 1 .095.345c-.002.021.013.052.044.07.12.069.212.162.269.273.056.112.07.233.04.348-.007.023.007.052.032.07.11.079.189.18.227.294a.462.462 0 0 1-.018.345c-.01.022-.002.05.019.07.098.088.16.197.179.313a.459.459 0 0 1-.078.337.054.054 0 0 0 .006.068.49.49 0 0 1 .125.33.483.483 0 0 1-.134.321.056.056 0 0 0-.008.069c.066.106.09.224.067.34a.522.522 0 0 1-.185.303c-.023.02-.032.047-.023.07.048.112.05.231.01.346a.573.573 0 0 1-.232.28c-.026.018-.041.047-.035.072a.482.482 0 0 1-.049.344.632.632 0 0 1-.27.257c-.028.015-.048.045-.046.071a.516.516 0 0 1-.1.338.674.674 0 0 1-.302.231c-.03.012-.053.042-.056.07a.561.561 0 0 1-.146.328.699.699 0 0 1-.327.204.091.091 0 0 0-.062.063.61.61 0 0 1-.185.317.702.702 0 0 1-.34.173.099.099 0 0 0-.071.063.657.657 0 0 1-.218.298c-.094.073-.225.084-.388.032-.746-.236-1.554-.474-2.417-.617-1.593-.264-2.963-1.085-3.775-2.257-.812 1.172-2.181 1.993-3.774 2.257-.864.143-1.672.38-2.418.617a.61.61 0 0 1-.186.033Zm2.063-8.981a7.69 7.69 0 0 0-.999.067c-.429.053-.885.078-1.435.079a.627.627 0 0 0-.439.181.503.503 0 0 0-.145.25.244.244 0 0 1-.154.176.62.62 0 0 0-.268.182.438.438 0 0 0-.11.252.234.234 0 0 1-.134.192.588.588 0 0 0-.247.2.368.368 0 0 0-.07.246.226.226 0 0 1-.114.213.524.524 0 0 0-.214.214c-.04.08-.05.16-.029.238a.217.217 0 0 1-.087.231.455.455 0 0 0-.175.223.304.304 0 0 0 .012.232.213.213 0 0 1-.053.245.387.387 0 0 0-.133.227.305.305 0 0 0 .054.227.209.209 0 0 1-.015.252.338.338 0 0 0-.09.23.33.33 0 0 0 .096.221c.063.07.074.173.024.252a.313.313 0 0 0-.048.23.373.373 0 0 0 .137.218c.072.06.098.16.062.244a.308.308 0 0 0-.006.232c.03.082.09.154.176.21a.217.217 0 0 1 .096.231.325.325 0 0 0 .034.236c.044.081.117.15.212.2.079.04.128.126.122.212a.36.36 0 0 0 .073.238c.057.08.141.144.242.184a.23.23 0 0 1 .143.192.415.415 0 0 0 .11.24.57.57 0 0 0 .265.166c.077.022.14.09.157.17.02.088.068.171.142.24.077.072.174.12.278.141a.237.237 0 0 1 .171.154c.031.089.09.169.17.232.06.046.152.05.274.011.75-.237 1.564-.477 2.434-.621 1.594-.264 2.957-1.095 3.74-2.278l.055-.082.054.082c.783 1.184 2.147 2.014 3.74 2.278.87.144 1.685.383 2.435.621.122.039.214.035.273-.011a.507.507 0 0 0 .17-.232.237.237 0 0 1 .172-.154.57.57 0 0 0 .277-.141.465.465 0 0 0 .143-.24.233.233 0 0 1 .157-.17.564.564 0 0 0 .265-.165.415.415 0 0 0 .11-.24.232.232 0 0 1 .142-.192.54.54 0 0 0 .242-.185.364.364 0 0 0 .073-.238.226.226 0 0 1 .123-.213.49.49 0 0 0 .212-.199.326.326 0 0 0 .034-.236.218.218 0 0 1 .095-.23.434.434 0 0 0 .176-.21.308.308 0 0 0-.006-.233.212.212 0 0 1 .063-.244.375.375 0 0 0 .136-.218.31.31 0 0 0-.047-.23.209.209 0 0 1 .024-.252.328.328 0 0 0 .095-.222.34.34 0 0 0-.09-.229.209.209 0 0 1-.015-.252.304.304 0 0 0 .054-.226.392.392 0 0 0-.133-.228.212.212 0 0 1-.053-.245.306.306 0 0 0 .012-.232.459.459 0 0 0-.175-.222.218.218 0 0 1-.087-.231.328.328 0 0 0-.03-.239.524.524 0 0 0-.213-.214.225.225 0 0 1-.114-.212.37.37 0 0 0-.07-.246.583.583 0 0 0-.247-.2.232.232 0 0 1-.134-.193.435.435 0 0 0-.11-.251.622.622 0 0 0-.268-.182.244.244 0 0 1-.154-.176.503.503 0 0 0-.145-.25.627.627 0 0 0-.44-.182 11.782 11.782 0 0 1-1.434-.078c-3.018-.395-4.592 1.04-5.261 1.93l-.052.068-.052-.068c-.59-.787-1.887-1.998-4.26-1.998Z" fill="#281400"/><path d="M59.747 8.954a.405.405 0 0 0 .114-.272.415.415 0 0 0-.107-.28.132.132 0 0 1-.01-.16.382.382 0 0 0 .065-.282.465.465 0 0 0-.156-.27.136.136 0 0 1-.036-.157.381.381 0 0 0 .015-.288.526.526 0 0 0-.2-.259.144.144 0 0 1-.06-.15.403.403 0 0 0-.035-.293.59.59 0 0 0-.241-.244.152.152 0 0 1-.08-.141.448.448 0 0 0-.082-.296.646.646 0 0 0-.275-.225.16.16 0 0 1-.094-.13.506.506 0 0 0-.127-.295.684.684 0 0 0-.297-.202.176.176 0 0 1-.11-.124.573.573 0 0 0-.164-.287.693.693 0 0 0-.484-.2c-.475-.001-.954-.02-1.427-.078-2.821-.37-4.469.823-5.321 1.956-.852-1.133-2.5-2.325-5.32-1.956-.474.058-.953.077-1.428.078a.693.693 0 0 0-.484.2.573.573 0 0 0-.165.287.175.175 0 0 1-.11.124.684.684 0 0 0-.297.202.506.506 0 0 0-.126.295.16.16 0 0 1-.094.13.652.652 0 0 0-.275.225.448.448 0 0 0-.083.296.152.152 0 0 1-.079.141.588.588 0 0 0-.241.244c-.05.1-.06.2-.035.292a.144.144 0 0 1-.06.151.526.526 0 0 0-.2.259.381.381 0 0 0 .015.288.136.136 0 0 1-.036.157.464.464 0 0 0-.156.27.383.383 0 0 0 .065.282c.033.05.03.114-.01.16a.417.417 0 0 0-.108.28.405.405 0 0 0 .115.272c.041.045.048.11.016.16a.389.389 0 0 0-.057.286.45.45 0 0 0 .16.26c.049.04.066.104.043.157a.386.386 0 0 0-.007.29.5.5 0 0 0 .204.245.145.145 0 0 1 .065.15.402.402 0 0 0 .041.29.557.557 0 0 0 .241.228.154.154 0 0 1 .085.142.438.438 0 0 0 .087.288.602.602 0 0 0 .271.208.16.16 0 0 1 .1.13c.009.1.05.197.128.285.08.09.184.151.296.184a.162.162 0 0 1 .11.117c.021.1.076.197.163.278a.64.64 0 0 0 .31.158c.054.01.101.054.12.108.035.099.1.19.193.264h.001c.085.066.203.063.331.023.21-.066.423-.132.639-.196a14.922 14.922 0 0 1 1.787-.424c1.86-.308 3.115-1.295 3.784-2.307.67 1.012 1.926 2 3.785 2.307.612.102 1.203.252 1.768.418.223.066.442.133.657.202.129.04.247.043.332-.022a.579.579 0 0 0 .194-.264.167.167 0 0 1 .12-.109.635.635 0 0 0 .309-.157.535.535 0 0 0 .164-.278.16.16 0 0 1 .11-.117.63.63 0 0 0 .295-.185.488.488 0 0 0 .128-.284.16.16 0 0 1 .1-.13.605.605 0 0 0 .272-.208.44.44 0 0 0 .087-.289.154.154 0 0 1 .084-.142.563.563 0 0 0 .241-.227.404.404 0 0 0 .041-.29.145.145 0 0 1 .066-.151.505.505 0 0 0 .204-.245.384.384 0 0 0-.008-.29.136.136 0 0 1 .043-.156.448.448 0 0 0 .16-.26.388.388 0 0 0-.057-.286.135.135 0 0 1 .018-.16Z" fill="#FFF9C5"/><path d="M59.717 8.921a.384.384 0 0 0 .09-.163.323.323 0 0 0-.006-.184.375.375 0 0 0-.04-.083l-.029-.038-.016-.02a.193.193 0 0 1-.035-.18c.007-.024.024-.049.03-.058a.329.329 0 0 0-.032-.376.444.444 0 0 0-.062-.065l-.01-.008-.014-.013a.224.224 0 0 1-.056-.109.205.205 0 0 1 .014-.13.29.29 0 0 0 .022-.1.372.372 0 0 0-.145-.291.454.454 0 0 0-.035-.027.249.249 0 0 1-.113-.263l.006-.024.004-.038a.274.274 0 0 0-.007-.076.443.443 0 0 0-.197-.265l-.04-.025a.253.253 0 0 1-.123-.225v-.048a.341.341 0 0 0-.025-.117.515.515 0 0 0-.233-.25l-.04-.02a.258.258 0 0 1-.144-.194l-.003-.02V5.5l-.003-.021a.428.428 0 0 0-.04-.12.576.576 0 0 0-.297-.263l-.023-.009a.263.263 0 0 1-.15-.163l-.006-.02-.002-.012a.454.454 0 0 0-.05-.124.615.615 0 0 0-.535-.295h-.1a13.397 13.397 0 0 1-.802-.03c-.267-.017-.535-.053-.797-.078l-.197-.02c-.066-.007-.132-.006-.198-.01l-.198-.006c-.066-.002-.132-.007-.198-.003-.527 0-1.054.07-1.564.21-.51.139-1.001.359-1.447.661-.055.038-.111.075-.166.114l-.16.125-.079.063-.076.068-.151.136c-.196.19-.38.393-.546.613l-.005.005-.054.068-.05-.068a4.855 4.855 0 0 0-2.577-1.79 5.87 5.87 0 0 0-1.546-.217c-.13-.007-.26.001-.39.006l-.195.01c-.066.002-.13.013-.195.02l-.39.048a11.946 11.946 0 0 1-1.185.113l-.197.008a.61.61 0 0 0-.448.2.468.468 0 0 0-.099.173l-.005.018-.005.019-.008.023a.285.285 0 0 1-.181.17l-.042.012a.56.56 0 0 0-.227.126.425.425 0 0 0-.133.232l-.003.027a.23.23 0 0 1-.09.145c-.017.013-.04.023-.051.028a.637.637 0 0 0-.218.173.45.45 0 0 0-.084.165.352.352 0 0 0-.01.09v.058a.214.214 0 0 1-.108.169.517.517 0 0 0-.202.19.346.346 0 0 0-.052.263l.007.024a.185.185 0 0 1-.009.112.204.204 0 0 1-.036.06.265.265 0 0 1-.047.041.603.603 0 0 0-.07.061.424.424 0 0 0-.097.156.328.328 0 0 0-.002.221l.008.021.005.01.008.018a.194.194 0 0 1-.011.15.205.205 0 0 1-.043.058.552.552 0 0 0-.089.106.353.353 0 0 0-.052.17.313.313 0 0 0 .043.167l.027.044a.203.203 0 0 1-.022.224.382.382 0 0 0-.082.157.313.313 0 0 0 .046.247.386.386 0 0 0 .026.035l.015.017a.21.21 0 0 1 .027.258.313.313 0 0 0 .018.359.414.414 0 0 0 .059.064l.016.014a.235.235 0 0 1 .069.094.225.225 0 0 1 .009.13l-.007.02-.005.015a.304.304 0 0 0-.02.08.352.352 0 0 0 .13.297c.01.01.022.018.034.027l.042.03c.04.03.073.077.087.134.006.029.007.06.002.09l-.005.026c-.001.006-.003.013-.003.02a.276.276 0 0 0 .002.08.414.414 0 0 0 .193.27.585.585 0 0 0 .038.023.247.247 0 0 1 .146.237v.01l.001.04a.32.32 0 0 0 .019.08.474.474 0 0 0 .27.265l.022.01a.253.253 0 0 1 .147.206l.002.01a.372.372 0 0 0 .035.12.511.511 0 0 0 .29.247l.048.016a.249.249 0 0 1 .154.172.446.446 0 0 0 .047.123.534.534 0 0 0 .344.248l.024.006a.27.27 0 0 1 .15.11.233.233 0 0 1 .02.035l.01.029a.503.503 0 0 0 .155.208c.036.03.08.04.134.038a.406.406 0 0 0 .083-.012c.028-.006.057-.016.09-.025l.19-.059.38-.116c.508-.15 1.021-.283 1.542-.382.129-.026.262-.045.389-.07.128-.025.256-.048.382-.082.063-.016.127-.03.19-.047l.187-.056c.126-.034.247-.084.37-.127.244-.096.485-.201.715-.33.117-.06.228-.132.341-.2.056-.036.11-.075.165-.112l.082-.056.08-.06a4.81 4.81 0 0 0 .6-.53 4.55 4.55 0 0 0 .513-.629l.012-.016.056-.078.052.078c.15.224.32.431.503.624.09.098.188.186.285.277.101.085.2.173.305.25a5.571 5.571 0 0 0 1.725.889c.124.035.246.077.372.104l.187.045c.063.014.126.025.19.037l.189.035.193.033c.515.093 1.024.22 1.526.364l.376.113.188.056.094.027.047.014.042.012a.333.333 0 0 0 .15.007.133.133 0 0 0 .054-.026.457.457 0 0 0 .157-.214.274.274 0 0 1 .2-.185.534.534 0 0 0 .284-.16.43.43 0 0 0 .097-.172l.005-.02a.28.28 0 0 1 .126-.175.257.257 0 0 1 .057-.026l.012-.003a.522.522 0 0 0 .324-.286.315.315 0 0 0 .018-.075.27.27 0 0 1 .17-.225l.02-.008a.475.475 0 0 0 .2-.147.378.378 0 0 0 .072-.143.309.309 0 0 0 .01-.077v-.033a.243.243 0 0 1 .094-.182.295.295 0 0 1 .055-.034.452.452 0 0 0 .19-.168.311.311 0 0 0 .048-.24.215.215 0 0 1 .073-.211.262.262 0 0 1 .028-.021l.018-.012a.5.5 0 0 0 .07-.056.404.404 0 0 0 .096-.145.318.318 0 0 0 .006-.216l-.008-.02a.193.193 0 0 1 .064-.227.412.412 0 0 0 .09-.101.341.341 0 0 0 .018-.346c-.007-.015-.015-.023-.026-.048a.174.174 0 0 1 .032-.195Zm.06.065a.089.089 0 0 0-.024.061c0 .024.01.035.032.074a.44.44 0 0 1-.015.449.548.548 0 0 1-.109.127.126.126 0 0 0-.024.027.076.076 0 0 0-.006.07l.011.028a.459.459 0 0 1 .006.299.528.528 0 0 1-.12.2.661.661 0 0 1-.083.074l-.022.016-.012.01a.08.08 0 0 0-.016.022c-.008.017-.01.027-.005.045a.512.512 0 0 1-.054.364.626.626 0 0 1-.244.242.13.13 0 0 0-.028.019.082.082 0 0 0-.014.017.049.049 0 0 0-.006.017V11.156l.001.016a.518.518 0 0 1-.01.132.574.574 0 0 1-.104.228.68.68 0 0 1-.27.216l-.026.011-.011.006a.054.054 0 0 0-.014.012c-.008.01-.01.017-.01.025a.567.567 0 0 1-.026.13.64.64 0 0 1-.124.22.724.724 0 0 1-.338.217l-.011.003-.003.001a.05.05 0 0 0-.026.025v.004l-.009.032a.658.658 0 0 1-.155.271.739.739 0 0 1-.398.217.057.057 0 0 0-.03.018.056.056 0 0 0-.011.014l-.006.013-.012.03a.672.672 0 0 1-.224.28.326.326 0 0 1-.126.055.5.5 0 0 1-.234-.012l-.751-.234c-.498-.147-1-.277-1.507-.373l-.19-.034-.194-.038c-.065-.013-.13-.024-.193-.04l-.192-.048c-.129-.029-.254-.073-.38-.11a5.732 5.732 0 0 1-1.763-.927c-.109-.08-.21-.172-.312-.26-.1-.095-.2-.187-.291-.288-.188-.2-.361-.416-.514-.648h.108l-.012.017a4.718 4.718 0 0 1-.522.653c-.191.201-.395.387-.614.552l-.081.063-.084.059c-.056.038-.111.079-.168.116-.116.071-.23.146-.35.209a5.873 5.873 0 0 1-.731.34c-.127.044-.251.095-.38.131l-.192.058c-.065.018-.13.033-.194.049-.129.034-.26.059-.39.084-.132.026-.26.045-.388.07-.514.1-1.022.233-1.527.383l-.378.116-.19.059c-.06.019-.135.043-.212.045a.345.345 0 0 1-.237-.073.687.687 0 0 1-.21-.285l-.009-.02-.005-.01a.08.08 0 0 0-.038-.032c-.004-.002-.008-.004-.011-.004l-.024-.006a.703.703 0 0 1-.452-.329.599.599 0 0 1-.05-.113c-.007-.018-.013-.044-.017-.057a.062.062 0 0 0-.008-.018.076.076 0 0 0-.036-.03l-.047-.015a.684.684 0 0 1-.387-.335.576.576 0 0 1-.055-.182l-.002-.02-.002-.008a.07.07 0 0 0-.04-.04l-.023-.01a.644.644 0 0 1-.362-.37.527.527 0 0 1-.03-.192v-.029a.069.069 0 0 0-.024-.036c-.004-.006-.05-.027-.079-.048a.587.587 0 0 1-.266-.391.482.482 0 0 1-.002-.132l.005-.032.006-.026v-.016a.067.067 0 0 0-.025-.037l-.04-.028a.52.52 0 0 1-.225-.484.479.479 0 0 1 .034-.124l.003-.01.002-.003.001-.009c0-.006 0-.012-.003-.02a.067.067 0 0 0-.011-.02l-.01-.01-.022-.018a.49.49 0 0 1-.166-.32.464.464 0 0 1 .072-.303c.008-.012.009-.014.01-.023a.056.056 0 0 0-.008-.043L41.472 9a.454.454 0 0 1-.106-.183.458.458 0 0 1-.007-.25.517.517 0 0 1 .112-.208.065.065 0 0 0 .017-.048.066.066 0 0 0-.007-.024l-.004-.007-.008-.012-.015-.026a.448.448 0 0 1-.056-.238.481.481 0 0 1 .144-.32.656.656 0 0 1 .04-.039.086.086 0 0 0 .019-.025.071.071 0 0 0 .005-.054l-.002-.007-.006-.014a.546.546 0 0 1-.026-.087.446.446 0 0 1 .02-.24.603.603 0 0 1 .206-.265c.018-.014.022-.017.031-.027a.088.088 0 0 0 .023-.059c0-.004 0-.009-.002-.013l-.007-.028a.445.445 0 0 1-.008-.121.503.503 0 0 1 .074-.224.616.616 0 0 1 .238-.226.11.11 0 0 0 .048-.05c.01-.024.008-.03.005-.08a.47.47 0 0 1 .015-.12.56.56 0 0 1 .103-.207.667.667 0 0 1 .255-.2c.018-.01.027-.013.036-.02a.112.112 0 0 0 .04-.055c.003-.01.002-.017.004-.042.003-.04.01-.08.022-.119a.778.778 0 0 1 .415-.464c.008-.004.01-.006.015-.011a.063.063 0 0 0 .016-.027V4.851c.003-.01.005-.022.009-.032a.718.718 0 0 1 .156-.277.793.793 0 0 1 .618-.264l.196.005c.26.004.521.003.782-.008.13-.006.26-.014.39-.024l.395-.03c.066-.005.132-.015.198-.015l.198-.005c.132-.004.264-.01.396-.003a5.96 5.96 0 0 1 1.57.231 5.171 5.171 0 0 1 2.656 1.802h-.104l.005-.005c.172-.225.361-.434.563-.628l.156-.139.078-.069.082-.064.164-.128c.056-.04.114-.078.171-.117.112-.08.234-.145.351-.216.059-.036.12-.065.182-.096l.184-.09c.125-.054.25-.107.377-.155.13-.042.257-.088.387-.124a6.046 6.046 0 0 1 1.596-.218c.067-.004.135 0 .201.002l.201.006c.068.004.135.002.202.01l.2.019c.269.024.529.059.794.075.264.018.528.026.793.028h.1a.79.79 0 0 1 .32.065c.135.06.257.158.342.295a.642.642 0 0 1 .071.17l.004.016.002.005a.092.092 0 0 0 .044.05l.011.006.025.009a.738.738 0 0 1 .392.329.59.59 0 0 1 .07.213l.002.022a.063.063 0 0 0 .02.033.086.086 0 0 0 .02.012.704.704 0 0 1 .378.365.537.537 0 0 1 .042.196v.035l-.002.025c0 .004.002.015.011.025.005.005.01.01.016.013l.045.028a.643.643 0 0 1 .286.395.507.507 0 0 1-.001.206l-.008.032c0 .005.002.016.01.026 0 .003.044.033.07.059a.55.55 0 0 1 .19.457.475.475 0 0 1-.032.128l-.013.03-.004.01c-.002.004-.003.01-.002.017 0 .007.003.014.006.021a.07.07 0 0 0 .007.011l.004.005.01.01a.596.596 0 0 1 .076.09.502.502 0 0 1 .087.23.443.443 0 0 1-.043.245c-.016.035-.048.075-.051.086a.07.07 0 0 0 .003.06c.002.004.005.009.009.013l.016.021a.483.483 0 0 1 .087.398.437.437 0 0 1-.112.202Z" fill="#281400"/><path d="M44.395 13.063a.555.555 0 0 1-.284-.177.638.638 0 0 1-.151-.313c-.01-.06-.051-.113-.1-.131a.608.608 0 0 1-.39-.527.178.178 0 0 0-.093-.146.582.582 0 0 1-.25-.234.574.574 0 0 1-.08-.325.18.18 0 0 0-.078-.16.577.577 0 0 1-.221-.255.545.545 0 0 1-.038-.326.179.179 0 0 0-.06-.17.557.557 0 0 1-.188-.276.524.524 0 0 1 .006-.325.175.175 0 0 0-.039-.176.53.53 0 0 1-.095-.614.174.174 0 0 0-.015-.18.51.51 0 0 1-.106-.306.532.532 0 0 1 .099-.314.173.173 0 0 0 .01-.18.506.506 0 0 1-.061-.316.556.556 0 0 1 .143-.304.177.177 0 0 0 .034-.177.514.514 0 0 1-.014-.324.59.59 0 0 1 .185-.29.18.18 0 0 0 .054-.17.543.543 0 0 1 .032-.33.62.62 0 0 1 .222-.273.182.182 0 0 0 .073-.16.59.59 0 0 1 .075-.331.644.644 0 0 1 .253-.253.182.182 0 0 0 .087-.146.644.644 0 0 1 .116-.332l.023-.028a.689.689 0 0 0-.141.106.573.573 0 0 0-.165.288.175.175 0 0 1-.11.124.684.684 0 0 0-.297.202.506.506 0 0 0-.127.295.16.16 0 0 1-.094.13.652.652 0 0 0-.275.225.448.448 0 0 0-.082.296.152.152 0 0 1-.08.141.588.588 0 0 0-.24.243c-.051.1-.06.2-.035.293a.144.144 0 0 1-.06.151.525.525 0 0 0-.201.258.381.381 0 0 0 .015.289.136.136 0 0 1-.036.157.464.464 0 0 0-.156.27.383.383 0 0 0 .066.282c.033.049.029.114-.01.16a.417.417 0 0 0-.108.28.405.405 0 0 0 .114.272c.042.045.049.11.017.16a.389.389 0 0 0-.058.286.45.45 0 0 0 .161.26c.048.04.065.104.043.157a.386.386 0 0 0-.008.289c.037.101.11.183.204.245a.145.145 0 0 1 .065.151.402.402 0 0 0 .042.29.556.556 0 0 0 .24.228.154.154 0 0 1 .085.142.439.439 0 0 0 .087.288.604.604 0 0 0 .272.208.16.16 0 0 1 .1.13c.008.1.05.197.128.284.08.09.184.152.296.185a.162.162 0 0 1 .109.117c.022.1.076.196.164.278a.64.64 0 0 0 .31.158c.053.01.101.054.12.107.034.1.099.19.193.264v.001c.086.066.204.063.332.022l.078-.024c-.016-.06-.059-.107-.107-.119ZM59.747 8.954a.405.405 0 0 0 .114-.272.415.415 0 0 0-.107-.28.131.131 0 0 1-.01-.16.382.382 0 0 0 .065-.282.465.465 0 0 0-.156-.27.136.136 0 0 1-.036-.157.381.381 0 0 0 .015-.289.525.525 0 0 0-.201-.258.144.144 0 0 1-.06-.15.404.404 0 0 0-.035-.294.59.59 0 0 0-.24-.243.153.153 0 0 1-.08-.141.448.448 0 0 0-.082-.296.647.647 0 0 0-.275-.225.16.16 0 0 1-.094-.13.507.507 0 0 0-.127-.295.684.684 0 0 0-.297-.202.176.176 0 0 1-.11-.124.52.52 0 0 0-.034-.1.631.631 0 0 1 .008.065c.003.06.038.12.087.147a.64.64 0 0 1 .253.252c.06.11.084.223.075.332a.183.183 0 0 0 .073.16.62.62 0 0 1 .222.273.546.546 0 0 1 .032.33.18.18 0 0 0 .055.17.587.587 0 0 1 .185.29.514.514 0 0 1-.014.324.176.176 0 0 0 .033.177.556.556 0 0 1 .143.303.505.505 0 0 1-.06.317.175.175 0 0 0 .01.18c.063.09.1.198.098.314a.511.511 0 0 1-.106.306.174.174 0 0 0-.014.18.52.52 0 0 1-.096.613.176.176 0 0 0-.039.177c.035.102.04.212.007.325a.549.549 0 0 1-.188.275.18.18 0 0 0-.06.17c.02.106.01.218-.038.326a.577.577 0 0 1-.222.256.18.18 0 0 0-.078.16.589.589 0 0 1-.33.558.178.178 0 0 0-.092.146.61.61 0 0 1-.39.527c-.05.018-.09.072-.1.132a.643.643 0 0 1-.151.313.555.555 0 0 1-.285.177c-.05.012-.094.061-.111.121-.003.012-.008.022-.012.033.11.027.208.022.282-.035l.002-.003a.578.578 0 0 0 .191-.261.167.167 0 0 1 .12-.108.634.634 0 0 0 .31-.158.535.535 0 0 0 .164-.278.16.16 0 0 1 .11-.117.631.631 0 0 0 .295-.185.488.488 0 0 0 .128-.284.16.16 0 0 1 .1-.13.606.606 0 0 0 .272-.208.441.441 0 0 0 .086-.288.154.154 0 0 1 .085-.142.562.562 0 0 0 .241-.228.404.404 0 0 0 .041-.29.145.145 0 0 1 .066-.15.505.505 0 0 0 .204-.246.384.384 0 0 0-.008-.289.136.136 0 0 1 .042-.157.449.449 0 0 0 .162-.26.388.388 0 0 0-.058-.286.135.135 0 0 1 .02-.158Z" fill="#E8B17E"/><g opacity=".5"><path opacity=".5" d="M46.295 11.713c1.648 0 2.984-1.543 2.984-3.447 0-1.903-1.336-3.447-2.984-3.447s-2.984 1.544-2.984 3.447c0 1.904 1.336 3.447 2.984 3.447ZM54.976 11.713c1.648 0 2.984-1.543 2.984-3.447 0-1.903-1.336-3.447-2.984-3.447s-2.984 1.544-2.984 3.447c0 1.904 1.336 3.447 2.984 3.447Z" fill="#E8B17E"/></g><path d="M46.672 11.22c1.505 0 2.725-1.316 2.725-2.938 0-1.623-1.22-2.938-2.725-2.938-1.505 0-2.725 1.315-2.725 2.938 0 1.622 1.22 2.938 2.725 2.938Z" fill="#492100"/><path d="M49.532 8.281a3.289 3.289 0 0 1-.233 1.176c-.148.37-.362.706-.628.984a2.823 2.823 0 0 1-.923.646 2.64 2.64 0 0 1-1.075.215 2.671 2.671 0 0 1-1.066-.242 2.796 2.796 0 0 1-.897-.659 3.02 3.02 0 0 1-.593-.976 3.369 3.369 0 0 1-.005-2.29c.133-.365.338-.7.593-.98.255-.281.562-.508.899-.663a2.639 2.639 0 0 1 1.07-.243c.366-.004.736.07 1.078.218.343.148.66.37.926.649.532.557.855 1.355.854 2.165Zm-.27 0a3.119 3.119 0 0 0-.189-1.073 2.83 2.83 0 0 0-.555-.92 2.625 2.625 0 0 0-.843-.62 2.486 2.486 0 0 0-1.002-.23 2.491 2.491 0 0 0-1.013.203 2.66 2.66 0 0 0-.868.609 2.996 2.996 0 0 0-.81 2.031c0 .764.301 1.513.803 2.039.5.53 1.194.83 1.888.816.346-.006.69-.084 1.006-.23.317-.147.605-.36.845-.626.24-.264.43-.58.555-.922.126-.342.188-.71.183-1.077Z" fill="#281400"/><path d="M46.672 10.618c.82 0 1.486-1.046 1.486-2.336 0-1.29-.665-2.336-1.486-2.336-.82 0-1.486 1.046-1.486 2.336 0 1.29.665 2.336 1.486 2.336Z" fill="#F7931E"/><path d="M48.193 8.282c.003.524-.093 1.06-.333 1.528-.12.233-.277.448-.479.613-.2.165-.45.273-.709.277-.26.002-.514-.1-.72-.26a1.888 1.888 0 0 1-.499-.61 3.328 3.328 0 0 1-.361-1.548c.003-.268.032-.536.09-.797.06-.261.148-.515.276-.749.127-.232.291-.446.499-.605.205-.161.457-.261.715-.26.258.006.505.113.704.276.2.164.358.378.477.61.12.232.203.483.257.74.054.259.077.522.083.785Zm-.07 0a3.203 3.203 0 0 0-.087-.764 2.834 2.834 0 0 0-.266-.709 1.781 1.781 0 0 0-.462-.56 1.035 1.035 0 0 0-.636-.23 1.036 1.036 0 0 0-.624.247 1.77 1.77 0 0 0-.441.564c-.225.439-.325.948-.327 1.452.008.503.102 1.013.332 1.449.114.216.261.412.441.56.18.146.396.239.62.244.223 0 .444-.084.63-.228.187-.143.341-.34.461-.557.24-.438.349-.955.36-1.468Z" fill="#281400"/><path d="M46.672 9.627c.41 0 .743-.603.743-1.345 0-.743-.332-1.346-.743-1.346-.41 0-.743.603-.743 1.346 0 .742.333 1.345.743 1.345Z" fill="#000"/><path d="M46.13 7.432a.39.39 0 1 0 0-.779.39.39 0 0 0 0 .779ZM46.873 7.645a.141.141 0 1 0 0-.283.141.141 0 0 0 0 .283Z" fill="#fff"/><path d="M54.6 11.22c1.505 0 2.725-1.316 2.725-2.938 0-1.623-1.22-2.938-2.726-2.938-1.505 0-2.724 1.315-2.724 2.938 0 1.622 1.22 2.938 2.724 2.938Z" fill="#492100"/><path d="M57.358 8.282a3.1 3.1 0 0 1-.192 1.148c-.137.364-.34.7-.597.98-.256.28-.564.507-.9.661a2.639 2.639 0 0 1-1.07.24 2.646 2.646 0 0 1-1.077-.22 2.832 2.832 0 0 1-.922-.649 3.078 3.078 0 0 1-.625-.986 3.273 3.273 0 0 1-.227-1.174 3.147 3.147 0 0 1 .85-2.162c.266-.279.581-.5.924-.648.342-.148.71-.221 1.077-.217a2.64 2.64 0 0 1 1.068.242c.335.154.642.381.898.661.255.28.457.616.593.979.136.364.202.755.2 1.145Zm-.067 0a3.097 3.097 0 0 0-.217-1.107 2.908 2.908 0 0 0-.59-.928 2.654 2.654 0 0 0-.87-.61 2.5 2.5 0 0 0-1.015-.204 2.484 2.484 0 0 0-1.004.229 2.627 2.627 0 0 0-.844.623c-.24.264-.43.58-.557.92-.127.342-.19.71-.193 1.077-.002.367.061.736.189 1.078.128.341.319.657.56.92.24.264.528.476.845.621.316.146.66.223 1.004.227.346.003.692-.066 1.013-.206a2.65 2.65 0 0 0 .867-.61c.502-.525.794-1.269.812-2.03Z" fill="#281400"/><path d="M54.6 10.618c.82 0 1.486-1.046 1.486-2.336 0-1.29-.666-2.336-1.486-2.336-.822 0-1.487 1.046-1.487 2.336 0 1.29.666 2.336 1.486 2.336Z" fill="#F7931E"/><path d="M56.21 8.282c-.011.54-.128 1.082-.386 1.551a1.915 1.915 0 0 1-.506.604 1.172 1.172 0 0 1-.719.253 1.16 1.16 0 0 1-.701-.278 1.917 1.917 0 0 1-.475-.61 2.933 2.933 0 0 1-.26-.738 3.731 3.731 0 0 1-.083-.783c.004-.525.106-1.056.344-1.52.12-.23.275-.446.475-.609a1.16 1.16 0 0 1 .7-.277c.257-.004.51.094.718.252.21.158.377.37.506.603.258.47.373 1.012.387 1.552Zm-.25 0c.006-.499-.084-1.008-.305-1.446a1.776 1.776 0 0 0-.434-.567 1.037 1.037 0 0 0-.622-.253 1.042 1.042 0 0 0-.638.228 1.758 1.758 0 0 0-.465.561c-.24.442-.344.963-.35 1.476.006.514.11 1.034.35 1.475.12.22.276.417.465.561.189.145.412.23.638.228.226-.008.442-.103.62-.253.18-.149.324-.348.435-.566.221-.437.31-.946.307-1.444Z" fill="#281400"/><path d="M54.6 9.627c.41 0 .743-.603.743-1.345 0-.743-.333-1.346-.744-1.346-.41 0-.743.603-.743 1.346 0 .742.333 1.345.743 1.345Z" fill="#000"/><path d="M54.057 7.432a.39.39 0 1 0 0-.778.39.39 0 0 0 0 .778ZM54.8 7.645a.141.141 0 1 0 0-.283.141.141 0 0 0 0 .283Z" fill="#fff"/><path opacity=".5" d="M52.102 10.214a6.556 6.556 0 0 1-.28-.381l-.289-.424a1.085 1.085 0 0 0-1.794 0l-.288.424c-.089.13-.183.258-.28.381l-.714.899a.667.667 0 0 0 .102.936c.946-.457 1.638-1.108 2.077-1.771.439.663 1.13 1.314 2.077 1.771a.667.667 0 0 0 .102-.936l-.713-.899Z" fill="#E8B17E"/><path opacity=".5" d="M50.636 10.277c-.67 1.013-1.926 2-3.785 2.308-.619.102-1.215.256-1.787.424.4.296.835.56 1.301.79.068.033.444-.303.517-.357.215-.161.44-.303.673-.43a9.832 9.832 0 0 1 1.46-.623c.487-.17.984-.326 1.495-.353.898-.049 1.697.324 2.541.578a8.08 8.08 0 0 1 1.118.432c.115.055.456.17.49.331.059.285-.99.91-.99.91a8.707 8.707 0 0 0 2.521-1.284 15.074 15.074 0 0 0-1.769-.419c-1.86-.307-3.115-1.294-3.785-2.306Z" fill="#9B4F1C"/><path d="M50.259 12.812s1.39-.35 1.503-1.319c.071-.612-.51-.707-.949-.695a.622.622 0 0 0-.592.484c-.089.385-.157.972.038 1.53Z" fill="#CC9466"/><path d="M50.274 12.78a.02.02 0 0 0-.013-.005h-.006.001l.005-.002.01-.005.021-.008.04-.015.082-.033c.054-.023.108-.044.16-.068a3.57 3.57 0 0 0 .61-.341c.096-.066.188-.14.27-.226.166-.169.275-.405.287-.65a.53.53 0 0 0-.088-.34.565.565 0 0 0-.28-.195 1.295 1.295 0 0 0-.338-.066 1.827 1.827 0 0 0-.174-.005.6.6 0 0 0-.623.501 3.257 3.257 0 0 0-.077.746 2.583 2.583 0 0 0 .074.555c.008.028.017.063.025.085a.396.396 0 0 1 .014.072Zm-.03.063a.941.941 0 0 1-.043-.108c-.011-.037-.016-.063-.025-.096a2.652 2.652 0 0 1-.069-.57 3.312 3.312 0 0 1 .083-.76.656.656 0 0 1 .173-.34c.088-.09.2-.152.319-.178a.747.747 0 0 1 .179-.018c.058 0 .118.001.177.005.117.01.235.028.35.069.112.04.225.104.3.21a.58.58 0 0 1 .102.372c-.009.264-.129.505-.282.703a1.761 1.761 0 0 1-.567.472 2.354 2.354 0 0 1-.33.147c-.056.02-.112.04-.17.056l-.087.022-.043.01-.023.004-.01.002h-.008a.054.054 0 0 1-.009.002.035.035 0 0 1-.018-.004Z" fill="#281400"/><path d="M50.402 12.462s1.148-.289 1.242-1.09c.059-.506-.422-.584-.784-.574a.514.514 0 0 0-.49.4c-.072.318-.13.802.032 1.264Z" fill="#A50E0E"/><path d="M49.539 12.918s-.495-1.734.212-2.69c.708-.956 1.116-1.028 1.655-.16.54.868.468 1.505-.169 1.364-.637-.142-1.486.85-1.698 1.486Z" fill="#E8B17E"/><path d="M49.538 12.954c-.01 0-.027-.013-.031-.027l-.002-.008-.003-.01-.004-.017-.008-.037-.017-.073-.029-.146a5.739 5.739 0 0 1-.05-.295 5.677 5.677 0 0 1-.058-.597 3.76 3.76 0 0 1 .006-.604c.024-.202.074-.402.152-.59a1.71 1.71 0 0 1 .14-.272c.057-.085.115-.162.176-.237.122-.152.252-.299.402-.425.076-.063.158-.12.249-.16.09-.04.195-.06.296-.045a.586.586 0 0 1 .271.126c.079.062.146.135.207.212.12.156.22.325.311.5.089.175.168.359.212.556.021.098.035.2.026.302a.404.404 0 0 1-.12.276.387.387 0 0 1-.27.088.762.762 0 0 1-.14-.016.772.772 0 0 0-.134-.017.974.974 0 0 0-.51.168c-.158.099-.3.224-.431.36a3.064 3.064 0 0 0-.498.699 2.033 2.033 0 0 0-.06.13l-.027.067c-.003.008-.012.033-.022.049-.011.018-.024.032-.034.043Zm.001-.072c-.001-.012-.006-.021-.009-.027-.001-.007-.003-.005.004-.02.01-.023.019-.047.03-.069a2.813 2.813 0 0 1 .219-.385c.11-.16.232-.312.365-.45.134-.137.28-.262.442-.361.16-.097.34-.175.53-.173a.854.854 0 0 1 .14.017c.044.01.089.014.133.016a.35.35 0 0 0 .246-.079c.066-.059.1-.153.106-.248a.93.93 0 0 0-.029-.287 2.091 2.091 0 0 0-.221-.536 3.116 3.116 0 0 0-.322-.472 1.207 1.207 0 0 0-.198-.19.488.488 0 0 0-.232-.099c-.164-.02-.325.076-.46.195-.138.121-.26.267-.375.417a3.622 3.622 0 0 0-.165.229c-.047.08-.093.161-.127.249a2.548 2.548 0 0 0-.151.551 3.52 3.52 0 0 0-.059.582 4.466 4.466 0 0 0 .126 1.023l.018.072.01.035.005.017.003.009s.002.006 0 0c-.003-.01-.02-.019-.029-.016Z" fill="#281400"/><path opacity=".7" d="M50.352 10.555s.293-.585.545-.459c.252.126-.544.459-.544.459Z" fill="#E8B17E"/><path opacity=".7" d="M50.897 10.096c-.188-.094-.398.206-.492.366.13-.059.464-.216.53-.336a.105.105 0 0 0-.038-.03Z" fill="#E8B17E"/><path opacity=".5" d="M50.182 13.322c.106.035.203.085.297.14.094.055.185.114.271.18l-.086.008a2.585 2.585 0 0 1 .31-.257 1.16 1.16 0 0 1 .116-.07 1.875 1.875 0 0 1-.153.233c-.056.072-.115.14-.177.206a.063.063 0 0 1-.084.01l-.003-.003a2.924 2.924 0 0 1-.258-.202 1.669 1.669 0 0 1-.233-.245Z" fill="#9B4F1C"/><path opacity=".4" d="M45.315 4.32c2.82-.369 4.468.823 5.32 1.956.853-1.133 2.5-2.325 5.321-1.956.474.059.952.078 1.427.079a.69.69 0 0 1 .175.023.546.546 0 0 1 .2-.662 12.96 12.96 0 0 0 1.452-1.148c.034-.031.005-.088-.04-.078-.208.045-.417.094-.628.145-.053.012-.087-.055-.047-.09.112-.1.22-.2.322-.301.24-.234.596-.664.787-.9.04-.049-.009-.12-.07-.101-.175.054-.42.131-.547.172-.189.06-.376.12-.56.177-.285.087-.528.159-.75.223.202.056.388.16.442.368.035.133.002.276-.047.404-.342.896-1.359 1.241-2.254 1.245-.895.003-1.805-.222-2.676 0-.676.171-1.27.597-1.896.921-.21.11-.433.209-.666.204-.324-.006-.613-.21-.902-.371-1.757-.974-3.955-.418-5.772-1.253-.338-.155-.655-.355-.971-.554l-.134-.083-.114-.07c-.195-.047-.39-.094-.583-.136-.045-.01-.075.047-.041.079a12.556 12.556 0 0 0 1.453 1.146.52.52 0 0 1 .176.668.683.683 0 0 1 .197-.03c.474 0 .952-.018 1.426-.077Z" fill="#9B4F1C"/><path opacity=".5" d="M47.283 2.347c.088.129.163.265.234.404h-.061a4.19 4.19 0 0 1 .314-.596c-.066.22-.156.427-.253.63-.01.019-.03.026-.046.016a.036.036 0 0 1-.014-.016 3.615 3.615 0 0 1-.174-.438ZM51.72 3.858c.102.11.186.236.265.364l-.057-.002c.085-.118.175-.232.28-.33a2.408 2.408 0 0 1-.225.38c-.012.018-.034.021-.049.007a2.472 2.472 0 0 1-.214-.42ZM43.977 2.936c.084.092.154.195.219.302l-.047-.002c.07-.098.144-.192.232-.274a1.99 1.99 0 0 1-.186.315.027.027 0 0 1-.04.005 2.01 2.01 0 0 1-.177-.347ZM55.755 2.477c-.05.145-.114.281-.18.416a.02.02 0 0 1-.037.003 3.077 3.077 0 0 1-.193-.32c.083.092.157.19.228.292l-.036.003c.065-.136.135-.27.218-.394Z" fill="#E8B17E"/><path opacity=".3" d="M52.686 1.593a9.97 9.97 0 0 0-1.448-.195c-.136-.15.072-.443.242-.635.06-.067.003-.183-.076-.157-.327.108-.55.462-.645.643a.18.18 0 0 1-.165.103c-.077-.003-.135-.082-.129-.173.048-.683-.307-.979-.576-1.104-.05-.023-.09.05-.053.095.353.437.018 1.193.018 1.193l-.016.048-.05.004c-.16.013-.27.178-.234.346l.01.043c.114.475.556.77 1.003.687.562-.105 1.403-.282 2.139-.523.178-.06.163-.337-.02-.375Z" fill="#9B4F1C"/><path d="M61.96 15.316c-1.911-2.375-4.783-2.132-4.783-2.132l-.058.293c1.118 2.032 1.787 4.602 1.787 7.397 0 3.861-1.275 7.293-3.251 9.47.304 1.003.87 1.368 1.814.691 4.567-3.278 6.401-13.345 4.49-15.72Z" fill="#60300F"/><path d="M56.614 31.45a.774.774 0 0 1-.276-.048c-.323-.121-.574-.47-.746-1.036a.076.076 0 0 1 .016-.073c2.054-2.264 3.232-5.697 3.232-9.42 0-2.702-.615-5.248-1.778-7.36a.075.075 0 0 1-.008-.053 37.8 37.8 0 0 1 .058-.294.069.069 0 0 1 .06-.056c.029-.003 2.927-.218 4.838 2.156.71.882.941 2.789.636 5.232-.472 3.776-2.245 8.517-5.141 10.596-.33.237-.63.357-.892.357Zm-.883-1.087c.158.496.377.8.65.903.28.105.634.007 1.05-.292 2.862-2.054 4.615-6.751 5.083-10.495.295-2.366.07-4.28-.605-5.117-1.731-2.152-4.292-2.127-4.678-2.11l-.042.21c1.167 2.131 1.783 4.693 1.783 7.41 0 3.745-1.18 7.2-3.24 9.49Z" fill="#281400"/><path d="M61.96 15.316c-1.911-2.375-4.783-2.132-4.783-2.132l-.058.293c1.118 2.032 1.787 4.602 1.787 7.397 0 3.1-.823 5.924-2.17 8.043-.08.684.34.936 2.17-.484 0 0-.482.863-.672 1.555-.056.203.225.514.4.418 5.114-2.815 5.093-12.894 3.325-15.09Z" fill="#7A421C"/><path d="M61.894 15.377a5.629 5.629 0 0 0-.974-.952 5.765 5.765 0 0 0-.56-.374 6.287 6.287 0 0 0-.597-.301 6.182 6.182 0 0 0-1.923-.48 4.725 4.725 0 0 0-.657-.015l.06-.057-.059.293-.007-.052a14.415 14.415 0 0 1 1.399 3.774 16.86 16.86 0 0 1 .391 4.046 16.637 16.637 0 0 1-.575 4.02c-.36 1.302-.888 2.554-1.6 3.678l.01-.032a.717.717 0 0 0 .025.335c.037.093.122.133.227.133a.968.968 0 0 0 .32-.073 2.75 2.75 0 0 0 .315-.146c.206-.111.405-.24.602-.376.196-.135.387-.278.577-.425a.064.064 0 0 1 .093.017.078.078 0 0 1 .003.079 8.152 8.152 0 0 0-.524 1.058 5.04 5.04 0 0 0-.15.418c-.006.022-.018.05-.019.067a.173.173 0 0 0 0 .06.408.408 0 0 0 .129.227c.062.059.15.1.212.067.66-.358 1.246-.872 1.734-1.47a9.175 9.175 0 0 0 1.214-1.99c.328-.713.592-1.462.795-2.23.4-1.537.585-3.142.565-4.742-.012-.8-.076-1.6-.219-2.383a8.246 8.246 0 0 0-.291-1.149c-.128-.368-.286-.731-.516-1.025Zm.132-.125c.256.321.423.699.558 1.08.135.384.232.78.31 1.178.155.798.227 1.61.246 2.42.019.813-.019 1.625-.109 2.432a16.33 16.33 0 0 1-.444 2.388 12.292 12.292 0 0 1-.828 2.268 8.807 8.807 0 0 1-1.315 1.979 6.85 6.85 0 0 1-1.798 1.45.206.206 0 0 1-.166.005.418.418 0 0 1-.133-.085.536.536 0 0 1-.099-.123.413.413 0 0 1-.057-.156.254.254 0 0 1 .002-.09.224.224 0 0 1 .01-.04l.01-.037a5.025 5.025 0 0 1 .145-.43c.144-.376.311-.737.492-1.094l.096.095c-.191.148-.385.293-.584.43a6.443 6.443 0 0 1-.614.383c-.107.057-.215.11-.33.154a1.095 1.095 0 0 1-.364.08.416.416 0 0 1-.2-.047.341.341 0 0 1-.148-.17.857.857 0 0 1-.035-.413c.001-.01.005-.021.01-.03l.001-.001c.704-1.11 1.227-2.35 1.583-3.639.354-1.291.538-2.635.569-3.982a16.689 16.689 0 0 0-.387-4.008 14.245 14.245 0 0 0-1.384-3.734.078.078 0 0 1-.008-.053l.058-.293a.068.068 0 0 1 .06-.057 4.77 4.77 0 0 1 .678.01 6.323 6.323 0 0 1 1.97.475c.21.09.415.19.615.304a5.75 5.75 0 0 1 1.59 1.352Z" fill="#281400"/><path d="M61.96 15.316c-1.911-2.375-4.783-2.132-4.783-2.132l-.058.293c1.118 2.032 1.787 4.602 1.787 7.397 0 1.629-.227 3.181-.638 4.595.198.673.61.772 1.45-1.06 0 0-.451 5.941 2.03 1.401 2.477-3.753 1.424-8.987.212-10.494Z" fill="#9B4F1C"/><path d="M61.863 15.406a5.601 5.601 0 0 0-1.514-1.33 6.094 6.094 0 0 0-.593-.306 6.186 6.186 0 0 0-1.916-.496 4.805 4.805 0 0 0-.657-.02l.06-.056-.058.292-.008-.052c.488.896.878 1.853 1.162 2.845a16.183 16.183 0 0 1 .566 3.049 17.612 17.612 0 0 1-.003 3.11 16.303 16.303 0 0 1-.57 3.047v-.043c.03.098.065.196.116.273.05.08.116.13.188.12.075-.008.155-.064.224-.13.07-.068.134-.147.194-.23.119-.167.225-.348.324-.534.099-.186.191-.377.28-.57.015-.035.055-.05.088-.033.025.012.039.039.038.067v.005c-.01.476-.008.953.014 1.426.011.236.033.471.065.702.034.229.082.46.174.65.046.093.107.17.176.2a.225.225 0 0 0 .113.015.408.408 0 0 0 .128-.043c.087-.043.171-.112.25-.188.079-.076.154-.158.225-.246.287-.352.524-.757.767-1.155l.002-.004a7.81 7.81 0 0 0 .182-.283c.031-.047.058-.096.084-.146l.08-.15.08-.148.072-.153c.048-.102.1-.203.141-.308.182-.415.328-.847.441-1.288.228-.883.338-1.797.338-2.71a12.483 12.483 0 0 0-.283-2.712 9.81 9.81 0 0 0-.367-1.302c-.158-.417-.346-.827-.603-1.165Zm.194-.183c.296.37.5.796.676 1.229.172.435.302.886.405 1.343.2.916.274 1.86.25 2.796-.03.937-.174 1.87-.44 2.76-.132.445-.291.881-.487 1.297-.045.106-.1.207-.152.31l-.078.153c-.027.05-.056.099-.085.149-.109.2-.236.389-.35.587l.003-.004c-.212.423-.45.833-.737 1.212-.072.095-.15.186-.234.272a1.244 1.244 0 0 1-.289.228.597.597 0 0 1-.187.067.411.411 0 0 1-.213-.024.615.615 0 0 1-.286-.296c-.116-.235-.162-.48-.2-.722a6.437 6.437 0 0 1-.06-.729 9.24 9.24 0 0 1 .003-.725c.01-.242.027-.482.055-.723l.127.039c-.09.194-.183.387-.284.577-.1.19-.21.375-.334.551a1.852 1.852 0 0 1-.212.249.786.786 0 0 1-.132.104.386.386 0 0 1-.168.061.28.28 0 0 1-.184-.046.461.461 0 0 1-.125-.133 1.206 1.206 0 0 1-.135-.314.075.075 0 0 1 0-.042v-.001c.284-.982.472-1.995.565-3.019a17.407 17.407 0 0 0 .002-3.082 18.112 18.112 0 0 0-.208-1.525 16.192 16.192 0 0 0-.352-1.494 13.889 13.889 0 0 0-1.15-2.814.077.077 0 0 1-.008-.053l.058-.293a.069.069 0 0 1 .06-.057c.23-.016.453-.011.678.004a6.342 6.342 0 0 1 1.978.46c.21.089.417.188.62.3a5.724 5.724 0 0 1 1.61 1.348Z" fill="#281400"/><path d="M61.818 14.625c-1.899-2.024-4.641-1.442-4.641-1.442l-.058.293c1.118 2.032 1.787 4.602 1.787 7.397 0 .16-.003.318-.007.476.298.75.769.958 1.433-1.439 0 0 .91 6.031 2.265-1.302.212-1.149.141-2.91-.78-3.983Z" fill="#A55D2B"/><path d="M61.766 14.68a4.452 4.452 0 0 0-1.002-.758 5.575 5.575 0 0 0-2.345-.698 6.104 6.104 0 0 0-1.23.029l.053-.056-.058.293-.008-.052a14.43 14.43 0 0 1 1.41 3.82c.294 1.338.417 2.719.38 4.093l-.006-.03c.046.111.096.222.163.313.064.092.149.162.231.148.085-.01.17-.094.238-.184.07-.093.129-.198.183-.307a5.73 5.73 0 0 0 .274-.686c.08-.236.151-.475.218-.715.011-.039.048-.06.084-.049a.07.07 0 0 1 .046.057c.091.439.184.88.306 1.307.063.213.135.423.231.615.048.095.104.186.17.255.067.07.144.106.219.085.077-.02.152-.093.214-.174.063-.082.118-.175.166-.273.1-.194.178-.403.252-.613.143-.424.258-.86.362-1.298.102-.44.194-.883.273-1.327.077-.444.09-.899.067-1.349a5.274 5.274 0 0 0-.253-1.317 3.44 3.44 0 0 0-.638-1.13Zm.104-.11c.288.354.49.769.624 1.205.13.438.198.892.221 1.348.009.227.014.456-.001.683-.003.114-.017.227-.025.341-.014.113-.024.227-.044.34a30.8 30.8 0 0 1-.258 1.334c-.095.443-.2.883-.336 1.317-.068.216-.143.43-.242.637a1.816 1.816 0 0 1-.172.3c-.069.092-.151.19-.28.23a.301.301 0 0 1-.195-.009.464.464 0 0 1-.156-.106 1.196 1.196 0 0 1-.203-.29 3.884 3.884 0 0 1-.253-.64 7.507 7.507 0 0 1-.285-1.337l.13.009c-.068.243-.14.485-.221.724-.082.239-.17.476-.282.704a2.096 2.096 0 0 1-.197.33.897.897 0 0 1-.135.146.388.388 0 0 1-.19.09.299.299 0 0 1-.21-.055.61.61 0 0 1-.143-.147 1.646 1.646 0 0 1-.18-.346.072.072 0 0 1-.006-.03 16.746 16.746 0 0 0-.376-4.056 14.289 14.289 0 0 0-1.394-3.779.077.077 0 0 1-.008-.052l.058-.293a.069.069 0 0 1 .052-.056 4.998 4.998 0 0 1 1.265-.108c.424.014.847.075 1.26.19a4.311 4.311 0 0 1 1.319.61c.044.032.09.062.134.095.086.07.174.134.255.209.168.14.323.298.474.462Z" fill="#281400"/><path d="M61.285 18.848a1.81 1.81 0 0 1-.168.308 2.866 2.866 0 0 1-.206.273l-.003.004a.064.064 0 0 1-.095.003l-.003-.003a2.81 2.81 0 0 1-.157-.194 1.521 1.521 0 0 1-.135-.22c.075.041.14.09.205.142.064.052.125.107.184.165l-.1.004c.068-.09.142-.177.22-.259.08-.08.162-.158.258-.223ZM60.42 23.381c.107.105.203.22.296.337.047.057.09.118.136.178.044.06.087.121.13.183l-.119.007c.036-.069.073-.137.112-.204.04-.067.077-.135.119-.2.04-.067.083-.131.127-.196.045-.063.09-.127.14-.187-.023.078-.051.151-.079.226-.03.073-.059.146-.091.217-.03.072-.066.141-.099.212-.034.07-.07.14-.106.209-.02.037-.063.05-.096.028a.077.077 0 0 1-.022-.021c-.042-.062-.084-.124-.123-.189-.04-.064-.08-.127-.117-.193a3.647 3.647 0 0 1-.209-.407ZM59.331 15.64c.136.056.265.124.39.196.064.035.125.074.187.112a5.7 5.7 0 0 1 .182.119l-.107.053c.01-.078.022-.156.035-.235.015-.077.026-.155.043-.233.016-.077.034-.155.052-.231.02-.077.04-.154.067-.23.005.08.004.16.003.24-.002.08-.005.16-.011.239-.005.079-.014.158-.02.236a8.188 8.188 0 0 1-.029.236c-.006.042-.042.07-.08.065a.064.064 0 0 1-.027-.011 4.894 4.894 0 0 1-.178-.127c-.059-.044-.118-.087-.175-.134a3.298 3.298 0 0 1-.331-.295ZM58.677 26.938c.053.153.093.308.128.465.019.078.034.156.05.235.016.078.028.157.042.237l-.106-.052a6.614 6.614 0 0 1 .636-.376c.074-.036.147-.072.224-.102a3.17 3.17 0 0 1-.187.169 6.763 6.763 0 0 1-.6.439c-.034.022-.076.01-.096-.025a.085.085 0 0 1-.01-.028c-.01-.079-.024-.158-.033-.238-.009-.08-.019-.16-.026-.24a4.686 4.686 0 0 1-.022-.484Z" fill="#E8B17E"/><path opacity=".7" d="M62.63 24.05c.143-.39.258-.786.35-1.184-.858 1.573-1.89 3.237-2.561 3.537-1.329.593-1.29-9.94-1.255-11.235.022-.801 1.139-1.054 1.99-1.13-1.815-1.313-3.977-.855-3.977-.855l-.058.293c1.119 2.032 1.787 4.602 1.787 7.397l-.002.283a25.443 25.443 0 0 1-.016.516l-.01.2v.002l-.009.136-.014.194-.01.137-.019.2-.01.097-.009.091a13.39 13.39 0 0 1-.024.206l-.01.088-.015.11-.016.12a1.803 1.803 0 0 1-.008.052l-.023.153-.02.129-.031.187-.02.11c-.01.061-.022.12-.034.18l-.008.046-.011.054-.037.181-.013.06c-.016.074-.032.147-.05.22l-.01.05-.056.23-.01.036-.061.237-.01.032c-.02.08-.043.16-.066.239l-.03.1-.05.169-.033.104-.057.174-.026.078a14.422 14.422 0 0 1-.324.867l-.025.061c-.027.065-.054.13-.082.193l-.011.025c-.096.218-.195.43-.3.638l-.01.02-.1.195c-.007.01-.012.022-.018.033-.15.28-.306.55-.471.81-.33.52-.692.998-1.081 1.427.304 1.003.87 1.367 1.813.69.303-.216.593-.464.87-.736.086.098.205.158.295.108 2.171-1.196 3.417-3.7 3.996-6.355Z" fill="#E8B17E"/><path d="M39.44 15.317c1.922-2.388 4.81-2.144 4.81-2.144s.022.104.059.295c-1.125 2.044-1.797 4.629-1.797 7.44 0 3.883 1.282 7.335 3.27 9.525-.307 1.009-.876 1.375-1.825.695-4.594-3.297-6.439-13.422-4.517-15.81Z" fill="#60300F"/><path d="M44.818 31.546c.097 0 .19-.016.276-.05.326-.121.578-.472.751-1.041a.077.077 0 0 0-.016-.074c-2.066-2.276-3.25-5.73-3.25-9.474 0-2.718.618-5.278 1.788-7.404a.075.075 0 0 0 .008-.052l-.058-.295a.07.07 0 0 0-.06-.057c-.03-.003-2.945-.22-4.867 2.169-.713.887-.947 2.804-.64 5.262.475 3.798 2.258 8.566 5.17 10.657.334.239.634.359.898.359Zm.887-1.095c-.158.5-.378.805-.654.909-.282.106-.637.007-1.056-.294-2.878-2.066-4.641-6.79-5.112-10.555-.297-2.38-.07-4.304.608-5.147 1.742-2.165 4.317-2.14 4.705-2.122.01.044.024.116.042.212-1.173 2.143-1.793 4.72-1.793 7.453 0 3.765 1.188 7.24 3.26 9.544Z" fill="#281400"/><path d="M39.44 15.317c1.923-2.388 4.811-2.144 4.811-2.144l.058.295c-1.125 2.044-1.797 4.629-1.797 7.44 0 3.119.828 5.958 2.182 8.09.08.688-.342.94-2.182-.487 0 0 .484.867.676 1.564.055.204-.226.517-.402.42-5.144-2.832-5.123-12.968-3.345-15.178Z" fill="#7A421C"/><path d="M39.507 15.379a5.657 5.657 0 0 1 1.542-1.333c.196-.112.396-.213.6-.303a6.227 6.227 0 0 1 1.935-.484c.22-.018.445-.026.661-.014l-.06-.057.058.294.008-.052a14.501 14.501 0 0 0-1.407 3.796 16.955 16.955 0 0 0-.393 4.069 16.74 16.74 0 0 0 .578 4.043c.362 1.31.893 2.57 1.61 3.7l-.012-.032a.722.722 0 0 1-.024.337c-.037.093-.123.133-.228.133a.977.977 0 0 1-.322-.073 2.765 2.765 0 0 1-.317-.148 6.407 6.407 0 0 1-.605-.377c-.197-.136-.39-.28-.58-.428a.064.064 0 0 0-.094.017.078.078 0 0 0-.003.08c.198.34.378.695.527 1.063a5.134 5.134 0 0 1 .15.421c.007.022.018.051.02.068a.175.175 0 0 1 0 .06.41.41 0 0 1-.13.228c-.063.06-.151.102-.213.068-.664-.36-1.254-.877-1.745-1.478a9.23 9.23 0 0 1-1.22-2.002 13.83 13.83 0 0 1-.8-2.243 18.108 18.108 0 0 1-.568-4.77 14.5 14.5 0 0 1 .22-2.396c.073-.393.165-.782.293-1.155.128-.371.288-.737.52-1.032Zm-.133-.125c-.257.323-.425.703-.561 1.086a8.501 8.501 0 0 0-.313 1.184 14.674 14.674 0 0 0-.246 2.435c-.02.817.019 1.634.109 2.445.09.811.239 1.616.447 2.402.209.786.477 1.557.833 2.282.355.724.797 1.4 1.322 1.99a6.885 6.885 0 0 0 1.808 1.459.206.206 0 0 0 .168.004.42.42 0 0 0 .133-.085.535.535 0 0 0 .1-.124.416.416 0 0 0 .057-.157.257.257 0 0 0-.002-.09.212.212 0 0 0-.01-.041l-.01-.037a5.113 5.113 0 0 0-.145-.433 12.103 12.103 0 0 0-.495-1.1l-.097.096c.192.15.387.294.587.433.2.138.403.27.618.385.107.057.216.111.331.155.115.043.235.078.366.08a.419.419 0 0 0 .202-.047c.066-.035.12-.1.149-.17a.86.86 0 0 0 .035-.416.067.067 0 0 0-.01-.03l-.001-.002c-.708-1.116-1.234-2.363-1.592-3.66a16.582 16.582 0 0 1-.573-4.005 16.788 16.788 0 0 1 .39-4.031 14.327 14.327 0 0 1 1.392-3.756.078.078 0 0 0 .008-.052l-.058-.296a.069.069 0 0 0-.06-.056 4.796 4.796 0 0 0-.683.009 6.355 6.355 0 0 0-1.982.478c-.21.09-.417.191-.618.305a5.788 5.788 0 0 0-1.599 1.36Z" fill="#281400"/><path d="M39.44 15.318c1.922-2.389 4.81-2.145 4.81-2.145s.022.104.059.295c-1.125 2.044-1.798 4.629-1.798 7.44 0 1.638.23 3.2.642 4.621-.2.677-.613.777-1.458-1.066 0 0 .454 5.976-2.041 1.41-2.492-3.776-1.434-9.04-.214-10.556Z" fill="#9B4F1C"/><path d="M39.538 15.408a5.633 5.633 0 0 1 1.523-1.338 6.14 6.14 0 0 1 .596-.307 6.232 6.232 0 0 1 1.927-.499c.22-.02.445-.03.66-.02l-.06-.057.059.294.008-.052c-.49.901-.883 1.864-1.169 2.861a16.267 16.267 0 0 0-.569 3.067 17.698 17.698 0 0 0 .003 3.127c.095 1.04.285 2.069.573 3.066v-.044c-.03.099-.065.197-.117.275-.05.08-.116.13-.19.12-.074-.007-.154-.064-.224-.13a1.735 1.735 0 0 1-.195-.231 4.894 4.894 0 0 1-.326-.537c-.1-.188-.192-.38-.281-.573-.016-.036-.056-.051-.09-.034a.073.073 0 0 0-.037.067v.005c.01.479.007.96-.014 1.434a8.055 8.055 0 0 1-.066.707c-.034.23-.082.462-.175.653-.046.094-.107.17-.177.202a.226.226 0 0 1-.114.014.41.41 0 0 1-.128-.043 1.057 1.057 0 0 1-.252-.188 2.692 2.692 0 0 1-.226-.248c-.289-.354-.527-.762-.77-1.162l-.004-.004a8.182 8.182 0 0 1-.183-.284 1.922 1.922 0 0 1-.084-.147l-.08-.15c-.027-.05-.055-.1-.08-.15l-.074-.154c-.048-.103-.1-.204-.141-.31a8.471 8.471 0 0 1-.444-1.295c-.23-.888-.34-1.808-.34-2.726-.006-.919.093-1.837.285-2.728.095-.446.216-.885.37-1.309.158-.42.347-.832.606-1.172Zm-.195-.183c-.298.372-.504.8-.68 1.235a9.199 9.199 0 0 0-.407 1.351c-.202.921-.277 1.87-.251 2.812.03.942.174 1.881.44 2.777.134.447.294.885.492 1.304.045.106.1.208.152.311l.078.154.086.15c.11.202.238.391.352.591l-.003-.005c.214.426.452.839.741 1.22.072.095.151.186.235.273.086.086.178.169.291.23a.6.6 0 0 0 .189.067c.069.01.145.004.214-.024a.618.618 0 0 0 .287-.298c.117-.236.164-.483.202-.727.037-.244.052-.488.06-.732a9.25 9.25 0 0 0-.004-.73 9.203 9.203 0 0 0-.055-.726l-.127.038c.09.196.184.39.286.58.1.191.21.378.336.555.064.088.132.173.212.25.04.039.084.075.133.105.048.031.105.055.169.062a.281.281 0 0 0 .185-.047.463.463 0 0 0 .126-.134c.065-.1.103-.208.136-.315a.075.075 0 0 0 0-.043v-.001a16.178 16.178 0 0 1-.568-3.036 17.57 17.57 0 0 1-.003-3.1c.049-.514.118-1.027.21-1.534.094-.508.213-1.008.354-1.503.283-.987.671-1.94 1.156-2.83a.078.078 0 0 0 .008-.053l-.058-.294a.069.069 0 0 0-.06-.057 4.875 4.875 0 0 0-.682.003 6.373 6.373 0 0 0-1.989.463c-.212.089-.42.19-.623.302a5.75 5.75 0 0 0-1.62 1.356Z" fill="#281400"/><path d="M39.583 14.623c1.91-2.035 4.668-1.45 4.668-1.45l.058.294c-1.125 2.043-1.798 4.629-1.798 7.44 0 .16.003.32.007.479-.3.753-.773.963-1.44-1.447 0 0-.916 6.065-2.279-1.31-.213-1.155-.142-2.927.784-4.006Z" fill="#A55D2B"/><path d="M39.635 14.677c.3-.301.643-.56 1.008-.76a5.608 5.608 0 0 1 2.359-.703c.41-.029.83-.026 1.236.029l-.052-.056.058.294.008-.052a14.518 14.518 0 0 0-1.418 3.842 17.02 17.02 0 0 0-.382 4.117l.006-.031a1.53 1.53 0 0 1-.164.316c-.065.092-.15.163-.233.148-.085-.01-.171-.094-.24-.185a1.96 1.96 0 0 1-.183-.308 5.776 5.776 0 0 1-.276-.69 14.04 14.04 0 0 1-.22-.72c-.01-.039-.048-.06-.084-.049a.07.07 0 0 0-.046.058c-.091.44-.185.885-.308 1.314a3.75 3.75 0 0 1-.232.618 1.057 1.057 0 0 1-.171.256c-.067.072-.145.107-.22.086-.078-.02-.153-.093-.216-.174a1.714 1.714 0 0 1-.167-.275 4.932 4.932 0 0 1-.252-.617c-.145-.426-.26-.865-.365-1.306a26.503 26.503 0 0 1-.274-1.334 6.154 6.154 0 0 1-.068-1.357c.032-.452.111-.902.255-1.325.147-.42.36-.816.641-1.136Zm-.105-.11a3.611 3.611 0 0 0-.627 1.212 5.87 5.87 0 0 0-.223 1.356c-.008.229-.013.459.002.687.003.115.017.229.025.343.014.114.024.228.044.341.075.451.165.897.26 1.343.095.445.2.888.337 1.324.07.218.144.434.243.641.049.105.105.206.174.302.07.093.152.19.28.232.065.019.136.015.198-.01a.468.468 0 0 0 .157-.107c.087-.087.149-.188.204-.291.108-.207.186-.424.255-.643.136-.44.23-.888.286-1.346l-.13.01c.067.244.14.487.222.728.082.24.17.479.283.708.057.115.12.227.198.332a.9.9 0 0 0 .136.146c.052.043.116.081.191.091a.3.3 0 0 0 .212-.055.614.614 0 0 0 .143-.148c.078-.11.132-.228.181-.348a.073.073 0 0 0 .006-.03c-.038-1.37.084-2.746.378-4.08a14.376 14.376 0 0 1 1.402-3.8.078.078 0 0 0 .008-.053l-.058-.295a.07.07 0 0 0-.053-.056 5.032 5.032 0 0 0-1.272-.108 5.342 5.342 0 0 0-1.267.191 4.34 4.34 0 0 0-1.326.614c-.045.031-.09.062-.135.095-.086.07-.175.134-.257.21-.169.141-.325.3-.477.464Z" fill="#281400"/><path d="M40.12 18.87c.045.113.105.213.168.31.064.096.132.188.207.274l.003.004c.026.03.069.031.096.004l.002-.003c.055-.063.108-.128.158-.196.05-.07.097-.14.136-.22-.075.04-.141.09-.206.142a2.747 2.747 0 0 0-.185.166l.101.004a2.921 2.921 0 0 0-.221-.26c-.08-.081-.163-.16-.26-.225ZM40.99 23.43c-.108.105-.205.22-.298.338-.048.058-.092.119-.137.179-.045.06-.087.122-.13.184l.119.008a7.086 7.086 0 0 0-.113-.206c-.04-.067-.077-.136-.12-.201a4.636 4.636 0 0 0-.127-.197c-.045-.063-.09-.128-.14-.188.022.078.05.152.078.227.03.073.06.146.092.218.03.073.066.142.1.214.034.07.07.14.106.21.02.037.063.05.097.028a.076.076 0 0 0 .022-.021c.042-.063.084-.125.123-.19.04-.064.08-.128.118-.195.076-.13.149-.265.21-.409ZM42.084 15.644a3.29 3.29 0 0 0-.392.197c-.064.035-.126.074-.188.112a5.436 5.436 0 0 0-.184.12l.108.054c-.01-.08-.022-.158-.034-.236-.015-.079-.027-.157-.044-.235a5.38 5.38 0 0 0-.053-.233c-.02-.077-.04-.154-.067-.231-.005.081-.003.161-.003.242.003.08.006.16.012.24.004.08.013.159.02.238.008.079.018.158.029.237.005.042.042.07.08.065a.064.064 0 0 0 .028-.011c.06-.042.12-.084.179-.128.058-.044.118-.087.175-.135.115-.09.228-.187.334-.296ZM42.742 27.007c-.053.154-.093.31-.129.467-.018.08-.034.158-.05.237-.016.079-.028.158-.042.238l.106-.052a6.661 6.661 0 0 0-.64-.378c-.073-.036-.147-.073-.225-.103.06.06.125.115.189.17a6.762 6.762 0 0 0 .603.441l.001.001c.033.022.075.01.096-.025a.084.084 0 0 0 .009-.028c.011-.08.025-.16.033-.24.01-.08.02-.16.026-.241.015-.16.026-.323.023-.487Z" fill="#E8B17E"/><path opacity=".7" d="M38.767 24.103a9.632 9.632 0 0 1-.352-1.192c.863 1.582 1.9 3.256 2.576 3.557 1.336.597 1.297-9.996 1.262-11.3-.022-.805-1.146-1.059-2.001-1.135 1.824-1.322 3.999-.861 3.999-.861l.058.295c-1.125 2.043-1.797 4.629-1.797 7.44a20.814 20.814 0 0 0 .007.463l.005.202.002.042.004.097.01.202.009.138.014.195.01.138.02.2c.003.033.005.066.009.098l.01.092.023.206.011.09.015.11.016.121.008.052.023.154.02.13c.01.062.02.125.032.187a8.464 8.464 0 0 0 .053.293l.01.045.01.055.037.182.013.06.05.222.01.05.057.231.009.036c.02.08.041.16.063.239l.008.032.068.24c.01.034.019.067.03.1.016.058.033.114.051.17.01.036.022.07.033.105l.056.176.027.078c.07.21.146.418.225.62l.024.062.076.19.026.062.082.193.012.026c.096.218.196.432.301.641l.01.02c.034.066.067.131.102.196l.017.033c.15.282.308.554.474.815.332.523.695 1.004 1.087 1.436-.306 1.008-.875 1.375-1.824.694a7.563 7.563 0 0 1-.875-.74c-.087.098-.206.158-.297.108-2.183-1.202-3.436-3.721-4.018-6.391Z" fill="#E8B17E"/><path d="M56.846 13.205a33.67 33.67 0 0 0-.657-.201c-1.467 1.09-3.42 1.755-5.566 1.755-2.142 0-4.093-.664-5.559-1.75-.216.064-.43.13-.638.196-.129.04-.247.043-.332-.022v-.001c-.3.355-.594.743-.886 1.167-.123.17-.115.385.023.523l.006.006a.65.65 0 0 1 .168.652c-.01.033-.018.067-.026.102-.133.595.082 1.171.623 1.662a.77.77 0 0 1 .223.81 1.159 1.159 0 0 0-.02.078c-.112.545.263 1.055 1.025 1.461.424.227.607.627.506 1.045a.564.564 0 0 0-.012.063c-.079.52.466.988 1.43 1.312 1.01.341 1.856.913 2.464 1.646.488.592 1.735.575 2.184-.031.543-.727 1.344-1.296 2.316-1.637.924-.323 1.442-.782 1.366-1.291a.676.676 0 0 0-.012-.062c-.1-.419.082-.818.506-1.045.763-.406 1.138-.916 1.026-1.46a.971.971 0 0 0-.02-.08.77.77 0 0 1 .225-.809c.54-.49.756-1.066.623-1.662a2.066 2.066 0 0 0-.026-.104.641.641 0 0 1 .165-.644l.006-.006c.165-.164.167-.424.02-.624-.27-.388-.542-.745-.818-1.075l-.003.003c-.084.066-.202.063-.33.023Z" fill="#E8B17E"/><path d="m56.827 13.274-.655-.201.055-.01a8.886 8.886 0 0 1-2.673 1.355c-.95.298-1.936.451-2.927.468a9.598 9.598 0 0 1-2.941-.41c-.955-.29-1.877-.748-2.66-1.408l.056.01-.483.148-.121.037a.995.995 0 0 1-.13.034.365.365 0 0 1-.292-.056v-.001l.088-.01a14.385 14.385 0 0 0-.798 1.04c-.04.058-.09.123-.117.175a.352.352 0 0 0-.04.178c.003.06.024.119.06.166.01.012.02.021.03.034l.04.043a.721.721 0 0 1 .148.7c-.008.035-.019.07-.024.104a1.417 1.417 0 0 0 .01.636c.068.278.219.527.407.735.048.052.096.103.148.15l.08.077a.842.842 0 0 1 .23.801l-.027.11c-.009.033-.01.067-.016.1a.809.809 0 0 0 .056.397c.05.126.128.24.218.343.091.103.196.195.308.276.111.081.23.154.351.219.058.033.13.067.193.111a1.1 1.1 0 0 1 .333.342c.042.073.076.15.1.233a1.094 1.094 0 0 1 .016.51.56.56 0 0 0 .038.354c.05.11.136.21.236.297.099.086.21.161.327.228.119.065.24.125.367.176.126.052.255.095.385.14a5.714 5.714 0 0 1 1.185.539c.5.3.96.689 1.341 1.157l.037.086-.036-.085c.11.135.267.236.44.302.172.065.36.099.547.1.188.002.376-.027.552-.09.087-.032.171-.073.248-.124.04-.023.073-.056.11-.084.018-.014.03-.032.047-.049l.066-.07-.02.019a4.712 4.712 0 0 1 1.303-1.135c.243-.146.496-.273.756-.378.129-.054.264-.1.392-.147a4.37 4.37 0 0 0 .38-.156c.245-.118.485-.26.67-.46a.79.79 0 0 0 .195-.349l.01-.048c.003-.017.003-.033.004-.05.005-.033 0-.066-.002-.1a.265.265 0 0 0-.006-.049l-.01-.053a.93.93 0 0 1 .054-.584.992.992 0 0 1 .275-.363c.058-.047.118-.091.182-.126l.182-.102c.118-.07.233-.148.342-.233.212-.173.409-.387.49-.656a.865.865 0 0 0 .02-.412c-.006-.035-.015-.065-.024-.103a.84.84 0 0 1-.024-.355.817.817 0 0 1 .196-.421c.024-.03.053-.056.079-.08l.075-.073c.049-.05.098-.1.142-.154.181-.213.326-.465.386-.744.03-.14.04-.283.027-.425l-.012-.107-.02-.105-.027-.105a.698.698 0 0 1 .088-.58c.04-.067.106-.123.138-.168a.373.373 0 0 0 .066-.173.432.432 0 0 0-.065-.277c-.016-.027-.037-.054-.058-.085a15.19 15.19 0 0 0-.79-1.02l-.002-.004.088.01a.29.29 0 0 1-.098.053.375.375 0 0 1-.103.015.58.58 0 0 1-.192-.03Zm.038-.139a.499.499 0 0 0 .151.026.247.247 0 0 0 .068-.01.154.154 0 0 0 .057-.03l.048-.04.04.05.003.003a15.695 15.695 0 0 1 .785 1.04c.02.028.042.059.063.094a.597.597 0 0 1 .079.36.5.5 0 0 1-.091.233c-.022.034-.056.064-.075.086a.571.571 0 0 0-.137.556l.027.11.021.113a1.549 1.549 0 0 1-.017.575 1.83 1.83 0 0 1-.41.794 2.341 2.341 0 0 1-.15.16l-.078.075c-.025.024-.049.046-.071.072a.699.699 0 0 0-.17.567.845.845 0 0 0 .02.102c.009.034.02.074.027.111a.977.977 0 0 1-.024.468c-.045.15-.122.285-.214.402-.091.118-.197.22-.309.312a3.31 3.31 0 0 1-.353.244l-.182.104a1.1 1.1 0 0 0-.165.115.877.877 0 0 0-.24.32.794.794 0 0 0-.043.504l.01.056c.005.02.008.04.01.06.003.04.008.082.003.123-.002.02-.002.041-.005.061l-.012.06a.927.927 0 0 1-.223.41c-.203.222-.453.37-.707.495-.128.06-.257.116-.389.164-.132.049-.258.096-.385.15a4.931 4.931 0 0 0-1.39.89c-.203.19-.39.4-.554.628l-.02.02c.041-.043.012-.012.02-.022v.002l-.003.002-.003.004-.007.009-.015.017-.028.034c-.02.022-.038.048-.06.066-.043.037-.085.08-.13.11-.093.066-.19.12-.292.16a1.83 1.83 0 0 1-.628.129 1.825 1.825 0 0 1-.636-.092 1.278 1.278 0 0 1-.574-.373 5.135 5.135 0 0 0-1.277-1.068 5.965 5.965 0 0 0-1.12-.524 4.947 4.947 0 0 1-.404-.162 2.776 2.776 0 0 1-.756-.482 1.18 1.18 0 0 1-.287-.401.84.84 0 0 1-.062-.262l-.003-.07.006-.067c.002-.044.014-.091.022-.13a.935.935 0 0 0 .027-.192.806.806 0 0 0-.024-.191.841.841 0 0 0-.073-.178.862.862 0 0 0-.262-.284c-.053-.04-.11-.068-.174-.107a3.207 3.207 0 0 1-.367-.242 2.066 2.066 0 0 1-.332-.306c-.1-.116-.189-.25-.247-.402a1.006 1.006 0 0 1-.063-.489c.007-.04.01-.082.022-.122l.027-.108a.664.664 0 0 0-.178-.64l-.075-.074a2.76 2.76 0 0 1-.155-.162 1.922 1.922 0 0 1-.436-.806 1.556 1.556 0 0 1-.008-.708c.007-.038.018-.076.028-.114a.565.565 0 0 0-.114-.56l-.034-.036c-.014-.015-.03-.031-.042-.049a.45.45 0 0 1-.09-.247.5.5 0 0 1 .056-.256c.044-.078.085-.129.128-.192a14.93 14.93 0 0 1 .803-1.05l.042-.051.046.04.001.002c.048.037.119.044.192.031.072-.013.155-.044.236-.067l.485-.149.024-.01.031.02c.838.536 1.73.95 2.66 1.237.93.283 1.896.43 2.866.445a9.65 9.65 0 0 0 2.88-.392 8.72 8.72 0 0 0 2.644-1.295l.027-.02.028.009.66.202Z" fill="#281400"/><path opacity=".5" d="M56.846 13.204a33.67 33.67 0 0 0-.657-.2c-1.467 1.089-3.42 1.755-5.566 1.755-2.142 0-4.093-.664-5.559-1.75-.216.063-.43.13-.638.195-.129.041-.247.044-.332-.022-.3.355-.594.743-.886 1.166-.123.17-.115.385.023.524l.006.005a.65.65 0 0 1 .168.652c-.01.034-.018.068-.026.102-.133.596.082 1.172.623 1.663a.77.77 0 0 1 .223.81 1.159 1.159 0 0 0-.02.078c-.112.545.263 1.055 1.025 1.46.424.228.607.627.506 1.046a.564.564 0 0 0-.012.062c-.079.52.464.987 1.422 1.31l.002-.002.01-.014a20.48 20.48 0 0 1-1.915-6.162c-.036-.252-.064-.528.057-.747.176-.316.577-.37.917-.347 1.73.12 3.253 1.317 4.967 1.6 1.987.33 4.008-.628 5.523-2.059.266-.252.519-.517.761-.793-.096-.123-.193-.24-.29-.356l-.001.002c-.085.066-.203.063-.331.022Z" fill="#E8B17E"/><path opacity=".5" d="M45.953 16.709c.173.12.332.256.489.394.155.14.306.285.453.435l-.097.006c.047-.057.098-.11.146-.165.048-.055.1-.107.15-.161.051-.052.102-.105.155-.155a3.4 3.4 0 0 1 .162-.149 3.634 3.634 0 0 1-.119.191c-.04.063-.083.123-.125.184-.044.06-.086.12-.131.179-.046.058-.089.118-.136.174a.065.065 0 0 1-.096.007v-.001a9.48 9.48 0 0 1-.443-.45 5.427 5.427 0 0 1-.408-.49ZM49.947 17.802c.2.117.386.253.572.39.184.14.363.284.539.435l-.09.008c.053-.061.11-.118.165-.177.056-.06.114-.116.171-.173.058-.056.116-.114.176-.168.059-.055.12-.109.182-.16-.045.07-.092.138-.14.204-.048.067-.098.132-.148.197-.05.064-.1.13-.152.192-.052.062-.103.127-.157.188a.065.065 0 0 1-.09.008v-.001c-.181-.144-.358-.294-.53-.449a6.926 6.926 0 0 1-.498-.494ZM55.908 15.965c-.045.1-.1.19-.157.278a4.035 4.035 0 0 1-.18.255.063.063 0 0 1-.068.024l-.004-.001a3.764 3.764 0 0 1-.369-.131 2.28 2.28 0 0 1-.354-.183c.133.005.261.03.388.06s.252.066.375.11l-.072.022c.066-.079.136-.155.209-.228.073-.072.148-.143.232-.206ZM53.49 18.816c.112.082.214.175.312.272.05.047.096.098.144.147.047.05.093.101.139.153l-.114.016c.032-.063.064-.125.098-.186s.067-.123.104-.183c.072-.12.149-.238.238-.349-.037.141-.087.275-.14.406-.026.066-.056.13-.084.195a7.23 7.23 0 0 1-.09.19c-.02.037-.062.051-.096.031a.071.071 0 0 1-.019-.015 6.276 6.276 0 0 1-.133-.16c-.042-.054-.086-.107-.127-.164a2.97 2.97 0 0 1-.232-.353ZM47.592 20.56c.132.092.254.196.373.303.06.053.118.108.176.163.06.055.114.113.172.17l-.107.013a8.075 8.075 0 0 1 .453-.654c.056-.069.11-.138.17-.203-.033.085-.072.165-.111.247a7.04 7.04 0 0 1-.396.696l-.001.001a.065.065 0 0 1-.096.02l-.01-.01c-.055-.058-.112-.115-.165-.176a5.003 5.003 0 0 1-.458-.571ZM52.395 21.158a1.88 1.88 0 0 1-.122.332c-.05.105-.104.207-.164.304l-.003.004a.064.064 0 0 1-.093.02l-.003-.003a2.64 2.64 0 0 1-.183-.166 1.552 1.552 0 0 1-.165-.193c.08.027.152.065.223.105.07.04.139.085.205.132l-.098.022c.054-.102.115-.199.18-.293.067-.093.137-.184.223-.264ZM44.611 26.073c.04-.044.083-.085.126-.123.021-.02.044-.038.066-.057l.067-.054-.003.042a2.975 2.975 0 0 1-.184-.22c-.02-.027-.038-.053-.055-.08a2.115 2.115 0 0 1 .275.261c.01.01.01.027 0 .038l-.003.003-.07.052-.07.049a1.539 1.539 0 0 1-.149.089ZM38.596 25.863a3.97 3.97 0 0 1 .426-.399l.007.066a3.763 3.763 0 0 1-.486-.283c.178.055.348.132.515.213.017.008.025.031.017.05a.038.038 0 0 1-.01.015c-.15.123-.303.24-.469.338ZM45.71 20.94a4.536 4.536 0 0 1-.043-.607l.053.033c-.161.095-.324.185-.498.255.147-.122.304-.225.463-.322.017-.01.039-.004.048.015a.041.041 0 0 1 .005.018c.002.203-.002.405-.028.608ZM39.966 24.036c.122-.091.25-.168.381-.24l-.001.066a3.777 3.777 0 0 1-.54-.359c.2.078.388.182.573.293a.038.038 0 0 1-.002.066c-.134.066-.269.127-.41.174ZM41.826 27.87c.144-.039.29-.064.435-.082l-.023.062a4.041 4.041 0 0 1-.392-.54c.164.148.306.317.443.491l.001.001a.039.039 0 0 1-.004.052.032.032 0 0 1-.019.008 3.012 3.012 0 0 1-.44.008ZM47.217 26.838a3.18 3.18 0 0 1 .4-.2l-.007.066a3.806 3.806 0 0 1-.506-.414c.193.099.37.222.544.352l.001.001a.039.039 0 0 1 .009.051.032.032 0 0 1-.017.014 3.077 3.077 0 0 1-.424.13ZM46.63 15.68a3.894 3.894 0 0 1-.107-.463l.057.02a3.882 3.882 0 0 1-.468.462c.125-.187.27-.354.42-.515a.032.032 0 0 1 .048 0 .037.037 0 0 1 .01.02c.022.157.038.315.04.475ZM43.172 25.02c.063-.136.145-.257.23-.374l.014.06a2.045 2.045 0 0 1-.36-.2c.135.027.262.075.387.129.018.007.026.03.02.049a2.211 2.211 0 0 1-.29.335ZM47.362 18.31a3.898 3.898 0 0 1-.044-.707l.07.059c-.205.059-.412.11-.628.125a3.14 3.14 0 0 1 .599-.241c.03-.01.06.009.068.04a3.9 3.9 0 0 1-.065.723ZM40.501 25.145c.049-.104.11-.196.176-.286l.011.045a1.553 1.553 0 0 1-.276-.153c.103.02.2.057.297.099.013.006.02.023.015.037a1.667 1.667 0 0 1-.223.258ZM45.763 30.111c.07-.168.151-.327.236-.485.085-.157.175-.311.269-.462l.01.073c-.045-.04-.087-.083-.132-.124l-.13-.128c-.042-.044-.085-.087-.126-.133a2.99 2.99 0 0 1-.121-.138c.05.032.101.066.15.101l.145.107c.047.038.095.074.141.113.046.038.094.075.139.116.02.018.025.049.011.072a8.94 8.94 0 0 1-.28.456c-.099.148-.199.295-.312.433ZM42.906 22.32c.101.016.197.043.293.073.096.03.189.065.281.103.025.01.041.036.043.063v.004c.008.14.007.28.002.42-.007.14-.017.281-.046.422a2.73 2.73 0 0 1-.073-.418 4.737 4.737 0 0 1-.022-.419l.043.067c-.09-.043-.18-.09-.267-.141a2.101 2.101 0 0 1-.254-.173ZM42.475 29.912c.109.035.207.088.303.143.095.057.187.119.275.188l.004.003c.03.023.037.069.015.101l-.002.004c-.05.066-.103.13-.16.192-.057.06-.116.12-.184.172.028-.084.066-.162.105-.237a2.72 2.72 0 0 1 .128-.218l.017.108a2.74 2.74 0 0 1-.265-.205 1.738 1.738 0 0 1-.236-.25Z" fill="#E8B17E"/></svg>