<svg aria-hidden="true" style="position:absolute;width:0;height:0;overflow:hidden" xmlns="http://www.w3.org/2000/svg"><defs><symbol id="fifth-item" viewBox="0 0 51 32"><path fill="none"  stroke-linejoin="round" stroke-linecap="round" stroke-width="2.133" d="m8.178 7.467 17.067-6.044 23.822 8.533-2.844 1.104M1.422 9.956l11.022 4.267m0-.001 12.8 4.978 20.978-8.141m-33.778 3.163v9.6s7.613 3.452 12.8 3.556c5.589.112 13.867-3.556 13.867-3.556V19.2m7.111-8.141v12.763l2.133 2.844v4.267h-4.622V28.8"/></symbol><symbol id="first-item" viewBox="0 0 24 32"><path fill="none"  stroke-linejoin="round" stroke-linecap="round" stroke-width="1.454" d="M23.273.97H.97v22.636l11.318 7.323 10.985-7.323V5.963"/><path fill="none"  stroke-width="1.454" d="M19.882 12.953a7.595 7.595 0 1 1-15.19 0 7.595 7.595 0 0 1 15.19 0z"/><path fill="none"  stroke-linejoin="round" stroke-linecap="round" stroke-width="1.454" d="m9.292 13.702 2.568 2.913 3.424-6.658"/></symbol><symbol id="fourth-item" viewBox="0 0 33 32"><path fill="none"  stroke-linejoin="round" stroke-linecap="round" stroke-width="1.627" d="m23.864 12.759 2.169 2.441 2.441-5.695"/><path fill="none"  stroke-linejoin="round" stroke-linecap="round" stroke-width="1.627" d="M26.034 26.862v3.797H1.085V.828h24.949V3.54m-20.339.813h13.831M5.695 8.15h13.831m-6.509 11.118h6.508m-6.508 3.526h6.508"/><path fill="none"  stroke-width="1.627" d="M31.729 12.217a5.695 5.695 0 1 1-11.39 0 5.695 5.695 0 0 1 11.39 0z"/><path fill="none"  stroke-linejoin="round" stroke-linecap="round" stroke-width="1.627" d="M21.966 16.828v7.051l3.938-1.627 3.656 1.627v-7.051"/></symbol><symbol id="second-item" viewBox="0 0 24 32"><path fill="none"  stroke-linejoin="round" stroke-linecap="round" stroke-width="1.454" d="M23.273 12.181v18.748H.97V.868h22.303v6.465M12.929 4.424h5.818m-5.818 3.879h5.818m-5.818 3.878h5.818M9.051 18h9.697m-9.697 6.141h9.697M4.202 4.424v6.788H9.05V4.424H4.202z"/><path fill="none"  stroke-linejoin="round" stroke-linecap="round" stroke-width=".97" d="m3.879 17.353 1.293 2.263 1.939-4.202m-2.909 8.081 1.293 2.262 1.939-4.202"/></symbol><symbol id="sixth-item" viewBox="0 0 35 32"><path fill="none"  stroke-linejoin="round" stroke-linecap="round" stroke-width="1.684" d="M34.246 30.877H12.913V11.66h3.938m17.395 15.189V11.661h-3.282m0-.001s.657-10.538-6.565-10.538c-8.86 0-7.547 10.538-7.547 10.538m14.112 0H16.85"/><path fill="#0a0070" style="fill:var(--color1, #0a0070)" d="M22.456 18.526c0-.842.49-1.684 1.404-1.684s1.404.842 1.404 1.684c0 .959-1.404 2.105-1.404 2.105s-1.404-1.146-1.404-2.105z"/><path fill="none"  stroke-linejoin="round" stroke-linecap="round" stroke-width="1.123" d="M23.86 20.632s-1.404-1.146-1.404-2.105c0-.842.49-1.684 1.404-1.684s1.404.842 1.404 1.684c0 .959-1.404 2.105-1.404 2.105zm0 0v2.947"/><path fill="none"  stroke-width="1.684" d="M12.07 18.246a3.93 3.93 0 1 1-7.86 0 3.93 3.93 0 0 1 7.86 0zM15.719 30.877H1.122s0-7.298 7.298-7.298c1.991 0 3.439.543 4.491 1.333"/></symbol><symbol id="third-item" viewBox="0 0 29 32"><path fill="none"  stroke-linejoin="round" stroke-linecap="round" stroke-width="1.454" d="M26.597 22.637c.657-1.521 1.04-3.292 1.04-5.153v-.018.001c0-7.364-5.969-13.333-13.333-13.333S.971 10.103.971 17.467 6.94 30.8 14.304 30.8c2.153 0 4.186-.511 5.986-1.416"/><path fill="none"  stroke-width="1.454" d="M24.188 17.467c0 5.459-4.426 9.885-9.885 9.885s-9.885-4.426-9.885-9.885 4.426-9.885 9.885-9.885 9.885 4.426 9.885 9.885z"/><path fill="none"  stroke-linejoin="round" stroke-linecap="round" stroke-width=".97" d="M22.194 18.011h-2.177m-5.714 7.619v-2.448m-5.714-5.171H6.412m7.891-6.531V9.304m-3.151 5.625 1.697 1.455m2.424 0 3.636-3.394m-6.511-9.401L12.127 2.5m0 .001h4.353m-4.354 0h-1.361L10.493.868h7.619l-.544 1.633H16.48m0 0-.273 1.089"/><path fill="none"  stroke-width=".485" d="M15.273 17.353a1.212 1.212 0 1 1-2.425 0 1.212 1.212 0 0 1 2.425 0z"/></symbol></defs></svg>