<svg width="63" height="57" fill="none" xmlns="http://www.w3.org/2000/svg"><path d="M61 55H23V20.77h7.015M61 47.824V20.77h-5.846m0 0S56.324 2 43.46 2C27.678 2 30.016 20.77 30.016 20.77m25.139 0H30.015" stroke="#0A0070" stroke-width="3" stroke-linecap="round" stroke-linejoin="round"/><path d="M40 33c0-1.5.873-3 2.5-3s2.5 1.5 2.5 3c0 1.708-2.5 3.75-2.5 3.75S40 34.708 40 33Z" fill="#0A0070"/><path d="M42.5 36.75S40 34.708 40 33c0-1.5.873-3 2.5-3s2.5 1.5 2.5 3c0 1.708-2.5 3.75-2.5 3.75Zm0 0V42" stroke="#0A0070" stroke-width="2" stroke-linecap="round" stroke-linejoin="round"/><circle cx="14.5" cy="32.5" r="7" stroke="#0A0070" stroke-width="3"/><path d="M28 55H2s0-13 13-13c3.546 0 6.125.967 8 2.374" stroke="#0A0070" stroke-width="3"/></svg>