<svg width="59" height="66" fill="none" xmlns="http://www.w3.org/2000/svg"><path d="M54.856 46.689A27.414 27.414 0 0 0 57 36.026c0-15.188-12.312-27.5-27.5-27.5S2 20.838 2 36.026s12.312 27.5 27.5 27.5c4.44 0 8.634-1.053 12.347-2.921" stroke="#0A0070" stroke-width="3" stroke-linecap="round" stroke-linejoin="round"/><circle cx="29.5" cy="36.026" r="20.388" stroke="#0A0070" stroke-width="3"/><path d="M45.776 37.148h-4.49M29.5 52.862v-5.05M17.714 37.148h-4.49M29.5 23.678V19.19M23 30.791l3.5 3M31.5 33.791l7.5-7M25.571 7.403l-.56-2.245m0 0h8.979m-8.98 0h-2.806l-.561-3.367h15.714l-1.122 3.367H33.99m0 0-.562 2.245" stroke="#0A0070" stroke-width="2" stroke-linecap="round" stroke-linejoin="round"/><circle cx="29" cy="35.791" r="2.5" stroke="#0A0070"/></svg>