<svg width="323" height="507" viewBox="0 0 323 507" fill="none" xmlns="http://www.w3.org/2000/svg">
<rect y="41.2107" width="140.625" height="150" transform="rotate(-17.0409 0 41.2107)" fill="#30D4FE"/>
<path d="M79.5186 172.679L0 41.2106L23.4244 34.0308L77.3263 126.285L81.1507 125.113L90.6329 92.9206L117.004 114.123L121.307 112.805L108.517 7.94907L134.331 0.0366259L145.011 152.605L122.543 159.492L96.494 112.043L103.421 165.353L79.5186 172.679Z" fill="#FC7387"/>
<rect x="147.294" y="114" width="140.625" height="150" transform="rotate(12.4327 147.294 114)" fill="#8900FA"/>
<path d="M178.705 175.894L190.262 123.473L236.16 133.592L224.603 186.013L178.705 175.894Z" fill="#0A0070"/>
<path d="M158.183 268.979L168.66 221.457L214.558 231.575L204.081 279.097L158.183 268.979Z" fill="#0A0070"/>
<rect x="26" y="269.721" width="140.625" height="150" transform="rotate(-15.5595 26 269.721)" fill="#273CFD"/>
<rect x="186.673" y="325" width="140.625" height="150" transform="rotate(14.9407 186.673 325)" fill="#FC7387"/>
<path d="M100.821 337.121L26 269.721L63.5707 259.26L108.535 303.313L127.152 241.556L161.351 232.034L132.13 328.403L149.298 390.058L117.989 398.776L100.821 337.121Z" fill="#30D4FE"/>
<path d="M265.285 369.782L242.579 363.723L240.13 372.902L217.908 366.972L226.287 335.571L234.982 337.891L295.37 354.005L290.471 372.362L278.998 415.358L240.311 445.917L236.315 460.893L213.127 454.705L220.088 428.618L256.648 402.149L265.285 369.782Z" fill="#0A0070"/>
<path d="M205.134 484.657L209.646 467.749L232.835 473.936L228.323 490.845L205.134 484.657Z" fill="#0A0070"/>
</svg>
