<svg width="33" height="33" viewBox="0 0 33 33" fill="none" xmlns="http://www.w3.org/2000/svg">
<path d="M22.751 17.996C23.0464 17.9959 23.339 18.0539 23.612 18.1669C23.8849 18.2799 24.133 18.4455 24.3419 18.6544C24.5509 18.8632 24.7166 19.1112 24.8297 19.3841C24.9428 19.657 25.001 19.9496 25.001 20.245V21.163C25.0009 21.7365 24.8215 22.2955 24.488 22.762C22.942 24.925 20.417 25.996 16.997 25.996C13.575 25.996 11.052 24.924 9.51 22.759C9.17832 22.2933 9.00006 21.7358 9 21.164V20.244C8.99987 19.9486 9.05794 19.656 9.17091 19.383C9.28387 19.1101 9.44951 18.862 9.65836 18.6531C9.86722 18.4441 10.1152 18.2784 10.3881 18.1653C10.661 18.0522 10.9536 17.994 11.249 17.994H22.75L22.751 17.996ZM16.997 6C18.3231 6 19.5949 6.52678 20.5325 7.46447C21.4702 8.40215 21.997 9.67392 21.997 11C21.997 12.3261 21.4702 13.5979 20.5325 14.5355C19.5949 15.4732 18.3231 16 16.997 16C15.6709 16 14.3991 15.4732 13.4615 14.5355C12.5238 13.5979 11.997 12.3261 11.997 11C11.997 9.67392 12.5238 8.40215 13.4615 7.46447C14.3991 6.52678 15.6709 6 16.997 6V6Z" fill="#273CFD"/>
<circle cx="16.5" cy="16.5" r="16" stroke="#273CFD"/>
</svg>
