<svg width="26" height="23" fill="none" xmlns="http://www.w3.org/2000/svg"><path d="M9.668.69a9.165 9.165 0 0 0-8.306 13.045 83.208 83.208 0 0 0-.832 3.84 1.217 1.217 0 0 0 1.409 1.43 84.32 84.32 0 0 0 3.954-.795A9.165 9.165 0 1 0 9.668.69ZM9.62 20.242a9.132 9.132 0 0 0 6.232 2.444 9.14 9.14 0 0 0 3.774-.81c1.274.298 2.671.596 3.56.782a1.52 1.52 0 0 0 1.792-1.833c-.198-.859-.51-2.193-.82-3.425a9.17 9.17 0 0 0-5.308-12.543c.433.788.762 1.63.977 2.503a7.325 7.325 0 0 1 3.357 6.161 7.282 7.282 0 0 1-.813 3.357l-.158.31.085.337c.279 1.093.57 2.321.785 3.238-.946-.2-2.222-.477-3.349-.746l-.322-.075-.297.147a7.302 7.302 0 0 1-3.263.764 7.3 7.3 0 0 1-3.568-.924c-.87.22-1.766.324-2.664.313Z" fill="#0A0070"/></svg>