<svg width="24" height="26" fill="none" xmlns="http://www.w3.org/2000/svg"><path d="M11.712.69c-1.898 0-6.594.2-9.091 2.59C.823 4.973.123 7.563.023 10.65c-.2 4.881.9 7.969 2.698 9.562.4.3 1.398 1.096 3.296 1.694v2.49s0 .996.6 1.195c.1 0 .2.1.3.1.599 0 1.099-.698 1.798-1.395.6-.697 1.099-1.195 1.399-1.693h2.197c1.899 0 6.594-.2 9.091-2.59 1.799-1.793 2.498-4.382 2.498-7.67.1-.497.1-1.095.1-1.692-.1-3.686-1.199-6.176-2.697-7.57-.6-.498-3.197-2.39-8.792-2.39h-.799Zm-.2 1.893h.9c5.294 0 7.292 1.693 7.492 1.892 1.199.996 1.898 3.188 1.998 6.076v.398c.1.598.1 1.096.1 1.395-.1 2.988-.7 4.98-1.898 6.275-2.098 1.892-6.494 1.992-7.693 1.992h-1.898l-1.598 1.793-1 1.095-.2.299c-.199.2-.499.598-.698.697v-4.482c-1.999-.498-2.798-1.195-2.998-1.394-1.398-1.195-2.197-4.084-1.998-7.968v-.996c.2-2.39.8-3.984 1.799-5.08 2.098-1.893 6.493-1.992 7.692-1.992Zm-.1 2.191c-.5 0-.5.697 0 .697 3.697 0 6.893 2.49 6.893 7.172 0 .498.7.498.7 0 0-5.08-3.397-7.969-7.593-7.869Zm-3.959.921a.876.876 0 0 0-.635.174c-1 .498-2 1.496-1.7 2.591 0 0 .2.896 1.3 2.788.599.897 1.098 1.693 1.598 2.291.5.697 1.298 1.494 2.098 2.092 1.598 1.294 4.095 2.59 5.194 2.888 1 .299 2.098-.697 2.598-1.693.2-.399.1-.896-.3-1.195-.6-.598-1.598-1.295-2.298-1.694-.5-.298-1.098-.1-1.298.2l-.5.597c-.2.3-.7.3-.7.3-3.296-.897-4.195-4.284-4.195-4.284s0-.398.3-.697l.6-.498c.299-.2.499-.797.199-1.295-.2-.299-.5-.896-.8-1.195-.299-.398-.898-1.096-.898-1.096a.962.962 0 0 0-.563-.274Zm4.659 1.071c-.5-.1-.6.697-.1.697 2.797.2 4.395 2.092 4.296 4.482-.1.498.699.498.699 0 .1-2.788-1.699-5.08-4.895-5.179Zm.3 1.893c-.5-.1-.5.697 0 .697 1.198 0 1.797.697 1.797 1.892.1.498.8.498.8 0-.1-1.593-1-2.59-2.598-2.59Z" fill="#8900FA"/></svg>