<svg width="71" height="81" fill="none" xmlns="http://www.w3.org/2000/svg"><ellipse cx="31.328" cy="9.5" rx="7.959" ry="8.704" fill="#8900FA" fill-opacity=".5"/><path d="M49.174 44.535c1.77-.167 3.567-.334 5.327-.103 1.76.231 3.503.923 4.458 2.128.801 1.013.958 2.27 1.094 3.456l1.166 10.245c.1.868.188 1.77-.163 2.595-.777 1.806-3.638 2.658-5.92 2.095a6.779 6.779 0 0 1-2.783-1.426 7.576 7.576 0 0 1-1.96-2.59c-.814-1.795-.917-3.739-1.012-5.645l-.519-10.381.23-.165" fill="#263238"/><path d="m0 62.237.549 2.111L52.969 81 71 67.984V66.21L0 62.237Z" fill="#0F0B32"/><path d="M18.804 52.684 71 66.21 52.97 79.079 0 62.238l18.804-9.554Z" fill="#273CFD"/><path d="m46.342 64.296-9.983 5.279-18.302-5.46 8.985-5.369 19.3 5.55Z" fill="#0F0B32"/><path d="m35.335 64.074 2.65.957 2.455-1.458-4.085-1.434-2.384 1.353 1.364.582Z" fill="#455A64"/><path d="M15.727 49.374c.083.363 2.33 14.741 2.33 14.741l18.299 5.46-2.41-15.38-18.219-4.82Z" fill="#0F0B32"/><path d="M35.027 61.084c.027 0 .347 1.892.715 4.236s.646 4.25.617 4.255c-.028.004-.345-1.892-.713-4.237-.368-2.343-.645-4.25-.619-4.254ZM26.535 59.095c.222.63 0 1.308-.495 1.519-.494.21-1.075-.13-1.298-.76-.222-.629 0-1.308.493-1.518.492-.21 1.077.13 1.3.76Z" fill="#455A64"/><path d="M33.947 54.194c.814-1.031 1.288-8.047 1.288-8.047l6.037.743s-.87 10.278-3.628 11.512l-2.76 1.238" fill="#FFBE9D"/><path d="M53.779 56.396s2.67 3.275 2.51 6.002l-4.74-1.238 1.828-4.772" fill="#FF725E"/><path d="M57.587 47.233c-.117-5.735-2.188-8.54-2.273-8.904a8.232 8.232 0 0 0-2.739-2.146 7.577 7.577 0 0 0-3.297-.755l-5.628.099c-1.445.188-2.852.64-4.161 1.335l-.14.043v.031c-1.592.91-3.301 2.326-3.57 4.713l-.682 4.649 3.913.206c-.398 1.556-.838 1.756-.378 3.291l1.49 2.705c0 2.157-.131.85-.737 5.528l15.114 3.92c.877-.944.21-3.507-2.13-8.164-.349-.698 1.464-7.713 1.464-7.713l3.377 1.281" fill="#FC7387"/><path d="M39.893 44.726c-.038.101-.083.2-.136.293-.095.185-.23.45-.39.782-.31.662-.742 1.621-.784 2.767a3.766 3.766 0 0 0 .259 1.558c.168.397.383.769.64 1.105.216.291.405.514.533.673.07.077.133.16.189.25a2.011 2.011 0 0 1-.217-.23c-.136-.148-.334-.364-.566-.653a4.847 4.847 0 0 1-.668-1.113 3.766 3.766 0 0 1-.275-1.603 5.526 5.526 0 0 1 .303-1.595c.145-.414.317-.817.517-1.203.168-.33.315-.59.417-.767.053-.093.112-.182.178-.264ZM57.038 42.272l-.043.041c-.03.025-.073.066-.134.114a2.272 2.272 0 0 1-.586.311c-.538.207-1.398.238-2.372-.084-.486-.157-1.002-.388-1.554-.62a6.168 6.168 0 0 0-1.819-.513 5.371 5.371 0 0 0-2.056.227c-.72.224-1.428.49-2.122.796-.698.309-1.414.566-2.143.768a5.188 5.188 0 0 1-2.096.132 7.208 7.208 0 0 1-1.813-.619c-.547-.256-1.05-.504-1.53-.675a4.768 4.768 0 0 0-1.32-.282c-.34-.021-.682.017-1.011.111-.28.09-.546.23-.785.413 0 0 .013-.015.043-.042.03-.026.076-.064.138-.109.184-.127.384-.226.592-.295.334-.104.68-.149 1.026-.132.457.023.91.114 1.344.27.484.167.992.413 1.539.665a7.277 7.277 0 0 0 1.796.619c.689.094 1.388.047 2.062-.139a15.448 15.448 0 0 0 2.13-.765 19.454 19.454 0 0 1 2.131-.797 5.438 5.438 0 0 1 2.09-.224 6.2 6.2 0 0 1 1.838.528c.554.235 1.064.468 1.545.63.962.325 1.807.302 2.34.117a2.61 2.61 0 0 0 .77-.446Z" fill="#263238"/><path d="M52.398 52.523a.539.539 0 0 1-.121.052l-.355.123a8.83 8.83 0 0 1-1.335.35 4.491 4.491 0 0 1-.944.061 4.179 4.179 0 0 1-1.077-.206c-.741-.236-1.492-.667-2.312-1.01-.401-.161-.812-.29-1.23-.385a8.546 8.546 0 0 0-1.183-.163 7.845 7.845 0 0 0-3.334.549c-.152.053-.267.113-.347.144a.532.532 0 0 1-.124.046c.038-.025.077-.047.117-.067.077-.037.189-.1.341-.163.427-.189.87-.334 1.32-.433a7.605 7.605 0 0 1 2.03-.175c.403.024.803.077 1.198.159.424.095.84.225 1.245.39.83.344 1.576.775 2.306 1.013.343.114.697.183 1.054.206.315.017.631.001.944-.047.45-.075.895-.18 1.333-.314l.36-.105a.515.515 0 0 1 .114-.025ZM45.544 58.577a.887.887 0 0 1-.25-.029 5.287 5.287 0 0 1-.672-.173c-.566-.17-1.302-.52-2.147-.793a4.01 4.01 0 0 0-2.216-.132c-.3.089-.586.224-.851.4 0 0 .013-.02.047-.049a2.169 2.169 0 0 1 .787-.425c.566-.184 1.403-.171 2.264.103.86.275 1.586.636 2.139.826.275.097.502.165.658.206.082.014.163.036.242.066Z" fill="#263238"/><path opacity=".1" d="M52.52 45.966s-2.463 5.94-.315 9.823l1.008-.412-.844-1.61a1.962 1.962 0 0 1-.028-.747c.125-.846.364-2.226.685-3.617l-.506-3.437Z" fill="#000"/><path d="M48.408 24.523c1.215 1.16 1.756 2.983 1.796 4.746.04 1.762-.102 3.761-.064 5.6l2.463-.054c1.628.054 3.473-.134 5.032-.266.26.003.517-.069.745-.206.358-.267.44-.797.488-1.267.078-.741.151-1.507-.043-2.22-.194-.715-.734-1.373-1.413-1.426-.24-.019-.49.037-.713-.062a.927.927 0 0 1-.32-.297 1.036 1.036 0 0 1-.161-.424c-.062-.3-.053-.618-.095-.92a2.69 2.69 0 0 0-.518-1.237 2.36 2.36 0 0 0-1.023-.774c-.505-.188-1.115-.207-1.447-.67-.403-.554-.14-1.357-.117-2.063.015-.49-.099-.975-.328-1.397a2.455 2.455 0 0 0-.964-.985c-.4-.222-.85-.313-1.297-.264-.447.05-.87.238-1.223.542" fill="#14181B"/><path d="M46.503 38.804a2.76 2.76 0 0 1-1.992-.88 3.294 3.294 0 0 1-.883-2.141 564.706 564.706 0 0 1-.096-2.645s-2.376-.242-2.545-2.803c-.17-2.56-.098-8.472-.098-8.472a7.57 7.57 0 0 1 4.193-.94c1.45.1 2.849.622 4.052 1.512l.364.27-.107 12.97a3.309 3.309 0 0 1-.856 2.215 2.765 2.765 0 0 1-2.032.914Z" fill="#FFBE9D"/><path d="M41.93 26.72a.406.406 0 0 0 .074-.407.368.368 0 0 0-.126-.167.32.32 0 0 0-.38 0c-.055.041-.099.1-.125.168a.406.406 0 0 0 .074.407.34.34 0 0 0 .11.081.315.315 0 0 0 .373-.081ZM41.089 25.937c.04.043.258-.168.58-.19.323-.023.567.142.6.095.035-.048-.024-.1-.131-.178a.748.748 0 0 0-.944.076c-.094.096-.124.186-.105.197ZM44.822 26.155a.37.37 0 0 0-.122.171.408.408 0 0 0-.015.217.385.385 0 0 0 .097.189c.05.05.11.085.177.098a.314.314 0 0 0 .197-.027.352.352 0 0 0 .15-.142.4.4 0 0 0-.009-.415.34.34 0 0 0-.22-.153.318.318 0 0 0-.255.062ZM44.609 26.015c.04.044.258-.167.58-.19.323-.022.566.143.6.095.034-.047-.024-.099-.13-.177a.742.742 0 0 0-.943.076c-.096.095-.126.178-.107.197ZM43.464 28.757c-.17-.061-.35-.09-.529-.085-.084 0-.152-.02-.16-.07a.524.524 0 0 1 .046-.268l.215-.735c.294-1.046.494-1.906.445-1.923-.05-.016-.327.826-.623 1.857-.068.256-.134.5-.2.739a.644.644 0 0 0-.024.388.245.245 0 0 0 .061.088.218.218 0 0 0 .091.05c.048.01.097.014.146.01.328.007.532-.022.532-.051Z" fill="#263238"/><path d="M44.535 29.077c.325-.242-.896.6-1.554.619.12.178.29.306.486.363a.82.82 0 0 0 .587-.047c.687-.337.481-.935.481-.935Z" fill="#fff"/><path d="M43.518 33.1a5.157 5.157 0 0 0 3-1.155s-.617 1.894-2.968 1.82l-.032-.665Z" fill="#EB996E"/><path d="M49.334 27.99c-.847.747-1.873-1.187-2.328-2.398-.454-1.211-.594-2.552-.66-3.875-.023-.433-.026-.908.204-1.248.23-.34.326.057.617-.256.5-.54.024-.543.524-.477.855.114 2.716 1.733 2.873 2.713.157.98.03 1.987-.096 2.974-.059.45-.117.901-.174 1.351-.02.32-.104.631-.245.912-.157.264-.464.436-.715.304Z" fill="#14181B"/><path d="M49.364 25.87c0-.1.035-.195.098-.268a.342.342 0 0 1 .24-.12c.438-.012 1.153.178 1.22 1.498.097 1.884-1.561 1.414-1.567 1.36-.006-.053.006-1.735.01-2.47Z" fill="#FFBE9D"/><path d="M49.734 27.6s.032.02.083.043a.27.27 0 0 0 .225 0c.179-.085.317-.413.307-.75a1.163 1.163 0 0 0-.107-.466.388.388 0 0 0-.094-.15.342.342 0 0 0-.146-.087.138.138 0 0 0-.103.016.16.16 0 0 0-.069.085c-.02.054 0 .091-.017.095-.017.004-.04-.03-.028-.11a.213.213 0 0 1 .06-.12.214.214 0 0 1 .165-.059c.071.011.139.042.196.09.058.047.103.11.132.183.082.159.128.337.132.52 0 .38-.153.747-.398.84a.287.287 0 0 1-.276-.034c-.056-.051-.067-.092-.062-.097Z" fill="#EB996E"/><path d="M46.54 20.48a6.19 6.19 0 0 1-1.239 2.328 5.524 5.524 0 0 1-2.041 1.506.403.403 0 0 1-.408 0c-.143-.123-.088-.383.033-.534.12-.15.288-.256.377-.431l-.877.542a1.34 1.34 0 0 1-.453.207.44.44 0 0 1-.244-.013.478.478 0 0 1-.207-.142.33.33 0 0 1-.065-.249.341.341 0 0 1 .042-.124.31.31 0 0 1 .083-.095c-.198.354-.705.387-.998.121a1.155 1.155 0 0 1-.284-.529 1.23 1.23 0 0 1 .01-.614c.117-.398.33-.755.616-1.031 1.213-1.292 2.977-1.76 4.665-1.886a4.946 4.946 0 0 1 1.56.074c.51.124 1.298.078 2.217 1.178" fill="#14181B"/><path d="M42.394 24.973c-.019.06-.326-.017-.706 0-.379.017-.686.093-.707.037-.02-.056.281-.244.702-.252.42-.008.732.163.71.215ZM45.84 25.016c-.018.058-.317-.014-.683-.033-.365-.018-.667.017-.682-.043-.015-.06.292-.194.692-.172.4.023.692.194.673.248Z" fill="#263238"/><path d="M50.351 23.91c-.028-.018.064-.206.13-.528a2.473 2.473 0 0 0-.062-1.257 2.293 2.293 0 0 0-.683-1.013c-.24-.206-.42-.282-.41-.315.012-.034.21 0 .49.191.365.247.643.623.788 1.065.145.442.15.925.011 1.37-.107.336-.247.502-.264.487Z" fill="#455A64"/><path d="m52.52 45.966 1.344 9.147-10.815 4.417 1.75 3.95 11.381-3.89c.897-.308 1.66-.964 2.146-1.844.486-.88.662-1.923.495-2.935l-1.454-8.841-4.847-.004Z" fill="#FFBE9D"/><path d="M43.115 59.503s-2.013-.701-2.979-.971c-.377-.106-1.986.825-3.1 1.597 0 0-1.531.994-1.407 1.3.136.338.702.268 1.602-.195 0 0-.315.997.304.976 0 0-.308 1.08.271 1.191.58.111.715-1.265 1.225-1.34.509-.073 1.565-.148 1.565-.148s.878 1.591 1.559 1.703c.68.111 2.708-.14 2.708-.14l-1.748-3.973Z" fill="#FFBE9D"/><path d="M39.04 59.941c-.49.423-1.02.788-1.581 1.09.233-.224.486-.422.755-.59.258-.198.535-.365.826-.5ZM39.214 60.554a5.553 5.553 0 0 1-.929.528c-.31.176-.633.32-.967.43.292-.209.602-.386.926-.529.31-.176.635-.32.97-.43ZM38.9 62.035a2.097 2.097 0 0 1-.645.151 2.102 2.102 0 0 1-.664.056c.207-.086.424-.138.645-.153.218-.054.442-.072.664-.054Z" fill="#EB996E"/><path d="M32.992 9.619H16.808V32.19h16.184V9.62Z" fill="#FAFAFA"/><path d="M32.992 32.19v-1.663c0-1.073 0-2.637-.011-4.622 0-3.966-.014-9.6-.021-16.3l.043.047H16.821l.05-.054c0 8.367 0 16.136-.01 22.572l-.04-.046 11.741.025 3.28.01h1.163-1.147l-3.27.01-11.767.024h-.041V9.524h16.276v.101c0 6.708-.017 12.356-.02 16.328 0 1.98-.01 3.543-.014 4.612v1.528c0 .073-.03.097-.03.097Z" fill="#263238"/><path d="M30.905 13.362c0 .06-1.366.108-3.048.108-1.683 0-3.05-.048-3.05-.108s1.365-.107 3.05-.107c1.684 0 3.048.047 3.048.107ZM30.905 14.666c0 .06-1.366.11-3.048.11-1.683 0-3.05-.05-3.05-.11s1.365-.107 3.05-.107c1.684 0 3.048.05 3.048.107ZM30.905 16.166c0 .06-1.366.108-3.048.108-1.683 0-3.05-.048-3.05-.108s1.365-.107 3.05-.107c1.684 0 3.048.047 3.048.107ZM23.769 19.311c0 .06-1.205.108-2.694.108-1.488 0-2.696-.048-2.696-.108s1.208-.107 2.696-.107c1.489 0 2.694.047 2.694.107ZM23.769 20.617c0 .058-1.205.108-2.694.108-1.488 0-2.696-.05-2.696-.108 0-.058 1.208-.107 2.696-.107 1.489 0 2.694.051 2.694.107ZM23.769 22.115c0 .06-1.205.108-2.694.108-1.488 0-2.696-.048-2.696-.108s1.208-.107 2.696-.107c1.489 0 2.694.047 2.694.107ZM23.769 23.683c0 .06-1.205.108-2.694.108-1.488 0-2.696-.048-2.696-.108s1.208-.107 2.696-.107c1.489 0 2.694.048 2.694.107ZM23.769 24.99c0 .057-1.205.107-2.694.107-1.488 0-2.696-.05-2.696-.108 0-.058 1.208-.107 2.696-.107 1.489 0 2.694.047 2.694.107ZM23.769 26.488c0 .06-1.205.107-2.694.107-1.488 0-2.696-.048-2.696-.107 0-.06 1.208-.108 2.696-.108 1.489 0 2.694.047 2.694.108ZM23.769 28.056c0 .06-1.205.107-2.694.107-1.488 0-2.696-.047-2.696-.107s1.208-.108 2.696-.108c1.489 0 2.694.041 2.694.108ZM23.769 29.362c0 .058-1.205.107-2.694.107-1.488 0-2.696-.05-2.696-.107 0-.058 1.208-.107 2.696-.107 1.489 0 2.694.047 2.694.107ZM31.215 29.362c0 .058-1.32.107-2.936.107-1.614 0-2.935-.05-2.935-.107 0-.058 1.32-.107 2.935-.107s2.936.047 2.936.107ZM31.098 24.99c0 .057-1.32.107-2.936.107-1.614 0-2.935-.05-2.935-.108 0-.058 1.32-.107 2.935-.107s2.936.047 2.936.107ZM31.098 26.294c0 .06-1.32.107-2.936.107-1.614 0-2.935-.047-2.935-.107s1.32-.108 2.935-.108 2.936.048 2.936.108ZM31.098 27.794c0 .058-1.32.107-2.936.107-1.614 0-2.935-.05-2.935-.107 0-.058 1.32-.108 2.935-.108s2.936.048 2.936.108Z" fill="#263238"/><path d="M30.704 18.45H25.53v4.255h5.173v-4.254Z" fill="#FC7387"/><path opacity=".3" d="m25.531 21.412 1.33-.968 1.418.968 1.525-1.23.902.615v1.908H25.53v-1.293ZM28.787 19.672c0 .1-.027.2-.078.284a.478.478 0 0 1-.209.188.429.429 0 0 1-.269.03.456.456 0 0 1-.239-.139.554.554 0 0 1-.102-.556.503.503 0 0 1 .172-.229.438.438 0 0 1 .259-.086c.123.001.241.055.328.15a.537.537 0 0 1 .138.358Z" fill="#000"/><path d="m22.275 13.191.036.867h-.095a1.22 1.22 0 0 0-.073-.328.533.533 0 0 0-.206-.232.651.651 0 0 0-.338-.076h-.475v2.82a.81.81 0 0 0 .068.426c.038.04.084.071.134.09.05.02.104.028.157.023h.116v.102h-1.431v-.102h.12a.322.322 0 0 0 .168-.028.355.355 0 0 0 .136-.112.913.913 0 0 0 .055-.398v-2.82h-.412a.99.99 0 0 0-.335.038.476.476 0 0 0-.223.207.883.883 0 0 0-.11.398h-.086l.04-.867 2.754-.008Z" fill="#263238"/></svg>