<svg width="110" height="79" fill="none" xmlns="http://www.w3.org/2000/svg"><ellipse cx="92.114" cy="17.375" rx="17.886" ry="17.375" fill="#8900FA" fill-opacity=".5"/><ellipse cx="9.838" cy="66.46" rx="9.837" ry="9.556" fill="#FFE06B"/><path d="M93.035 8.237H11.564a2.58 2.58 0 0 0-1.798.723 2.435 2.435 0 0 0-.745 1.747v55.911c0 .655.268 1.284.745 1.747a2.58 2.58 0 0 0 1.798.723h31.269s1.988 5.976-4.177 9.067h29.236s-6.96-2.317-5.172-9.067h30.315a2.58 2.58 0 0 0 1.798-.723 2.435 2.435 0 0 0 .744-1.747V10.707c0-.655-.267-1.283-.744-1.747a2.58 2.58 0 0 0-1.798-.723Z" fill="#0A0070"/><path d="M53.386 63.208c1.112 1.539-.626 3.224-2.21 2.147a.545.545 0 0 1-.136-.133c-1.112-1.537.626-3.22 2.21-2.146.054.035.1.08.136.132Z" fill="#455A64" fill-opacity=".59"/><path d="M92.964 11.59H11.465a.597.597 0 0 0-.606.588v46.49c0 .325.271.588.606.588h81.499a.598.598 0 0 0 .606-.589V12.178a.597.597 0 0 0-.606-.589Z" fill="#E0E0E0"/><path d="M93.57 15.08H10.86v44.174h82.71V15.08Z" fill="#fff"/><path d="M17.642 13.43a.63.63 0 0 1-.11.357.657.657 0 0 1-.298.237.68.68 0 0 1-.721-.138.626.626 0 0 1-.143-.701.647.647 0 0 1 .244-.29.675.675 0 0 1 .835.08c.123.121.193.284.193.454ZM13.639 13.43a.63.63 0 0 1-.11.357.657.657 0 0 1-.297.237.68.68 0 0 1-.722-.138.626.626 0 0 1-.144-.7.647.647 0 0 1 .244-.29.675.675 0 0 1 .979.287c.033.078.05.162.05.246ZM15.555 13.43a.631.631 0 0 1-.11.357.658.658 0 0 1-.297.237.68.68 0 0 1-.721-.138.625.625 0 0 1-.144-.7.647.647 0 0 1 .243-.29.675.675 0 0 1 .979.287c.033.078.05.162.05.246Z" fill="#455A64"/><path d="M69.171 10.484h-34.34v55.28h34.34v-55.28Z" fill="#F5F5F5"/><path d="m43.94 43.037.369.717.824.119-.597.557.14.791-.736-.374-.736.374.143-.791-.596-.557.821-.119.368-.717ZM48.03 43.037l.369.717.824.119-.596.557.14.791-.736-.374-.736.374.14-.791-.596-.557.824-.119.368-.717ZM52.118 43.037l.368.717.824.119-.596.557.14.791-.736-.374-.733.374.14-.791-.596-.557.821-.119.368-.717ZM56.208 43.037l.369.717.823.119-.596.557.14.791-.736-.374-.736.374.14-.791-.596-.557.824-.119.368-.717ZM60.295 43.037l.369.717.823.119-.596.557.14.791-.736-.374-.733.374.14-.791-.596-.557.824-.119.365-.717ZM50.599 49.516c0 .042-2.606.073-5.823.073-3.217 0-5.823-.031-5.823-.073 0-.043 2.606-.074 5.823-.074 3.217 0 5.823.034 5.823.074Z" fill="#FC7387"/><path d="M65.233 51.968c0 .04-5.814.074-12.986.074-7.173 0-12.987-.034-12.987-.074 0-.04 5.814-.073 12.987-.073 7.172 0 12.986.017 12.986.073ZM65.233 54.045c0 .04-5.814.073-12.986.073-7.173 0-12.987-.034-12.987-.073 0-.04 5.814-.073 12.987-.073 7.172 0 12.986.033 12.986.073ZM65.233 56.14c0 .04-5.814.074-12.986.074-7.173 0-12.987-.034-12.987-.073 0-.04 5.814-.074 12.987-.074 7.172 0 12.986.031 12.986.074ZM65.233 58.23c0 .043-5.814.074-12.986.074-7.173 0-12.987-.03-12.987-.073s5.814-.074 12.987-.074c7.172 0 12.986.034 12.986.074ZM65.233 60.327c0 .04-5.814.073-12.986.073-7.173 0-12.987-.034-12.987-.073 0-.04 5.814-.073 12.987-.073 7.172 0 12.986.03 12.986.073Z" fill="#263238"/><path d="M66.67 13.291H37.09v27.362h29.58V13.29Z" fill="#E0E0E0"/><path d="m62.276 35.883 1.922 4.772h-4.656l-1.05-2.598 3.784-2.174Z" fill="#FFBE9D"/><path d="M44.545 40.654h12.613c.196-1.796.318-3.493.318-3.493l.649 1.689 5.297-2.553s-1.925-4.946-3.538-6.621c-2.045-2.12-5.7-1.909-5.7-1.909l-4.756.076a11.364 11.364 0 0 0-3.506.985l-.117.034v.023c-1.029.844-4.12 4.836-4.12 4.836l1.14 1.067 2.337 2.097a.051.051 0 0 0 0 .042c.017.228-.617 3.727-.617 3.727Z" fill="#FC7387"/><path d="M54.318 27.604s.015.028.026.081c.017.08.028.16.032.242a2.34 2.34 0 0 1-.128.89 2.53 2.53 0 0 1-.774 1.106 2.668 2.668 0 0 1-1.584.572 2.678 2.678 0 0 1-1.616-.484 2.57 2.57 0 0 1-.835-1.065 2.333 2.333 0 0 1-.178-.88 1.288 1.288 0 0 1 .017-.246c0-.053.015-.081.02-.081.004.4.086.796.24 1.168.182.393.464.735.821.994a2.58 2.58 0 0 0 1.528.448 2.57 2.57 0 0 0 1.499-.53c.341-.276.603-.633.76-1.036.134-.379.192-.78.172-1.18ZM58.823 28.691c0 .014-.128 0-.336.085a1.64 1.64 0 0 0-.736.535 2.513 2.513 0 0 0-.476 1.241c-.07.504-.085 1.073-.108 1.664a30.53 30.53 0 0 0 .073 3.04c.026.363.052.67.07.918.02.112.024.227.014.34a1.72 1.72 0 0 1-.073-.332c-.032-.217-.079-.53-.12-.918a23.207 23.207 0 0 1-.116-3.051c.01-.565.05-1.129.122-1.69.052-.467.236-.912.532-1.286.204-.25.484-.433.8-.523a.994.994 0 0 1 .26-.04c.062.009.094.012.094.017ZM47.516 28.18a1.88 1.88 0 0 1-.087.344c-.08.247-.175.563-.292.926a76.736 76.736 0 0 0-1.66 6.162c-.088.374-.16.69-.219.943-.02.118-.051.233-.096.343.001-.119.014-.237.038-.354.035-.225.093-.563.17-.952a47.343 47.343 0 0 1 1.664-6.173c.135-.389.249-.698.333-.912.038-.114.088-.223.15-.327Z" fill="#263238"/><path opacity=".2" d="m57.082 32.544 1.753 5.985-.699.337-.648-1.688s-.643-3.564-.406-4.634ZM47.721 28.183c-1.014.495 1.475 1.78 2.612 1.768l-.771-2.128s-1.502.194-1.841.36Z" fill="#000"/><path d="M52.001 30.362a2.601 2.601 0 0 1-1.036-.143 2.53 2.53 0 0 1-.887-.536 2.42 2.42 0 0 1-.583-.838 2.344 2.344 0 0 1-.179-.994c.03-.78.056-1.408.056-1.408s-2.007-.169-2.165-2.08c-.158-1.911-.123-6.328-.123-6.328a7.14 7.14 0 0 1 6.995.391l.31.197-.039 9.34a2.38 2.38 0 0 1-.686 1.643 2.559 2.559 0 0 1-1.663.756Z" fill="#FFBE9D"/><path d="M48.163 21.403a.272.272 0 0 0 .068-.308.285.285 0 0 0-.108-.127.3.3 0 0 0-.327 0 .285.285 0 0 0-.108.127.272.272 0 0 0 .068.308.297.297 0 0 0 .407 0ZM47.283 20.832c.032.031.216-.124.49-.144.275-.02.483.105.509.068.026-.037-.02-.073-.111-.133a.714.714 0 0 0-.412-.095.688.688 0 0 0-.389.158c-.078.07-.105.132-.087.146ZM50.657 20.981a.284.284 0 0 0-.105.13.273.273 0 0 0 .072.306.296.296 0 0 0 .321.051.29.29 0 0 0 .128-.108.274.274 0 0 0-.013-.314.3.3 0 0 0-.403-.065ZM50.175 20.84c.035.03.22-.128.494-.147.275-.02.48.104.508.067.03-.036-.02-.073-.114-.13a.664.664 0 0 0-.409-.095.667.667 0 0 0-.388.155c-.082.073-.105.135-.09.15ZM49.304 23.161a1.41 1.41 0 0 0-.45-.059c-.072 0-.128-.017-.137-.053a.363.363 0 0 1 .038-.2l.178-.563c.173-.467.298-.949.371-1.439a6.933 6.933 0 0 0-.52 1.394c-.058.191-.114.374-.166.563a.43.43 0 0 0-.02.281c.011.026.03.05.052.067.023.018.05.031.079.037.04.007.082.007.123 0 .151.017.304.007.453-.028Z" fill="#263238"/><path d="M49.369 26.405a4.732 4.732 0 0 0 2.539-.879s-.517 1.408-2.51 1.374l-.03-.495Z" fill="#EB996E"/><path d="M54.3 20.649c.038-.015 1.625-.18 1.373 1.297-.216 1.275-1.642.887-1.639.845.003-.043.266-2.142.266-2.142Z" fill="#FFBE9D"/><path d="M54.59 22.23s.02.016.058.036a.242.242 0 0 0 .172.017.575.575 0 0 0 .21-.2.548.548 0 0 0 .082-.273.68.68 0 0 0-.038-.321.258.258 0 0 0-.057-.11.272.272 0 0 0-.103-.073.124.124 0 0 0-.08.003.118.118 0 0 0-.06.05c-.02.034 0 .06-.02.06-.021 0-.027-.023 0-.074a.152.152 0 0 1 .058-.076.177.177 0 0 1 .128-.022c.054.014.103.04.142.078.04.038.068.084.083.136a.754.754 0 0 1 .053.357.563.563 0 0 1-.107.317.596.596 0 0 1-.27.207.254.254 0 0 1-.208-.048c-.044-.034-.05-.062-.044-.065Z" fill="#EB996E"/><path d="M53.967 21.975c-.306.177-.724-.045-.876-.355a2.421 2.421 0 0 1-.155-1.016 4.979 4.979 0 0 0-.251-1.385.95.95 0 0 0-.181-.455 1 1 0 0 0-.387-.313 1.04 1.04 0 0 0-.978.059 2.52 2.52 0 0 1-1.031.248c-.47-.04-.859-.397-1.33-.46-.47-.061-.85.144-1.273.26-.421.134-.877.125-1.291-.028a1.091 1.091 0 0 1-.501-.393 1.03 1.03 0 0 1-.186-.595.732.732 0 0 1 .297-.536.792.792 0 0 1 .611-.148.596.596 0 0 1-.108-.92 1.042 1.042 0 0 1 1.037-.2c.348.128.662.327.924.582a.714.714 0 0 1 .253-.399.762.762 0 0 1 .454-.164c.338.001.666.11.935.307.292.18.529.4.824.563.584.312 1.28.346 1.937.461.657.116 1.361.372 1.68.94.292.499.093 1.099.07 1.667-.024.569-.027.724-.056 1.278-.006-.02.032.752-.418 1.002Z" fill="#263238"/><path d="M49.056 23.931c0 .017.073.048.208.046a.882.882 0 0 0 .485-.163c.141-.1.247-.24.303-.4.041-.124.03-.203 0-.206-.029-.003-.108.282-.397.501-.186.104-.388.18-.599.223Z" fill="#fff"/><path d="M46.775 17.252a.283.283 0 0 0-.103.124.272.272 0 0 0-.017.157c.012.12.07.232.163.313a.573.573 0 0 0 .465.107c.194-.036.378-.108.543-.211.18-.12.377-.215.585-.282.236-.048.483-.012.695.101.225.108.435.262.669.4.22.152.483.233.754.234.25-.032.484-.138.669-.304.165-.14.356-.248.564-.318a.99.99 0 0 1 .555.03c.263.092.48.277.605.519.038.09.066.185.084.281a.65.65 0 0 0-.064-.281 1.047 1.047 0 0 0-.249-.332 1.091 1.091 0 0 0-.946-.254 1.65 1.65 0 0 0-.584.324 1.24 1.24 0 0 1-.643.281 1.283 1.283 0 0 1-.722-.228c-.227-.135-.44-.281-.675-.4a1.093 1.093 0 0 0-.73-.103 2.428 2.428 0 0 0-.584.281 1.52 1.52 0 0 1-.526.211.542.542 0 0 1-.438-.093.472.472 0 0 1-.164-.281.298.298 0 0 1 .094-.276Z" fill="#455A64"/><path d="M47.654 16.244a.142.142 0 0 0-.059-.048.26.26 0 0 0-.219 0 .271.271 0 0 0-.133.113.256.256 0 0 0-.033.168.41.41 0 0 0 .096.21c.051.059.12.104.196.128a.89.89 0 0 0 .558-.025c.196-.076.398-.134.605-.175a.793.793 0 0 1 .613.231c.17.183.366.34.585.465a1.013 1.013 0 0 0 .756-.043c.211-.094.434-.163.663-.202.328-.043.661.01.957.153.296.142.54.368.7.646.093.16.123.26.129.256a1.082 1.082 0 0 0-.109-.264 1.603 1.603 0 0 0-.534-.58 1.718 1.718 0 0 0-1.151-.262c-.233.04-.46.108-.675.203a.944.944 0 0 1-.713.042 2.538 2.538 0 0 1-.584-.453.832.832 0 0 0-.654-.242c-.211.04-.417.101-.614.182a.862.862 0 0 1-.517.034.393.393 0 0 1-.182-.114.372.372 0 0 1-.09-.19.23.23 0 0 1 .026-.154.243.243 0 0 1 .12-.105.248.248 0 0 1 .204 0c.041 0 .056.028.059.026Z" fill="#455A64"/><path d="M53.52 17.74c.038.013.146-.217.404-.37.257-.151.514-.149.517-.188.003-.04-.062-.045-.176-.048a.846.846 0 0 0-.417.121.806.806 0 0 0-.295.31c-.047.101-.05.169-.033.174Z" fill="#263238"/><path d="M53.754 16.324c-.041 0 .017.298-.032.65-.05.352-.173.616-.138.636a1.163 1.163 0 0 0 .17-1.287Z" fill="#263238"/><path d="M54.219 21.458a.647.647 0 0 0 .084-.546 1.233 1.233 0 0 0-.318-.524.658.658 0 0 1-.152-.304.892.892 0 0 1 .047-.366c.08-.24.095-.496.043-.743a.814.814 0 0 0-.353-.501.718.718 0 0 0-.409-.11.402.402 0 0 0-.152.037s.056 0 .152-.014a.705.705 0 0 1 .386.12.759.759 0 0 1 .324.48c.048.239.032.486-.047.717a.924.924 0 0 0-.047.389c.026.12.083.233.167.326.146.14.256.312.318.501a.867.867 0 0 1-.043.538Z" fill="#455A64"/><path d="M52.776 35.078a1.51 1.51 0 0 1 0 .183c0 .133 0 .282.014.485 0 .416.026 1.002.032 1.708l-.017-.045.9.808h-.076l1.548-.605-.044.056c.006-.047.015-.094.026-.14.17-.887.328-1.723.468-2.45l.067.076c-.862 0-1.586-.02-2.103-.03l-.605-.017a1.354 1.354 0 0 1-.21-.029c.065-.01.132-.014.198-.014l.585-.017c.51 0 1.253-.028 2.144-.033h.079v.076c-.135.729-.292 1.565-.45 2.452l-.026.14v.04l-.038.017-1.552.594-.044.017-.032-.031-.876-.82-.02-.02v-.025c0-.732.02-1.334.032-1.745 0-.189 0-.343.017-.473a.603.603 0 0 1-.017-.158Z" fill="#263238"/><path d="M55.525 35.815a5.319 5.319 0 0 1-1.38.11 5.47 5.47 0 0 1-1.381-.102c.458-.053.92-.068 1.382-.045.46-.025.921-.013 1.379.037Z" fill="#263238"/><path d="M42.337 34.344c.061.059-4.675 6.311-4.675 6.311h4.642l2.849-3.76-2.816-2.551Z" fill="#FFBE9D"/><path d="M90.757 18.585H69.17v35.266h21.586V18.585Z" fill="#F5F5F5"/><path d="m74.898 39.352.23.457.519.075-.375.356.088.504-.462-.238-.464.238.089-.504-.374-.356.517-.075.232-.457ZM77.467 39.352l.232.457.517.075-.374.356.088.504-.463-.238-.462.238.089-.504-.375-.356.518-.075.23-.457ZM80.037 39.352l.232.457.517.075-.374.356.088.504-.463-.238-.462.238.089-.504-.375-.356.518-.075.23-.457ZM82.608 39.352l.232.457.516.075-.373.356.087.504-.462-.238-.463.238.089-.504-.375-.356.517-.075.232-.457ZM85.178 39.352l.23.457.519.075-.375.356.088.504-.462-.238-.462.238.087-.504-.374-.356.517-.075.232-.457Z" fill="#FC7387"/><path d="M79.082 43.486c0 .018-1.638.033-3.66.033-2.021 0-3.66-.015-3.66-.033 0-.018 1.639-.033 3.66-.033 2.022 0 3.66.014 3.66.033Z" fill="#FF725E"/><path d="M88.28 45.04c0 .018-3.655.032-8.162.032-4.506 0-8.163-.014-8.163-.033 0-.018 3.654-.032 8.163-.032 4.51 0 8.162.015 8.162.032ZM88.28 46.375c0 .018-3.655.033-8.162.033-4.506 0-8.163-.015-8.163-.033 0-.018 3.654-.033 8.163-.033 4.51 0 8.162.015 8.162.033ZM88.28 47.71c0 .018-3.655.033-8.162.033-4.506 0-8.163-.015-8.163-.033 0-.018 3.654-.033 8.163-.033 4.51 0 8.162.014 8.162.033ZM88.28 49.046c0 .017-3.655.032-8.162.032-4.506 0-8.163-.015-8.163-.032 0-.018 3.654-.033 8.163-.033 4.51 0 8.162.014 8.162.033ZM88.28 50.38c0 .019-3.655.033-8.162.033-4.506 0-8.163-.014-8.163-.033 0-.019 3.654-.033 8.163-.033 4.51 0 8.162.015 8.162.033Z" fill="#263238"/><path d="M89.185 20.375H70.59v17.456h18.594V20.375Z" fill="#E0E0E0"/><path d="M78.822 23.269c.195-.64.793-1.117 1.455-1.271.662-.155 1.484-.367 2.09-.065.38.19.743.464.892.853.177.462-.095 1.324-.23 1.8-.135.474-.237 1.017.03 1.436.266.418.79.564 1.12.92a1.264 1.264 0 0 1-.132 1.78c.586-.033 1.08.551 1.06 1.124-.02.574-.45 1.078-.973 1.337-.523.26-1.127.314-1.713.315a10.591 10.591 0 0 1-2.166-.22c-.586-.126-1.198-.314-1.58-.766-.351-.416-.448-.983-.45-1.522 0-1.906 1.021-3.796.577-5.653" fill="#14181B"/><path d="M79.298 22.83a1.963 1.963 0 0 0-2.096-.055 1.905 1.905 0 0 0-.735.79 1.853 1.853 0 0 0-.179 1.054c.048.378.209.756.11 1.115-.183.684-1.169.95-1.298 1.645-.051.275.048.55.123.819.074.268.128.572-.018.814-.106.179-.297.29-.446.436-.48.468-.47 1.291-.069 1.827.403.535 1.114.79 1.791.77.678-.022 1.327-.29 1.906-.637" fill="#14181B"/><path d="m77.874 23.596.01.452.092 6.787c.01.789.713 1.407 1.574 1.386.873-.019 1.58-.678 1.582-1.474 0-.835.021-1.715.021-1.715s1.102-.179 1.33-1.584c.113-.698.077-1.843.016-2.779a1.459 1.459 0 0 0-.534-1.043 1.527 1.527 0 0 0-1.14-.343l-2.95.313Z" fill="#FFBE9D"/><path d="M81.947 25.47a.178.178 0 0 1-.051.127.186.186 0 0 1-.127.055.179.179 0 0 1-.13-.042.173.173 0 0 1-.06-.12c0-.047.018-.092.051-.126a.185.185 0 0 1 .126-.056.18.18 0 0 1 .13.042.173.173 0 0 1 .061.12ZM82.243 25.27c-.023.022-.163-.079-.361-.079-.198 0-.344.099-.365.075-.02-.024.012-.053.076-.099a.524.524 0 0 1 .292-.088c.103 0 .203.032.287.09.063.046.084.089.07.1ZM80.037 25.47a.178.178 0 0 1-.05.127.186.186 0 0 1-.127.055.183.183 0 0 1-.13-.043.174.174 0 0 1-.06-.12c0-.046.018-.092.051-.126a.185.185 0 0 1 .127-.055.179.179 0 0 1 .172.096.17.17 0 0 1 .017.067Z" fill="#263238"/><path d="M80.297 25.304c-.023.024-.163-.077-.36-.077-.197 0-.344.099-.366.075-.022-.024.013-.053.076-.099a.524.524 0 0 1 .292-.088c.103 0 .204.032.288.09.06.044.083.09.07.1ZM81.017 26.742c.104-.032.212-.051.322-.057.05 0 .098-.015.107-.049a.247.247 0 0 0-.034-.146l-.15-.378c-.208-.537-.359-.978-.336-.986.024-.01.208.42.417.957l.143.378c.032.06.041.129.025.194a.125.125 0 0 1-.082.073.38.38 0 0 1-.086.011 1.308 1.308 0 0 1-.326.003Z" fill="#263238"/><path d="M81.153 29.037a3.718 3.718 0 0 1-1.924-.504s.467.965 1.905.834l.019-.33Z" fill="#AA6550"/><path d="M80.44 26.877c.032 0 .032.208.216.358s.413.126.415.155c.001.029-.05.041-.147.044a.55.55 0 0 1-.347-.119.46.46 0 0 1-.168-.3c-.015-.088.01-.14.03-.138ZM79.043 22.938c0-.017.022-.026.034-.021.011.005.016.022.009.04a.03.03 0 0 1-.036.02.028.028 0 0 1-.008-.039Z" fill="#263238"/><path d="M77.798 30.24c.21-.077.402-.198.56-.355.159-.156.28-.344.358-.551.15-.418.162-.872.03-1.296-.056-.195-.136-.409-.048-.593.081-.124.188-.23.313-.314.246-.232.391-.547.407-.881a2.223 2.223 0 0 0-.182-.972c-.068-.17-.15-.356-.088-.528a.814.814 0 0 1 .25-.296c.205-.187.374-.409.499-.654.088-.172.153-.378.068-.555-.104-.212-.375-.277-.613-.295-.57-.043-1.198.08-1.56.511-.324.386-.36.924-.387 1.424-.072 1.572-.144 3.161.13 4.712" fill="#14181B"/><path d="M83.045 23.44a2.28 2.28 0 0 1-.246.126 1.534 1.534 0 0 0-.208.176 1.95 1.95 0 0 0-.113.115l-.026.03-.041.04-.1.093a2.363 2.363 0 0 1-.307.236c-.162.11-.343.19-.534.237-.367.08-.751.036-1.09-.126a1.695 1.695 0 0 1-.597-.468c-.245-.32-.283-.577-.17-.717.112-.14.396-.126.713-.044.155.039.311.07.47.09.123.018.25.014.373-.01a.784.784 0 0 0 .174-.06c.081-.035.181-.087.297-.141.058-.027.119-.053.185-.078.032-.013.067-.024.1-.036a1.28 1.28 0 0 1 .544-.068.787.787 0 0 1 .587.3.228.228 0 0 1-.011.305Z" fill="#14181B"/><path d="M75.786 31.208a.676.676 0 0 1-.075-.086.926.926 0 0 1-.146-.288 1.016 1.016 0 0 1 .322-1.083c.192-.172.444-.3.674-.48.12-.09.223-.2.304-.326a.65.65 0 0 0 .097-.44c-.044-.318-.312-.596-.335-.977a.983.983 0 0 1 .136-.548c.098-.166.243-.302.418-.39.173-.072.338-.164.49-.273a.576.576 0 0 0 .198-.462 1.26 1.26 0 0 0-.129-.494c-.075-.152-.165-.297-.242-.445-.08-.144-.135-.3-.163-.46a.904.904 0 0 1 .059-.46c.109-.258.3-.474.544-.617.201-.115.423-.19.654-.223a3.23 3.23 0 0 1 .515-.032c.143 0 .258.01.327.016l.085.009h.029a.858.858 0 0 1-.114 0h-.327c-.173 0-.345.015-.515.043a1.787 1.787 0 0 0-.633.225 1.26 1.26 0 0 0-.515.597.852.852 0 0 0-.052.431c.028.155.082.305.16.442.076.145.167.289.245.446.083.162.13.339.14.52a.619.619 0 0 1-.218.51 2.513 2.513 0 0 1-.503.284.949.949 0 0 0-.39.367.92.92 0 0 0-.126.515c.017.35.281.63.33.97a.703.703 0 0 1-.107.48c-.085.13-.193.245-.32.34-.239.182-.489.306-.676.47a.975.975 0 0 0-.342.551 1.06 1.06 0 0 0 .014.495c.04.134.103.26.187.373ZM83.8 30.938a.256.256 0 0 0 .128-.153.348.348 0 0 0-.017-.228.559.559 0 0 0-.212-.224c-.1-.067-.222-.12-.344-.202a.538.538 0 0 1-.258-.378.745.745 0 0 1 .164-.481c.103-.145.237-.268.34-.415a.642.642 0 0 0 .129-.478 1.012 1.012 0 0 0-.197-.435c-.186-.252-.416-.436-.562-.63a1.074 1.074 0 0 1-.246-.515.544.544 0 0 1 0-.155c0-.035.01-.054.013-.053-.002.068.002.136.011.204.043.182.131.35.258.49.147.188.379.365.575.63.106.135.179.293.21.461a.657.657 0 0 1-.015.273.806.806 0 0 1-.128.252c-.109.155-.244.279-.343.415a.694.694 0 0 0-.155.44.472.472 0 0 0 .23.341c.115.08.238.136.338.207a.59.59 0 0 1 .222.252c.033.08.035.17.007.252a.229.229 0 0 1-.097.126.106.106 0 0 1-.052.003ZM83.145 22.865v.044a.795.795 0 0 1-.237.533.81.81 0 0 1-.654.23.838.838 0 0 1-.399-.134 1.696 1.696 0 0 1-.32-.308 1.336 1.336 0 0 0-.669-.464 1.309 1.309 0 0 0-.67-.023c-.15.035-.294.094-.424.175-.093.058-.14.097-.142.093a.501.501 0 0 1 .129-.114 1.316 1.316 0 0 1 1.505-.01c.122.085.23.186.324.3.089.112.192.212.306.298.11.071.236.114.367.126a.79.79 0 0 0 .846-.582c.028-.103.028-.164.038-.164Z" fill="#455A64"/><path d="M80.348 24.545c-.02.053-.218.028-.45.055-.232.028-.42.09-.45.043-.015-.023.017-.073.093-.126a.8.8 0 0 1 .687-.074c.082.036.129.078.12.102ZM82.172 24.707c-.035.044-.171 0-.335 0-.163 0-.304.03-.336-.017-.013-.022.009-.066.07-.108a.467.467 0 0 1 .273-.072.48.48 0 0 1 .266.088c.058.042.078.088.062.109Z" fill="#263238"/><path d="M76.561 37.889c.07.117-.44-1.56-.44-1.56l-.426 1.532-3.162.023s1.786-5.713 2.635-6.51c1.108-1.04 3.185-1.098 3.185-1.098l1.244 1.037 1.963-.986.072.007c.644.078 1.258.31 1.788.675.53.366.959.854 1.249 1.422l2.13 5.396h-2.812l-.6-1.593.2 1.593" fill="#FC7387"/><path d="m77.347 30.4 2.85 6.34 1.44-6.406s-.399-.023-.97-.044c-.315-.011-.684 1.21-1.065 1.203-.245 0-.494-1.238-.74-1.237-.31 0-.613 0-.889.02-.24.013-.45.107-.626.123Z" fill="#FAFAFA"/><path d="M77.883 30.459v-.582s1.698.023 1.728 1.352c0 0 .24-1.31 1.611-1.352l.088.446-.386 1.528-.99.644h-1.333l-.552-.71-.166-1.326Z" fill="#FAFAFA"/><path d="M80.173 36.908a.276.276 0 0 1 .017-.07c.021-.068.049-.133.082-.195.055-.097.122-.187.201-.268.09-.096.198-.197.308-.316.273-.268.51-.568.709-.892.107-.194.17-.41.181-.63a.97.97 0 0 0-.197-.66l-.045-.057h.075a.403.403 0 0 0 .086 0 .502.502 0 0 0 .298-.184.66.66 0 0 0 .135-.319c.018-.226 0-.454-.053-.675l-.196-1.155c-.055-.332-.095-.586-.129-.779a8.127 8.127 0 0 0-.03-.213.402.402 0 0 1-.007-.074.34.34 0 0 1 .02.073l.043.21c.038.192.088.454.148.775l.21 1.152c.057.227.076.463.057.696a.702.702 0 0 1-.148.35.559.559 0 0 1-.339.207.468.468 0 0 1-.102 0l.029-.053c.154.202.229.452.21.703a1.5 1.5 0 0 1-.194.657 4.52 4.52 0 0 1-.728.895c-.113.119-.224.218-.315.31a1.35 1.35 0 0 0-.206.252c-.09.163-.111.262-.12.26ZM80.172 36.854a.303.303 0 0 1-.052-.058l-.146-.17a27.663 27.663 0 0 0-.549-.611 15.285 15.285 0 0 1-.802-.921 3.253 3.253 0 0 1-.398-.605.988.988 0 0 1-.048-.77.717.717 0 0 1 .05-.098l.017.048a1.523 1.523 0 0 1-.64-.432 1.971 1.971 0 0 1-.365-.605 2.788 2.788 0 0 1-.159-1.167c.017-.264.05-.526.097-.786l.041-.21a.284.284 0 0 1 .018-.074.33.33 0 0 1 0 .076l-.028.212c-.023.185-.063.452-.075.785-.024.388.033.777.168 1.142.083.214.204.412.358.585.163.186.373.328.608.412l.037.013-.02.035a.963.963 0 0 0-.045.088.93.93 0 0 0 .046.72c.106.211.235.41.387.594.278.362.557.667.788.926.23.26.414.474.533.63a3.83 3.83 0 0 1 .18.24Z" fill="#263238"/><path d="M80.142 37.875a2.386 2.386 0 0 1-.02-.569c-.005-.19.012-.38.05-.565.034.378.023.758-.03 1.134ZM76.04 36.707c.013-.073.032-.146.055-.218.037-.14.092-.342.143-.596a8.14 8.14 0 0 0 .155-2.003 5.134 5.134 0 0 0-.152-1.093 2.058 2.058 0 0 0-.401-.8 1.586 1.586 0 0 0-.469-.389c-.129-.068-.21-.089-.207-.095a1.001 1.001 0 0 1 .22.073c.189.09.357.22.493.378.2.238.345.515.424.814.094.362.147.733.159 1.107a7.528 7.528 0 0 1-.175 2.016 7.013 7.013 0 0 1-.164.593 3.396 3.396 0 0 1-.057.158c-.013.031-.022.063-.024.055ZM83.412 35.68a1.37 1.37 0 0 1-.01-.21c0-.136 0-.332-.012-.573a17.406 17.406 0 0 0-.169-1.881 18.628 18.628 0 0 0-.542-2.451l-.01-.033.026.02c.047.032.09.068.13.108a.925.925 0 0 1-.141-.09l.018-.011a14.272 14.272 0 0 1 .737 4.338c0 .243 0 .44-.01.574 0 .07-.005.14-.017.21ZM79.295 30.475c0 .006-.032 0-.076.034a.446.446 0 0 0-.129.178c-.122.229-.199.479-.225.736l-.01.082-.05-.067-.093-.126c-.216-.274-.427-.504-.583-.675a2.44 2.44 0 0 1-.248-.275c.103.07.198.152.283.243.215.209.416.431.6.666l.095.126-.061.016c.03-.265.118-.52.258-.749a.439.439 0 0 1 .162-.179c.042-.024.078-.012.077-.01ZM81.288 30.35c-.066.11-.142.213-.228.31-.147.186-.354.44-.586.719l-.123.146-.056.068v-.088c.001-.145-.01-.29-.032-.432a.879.879 0 0 0-.122-.32.86.86 0 0 0-.221-.222c.03.005.058.016.082.034a.575.575 0 0 1 .18.165c.07.1.118.213.141.332.028.146.042.293.041.441l-.059-.018.122-.148c.232-.278.445-.528.602-.707.078-.1.165-.194.26-.28ZM80.116 36.588a1.41 1.41 0 0 1-.031-.21l-.063-.575c-.05-.486-.114-1.158-.18-1.9-.067-.742-.13-1.413-.163-1.9l-.041-.577a1.201 1.201 0 0 1 0-.213c.016.07.026.14.032.21l.062.575c.05.487.115 1.158.182 1.9.067.742.129 1.414.16 1.9l.042.577c.006.071.006.142 0 .213ZM80.12 32.371c0-.006.048-.038.117.008a.152.152 0 0 1 .067.12.157.157 0 0 1-.108.132.161.161 0 0 1-.166-.046.148.148 0 0 1-.018-.135c.03-.077.091-.082.09-.074-.001.008-.035.029-.044.086a.104.104 0 0 0 .02.085.09.09 0 0 0 .097.022.089.089 0 0 0 .067-.073.105.105 0 0 0-.034-.08c-.043-.042-.087-.035-.088-.045ZM80.367 33.942c0-.008.057-.028.115.033a.146.146 0 0 1 .038.133.145.145 0 0 1-.053.075.15.15 0 0 1-.088.029.149.149 0 0 1-.09-.021.144.144 0 0 1-.06-.07.145.145 0 0 1 .026-.138c.053-.064.116-.049.11-.041-.004.008-.043.015-.07.068a.103.103 0 0 0-.008.09.089.089 0 0 0 .089.047.09.09 0 0 0 .085-.055.11.11 0 0 0-.015-.088c-.034-.056-.079-.062-.079-.062Z" fill="#263238"/><path opacity=".3" d="M77.18 30.475c-.241.838-.47 1.787-.021 2.539.129.227.325.42.45.651.219.397.233.868.368 1.298.272.87 1.243 1.717 2.164 1.85-.475-.566-1.21-1.303-1.649-1.945a1.56 1.56 0 0 1-.301-.568c-.054-.233-.094-.48.064-.663-.615-.093-.966-.715-1.077-1.315a4.35 4.35 0 0 1 .076-1.813M83.437 34.931c-.153.9-.05 2.079.516 2.805.207-.988.104-2.28-.516-3.09" fill="#000"/><path d="M35.634 18.764H14.05v35.265h21.585V18.764Z" fill="#F5F5F5"/><path d="m19.775 39.53.231.458.518.074-.375.355.088.505-.462-.237-.463.237.09-.505-.375-.355.516-.074.232-.458ZM22.346 39.53l.231.458.518.074-.375.355.088.505-.462-.237-.463.237.088-.505-.375-.355.518-.074.232-.458ZM24.915 39.53l.232.458.517.074-.374.355.088.505-.463-.237-.46.237.087-.505-.374-.355.516-.074.231-.458ZM27.486 39.53l.231.458.518.074-.375.355.089.505-.463-.237-.463.237.088-.505-.374-.355.517-.074.232-.458ZM30.055 39.53l.231.458.518.074-.374.355.088.505-.463-.237-.463.237.09-.505-.374-.355.518-.074.229-.458ZM23.96 43.671c0 .025-1.638.047-3.66.047-2.022 0-3.656-.029-3.656-.047s1.64-.047 3.66-.047c2.02 0 3.656.013 3.656.047Z" fill="#FC7387"/><path d="M33.158 45.217c0 .025-3.654.047-8.162.047-4.509 0-8.163-.022-8.163-.047s3.654-.046 8.163-.046c4.508 0 8.162.021 8.162.046ZM33.158 46.553c0 .025-3.654.046-8.162.046-4.509 0-8.163-.021-8.163-.046 0-.025 3.654-.049 8.163-.049 4.508 0 8.162.022 8.162.049ZM33.158 47.888c0 .025-3.654.046-8.162.046-4.509 0-8.163-.021-8.163-.046 0-.025 3.654-.047 8.163-.047 4.508 0 8.162.022 8.162.047ZM33.158 49.223c0 .025-3.654.047-8.162.047-4.509 0-8.163-.022-8.163-.047s3.654-.046 8.163-.046c4.508 0 8.162.02 8.162.046ZM33.158 50.558c0 .027-3.654.047-8.163.047-4.508 0-8.168-.02-8.168-.047s3.655-.046 8.163-.046c4.508 0 8.168.021 8.168.046Z" fill="#263238"/><path d="M34.03 20.554H15.434V38.01H34.03V20.554Z" fill="#E0E0E0"/><path d="M25.873 29.204c0 .455.043.719.046 1.177a.393.393 0 0 0 .101.314.268.268 0 0 0 .278.012.704.704 0 0 0 .217-.19c.515-.62.825-1.38.89-2.176a.254.254 0 0 0-.038-.196c-.074-.083-.21-.052-.31 0-.503.22-.919.596-1.183 1.068" fill="#263238"/><path d="m22.752 23.774.009.453.093 6.788a1.43 1.43 0 0 0 .49 1.015 1.498 1.498 0 0 0 1.084.373c.872-.018 1.58-.677 1.583-1.475 0-.835.02-1.715.02-1.715s1.102-.18 1.33-1.582c.112-.698.077-1.844.016-2.78a1.457 1.457 0 0 0-.158-.573 1.49 1.49 0 0 0-.376-.467 1.527 1.527 0 0 0-1.139-.342l-2.953.305Z" fill="#FFBE9D"/><path d="M26.825 25.649c0 .048-.02.093-.054.127a.185.185 0 0 1-.13.053.186.186 0 0 1-.124-.047.178.178 0 0 1-.06-.115c0-.048.02-.093.054-.127a.186.186 0 0 1 .13-.053c.046 0 .09.017.124.046.034.03.055.072.06.116ZM27.124 25.445c-.024.025-.163-.077-.367-.075-.204.002-.344.097-.368.073-.023-.023.011-.053.076-.098a.518.518 0 0 1 .578.002c.068.046.092.09.081.098ZM24.907 25.649c0 .048-.019.093-.053.127a.185.185 0 0 1-.13.053.186.186 0 0 1-.124-.047.179.179 0 0 1-.06-.115c0-.048.02-.093.054-.127a.186.186 0 0 1 .13-.053c.045 0 .09.017.123.046.034.03.056.072.06.116Z" fill="#263238"/><path d="M25.176 25.484c-.024.024-.164-.079-.368-.077-.203.002-.343.097-.367.074-.024-.024.011-.054.075-.099a.518.518 0 0 1 .292-.088c.104 0 .204.032.287.092.07.044.092.088.08.098ZM25.894 26.92c.105-.032.213-.05.323-.057.05 0 .097-.014.106-.049a.253.253 0 0 0-.033-.145l-.15-.377c-.139-.32-.251-.65-.336-.986.165.307.305.628.417.957l.143.38c.031.059.04.127.026.193a.119.119 0 0 1-.083.072.327.327 0 0 1-.086.012 1.315 1.315 0 0 1-.327 0Z" fill="#263238"/><path d="M26.031 29.213a3.717 3.717 0 0 1-1.922-.5s.466.964 1.902.833l.02-.333ZM25.811 27.387a.366.366 0 0 0-.321-.13.332.332 0 0 0-.224.12.195.195 0 0 0-.017.23.24.24 0 0 0 .26.064.764.764 0 0 0 .311-.205.064.064 0 0 0 0-.072" fill="#EB996E"/><path d="M25.312 27.055c.03 0 .033.208.216.359.184.15.414.126.415.156.002.03-.051.04-.148.043a.538.538 0 0 1-.346-.118.448.448 0 0 1-.169-.3c-.005-.09.017-.142.032-.14ZM24.908 23.657a.65.65 0 0 1 .367.271c.082.13.174.253.275.369a.838.838 0 0 0 .965.143c.115.11.268.226.422.18a.267.267 0 0 0 .169-.205.456.456 0 0 0-.04-.27c-.151-.342-.539-.525-.919-.597a2.644 2.644 0 0 0-1.368.104M21.44 38.066c.068.117-.44-1.56-.44-1.56l-.427 1.532-3.162.023s1.787-5.712 2.635-6.51c1.102-1.041 3.185-1.097 3.185-1.097l3.208.05h.072c.644.078 1.258.31 1.788.677.53.367.96.856 1.249 1.424l2.128 5.397h-2.811l-.599-1.593.2 1.593" fill="#263238"/><path d="M27.888 30.32c-.098-.226-.45-.217-.604-.41-.155-.192-.02-.51.106-.748.608-1.146.551-2.514.435-3.796-.047-.552-.104-1.114-.348-1.617-.487-.995-1.664-1.781-3.122-1.716-1.192.044-2.1 1.095-2.744 2.077-.645.983-.988 2.514-.777 3.669.107.575.735 1.018.625 1.591-.074.36-.46.794-.384 1.155.103.492.834.662 1.261.943.426.306.825.647 1.192 1.02.37.371.816.663 1.31.854.5.166 1.101.135 1.505-.194.667-.538.603-1.603 1.209-2.203.176-.178.437-.383.336-.625Zm-.94-6.21c.244.36.264.825.321 1.257.119.723.127 1.46.026 2.186a3.403 3.403 0 0 1-.976 1.932 2.312 2.312 0 0 1-.952.555 2.35 2.35 0 0 1-1.108.056c-.817-.18-1.08-.898-1.311-1.68-.232-.78.285-1.508.514-2.296.184-.61.244-1.467.646-1.963.403-.496 1.07-.53 1.266-.52 0-.003 1.083-.249 1.574.473Z" fill="#FC7387"/><path opacity=".3" d="M21.148 29.947c.485.257.865.665 1.26 1.042s.834.743 1.368.878c.535.135 1.185-.025 1.451-.498a3.476 3.476 0 0 1-2.211-.42 3.358 3.358 0 0 1-1.462-1.677M27.205 29.612c-.05.187-.14.361-.264.512-.124.15-.279.274-.454.363a.941.941 0 0 0-.231.133.22.22 0 0 0-.072.237.219.219 0 0 0 .113.091c.048.017.1.018.148.002a.648.648 0 0 0 .246-.167c.264-.25.54-.52.615-.873" fill="#000"/><path d="M95.148 38.16c.346-1.417-.555-2.839-2.014-3.176-1.459-.337-2.922.54-3.269 1.957-.346 1.417.555 2.839 2.014 3.176 1.458.337 2.922-.539 3.269-1.956Z" fill="#E0E0E0"/><path d="M92.088 38.672a2.63 2.63 0 0 1 .38-.344c.245-.202.586-.477.967-.778v.072l-.018-.016c-.37-.317-.712-.607-.953-.821a2.78 2.78 0 0 1-.37-.36c.148.091.288.195.419.31.251.201.594.484.97.8l.019.015.044.038-.046.034c-.38.3-.728.569-.982.758a3.092 3.092 0 0 1-.43.292Z" fill="#263238"/><path d="M15.226 38.263c.344-1.413-.556-2.831-2.01-3.168-1.454-.336-2.912.537-3.255 1.95-.344 1.413.557 2.832 2.01 3.168 1.455.337 2.912-.536 3.255-1.95Z" fill="#E0E0E0"/><path d="M13.146 36.425c-.117.124-.244.239-.382.342-.244.203-.583.479-.965.78v-.073l.02.017c.37.316.712.606.95.82.136.109.26.23.372.36a2.902 2.902 0 0 1-.421-.31c-.252-.2-.595-.483-.97-.8l-.02-.016-.042-.036.044-.036c.382-.3.73-.567.984-.756.133-.111.277-.209.43-.292Z" fill="#263238"/><path d="M42.342 11.733c-3.638 1.878-6.621 4.762-8.572 8.287a19.756 19.756 0 0 0-2.39 11.518 19.935 19.935 0 0 0 4.598 10.866c2.605 3.1 6.098 5.381 10.037 6.554a21.4 21.4 0 0 0 9.887.544 21.107 21.107 0 0 0 9.027-3.956L82.484 66.88l2.685-2.08-17.703-21.515a20.014 20.014 0 0 0 5.111-9.87c.74-3.75.372-7.625-1.06-11.18a20.321 20.321 0 0 0-7.029-8.913 21.207 21.207 0 0 0-10.837-3.9c-3.918-.282-7.839.52-11.309 2.31Zm14.864 1.716c3.848 1.145 7.169 3.55 9.396 6.807a16.53 16.53 0 0 1 2.82 11.053c-.405 3.89-2.185 7.524-5.038 10.282s-6.602 4.47-10.608 4.843a17.787 17.787 0 0 1-11.362-2.795c-3.34-2.181-5.8-5.42-6.958-9.164a16.452 16.452 0 0 1 .605-11.373c1.55-3.608 4.34-6.583 7.893-8.418a17.65 17.65 0 0 1 6.499-1.907c2.274-.212 4.57.017 6.753.672Z" fill="#30D4FE"/></svg>