<svg width="61" height="82" fill="none" xmlns="http://www.w3.org/2000/svg"><ellipse cx="13.463" cy="14.375" rx="13.463" ry="13.447" fill="#FDE589"/><path d="M61 8.746H13.706v64.742H61V8.746Z" fill="#0A0070"/><path d="M59.13 69.638H17.644V11.363H59.13v58.275Z" fill="#E0E0E0"/><path d="M58.474 68.557H17.363V10.593h41.111v57.963Z" fill="#EBEBEB"/><path d="m54.057 64.046-4.735 3.852H16.596V10.739H58.08v50.048l-4.023 3.26Z" fill="#FAFAFA"/><path d="M54.057 64.04s.084-.071.254-.21l.758-.62 3.002-2.44v.011c0-8.222-.016-26.497-.03-50.047l.045.046H16.603l.05-.05c0 21.49 0 41.313-.012 57.158l-.039-.04 32.726.023h-.012l3.558-2.881.89-.72c.196-.16.3-.237.3-.237l-.293.243-.892.739-3.545 2.895-32.738.027h-.04v-.04c0-15.846 0-35.67-.01-57.16v-.05h41.581v.045l-.029 50.047-3.013 2.43-.763.637-.265.195Z" fill="#263238"/><path d="M31.741 6.745h11.34a2.76 2.76 0 0 1 2.76 2.757v3.057H28.863v-2.94a2.874 2.874 0 0 1 2.878-2.874Z" fill="#30D4FE"/><path d="m33.023 6.745-.62-3.137h9.776l-.544 3.137h-8.612Z" fill="#30D4FE"/><path d="M27.923 26.828h-6.988v-6.983h6.988v6.983Zm-6.793-.195h6.598V20.04H21.13v6.593Z" fill="#FC7387"/><path d="M52.622 21.532c0 .028-4.866.051-10.865.051-5.998 0-10.866-.023-10.866-.05 0-.028 4.864-.051 10.866-.051 6.003 0 10.865.021 10.865.05ZM52.622 22.982c0 .03-4.866.05-10.865.05-5.998 0-10.866-.02-10.866-.05 0-.03 4.864-.05 10.866-.05 6.003 0 10.865.023 10.865.05ZM52.622 24.433c0 .028-4.866.05-10.865.05-5.998 0-10.866-.022-10.866-.05 0-.027 4.864-.05 10.866-.05 6.003 0 10.865.023 10.865.05ZM52.622 25.885c0 .027-4.866.05-10.865.05-5.998 0-10.866-.023-10.866-.05 0-.027 4.864-.05 10.866-.05 6.003 0 10.865.019 10.865.05Z" fill="#263238"/><path d="M27.923 37.588h-6.988v-6.982h6.988v6.982Zm-6.793-.194h6.598V30.8H21.13v6.593Z" fill="#FC7387"/><path d="m22.324 34.241.928-.995L24.8 34.48l3.54-3.433.848 1-4.457 4.39-2.406-2.197Z" fill="#FC7387"/><path d="M52.622 32.293c0 .027-4.866.05-10.865.05-5.998 0-10.866-.023-10.866-.05 0-.027 4.864-.05 10.866-.05 6.003 0 10.865.023 10.865.05ZM52.622 33.744c0 .027-4.866.05-10.865.05-5.998 0-10.866-.023-10.866-.05 0-.027 4.864-.05 10.866-.05 6.003 0 10.865.021 10.865.05ZM52.622 35.194c0 .029-4.866.05-10.865.05-5.998 0-10.866-.021-10.866-.05 0-.03 4.864-.05 10.866-.05 6.003 0 10.865.023 10.865.05ZM52.622 36.645c0 .028-4.866.051-10.865.051-5.998 0-10.866-.023-10.866-.05 0-.028 4.864-.051 10.866-.051 6.003 0 10.865.023 10.865.05Z" fill="#263238"/><path d="M27.923 48.002h-6.988v-6.983h6.988v6.983Zm-6.793-.195h6.598v-6.593H21.13v6.593Z" fill="#FC7387"/><path d="m22.324 44.655.928-.996 1.547 1.235 3.54-3.433.848 1-4.457 4.391-2.406-2.197Z" fill="#FC7387"/><path d="M52.622 42.706c0 .027-4.866.05-10.865.05-5.998 0-10.866-.023-10.866-.05 0-.027 4.864-.05 10.866-.05 6.003 0 10.865.021 10.865.05ZM52.622 44.156c0 .03-4.866.05-10.865.05-5.998 0-10.866-.02-10.866-.05 0-.03 4.864-.05 10.866-.05 6.003 0 10.865.023 10.865.05ZM52.622 45.608c0 .029-4.866.05-10.865.05-5.998 0-10.866-.021-10.866-.05 0-.03 4.864-.051 10.866-.051 6.003 0 10.865.023 10.865.05ZM52.622 47.059c0 .027-4.866.05-10.865.05-5.998 0-10.866-.023-10.866-.05 0-.027 4.864-.05 10.866-.05 6.003 0 10.865.023 10.865.05Z" fill="#263238"/><path d="M27.923 58.057h-6.988v-6.983h6.988v6.983Zm-6.793-.195h6.598V51.27H21.13v6.593Z" fill="#FC7387"/><path d="m22.324 54.71.928-.995L24.8 54.95l3.54-3.433.848.997-4.457 4.392-2.406-2.196Z" fill="#FC7387"/><path d="M52.622 52.76c0 .029-4.866.05-10.865.05-5.998 0-10.866-.021-10.866-.05 0-.03 4.864-.051 10.866-.051 6.003 0 10.865.031 10.865.05ZM52.622 54.211c0 .027-4.866.05-10.865.05-5.998 0-10.866-.023-10.866-.05 0-.027 4.864-.05 10.866-.05 6.003 0 10.865.023 10.865.05ZM52.622 55.663c0 .027-4.866.05-10.865.05-5.998 0-10.866-.023-10.866-.05 0-.028 4.864-.05 10.866-.05 6.003 0 10.865.02 10.865.05ZM52.622 57.112c0 .03-4.866.05-10.865.05-5.998 0-10.866-.02-10.866-.05 0-.03 4.864-.05 10.866-.05 6.003 0 10.865.023 10.865.05Z" fill="#263238"/><path d="m50.623 58.435-4.548 9.41h3.247l1.3-9.41Z" fill="#E0E0E0"/><path d="m49.322 67.898 1.301-9.41 7.458 2.299-8.759 7.111Z" fill="#FAFAFA"/><path d="m49.322 67.898 2.508-2.063 6.22-5.087.017.085-2.88-.884-4.57-1.417.06-.038c-.39 2.727-.723 5.075-.959 6.739-.236 1.619-.357 2.454-.39 2.665v-.043l.018-.129.066-.512.255-1.948c.227-1.678.543-4.037.911-6.794v-.055l.053.016 4.58 1.41 2.88.889.089.027-.072.059a4763.27 4763.27 0 0 1-6.295 5.065l-1.84 1.475-.49.39-.126.1-.035.05Z" fill="#263238"/><path opacity=".3" d="m41.502 3.608-.538 3.137h.67l.545-3.137h-.857" fill="#000"/><path d="M12.868 36.69a1.758 1.758 0 0 0 1.72-1c.1-.213.156-.444.166-.68.037-.954.07-1.918.07-1.918s1.447-.135 1.56-1.559c.113-1.424.057-4.732.057-4.732a4.991 4.991 0 0 0-5.043.323l.087 5.034v2.71c.002.9.476 1.754 1.383 1.822Z" fill="#FFBE9D"/><path d="M14.949 29.78a.735.735 0 0 0-.975-.215.832.832 0 0 0-.277 1.04 1.09 1.09 0 0 0 .702.53.55.55 0 0 1 .43.585 1.83 1.83 0 0 1-.502.996c-.442.449-1.03.725-1.658.779-.61.072-1.309-.055-1.664-.555-.259-.365-.277-.842-.286-1.288l-.067-3.164c-.022-.38.002-.762.073-1.136.074-.377.289-.713.6-.94.35-.229.79-.248 1.186-.375.497-.162.919-.49 1.383-.727.464-.237 1.031-.38 1.497-.146.336.168.56.5.884.686.464.263 1.094.195 1.318.884.08.236.08.491 0 .727-.314.926-1.46 1.3-2.287.9-.016.156.138.505-.028 1-.052.16-.07.4-.318.405" fill="#14181B"/><path d="M10.996 26.828c.227-.452.382-.938.46-1.438a1.647 1.647 0 0 0-.45-1.389 1.366 1.366 0 0 0-.944-.333 1.596 1.596 0 0 0-1.44 1.14 1.713 1.713 0 0 0 .585 1.753 1.869 1.869 0 0 0 1.857.242" fill="#14181B"/><path d="M11.277 26.312a.705.705 0 0 1-.68.662c0-.029.212-.085.39-.272.18-.187.262-.398.29-.39Z" fill="#FF725E"/><path d="M10.807 26.662a1.336 1.336 0 0 1-.39.283 1.122 1.122 0 0 1-.511.146.718.718 0 0 1-.6-.269.788.788 0 0 1-.104-.647c.045-.173.127-.334.24-.473.093-.132.207-.247.339-.341-.087.134-.18.265-.281.39-.098.135-.168.289-.207.451a.712.712 0 0 0 .096.567.64.64 0 0 0 .517.234c.166-.003.33-.042.48-.117.253-.13.41-.24.42-.224Z" fill="#263238"/><path d="M8.373 28.278c.03.05.052.102.068.158.05.145.122.283.213.409a.585.585 0 0 0 .56.257.78.78 0 0 0 .54-.544c.07-.272.119-.55.146-.83.027-.24.122-.467.273-.656a.726.726 0 0 1 .417-.238.273.273 0 0 1 .176.016s-.065 0-.168.023a.716.716 0 0 0-.37.245 1.268 1.268 0 0 0-.237.624c-.022.287-.07.57-.142.85a.853.853 0 0 1-.618.601.586.586 0 0 1-.39-.074.805.805 0 0 1-.246-.232 1.42 1.42 0 0 1-.195-.438.455.455 0 0 1-.027-.171Z" fill="#263238"/><path d="M7.669 40.296s-.732 5.343 0 6.02c.731.678 1.431.453 1.431.453l1.39-1.17.274-5.31-3.095.007Z" fill="#FFBE9D"/><path d="m22.773 25.3.928-.995 1.546 1.235 3.54-3.433.848 1-4.456 4.391-2.406-2.198Z" fill="#FC7387"/><path d="m27.133 25.571-1.345.863c-.06-.532-.466-1.058-.447-.79.02.266 0 1.652 0 1.652l-2.397 5.044c-.325.798-.986 1.301-1.48 1.42l-2.244.666.875 2.96 3.12-1.033a2.686 2.686 0 0 0 1.707-1.709l2.145-6.53c.142-.42.257-.85.343-1.286.094-.547-.277-1.257-.277-1.257Z" fill="#FFBE9D"/><path d="m16.109 80.74-.035-1.493-2.805.044.026 2.188.175.01c.78.03 3.942.1 4.457-.064.573-.185-1.818-.684-1.818-.684Z" fill="#FC7387"/><path opacity=".5" d="M14.313 81.442a.974.974 0 0 0-.369-.584.943.943 0 0 0-.659-.195l.012.78h1.016Z" fill="#fff"/><path opacity=".4" d="M17.27 81.027s.838.227.736.367c-.1.14-3.303.195-4.719.086v-.063l3.737-.025s.091-.355.245-.365Z" fill="#fff"/><path d="M13.254 81.415h.187l.511.013c.431.01 1.026.014 1.683 0a62.744 62.744 0 0 0 1.683-.052l.511-.03.139-.009h.046-.187l-.509.02c-.43.013-1.026.033-1.683.042-.657.01-1.252 0-1.683 0h-.704l.006.016Z" fill="#263238"/><path d="M17.035 81.435c.02-.085.051-.166.092-.244a1.16 1.16 0 0 1 .17-.195.457.457 0 0 0-.262.443v-.004ZM16.2 81.028s.047-.043.088-.108c.041-.064.065-.123.057-.127-.008-.004-.047.043-.086.108-.039.064-.066.123-.058.127ZM15.973 80.913s.048-.024.097-.069c.049-.044.08-.085.074-.091-.006-.006-.05.023-.097.066-.047.043-.082.086-.075.094ZM15.824 80.65a.306.306 0 0 0 .146.015c.05.006.1 0 .147-.018a.367.367 0 0 0-.147-.015.32.32 0 0 0-.146.017ZM15.772 80.464c.049.03.106.046.163.045a.3.3 0 0 0 .17-.025.87.87 0 0 0-.168 0 .914.914 0 0 0-.165-.02Z" fill="#263238"/><path d="M16.294 80.782c.06.011.12.011.18 0 .066-.008.131-.023.195-.044a.585.585 0 0 0 .11-.047.09.09 0 0 0 .044-.057.074.074 0 0 0-.03-.072.334.334 0 0 0-.463.224.118.118 0 0 0 0 .05.571.571 0 0 1 .08-.155.34.34 0 0 1 .152-.103.287.287 0 0 1 .216.011c.027.022.018.055-.014.074a.584.584 0 0 1-.101.045 1.288 1.288 0 0 1-.195.051c-.107.017-.174.017-.174.023Z" fill="#263238"/><path d="M16.34 80.796a.174.174 0 0 0 .019-.125.313.313 0 0 0-.053-.13.182.182 0 0 0-.15-.09.07.07 0 0 0-.045.03.07.07 0 0 0-.01.053.196.196 0 0 0 .031.08.46.46 0 0 0 .088.108.253.253 0 0 0 .104.072s-.036-.031-.086-.088a.72.72 0 0 1-.078-.107c-.026-.037-.043-.105 0-.115.043-.01.091.039.119.074a.314.314 0 0 1 .054.117c.006.04.008.08.006.12ZM13.3 80.647h.207a.88.88 0 0 1 .744.573c.044.119.05.195.056.195a.141.141 0 0 0 0-.056.827.827 0 0 0-.325-.56.856.856 0 0 0-.473-.175.696.696 0 0 0-.154 0 .15.15 0 0 0-.054.023Z" fill="#263238"/><path d="M13.574 79.479a4.481 4.481 0 0 0-.016.575c-.006.195 0 .39.018.584.017-.194.022-.39.015-.585a5.224 5.224 0 0 0-.017-.574ZM14.66 81.164c.135.028.273.039.411.033a1.5 1.5 0 0 0 .41-.039c0-.01-.195 0-.41 0-.214 0-.41-.004-.411.006ZM14.112 81.17l.033.082c.018.043.031.078.041.078.01 0 .014-.045-.01-.094-.023-.049-.058-.072-.064-.066ZM13.9 80.916s.011.035.043.065c.03.029.058.046.064.04.006-.005-.012-.037-.041-.064-.03-.027-.058-.048-.066-.04ZM13.601 80.796s.041 0 .082.021c.041.022.07.035.078.03.008-.007-.015-.046-.068-.061a.114.114 0 0 0-.092.01ZM13.39 80.75s.012.024.035.032c.024.008.045.01.049 0 .004-.01-.014-.023-.037-.031s-.045-.01-.047 0Z" fill="#263238"/><path d="m6.21 80.263.952-1.155-2.157-1.794-1.408 1.675.124.121c.568.528 2.926 2.644 3.421 2.854.556.236-.932-1.7-.932-1.7Z" fill="#FC7387"/><path opacity=".5" d="M4.398 79.626a.973.973 0 0 0 .107-.687.94.94 0 0 0-.374-.575l-.513.598.78.664Z" fill="#fff"/><path opacity=".4" d="M6.91 81.242s.488.718.32.757c-.168.04-2.637-2.01-3.633-3.01l.043-.044 2.849 2.415s.29-.218.421-.118Z" fill="#fff"/><path d="m3.606 78.915.034.036.101.095.378.343c.32.286.769.678 1.274 1.099.505.42.975.793 1.31 1.057l.406.31.111.082.041.027-.037-.033-.107-.088-.39-.317a78.949 78.949 0 0 1-2.584-2.155l-.39-.335-.106-.091-.04-.03Z" fill="#263238"/><path d="M6.46 81.394c.07-.052.148-.095.23-.127.084-.021.17-.034.257-.039a.39.39 0 0 0-.27 0 .39.39 0 0 0-.218.166ZM6.093 80.54c0 .01.064 0 .137-.025.072-.026.13-.049.126-.059-.004-.01-.064 0-.136.026a.33.33 0 0 0-.127.058ZM5.995 80.303s.053.015.12.013c.066-.002.116-.011.116-.021 0-.01-.054-.016-.119-.014a.261.261 0 0 0-.117.022ZM6.054 80.016s.039.055.101.108a.391.391 0 0 0 .123.083s-.039-.056-.101-.109c-.063-.052-.115-.097-.123-.082ZM6.136 79.833a.406.406 0 0 0 .24.232 1.292 1.292 0 0 0-.121-.115c-.065-.062-.102-.129-.12-.117Z" fill="#263238"/><path d="M6.323 80.406a.494.494 0 0 0 .138.115.98.98 0 0 0 .29.127.096.096 0 0 0 .07-.016.07.07 0 0 0 .025-.072.331.331 0 0 0-.5-.14.13.13 0 0 0-.035.033.52.52 0 0 1 .162-.065.325.325 0 0 1 .183.022c.07.027.126.08.156.148 0 .035-.021.055-.058.049a1.123 1.123 0 0 1-.279-.115c-.095-.037-.148-.086-.152-.086Z" fill="#263238"/><path d="M6.348 80.451s.051-.015.098-.082a.324.324 0 0 0 .047-.132.195.195 0 0 0-.057-.168.073.073 0 0 0-.097.03.196.196 0 0 0-.028.08.564.564 0 0 0 0 .138c0 .043.011.085.032.123v-.123c0-.045.003-.09.011-.133 0-.045.035-.107.076-.086.041.022.043.09.043.135a.304.304 0 0 1-.037.123.585.585 0 0 1-.088.095ZM4.143 78.364s.066.045.154.136c.114.121.193.27.228.433a.897.897 0 0 1-.04.487c-.044.12-.093.185-.087.195a.676.676 0 0 0 .11-.18.85.85 0 0 0-.365-1.071Z" fill="#263238"/><path d="M5.114 77.653a4.762 4.762 0 0 0-.39.427c-.129.143-.25.292-.363.448.14-.133.27-.275.39-.425.129-.144.25-.294.363-.45ZM4.837 79.64c.083.11.18.208.289.293.1.094.214.174.337.237 0 0-.142-.117-.314-.263-.172-.146-.304-.28-.312-.267ZM4.416 79.288s-.014.039-.026.084c-.011.044-.029.078-.021.083.008.006.039-.023.054-.076.016-.052.002-.093-.007-.091ZM4.422 78.957c-.01 0-.014.035-.01.076.004.04.014.074.023.074.01 0 .014-.035 0-.076-.013-.041-.004-.075-.013-.075ZM4.27 78.676c0 .01.025.033.046.07.022.037.032.074.041.074.01 0 .016-.045-.011-.091-.028-.047-.073-.06-.076-.053ZM4.143 78.499v.048c0 .021.029.035.036.031.008-.004 0-.027 0-.048 0-.022-.029-.035-.036-.031Z" fill="#263238"/><path d="M12.047 48.959s-.934 3.947-.669 4.728c.265.782 1.976 1.232 1.976 1.232l-.059 10.81-9.462 11.69 3.49 2.853s10.247-11.708 11.15-13.833c.903-2.126-.585-17.661-.585-17.661l-5.841.18Z" fill="#0A0070"/><path d="m16.88 47.35.461 32.832-4.81.03-2.417-26.747c-.51-.487-1.23-1.32-1.131-3.182l.117-2.16 7.78-.774Z" fill="#0A0070"/><path d="M11.809 67.557a.228.228 0 0 1 .027-.049l.092-.134.357-.505 1.306-1.808v.025l-.368-4.011a216.63 216.63 0 0 1-.4-5.005c-.043-.641-.07-1.16-.086-1.518 0-.171-.012-.31-.014-.415a.58.58 0 0 1 0-.144c.01.047.016.096.018.144 0 .103.02.242.033.413.03.368.068.883.12 1.516.1 1.28.253 3.047.428 5 .13 1.495.263 2.875.351 4.02V65.112l-1.336 1.785-.376.492-.101.127c-.041.031-.051.043-.051.04ZM13.283 53.993a6.561 6.561 0 0 1-1.275-.195 6.547 6.547 0 0 1-1.245-.339c.427.055.85.135 1.266.24.423.074.842.172 1.254.294ZM16.579 65.21a4.883 4.883 0 0 0-1.299-.34 4.9 4.9 0 0 0-1.338.131c.115-.072.242-.122.375-.146a2.937 2.937 0 0 1 1.919.15c.125.047.242.116.343.205ZM18.278 66.725c.021.018-1.332 1.833-3.025 4.054-1.693 2.221-3.083 4.012-3.105 3.996-.021-.015 1.332-1.833 3.025-4.056 1.693-2.223 3.083-4.012 3.105-3.994ZM17.626 49.787a.826.826 0 0 1-.27.358 1.344 1.344 0 0 1-1.963-.206.79.79 0 0 1-.195-.407c.075.124.157.245.246.36a1.336 1.336 0 0 0 1.862.195c.112-.095.219-.195.32-.3Z" fill="#455A64"/><path d="M11.049 32.893a4.191 4.191 0 0 1-.229-5.845" fill="#14181B"/><path d="M8.343 35.956s-1.045 1.18-1.261 5.695c0 0 2.978.565 3.032.403.055-.162-1.77-6.098-1.77-6.098Z" fill="#FC7387"/><path opacity=".3" d="M8.343 35.956s-1.045 1.18-1.261 5.695c0 0 2.978.565 3.032.403.055-.162-1.77-6.098-1.77-6.098Z" fill="#FC7387"/><path d="M8.827 49.105h9.144l-.148-1.428s-1.045-5.428-1.038-5.5l.164-.345a3.441 3.441 0 0 0 .041-2.874l4.486-1.53-1.096-3.69c-2.032.342-5.104.726-5.104.726l-.456.037s-3.171.165-3.24.173c-1.326.162-2.868.263-3.432 1.681-.302.758-.015 1.896.478 3.069l1.17 3.604c.468 1.982-.279 1.886-.69 3.881-.067.3-.285 1.92-.28 2.196Z" fill="#FC7387"/><path opacity=".3" d="M8.827 49.105h9.144l-.148-1.428s-1.045-5.428-1.038-5.5l.164-.345a3.441 3.441 0 0 0 .041-2.874l4.486-1.53-1.096-3.69c-2.032.342-5.104.726-5.104.726l-.456.037s-3.171.165-3.24.173c-1.326.162-2.868.263-3.432 1.681-.302.758-.015 1.896.478 3.069l1.17 3.604c.468 1.982-.279 1.886-.69 3.881-.067.3-.285 1.92-.28 2.196Z" fill="#FC7387"/><path d="M21.425 37.489a.995.995 0 0 1-.195.084c-.128.047-.317.11-.552.195-.468.157-1.119.366-1.837.596-.717.23-1.365.458-1.813.645-.23.093-.412.175-.538.23a.837.837 0 0 1-.196.078.977.977 0 0 1 .184-.115c.123-.065.3-.158.526-.26a17.753 17.753 0 0 1 1.812-.674 79.125 79.125 0 0 1 2.409-.73.83.83 0 0 1 .2-.049Z" fill="#263238"/><path d="M20.895 35.523c0 .027-2.705.05-6.046.05-3.34 0-6.046-.023-6.046-.05 0-.027 2.703-.05 6.046-.05 3.343 0 6.046.023 6.046.05ZM21.17 37.318c0 .027-3.01.05-6.72.05-3.712 0-6.719-.023-6.719-.05 0-.028 3.007-.05 6.718-.05s6.72.022 6.72.05ZM8.493 39.36c-.182.049-.372.066-.561.05a1.613 1.613 0 0 1-.56-.05 1.61 1.61 0 0 1 .56-.051 1.62 1.62 0 0 1 .561.05ZM17.27 39.422c0 .027-1.968.05-4.395.05-2.426 0-4.393-.023-4.393-.05 0-.028 1.966-.05 4.393-.05 2.428 0 4.394.02 4.394.05ZM17.074 41.524c0 .029-1.767.05-3.943.05s-3.945-.021-3.945-.05c0-.03 1.765-.05 3.945-.05 2.18 0 3.943.023 3.943.05ZM17.02 43.474c0 .027-1.6.05-3.573.05-1.974 0-3.577-.023-3.577-.05 0-.027 1.602-.05 3.577-.05 1.976 0 3.573.02 3.573.05ZM17.334 45.05c0 .03-1.713.05-3.825.05s-3.824-.02-3.824-.05c0-.029 1.712-.05 3.824-.05s3.825.023 3.825.05ZM17.829 47.061c0 .03-1.95.05-4.351.05-2.4 0-4.35-.02-4.35-.05 0-.03 1.95-.05 4.35-.05 2.4 0 4.35.023 4.35.05Z" fill="#FAFAFA"/><path d="M9.736 42.858a.61.61 0 0 1-.082-.179l-.195-.499c-.162-.42-.39-1.001-.624-1.65a26.836 26.836 0 0 1-.554-1.675 7.947 7.947 0 0 1-.132-.519.831.831 0 0 1-.034-.194c.09.226.169.457.235.691.14.429.345 1.017.585 1.664a38.094 38.094 0 0 1 .746 2.17.78.78 0 0 1 .055.191Z" fill="#263238"/></svg>