<svg width="87" height="77" fill="none" xmlns="http://www.w3.org/2000/svg"><circle cx="17.683" cy="22.634" r="17.683" fill="#273CFD"/><path d="M18.105 37.42a8.478 8.478 0 1 1-1.727-11.85 8.468 8.468 0 0 1 1.727 11.85Z" fill="#EBEBEB"/><path d="M16.49 36.211a6.46 6.46 0 1 1-1.324-9.03 6.452 6.452 0 0 1 1.324 9.03Z" fill="#F5F5F5"/><path d="M16.609 36.049c-.033-.023.115-.265.329-.724.3-.643.498-1.328.588-2.031a6.398 6.398 0 0 0-.361-3.07 6.17 6.17 0 0 0-.379-.814 6.105 6.105 0 0 0-1.148-1.504 6.298 6.298 0 0 0-1.628-1.134 6.36 6.36 0 0 0-1.811-.568 6.543 6.543 0 0 0-2.543.117c-.47.122-.926.295-1.358.515a6.843 6.843 0 0 0-1.702 1.25c-.358.357-.535.58-.568.567-.032-.013.1-.278.424-.686a5.955 5.955 0 0 1 1.681-1.428 6.546 6.546 0 0 1 6.095-.208c.322.157.633.339.928.543a6.548 6.548 0 0 1 2.44 3.207 6.448 6.448 0 0 1 .28 3.275 5.979 5.979 0 0 1-.757 2.07c-.283.434-.486.64-.51.623Z" fill="#E0E0E0"/><path d="m9.593 35.869-.66.91-.813-.587.643-.885c-.77-.633-1.36-1.444-1.553-2.12l1.167-.667a4.04 4.04 0 0 0 1.16 1.72l.984-1.357c-.745-.874-1.535-1.906-.692-3.07.626-.861 1.79-1.147 3.181-.362l.654-.902.813.59-.643.885a4.564 4.564 0 0 1 1.292 1.702l-1.135.705c-.223-.5-.545-.95-.945-1.324l-1.002 1.383c.756.866 1.524 1.89.692 3.025-.604.842-1.753 1.126-3.143.354Zm1.794-4.185.838-1.155c-.5-.216-.843-.102-1.038.166-.195.269-.076.615.2.99Zm-.022 2.975c.206-.286.083-.611-.178-.987l-.815 1.123c.473.206.804.123.993-.136Z" fill="#E0E0E0"/><path d="M69.009 61.498a7.355 7.355 0 1 1-1.498-10.281 7.349 7.349 0 0 1 1.498 10.282Z" fill="#EBEBEB"/><path d="M67.608 60.45a5.605 5.605 0 1 1-8.989-6.7 5.605 5.605 0 0 1 8.989 6.7Z" fill="#F5F5F5"/><path d="M67.712 60.31c-.029-.022.1-.232.283-.63.261-.558.433-1.152.51-1.763a5.571 5.571 0 0 0-1.08-4.05 5.597 5.597 0 0 0-.557-.628 6.104 6.104 0 0 0-.667-.55 5.499 5.499 0 0 0-3.094-.99 5.655 5.655 0 0 0-1.43.169 5.77 5.77 0 0 0-2.658 1.531c-.31.31-.466.503-.492.483-.026-.021.087-.24.367-.594.405-.5.9-.92 1.46-1.239.387-.222.8-.398 1.229-.524a5.714 5.714 0 0 1 2.358-.17 5.865 5.865 0 0 1 1.7.516 5.845 5.845 0 0 1 1.524 1.067c.216.212.416.44.598.683.174.233.33.48.465.739.131.243.244.496.337.756.17.488.276.997.311 1.513.03.447.007.895-.07 1.335a5.185 5.185 0 0 1-.663 1.797c-.237.384-.412.561-.431.548Z" fill="#E0E0E0"/><path d="m61.624 60.152-.567.79-.707-.512.558-.77c-.668-.548-1.178-1.253-1.347-1.838l1.012-.578c.2.576.547 1.09 1.006 1.494l.855-1.18c-.645-.757-1.324-1.653-.6-2.663.543-.756 1.553-.997 2.76-.314l.567-.785.705.513-.558.77c.485.393.87.897 1.121 1.469l-.983.61a3.532 3.532 0 0 0-.813-1.15l-.87 1.202c.65.756 1.324 1.635.602 2.63-.54.736-1.536.981-2.74.312Zm1.557-3.63.726-1.003c-.435-.189-.732-.089-.902.144-.17.232-.065.535.176.858Zm-.021 2.58c.18-.247.072-.529-.155-.856l-.706.974c.409.18.698.108.86-.117Z" fill="#E0E0E0"/><path d="M24.536 10.955a4.831 4.831 0 1 1-9.505-1.74 4.831 4.831 0 0 1 9.505 1.74Z" fill="#EBEBEB"/><path d="M23.405 10.745a3.682 3.682 0 1 1-7.243-1.327 3.682 3.682 0 0 1 7.243 1.327Z" fill="#F5F5F5"/><path d="M23.426 10.632a2.027 2.027 0 0 1-.015-.454 3.91 3.91 0 0 0-.57-1.942 3.615 3.615 0 0 0-.998-1.053 3.515 3.515 0 0 0-.968-.48c-.181-.057-.366-.1-.552-.131a4.135 4.135 0 0 0-.568-.042 3.512 3.512 0 0 0-1.543.357 3.637 3.637 0 0 0-1.358 1.13 3.915 3.915 0 0 0-.567 1.068c-.034.147-.084.29-.15.427-.018-.154-.003-.31.044-.457.094-.413.264-.804.501-1.154a3.66 3.66 0 0 1 1.404-1.239 3.735 3.735 0 0 1 2.865-.22c.188.063.372.14.55.23.171.086.335.187.49.3a3.797 3.797 0 0 1 1.042 1.15c.146.255.263.526.347.808.12.405.165.829.13 1.25.004.155-.025.309-.084.452Z" fill="#E0E0E0"/><path d="m19.793 12.307-.107.633-.568-.096.104-.617a2.712 2.712 0 0 1-1.324-.69l.428-.635c.285.28.64.483 1.027.586l.16-.946c-.6-.259-1.263-.588-1.125-1.395.102-.598.624-1.037 1.534-.985l.106-.628.567.096-.106.617c.4.091.773.276 1.087.539l-.4.646c-.24-.2-.516-.35-.814-.442l-.164.96c.601.254 1.254.581 1.117 1.375-.102.592-.618 1.027-1.522.982Zm-.138-2.59.138-.801c-.312.017-.457.16-.49.348-.032.187.118.33.352.454Zm.74 1.527c.034-.19-.112-.333-.34-.458l-.133.777c.293-.015.442-.143.473-.321v.002Z" fill="#E0E0E0"/><path d="M87 76.07c0 .029-17.49.051-39.059.051s-39.06-.028-39.06-.05c0-.023 17.483-.05 39.06-.05s39.06.023 39.06.05Z" fill="#263238"/><path d="M31.97 16.536s.164-8.473-6.846-12.777h22.218s6.352 5.147 6.405 12.777H31.97Z" fill="#EBEBEB"/><path d="M45.648 6.849c0 .028-2.538.051-5.673.051-3.136 0-5.674-.023-5.674-.051 0-.028 2.538-.05 5.674-.05 3.135 0 5.673.023 5.673.05Z" fill="#455A64"/><path d="M48.072 8.383c0 .026-3.363.049-7.51.049-4.146 0-7.509-.023-7.509-.05 0-.026 3.363-.05 7.51-.05 4.146 0 7.509.022 7.509.05ZM49.335 12.26c0 .026-3.362.048-7.51.048-4.146 0-7.51-.022-7.51-.049 0-.026 3.362-.049 7.51-.049 4.15 0 7.51.023 7.51.05ZM41.487 10.147a1.785 1.785 0 0 1-.306.02l-.84.016c-.709.01-1.687.015-2.768.015-1.082 0-2.06 0-2.769-.015l-.84-.015a1.786 1.786 0 0 1-.306-.021c.102-.014.204-.02.307-.02l.84-.014c.709 0 1.686-.015 2.768-.015 1.081 0 2.06 0 2.768.015l.84.015c.102-.002.205.005.306.019ZM48.072 10.147a.983.983 0 0 1-.227.02l-.62.016c-.522.01-1.247.015-2.045.015-.798 0-1.522 0-2.044-.015l-.62-.015a1.005 1.005 0 0 1-.227-.021c.075-.014.15-.02.227-.02l.62-.014c.522 0 1.246-.015 2.044-.015s1.513 0 2.045.015l.62.015c.076-.002.152.005.227.019ZM42.881 14.337a1.838 1.838 0 0 1-.308.021l-.838.015c-.71 0-1.689.015-2.768.015-1.08 0-2.062 0-2.77-.015l-.839-.015a1.838 1.838 0 0 1-.308-.02c.102-.015.206-.021.309-.02l.837-.015c.71 0 1.689-.015 2.77-.015 1.082 0 2.06 0 2.77.015l.837.015a2.01 2.01 0 0 1 .308.02ZM49.465 14.337c-.074.016-.15.023-.226.021l-.62.015c-.524 0-1.247.015-2.045.015-.798 0-1.513 0-2.046-.015l-.62-.015a1.017 1.017 0 0 1-.227-.02c.075-.015.15-.021.227-.02l.62-.015c.524 0 1.246-.015 2.046-.015.8 0 1.513 0 2.044.015l.62.015c.077-.001.153.005.227.02Z" fill="#263238"/><path d="M27.427 16.296h32.78l1.785 56.788a2.904 2.904 0 0 1-2.907 2.993h-34.08a1.875 1.875 0 0 1-1.874-1.783l-1.575-32.066s-9.722-3.53-9.557-14.296c0 0 .442-11.636 15.428-11.636Z" fill="#20292D"/><path d="m29.207 75.99-1.43-59.694h33.619l.607 57.183a2.511 2.511 0 0 1-2.517 2.59l-30.279-.079Z" fill="#3E5E6D"/><path d="m30.555 19.755.68 27.795h27.381l-.369-27.795H30.555Z" fill="#20292D"/><path d="M33.585 23.352c1.337.361 3.025.208 4.398.142a.379.379 0 0 0 0-.757c-1.373-.068-3.063-.221-4.398.142a.25.25 0 0 0 0 .482v-.01ZM40.32 23.297c1.313.334 3.01.274 4.35.145a.378.378 0 1 0 0-.756c-1.34-.13-3.037-.19-4.35.145a.245.245 0 0 0 0 .467v-.001ZM46.966 23.178c.66.2 1.373.166 2.057.178.699.041 1.4.028 2.097-.04.342-.05.342-.645 0-.692a13.172 13.172 0 0 0-2.097-.042c-.684.012-1.398-.022-2.057.178a.218.218 0 0 0 0 .418ZM53.123 23.216c.498.072 1 .11 1.503.115.5.011 1.038.093 1.522-.045a.331.331 0 0 0 0-.634c-.484-.138-1.023-.056-1.522-.045-.503.004-1.005.043-1.503.117a.256.256 0 0 0 0 .492Z" fill="#E0E0E0"/><path d="M39.18 50.855h-7.934v5.671h7.934v-5.671Z" fill="#30D4FE"/><path d="M32.68 50.855h-1.434v5.671h1.435v-5.671Z" fill="#263238"/><path d="M48.896 50.855h-7.934v5.671h7.934v-5.671Z" fill="#30D4FE"/><path d="M42.316 50.855H40.88v5.671h1.436v-5.671Z" fill="#263238"/><path d="M58.614 50.855H50.68v5.671h7.935v-5.671Z" fill="#30D4FE"/><path d="M51.888 50.855h-1.435v5.671h1.435v-5.671Z" fill="#263238"/><path d="M58.614 58.4H50.68v5.671h7.935V58.4Z" fill="#30D4FE"/><path d="M52.158 58.4H50.68v5.671h1.48V58.4Z" fill="#263238"/><path d="M39.18 58.4h-7.934v5.671h7.934V58.4Z" fill="#30D4FE"/><path d="M32.68 58.389h-1.434v5.67h1.435v-5.67Z" fill="#263238"/><path d="M39.18 65.87h-7.934v5.67h7.934v-5.67Z" fill="#FF725E"/><path opacity=".3" d="M39.18 65.87h-7.934v5.67h7.934v-5.67Z" fill="#30D4FE"/><path d="M32.68 65.87h-1.434v5.67h1.435v-5.67Z" fill="#263238"/><path d="M48.853 58.4h-7.935v5.671h7.935V58.4Z" fill="#30D4FE"/><path d="M42.353 58.389h-1.435v5.67h1.435v-5.67Z" fill="#263238"/><path d="M48.896 65.87h-7.934v5.67h7.934v-5.67Z" fill="#FF725E"/><path opacity=".3" d="M48.896 65.87h-7.934v5.67h7.934v-5.67Z" fill="#30D4FE"/><path d="M42.397 65.87h-1.435v5.67h1.435v-5.67Z" fill="#263238"/><path d="M58.614 65.87H50.68v5.67h7.935v-5.67Z" fill="#E0E0E0"/><path d="M52.115 65.87h-1.436v5.67h1.436v-5.67Z" fill="#263238"/><path d="M26.588 76.077c-.136 0-.634-13.377-1.112-29.878-.479-16.5-.756-29.895-.62-29.899.136-.003.633 13.374 1.112 29.878.478 16.505.756 29.896.62 29.9ZM58.575 44.384v1.019l3.139.781-.017-1.571-3.123-.23Z" fill="#455A64"/><path d="M20.468 42.34a1.269 1.269 0 0 0-.54-.09 1.919 1.919 0 0 0-.541.133l-2.149.719-4.197 1.41-7.943 2.648c-.313.09-.583.292-.756.567-.172.27-.236.595-.18.91.035.156.08.31.136.46l.153.457.305.906c.398 1.196.787 2.358 1.165 3.485.756 2.25 1.452 4.35 2.093 6.257 1.275 3.826 2.31 6.923 3.026 9.064.355 1.07.63 1.9.819 2.458.09.282.162.496.21.641.047.146.067.22.067.22s.023.075.097.208a1.323 1.323 0 0 0 1.505.633c.412-.132.885-.299 1.42-.476l7.897-2.663-8.422-26.304 4.213-1.412 7.607 23.31-.332-8.109c-1.532-4.563-3.187-9.496-4.917-14.645a1.29 1.29 0 0 0-.736-.787ZM10.76 54.323l-1.88-5.949.637-.202 1.88 5.949-.637.202Zm1.305-3.277-1.097-3.468.637-.2 1.097 3.466-.637.202Zm1.47 4.399-1.094-3.468.637-.201 1.095 3.466-.637.203Zm.38.93.636-.202 3.036 9.602-.638.2-3.035-9.6Zm3.97 12.564-.648-2.052.637-.202.649 2.053-.638.2Zm2.623-1.09-.637.201-4.003-12.67.637-.2 4.003 12.67Zm-4.33-13.881-.638.2-2.322-7.343.637-.202 2.323 7.345Z" fill="#FF725E"/><path opacity=".3" d="M20.468 42.34a1.269 1.269 0 0 0-.54-.09 1.919 1.919 0 0 0-.541.133l-2.149.719-4.197 1.41-7.943 2.648c-.313.09-.583.292-.756.567-.172.27-.236.595-.18.91.035.156.08.31.136.46l.153.457.305.906c.398 1.196.787 2.358 1.165 3.485.756 2.25 1.452 4.35 2.093 6.257 1.275 3.826 2.31 6.923 3.026 9.064.355 1.07.63 1.9.819 2.458.09.282.162.496.21.641.047.146.067.22.067.22s.023.075.097.208a1.323 1.323 0 0 0 1.505.633c.412-.132.885-.299 1.42-.476l7.897-2.663-8.422-26.304 4.213-1.412 7.607 23.31-.332-8.109c-1.532-4.563-3.187-9.496-4.917-14.645a1.29 1.29 0 0 0-.736-.787ZM10.76 54.323l-1.88-5.949.637-.202 1.88 5.949-.637.202Zm1.305-3.277-1.097-3.468.637-.2 1.097 3.466-.637.202Zm1.47 4.399-1.094-3.468.637-.201 1.095 3.466-.637.203Zm.38.93.636-.202 3.036 9.602-.638.2-3.035-9.6Zm3.97 12.564-.648-2.052.637-.202.649 2.053-.638.2Zm2.623-1.09-.637.201-4.003-12.67.637-.2 4.003 12.67Zm-4.33-13.881-.638.2-2.322-7.343.637-.202 2.323 7.345Z" fill="url(#a)"/><path d="m23.061 70.323-.01-.03-7.896 2.662c-.535.178-1.008.344-1.42.477a1.323 1.323 0 0 1-1.506-.634c-.073-.132-.09-.21-.096-.208l.019.055a1.305 1.305 0 0 0 .526.65 1.324 1.324 0 0 0 1.062.163c.416-.13.889-.293 1.426-.47l9.064-3.026 2.15-.719.208-.106-3.527 1.186ZM12.065 72.37c-.047-.147-.12-.36-.21-.642-.19-.567-.463-1.395-.819-2.458-.713-2.14-1.747-5.238-3.025-9.064-.642-1.912-1.341-4.007-2.094-6.257-.378-1.125-.766-2.287-1.165-3.485l-.304-.906-.153-.458a3.52 3.52 0 0 1-.137-.46c-.056-.314.009-.639.18-.909.174-.276.443-.478.757-.567l7.942-2.648 4.198-1.407 2.148-.718c.173-.07.355-.115.54-.133a1.27 1.27 0 0 1 .997.4c.128.135.225.296.284.472 1.727 5.15 3.381 10.083 4.917 14.646l-.013-.306c-1.502-4.486-3.124-9.323-4.813-14.372a1.384 1.384 0 0 0-.792-.84 1.357 1.357 0 0 0-.581-.094 2.013 2.013 0 0 0-.567.136l-2.147.72-4.198 1.407-7.942 2.663a1.363 1.363 0 0 0-.995 1.562c.036.16.083.317.14.47.051.154.104.305.155.458.1.303.203.606.303.904.403 1.197.794 2.358 1.17 3.485l2.11 6.25 3.051 9.054c.363 1.067.643 1.892.834 2.459l.22.639.077.218s-.02-.074-.068-.22Z" fill="#263238"/><path d="m16.498 55.182-.636.201 4.004 12.669.637-.201-4.005-12.669ZM13.855 46.623l-.636.201 2.322 7.348.637-.201-2.323-7.348ZM11.606 47.377l-.636.2 1.095 3.468.637-.201-1.096-3.468ZM9.397 47.995l-.635.2 1.873 5.928.634-.2-1.872-5.928ZM17.882 66.684l-.636.2.649 2.053.636-.201-.649-2.052ZM13.077 51.775l-.637.202 1.096 3.467.637-.201-1.096-3.468ZM14.545 56.177l-.637.2 3.035 9.602.636-.2-3.034-9.602ZM14.633 43.982l8.419 26.31.01.03 3.526-1.181-.134-3.264-7.608-23.307-4.213 1.412Z" fill="#FAFAFA"/><path d="m23.014 71.894 3.419-1.203-.074-1.5-3.298 1.132-.047 1.571ZM66.121 28.365c0 .027-.105.044-.238.038-.132-.005-.234-.032-.232-.06.002-.029.108-.044.238-.038.13.006.234.032.233.06ZM67.973 28.285c-.145.062-.302.09-.46.086a1.123 1.123 0 0 1-.467-.014c.3-.089.616-.113.927-.072ZM69.807 27.959c-.136.079-.288.128-.444.145-.15.048-.309.065-.466.05.287-.127.597-.192.91-.19v-.005ZM71.575 27.394a1.136 1.136 0 0 1-.42.202 1.116 1.116 0 0 1-.453.11c.124-.097.267-.166.42-.203.142-.066.296-.103.453-.11ZM73.252 26.593c-.11.112-.243.2-.39.257-.13.087-.279.146-.434.172.11-.111.243-.2.39-.258.131-.087.28-.145.434-.17ZM74.797 25.563c.017.02-.138.16-.348.312a1.12 1.12 0 0 1-.404.232c-.015-.022.14-.162.348-.314.208-.15.387-.253.404-.23ZM76.163 24.303c.02.02-.112.19-.293.364-.182.174-.346.313-.363.293-.017-.021.111-.19.293-.363.181-.174.342-.318.363-.294ZM77.292 22.83c.025.013-.078.19-.225.409-.148.219-.286.378-.306.353.046-.15.123-.29.225-.41.147-.208.283-.367.306-.352ZM78.124 21.17a2.224 2.224 0 0 1-.378.85c.015-.155.063-.307.14-.444.05-.15.13-.289.238-.406ZM78.615 19.381c.014.157-.004.315-.054.464-.02.156-.07.307-.152.442.004-.313.074-.622.206-.906ZM78.805 17.534c.047.31.027.625-.06.926a1.135 1.135 0 0 1-.018-.465c-.006-.157.02-.314.078-.461ZM78.712 15.68c.093.3.121.615.081.925-.06-.145-.09-.3-.089-.457a1.155 1.155 0 0 1 .008-.467ZM78.335 13.861c.084.134.139.283.161.439.053.148.075.306.064.463a1.156 1.156 0 0 1-.16-.438 1.166 1.166 0 0 1-.065-.464ZM77.662 12.13c.105.118.185.256.233.405.079.137.127.29.142.447a1.186 1.186 0 0 1-.233-.407 1.142 1.142 0 0 1-.142-.444ZM76.671 10.56c.021-.018.157.14.307.351.102.12.179.258.225.409-.023.015-.161-.144-.307-.352a1.147 1.147 0 0 1-.225-.409ZM75.384 9.229c.017-.021.189.092.378.268.189.176.318.342.299.361-.02.02-.178-.115-.365-.29-.188-.173-.33-.319-.312-.34ZM74.228 8.43c.013-.023.116.013.227.081.112.069.19.142.176.165-.013.023-.117-.013-.227-.08-.11-.066-.191-.141-.176-.166Z" fill="#263238"/><path d="M69.1 13.101A6.55 6.55 0 1 0 69.1 0a6.55 6.55 0 0 0 0 13.101Z" fill="#FDE589"/><path d="m65.225 7.029 1.014-1.014 1.955 1.738 3.839-3.693.942 1.014-4.925 4.635-2.825-2.68Z" fill="#FC7387"/><path d="M74.682 23.258c-.391.652-.352 1.471-.242 2.226.11.754.28 1.524.112 2.269-.112.49-.379.98-.25 1.465.085.346.344.619.473.946.189.473.081.998.019 1.501-.063.503-.059 1.065.274 1.445.414.473 1.176.452 1.743.19.568-.264 1.018-.73 1.544-1.073.525-.342 1.21-.567 1.775-.295.261.125.486.348.774.378.402.03.72-.338 1.11-.446.334-.09.692.02 1.036-.019.701-.078 1.22-.834 1.121-1.532a1.719 1.719 0 0 0-1.422-1.378c-.297-.05-.654-.057-.817-.31-.242-.379.19-.853.108-1.29-.053-.314-.352-.524-.645-.652-.293-.13-.616-.214-.843-.437-.407-.397-.361-1.048-.486-1.604-.206-.915-1.063-2.79-2.927-2.973" fill="#20292D"/><path d="M73.818 75.337 73.854 74l2.502.051-.032 1.954h-.155c-.69.025-3.516.076-3.972-.074-.514-.16 1.621-.596 1.621-.596Z" fill="#FC7387"/><path d="M75.418 75.966a.862.862 0 0 1 .917-.696l-.013.698-.904-.002Z" fill="#FC7387"/><path d="M72.774 75.584s-.756.2-.658.325c.098.125 2.946.19 4.207.095v-.055l-3.33-.038s-.073-.318-.219-.327Z" fill="#FC7387"/><path d="M76.36 75.947H76.192l-.454.011h-1.501c-.587 0-1.118-.032-1.502-.052l-.454-.029-.123-.01h-.043H72.282l.456.018c.378.015.913.034 1.5.045.586.011 1.115.013 1.5.011h.621v.006Z" fill="#263238"/><path d="M72.99 75.95a1.072 1.072 0 0 0-.082-.219 1.08 1.08 0 0 0-.15-.177c.076.03.14.088.177.162a.344.344 0 0 1 .055.235ZM73.735 75.59s-.042-.04-.078-.096c-.036-.057-.058-.11-.05-.114.007-.004.04.04.077.097.036.056.058.11.05.113ZM73.939 75.488s-.043-.021-.087-.06c-.043-.04-.072-.078-.066-.084.005-.006.045.02.087.06.041.04.072.078.066.084ZM74.072 75.253c0 .01-.06.015-.131.015-.072 0-.13 0-.13-.017a.293.293 0 0 1 .13-.013.31.31 0 0 1 .13.015ZM74.119 75.088a.253.253 0 0 1-.146.04.24.24 0 0 1-.15-.024.886.886 0 0 1 .148 0 .61.61 0 0 1 .148-.016Z" fill="#263238"/><path d="M73.646 75.37a.462.462 0 0 1-.16 0 1.049 1.049 0 0 1-.171-.042.511.511 0 0 1-.096-.041.093.093 0 0 1-.04-.051.065.065 0 0 1 .026-.065.297.297 0 0 1 .413.203v.043a.438.438 0 0 0-.07-.138.28.28 0 0 0-.137-.092.248.248 0 0 0-.189.009c-.026.019-.017.05.012.066a1.058 1.058 0 0 0 .253.087c.106.015.159.015.159.021Z" fill="#263238"/><path d="M73.612 75.377a.16.16 0 0 1-.015-.111.247.247 0 0 1 .049-.12.159.159 0 0 1 .136-.079.066.066 0 0 1 .047.076.19.19 0 0 1-.028.07.541.541 0 0 1-.078.096.242.242 0 0 1-.094.065s.034-.029.08-.08a.487.487 0 0 0 .067-.094c.023-.034.04-.095 0-.102-.04-.008-.083.034-.107.066a.243.243 0 0 0-.048.104.747.747 0 0 0-.01.11ZM76.322 75.263s-.07-.01-.19 0a.784.784 0 0 0-.665.51c-.04.106-.045.178-.051.178a.19.19 0 0 1 0-.051.756.756 0 0 1 .715-.658.885.885 0 0 1 .136 0c.038.013.057.019.055.02ZM76.084 74.217c.014.17.018.343.01.514.005.171 0 .342-.018.513a4.635 4.635 0 0 1-.011-.513 4.507 4.507 0 0 1 .019-.514ZM75.108 75.714c-.12.026-.244.036-.367.029a1.469 1.469 0 0 1-.365-.036c0-.01.164 0 .367 0 .202 0 .363.007.365.007Z" fill="#263238"/><path d="M75.597 75.726s-.013.034-.032.07c-.019.036-.026.072-.036.07-.01-.002-.011-.04.01-.082.02-.041.053-.07.058-.058ZM75.786 75.499s-.01.032-.037.056c-.027.025-.051.042-.057.036-.006-.005.01-.032.036-.056.026-.025.053-.042.058-.036ZM76.053 75.399c0 .01-.035 0-.072.02-.035.021-.064.03-.07.025-.005-.005.016-.04.061-.055.046-.015.083.002.081.01ZM76.242 75.353s-.011.021-.032.029c-.02.007-.041 0-.043 0-.002 0 .011-.021.032-.029.02-.007.04-.007.043 0Z" fill="#263238"/><path d="M80.915 75.337 80.95 74l2.5.051-.032 1.954h-.156c-.69.025-3.513.076-3.97-.074-.513-.16 1.622-.596 1.622-.596Z" fill="#FC7387"/><path d="M82.513 75.966a.866.866 0 0 1 .33-.525.833.833 0 0 1 .589-.17l-.015.697-.904-.002Z" fill="#FC7387"/><path d="M79.871 75.584s-.756.2-.66.325c.097.125 2.947.19 4.208.095v-.055l-3.332-.038s-.07-.318-.216-.327Z" fill="#FC7387"/><path d="M83.457 75.947H83.29l-.456.011h-1.501c-.586 0-1.118-.032-1.5-.052l-.455-.029-.123-.01h-.044H79.38l.454.018a63.704 63.704 0 0 0 3.001.057h.623v.005Z" fill="#263238"/><path d="M80.085 75.95a.994.994 0 0 0-.08-.219 1.075 1.075 0 0 0-.15-.177.402.402 0 0 1 .23.397ZM80.832 75.59s-.042-.04-.076-.096c-.034-.057-.058-.11-.05-.114.007-.004.04.04.075.097.034.056.05.11.05.113ZM81.036 75.488s-.045-.021-.087-.06c-.042-.04-.072-.078-.066-.084.005-.006.043.02.087.06.043.04.072.078.066.084ZM81.168 75.253c0 .01-.058.015-.13.015-.072 0-.13 0-.13-.017a.293.293 0 0 1 .13-.013.31.31 0 0 1 .13.015ZM81.21 75.088a.271.271 0 0 1-.147.04.24.24 0 0 1-.15-.024.908.908 0 0 1 .148 0 .625.625 0 0 1 .149-.016Z" fill="#263238"/><path d="M80.75 75.37a.467.467 0 0 1-.16 0 1.049 1.049 0 0 1-.17-.042.48.48 0 0 1-.099-.041.089.089 0 0 1-.038-.051.068.068 0 0 1 .025-.064.295.295 0 0 1 .363.094.272.272 0 0 1 .051.108.097.097 0 0 1 0 .043.424.424 0 0 0-.072-.138.286.286 0 0 0-.134-.092.254.254 0 0 0-.19.009c-.024.019-.014.05.012.066a1.01 1.01 0 0 0 .255.087c.095.015.157.015.157.021Z" fill="#263238"/><path d="M80.709 75.378a.153.153 0 0 1-.017-.112.274.274 0 0 1 .047-.117.158.158 0 0 1 .134-.08.066.066 0 0 1 .05.076.157.157 0 0 1-.03.07.465.465 0 0 1-.078.097.243.243 0 0 1-.093.064s.032-.028.078-.08a.577.577 0 0 0 .07-.094c.022-.034.037-.094 0-.102-.038-.007-.082.034-.108.066a.295.295 0 0 0-.047.104.589.589 0 0 0-.006.108ZM83.419 75.263s-.072-.01-.19 0a.817.817 0 0 0-.406.158.827.827 0 0 0-.259.352c-.04.106-.045.178-.051.178a.151.151 0 0 1 0-.051.756.756 0 0 1 .713-.658.936.936 0 0 1 .138 0c.02.003.038.01.055.02ZM83.18 74.217c.014.17.018.343.012.514.003.171-.003.342-.019.513a4.114 4.114 0 0 1-.011-.513 4.053 4.053 0 0 1 .019-.514ZM82.203 75.714c-.12.026-.243.036-.365.029a1.44 1.44 0 0 1-.365-.036c0-.01.164 0 .365 0 .2 0 .365.007.365.007Z" fill="#263238"/><path d="M82.692 75.726s-.013.034-.03.07c-.017.036-.028.072-.036.07-.007-.002-.011-.04 0-.082.012-.041.063-.07.066-.058ZM82.884 75.499s-.012.032-.038.056c-.027.025-.053.042-.059.036-.005-.005.012-.032.038-.056.026-.025.051-.042.059-.036ZM83.148 75.399c0 .01-.034 0-.072.02-.037.021-.062.03-.07.025-.007-.005.015-.04.06-.055.046-.015.086.002.082.01ZM83.337 75.353s-.01.021-.032.029c-.02.007-.04 0-.043 0-.004 0 .013-.021.034-.029.02-.007.04-.007.041 0Z" fill="#263238"/><path d="m73.313 41.024-1.199 17.872v16.117h4.792s.202-13.899.075-14.808c0 0 .783-13.922.872-13.724.19.407.178 12.241.447 13.706.268 1.466 1.512 14.826 1.512 14.826h4.613l-1.551-15.317c-.032-1.846-.507-18.054-.507-18.054l-9.054-.618Z" fill="#20292D"/><path d="M84.32 74.098a.339.339 0 0 1-.177.062 1.042 1.042 0 0 1-.507-.083 3.31 3.31 0 0 0-.694-.25c-.27-.04-.552.103-.82.282a1.984 1.984 0 0 1-.846.39 1.766 1.766 0 0 1-.756-.093 4.136 4.136 0 0 1-.473-.189.6.6 0 0 1-.16-.093c0-.017.247.099.652.22.234.072.482.095.726.068a1.94 1.94 0 0 0 .803-.379c.135-.09.278-.168.428-.23a.918.918 0 0 1 .458-.057c.248.058.488.148.714.267.15.07.312.108.477.108.111-.004.172-.033.176-.023ZM76.946 73.986a1.331 1.331 0 0 0-.151-.123.724.724 0 0 0-.505-.076 2.082 2.082 0 0 0-.704.354c-.135.09-.278.168-.427.23a.994.994 0 0 1-.528.063c-.363-.062-.65-.251-.945-.316a1.525 1.525 0 0 0-.776.034c-.434.13-.69.265-.697.246a.774.774 0 0 1 .174-.102c.162-.084.33-.155.504-.212.263-.09.544-.109.816-.055.308.067.599.254.932.309.333.055.637-.117.889-.274.22-.164.472-.281.739-.345a.74.74 0 0 1 .54.112c.063.035.111.09.139.155ZM82.044 44.73a.602.602 0 0 1-.28.095 1.702 1.702 0 0 1-1.344-.379c-.14-.119-.203-.215-.19-.223a2.157 2.157 0 0 0 1.818.501l-.004.006ZM74.088 44.032c.012 0 .012.097-.037.237a1.178 1.178 0 0 1-.834.745c-.146.032-.239.02-.239.01a1.535 1.535 0 0 0 1.11-.992Z" fill="#455A64"/><path d="m72.922 35.11-.965-3.534s-4.538 1.182-4.827.815c-1.647-2.037-2.48-4.835-2.739-5.84.036-.143.085-.311.152-.508.057-.168.143-.326.253-.465.13-.178.284-.337.458-.473a.205.205 0 0 0-.06-.378c-.19-.014-.666.274-1.024.82-.357.547-.465-.474-.51-.845-.046-.37-.244-1.513-.37-1.594-.188-.112-.338.064-.283.435.055.37.14 1.494-.057 1.513-.196.019-.404-1.891-.404-1.891s.02-.413-.208-.403c-.414.017-.042 2.018 0 2.209.028.13-.19.155-.208.01-.02-.143-.167-1.89-.587-1.89-.323.011.29 1.649.118 2.029-.172.38-.339-1.29-.647-1.267-.113 0-.199.03.036.976.198.674.431 1.336.7 1.985h-.017s1.683 9.875 6.05 9.323c4.65-.575 5.139-1.027 5.139-1.027Z" fill="#FFBE9D"/><path d="m66.331 44.908-27.716-2.017a1.426 1.426 0 0 1-1.324-1.527l1.24-17.028a1.425 1.425 0 0 1 1.526-1.324l27.727 2.023a1.428 1.428 0 0 1 1.323 1.526l-1.24 17.03a1.424 1.424 0 0 1-1.536 1.317Z" fill="#273CFD"/><path d="M66.331 44.908c.085.005.17.005.254 0a1.4 1.4 0 0 0 1.078-.717c.098-.175.157-.37.174-.57l.117-1.657.756-10.546.252-3.497c.023-.302.043-.61.066-.919.023-.308.076-.626-.023-.92a1.356 1.356 0 0 0-.53-.744 1.417 1.417 0 0 0-.423-.204 2.461 2.461 0 0 0-.476-.063l-8.36-.603-19.155-1.401a1.381 1.381 0 0 0-1.412.957 2.49 2.49 0 0 0-.083.612l-.19 2.5a706.222 706.222 0 0 0-.355 4.887l-.677 9.237c-.05.358.04.72.25 1.014.206.289.517.487.866.552.705.07 1.42.108 2.116.165l4.056.297 7.284.537 10.545.782 2.864.22.757.064.253.023s-.085 0-.253-.013l-.757-.05-2.866-.198-10.549-.756-7.278-.519-4.058-.293c-.698-.055-1.4-.09-2.126-.162a1.464 1.464 0 0 1-.922-.587 1.513 1.513 0 0 1-.267-1.072l.671-9.24.354-4.886c.06-.828.123-1.661.189-2.5.003-.214.032-.428.087-.635a1.475 1.475 0 0 1 1.513-1.025l19.154 1.4 8.358.612c.166.006.33.028.492.066.16.046.312.12.448.216.273.19.473.467.567.787.046.155.064.318.055.48 0 .159-.02.312-.032.469l-.068.919c-.088 1.215-.174 2.38-.257 3.494l-.785 10.547-.125 1.654a1.43 1.43 0 0 1-1.284 1.296 1.17 1.17 0 0 1-.189 0l-.076-.01Z" fill="#263238"/><path d="M64.363 29.434a2.115 2.115 0 1 1-4.217-.321 2.115 2.115 0 0 1 4.217.32Z" fill="#FAFAFA"/><path d="M64.796 31.676h-.16a2.184 2.184 0 1 1 .16 0Zm0-4.23a2 2 0 1 0 .147 0h-.147ZM40.426 35.814l-.123 1.702-.173-.013.111-1.541-.399-.029.011-.155.573.036ZM42.066 37.487l-.014.155-1.189-.087v-.123l.756-.639c.205-.176.25-.285.258-.402.015-.19-.116-.328-.379-.347a.568.568 0 0 0-.476.156l-.115-.116a.758.758 0 0 1 .618-.198c.344.024.55.215.53.499a.708.708 0 0 1-.318.51l-.617.524.946.068ZM43.866 37.327l-.338-.025-.035.446-.174-.013.033-.446-.957-.068v-.127l.981-1.059.19.013-.946 1.033.737.055.029-.394.17.012-.028.393.338.025v.155ZM46.466 37.516l-.338-.025-.034.446-.174-.013.032-.444-.957-.07v-.127l.982-1.059.189.015-.946 1.03.738.056.028-.394.17.014-.03.391.34.025v.155ZM47.953 37.571c-.021.29-.239.5-.653.469a.867.867 0 0 1-.592-.263l.095-.13a.741.741 0 0 0 .507.234c.287.021.45-.11.465-.316.015-.206-.11-.363-.541-.395l-.361-.026.15-.844.928.068-.012.155-.775-.056-.098.535.219.017c.51.036.69.251.668.552ZM49.63 37.686a.528.528 0 0 1-.617.479c-.451-.033-.673-.364-.633-.899.042-.576.378-.854.84-.82a.78.78 0 0 1 .395.12l-.081.137a.598.598 0 0 0-.324-.104c-.367-.027-.618.189-.652.65v.14a.541.541 0 0 1 .539-.253.513.513 0 0 1 .533.55Zm-.172 0c.017-.223-.138-.378-.4-.397a.394.394 0 0 0-.462.338c-.015.19.128.379.421.398a.379.379 0 0 0 .44-.346v.007ZM51.95 37.875c-.02.283-.242.486-.652.456a.876.876 0 0 1-.594-.263l.095-.13c.133.14.316.224.51.234.282.019.447-.1.462-.31.015-.21-.12-.348-.433-.379l-.121-.01.009-.128.513-.554-.868-.062.01-.155 1.092.08-.01.122-.523.567c.363.055.53.26.51.532ZM53.652 37.98a.529.529 0 0 1-.618.481c-.45-.032-.673-.363-.634-.898.042-.567.379-.855.84-.82a.78.78 0 0 1 .395.12l-.081.137a.583.583 0 0 0-.324-.104c-.366-.027-.618.189-.652.65v.14a.541.541 0 0 1 .539-.253.513.513 0 0 1 .535.546Zm-.172 0c.017-.224-.138-.379-.399-.398a.394.394 0 0 0-.463.339c-.015.189.128.378.421.397a.379.379 0 0 0 .441-.346v.007ZM55.303 36.904l-.01.122-.824 1.513-.19-.013.812-1.49-.872-.064-.024.317-.172-.011.036-.473 1.244.099ZM57.725 37.079l-.009.125-.824 1.512-.19-.013.81-1.49-.872-.064-.023.318-.172-.014.034-.473 1.246.099ZM59.304 38.426c-.02.3-.289.467-.694.438-.404-.028-.64-.234-.618-.535a.426.426 0 0 1 .357-.393.378.378 0 0 1-.24-.392c.021-.276.269-.43.628-.406.36.024.586.217.567.493a.378.378 0 0 1-.298.352.43.43 0 0 1 .298.443Zm-.177-.016c.015-.21-.156-.353-.456-.378-.3-.024-.486.095-.501.305-.015.21.151.353.452.378.3.024.49-.095.505-.305Zm-.447-.516c.265.02.431-.089.445-.272.013-.184-.146-.322-.4-.339-.253-.017-.427.085-.44.275-.013.189.133.32.395.336ZM60.976 38.155c-.041.576-.378.855-.84.82a.795.795 0 0 1-.395-.12l.08-.137c.096.065.209.102.325.104.365.027.617-.189.65-.652v-.138a.544.544 0 0 1-.54.253.515.515 0 0 1-.535-.55.53.53 0 0 1 .618-.478c.46.032.68.363.637.898Zm-.215-.356c.013-.189-.129-.378-.422-.395a.38.38 0 0 0-.44.338c-.018.224.137.379.398.398a.392.392 0 0 0 .47-.34h-.006ZM62.763 37.446l-.125 1.702-.174-.011.112-1.541-.399-.03.011-.156.575.036ZM64.395 39.114l-.011.155-1.19-.085v-.125l.757-.639c.204-.174.25-.285.259-.403.013-.189-.115-.327-.378-.346a.582.582 0 0 0-.477.155l-.11-.12a.757.757 0 0 1 .619-.2c.344.025.55.216.53.5-.012.163-.075.304-.318.51l-.617.526.936.072ZM65.94 38.895c-.02.281-.242.486-.65.455a.878.878 0 0 1-.596-.263l.094-.132a.736.736 0 0 0 .513.235c.28.02.444-.099.461-.309.017-.21-.119-.348-.435-.378h-.12l.009-.128.514-.554-.868-.063.012-.155 1.089.08v.122l-.524.568c.354.045.522.25.501.522ZM52.776 39.69l-.053.738 13.589.988.053-.738-13.589-.988ZM59.29 41.645l-.053.737 6.969.507.054-.738-6.97-.506Z" fill="#FAFAFA"/><path d="m44.567 30.378-3.83-.28a.938.938 0 0 0-1.004.868l-.174 2.387a.938.938 0 0 0 .867 1.004l3.83.28a.938.938 0 0 0 1.004-.868l.175-2.388a.938.938 0 0 0-.868-1.003Z" fill="#455A64"/><path d="m39.58 33.108.02-.273 2.935.214a.618.618 0 0 0 .327-1.17.617.617 0 0 0-.238-.06l-2.935-.213.019-.274 2.937.214a.89.89 0 0 1-.129 1.775l-2.937-.213Z" fill="#8900FA"/><path d="m43.34 32.351-.02.273 2.014.149.02-.274-2.014-.148Z" fill="#8900FA"/><path d="m55.395 27.64-14.664-1.069-.092 1.258 14.664 1.07.092-1.259Z" fill="#FAFAFA"/><path d="M74.875 22.26a1.686 1.686 0 0 0-.478 1.312c.041.48.197.944.455 1.352" fill="#263238"/><path d="m79.003 29.651.257-5.924-2.377-1.8-2.16 1.055s-.071 2.711 0 3.887c.073 1.177 1.258 1.301 1.258 1.301s-.034.649-.072 1.324a1.551 1.551 0 0 0 2.576 1.24 1.55 1.55 0 0 0 .518-1.083Z" fill="#FFBE9D"/><path d="M75.11 24.96a.151.151 0 1 0 .302 0 .151.151 0 0 0-.302 0ZM74.815 24.795c.019.02.13-.075.29-.085.162-.01.284.07.302.05.017-.021-.012-.046-.065-.084a.389.389 0 0 0-.242-.062.378.378 0 0 0-.23.092c-.05.042-.065.08-.055.09ZM76.86 24.96a.149.149 0 0 0 .15.149.151.151 0 1 0-.15-.15ZM76.611 24.795c.019.02.13-.075.291-.085.161-.01.284.07.301.05.017-.021-.011-.046-.064-.084a.392.392 0 0 0-.242-.062.388.388 0 0 0-.233.092c-.047.042-.062.08-.053.09Z" fill="#263238"/><path d="M76.56 26.317c-.247.125-.51.216-.783.269a.458.458 0 0 0 .537.153.331.331 0 0 0 .246-.422Z" fill="#FAFAFA"/><path d="M75.981 28.17a2.93 2.93 0 0 0 1.559-.526s-.354.865-1.532.816l-.027-.29Z" fill="#EB996E"/><path d="M76.025 26.17a1.13 1.13 0 0 0-.265-.032c-.042 0-.081 0-.09-.038a.232.232 0 0 1 .024-.132l.11-.335c.077-.24.143-.456.189-.615a.97.97 0 0 0 .058-.26 1.14 1.14 0 0 0-.102.245c-.057.155-.13.378-.208.61l-.106.338a.264.264 0 0 0-.015.168.095.095 0 0 0 .068.058.234.234 0 0 0 .07 0c.089.01.179.008.267-.007Z" fill="#263238"/><path d="M79.086 25.833a1.424 1.424 0 0 1 .065-.58.54.54 0 0 1 .421-.366.463.463 0 0 1 .479.378.567.567 0 0 1-.291.568.756.756 0 0 1-.655.017" fill="#FFBE9D"/><path d="M79.43 25.661c0-.013.063.017.146-.01a.261.261 0 0 0 .176-.25.188.188 0 0 0-.042-.156.19.19 0 0 0-.128-.038c-.087 0-.15.03-.155.017-.006-.013.04-.055.145-.085a.231.231 0 0 1 .19.038.27.27 0 0 1 .08.233.38.38 0 0 1-.086.219.28.28 0 0 1-.174.09c-.108.012-.163-.05-.151-.058Z" fill="#EB996E"/><path d="M74.74 22.375c-.521.648.175 1.057.521 1.323.267.208 1.053.757 1.743.498-.244-.328-.521-.471-.63-.783.282.397.58.697 1.064.747-.097-.282-.233-.855-.13-.878.13 1.12 1.179 2.061 1.901 1.702a2.395 2.395 0 0 0-.223-2.16 2.723 2.723 0 0 0-1.847-1.178 2.927 2.927 0 0 0-2.398.72" fill="#263238"/><path d="M79.697 25.941c0-.011.089.074.053.235a.316.316 0 0 1-.174.213.379.379 0 0 1-.34-.013.396.396 0 0 1-.19-.286.378.378 0 0 1 .069-.266c.094-.129.2-.142.2-.133 0 .01-.078.053-.142.17a.323.323 0 0 0 .106.43.3.3 0 0 0 .254.017.262.262 0 0 0 .145-.153.555.555 0 0 0 .019-.214Z" fill="#FF725E"/><path d="m71.522 35.683 1.774-.368.539 2.983a47.555 47.555 0 0 0-1.135 4.649l4.16 2.596.642-1.218 1.027.976 4.426-2.354c-.546-2.837-1.927-3.578-1.927-4.04 0-1.323-.189-.037.921-4.423 1.11-4.385-2.94-4.833-2.94-4.833s.09.613-3.132.028c-1.18-.213-5.89 2.26-5.89 2.26l1.535 3.744Z" fill="#FC7387"/><path d="M75.872 29.68s-.038 3.245.735 3.025c.774-.22 2.332-1.605 2.396-3.061l-3.131.036Z" fill="#FFBE9D"/><path d="M76.068 35.366c-.01-.384.013-.769.067-1.15.022-.382.078-.761.166-1.134a6.9 6.9 0 0 1-.068 1.152 6.61 6.61 0 0 1-.165 1.132ZM76.562 35.103a4.369 4.369 0 0 1-.074-.921 4.453 4.453 0 0 1 .025-.925c.057.305.081.614.073.923a4.16 4.16 0 0 1-.024.923ZM75.868 35.684c-.026 0-.045-.084 0-.176.045-.093.12-.134.136-.114.017.021-.013.082-.045.154-.032.071-.063.138-.091.136Z" fill="#263238"/><path d="M75.974 35.683c-.027 0-.036-.068-.023-.142.013-.073.05-.126.076-.12.026.005.036.067.022.141-.013.074-.049.127-.075.121Z" fill="#263238"/><path d="M76.074 35.685c-.026 0-.055-.055-.062-.128-.008-.074.009-.135.037-.137.029-.001.055.055.06.127.007.072-.005.134-.035.138Z" fill="#263238"/><path d="M76.238 35.736c-.028 0-.049-.094-.098-.189-.05-.094-.106-.178-.087-.2.019-.023.12.034.178.158.058.125.034.233.007.231ZM76.58 35.394c-.024.01-.075-.072-.075-.189s.051-.189.076-.189c.024 0 .022.089.022.19 0 .1.004.179-.022.188ZM76.683 35.341c-.027 0-.055-.06-.062-.14-.008-.08 0-.147.035-.15.036-.001.055.061.063.14.008.08-.01.148-.036.15Z" fill="#263238"/><path d="M76.844 35.315c-.021.017-.08-.023-.13-.089-.052-.066-.076-.132-.054-.148.023-.015.08.023.13.087.052.065.07.133.054.15Z" fill="#263238"/><path d="M76.897 35.262c-.025.011-.072-.038-.133-.091-.06-.053-.113-.093-.104-.12.01-.026.095-.022.17.046.076.068.091.15.067.165ZM75.635 30.037c0-.011.057-.04.123.02a.158.158 0 0 1 .014.19.158.158 0 0 1-.176.068.159.159 0 0 1-.1-.083.166.166 0 0 1 .02-.151c.055-.072.121-.055.117-.044-.003.012-.037.029-.056.08-.02.05 0 .119.077.11.078-.01.083-.076.053-.124-.03-.047-.07-.05-.072-.066ZM75.71 30.648c-.016.02-.07 0-.12-.027-.051-.026-.08-.083-.065-.105.016-.023.07-.012.122.026.05.038.079.083.064.106ZM75.76 30.777c.023.017 0 .083-.076.111-.075.029-.138 0-.132-.028.006-.029.05-.044.097-.063.047-.018.09-.037.111-.02ZM75.764 31.096c.02.017 0 .066-.029.11-.028.043-.083.066-.104.047-.02-.02-.01-.067.029-.11.038-.044.081-.057.104-.047ZM75.683 31.442c0-.01.075-.037.164.044a.19.19 0 0 1 .051.19.215.215 0 0 1-.2.154.21.21 0 0 1-.19-.162.172.172 0 0 1 .086-.19c.11-.06.189 0 .17.01-.019.01-.068 0-.13.047a.1.1 0 0 0-.036.11.124.124 0 0 0 .11.085.13.13 0 0 0 .094-.21c-.057-.055-.121-.055-.12-.078ZM75.894 31.992c.014.024-.028.07-.073.121-.046.051-.084.098-.11.089-.026-.01-.023-.085.036-.153.059-.068.136-.082.147-.057ZM76 32.335c.025.01.021.085-.037.153-.06.068-.135.081-.148.059-.013-.023.028-.072.074-.123.045-.051.085-.099.111-.09ZM76.057 32.889c-.026 0-.055-.061-.06-.142-.006-.082 0-.146.035-.15.036-.004.055.06.061.142.006.082-.008.148-.036.15ZM76.976 32.977c-.013.023-.066.02-.117 0-.051-.019-.081-.072-.068-.096.013-.025.066-.02.117.01.051.028.081.052.068.086ZM77.296 32.6c.018.018-.014.08-.07.14-.057.058-.121.09-.14.071-.02-.019.011-.081.07-.14.058-.058.119-.089.14-.072ZM77.556 32.388c0-.015.05-.023.121-.021h.01l.013.011a.141.141 0 0 1 .04.13.138.138 0 0 1-.123.114.15.15 0 0 1-.153-.092.124.124 0 0 1 .03-.14c.063-.057.121-.029.114-.017-.008.011-.038.019-.06.06a.062.062 0 0 0 0 .06.07.07 0 0 0 .063.03c.04 0 .059-.069.038-.094l.023.012c-.074-.02-.117-.03-.115-.053ZM77.827 32.337c-.026 0-.038-.07-.023-.142.016-.072.05-.127.076-.123.026.004.036.07.02.142-.014.072-.047.128-.073.123ZM78.241 32.045c-.01.025-.072.02-.138 0-.066-.02-.11-.074-.098-.098.011-.025.074-.021.138 0 .064.02.11.073.098.098ZM78.288 31.686c.012 0 .01.034.032.058.023.025.051.03.072 0 .021-.03 0-.053-.03-.064-.03-.011-.057 0-.068 0-.011 0 0-.053.064-.066a.118.118 0 0 1 .14.11.122.122 0 0 1-.02.075.125.125 0 0 1-.137.06.117.117 0 0 1-.083-.079c-.019-.072.02-.104.03-.094ZM78.578 31.387c-.027 0-.059-.019-.074-.062-.015-.044 0-.085.019-.095.019-.01.059.02.074.063s.005.087-.02.094ZM78.848 31.123c-.013.022-.066.018-.117-.012-.051-.03-.082-.072-.066-.094.015-.023.064-.02.115.01.051.027.081.071.068.096ZM79.034 30.725c.01.027-.035.07-.099.098-.064.029-.129.033-.14 0-.011-.032.034-.068.099-.096.064-.028.128-.019.14-.002ZM79.118 30.25c0-.009.036-.045.1-.01a.128.128 0 0 1 .065.104.132.132 0 0 1-.089.128.13.13 0 0 1-.151-.036.124.124 0 0 1-.021-.12c.024-.067.078-.07.08-.058.001.014-.016.034-.012.07.004.036.026.068.068.053.042-.015.042-.053.017-.085-.024-.032-.045-.032-.057-.045ZM79.378 29.837c0 .026-.042.06-.108.075s-.123 0-.129-.02c-.005-.021.042-.061.108-.076s.123-.006.129.02ZM79.113 29.698l.104-.08-.104.08ZM70.524 32.395c-.025 0-.034-.055-.017-.104.017-.05.049-.082.073-.074.025.008.035.055.02.104-.016.05-.05.089-.076.074ZM70.75 32.67c0-.012.035-.048.103-.017a.133.133 0 0 1 0 .242.137.137 0 0 1-.159-.02.132.132 0 0 1-.038-.118c.013-.074.068-.086.072-.074.004.011-.011.038 0 .075.012.038.038.072.085.05.047-.023.038-.065 0-.097s-.056-.028-.062-.041ZM71.032 33.288c-.011.025-.07.025-.132 0s-.102-.066-.093-.09c.01-.025.07-.025.133 0 .062.024.102.065.092.09ZM71.102 33.666c-.009.026-.054.034-.104.019-.049-.015-.08-.05-.073-.076.007-.026.055-.034.104-.017.049.017.081.05.073.074ZM71.218 33.923c.022.014.017.068-.016.121-.032.053-.075.087-.098.072-.022-.015-.017-.068.013-.12.03-.054.07-.073.1-.073ZM71.286 34.186c-.013 0 .032-.07.129-.043a.177.177 0 0 1 .119.113.155.155 0 0 1-.099.19.189.189 0 0 1-.202-.04.134.134 0 0 1 0-.176.082.082 0 0 1 .06-.025.083.083 0 0 1 .06.025c.02.024.01.043 0 .043-.012 0-.016 0-.03-.011-.012-.011-.039 0-.04.015a.063.063 0 0 0 .016.068.104.104 0 0 0 .1.011c.078-.028.046-.115-.01-.143-.058-.029-.094-.016-.103-.027ZM71.566 34.68c.019.018 0 .062-.034.096s-.081.041-.1.022c-.02-.019 0-.064.034-.096s.075-.047.1-.023ZM71.668 35.005c.02.019 0 .066-.032.106-.032.04-.085.059-.106.04-.02-.02 0-.067.034-.106.034-.04.085-.059.104-.04ZM73.599 43.425c-.023.014-.074-.03-.11-.098-.036-.068-.05-.132-.026-.145.022-.014.073.03.111.098.038.068.05.132.025.145ZM73.763 43.425c-.025.012-.07-.034-.1-.102-.03-.068-.034-.13 0-.142.034-.01.07.035.1.102.03.069.025.131 0 .142ZM73.996 43.548v.06c0 .03.028.04.055.025.026-.015.024-.036 0-.06-.025-.025-.044-.02-.052-.034-.007-.013.023-.047.084-.029a.112.112 0 0 1 .017.207.12.12 0 0 1-.14 0 .114.114 0 0 1-.036-.102c.02-.07.068-.08.072-.067ZM74.578 43.671c.017.021-.019.076-.079.121-.06.046-.121.065-.138.042-.017-.023.019-.076.08-.121.06-.046.122-.065.137-.042ZM74.77 43.86c.01.025-.016.063-.06.085-.043.023-.092.021-.103 0-.012-.02.013-.062.058-.085.046-.022.093-.022.104 0ZM75.038 44.16c-.029 0-.055-.035-.065-.088-.009-.053.01-.099.036-.103.027-.003.055.036.063.09.007.052-.008.098-.034.102ZM75.47 44.156c0 .01-.01.035 0 .073.012.038.037.065.078.04.042-.025.03-.06 0-.087-.03-.026-.06-.019-.068-.03-.007-.012.023-.053.095-.034a.126.126 0 0 1 .089.087.139.139 0 0 1-.143.168.138.138 0 0 1-.079-.03.125.125 0 0 1-.04-.118c.01-.073.065-.09.069-.07ZM75.985 44.354c.02.02-.01.074-.062.119-.053.045-.11.066-.127.045-.017-.02.01-.073.063-.119.053-.045.11-.066.126-.045ZM76.325 44.556c.02.02-.011.078-.08.11-.07.032-.137.015-.139-.013-.002-.029.044-.053.097-.078.052-.025.102-.04.122-.019ZM76.582 44.925c-.026.01-.06-.02-.075-.066s0-.089.019-.097c.019-.007.06.021.076.067.015.045.005.088-.02.096ZM76.874 44.751c-.011 0 .011-.056.083-.053a.119.119 0 0 1 .1.072.121.121 0 0 1-.053.15.123.123 0 0 1-.158-.021.118.118 0 0 1-.01-.125c.036-.064.097-.051.09-.038-.005.014-.022.029-.024.063-.002.034.016.056.051.036.036-.021.023-.048-.01-.069-.035-.02-.058-.005-.069-.015ZM77.146 44.486c-.022.015-.062 0-.089-.04-.026-.04-.028-.08 0-.096.029-.015.063 0 .09.04.026.04.022.081 0 .096ZM77.28 44.269c-.018.019-.058.011-.088-.019-.03-.03-.04-.07-.021-.089.019-.019.06-.011.09.02.03.03.038.07.02.088ZM77.428 43.853c-.013 0 .015-.051.074-.03a.093.093 0 0 1 .062.083.112.112 0 0 1-.204.053.103.103 0 0 1 0-.097c.023-.049.064-.05.068-.04.004.012 0 .033 0 .057 0 .011.005.021.013.029h.021a.08.08 0 0 0 .017 0v-.021c0-.008-.036-.025-.05-.034ZM77.73 44.161a.06.06 0 0 1-.033-.074.056.056 0 0 1 .02-.038.054.054 0 0 1 .042-.01.056.056 0 0 1 .034.071.058.058 0 0 1-.062.051ZM77.868 44.323a.086.086 0 0 1-.022-.081c0-.03.022-.062.049-.068.026-.006.059.032.05.085-.01.053-.056.081-.076.064ZM78.06 44.543a.082.082 0 0 1-.083.023c-.033 0-.063-.025-.069-.051-.005-.027.034-.057.088-.047.052.009.077.045.064.075ZM78.215 44.728c-.01-.01.015-.047.073-.038a.111.111 0 0 1 .082.069.113.113 0 0 1-.19.111.094.094 0 0 1 0-.108c.03-.056.084-.041.078-.028-.005.013-.015.026-.013.051.002.025 0 .025.011.025h.02c.018 0 .013-.012.014-.017a.045.045 0 0 0-.017-.029c-.028-.024-.05-.024-.058-.036ZM78.457 45.102a.058.058 0 0 1-.042-.068c0-.034.029-.058.055-.055a.054.054 0 0 1 .036.024.054.054 0 0 1 .008.043.059.059 0 0 1-.057.056ZM78.824 44.908c0 .026-.053.04-.106.026-.053-.013-.091-.043-.085-.07.005-.026.055-.037.107-.026.053.011.09.053.084.07ZM78.962 44.841c-.027 0-.052-.024-.055-.062-.004-.038.015-.072.043-.074.029-.002.051.027.055.065.004.037-.015.07-.043.071ZM79.219 44.638c-.027 0-.05-.03-.05-.069 0-.037.023-.068.05-.068.026 0 .049.03.049.069 0 .037-.02.068-.05.068ZM79.417 44.36c0-.01.034-.048.097-.01a.11.11 0 0 1 .05.11.115.115 0 0 1-.124.094.11.11 0 0 1-.053-.21c.064-.032.104.011.093.021-.012.01-.034 0-.053.036a.048.048 0 0 0-.014.04s.012.013.03.015c.02.002.03 0 .033-.014.004-.013 0-.026 0-.04 0-.012-.053-.031-.059-.043ZM79.93 44.2c-.02.021-.057.016-.093.012s-.074-.015-.085-.04c-.011-.024.03-.07.1-.058.07.011.097.07.078.087ZM80.189 44.065c-.013.024-.066.022-.123.013-.057-.01-.106-.027-.11-.055-.004-.028.055-.057.127-.044.072.014.12.063.106.086ZM80.336 43.945c-.026 0-.045-.036-.043-.074.002-.038.028-.066.057-.062.028.004.045.034.041.072-.004.038-.028.064-.055.064ZM80.56 43.595c-.01 0 .018-.05.087-.038a.107.107 0 0 1 .08.091.123.123 0 0 1-.077.133.12.12 0 0 1-.144-.061.098.098 0 0 1 .027-.123c.06-.043.104 0 .095 0-.01 0-.033.017-.046.044-.013.026 0 .022 0 .028a.037.037 0 0 0 .014.01c.005.002.01.003.016.003a.041.041 0 0 0 .02-.032c.002-.006 0-.012-.002-.018a.035.035 0 0 0-.012-.014c-.02-.015-.05-.012-.058-.023ZM80.883 43.586a.062.062 0 0 1-.036-.077c0-.038.036-.065.062-.059.027.006.042.04.034.078-.007.037-.034.064-.06.058ZM81.157 43.355a.059.059 0 0 1-.042-.068.05.05 0 0 1 .034-.055.05.05 0 0 1 .065.066.059.059 0 0 1-.057.057ZM81.543 43.132c-.015.023-.063.019-.112 0s-.092-.028-.096-.057c-.004-.028.051-.055.119-.04.068.016.104.074.089.097ZM81.728 43c-.024.011-.062-.025-.047-.074.015-.05.064-.059.08-.036a.087.087 0 0 1 .013.064.081.081 0 0 1-.046.046ZM81.951 42.782a.059.059 0 0 1-.041-.068c0-.034.03-.058.057-.054.026.003.045.032.041.066a.059.059 0 0 1-.056.056Z" fill="#263238"/><path d="m79.225 32.737-1.254 1.261 3.037 2.986s.618-1.8 1.05-3.385c.304-1.12-2.834-.862-2.834-.862Z" fill="#FC7387"/><path d="M78.735 34.112c-.027 0-.055-.055-.063-.127-.007-.072.01-.134.036-.136.027-.002.055.053.063.127.007.074-.01.136-.036.136ZM79.024 34.17c0 .027-.047.05-.106.05-.058 0-.104-.023-.104-.05 0-.026.048-.048.104-.048.057 0 .106.02.106.049ZM79.103 34.59c-.024-.014-.022-.058-.022-.105 0-.047 0-.089.022-.104.023-.015.076.026.076.104s-.049.123-.076.106ZM79.353 34.632c-.011 0 .032-.06.114-.034a.145.145 0 0 1 .098.11.148.148 0 0 1-.278.083.136.136 0 0 1 .08-.171.108.108 0 0 1 .048-.005c.025 0 .033.019.029.023s-.042.011-.066.053c-.025.041-.012.096.055.08.066-.018.049-.078 0-.109-.05-.03-.072-.019-.08-.03ZM79.68 35.142c-.025 0-.034-.05-.02-.094.013-.044.047-.072.073-.064.026.007.036.05.02.094-.014.044-.046.072-.073.064ZM79.964 35.088c.026 0 .036.08.02.166-.015.087-.049.156-.075.15-.027-.006-.036-.08-.02-.167.014-.087.048-.153.075-.149ZM80.264 35.436c0 .026-.047.054-.113.062s-.12-.01-.123-.036c-.004-.026.047-.055.113-.062.067-.008.123.004.123.036ZM80.387 35.58c0-.012.04-.042.112-.012a.157.157 0 0 1 .089.104.148.148 0 0 1-.078.161.134.134 0 0 1-.18-.04.121.121 0 0 1 .027-.145.09.09 0 0 1 .097-.023c.022.01.026.023.022.026-.004.004-.04 0-.06.046-.021.045 0 .075.055.053.054-.023.036-.083 0-.117-.036-.035-.082-.038-.084-.053ZM80.705 36.247c-.026 0-.049-.071-.049-.158 0-.087.023-.157.05-.157.026 0 .048.07.048.157s-.02.158-.049.158ZM80.248 31.444a1.8 1.8 0 0 1-.273.406c-.189.239-.45.568-.756.902-.306.335-.586.65-.792.87a2.593 2.593 0 0 1-.35.34c.085-.138.185-.268.297-.387.189-.229.469-.543.771-.887l.775-.883c.1-.128.21-.249.328-.361ZM82.371 42.76c0 .026-.057.036-.113.023-.057-.014-.097-.048-.091-.074.005-.027.058-.036.113-.023.055.013.097.047.091.074ZM82.515 42.53c0-.01.011-.04.066-.044a.09.09 0 0 1 .083.057.09.09 0 0 1 .002.077.09.09 0 0 1-.06.05c-.095.024-.176-.069-.135-.14a.06.06 0 0 1 .063-.03c.017 0 .02.016.017.022a.041.041 0 0 0-.017.038s.028.02.045.015c0-.004 0-.008-.002-.012a.017.017 0 0 0-.01-.007c-.02-.013-.046-.013-.052-.027Z" fill="#263238"/><path d="M66.42 35.826c-.107-.358-1.463-1.091-1.259-1.29.265-.26 1.38.828 1.48.914.1.085.224-.061.13-.133-.137-.104-1.547-1.223-1.288-1.48.143-.144.378.145.378.145s1.244 1.148 1.363 1.021c.12-.126-.59-.826-.845-1.044-.255-.217-.254-.427-.068-.461.125-.025.923.626 1.168.85.246.222.918.843.829.262a.13.13 0 0 1 0-.026c-.102-.568 0-1.043.132-1.156a.19.19 0 0 1 .322.157.191.191 0 0 1 0 .085v.042c-.006.198.007.396.04.592.025.175.08.345.164.503.096.189.189.332.265.46.905.498 3.513 1.816 6.125 2.017.472.036 2.864-3.058 2.864-3.058l2.347 2.305c-.317.543-.43.668-2.023 2.848-2.6 3.557-10.779-2.333-10.779-2.333l-.076-.038a18.384 18.384 0 0 1-1.807-1.014c-.704-.493-.662-.558-.592-.633.158-.199 1.24.832 1.13.465Z" fill="#FFBE9D"/><defs><linearGradient id="a" x1="15.298" y1="42.249" x2="15.298" y2="73.474" gradientUnits="userSpaceOnUse"><stop stop-color="#8900FA"/><stop offset="1" stop-color="#FC7387"/></linearGradient></defs></svg>