<svg width="98" height="71" fill="none" xmlns="http://www.w3.org/2000/svg"><ellipse cx="81.386" cy="15.784" rx="15.803" ry="15.784" fill="#8900FA" fill-opacity=".5"/><ellipse cx="8.692" cy="60.375" rx="8.692" ry="8.681" fill="#FFE06B"/><path d="M82.2 7.483H10.216A2.248 2.248 0 0 0 7.97 9.727v50.792a2.243 2.243 0 0 0 2.247 2.244h27.627S39.6 68.192 34.154 71h25.83s-6.149-2.105-4.569-8.237H82.2a2.248 2.248 0 0 0 2.247-2.244V9.727a2.243 2.243 0 0 0-2.247-2.244Z" fill="#0A0070"/><path d="M47.168 57.421c.983 1.398-.553 2.93-1.953 1.951a.492.492 0 0 1-.12-.12c-.982-1.398.554-2.927 1.954-1.95a.46.46 0 0 1 .12.119Z" fill="#455A64" fill-opacity=".59"/><path d="M82.137 10.528H10.13a.535.535 0 0 0-.536.535v42.233c0 .295.24.535.536.535h72.007c.296 0 .536-.24.536-.535V11.063a.535.535 0 0 0-.536-.535Z" fill="#E0E0E0"/><path d="M82.673 13.7H9.594v40.129h73.079v-40.13Z" fill="#fff"/><path d="M15.587 12.2a.583.583 0 1 1-1.167.003.583.583 0 0 1 1.167-.003ZM12.05 12.2a.584.584 0 1 1-1.168.002.584.584 0 0 1 1.169-.002ZM13.743 12.2a.584.584 0 1 1-1.168.002.584.584 0 0 1 1.168-.002Z" fill="#455A64"/><path d="M80.4 16.119H61.156v32.12H80.4v-32.12Z" fill="#F5F5F5"/><path d="m66.26 35.033.207.417.462.069-.334.324.078.46-.412-.218-.413.217.08-.46-.334-.323.46-.069.207-.417ZM68.553 35.033l.206.417.462.069-.334.324.078.46-.412-.218-.413.217.079-.46-.334-.323.462-.069.206-.417ZM70.843 35.033l.206.417.462.069-.334.324.079.46-.413-.218-.41.217.078-.46-.334-.323.46-.069.206-.417ZM73.136 35.033l.206.417.462.069-.334.324.078.46-.412-.218-.413.217.079-.46-.334-.323.462-.069.206-.417ZM75.426 35.033l.206.417.462.069-.334.324.079.46-.413-.218-.41.217.078-.46-.334-.323.462-.069.204-.417ZM69.992 38.798c0 .025-1.46.043-3.263.043-1.802 0-3.263-.018-3.263-.043 0-.024 1.46-.042 3.263-.042s3.263.02 3.263.042Z" fill="#FC7387"/><path d="M78.193 40.223c0 .023-3.258.043-7.277.043-4.02 0-7.278-.02-7.278-.043 0-.023 3.258-.043 7.278-.043s7.277.01 7.277.043ZM78.193 41.43c0 .023-3.258.043-7.277.043-4.02 0-7.278-.02-7.278-.043 0-.023 3.258-.042 7.278-.042s7.277.02 7.277.042ZM78.193 42.647c0 .023-3.258.043-7.277.043-4.02 0-7.278-.02-7.278-.043 0-.023 3.258-.042 7.278-.042s7.277.018 7.277.042ZM78.193 43.862c0 .025-3.258.043-7.277.043-4.02 0-7.278-.018-7.278-.043 0-.024 3.258-.042 7.278-.042s7.277.02 7.277.042ZM78.193 45.079c0 .023-3.258.042-7.277.042-4.02 0-7.278-.02-7.278-.042 0-.023 3.258-.043 7.278-.043s7.277.018 7.277.043Z" fill="#263238"/><path d="M78.999 17.75H62.42v15.898H79V17.75Z" fill="#E0E0E0"/><path d="m76.536 30.877 1.078 2.773h-2.61l-.588-1.51 2.12-1.263Z" fill="#FFBE9D"/><path d="M66.6 33.65h7.068c.11-1.044.178-2.03.178-2.03l.364.981 2.968-1.483s-1.079-2.874-1.983-3.848c-1.146-1.231-3.194-1.108-3.194-1.108l-2.665.044a6.197 6.197 0 0 0-1.965.572l-.066.02v.013c-.576.49-2.308 2.81-2.308 2.81l.638.62 1.31 1.218a.03.03 0 0 0 0 .025c.01.132-.345 2.166-.345 2.166Z" fill="#FC7387"/><path d="M72.076 26.067s.009.017.015.048c.01.046.016.093.018.14.009.175-.016.35-.072.517-.084.25-.234.471-.434.643a1.463 1.463 0 0 1-1.792.05 1.487 1.487 0 0 1-.469-.618 1.4 1.4 0 0 1-.1-.512.78.78 0 0 1 .022-.19c.002.233.047.463.134.68.102.228.26.427.46.577a1.41 1.41 0 0 0 1.696-.047c.192-.161.338-.369.426-.602.075-.22.108-.453.096-.686ZM74.601 26.698c0 .008-.072 0-.188.05a.922.922 0 0 0-.413.31c-.15.213-.242.462-.267.721-.039.293-.047.623-.06.967-.018.69.008 1.308.04 1.766l.04.534a.795.795 0 0 1 .008.198 1.035 1.035 0 0 1-.04-.194c-.019-.126-.045-.307-.068-.533-.06-.589-.081-1.181-.065-1.773.005-.328.028-.655.069-.981.029-.272.132-.53.297-.748a.89.89 0 0 1 .45-.304.537.537 0 0 1 .145-.023c.034.005.052.007.052.01ZM68.265 26.4c-.01.068-.027.135-.05.2-.043.144-.097.327-.163.538a45.749 45.749 0 0 0-.93 3.58l-.123.548a.952.952 0 0 1-.054.2c.001-.07.008-.138.022-.206.02-.131.052-.327.095-.553a28.407 28.407 0 0 1 .933-3.587c.075-.226.139-.406.186-.53.022-.066.05-.13.084-.19Z" fill="#263238"/><path opacity=".2" d="m73.625 28.937.982 3.477-.39.197-.364-.982s-.36-2.07-.228-2.692ZM68.38 26.404c-.569.288.826 1.033 1.463 1.027l-.432-1.237s-.842.113-1.032.21Z" fill="#000"/><path d="M70.778 27.668a1.413 1.413 0 0 1-1.405-.881 1.407 1.407 0 0 1-.1-.578l.031-.818s-1.124-.098-1.213-1.208c-.088-1.11-.069-3.677-.069-3.677a3.882 3.882 0 0 1 3.92.227l.174.115-.022 5.427a1.41 1.41 0 0 1-1.316 1.393Z" fill="#FFBE9D"/><path d="M68.627 22.462a.164.164 0 1 0-.228-.235.164.164 0 0 0 .228.235ZM68.134 22.132c.018.018.12-.072.275-.084.154-.011.27.06.285.04.014-.022-.012-.043-.063-.078a.378.378 0 0 0-.449.036c-.043.041-.058.078-.048.086ZM70.025 22.218a.164.164 0 1 0 .187.27.164.164 0 0 0-.187-.27ZM69.754 22.137c.02.017.123-.074.277-.086.154-.011.269.06.285.04.016-.022-.011-.043-.064-.076a.361.361 0 0 0-.229-.055.366.366 0 0 0-.218.09c-.046.042-.059.078-.05.087ZM69.267 23.484a.764.764 0 0 0-.252-.034c-.041 0-.072-.01-.077-.031a.218.218 0 0 1 .02-.116l.1-.327c.098-.271.167-.551.209-.836-.125.259-.223.53-.292.81-.032.11-.063.217-.093.327a.259.259 0 0 0-.011.163.107.107 0 0 0 .073.06.204.204 0 0 0 .069 0c.085.01.17.005.254-.016Z" fill="#263238"/><path d="M69.303 25.37a2.592 2.592 0 0 0 1.422-.51s-.29.818-1.406.798l-.016-.288Z" fill="#EB996E"/><path d="M72.066 22.026c.022-.009.91-.105.77.753-.121.741-.92.516-.919.491l.15-1.244Z" fill="#FFBE9D"/><path d="M72.228 22.943s.012.01.033.021c.03.016.064.019.097.01a.328.328 0 0 0 .163-.275.408.408 0 0 0-.02-.186.15.15 0 0 0-.09-.107.068.068 0 0 0-.08.031c-.011.02 0 .035-.011.035s-.015-.013 0-.043a.088.088 0 0 1 .033-.044.096.096 0 0 1 .072-.013.178.178 0 0 1 .126.124.453.453 0 0 1 .03.208.335.335 0 0 1-.212.304.138.138 0 0 1-.116-.028c-.025-.02-.028-.036-.025-.037Z" fill="#EB996E"/><path d="M71.88 22.797c-.172.103-.406-.026-.491-.206a1.453 1.453 0 0 1-.087-.59 2.987 2.987 0 0 0-.14-.805.564.564 0 0 0-.867-.412c-.18.09-.377.139-.578.144-.263-.023-.481-.231-.745-.267-.263-.036-.476.083-.714.15a1.077 1.077 0 0 1-.723-.016.616.616 0 0 1-.385-.574.437.437 0 0 1 .51-.397.355.355 0 0 1-.061-.535.563.563 0 0 1 .58-.116c.195.075.372.19.518.338a.417.417 0 0 1 .396-.327.87.87 0 0 1 .524.178c.164.105.297.233.462.328.328.181.717.2 1.086.268.368.067.762.216.941.546.164.29.052.638.04.968-.014.33-.016.42-.032.743-.003-.012.018.436-.234.582Z" fill="#263238"/><path d="M69.128 23.934c0 .01.04.028.116.027a.483.483 0 0 0 .442-.328c.023-.072.016-.118 0-.12-.016-.001-.06.164-.223.292-.104.06-.217.104-.335.13Z" fill="#fff"/><path d="M67.849 20.051a.164.164 0 0 0-.068.164c.008.07.04.134.092.181a.318.318 0 0 0 .26.062.852.852 0 0 0 .305-.122c.101-.07.211-.125.328-.164a.562.562 0 0 1 .39.06c.125.061.243.151.374.231a.73.73 0 0 0 .422.136.678.678 0 0 0 .376-.177.955.955 0 0 1 .316-.184.535.535 0 0 1 .31.018c.148.053.27.16.34.3a.817.817 0 0 1 .047.164.387.387 0 0 0-.036-.163.605.605 0 0 0-.67-.34.915.915 0 0 0-.327.188.683.683 0 0 1-.36.163.701.701 0 0 1-.405-.133c-.128-.078-.247-.163-.378-.232a.593.593 0 0 0-.41-.06c-.115.04-.226.094-.327.163a.834.834 0 0 1-.294.123.294.294 0 0 1-.246-.054.276.276 0 0 1-.092-.163.18.18 0 0 1 .053-.16Z" fill="#455A64"/><path d="M68.342 19.466a.08.08 0 0 0-.033-.028.14.14 0 0 0-.123 0 .154.154 0 0 0-.093.164.242.242 0 0 0 .164.196c.102.03.213.025.312-.015.11-.044.223-.078.34-.101a.428.428 0 0 1 .343.134c.095.106.205.197.328.27a.55.55 0 0 0 .424-.025c.118-.055.243-.094.371-.118a.92.92 0 0 1 .928.465c.053.093.07.15.073.149a.918.918 0 0 0-.36-.49.936.936 0 0 0-.646-.153c-.13.023-.257.063-.378.118a.514.514 0 0 1-.4.024 1.43 1.43 0 0 1-.327-.263.45.45 0 0 0-.367-.14c-.118.023-.233.059-.343.106a.467.467 0 0 1-.29.02.22.22 0 0 1-.153-.177.138.138 0 0 1 .082-.151.134.134 0 0 1 .115 0c.023 0 .031.016.033.015Z" fill="#455A64"/><path d="M71.63 20.336c.02.008.081-.126.225-.214.144-.089.288-.087.29-.11.002-.023-.034-.026-.098-.028a.462.462 0 0 0-.4.25c-.026.06-.028.099-.018.102Z" fill="#263238"/><path d="M71.76 19.513c-.023 0 .01.174-.018.378-.028.205-.097.358-.077.37a.698.698 0 0 0 .095-.748Z" fill="#263238"/><path d="M72.02 22.495a.384.384 0 0 0 .048-.318.721.721 0 0 0-.178-.304.388.388 0 0 1-.085-.176.534.534 0 0 1 .026-.213.853.853 0 0 0 .024-.432.472.472 0 0 0-.198-.29.392.392 0 0 0-.23-.065.217.217 0 0 0-.084.022s.03 0 .085-.009a.385.385 0 0 1 .216.07c.094.066.16.166.182.279a.836.836 0 0 1-.026.417.556.556 0 0 0-.027.226c.014.07.047.135.094.19a.717.717 0 0 1 .178.29.522.522 0 0 1-.024.313Z" fill="#455A64"/><path d="M71.212 30.41a3.727 3.727 0 0 0 .008.388c0 .24.014.581.018.992l-.01-.026.504.469h-.042l.867-.352-.024.033a.81.81 0 0 1 .015-.082c.095-.515.183-1 .262-1.423l.037.044c-.483 0-.889-.011-1.179-.018l-.339-.01a.743.743 0 0 1-.117-.016.729.729 0 0 1 .11-.008l.328-.01c.287 0 .703-.016 1.202-.02h.044v.045c-.075.423-.163.91-.252 1.424l-.015.082v.023l-.02.01-.87.345-.025.01-.018-.018-.49-.476-.012-.012v-.014c0-.426.011-.776.018-1.014 0-.11 0-.2.01-.275a.367.367 0 0 1-.01-.092Z" fill="#263238"/><path d="M72.752 30.836a2.878 2.878 0 0 1-.772.064c-.26.014-.52-.006-.775-.06.257-.03.516-.039.775-.025.257-.015.516-.008.772.02Z" fill="#263238"/><path d="M65.362 29.983c.034.034-2.62 3.667-2.62 3.667h2.602l1.596-2.185-1.578-1.482Z" fill="#FFBE9D"/><path d="M60.092 10.146H32.66v45.782h27.43V10.146Z" fill="#F5F5F5"/><path d="m39.938 37.105.293.594.659.096-.477.463.113.655-.588-.31-.59.31.114-.655-.475-.463.657-.096.294-.594ZM43.203 37.105l.295.594.656.096-.475.463.112.655-.588-.31-.588.31.113-.655-.476-.463.658-.096.293-.594ZM46.47 37.105l.294.594.657.096-.475.463.111.655-.588-.31-.587.31.113-.655-.477-.463.658-.096.293-.594ZM49.736 37.105l.294.594.657.096-.475.463.111.655-.587-.31-.588.31.113-.655-.477-.463.657-.096.295-.594ZM53.002 37.105l.293.594.658.096-.476.463.113.655-.588-.31-.588.31.112-.655-.475-.463.657-.096.294-.594Z" fill="#FC7387"/><path d="M45.256 42.472c0 .023-2.083.042-4.651.042-2.57 0-4.652-.02-4.652-.042 0-.023 2.083-.043 4.652-.043s4.651.018 4.651.043Z" fill="#FF725E"/><path d="M56.945 44.488c0 .025-4.645.043-10.373.043-5.727 0-10.373-.018-10.373-.043 0-.024 4.643-.042 10.373-.042 5.731 0 10.373.02 10.373.042ZM56.945 46.222c0 .023-4.645.043-10.373.043-5.727 0-10.373-.02-10.373-.043 0-.023 4.643-.042 10.373-.042 5.731 0 10.373.02 10.373.042ZM56.945 47.956c0 .023-4.645.042-10.373.042-5.727 0-10.373-.02-10.373-.042 0-.023 4.643-.043 10.373-.043 5.731 0 10.373.018 10.373.043ZM56.945 49.69c0 .023-4.645.042-10.373.042-5.727 0-10.373-.02-10.373-.042 0-.023 4.643-.043 10.373-.043 5.731 0 10.373.018 10.373.043ZM56.945 51.422c0 .024-4.645.042-10.373.042-5.727 0-10.373-.018-10.373-.042 0-.025 4.643-.043 10.373-.043 5.731 0 10.373.02 10.373.043Z" fill="#263238"/><path d="M58.094 12.47h-23.63V35.13h23.63V12.47Z" fill="#E0E0E0"/><path d="M44.925 16.225c.248-.83 1.007-1.45 1.849-1.65.841-.202 1.886-.476 2.657-.084.481.245.943.602 1.133 1.107.224.6-.121 1.72-.293 2.336-.172.617-.301 1.322.038 1.865.339.543 1.005.732 1.424 1.194a1.664 1.664 0 0 1-.169 2.312c.745-.044 1.374.715 1.348 1.46-.026.744-.572 1.398-1.236 1.735-.665.337-1.433.407-2.178.409a13.197 13.197 0 0 1-2.752-.287c-.745-.163-1.523-.407-2.007-.994-.447-.54-.57-1.276-.572-1.976 0-2.475 1.297-4.928.732-7.339" fill="#14181B"/><path d="M45.53 15.656a2.456 2.456 0 0 0-3.825 2.322c.06.491.265.982.14 1.448-.233.888-1.486 1.233-1.65 2.136-.065.357.06.715.156 1.063.095.349.164.743-.023 1.057-.134.232-.377.378-.567.566-.609.608-.597 1.676-.086 2.371.51.695 1.414 1.027 2.276 1 .86-.028 1.686-.377 2.421-.826" fill="#14181B"/><path d="m43.72 16.65.012.587.118 8.811c.013 1.024.905 1.827 2 1.8 1.109-.025 2.008-.88 2.011-1.914 0-1.085.026-2.226.026-2.226s1.4-.232 1.69-2.056c.144-.906.098-2.393.021-3.608a1.924 1.924 0 0 0-2.128-1.8l-3.75.406Z" fill="#FFBE9D"/><path d="M48.896 19.084a.235.235 0 0 1-.226.236.223.223 0 0 1-.24-.211.232.232 0 0 1 .224-.236.224.224 0 0 1 .242.211ZM49.272 18.823c-.029.029-.206-.102-.458-.102s-.437.128-.463.097c-.026-.032.014-.07.096-.128a.655.655 0 0 1 .37-.115c.131 0 .26.041.365.118.08.06.107.115.09.13ZM46.47 19.084a.234.234 0 0 1-.227.236.227.227 0 0 1-.24-.211.232.232 0 0 1 .226-.236.222.222 0 0 1 .24.211Z" fill="#263238"/><path d="M46.8 18.868c-.03.032-.208-.1-.458-.1-.251 0-.438.128-.465.097-.028-.031.016-.069.096-.128a.655.655 0 0 1 .372-.114c.13 0 .259.04.365.118.077.055.106.114.09.127ZM47.713 20.735a1.66 1.66 0 0 1 .41-.074c.064 0 .124-.02.136-.064a.327.327 0 0 0-.043-.19l-.192-.49c-.263-.697-.455-1.27-.425-1.28.03-.012.263.545.529 1.242l.181.49a.362.362 0 0 1 .033.253.164.164 0 0 1-.105.095.472.472 0 0 1-.11.014c-.137.019-.276.02-.414.004Z" fill="#263238"/><path d="M47.887 23.713a4.648 4.648 0 0 1-2.444-.654s.593 1.252 2.42 1.082l.024-.428Z" fill="#AA6550"/><path d="M46.98 20.91c.041 0 .041.27.275.464.234.195.526.164.527.201.002.038-.063.054-.186.058a.689.689 0 0 1-.44-.154.6.6 0 0 1-.215-.39c-.018-.114.013-.181.04-.18ZM45.206 15.797c0-.023.03-.035.044-.028.015.007.022.03.012.053a.04.04 0 0 1-.046.026.038.038 0 0 1-.01-.05Z" fill="#263238"/><path d="M43.624 25.277a1.987 1.987 0 0 0 1.165-1.178 2.695 2.695 0 0 0 .04-1.681c-.072-.254-.174-.532-.063-.77.104-.162.24-.3.398-.408a1.7 1.7 0 0 0 .518-1.145 2.94 2.94 0 0 0-.231-1.261c-.087-.22-.192-.463-.111-.685.073-.152.182-.284.317-.385.26-.243.474-.53.634-.849.111-.224.195-.49.087-.72-.133-.276-.477-.36-.78-.384-.723-.055-1.522.105-1.983.665-.41.5-.458 1.198-.49 1.848-.092 2.04-.184 4.103.163 6.117" fill="#14181B"/><path d="M50.29 16.447c-.1.061-.204.116-.312.164a1.953 1.953 0 0 0-.264.229 2.523 2.523 0 0 0-.144.148l-.032.04-.053.052-.126.12a2.995 2.995 0 0 1-.391.307 2.056 2.056 0 0 1-.678.307 2.109 2.109 0 0 1-1.385-.163 2.161 2.161 0 0 1-.76-.608c-.31-.414-.358-.75-.216-.931.143-.182.504-.164.907-.057.196.05.395.09.596.117.158.023.319.018.475-.013a.986.986 0 0 0 .221-.078c.103-.046.23-.113.378-.183.074-.035.15-.07.234-.102.041-.016.085-.03.128-.046.043-.014.097-.032.144-.044.178-.046.364-.06.547-.044a.984.984 0 0 1 .747.39.3.3 0 0 1-.015.395Z" fill="#14181B"/><path d="M41.066 26.533a.878.878 0 0 1-.095-.111 1.216 1.216 0 0 1-.185-.375 1.437 1.437 0 0 1-.032-.654c.058-.294.214-.559.442-.753.244-.222.563-.39.856-.621.153-.118.283-.261.386-.424a.858.858 0 0 0 .123-.572c-.055-.413-.396-.774-.425-1.268a1.298 1.298 0 0 1 .704-1.217c.22-.095.43-.214.623-.355a.747.747 0 0 0 .25-.6 1.665 1.665 0 0 0-.163-.641c-.095-.198-.21-.386-.308-.578a1.928 1.928 0 0 1-.206-.598 1.199 1.199 0 0 1 .074-.597c.139-.334.382-.614.692-.8.255-.15.537-.248.83-.29.217-.032.436-.046.655-.042.182 0 .328.013.416.021l.108.012h.036a1.081 1.081 0 0 1-.144 0h-.416c-.22 0-.438.02-.655.055a2.243 2.243 0 0 0-.803.293 1.626 1.626 0 0 0-.655.775 1.13 1.13 0 0 0-.066.56c.036.2.104.395.203.574.097.188.213.374.311.579.106.21.166.44.179.674a.818.818 0 0 1-.277.664 3.18 3.18 0 0 1-.64.368 1.218 1.218 0 0 0-.655 1.145c.021.454.357.817.419 1.26a.928.928 0 0 1-.136.622c-.108.17-.246.318-.406.44-.305.237-.622.398-.86.61a1.27 1.27 0 0 0-.435.717c-.044.213-.038.433.018.643.051.173.131.337.237.484ZM51.25 26.181a.328.328 0 0 0 .164-.198.46.46 0 0 0-.022-.296.719.719 0 0 0-.27-.291c-.126-.087-.281-.155-.437-.262a.69.69 0 0 1-.327-.49.98.98 0 0 1 .208-.625c.13-.188.3-.349.432-.538a.847.847 0 0 0 .164-.622 1.327 1.327 0 0 0-.25-.564c-.237-.327-.53-.566-.715-.818a1.408 1.408 0 0 1-.313-.669.72.72 0 0 1 0-.201c0-.046.014-.07.017-.069-.002.089.003.177.015.265.053.236.166.455.327.636.187.244.481.475.73.818.136.176.228.38.269.599a.87.87 0 0 1-.02.355c-.035.117-.09.228-.164.327-.137.201-.309.361-.435.538a.912.912 0 0 0-.197.57.622.622 0 0 0 .293.444c.146.103.302.177.43.268a.76.76 0 0 1 .281.327.47.47 0 0 1 .008.328.296.296 0 0 1-.123.163.132.132 0 0 1-.065.005ZM50.418 15.702v.057a1.038 1.038 0 0 1-1.131.991 1.05 1.05 0 0 1-.508-.175 2.177 2.177 0 0 1-.406-.4 2.041 2.041 0 0 0-.394-.377 1.63 1.63 0 0 0-1.308-.255c-.191.046-.373.122-.539.227-.118.076-.177.126-.18.121a.64.64 0 0 1 .164-.149 1.64 1.64 0 0 1 1.433-.244c.17.053.332.13.479.231.155.111.294.243.413.391.112.145.242.275.388.386.14.093.3.149.466.164a.984.984 0 0 0 .783-.265c.14-.134.241-.304.293-.49.034-.135.034-.213.047-.213Z" fill="#455A64"/><path d="M46.864 17.882c-.025.069-.277.036-.572.072-.294.036-.533.116-.573.056-.017-.03.023-.095.12-.164a1.003 1.003 0 0 1 .873-.096c.104.047.163.101.152.132ZM49.182 18.093c-.044.058-.217 0-.425 0s-.387.04-.427-.02c-.017-.03.01-.088.088-.142a.584.584 0 0 1 .347-.093.6.6 0 0 1 .339.114c.074.055.098.114.078.141Z" fill="#263238"/><path d="M42.052 35.205c.089.152-.558-2.025-.558-2.025l-.542 1.989-4.02.03s2.271-7.416 3.35-8.452c1.408-1.35 4.048-1.424 4.048-1.424l1.58 1.346 2.495-1.281.091.01a5 5 0 0 1 3.86 2.721l2.706 7.006h-3.573l-.763-2.068.256 2.068" fill="#FC7387"/><path d="m43.051 25.483 3.622 8.23 1.83-8.315s-.507-.03-1.233-.058c-.4-.014-.87 1.57-1.354 1.562-.31 0-.627-1.608-.94-1.606-.394 0-.779 0-1.13.026-.304.017-.57.14-.795.16Z" fill="#FAFAFA"/><path d="M43.732 25.56v-.756s2.158.03 2.196 1.755c0 0 .306-1.701 2.048-1.755l.111.579-.491 1.984-1.257.835h-1.695l-.7-.92-.212-1.723Z" fill="#FAFAFA"/><path d="M46.641 33.932a.369.369 0 0 1 .022-.092c.027-.087.062-.17.104-.252.07-.126.156-.243.256-.348.114-.124.252-.255.391-.41.347-.348.65-.737.9-1.158.138-.253.216-.532.231-.818a1.28 1.28 0 0 0-.25-.857l-.057-.074h.095a.49.49 0 0 0 .11 0 .635.635 0 0 0 .378-.239.865.865 0 0 0 .172-.414c.022-.293 0-.59-.068-.876-.093-.563-.178-1.07-.248-1.5-.07-.43-.122-.76-.164-1.01a11.86 11.86 0 0 0-.04-.277.53.53 0 0 1-.008-.097c.012.03.021.063.026.095l.054.272c.048.25.112.59.189 1.007L49 28.38c.072.296.096.601.072.904a.922.922 0 0 1-.189.454.708.708 0 0 1-.43.27.582.582 0 0 1-.13 0l.037-.07c.196.263.29.587.266.913-.016.3-.1.59-.245.853a5.846 5.846 0 0 1-.925 1.162c-.144.154-.285.283-.401.403-.1.098-.188.208-.262.327-.113.21-.141.34-.153.337ZM46.641 33.862a.387.387 0 0 1-.067-.076l-.185-.22a35.45 35.45 0 0 0-.698-.794c-.3-.33-.654-.724-1.02-1.195a4.228 4.228 0 0 1-.505-.785 1.307 1.307 0 0 1-.061-1 .92.92 0 0 1 .064-.127l.021.062a1.935 1.935 0 0 1-.812-.561 2.57 2.57 0 0 1-.465-.785 3.695 3.695 0 0 1-.201-1.515c.021-.342.062-.683.122-1.02.022-.112.038-.202.053-.274a.374.374 0 0 1 .023-.095.448.448 0 0 1 0 .099l-.036.274c-.03.24-.08.588-.095 1.02a3.69 3.69 0 0 0 .213 1.483c.106.278.26.535.455.759.207.241.473.425.773.535l.047.016-.026.046c-.021.037-.04.075-.057.114a1.23 1.23 0 0 0 .059.934c.134.275.299.534.49.772.354.47.71.866 1.003 1.202.293.337.525.615.678.818.076.1.134.177.171.233.022.024.04.051.056.08Z" fill="#263238"/><path d="M46.602 35.187a3.172 3.172 0 0 1-.025-.738 3.332 3.332 0 0 1 .062-.734c.044.49.03.984-.037 1.472ZM41.39 33.67a2.31 2.31 0 0 1 .07-.282c.047-.182.116-.445.181-.774.17-.856.236-1.73.197-2.6a6.813 6.813 0 0 0-.194-1.42 2.693 2.693 0 0 0-.509-1.04 2.025 2.025 0 0 0-.596-.503c-.163-.088-.267-.116-.263-.124.025.003.05.008.073.016.07.02.14.046.205.079.242.117.456.285.629.49.254.31.438.67.538 1.057.12.47.187.953.202 1.438a9.98 9.98 0 0 1-.223 2.617c-.074.327-.15.59-.208.77-.03.088-.055.164-.072.205-.016.04-.028.081-.03.072ZM50.757 32.337a1.82 1.82 0 0 1-.011-.273c0-.176 0-.43-.017-.744-.028-.817-.1-1.632-.214-2.442a24.65 24.65 0 0 0-.69-3.181l-.01-.043.032.026c.059.041.114.088.164.14a1.184 1.184 0 0 1-.179-.117l.023-.014c.345 1.034.594 2.098.745 3.178.117.813.181 1.632.192 2.453 0 .316 0 .571-.012.746 0 .091-.007.182-.023.271ZM45.526 25.58c0 .009-.04 0-.096.045a.579.579 0 0 0-.164.23 2.614 2.614 0 0 0-.287.956l-.011.106-.066-.087-.117-.163c-.274-.355-.542-.654-.74-.877-.115-.11-.22-.23-.317-.356.132.091.253.197.36.315.274.271.53.56.764.866l.12.163-.078.02c.039-.344.15-.675.328-.972a.567.567 0 0 1 .206-.232c.054-.031.1-.017.098-.013ZM48.06 25.419a2.735 2.735 0 0 1-.29.4c-.187.242-.451.573-.746.934l-.155.19-.072.088v-.114a3.477 3.477 0 0 0-.041-.561 1.156 1.156 0 0 0-.154-.414 1.108 1.108 0 0 0-.282-.29.249.249 0 0 1 .105.045c.09.054.168.127.228.214.089.13.15.277.18.432.035.189.052.38.052.572l-.075-.024.155-.192c.295-.361.565-.685.765-.917.099-.13.21-.252.33-.363ZM46.57 33.517a1.852 1.852 0 0 1-.04-.274l-.08-.745c-.064-.632-.144-1.503-.23-2.467-.084-.963-.163-1.835-.206-2.468-.02-.304-.037-.556-.052-.747a1.615 1.615 0 0 1 0-.277c.02.09.034.181.04.273l.08.746c.063.631.145 1.503.23 2.467.086.963.164 1.835.205 2.466.021.306.04.558.052.75.008.091.008.184 0 .276ZM46.574 28.042c0-.008.06-.049.15.01a.197.197 0 0 1 .084.156.2.2 0 0 1-.348.113.193.193 0 0 1-.023-.176c.037-.1.116-.106.114-.096-.001.01-.044.037-.055.111a.137.137 0 0 0 .026.111.114.114 0 0 0 .123.028.117.117 0 0 0 .085-.095.14.14 0 0 0-.044-.105c-.054-.053-.11-.044-.112-.057ZM46.889 30.082c0-.01.072-.036.145.043a.191.191 0 0 1 .05.173.188.188 0 0 1-.18.135.185.185 0 0 1-.19-.118.192.192 0 0 1 .032-.179c.067-.083.147-.064.14-.054-.006.01-.055.02-.09.089a.139.139 0 0 0-.009.116.112.112 0 0 0 .113.06.113.113 0 0 0 .108-.07.149.149 0 0 0-.02-.114c-.042-.073-.1-.08-.1-.08Z" fill="#263238"/><path opacity=".3" d="M42.838 25.58c-.306 1.088-.596 2.32-.026 3.296.163.295.412.545.573.846.276.515.294 1.127.466 1.685.346 1.13 1.58 2.229 2.75 2.4-.603-.734-1.538-1.69-2.095-2.523a2.04 2.04 0 0 1-.383-.738c-.069-.302-.12-.623.082-.86-.783-.121-1.228-.93-1.369-1.708a5.765 5.765 0 0 1 .097-2.353M50.79 31.366c-.195 1.168-.064 2.699.655 3.64.264-1.282.133-2.958-.655-4.01" fill="#000"/><path d="M31.657 17.046H12.413v32.12h19.244v-32.12Z" fill="#F5F5F5"/><path d="m17.517 35.96.207.417.461.068-.334.324.079.46-.413-.217-.412.216.08-.46-.334-.323.46-.068.206-.417ZM19.81 35.96l.206.417.462.068-.334.324.078.46-.412-.217-.413.216.079-.46-.334-.323.461-.068.207-.417ZM22.1 35.96l.206.417.462.068-.334.324.079.46-.413-.217-.411.216.079-.46-.334-.323.46-.068.206-.417ZM24.392 35.96l.207.417.461.068-.334.324.079.46-.413-.217-.412.216.078-.46-.334-.323.462-.068.206-.417ZM26.683 35.96l.206.417.462.068-.334.324.078.46-.412-.217-.413.216.08-.46-.334-.323.462-.068.205-.417ZM21.249 39.732c0 .023-1.46.043-3.263.043s-3.26-.026-3.26-.043c0-.016 1.462-.042 3.263-.042 1.8 0 3.26.011 3.26.042Z" fill="#FC7387"/><path d="M29.45 41.14c0 .023-3.258.043-7.278.043s-7.277-.02-7.277-.042c0-.023 3.258-.043 7.277-.043 4.02 0 7.278.02 7.278.043ZM29.45 42.357c0 .023-3.258.043-7.278.043s-7.277-.02-7.277-.043c0-.023 3.258-.044 7.277-.044 4.02 0 7.278.02 7.278.044ZM29.45 43.572c0 .023-3.258.043-7.278.043s-7.277-.02-7.277-.043c0-.022 3.258-.042 7.277-.042 4.02 0 7.278.02 7.278.042ZM29.45 44.79c0 .022-3.258.042-7.278.042s-7.277-.02-7.277-.043c0-.023 3.258-.042 7.277-.042 4.02 0 7.278.018 7.278.042ZM29.45 46.005c0 .024-3.258.042-7.278.042s-7.282-.018-7.282-.042c0-.025 3.258-.043 7.277-.043 4.02 0 7.283.02 7.283.043Z" fill="#263238"/><path d="M30.226 18.677H13.65v15.898h16.577V18.677Z" fill="#E0E0E0"/><path d="M22.955 26.556c0 .413.038.654.04 1.071a.363.363 0 0 0 .09.286.235.235 0 0 0 .248.012.629.629 0 0 0 .193-.174c.46-.565.736-1.256.794-1.982a.236.236 0 0 0-.034-.178c-.066-.076-.187-.048-.277 0-.448.2-.818.542-1.054.973" fill="#263238"/><path d="m20.172 21.61.008.412.083 6.182a1.327 1.327 0 0 0 1.403 1.265c.778-.017 1.409-.617 1.412-1.343 0-.76.018-1.562.018-1.562s.982-.164 1.185-1.441c.1-.636.069-1.68.015-2.532a1.348 1.348 0 0 0-.952-1.207 1.354 1.354 0 0 0-.54-.053l-2.632.279Z" fill="#FFBE9D"/><path d="M23.803 23.318a.163.163 0 0 1-.164.163.164.164 0 0 1-.164-.147.164.164 0 0 1 .328-.016ZM24.07 23.133c-.021.022-.146-.07-.328-.07-.181.002-.306.09-.327.068-.021-.021.01-.05.067-.09a.455.455 0 0 1 .516.002c.06.042.082.081.072.09ZM22.094 23.318a.164.164 0 0 1-.274.121.164.164 0 0 1-.054-.105.164.164 0 0 1 .328-.016Z" fill="#263238"/><path d="M22.333 23.167c-.021.021-.146-.072-.328-.07-.181.001-.306.088-.327.067-.021-.022.01-.05.067-.09a.455.455 0 0 1 .26-.08.43.43 0 0 1 .256.083c.062.04.082.08.072.09ZM22.973 24.475c.093-.03.19-.047.288-.052.044 0 .087-.013.095-.045a.235.235 0 0 0-.03-.132c-.042-.11-.086-.224-.134-.343a5.983 5.983 0 0 1-.3-.898c.148.28.272.571.372.871l.128.345a.265.265 0 0 1 .023.177.105.105 0 0 1-.074.066.282.282 0 0 1-.077.01 1.147 1.147 0 0 1-.291 0Z" fill="#263238"/><path d="M23.096 26.564a3.259 3.259 0 0 1-1.715-.457s.416.879 1.697.76l.018-.303ZM22.9 24.9a.328.328 0 0 0-.287-.117.292.292 0 0 0-.2.108.18.18 0 0 0-.015.21.213.213 0 0 0 .233.058.678.678 0 0 0 .276-.186.059.059 0 0 0 0-.066" fill="#EB996E"/><path d="M22.454 24.598c.028 0 .03.19.193.327.164.137.369.115.37.142.002.028-.046.036-.133.04a.473.473 0 0 1-.307-.108.41.41 0 0 1-.15-.273c-.006-.082.014-.13.027-.128ZM22.094 21.503a.58.58 0 0 1 .327.247c.073.118.155.23.246.336a.74.74 0 0 0 .86.13c.102.1.238.207.376.164a.245.245 0 0 0 .15-.186.423.423 0 0 0-.036-.246c-.134-.312-.48-.479-.818-.544a2.31 2.31 0 0 0-1.22.095M19.002 34.628c.06.106-.393-1.422-.393-1.422l-.38 1.395-2.819.022s1.593-5.203 2.35-5.93c.982-.948 2.839-.999 2.839-.999l2.86.046h.064a3.51 3.51 0 0 1 2.708 1.914l1.897 4.915h-2.506l-.534-1.451.178 1.45" fill="#263238"/><path d="M24.75 27.572c-.086-.206-.4-.198-.538-.373-.137-.175-.018-.465.095-.682.542-1.044.491-2.29.388-3.458-.042-.502-.093-1.014-.31-1.472-.435-.906-1.484-1.622-2.784-1.564-1.063.041-1.872.998-2.446 1.893-.575.895-.881 2.29-.693 3.341.095.524.655.928.557 1.45-.066.327-.41.722-.342 1.051.091.448.743.604 1.125.859.38.28.735.59 1.062.929.33.339.728.604 1.167.778.447.15.983.123 1.343-.176.594-.49.537-1.46 1.077-2.007.157-.162.39-.348.3-.57Zm-.837-5.656c.217.327.235.75.286 1.145.106.659.114 1.33.023 1.99a3.125 3.125 0 0 1-.87 1.76 2.052 2.052 0 0 1-1.836.556c-.729-.163-.963-.818-1.17-1.529-.206-.712.255-1.374.46-2.092.163-.554.217-1.336.575-1.788.359-.451.953-.482 1.128-.474 0-.002.966-.226 1.404.432Z" fill="#FC7387"/><path opacity=".3" d="M18.742 27.233c.432.234.771.605 1.123.949.352.343.744.677 1.22.8.477.122 1.056-.023 1.294-.454a3.044 3.044 0 0 1-3.275-1.91M24.142 26.927a1.258 1.258 0 0 1-.64.797.832.832 0 0 0-.207.12.201.201 0 0 0-.064.217.197.197 0 0 0 .233.085.578.578 0 0 0 .22-.152c.235-.228.48-.475.548-.795" fill="#000"/><path d="M84.067 34.667a2.399 2.399 0 0 0-4.667-1.108 2.399 2.399 0 0 0 4.667 1.108Z" fill="#E0E0E0"/><path d="M81.363 35.131c.101-.115.214-.22.335-.312.217-.184.518-.434.855-.707v.066l-.016-.015c-.328-.288-.629-.551-.842-.746a2.494 2.494 0 0 1-.327-.327c.131.083.255.177.37.281.222.183.525.44.858.728l.016.013.04.034-.042.032c-.335.273-.643.516-.867.688a2.718 2.718 0 0 1-.38.265Z" fill="#263238"/><path d="M13.456 34.756a2.391 2.391 0 0 0-4.653-1.102 2.391 2.391 0 0 0 4.653 1.102Z" fill="#E0E0E0"/><path d="M11.615 33.09a2.633 2.633 0 0 1-.337.31c-.216.185-.516.436-.853.709v-.066l.018.015c.327.288.628.551.84.746.119.098.228.208.327.327a2.573 2.573 0 0 1-.372-.283 37.04 37.04 0 0 1-.856-.726l-.018-.015-.038-.033.04-.032c.337-.272.645-.516.87-.687.117-.1.244-.19.379-.265Z" fill="#263238"/><path d="M37.41 10.659a18.396 18.396 0 0 0-7.573 7.528 18.37 18.37 0 0 0 1.95 20.335 18.406 18.406 0 0 0 8.869 5.953 18.408 18.408 0 0 0 16.711-3.1l15.51 19.383 2.373-1.89-15.641-19.545a18.299 18.299 0 0 0 4.515-8.966 18.369 18.369 0 0 0-.935-10.158 18.39 18.39 0 0 0-6.212-8.096 18.418 18.418 0 0 0-19.566-1.444Zm13.133 1.559a15.368 15.368 0 0 1 8.302 6.183 15.34 15.34 0 0 1-1.96 19.382 15.376 15.376 0 0 1-19.411 1.86 15.34 15.34 0 0 1-5.613-18.656 15.36 15.36 0 0 1 6.974-7.647 15.28 15.28 0 0 1 11.708-1.122Z" fill="#30D4FE"/></svg>