<svg width="108" height="80" fill="none" xmlns="http://www.w3.org/2000/svg"><ellipse cx="27.456" cy="23.738" rx="23.452" ry="23.738" fill="#FDE589"/><path d="M107.836 75.226c0 .024-24.142.041-53.915.041s-53.92-.017-53.92-.04c0-.024 24.137-.041 53.92-.041 29.784 0 53.915.018 53.915.04Z" fill="#263238"/><path d="M40.62 11.982h32.32v30.781a2.54 2.54 0 0 1-2.54 2.54H40.62V11.983Z" fill="#EBEBEB"/><path d="M70.271 21.899c0 .067-5.84.122-13.045.122s-13.048-.055-13.048-.122 5.84-.122 13.048-.122 13.045.055 13.045.122ZM57.38 24.16c0 .067-2.886.121-6.446.121-3.56 0-6.447-.054-6.447-.122 0-.067 2.887-.122 6.447-.122s6.445.052 6.445.122ZM62.532 23.947c0 .068-.764.123-1.707.123-.943 0-1.707-.055-1.707-.123 0-.067.764-.122 1.707-.122.943 0 1.707.055 1.707.122ZM70.968 23.809c0 .067-1.513.122-3.38.122s-3.38-.055-3.38-.122c0-.068 1.513-.123 3.38-.123s3.38.055 3.38.123ZM56.303 26.316c0 .068-2.714.123-6.063.123-3.348 0-6.063-.055-6.063-.123 0-.07 2.715-.123 6.063-.123 3.349 0 6.063.055 6.063.122ZM70.968 26.255c0 .067-2.963.122-6.619.122-3.655 0-6.62-.055-6.62-.122s2.963-.122 6.62-.122 6.62.053 6.62.122ZM70.968 28.429c0 .067-1.319.122-2.948.122s-2.947-.055-2.947-.122 1.32-.124 2.947-.124c1.628 0 2.948.055 2.948.124Z" fill="#455A64"/><path d="M58.773 19.48c0 .066-3.198.121-7.142.121-3.944 0-7.144-.055-7.144-.122s3.199-.122 7.144-.122c3.946 0 7.142.055 7.142.122Z" fill="#273CFD"/><path d="M78.644 30.646H16.068a2.282 2.282 0 0 0-2.282 2.282v39.835a2.282 2.282 0 0 0 2.282 2.282h62.576a2.282 2.282 0 0 0 2.282-2.282V32.928a2.282 2.282 0 0 0-2.282-2.281Z" fill="#0A0070"/><path d="M11.072 71.76h72.74v1.097a2.788 2.788 0 0 1-2.789 2.787H13.86a2.788 2.788 0 0 1-2.788-2.787V71.76Z" fill="#0A0070"/><path d="M79.028 32.41H15.681v37.494h63.347V32.41Z" fill="#B5DFF3"/><path d="M40.83 71.76h1.111l3.068-.013 10.264-.021h.075l-.038.065-.407.699-.43.738-.013.022h-.025l-12.702-.024h-.011v-.01l-.666-1.082-.167-.274-.054-.09s.024.032.063.095l.178.274.679 1.056-.018-.01 12.703-.023-.038.022.43-.738.408-.698.038.065-10.222-.022-3.088-.018h-1.06l-.077-.013Z" fill="#455A64"/><path d="M80.925 71.76c0 .023-15.036.04-33.568.04-18.532 0-33.57-.016-33.57-.04 0-.023 15.026-.04 33.57-.04s33.568.018 33.568.04Z" fill="#455A64"/><path d="M63.785 24.922a1.88 1.88 0 0 1 1.88 1.88v3.848h-5.607v-3.554a2.172 2.172 0 0 1 2.174-2.174h1.553Z" fill="#263238"/><path d="M63.785 24.922c0 .024-5.29.036-11.817.031-6.526-.004-11.817-.03-11.817-.051 0-.022 5.29-.036 11.817-.032 6.528.005 11.817.03 11.817.052Z" fill="#263238"/><path d="m63.742 24.917-2.34-.016-3.398.02H33.049a3.837 3.837 0 0 0-3.837 3.838v41.234h32.32V27.025c.096-2.103 2.21-2.108 2.21-2.108Z" fill="#FAFAFA"/><path d="m63.742 24.917-19.49.043H33.292c-.204 0-.404 0-.605.017-.2.021-.397.057-.59.108a3.77 3.77 0 0 0-2.585 2.318c-.031.096-.075.186-.097.284l-.073.29a4.056 4.056 0 0 0-.07.598c-.018.806 0 1.622 0 2.434l.026 38.975-.079-.078 32.321.022-.056.056.016-23.18.018-11.59.011-5.795v-2.174c-.004-.12 0-.242.014-.362.009-.12.028-.24.058-.357.101-.479.381-.9.784-1.18a2.27 2.27 0 0 1 .65-.313c.23-.069.468-.108.708-.116Zm0 0c-.242.011-.481.054-.712.127-.231.07-.45.175-.648.314a1.9 1.9 0 0 0-.774 1.177c-.03.117-.048.236-.056.356-.013.12-.017.24-.013.362v2.172l.013 5.795.019 11.59.014 23.18v.06h-.058l-32.321.02h-.077v-.078l.025-38.976c0-.813 0-1.622.011-2.438.01-.206.033-.41.072-.613l.079-.297c.021-.1.067-.194.098-.292a3.867 3.867 0 0 1 2.653-2.374c.2-.051.402-.088.607-.11.205-.01.41-.022.612-.017h10.962l19.494.042Z" fill="#263238"/><path d="M34.08 32.341h5.638l.01 1.89h-.271c-.088-.676-.34-1.134-.758-1.373a2.349 2.349 0 0 0-1.053-.214v4.933c0 .346.06.575.18.688.121.113.372.169.754.169v.238h-3.338v-.238c.365 0 .61-.058.728-.172.12-.115.182-.342.182-.685v-4.933a2.407 2.407 0 0 0-1.052.214c-.448.246-.702.702-.76 1.372h-.27l.01-1.889ZM57.096 32.773c0 .068-3.11.123-6.948.123-3.837 0-6.948-.055-6.948-.123 0-.067 3.111-.122 6.948-.122 3.838 0 6.948.049 6.948.122Z" fill="#273CFD"/><path d="M48.851 34.988c0 .067-1.203.122-2.686.122-1.483 0-2.686-.055-2.686-.122s1.203-.124 2.686-.124c1.483 0 2.686.055 2.686.124ZM42.079 41.76c0 .068-2.284.123-5.101.123-2.818 0-5.103-.055-5.103-.122 0-.068 2.283-.122 5.103-.122 2.819 0 5.1.062 5.1.122Z" fill="#455A64"/><path d="M53.635 41.76c0 .068-2.286.123-5.102.123-2.816 0-5.103-.055-5.103-.122 0-.068 2.284-.122 5.103-.122 2.82 0 5.102.062 5.102.122Z" fill="#273CFD"/><path d="M42.079 43.57c0 .067-2.284.122-5.101.122-2.818 0-5.103-.055-5.103-.123 0-.067 2.283-.122 5.103-.122 2.819 0 5.1.055 5.1.122Z" fill="#455A64"/><path d="M42.079 45.379c0 .067-2.284.122-5.101.122-2.818 0-5.103-.055-5.103-.122 0-.068 2.283-.124 5.103-.124 2.819 0 5.1.048 5.1.124Z" fill="#273CFD"/><path d="M48.851 38.672c0 .067-1.203.122-2.686.122-1.483 0-2.686-.055-2.686-.122s1.203-.122 2.686-.122c1.483 0 2.686.055 2.686.122ZM58.17 41.76c0 .068-.802.123-1.79.123s-1.792-.055-1.792-.122c0-.068.802-.122 1.792-.122s1.79.062 1.79.122ZM59.129 34.988c0 .067-2.064.122-4.61.122-2.544 0-4.609-.055-4.609-.122s2.063-.124 4.61-.124c2.546 0 4.609.055 4.609.124ZM58.712 36.752c0 .067-3.41.122-7.616.122-4.207 0-7.617-.055-7.617-.122 0-.068 3.41-.123 7.617-.123s7.616.06 7.616.123ZM58.17 43.57c0 .067-3.3.122-7.361.122s-7.37-.055-7.37-.123c0-.067 3.298-.122 7.37-.122s7.361.055 7.361.122Z" fill="#455A64"/><path d="M58.17 48.806c0 .067-3.096.122-6.915.122-3.818 0-6.916-.055-6.916-.122 0-.068 3.096-.122 6.916-.122 3.82 0 6.915.054 6.915.122Z" fill="#273CFD"/><path d="M58.17 50.566c0 .067-3.096.122-6.915.122-3.818 0-6.916-.055-6.916-.122s3.096-.122 6.916-.122c3.82 0 6.915.055 6.915.122ZM58.17 52.326c0 .068-3.096.122-6.915.122-3.818 0-6.916-.054-6.916-.122 0-.067 3.096-.122 6.916-.122 3.82 0 6.915.055 6.915.122ZM58.17 54.087c0 .067-3.096.122-6.915.122-3.818 0-6.916-.055-6.916-.123 0-.067 3.096-.122 6.916-.122 3.82 0 6.915.055 6.915.123ZM52.302 55.847c0 .033-.447.064-1.167.086-.72.022-1.723.036-2.82.036-1.096 0-2.095-.014-2.819-.036-.723-.022-1.165-.053-1.165-.086 0-.033.445-.064 1.165-.086a98.27 98.27 0 0 1 2.82-.036c1.096 0 2.094.014 2.819.036.725.022 1.167.052 1.167.086ZM55.664 45.473c0 .067-2.662.122-5.951.122-3.29 0-5.952-.055-5.952-.122 0-.068 2.663-.122 5.952-.122s5.951.054 5.951.122Z" fill="#455A64"/><path d="m41.838 49.005.734 13.588-13.286 1.664-.011-15.368 12.563.116Z" fill="#E0E0E0"/><path d="m24.635 48.063-.093 14.415 18.03.117.093-14.416-18.03-.116Z" fill="#F5F5F5"/><path d="m25.25 48.975-.08 12.6 16.762.109.082-12.6-16.763-.109Z" fill="#FC7387"/><path opacity=".2" d="m25.168 61.573 5.907-7.793 3.594 4.922 2.478-2.603 4.786 5.583-16.765-.109ZM36.246 52.853a1.32 1.32 0 1 1-2.639-.016 1.32 1.32 0 0 1 2.64.016Z" fill="#000"/><path d="M44.308 65.994a.278.278 0 0 1-.552.054.279.279 0 1 1 .552-.054ZM45.963 65.994a.279.279 0 1 1-.558 0 .279.279 0 0 1 .558 0ZM47.617 65.994a.278.278 0 0 1-.552.054.279.279 0 1 1 .552-.054Z" fill="#263238"/><path d="M53.713 59.515c0 .068-2.285.122-5.103.122-2.818 0-5.103-.054-5.103-.122 0-.067 2.285-.122 5.103-.122 2.818 0 5.103.055 5.103.122Z" fill="#273CFD"/><path d="M58.249 61.324c0 .068-3.3.123-7.37.123-4.072 0-7.372-.055-7.372-.123 0-.067 3.3-.122 7.371-.122 4.07 0 7.37.055 7.37.122Z" fill="#455A64"/><path d="m91.055 64.541-.087 8.683 10.861.109.086-8.683-10.86-.109Z" fill="#F5F5F5"/><path d="m91.05 64.89-.049 7.59 10.098.065.049-7.59-10.098-.065Z" fill="#FC7387"/><path opacity=".2" d="m90.999 72.476 3.557-4.694 2.166 2.965 1.493-1.568 2.882 3.363-10.098-.066ZM97.673 67.23a.795.795 0 1 1-1.591-.005.795.795 0 0 1 1.59.006Z" fill="#000"/><path d="m89.087 63.432-.056 8.683 10.86.07.056-8.682-10.86-.07Z" fill="#F5F5F5"/><path d="m89.46 63.982-.05 7.59 10.098.065.049-7.59-10.097-.065Z" fill="#FC7387"/><path opacity=".2" d="m89.406 71.57 3.557-4.694 2.166 2.964 1.493-1.567 2.882 3.362-10.098-.066ZM96.08 66.318a.796.796 0 1 1-1.593-.01.796.796 0 0 1 1.593.01Z" fill="#000"/><path d="m87.67 62.685-.056 8.683 10.86.07.056-8.683-10.86-.07Z" fill="#F5F5F5"/><path d="m88.041 63.233-.05 7.59 10.098.065.05-7.59-10.098-.065Z" fill="#FC7387"/><path opacity=".2" d="m87.989 70.821 3.556-4.695 2.167 2.966 1.49-1.57 2.884 3.363-10.097-.064ZM94.66 65.568a.795.795 0 1 1-1.589-.009.795.795 0 0 1 1.59.009Z" fill="#000"/><path d="m86.434 63.814-.087 8.683 10.86.108.088-8.683-10.86-.108Z" fill="#F5F5F5"/><path d="m86.449 64.166-.05 7.59 10.098.065.049-7.59-10.097-.065Z" fill="#2A353A"/><path opacity=".2" d="m86.396 71.754 3.557-4.695 2.166 2.965 1.49-1.568 2.884 3.362-10.097-.064ZM93.074 66.501a.795.795 0 1 1-1.59-.01.795.795 0 0 1 1.59.01Z" fill="#000"/><path d="M103.203 66.844h-6.27v8.384h6.27v-8.384Z" fill="#13191C"/><path d="M84.93 66.844v8.383h12.53v-8.383H84.93Zm7.604 1.983H89.87a.576.576 0 1 1 0-1.153h2.663a.576.576 0 0 1 0 1.153Z" fill="#FC7387"/><path d="m76.793 74.351-11.66-.714c-.074-.168-.123-.265-.123-.265l-3.16.064-1.03-.064-.04.085-10.61.211c-2.116 0-4.34 1.29-4.34 2.94-.027 1.566.735 3.273 2.63 3.234l14.455-.048 14.456.048c1.895.04 2.396-1.096 2.4-2.46.22-2.525-1.362-3.01-2.978-3.031Z" fill="#455A64"/><path d="M49.786 79.844h.274l.784-.008 2.91-.013 9.71-.012-.04.042-.063-.997-.127-2.036.036.037-8.943-1.012-2.65-.302-.714-.086-.185-.024a.335.335 0 0 1-.061-.01h.062l.185.017.716.07 2.653.279 8.945.968h.033v.033l.128 2.036.063.998v.043h-.042l-9.711-.014-2.91-.012h-.988l-.065.003Z" fill="#263238"/><path d="M52.767 75.696c-.01.011-.157-.106-.409-.261a4.473 4.473 0 0 0-1.062-.47 4.43 4.43 0 0 0-1.148-.17c-.298 0-.482.02-.484 0a.43.43 0 0 1 .128-.03c.118-.017.237-.028.356-.03a3.836 3.836 0 0 1 2.241.643c.1.066.195.138.285.216.063.065.096.094.093.102ZM75.888 75.076c0 .022-2.295.578-5.136 1.242s-5.151 1.184-5.156 1.162c-.005-.022 2.294-.578 5.137-1.242 2.843-.664 5.15-1.176 5.155-1.162Z" fill="#263238"/><path d="M73.944 74.85a4.734 4.734 0 0 0-.902.433 4.478 4.478 0 0 0-.732.68.766.766 0 0 1 .157-.256 2.398 2.398 0 0 1 1.186-.802.833.833 0 0 1 .29-.054Z" fill="#263238"/><path d="m69.603 61.61 3.694 6.432a2.73 2.73 0 0 1-.966 3.704c-.447.267-.96.401-1.48.387l-5.673-.157-.149-2.063 4.995-.96-3.368-5.83 2.947-1.512ZM55.835 72.615l5.216 1.382.114-1.567-4.807-2.79 3.512-6.516-2.946-1.513-3.695 6.43a3.013 3.013 0 0 0 1.739 4.297l.867.277Z" fill="#FFBE9D"/><path d="m68.035 65.74 3.565-1.88c-.44-.889-.95-1.74-1.527-2.546-1.105-1.527-2.82-2.594-4.762-3.001l-4.1.048c-.501.045-.993.158-1.463.337v-.015c-2.226.49-4.699 5.344-4.699 5.344l3.255 1.708.072.511c.095.677.39 1.31.846 1.818l-.94 6.214 10.516.217-1.337-4.445.574-4.31Z" fill="#30D4FE"/><path d="M59.314 68.099a.743.743 0 0 1-.157-.12 2.26 2.26 0 0 1-.358-.4 2.599 2.599 0 0 1-.44-1.694c.052-.32.133-.634.24-.94.095-.283.192-.533.275-.743.083-.21.156-.378.206-.492a.782.782 0 0 1 .091-.174 1.024 1.024 0 0 1-.06.186l-.184.5c-.074.2-.166.47-.255.747-.103.303-.181.615-.232.93a2.675 2.675 0 0 0 .402 1.65c.142.196.3.38.472.55Z" fill="#263238"/><path d="m57.735 75.778-.595-6.93h12.826l-.85 7.016-11.38-.086Z" fill="#13191C"/><path d="M64.37 72.544a.818.818 0 1 1-1.636.003.818.818 0 0 1 1.636-.003Z" fill="#FAFAFA"/><path d="m63.328 77.13 2.179.305v2.368l-2.004-.052-.175-2.62Z" fill="#FFBE9D"/><path d="M65.508 77.435h.98c.19 0 .377.05.541.146l.516.3c.291.162.592.305.902.43.595.19 1.596.45 1.807.612.602.47.418 1.013.088 1.07-.29.051-4.835-.188-4.835-.188l.001-2.37Z" fill="#FC7387"/><path d="M67.114 79.604a1.567 1.567 0 0 1-.105-.615c-.021-.212.002-.425.069-.627a5.5 5.5 0 0 1 .012.617 5.3 5.3 0 0 1 .024.625ZM67.579 79.593a3.934 3.934 0 0 1 .01-1.13c.037.187.05.377.035.566.011.19-.004.38-.045.564ZM68.127 79.687a4.198 4.198 0 0 1-.09-1.164c.054.188.084.383.085.578.029.195.03.392.005.586ZM66.69 78.978a.618.618 0 0 1-.2-.063 1.86 1.86 0 0 1-.63-.434.552.552 0 0 1-.125-.175.247.247 0 0 1 .029-.245.183.183 0 0 1 .12-.066c.045-.004.09 0 .133.015a.976.976 0 0 1 .206 1.733.627.627 0 0 1-.226.102.27.27 0 0 1-.127 0 .166.166 0 0 1-.099-.087.245.245 0 0 1 .029-.226.707.707 0 0 1 .125-.157c.14-.134.303-.24.482-.313a.591.591 0 0 1 .202-.056s-.069.028-.19.086c-.168.082-.322.192-.453.327a.612.612 0 0 0-.112.141.19.19 0 0 0-.023.165.13.13 0 0 0 .156.053.57.57 0 0 0 .196-.093.905.905 0 0 0-.186-1.6.156.156 0 0 0-.175.025.177.177 0 0 0-.02.174c.06.11.142.209.24.288.195.167.413.304.649.406ZM70.342 79.99a.5.5 0 0 0 .119-.156.552.552 0 0 0-.065-.493 1.096 1.096 0 0 0-.604-.456c-.277-.1-.606-.148-.94-.252a6.578 6.578 0 0 1-1.618-.736 4.886 4.886 0 0 1-.44-.314.835.835 0 0 1-.149-.131c.06.03.115.064.168.105.105.07.257.172.453.288.506.3 1.046.538 1.61.708.327.102.654.156.94.258.262.085.484.263.626.5a.58.58 0 0 1 .04.535.34.34 0 0 1-.1.112c-.019.028-.039.036-.04.032Z" fill="#263238"/><path d="M68.858 60.015a.1.1 0 0 1 0 .035v.097c-.007.09-.02.217-.034.379l-.143 1.422v.036l-.032-.017-1.902-1.001.046-.013-1.028 1.736-.022.036-.034-.025-1.723-1.327h.05l-.753.59-1.028.804-.037.03-.022-.043-.98-1.809.05.016-2.074.924-.04.017v-.04l-.313-1.845.032.018-1.194.46-.313.117-.082.03-.028.007s.008 0 .025-.014l.08-.034.313-.129 1.18-.47.026-.009v.028l.33 1.842-.045-.023 2.07-.94.032-.014.017.03c.314.573.64 1.178.983 1.809l-.062-.013 1.028-.805.753-.59.025-.02.025.02 1.723 1.33-.056.01 1.035-1.722.016-.027.028.014 1.88 1.012-.036.019.166-1.42.046-.377c0-.04.011-.07.015-.097a.272.272 0 0 1 .007-.044Z" fill="#F5F5F5"/><path d="M70.38 61.76a.2.2 0 0 1-.007.045c-.01.035-.02.079-.033.134-.033.12-.077.292-.135.512-.12.45-.296 1.096-.512 1.906l-.01.031-.027-.014-2.21-1.059.044-.012c-.566.805-1.192 1.7-1.861 2.654l-.028.04-.033-.035-1.783-1.814-.376-.38h.05l-2.408 1.511-.035.022-.02-.034-1.3-2.296.04.015-2.477.854-.024.008-.008-.024-.55-1.594-.142-.425-.036-.11a.125.125 0 0 1-.01-.037.136.136 0 0 1 .016.036l.043.107c.036.1.087.24.156.42l.572 1.588-.031-.016 2.468-.866.027-.01.014.026 1.308 2.29-.055-.015 2.409-1.514.026-.017.024.023c.124.127.25.254.376.38l1.787 1.816h-.061l1.87-2.649.015-.023.027.012 2.202 1.075-.036.017.536-1.9.147-.509.04-.13a.167.167 0 0 1 .012-.039Z" fill="#F5F5F5"/><path d="M68.797 50.833a2.302 2.302 0 0 1-1.75-.552c.57.288 1.329-.108 1.531-.715.202-.606.036-1.735-.462-2.136a1.98 1.98 0 0 0-1.723-.37c-.587.157-1.209 1.051-1.402 1.628l.011.017a5.702 5.702 0 0 0-.272-.1 4.698 4.698 0 0 0-2.029-.246 3.302 3.302 0 0 0-1.852.816l3.983 6.401c.723-.063 1.364-.551 1.743-1.17.379-.619.525-1.356.56-2.081.01-.184.008-.367 0-.55l1.28.205a2.863 2.863 0 0 0-.85-.761 1.071 1.071 0 0 0 1.232-.386Z" fill="#263238"/><path d="M63.767 60.768a2.003 2.003 0 0 0 1.96-1.98l.093-7.964a.627.627 0 0 0-.567-.642l-3.364-.85c-1.08-.113-1.794 1.212-1.863 2.292-.075 1.202-.12 2.67.022 3.568.287 1.801 1.669 2.036 1.669 2.036v1.551a2 2 0 0 0 2.045 1.994l.005-.005Z" fill="#FFBE9D"/><path d="M60.725 52.791a.232.232 0 0 0 .224.234.221.221 0 0 0 .238-.208.23.23 0 0 0-.222-.234.222.222 0 0 0-.24.209ZM60.34 52.389c.028.031.203-.099.452-.099.25 0 .431.125.458.096.026-.03-.016-.07-.096-.127a.648.648 0 0 0-.367-.113c-.129 0-.255.04-.36.117-.07.058-.087.113-.087.126ZM63.092 52.792a.23.23 0 0 0 .224.233.222.222 0 0 0 .24-.208.232.232 0 0 0-.225-.234.223.223 0 0 0-.217.123.221.221 0 0 0-.022.086ZM62.79 52.436c.029.03.205-.099.453-.099.25 0 .431.126.458.094.026-.03-.016-.067-.096-.125a.636.636 0 0 0-.726.003c-.077.06-.102.113-.088.127ZM61.887 54.281a1.668 1.668 0 0 0-.404-.073c-.063 0-.122-.02-.133-.063a.313.313 0 0 1 .042-.188l.188-.484c.26-.688.45-1.253.422-1.264-.029-.01-.262.539-.524 1.228l-.18.486a.378.378 0 0 0-.032.249.155.155 0 0 0 .104.094.41.41 0 0 0 .108.014c.136.018.273.018.41.001Z" fill="#263238"/><path d="M61.716 57.224a4.585 4.585 0 0 0 2.414-.643s-.586 1.237-2.39 1.068l-.024-.425ZM61.994 54.88a.45.45 0 0 1 .558-.117.41.41 0 0 1 .125.107.259.259 0 0 1 .02.296.301.301 0 0 1-.326.083.972.972 0 0 1-.313-.19.262.262 0 0 1-.07-.073.083.083 0 0 1 0-.093" fill="#EB996E"/><path d="M62.62 54.452c-.04 0-.04.267-.272.46s-.519.157-.52.199c-.002.042.064.053.184.056a.681.681 0 0 0 .436-.156.584.584 0 0 0 .21-.386c.01-.108-.02-.173-.038-.173ZM62.678 52c.025.068.272.036.565.07.293.035.528.115.566.056.017-.03-.024-.093-.118-.157a.995.995 0 0 0-.863-.096c-.106.043-.161.096-.15.127ZM60.38 51.93c.044.056.215 0 .422 0 .206 0 .38.04.42-.02.018-.03-.01-.086-.087-.14a.578.578 0 0 0-.341-.092.584.584 0 0 0-.337.114c-.072.053-.095.111-.077.138Z" fill="#263238"/><path d="M65.62 53.064a.454.454 0 0 1 .47.024.836.836 0 0 1-.527 1.552" fill="#FFBE9D"/><path d="M65.746 54.102c0-.012.07.015.157-.024a.314.314 0 0 0 .157-.314.313.313 0 0 0-.193-.288c-.09-.038-.157-.019-.157-.033 0-.014.062-.056.18-.03.07.017.131.055.176.11.055.067.086.15.09.236a.358.358 0 0 1-.226.376c-.127.037-.193-.026-.184-.032Z" fill="#EB996E"/><path d="M66.238 54.467s.031.018.083.058l.22.176.784.66.027.023-.022.026c-.29.348-.613.783-.975 1.238-.083.103-.164.203-.244.297l-.067.078v-.103c-.032-.733-.058-1.383-.072-1.85 0-.22-.01-.405-.013-.548a1.1 1.1 0 0 1 0-.2.913.913 0 0 1 .025.199l.038.548c.028.47.063 1.113.099 1.848l-.071-.025.241-.295c.362-.454.688-.886.985-1.232v.048l-.76-.682-.21-.187a.47.47 0 0 1-.068-.077Z" fill="#455A64"/><path d="M62.593 48.544a6.611 6.611 0 0 0-1.314.145c-.434.093-.83.315-1.135.639a1.334 1.334 0 0 0-.313 1.23.967.967 0 0 0 .997.694c.332-.043.65-.29.971-.192.322.097.47.462.784.52.313.058.58-.22.89-.248.345-.03.643.252.796.563.154.31.212.657.365.966a.784.784 0 0 0 .47.442.64.64 0 0 0 .563-.157c.147-.14.26-.313.328-.504a2.8 2.8 0 0 0-2.274-3.838" fill="#263238"/><path d="M66.985 50.458c-.014 0-.056-.145-.166-.366a2.616 2.616 0 0 0-1.395-1.253c-.23-.088-.383-.114-.381-.129.001-.014.04 0 .11 0 .099.014.196.036.29.068.315.104.605.272.85.495.246.221.443.492.578.795.041.09.074.185.097.282a.326.326 0 0 1 .017.108Z" fill="#FF725E"/><path d="M68.364 47.819a2.717 2.717 0 0 0-.434-.135 1.722 1.722 0 0 0-1.058.157c-.324.17-.603.413-.816.71-.167.228-.245.386-.258.38a.352.352 0 0 1 .044-.118c.048-.102.103-.2.166-.294.206-.318.492-.576.829-.75a1.664 1.664 0 0 1 1.096-.143c.112.024.22.064.321.12.074.04.113.063.11.073ZM66.631 49.935c.02.123.02.248 0 .371a3.004 3.004 0 0 1-.695 1.626 1.11 1.11 0 0 1-.271.252c.269-.316.495-.667.672-1.043.15-.388.248-.793.294-1.206Z" fill="#455A64"/><path d="M66.683 49.974c.02.031.036.066.044.103.032.096.056.195.07.296a2.545 2.545 0 0 1-.482 1.912c-.061.082-.13.158-.204.228-.053.05-.083.075-.087.07-.005-.005.101-.122.244-.332.184-.272.32-.574.402-.893.08-.32.103-.65.07-.977-.026-.25-.071-.404-.057-.407Z" fill="#455A64"/><path d="M71.422 50.384a.738.738 0 1 0 .337-.025M73.54 47.307a.847.847 0 1 0 .387-.028" fill="#EBEBEB"/><path d="M78.061 33.743c-1.41-.12-2.849.197-3.821 1.234a4.804 4.804 0 0 0-1.222 3.938c-1.507.626-2.327 2.543-1.743 4.072.584 1.528 2.48 2.396 4.017 1.853a5.45 5.45 0 0 0 9.268 1.475c1.477.334 3.132.313 4.385-.557 1.253-.871 1.805-2.78.859-3.963 1.702-.415 2.567-2.54 2.062-4.22-.504-1.679-2.017-2.882-3.63-3.563-1.067-.45-2.398-.686-3.308.03a4.214 4.214 0 0 0-6.859-.293" fill="#F5F5F5"/><path d="m78.062 33.743.086-.11c.086-.105.177-.206.274-.302.378-.372.822-.67 1.31-.878a4.341 4.341 0 0 1 1.105-.314 4.07 4.07 0 0 1 1.37.043c.523.105 1.02.306 1.47.592.507.323.94.75 1.27 1.253h-.04a2.288 2.288 0 0 1 1.34-.46 4.352 4.352 0 0 1 1.51.24 7.923 7.923 0 0 1 1.48.679c.498.287.958.635 1.37 1.035.437.42.796.912 1.06 1.457.132.283.233.58.302.886a3.772 3.772 0 0 1-.548 2.799c-.19.28-.425.525-.696.725-.277.204-.59.354-.923.442l.02-.061c.206.262.35.567.422.892.071.331.08.672.025 1.006a3.31 3.31 0 0 1-.94 1.806 3.814 3.814 0 0 1-1.863.952 6.292 6.292 0 0 1-2.148.064 9.593 9.593 0 0 1-.773-.137l.04-.015A5.453 5.453 0 0 1 76.81 47a5.532 5.532 0 0 1-1.557-2.149l.047.02a3.275 3.275 0 0 1-2.628-.274 3.083 3.083 0 0 1-1.524-1.956 3.303 3.303 0 0 1 .313-2.298 3.19 3.19 0 0 1 1.55-1.456l-.015.03a4.8 4.8 0 0 1 .097-1.861c.196-.787.59-1.51 1.144-2.102a3.86 3.86 0 0 1 1.604-1 5.566 5.566 0 0 1 2.225-.214h-.147c-.097 0-.242-.01-.433-.01-.556 0-1.11.087-1.64.258a3.836 3.836 0 0 0-1.585.997 4.742 4.742 0 0 0-1.124 2.087 4.79 4.79 0 0 0-.09 1.84v.02l-.021.01c-.654.29-1.19.796-1.518 1.433a3.247 3.247 0 0 0-.313 2.254 3.014 3.014 0 0 0 1.52 1.903 3.208 3.208 0 0 0 2.57.266l.032-.011.014.033a5.534 5.534 0 0 0 3.986 3.317 5.518 5.518 0 0 0 5.214-1.854l.016-.02h.023a8.8 8.8 0 0 0 .768.137c.704.1 1.42.08 2.117-.063a3.725 3.725 0 0 0 1.827-.93 3.22 3.22 0 0 0 .913-1.76 2.35 2.35 0 0 0-.428-1.838l-.037-.046.06-.016c.322-.086.626-.23.895-.428a2.91 2.91 0 0 0 .667-.714c.356-.54.563-1.164.602-1.809.021-.315 0-.63-.061-.94a4.239 4.239 0 0 0-.295-.869 5.074 5.074 0 0 0-1.043-1.44 6.858 6.858 0 0 0-1.356-1.025 7.833 7.833 0 0 0-1.465-.677 4.322 4.322 0 0 0-1.488-.241 2.23 2.23 0 0 0-1.309.445l-.024.019-.017-.026a4.268 4.268 0 0 0-2.698-1.827 4.045 4.045 0 0 0-1.357-.049 4.386 4.386 0 0 0-2.409 1.167c-.126.125-.22.226-.278.296-.058.07-.091.114-.091.114Z" fill="#263238"/><path d="M87.749 38.625c0 .067-2.779.122-6.204.122s-6.203-.055-6.203-.122 2.778-.122 6.203-.122c3.425 0 6.204.055 6.204.122ZM87.749 39.979c0 .067-2.779.122-6.204.122s-6.203-.055-6.203-.122c0-.068 2.778-.124 6.203-.124 3.425 0 6.204.049 6.204.124ZM87.749 41.318c0 .067-2.779.122-6.204.122s-6.203-.055-6.203-.122c0-.068 2.778-.123 6.203-.123 3.425 0 6.204.055 6.204.123ZM87.749 42.663c0 .068-2.779.122-6.204.122s-6.203-.054-6.203-.122c0-.067 2.778-.122 6.203-.122 3.425 0 6.204.055 6.204.122Z" fill="#455A64"/></svg>