<svg width="82" height="83" fill="none" xmlns="http://www.w3.org/2000/svg"><circle cx="20.5" cy="51.058" r="20.5" fill="#8900FA" fill-opacity=".5"/><path d="M59.413 42.116H22.921v14.386h36.492V42.117Z" fill="#F5F5F5"/><path d="M59.413 56.503V52.647c0-2.48-.01-6.073-.017-10.53l.03.03-36.49.014.045-.044v14.386l-.043-.043 26.144.027 7.592.012h2.735H56.7l-7.584.012-26.19.021h-.043V42.065h.046l36.49.014h.032v.03c0 4.465-.012 8.07-.016 10.55 0 1.237 0 2.197-.008 2.85v.738c0 .168-.014.256-.014.256Z" fill="#263238"/><path d="M43.636 49.792c0 .024-3.908.045-8.728.045s-8.727-.021-8.727-.045c0-.024 3.906-.046 8.727-.046 4.822 0 8.728.027 8.728.046ZM43.686 51.54c0 .025-3.93.044-8.777.044-4.847 0-8.78-.019-8.78-.045s3.931-.044 8.78-.044c4.848 0 8.777.013 8.777.044Z" fill="#263238"/><path d="m27.284 44.738.39.792.873.127-.631.615.149.868-.781-.41-.78.41.148-.868-.63-.615.872-.127.39-.792ZM30.172 44.738l.39.792.872.127-.632.615.15.868-.78-.41-.782.41.15-.868-.632-.615.872-.127.392-.792ZM33.058 44.738l.39.792.873.127-.632.615.15.868-.781-.41-.78.41.148-.868-.63-.615.872-.127.39-.792ZM35.944 44.738l.391.792.872.127-.632.615.15.868-.781-.41-.78.41.15-.868-.632-.615.872-.127.39-.792Z" fill="#FC7387"/><path d="m38.832 44.738.39.792.874.127-.632.615.15.868-.782-.41-.78.41.148-.868-.63-.615.872-.127.39-.792ZM32.376 53.845c0 .026-1.348.045-3.011.045-1.664 0-3.012-.02-3.012-.045 0-.026 1.35-.045 3.012-.045s3.011.02 3.011.045Z" fill="#E0E0E0"/><path d="M52.343 54.812a4.931 4.931 0 1 0 0-9.862 4.931 4.931 0 0 0 0 9.862Z" fill="#273CFD"/><path d="M51.182 44.366c.104-.503.463-.77.939-.963a1.6 1.6 0 0 1 1.471.15c.287.193.515.483.849.576.544.154 1.146-.282 1.672-.072a.729.729 0 0 1-.265 1.408c.356.106.493.597.308.918a.968.968 0 0 1-.963.417 2.045 2.045 0 0 1-.991-.48c-.29-.232-.553-.498-.859-.706-.3-.224-.67-.336-1.045-.316-.5.057-.907.46-1.104.922a3.723 3.723 0 0 0-.217 1.482 6.17 6.17 0 0 1-.1 1.5c-.013.059-.035.122-.09.143-.08.03-.155-.052-.2-.124a7.383 7.383 0 0 1-1.004-2.692c-.089-.551-.105-1.078.172-1.564.276-.486 1.03-.874 1.425-.6" fill="#263238"/><path d="m50.35 46.747.071 5.639c.012.958.227 2.364 1.741 2.275 1.309-.172 1.626-1.427 1.613-2.322v-.822s1.433-.153 1.517-1.575c.041-.686.012-2.11-.03-3.396a2.651 2.651 0 0 0-2.526-2.56h-.138c-1.49.009-2.297 1.28-2.249 2.761Z" fill="#FFBE9D"/><path d="M53.77 51.496a3.31 3.31 0 0 1-1.83-.614s.39 1.044 1.817.984l.014-.37Z" fill="#EB996E"/><path d="M54.683 47.404a.204.204 0 0 1-.206.196.198.198 0 0 1-.185-.118.195.195 0 0 1-.016-.076.206.206 0 0 1 .206-.195.194.194 0 0 1 .185.118c.01.024.016.05.016.075Z" fill="#263238"/><path d="M54.916 47.232c-.027.024-.171-.096-.393-.107-.222-.01-.385.091-.407.064-.022-.028.017-.059.09-.107a.564.564 0 0 1 .326-.084.534.534 0 0 1 .312.119c.064.053.093.1.072.115ZM52.58 47.333a.201.201 0 0 1-.205.195.194.194 0 0 1-.185-.116.192.192 0 0 1-.016-.076.203.203 0 0 1 .205-.196.195.195 0 0 1 .141.053.192.192 0 0 1 .06.14Z" fill="#263238"/><path d="M52.765 47.17c-.026.024-.172-.096-.393-.107-.222-.01-.385.093-.407.064-.023-.03.017-.059.089-.107a.563.563 0 0 1 .326-.084.54.54 0 0 1 .313.119c.065.055.086.103.072.115ZM53.48 48.828c.118-.03.238-.046.36-.048.054 0 .11-.01.12-.048a.285.285 0 0 0-.03-.172l-.144-.432a7.478 7.478 0 0 1-.32-1.13c.166.356.303.724.41 1.102l.137.435a.32.32 0 0 1 .019.221.144.144 0 0 1-.096.078.49.49 0 0 1-.095.008c-.12.01-.241.005-.36-.014ZM53.822 49.473c-.017-.043-.291.142-.598.04-.306-.1-.415-.406-.455-.381-.04.024-.022.099.034.22.074.16.203.277.364.331a.628.628 0 0 0 .493-.051c.12-.067.171-.142.162-.16ZM52.849 46.82c-.026.058-.242.018-.5.037-.257.02-.468.08-.5.024-.015-.026.025-.08.11-.134a.849.849 0 0 1 .377-.111.86.86 0 0 1 .386.063c.093.043.137.093.127.12ZM54.865 46.595c-.04.048-.19-.012-.37-.023-.18-.01-.343.017-.369-.036-.013-.026.012-.074.083-.118a.536.536 0 0 1 .594.046c.062.055.08.107.062.13Z" fill="#263238"/><path d="M50.414 47.806c-.024-.012-.963-.334-.978.64-.016.973.966.787.968.76.002-.028.01-1.4.01-1.4Z" fill="#FFBE9D"/><path d="M50.112 48.831s-.017.012-.046.024a.171.171 0 0 1-.127 0 .425.425 0 0 1-.19-.38c0-.083.018-.166.052-.243a.198.198 0 0 1 .13-.127.086.086 0 0 1 .1.048c.012.028 0 .046.01.048.011.002.023-.015.014-.056a.106.106 0 0 0-.036-.062.134.134 0 0 0-.094-.026.233.233 0 0 0-.172.148.56.56 0 0 0-.063.27.443.443 0 0 0 .24.425.185.185 0 0 0 .156-.022c.024-.023.03-.045.026-.047Z" fill="#EB996E"/><path d="M55.57 46.267a2.059 2.059 0 0 1-1.806-.498c-.331-.311-.578-.745-1.006-.9a1.166 1.166 0 0 0-.89.079 2.24 2.24 0 0 0-.698.584c.24.736.017 1.535-.206 2.276a.381.381 0 0 1-.124.218.307.307 0 0 1-.383-.103 1.2 1.2 0 0 1-.233-.647 4.003 4.003 0 0 1 .084-1.578c.136-.516.418-.981.814-1.339a2.593 2.593 0 0 1 1.842-.597 3.176 3.176 0 0 1 1.801.745c.245.188.44.434.565.716" fill="#263238"/><path d="M59.434 7.237H22.942v14.387h36.492V7.237Z" fill="#F5F5F5"/><path d="M59.434 21.634V17.778c0-2.48-.01-6.073-.017-10.53l.031.03-36.49.014.045-.044v14.386l-.043-.043 26.16.019 7.593.012h2.738-2.71l-7.584.012-26.189.02h-.043V7.194h.047l36.462.018h.031v.03c0 4.465-.012 8.07-.017 10.55v3.588c0 .168-.014.254-.014.254Z" fill="#263238"/><path d="M43.636 14.625c0 .025-3.908.044-8.728.044s-8.727-.019-8.727-.044c0-.026 3.906-.045 8.727-.045 4.822 0 8.728.014 8.728.045ZM43.686 16.368c0 .026-3.93.045-8.777.045-4.847 0-8.78-.02-8.78-.045 0-.026 3.931-.045 8.78-.045 4.848 0 8.777.02 8.777.045Z" fill="#263238"/><path d="m27.284 9.567.39.791.873.127-.631.615.149.869-.781-.41-.78.41.148-.869-.63-.614.872-.128.39-.791ZM30.172 9.567l.39.791.872.127-.632.615.15.869-.78-.41-.782.41.15-.869-.632-.614.872-.128.392-.791ZM33.058 9.567l.39.791.873.127-.632.615.15.869-.781-.41-.78.41.148-.869-.63-.614.872-.128.39-.791ZM35.944 9.567l.391.791.872.127-.632.615.15.869-.781-.41-.78.41.15-.869-.632-.614.872-.128.39-.791ZM38.832 9.567l.39.791.874.127-.632.615.15.869-.782-.41-.78.41.148-.869-.63-.614.872-.128.39-.791Z" fill="#FC7387"/><path d="M32.376 18.674c0 .024-1.348.044-3.011.044-1.664 0-3.012-.02-3.012-.044 0-.024 1.35-.045 3.012-.045s3.011.02 3.011.044Z" fill="#E0E0E0"/><path d="M52.343 19.64a4.931 4.931 0 1 0 0-9.862 4.931 4.931 0 0 0 0 9.862Z" fill="#273CFD"/><path d="m49.875 11.316.386 6.181a1.815 1.815 0 0 0 3.625-.127c0-.755-.014-1.452-.014-1.452s1.422-.222 1.439-1.643c.008-.673-.086-2.049-.186-3.309a2.728 2.728 0 0 0-2.718-2.507h-.065a2.632 2.632 0 0 0-2.467 2.857Z" fill="#EB996E"/><path d="M53.876 15.903a3.316 3.316 0 0 1-1.858-.527s.44 1.03 1.856.894l.002-.367Z" fill="#D1734A"/><path d="M54.793 11.881c-.026.028-.172-.087-.399-.085-.226.001-.377.11-.401.082-.024-.027.013-.06.084-.11a.552.552 0 0 1 .637.003c.068.052.09.098.079.11ZM52.667 11.881c-.026.028-.172-.085-.397-.085-.225 0-.38.11-.403.082-.024-.027.014-.058.084-.11a.554.554 0 0 1 .639.003c.067.052.089.098.077.11ZM53.46 13.254c.115-.035.234-.056.354-.063.057 0 .108-.017.119-.055a.277.277 0 0 0-.038-.172 8.466 8.466 0 0 0-.172-.424 7.48 7.48 0 0 1-.37-1.11c.182.346.335.706.46 1.077.054.15.108.29.157.428a.328.328 0 0 1 .03.218.148.148 0 0 1-.093.082.401.401 0 0 1-.095.012c-.116.018-.234.02-.351.007ZM52.724 10.78c-.023.059-.24.031-.497.062-.255.031-.463.102-.498.048-.013-.025.023-.082.105-.139a.816.816 0 0 1 .37-.128.826.826 0 0 1 .387.044c.095.038.141.084.133.114ZM54.733 10.963c-.038.05-.188 0-.37 0s-.333.032-.369-.02c-.036-.05.009-.075.076-.121a.516.516 0 0 1 .3-.08c.107 0 .21.035.296.099.063.048.084.098.067.122ZM51.419 9.76a1.125 1.125 0 0 0-.431.727v.03c-.055.405-.047.817-.105 1.222-.04.41-.215.796-.5 1.095-.123.116-.343.194-.44.059a.343.343 0 0 1-.052-.186c-.076-.978-.344-1.847-.344-2.87a.869.869 0 0 1 .36-.703c.214-.152.475-.312.714-.199.238.114.545.558.73.747" fill="#263238"/><path d="M50.354 11.96c-.024-.01-.975-.29-.944.687.03.977.999.74 1 .713.002-.028-.056-1.4-.056-1.4Z" fill="#EB996E"/><path d="M50.102 12.995s-.017.013-.045.028a.171.171 0 0 1-.127 0 .419.419 0 0 1-.206-.37.561.561 0 0 1 .04-.243.195.195 0 0 1 .123-.134.085.085 0 0 1 .102.043c.013.027 0 .046.013.048.014.002.021-.017.012-.057a.115.115 0 0 0-.04-.06.132.132 0 0 0-.095-.02.236.236 0 0 0-.172.156.56.56 0 0 0-.05.271.438.438 0 0 0 .261.412.17.17 0 0 0 .153-.03c.03-.02.034-.042.031-.043Z" fill="#D1734A"/><path d="M50.593 9.084c-.24-.388.416-.946.895-1.097.479-.151 1.112.082 1.588.24.302.1.603.24.919.227.212-.021.42-.074.616-.156.197-.084.408-.126.622-.124a.585.585 0 0 1 .515.324.368.368 0 0 1-.246.497.477.477 0 1 1 .127.884c.138-.105.343.067.333.24a.502.502 0 0 1-.338.368c-.42.153-.882.146-1.296-.02-.42-.142-.809-.362-1.225-.516-.415-.155-1.112-.424-1.53-.276-.307.108-.514.479-.686.396a.59.59 0 0 1-.307-.436 1.669 1.669 0 0 1 .019-.554" fill="#263238"/><path d="M55.624 8.968c-.009 0-.05.072-.155.185-.15.157-.334.275-.54.344a1.23 1.23 0 0 1-.926-.036c-.33-.15-.613-.445-.94-.725a2.009 2.009 0 0 0-1.091-.515 1.123 1.123 0 0 0-.93.321.848.848 0 0 0-.226.623.69.69 0 0 0 .041.172c.017.038.03.057.033.055a1.326 1.326 0 0 1-.036-.235c0-.213.083-.418.23-.572a1.067 1.067 0 0 1 .87-.28c.39.064.753.243 1.04.515.319.273.61.577.964.732a1.317 1.317 0 0 0 1.53-.368.786.786 0 0 0 .101-.15c.02-.044.035-.064.035-.066ZM50.107 11.917s.043-.027.08-.105a.65.65 0 0 0 .047-.343c-.02-.313-.299-.65-.333-1.08a.962.962 0 0 1 .108-.58.731.731 0 0 1 .36-.313.658.658 0 0 1 .325-.044c.04.011.082.02.124.024 0 0-.034-.035-.117-.06a.613.613 0 0 0-.355.017.781.781 0 0 0-.414.331 1.03 1.03 0 0 0-.127.634c.026.213.089.42.187.61.078.15.136.307.172.471a.74.74 0 0 1-.057.438Z" fill="#455A64"/><path d="M52.724 13.523c.034.214.14.41.3.556a.598.598 0 0 0 .608.108.984.984 0 0 0 .39-.4l-1.298-.264Z" fill="#fff"/><path d="M59.435 24.662H22.943v14.386h36.492V24.662Z" fill="#F5F5F5"/><path d="M59.435 39.047V35.192c0-2.481-.01-6.073-.017-10.53l.031.03-36.49.015.044-.045v14.385l-.043-.043 26.16.02 7.594.012h2.738-2.711l-7.583.012-26.19.02h-.042V24.598h.046l36.49.012h.032v.032c0 4.464-.012 8.07-.017 10.55v3.586c0 .166-.042.27-.042.27Z" fill="#263238"/><path d="M43.636 32.33c0 .024-3.908.045-8.728.045s-8.727-.02-8.727-.045c0-.024 3.906-.044 8.727-.044 4.822 0 8.728.018 8.728.044ZM43.686 34.071c0 .026-3.93.045-8.777.045-4.847 0-8.78-.02-8.78-.045 0-.026 3.931-.045 8.78-.045 4.848 0 8.777.021 8.777.045Z" fill="#263238"/><path d="m27.284 27.271.39.79.873.127-.631.615.149.869-.781-.409-.78.409.148-.869-.63-.615.872-.127.39-.79ZM30.172 27.271l.39.79.872.127-.632.615.15.869-.78-.409-.782.409.15-.869-.632-.615.872-.127.392-.79ZM33.058 27.271l.39.79.873.127-.632.615.15.869-.781-.409-.78.409.148-.869-.63-.615.872-.127.39-.79ZM35.944 27.271l.391.79.872.127-.632.615.15.869-.781-.409-.78.409.15-.869-.632-.615.872-.127.39-.79Z" fill="#FC7387"/><path d="m38.832 27.271.39.79.874.127-.632.615.15.869-.782-.409-.78.409.148-.869-.63-.615.872-.127.39-.79ZM32.376 36.377c0 .026-1.348.045-3.011.045-1.664 0-3.012-.02-3.012-.045 0-.026 1.35-.044 3.012-.044s3.011.02 3.011.044Z" fill="#E0E0E0"/><path d="M57.146 33.533a4.931 4.931 0 1 0-9.604-2.239 4.931 4.931 0 0 0 9.604 2.24Z" fill="#273CFD"/><path d="M57.42 31.805c-.135-.108-.325-.122-.462-.227-.285-.213-.203-.649-.265-.997-.065-.382-.324-.696-.53-1.03-.206-.335-.445-.802-.292-1.158l-2.775 5.087h4.353s.132-.8.154-1.03c.023-.23 0-.5-.184-.645Z" fill="#263238"/><path d="M51.654 26.752c.134-.409.58-.64 1.008-.687.427-.047.637.123 1.057.029.58-.13.914-.326 1.297-.264.415.039.803.225 1.093.525.229.263.237.883.141 1.22-.086.305-.324.557-.388.87-.063.312.04.583.103.872.193.867.043 1.837-.53 2.513-.574.677-1.609.976-2.404.577" fill="#263238"/><path d="m54.01 35.168-.024-1.265s1.258-.186 1.545-1.819c.144-.81.127-2.146.077-3.238-.045-.982-1.085-1.981-2.06-1.888l-3.184.547v.527l.088 7.198a1.779 1.779 0 1 0 3.558-.062Z" fill="#A36957"/><path d="M55.066 29.842a.21.21 0 0 1-.208.208.202.202 0 0 1-.213-.192.211.211 0 0 1 .206-.21.203.203 0 0 1 .215.194ZM55.307 29.532c-.025.027-.183-.093-.408-.097-.225-.003-.393.107-.417.08-.024-.028.015-.062.087-.114a.57.57 0 0 1 .335-.096c.118.002.232.04.326.112.067.056.091.115.078.115ZM52.877 29.805a.21.21 0 0 1-.207.207.202.202 0 0 1-.212-.192.211.211 0 0 1 .206-.21.202.202 0 0 1 .212.195ZM53.088 29.531c-.028.028-.184-.092-.41-.096-.227-.003-.393.107-.417.077-.025-.029.015-.06.089-.111.099-.066.216-.1.334-.098.118.002.231.041.325.111.069.062.091.117.079.117ZM53.877 31.228c.12-.036.243-.056.368-.06.058 0 .113-.016.124-.055a.296.296 0 0 0-.036-.172l-.164-.441a7.618 7.618 0 0 1-.362-1.156c.181.362.333.737.455 1.123.053.156.107.304.155.445.034.07.044.15.027.227a.154.154 0 0 1-.098.084.344.344 0 0 1-.098.01 1.53 1.53 0 0 1-.37-.005Z" fill="#263238"/><path d="M53.986 33.903a4.16 4.16 0 0 1-2.181-.623s.515 1.133 2.151 1.01l.03-.387ZM53.771 31.764a.41.41 0 0 0-.504-.118.367.367 0 0 0-.116.094.232.232 0 0 0-.022.267.27.27 0 0 0 .294.081.87.87 0 0 0 .357-.239.076.076 0 0 0 0-.084" fill="#7C3B29"/><path d="M53.21 31.373c.036 0 .032.243.24.42s.467.157.469.19c.001.035-.059.047-.172.049a.613.613 0 0 1-.392-.144.539.539 0 0 1-.185-.354c-.005-.103.022-.163.04-.161ZM53.162 28.654c-.024.062-.25.028-.515.055-.267.028-.483.096-.516.041-.013-.027.024-.084.112-.142a.859.859 0 0 1 .383-.127.858.858 0 0 1 .4.055c.098.041.146.09.136.118ZM55.236 28.88c-.04.05-.194 0-.382-.011-.187-.012-.343.029-.38-.026-.018-.026.01-.077.078-.124a.516.516 0 0 1 .313-.079c.11.005.216.043.304.109.065.055.086.108.067.132Z" fill="#263238"/><path d="M52.252 26.165a2.28 2.28 0 0 1-.804 3.181 1.28 1.28 0 0 0-.5.371c-.14.225-.08.515-.054.781a2.729 2.729 0 0 1-.627 2.006c-.313-.608-.627-1.224-.764-1.889a6.456 6.456 0 0 0-.217-1.011c-.072-.193-.18-.371-.243-.567a1.8 1.8 0 0 1 .048-1.107 2.615 2.615 0 0 1 3.296-1.64" fill="#263238"/><path d="M49.407 27.3c-.737 1.078-.378 1.78-.665 2.333-.206.4-.687.56-1.03.858-.464.4-.652 1.05-.635 1.662.017.613.214 1.202.41 1.786l3.961.019c.306-.965-.46-2.01-.215-2.993.085-.343.284-.646.296-.99-.01-.231-.05-.459-.12-.679a3.05 3.05 0 0 1 .183-1.9" fill="#263238"/><path d="M56.254 26.824s-.026-.051-.09-.134a.94.94 0 0 0-.343-.26 1.374 1.374 0 0 0-.63-.116c-.265.02-.526.078-.774.172-.268.093-.515.194-.764.252a1.961 1.961 0 0 1-.656.059 1.166 1.166 0 0 1-.428-.12.876.876 0 0 1-.135-.091s.05.03.142.075c.133.06.276.096.422.105.217.014.435-.01.644-.067.239-.06.491-.162.76-.256.253-.095.518-.153.787-.172.223-.01.444.034.646.127.136.064.254.16.343.28a.702.702 0 0 1 .076.146ZM55.682 29.595l.036.026a.582.582 0 0 1 .093.093c.095.13.154.282.172.442.016.11.024.22.024.33v.376c-.002.137.014.275.046.409.034.141.107.27.211.372.116.091.242.17.374.235a.77.77 0 0 1 .303.296c.106.216.132.464.072.698a2.347 2.347 0 0 1-.162.45 4.208 4.208 0 0 1-.079.156s0-.015.016-.043c.015-.027.029-.072.048-.12.062-.145.11-.295.146-.45a1.08 1.08 0 0 0 .022-.32.724.724 0 0 0-.388-.628 2.147 2.147 0 0 1-.381-.243.778.778 0 0 1-.223-.393 1.79 1.79 0 0 1-.047-.42c0-.131 0-.258.009-.375a2.144 2.144 0 0 0-.019-.326.925.925 0 0 0-.158-.436c-.067-.09-.118-.124-.115-.13ZM48.941 33.785l-.012-.02c-.012-.022-.017-.035-.029-.063a2.405 2.405 0 0 1-.189-.654 1.828 1.828 0 0 1 0-.554 1.49 1.49 0 0 1 .25-.622 2.67 2.67 0 0 1 .57-.515c.109-.082.209-.176.296-.282a.949.949 0 0 0 .182-.379c.05-.297.035-.602-.041-.893-.08-.295-.124-.6-.127-.906a1.2 1.2 0 0 1 .096-.428c.06-.129.144-.245.247-.343a2.07 2.07 0 0 1 .658-.4c.221-.093.434-.172.62-.251.168-.072.326-.166.468-.28.107-.087.199-.192.272-.309a.889.889 0 0 0 .104-.239c.016-.058.02-.089.021-.089a.499.499 0 0 1-.012.091.874.874 0 0 1-.098.246c-.072.12-.163.229-.271.319a2.013 2.013 0 0 1-.472.29c-.186.086-.399.162-.618.254a2.089 2.089 0 0 0-.644.397 1.03 1.03 0 0 0-.327.743c.004.302.046.602.126.893.079.298.092.61.04.913a.971.971 0 0 1-.191.395c-.09.108-.192.205-.304.289a2.67 2.67 0 0 0-.565.515 1.48 1.48 0 0 0-.25.606c-.049.318-.023.643.077.95.032.11.063.192.085.248l.026.064a.177.177 0 0 1 .012.014Z" fill="#455A64"/><path d="M52.289 26.556h-.105c-.068 0-.171-.017-.302-.022-.37-.021-.74.02-1.095.12-.248.073-.48.19-.687.343a1.775 1.775 0 0 0-.546.668c-.119.3-.17.624-.15.946.024.349.012.7-.036 1.046-.03.177-.093.348-.185.503-.094.148-.22.274-.367.369-.285.189-.596.302-.831.501-.222.19-.371.451-.423.738-.048.25-.042.508.017.756.05.204.126.402.225.587.074.141.156.277.246.409.074.108.134.19.172.245l.046.064c.008.015.014.022.014.024l-.02-.02-.049-.06c-.041-.056-.105-.136-.172-.245a3.896 3.896 0 0 1-.254-.405 2.518 2.518 0 0 1-.232-.592 1.79 1.79 0 0 1-.022-.77c.051-.296.204-.566.431-.763.242-.205.555-.32.833-.505.142-.091.263-.213.353-.356.09-.15.15-.315.18-.487.046-.342.058-.687.037-1.03-.02-.329.034-.658.156-.964.126-.272.32-.508.561-.686.207-.154.44-.27.687-.344.36-.099.734-.135 1.106-.108.13 0 .232.02.3.03l.08.011.032-.003Z" fill="#455A64"/><path d="M50.201 33.956c.096-.049.183-.112.26-.187.086-.091.157-.196.209-.311.066-.152.106-.315.117-.48a1.906 1.906 0 0 0-.059-.6 6.579 6.579 0 0 0-.214-.663 5.26 5.26 0 0 1-.23-.74 1.84 1.84 0 0 1 0-.833c.035-.138.093-.269.171-.388.08-.112.17-.216.272-.31.199-.184.413-.33.61-.48.19-.133.363-.291.514-.468.128-.156.231-.33.307-.515.112-.273.166-.565.16-.859 0-.051 0-.098-.008-.137a.748.748 0 0 0-.01-.101l-.01-.062v-.02c.026.105.041.212.045.32a2.087 2.087 0 0 1-.455 1.39c-.15.18-.324.34-.515.478-.196.152-.41.297-.604.48a1.876 1.876 0 0 0-.265.303c-.078.114-.136.241-.171.375a1.777 1.777 0 0 0 0 .812 5.4 5.4 0 0 0 .225.735c.083.218.154.44.21.667.052.2.07.405.056.61-.013.17-.056.335-.126.49a1.105 1.105 0 0 1-.22.312.804.804 0 0 1-.193.142l-.057.026-.019.014Z" fill="#455A64"/><path d="M52.46 27.261c.418.294.882.6 1.392.564.299-.05.59-.137.869-.258.288-.096.623-.14.88.019.172-.014.246-.24.172-.392a.65.65 0 0 0-.397-.285c-.916-.312-1.832.042-2.862.108" fill="#263238"/><path d="M56.216 27.53a.531.531 0 0 0 .034-.172.442.442 0 0 0-.216-.373.616.616 0 0 0-.295-.087.897.897 0 0 0-.352.058c-.242.08-.472.256-.752.372-.135.06-.276.1-.42.124a1.86 1.86 0 0 1-.41.03 1.967 1.967 0 0 1-1.085-.356 1.09 1.09 0 0 1-.13-.11 2.3 2.3 0 0 0 .551.302c.34.124.708.156 1.065.093.14-.025.28-.066.412-.122.273-.115.504-.29.755-.373a.973.973 0 0 1 .37-.056c.109.006.215.04.308.098a.467.467 0 0 1 .211.401.345.345 0 0 1-.029.124.13.13 0 0 1-.017.046Z" fill="#455A64"/><path d="M75.848 35.407a1.857 1.857 0 0 0 2.354-1.835c-.012-.54-.256-1.089-.088-1.6.115-.352.41-.627.515-.984.148-.532-.172-1.071-.482-1.53a3.56 3.56 0 0 0-.673-.819 1.221 1.221 0 0 0-.988-.292M70.874 28.395c.03.407-.239.771-.515 1.077-.277.306-.574.623-.632 1.03-.103.716.597 1.374.453 2.09-.077.38-.388.687-.445 1.068-.056.38.146.735.394 1.018.247.283.545.515.763.822 0 0 .454.745 1.853.268" fill="#14181B"/><path d="M77.13 29.017c.01-.37-.33-.654-.675-.788-.345-.134-.724-.187-1.03-.393-.271-.182-.453-.467-.686-.7a2.273 2.273 0 0 0-3.823 1.043c-.132.525-.042 1.147.373 1.495.48.407 1.193.316 1.81.191.616-.125 1.313-.25 1.828.11.311.22.488.573.678.903.191.33.428.663.787.786.359.124.845-.089.858-.468" fill="#14181B"/><path d="M75.674 29.095a.615.615 0 0 1 .553.626l-.367 8.343c-.016.986-1.456 1.545-2.51 1.514-1.067-.024-1.101-.547-1.115-1.485-.022-1.566-.019-2.153-.02-2.144-.002.008-1.347-.227-1.621-1.983-.136-.874-.09-2.306-.012-3.477.068-1.053.769-2.344 1.818-2.232l3.274.838Z" fill="#FFBE9D"/><path d="M70.904 31.555a.227.227 0 0 0 .218.228.218.218 0 0 0 .21-.12.216.216 0 0 0 .022-.082.224.224 0 0 0-.216-.229.216.216 0 0 0-.234.203ZM70.89 31.12c.027.03.197-.096.439-.094.242.001.42.122.446.092.026-.029-.015-.065-.093-.122a.616.616 0 0 0-.357-.111.573.573 0 0 0-.343.113c-.077.057-.106.11-.093.122ZM73.326 31.627a.224.224 0 0 0 .216.229.216.216 0 0 0 .233-.203.226.226 0 0 0-.218-.229.215.215 0 0 0-.231.203ZM73.27 31.285c.028.03.2-.096.442-.094.242.001.42.122.446.092.026-.029-.015-.067-.093-.123a.622.622 0 0 0-.709.001c-.074.057-.1.11-.086.124ZM72.386 33.081a1.543 1.543 0 0 0-.393-.072c-.062 0-.12-.019-.13-.062a.33.33 0 0 1 .04-.183l.186-.47c.17-.4.308-.811.414-1.232-.028-.01-.258.525-.515 1.202-.06.172-.12.323-.172.474a.344.344 0 0 0-.033.242.152.152 0 0 0 .102.091c.034.01.069.015.105.015.131.015.265.014.396-.005Z" fill="#263238"/><path d="M72.213 35.948c.827.015 1.642-.2 2.354-.621 0 0-.596 1.202-2.354 1.03v-.409ZM72.487 33.664a.436.436 0 0 1 .546-.114c.047.026.089.06.122.103a.252.252 0 0 1 .02.288.295.295 0 0 1-.32.079.923.923 0 0 1-.378-.258.084.084 0 0 1 0-.089" fill="#EB996E"/><path d="M73.162 30.86c.024.066.266.035.55.071.283.036.515.112.552.053.018-.027-.022-.09-.115-.154a.963.963 0 0 0-.84-.096c-.104.043-.157.094-.147.127ZM70.978 30.534c.043.054.21 0 .41 0 .202 0 .372.037.411-.021.017-.028 0-.083-.084-.134a.546.546 0 0 0-.333-.091.564.564 0 0 0-.328.11c-.07.053-.094.108-.076.136Z" fill="#263238"/><path d="M76.902 34.872a1.56 1.56 0 0 1-1.856-1.717c.055-.43.286-.869.137-1.277-.197-.541-.955-.706-1.155-1.245-.117-.313-.012-.687-.145-.986-.132-.298-.427-.455-.722-.561-.296-.107-.612-.172-.859-.374-.247-.203-.402-.557-.242-.826 1.312.157 2.6.47 3.837.932.287.106.587.235.757.49.17.253.172.617.157.942l-.222 4.73" fill="#14181B"/><path d="M77.83 29.165c.016.02.026.046.028.072a.268.268 0 0 1-.067.211.441.441 0 0 1-.314.16 1.01 1.01 0 0 1-.445-.134 1.263 1.263 0 0 0-.515-.15 2.64 2.64 0 0 0-.62.056 4.19 4.19 0 0 1-.702.089 1.01 1.01 0 0 1-.717-.26 2.098 2.098 0 0 1-.416-.643 3.105 3.105 0 0 0-.335-.603.98.98 0 0 0-1.013-.37 1.03 1.03 0 0 0-.61.453c-.05.083-.093.17-.13.259a.192.192 0 0 1 .012-.076 1.032 1.032 0 0 1 .71-.699 1.03 1.03 0 0 1 .566.01c.211.066.397.195.532.37.137.192.252.4.344.616.094.227.228.436.396.615.18.163.416.249.658.239.23-.01.46-.037.687-.083.21-.042.424-.059.638-.05.19.017.372.076.536.172.126.077.268.125.416.141a.415.415 0 0 0 .288-.13.26.26 0 0 0 .077-.188c.004-.053-.01-.075-.005-.077Z" fill="#455A64"/><path d="M76.845 28.66a1.29 1.29 0 0 1 .064-2.526.78.78 0 0 1 .77.242c.162.218.151.546.356.725.204.178.556.108.841.171a.954.954 0 0 1 .687 1.03 1.294 1.294 0 0 1-.812 1.002 2.038 2.038 0 0 1-1.326.025 4.982 4.982 0 0 1-1.212-.589" fill="#14181B"/><path d="M78.957 27.391a.804.804 0 0 1-.129.321 1.801 1.801 0 0 1-1.386.859.789.789 0 0 1-.343-.026c0-.016.132 0 .343-.038a2.06 2.06 0 0 0 .756-.28 2.02 2.02 0 0 0 .582-.554c.054-.097.113-.191.177-.282Z" fill="#455A64"/><path d="M78.026 29.333a2.768 2.768 0 0 0-1.888-1.082.835.835 0 0 1 .334 0 2.183 2.183 0 0 1 1.378.792c.078.083.139.182.176.29Z" fill="#FF725E"/><path d="M73.324 33.45a1.101 1.101 0 0 1-.44.355c-.16.104-.344.168-.534.187.157-.101.32-.19.491-.266.156-.101.317-.193.483-.276Z" fill="#263238"/><path d="M77.862 29.13a.186.186 0 0 1 .065-.023c.064-.02.128-.034.194-.043.243-.037.49-.028.73.024.168.034.33.095.479.18a.295.295 0 0 1 .137.273.232.232 0 0 1-.09.148.402.402 0 0 1-.152.065 1.067 1.067 0 0 1-.321 0 2.448 2.448 0 0 1-.652-.156.687.687 0 0 1-.297-.217.468.468 0 0 1-.07-.362c.02-.118.05-.223.076-.331.047-.212.126-.415.234-.603a.405.405 0 0 1 .256-.192.25.25 0 0 1 .278.127.385.385 0 0 1-.014.281 1.738 1.738 0 0 1-.77.873c-.042.018-.064.029-.066.025-.002-.003.08-.051.213-.158a1.815 1.815 0 0 0 .55-.76.316.316 0 0 0 .011-.227.172.172 0 0 0-.197-.079.323.323 0 0 0-.201.158 2.23 2.23 0 0 0-.218.579c-.043.21-.148.448-.017.621.154.154.354.254.57.285.103.025.208.044.314.055.098.014.197.014.295 0 .093-.017.172-.067.182-.144a.226.226 0 0 0-.103-.2 1.543 1.543 0 0 0-.45-.173 2.193 2.193 0 0 0-.712-.051c-.16.01-.252.034-.254.026Z" fill="#FF725E"/><path d="M76.055 28.159s0 .019-.024.051a.53.53 0 0 1-.113.12.77.77 0 0 1-.58.13 1.463 1.463 0 0 1-.761-.454c-.239-.232-.459-.53-.781-.714a1.386 1.386 0 0 0-1.008-.127 1.32 1.32 0 0 0-.704.455 1.445 1.445 0 0 0-.268.515c-.038.132-.046.21-.053.21-.007 0 0-.021 0-.057a.936.936 0 0 1 .022-.162 1.4 1.4 0 0 1 .984-1.039c.361-.096.746-.05 1.073.131.343.197.567.505.797.733.187.218.435.374.712.448a.742.742 0 0 0 .55-.094 1.03 1.03 0 0 0 .154-.146Z" fill="#455A64"/><path d="M69.349 39.27s-1.236.777-1.382 2.71c-.146 1.933-.57 5.968-.57 5.968l-4.717 1.157.526 2.83 7.78-2.17L69.35 39.27Z" fill="#30D4FE"/><path d="m76.028 37.024.771.878s2.007.475 2.443.663c.436.187-.687 4.292-.687 4.292l.172 8.439a1.062 1.062 0 0 1-1.159 1.08l-7.625-.678-.656-9.521.066-2.908 1.818-.629 1.05-1.04.833 1.866 2.974-2.442Z" fill="#30D4FE"/><path d="M79.242 38.565s1.554.596 1.686 2.94c.087 1.545.628 4.177.989 5.796a3.489 3.489 0 0 1-.472 2.647 3.498 3.498 0 0 1-2.79 1.606l-3.304.146-1.394-2.22 3.704-1.079.879-5.341.702-4.495Z" fill="#30D4FE"/><path d="M79.91 49.68a2.332 2.332 0 0 1-.046-.256 3.106 3.106 0 0 0-.196-.676c-.131-.321-.35-.598-.632-.8a1.332 1.332 0 0 0-.553-.227 1.844 1.844 0 0 0-.647.031c-.763.161-1.516.368-2.255.618l-.673.229a1.547 1.547 0 0 1-.252.072c.077-.043.157-.078.24-.105l.663-.256a16.786 16.786 0 0 1 2.26-.647c.225-.05.458-.06.686-.03.212.038.412.122.586.248.291.212.515.505.642.843.087.223.145.457.172.695a.975.975 0 0 1 .005.261ZM77.822 43.069a.604.604 0 0 1 .028.171c.012.112.022.275.032.476.02.422.045.965.07 1.564.025.518.082 1.035.172 1.545.076.392.157.627.141.632a.64.64 0 0 1-.069-.161 1.461 1.461 0 0 1-.063-.196 4.35 4.35 0 0 1-.07-.262 9.29 9.29 0 0 1-.201-1.558c-.033-.613-.038-1.167-.043-1.567v-.476a.687.687 0 0 1 .003-.168ZM81.117 50.501c-.052.063-.11.12-.172.172-.17.148-.353.281-.546.4-.643.39-1.37.618-2.12.666a4.446 4.446 0 0 1-1.231-.093c-.373-.079-.687-.213-.962-.276a4.377 4.377 0 0 0-.664-.093.884.884 0 0 1-.244-.05s.09 0 .247.016c.227 0 .453.022.675.065.283.058.6.185.965.258.395.08.8.109 1.202.084a4.858 4.858 0 0 0 2.094-.632c.26-.16.513-.332.756-.517ZM76.756 45.961a1.2 1.2 0 0 1-.146.191c-.14.167-.288.326-.445.477-.231.227-.475.44-.731.637-.317.24-.648.459-.993.656a9.097 9.097 0 0 1-1.073.515c-.302.117-.61.217-.923.297-.21.057-.424.101-.64.134a1.268 1.268 0 0 1-.238.028 1.2 1.2 0 0 1 .232-.062c.15-.031.366-.084.628-.16a9.24 9.24 0 0 0 .91-.314c.364-.151.718-.323 1.061-.515.34-.196.67-.41.986-.644.287-.22.537-.43.738-.616.201-.188.357-.344.462-.457.052-.061.11-.117.172-.167Z" fill="#263238"/><path opacity=".2" d="M72.043 48.731c-.213-.171-.083-.55.16-.687.242-.137.533-.102.808-.11a3.091 3.091 0 0 0 1.879-.703c.39-.323.74-.763 1.24-.83-.114.41-.609.81-.957 1.056-1.011.715-2.126.982-3.3 1.39" fill="#000"/><path d="M76.629 37.998a.704.704 0 0 1-.119.128c-.08.077-.197.185-.343.319-.294.268-.703.632-1.156 1.03-.206.2-.437.373-.686.515-.115.06-.24.097-.368.113a.803.803 0 0 1-.333-.039.623.623 0 0 1-.37-.297.343.343 0 0 1-.042-.124.139.139 0 0 1 0-.046c.008 0 .017.062.072.153a.613.613 0 0 0 .36.254.78.78 0 0 0 .308.026c.12-.018.236-.056.343-.114a3.54 3.54 0 0 0 .666-.515c.455-.398.87-.755 1.175-1.011.15-.127.275-.228.362-.297a.692.692 0 0 1 .13-.095ZM72.824 39.552a.89.89 0 0 1-.25.297c-.105.093-.22.173-.344.237a.345.345 0 0 1-.268.05.393.393 0 0 1-.187-.223 28.353 28.353 0 0 1-.378-.847 1.522 1.522 0 0 1-.134-.36c.077.103.14.216.191.334.107.212.25.516.404.835.035.08.077.158.135.172a.266.266 0 0 0 .201-.043c.121-.06.236-.13.343-.213.182-.13.275-.25.287-.239ZM72.836 43.366c-.024 0 0-.87.053-1.942s.119-1.94.143-1.939c.024.002 0 .87-.053 1.942-.054 1.072-.119 1.94-.143 1.939ZM69.55 42.97c-.06-.356-.06-.72 0-1.076.06.356.06.72 0 1.077Z" fill="#263238"/><path d="M76.237 39.605c.005.004.01.007.016.009a.019.019 0 0 0-.016-.009Z" fill="#FBFBFB"/><path d="M76.538 39.688c.015 0 0 0 .017.01s.022 0 .027 0c.006 0 0 0 0 0h.01c.011 0 0 0 0 0h.011c.057.012.114.02.172.026h-.014.014c.003 0 .015 0 .019.013h.068c.009 0 0 0 0 0H76.888c-.005 0 .014 0 0 0h.057-.009a.1.1 0 0 0 .033 0 .944.944 0 0 0 .101-.017h.012v.014h.172c.008 0 0 .008 0 .008h.014c.013 0 0 0 0 0v-.012h-.01s0-.01.017-.008h.06-.009.009s.032 0 .044-.01c.012-.01.012-.146.012-.157h.009-.024.013-.015c-.003 0 0 0 0 0a.028.028 0 0 1-.017 0c-.014 0-.02.009-.034 0H77.3c-.008 0 0 0 0 0h-.024l-.197.01h-.21a.07.07 0 0 0-.027 0h-.03a1.092 1.092 0 0 1-.171-.023h-.046c-.016 0-.1-.021-.117-.023-.016 0-.012 0-.024-.01s-.014.008-.02 0a.133.133 0 0 1-.037 0 .114.114 0 0 1-.038 0 .23.23 0 0 0-.063-.019l-.012-.015s-.059.12-.035.154h.01-.01.014c.004 0 0 0 .009.009.045.016.09.03.137.04h.041c.03 0 .059.004.088.01ZM76.335 40.332h.01a.01.01 0 0 0-.005-.001.01.01 0 0 0-.005.001ZM76.555 40.388c.01 0 0 .009.012 0 .012-.008.015 0 .019 0 .003 0 0 0 0 0 .04.007.082.01.124.01h-.012.01c.002 0 .012 0 .015.012h.048c.005 0 0 0 0 0h.02c-.004 0 .01 0 0 0h.033a.038.038 0 0 0 .025 0c.01 0 .061-.015.07-.024h.008v.014l.12-.017v.008h.011c.01 0 0 0 0 0v-.01h.027s0-.01.013-.01h.042s.023 0 .031-.014c.009-.014-.015-.144-.017-.154h.009-.02c-.011 0-.015.01-.025 0h-.015c-.007 0 0 0 0 0h-.016c-.024 0-.111.024-.135.025-.035 0-.107.01-.143.018h-.02c-.007 0 0 0 0 0h-.02c-.04.002-.08 0-.12-.009h-.032c-.01 0-.069-.01-.08-.01h-.018c-.007 0-.01.008-.014.008a.111.111 0 0 1-.026 0h-.025c-.005 0-.03-.015-.045-.014l-.009-.011s-.048.123-.032.156c0 0 .008 0 0 0h.012c.012 0 0 0 0 0a.48.48 0 0 0 .101.026h.03a.29.29 0 0 1 .044-.004ZM76.069 41.495a.012.012 0 0 0 .006.002c.002 0 .004 0 .006-.002a.017.017 0 0 0-.006 0h-.006Z" fill="#FBFBFB"/><path d="M76.308 41.5h.033c.004 0 0 0 0 0h.131-.012.01c.011 0 .013 0 .016.013h.026c.026 0 .017-.01.024 0 .007.01 0 0 0 0H76.554c-.003 0 .011 0 0 0h.035a.061.061 0 0 0 .024 0c.01 0 .065-.014.076-.023v.016c0-.002.113-.01.129-.009v.009h.01c.01 0 0 0 0 0v-.012h.008s0-.01.014 0h.045s.024 0 .034-.009a.772.772 0 0 0 .012-.154h-.019.012-.013c-.004 0 0 0 0 0a.019.019 0 0 1-.014 0h-.045c-.007 0 0 0 0 0h-.019c-.027 0-.134.012-.161.013-.041 0-.127.009-.172.017a.038.038 0 0 0-.024 0h-.022a.95.95 0 0 1-.14 0h-.153c-.011 0-.01.01-.015.013a.103.103 0 0 1-.029.008h-.029a.119.119 0 0 0-.055 0l-.012-.01s-.012.132.014.16h.012c.003 0 0 0 0 0h.11a.2.2 0 0 1 .03 0 .2.2 0 0 1 .11-.031ZM76.227 42.56l.005.002c.002 0 .004 0 .006-.002h-.01Z" fill="#FBFBFB"/><path d="M76.428 42.54h.029c.004 0 0 0 0 0s.093-.012.11-.018c.017-.005 0 0-.01 0 0 0 .012 0 .017.01.019-.008 0 0 .022 0 .023 0 .014-.01.021-.008.007.002 0 0 0 0h.009c.008 0 .01 0 0-.008-.01-.01.01 0 0 0h.03a.044.044 0 0 0 .021-.01c.009 0 .053-.02.06-.03v.014c0-.002.095-.02.11-.02.016 0 0 0 0 0h.009c.008 0 0 0 0 0v-.013h.008s0-.01.01-.01h.038s.02 0 .028-.012a.772.772 0 0 0-.012-.155h.008-.022c-.01 0-.014.01-.024 0h-.016c-.005 0 0 0 0 0h-.017c-.022 0-.111.026-.133.031-.047.01-.094.02-.14.035a.045.045 0 0 0-.02 0l-.017.008a.728.728 0 0 1-.119.017c-.008.009-.022 0-.03.012a.473.473 0 0 0-.081.014h-.018c-.008 0 0 .012-.01.014l-.024.014a.094.094 0 0 1-.026.008.083.083 0 0 0-.044 0l-.012-.008s0 .13.034.154h.008a.833.833 0 0 0 .095-.012h.026a.221.221 0 0 1 .082-.028ZM76.124 43.637h.01a.016.016 0 0 0-.01 0Z" fill="#FBFBFB"/><path d="M76.325 43.632h.029c.002 0 0 0 0 0a.774.774 0 0 0 .11 0h-.01c-.01 0 0 0 0 0s.01 0 .015.008h.022c.022 0 .014-.01.02-.008.004.002 0 0 0 0h.008c.008 0 .01 0 0 0s.008 0 0 0h.031a.04.04 0 0 0 .02 0c.009-.009.055-.02.062-.028v.014c0-.002.094-.014.108-.014v.009h.009c.008 0 0 0 0 0V43.6s0-.01.01-.01h.038s.022 0 .029-.01c.007-.011 0-.145 0-.155h-.009.01-.059c-.007 0 0 0 0 0h-.017c-.025 0-.112.017-.136.02a.708.708 0 0 0-.143.024h-.019c-.005 0 0 0 0 0h-.018a.548.548 0 0 1-.119.01c-.008 0-.02 0-.03.01-.011 0-.071 0-.082.008h-.018c-.009 0 0 .012-.01.014a.164.164 0 0 1-.025.01.08.08 0 0 1-.025 0 .08.08 0 0 0-.045 0l-.012-.01s0 .132.024.158h.008c.01 0 0 0 0 0h.119a.15.15 0 0 1 .105-.038ZM76.147 44.548h.01a.013.013 0 0 0-.01 0Z" fill="#FBFBFB"/><path d="M76.356 44.603c.008 0 0 .009.01.009h.019c.003 0 0 0 0 0 .038.01.076.019.115.024v-.009c0-.008 0 0 0 0s.01 0 .012.014h.046c.005 0 0 0 0 0h.019c-.001 0 .009 0 0 0-.008 0 0 0 0 0h.047a.51.51 0 0 0 .072 0v.012a.79.79 0 0 1 .117.02c.015.008 0 0 0 .01 0 .008 0 0 .01 0v-.013s0-.008.014 0H76.91a.826.826 0 0 0 .047-.147h-.009.012-.012c-.012 0 0 0 0-.009 0-.008-.008 0-.012 0H76.895c-.016 0 0 0 0 0h-.017l-.144-.019c-.05-.009-.1-.015-.152-.019a.045.045 0 0 0-.02-.008h-.022a.714.714 0 0 1-.124-.026h-.034c-.013 0-.074-.015-.086-.015-.012 0-.01 0-.02-.009-.008-.008-.01.01-.013.01h-.027a.08.08 0 0 1-.03 0 .123.123 0 0 0-.046-.01v-.014s-.041.126-.024.156h.01c.01 0 0 0 0 0a.89.89 0 0 0 .098.025h.028a.17.17 0 0 1 .084.018ZM76.277 45.515a.017.017 0 0 0 .012 0 .014.014 0 0 0-.012 0Z" fill="#FBFBFB"/><path d="M76.493 45.5h.156-.01.01c.01 0 .01 0 .014.01h.024c.024 0 .017-.009.023 0 .005.008 0 0 0 0h.017c-.004 0 .01 0 0 0h.032a.044.044 0 0 0 .023 0c.01 0 .061 0 .072-.014v.014c.04 0 .08.005.118.014v.008h.01c.01 0 0 0 0 0v-.012s0-.009.014 0l.041.009h.033l.053-.146h-.008.012-.012c-.004 0 0 0 0-.009s-.01 0-.016 0h-.044c-.006 0 0 0 0 0h-.02c-.027 0-.133-.014-.159-.015a1.405 1.405 0 0 0-.194 0h-.022a1.241 1.241 0 0 1-.14 0c-.011 0-.025 0-.037.01a.966.966 0 0 0-.095.01h-.02c-.009 0 0 .012-.012.014 0 0-.02.01-.028.012a.095.095 0 0 1-.029.009.112.112 0 0 0-.051 0h-.014s.01.132.04.154h.016c.01 0 .066 0 .1-.012h.028a.162.162 0 0 1 .075-.057ZM76.445 47.009l.006.001.005-.001h-.01ZM76.627 46.923h.012c.012 0 .014 0 .014-.012 0 0 .082-.041.096-.052.014-.01 0 0-.012 0h.017c.016-.013 0 0 .02-.012.018-.011.01-.015.015-.015.005 0 0 0 0 0s.01 0 0-.008c-.01-.01.01 0 0 0 0 0 .013 0 .015-.01h.012a.043.043 0 0 0 .017-.015c0-.01.043-.037.047-.05v.014c0-.001.08-.05.094-.055.014-.005 0 0 0 0V46.7c0-.009 0 0 0 0l-.01-.009v-.014l.034-.017s.019-.012.022-.022a.928.928 0 0 0-.061-.14h-.009v-.01c0-.008 0 0 0 0h-.009c-.01 0-.008.014-.019.014h-.013c-.005 0 0 0 0 0h-.016c-.02.01-.096.06-.115.072-.029.021-.092.056-.12.08-.027.023-.014 0-.019 0-.005 0 0 0 0 0l-.015.013a.613.613 0 0 1-.105.057c0 .01-.019.012-.024.019-.009.008-.062.032-.072.04 0 .008-.009 0-.017 0-.009 0 0 .013 0 .015a.141.141 0 0 1-.018.02.059.059 0 0 1-.02.014.102.102 0 0 0-.041.02h-.016s.05.123.083.138h.008a.63.63 0 0 0 .084-.041l.023-.016.118-.01Z" fill="#FBFBFB"/><g opacity=".6" fill="#fff"><path opacity=".6" d="M74.08 40.806h.01c.008 0-.006-.002-.01 0Z"/><path opacity=".6" d="M74.24 40.814s0 .009.01 0c.011-.008.011 0 .013 0a.492.492 0 0 0 .086 0h-.009c-.008 0 0 0 0 0s.009 0 .012.01h.017c.018 0 .01-.01.016 0 .005.01 0 0 0 0s.008 0 0-.008c-.009-.009 0 0 0 0h.024a.028.028 0 0 0 .015-.009c0-.008.04-.022.043-.032v.013c.012 0 .07-.025.081-.027.01-.002 0 0 0 0v-.022l.03-.009s.015 0 .018-.015a.905.905 0 0 0-.048-.146v-.009s0 .01-.014 0h-.01c-.01 0 0 0 0 0h-.01l-.088.036c-.022.01-.072.022-.096.033-.024.01 0 0-.014 0h-.014a.265.265 0 0 1-.082 0s-.015 0-.02.008h-.069c-.012 0 0 .01 0 .012a.048.048 0 0 1-.038.009c-.009 0-.02-.009-.033 0v-.01a.55.55 0 0 0 0 .158.35.35 0 0 0 .074 0h.02l.087.008Z"/></g><path opacity=".6" d="M74.15 41.55s0 .01 0 0c0-.008.008 0 .011 0 .004 0 0 0 0 0 .025.007.05.011.074.013v-.009c0-.009 0 0 0 0l.009.014H74.273c.004 0 0 0 0 0s.009 0 0 0c-.008 0 0 0 0 0h.012c.005.002.01.002.016 0 0 0 .04 0 .044-.014v.014a.364.364 0 0 1 .074 0v.008c0 .009 0 0 0 0v-.012s0-.01.009 0h.046c.007 0 .026-.14.027-.15h-.035c-.01 0 0 0 0 0h-.104a.614.614 0 0 0-.097 0h-.014c-.005 0 0 0 0 0h-.014a.246.246 0 0 1-.079-.013h-.022s-.047-.008-.055 0h-.012a.01.01 0 0 1-.003.007.01.01 0 0 1-.006.004h-.017a.031.031 0 0 1-.017 0c-.009 0-.02-.01-.031 0V41.4a.57.57 0 0 0-.014.157c.021.007.042.011.064.014h.017l.088-.02Z" fill="#fff"/><g opacity=".6" fill="#fff"><path opacity=".6" d="M74.213 42.295h.008a.008.008 0 0 0-.004 0h-.004ZM74.374 42.307h.025c.029.003.058.003.087 0h-.008c-.009 0 0 0 0 0s.008 0 .012.01c.015-.009 0 0 .017 0s.01-.009.015 0c.005.008 0 0 0 0s.009 0 0 0c-.008 0 0 0 0 0h.04s.04-.02.046-.03v-.049a.74.74 0 0 1 .084-.022v.008-.022l.031-.009s.016 0 .019-.013c.003-.014-.03-.141-.034-.151v-.01c0-.008-.009 0 0 0 .008 0 0 0 0 0-.009 0-.009.011-.016.01h-.01c-.01 0 0 0 0 0h-.012l-.095.029c-.024.008-.075.017-.1.027-.023.01-.01 0-.015 0-.005 0 0 0 0 0h-.013a.362.362 0 0 1-.086 0H74.265a.01.01 0 0 1 0 .012.099.099 0 0 1-.02.01H74.195l-.008-.01a.515.515 0 0 0 0 .16h.008c.009 0 0 0 0 0 .025.002.05.002.074 0h.02l.087.05Z"/></g><g opacity=".6" fill="#fff"><path opacity=".6" d="M74.166 43.573h.011a.012.012 0 0 0-.005-.001l-.005.001ZM74.338 43.527h.024a.551.551 0 0 0 .095-.031h-.01c-.01 0 0 0 0 0h.015c.016-.012 0 0 .019 0s.01-.012.015-.012c.005 0 0 0 0 0s.01 0 0-.009c-.01-.008.01 0 0 0 0 0 .014 0 .016-.008h.012a.03.03 0 0 0 .015-.01c0-.01.043-.03.048-.04v.014c0-.002.08-.033.093-.035.014-.002 0 0 0 0v-.02l.033-.012s.019 0 .022-.018a.947.947 0 0 0-.038-.149v-.009c0-.008-.008 0-.008 0s0 .009-.009 0c-.01 0-.01.01-.02.009h-.014c-.005 0 0 0 0 0h-.014c-.02 0-.094.041-.113.048-.04.015-.08.032-.119.052h-.017c-.005 0 0 0 0 0l-.014.01a.499.499 0 0 1-.101.032c0 .01-.019.01-.026.016 0 0-.06.019-.068.024h-.018c-.008 0 0 .012 0 .014a.177.177 0 0 1-.019.015l-.02.012a.072.072 0 0 0-.04.01h-.012a.475.475 0 0 0 .06.148h.01a.704.704 0 0 0 .08-.022l.02-.01a.23.23 0 0 1 .103-.02Z"/></g><g opacity=".6" fill="#fff"><path opacity=".6" d="m74.02 44.789.006.001.005-.001a.012.012 0 0 0-.01 0Z"/><path opacity=".6" d="M74.254 44.813c.01 0 0 .009.014 0 .014-.008.017 0 .019 0 .001 0 0 0 0 0a.83.83 0 0 0 .128-.01h-.012.009c.009 0 .012 0 .017.009.022-.01 0 0 .026 0s.017-.01.024-.01c.007.003 0 0 0 0h.01c.01 0 .012 0 0 0s.012 0 0 0h.059c.008-.008.06-.025.068-.035v.014l.12-.035v.009l.01-.009c.008-.008 0 0 0 0v-.01h.008s0-.01.01-.012l.041-.014s.023-.01.03-.019a.716.716 0 0 0-.038-.15h-.009c-.008 0 0 0 0-.01 0-.008-.008 0-.008 0s0 .01-.013 0c-.01 0-.012.013-.022.011h-.015c-.007 0 0 0 0 0h-.016c-.024.008-.113.041-.137.046l-.148.04a.042.042 0 0 0-.02 0h-.02a.46.46 0 0 1-.126.01c-.009 0-.023 0-.033.009h-.105c-.008 0 0 .01-.012.01a.086.086 0 0 1-.027.009.09.09 0 0 1-.03 0 .134.134 0 0 0-.047 0l-.01-.012s-.026.13 0 .16h.011c.004 0 0 0 0 0 .036 0 .07.008.108.008h.031a.305.305 0 0 1 .105-.009Z"/></g><g opacity=".6" fill="#fff"><path opacity=".6" d="M74.004 45.977h.01a.009.009 0 0 0-.01 0Z"/><path opacity=".6" d="M74.2 46.015h.037l.107.019-.01-.01c-.008-.01 0 0 .01 0 .008 0 .01 0 .012.013H74.398c.006 0 0 0 0 0h.01v.009h.018s.008 0 .01.008h.078v.014a.66.66 0 0 1 .104.024v.009h.01c.01 0 0 0 0 0v-.014h.01s0-.009.013 0c.011.005.023.009.036.012h.03l.064-.14h.01-.01c-.01 0 0 0 0-.01 0-.008-.01 0-.013 0h-.04c-.005 0 0 0 0 0h-.014c-.022 0-.115-.025-.139-.029a1.389 1.389 0 0 0-.147-.022h-.02c-.004 0 0 0 0 0h-.02a.926.926 0 0 1-.12-.02h-.034c-.01 0-.072-.01-.084-.01h-.018c-.007 0-.01.011-.013.011h-.054a.129.129 0 0 0-.046 0l-.01-.01a.437.437 0 0 0 0 .158s.008 0 0 0h.008c.009 0 0 0 0 0 .03.005.06.008.09.01h.025a.152.152 0 0 1 .067-.022Z"/></g><path opacity=".6" d="M74.374 46.772h.008a.009.009 0 0 0-.004-.002l-.004.002Z" fill="#fff"/><g opacity=".6" fill="#fff"><path opacity=".6" d="M73.906 48.67a.018.018 0 0 0 .008.001c.002 0 .005 0 .008-.002a.025.025 0 0 0-.016 0ZM74.204 48.628h.018c.017 0 .02 0 .024-.01.003-.01 0 0 0 0h.008c.009 0 0 0 0 0 .024 0 .136-.031.158-.041.022-.01-.01 0-.015 0h.034c.028-.016 0 0 .03-.012.032-.012.02-.016.028-.016.009 0 0 0 0 0h.012c.004 0 .016 0 .01-.008-.004-.009.014 0 .01 0h.008c.012 0 .02 0 .027-.01h.02l.027-.014c.01-.01.074-.04.082-.052h.009v.016c0-.002.129-.057.15-.064.02-.007 0 0 0 0v-.009c0-.008 0 0 0 0l-.01-.008h.01s0-.012.013-.016l.053-.022h.009c.008 0 0 0 0 0s.027-.014.036-.026a.565.565 0 0 0-.047-.147h.009-.022c-.01 0 0 0 .01-.01s-.012 0-.014 0c0 0 0 .01-.014.01-.013 0-.015.015-.029.017h-.02c-.009 0 0 0 0 0h-.021c-.03.012-.144.069-.172.08l-.189.076a.08.08 0 0 0-.027 0l-.026.012a.777.777 0 0 1-.163.041c-.012.01-.03.01-.043.017-.013 0-.096.02-.113.025h-.026c-.012 0-.008.012-.014.013a.22.22 0 0 1-.07.024.216.216 0 0 0-.064.009l-.017-.009s0 .133.031.157h.01-.01.009a.02.02 0 0 1 .013 0h.01a.95.95 0 0 0 .138-.02l.038-.011c.028 0 .055.003.082.008Z"/></g><path d="m71.545 48.152.013.009a.015.015 0 0 0-.005-.006.017.017 0 0 0-.008-.003Z" fill="#FBFBFB"/><path d="M71.818 48.247c.012 0 0 .008.014.01.013.002.019 0 .025 0 .007 0 0 0 0 0h.01c.01 0 0 0 0 0h.01c.049.018.1.034.15.046 0 0-.01 0-.012-.01-.001-.01.01 0 .014 0s.012 0 .016.017h.061c.009 0 0 0 0 0h.024c-.001 0 .012 0 0 .009-.012.008 0 0 0 0 .012 0 .017.01.026 0 0 0 .014 0 .014.008.01.002.02.002.029 0 .014 0 .08.01.094 0h.01s-.008.014-.01.012c-.001-.001.134.033.151.042.018.008 0 .008 0 .008h.014c.014 0 0 0 0 0v-.012h.03c.01 0 .035.01.053.017h-.01.008s.009 0 0 0 .03.009.043 0a.739.739 0 0 0 .065-.14h.009a.01.01 0 0 0-.006-.002.01.01 0 0 0-.006.002h-.009.014-.014c-.003 0 0 0 0-.009s-.012 0-.017 0H72.565c-.007 0 0 0 0 0h-.03l-.188-.046c-.05-.012-.148-.04-.2-.048a.089.089 0 0 0-.025-.013h-.028a1.382 1.382 0 0 1-.163-.05.333.333 0 0 1-.044 0c-.016 0-.095-.028-.112-.032-.016 0-.012 0-.022-.012-.01-.012-.014.009-.02 0a.15.15 0 0 1-.037 0 .109.109 0 0 1-.036 0 .202.202 0 0 0-.062-.02l-.012-.014s-.058.12-.036.154h.009-.009.016c.005 0 0 0 0 .009.04.015.082.03.125.043h.038a.341.341 0 0 1 .089.03ZM71.69 47.588a.012.012 0 0 0 .011 0h-.01Z" fill="#FBFBFB"/><path d="M71.878 47.617H71.905s.088.012.103.01c.016-.002 0 0 0-.009 0-.008 0 0 0 0s.009 0 .012.012h.041c.006 0 0 0 0 0h.01c-.003 0 .008 0 0 0H72.098a.205.205 0 0 0 .08-.015l.001.015a.682.682 0 0 1 .103 0v.009c0 .008 0 0 .009 0 .008 0 0 0 0 0v-.012s0-.01.012 0h.063a.786.786 0 0 0 .026-.153c0-.01 0 0 0 0h.01-.01c-.002 0 0 0 0-.009 0-.008 0 0-.012 0h-.036c-.014 0 0 0 0 0H72.05c-.005 0 0 0 0 0h-.019a.472.472 0 0 1-.11-.01H71.8c-.016 0-.009.01-.012.01a.081.081 0 0 1-.024 0 .06.06 0 0 1-.024 0 .084.084 0 0 0-.043 0v-.01a.465.465 0 0 0 0 .16c.028.006.057.01.086.012h.024a.13.13 0 0 1 .072-.01ZM71.634 46.642h.01a.012.012 0 0 0-.005-.001h-.005Z" fill="#FBFBFB"/><path d="M71.818 46.602H71.844a.71.71 0 0 0 .1-.026h-.013c-.003 0 0 0 0 0h.016c.015-.01 0 0 .019 0 .018 0 .01-.012.017-.01 0 0 .01 0 0 0s.01 0 0 0h.029a.027.027 0 0 0 .017 0c0-.009.046-.026.052-.036v.014a.69.69 0 0 1 .096-.031v.008c0 .009 0 0 0 0v-.01s0-.01.008-.012l.035-.009s.019 0 .024-.014a.901.901 0 0 0-.031-.152h-.009c-.008 0 0 0 0 0h-.01c-.01 0-.012.01-.02.008h-.014c-.014 0 0 0 0 0h-.016c-.02 0-.098.036-.118.043-.031.012-.095.031-.126.047a.03.03 0 0 0-.017 0l-.015.01a.476.476 0 0 1-.105.03c0 .008-.019 0-.028.013a.38.38 0 0 0-.072.02h-.017c-.007 0 0 .012 0 .014 0 0-.014.012-.02.014 0 0-.018 0-.021.01a.073.073 0 0 0-.041.01h-.012a.446.446 0 0 0 .051.152h.009c.008 0 0 0 0 0a.661.661 0 0 0 .084-.021l.022-.01s.098-.062.1-.062ZM71.743 45.68h.012a.01.01 0 0 0-.012 0ZM71.935 45.587h.013c.014 0 .014 0 .014-.012 0 0 .088-.032.103-.04.016-.01 0 0-.012 0h.017c.017-.014 0 0 .02-.011.022-.01.013-.012.018-.012h.009c.008 0 .01 0 0-.009-.01-.008.01 0 0 0h.029l.019-.01c0-.009.051-.027.058-.036v.015a.593.593 0 0 1 .108-.027v-.012s0-.01.01-.01h.04s.022 0 .03-.01v-.155H72.39h.01-.011c-.002 0 0 0 0 0h-.014c-.012 0-.016.008-.026 0h-.017c-.007 0 0 0 0 0h-.019c-.05.01-.1.023-.15.04a.999.999 0 0 0-.15.054h-.023c-.007 0 0 0 0 0l-.019.012a.95.95 0 0 1-.123.05c-.009.01-.023.014-.031.022-.01.009-.07.035-.083.043-.008.01-.01 0-.02 0s0 .014 0 .016l-.02.022a.064.064 0 0 1-.023.017.152.152 0 0 0-.045.026h-.017s.062.117.096.127h.009a.779.779 0 0 0 .084-.045l.022-.017a.257.257 0 0 1 .114-.038ZM71.212 44.445h.013a.016.016 0 0 0-.006-.001l-.007.001Z" fill="#FBFBFB"/><path d="M71.468 44.483h.045c.008 0 0 0 0 0h.008a.945.945 0 0 0 .14 0h-.011.01c.002 0 .014 0 .017.01h.03c.029 0 .017-.01.025 0 .009.01 0 0 0 0H71.753c-.005 0 .012 0 0 0h.065a.3.3 0 0 0 .08-.03h.008v.015l.135-.03v.01h.01c.011 0 0 0 0 0v-.01h.01s0-.011.011-.011l.048-.012s.026 0 .035-.016a.647.647 0 0 0-.023-.154h-.01.01-.012c-.001 0 0 0 0 0s0 .008-.012 0c-.013 0-.015.01-.027.008h-.019c-.009 0 0 0 0 0h-.019c-.026 0-.129.035-.154.038l-.172.031h-.045a.637.637 0 0 1-.14 0h-.155c-.009 0-.01.01-.014.01h-.03a.09.09 0 0 1-.032 0 .172.172 0 0 0-.053-.044l-.01-.012s-.038.127-.016.158h.009-.009.012c.004 0 0 0 0 .008.04.009.079.014.119.017h.032a.377.377 0 0 1 .083.014ZM71.753 43.42a.017.017 0 0 0 .012 0 .011.011 0 0 0-.012 0Z" fill="#FBFBFB"/><path d="M71.967 43.403h.029c.002 0 0 0 0 0a.954.954 0 0 0 .117-.013h-.012.009c.008 0 .01 0 .015.01h.024c.024 0 .014-.01.02 0 .008.01 0 0 0 0h.011c.01 0 .01 0 0 0s.01 0 0 0h.033a.045.045 0 0 0 .02-.009c.009-.008.057-.02.066-.03v.013c0-.002.1-.019.115-.019s0 .009 0 .009h.008c.009 0 0 0 0 0v-.012s0-.01.01-.01h.042s.022 0 .03-.012c.01-.012 0-.145 0-.155h-.008c-.008 0 0 0 .01-.009.01-.008-.01 0-.01 0H72.445c-.006 0 0 0 0 0h-.018l-.14.03c-.037.008-.112.02-.148.03h-.041a.79.79 0 0 1-.124.016c-.01.009-.024 0-.032.01-.01 0-.073 0-.085.014h-.019c-.008 0 0 .012-.01.014l-.026.012h-.027a.121.121 0 0 0-.048 0l-.012-.009s0 .132.029.156h.009a.944.944 0 0 0 .097-.01h.028a.386.386 0 0 1 .09-.026ZM71.61 42.54a.014.014 0 0 0 .012 0 .01.01 0 0 0-.012 0Z" fill="#FBFBFB"/><path d="M71.775 42.454h.012c.012 0 .01 0 .01-.012a.893.893 0 0 0 .088-.052h-.012c-.012 0 0 0 0 0h.017c.012-.014 0 0 .015-.012.016-.012.009-.014.014-.015h.008c.01 0 .01 0 0 0h.01s.011 0 .011-.01h.012a.028.028 0 0 0 .014-.014c0-.01.038-.038.04-.048v-.009.016a.778.778 0 0 1 .084-.055h-.01v-.012l.032-.02s.015-.011.019-.02a.944.944 0 0 0-.07-.137h-.01c-.008 0 0 .008 0 .008-.01 0-.008.012-.018.014h-.012c-.012 0 0 0 0 0h-.014c-.017.01-.084.06-.101.072-.026.02-.08.055-.107.08h-.017c-.005 0 0 0 0 0l-.012.013a.47.47 0 0 1-.093.055c0 .01-.017.014-.022.02 0 0-.055.033-.063.04 0 .008-.009 0-.016 0a.013.013 0 0 1 0 .015l-.015.02-.02.015c-.003.003-.027.008-.035.02H71.5s.058.119.09.133a.468.468 0 0 0 .075-.042l.019-.015a.273.273 0 0 1 .09-.048ZM71.612 41.506a.014.014 0 0 0 .012 0 .01.01 0 0 0-.012 0ZM71.81 41.398h.013c.014 0 .014 0 .014-.014 0 0 .09-.051.106-.063.016-.012-.008 0-.014 0-.005 0 0 0 0 0h.02c.015-.017 0 0 .02-.016.02-.015.01-.015.017-.017.007-.002 0 0 0 0s.01 0 0-.01.012 0 0 0c0 0 .015 0 .017-.014h.014a.038.038 0 0 0 .017-.015c0-.01.046-.045.05-.055v-.009.014c0-.002.087-.06.103-.067.015-.007 0 0 0 0l-.01-.009v-.014l.037-.022s.021-.014.025-.024a.932.932 0 0 0-.068-.139h-.01v-.01c0-.01-.01 0-.01 0s0 .01-.009.01c-.012 0-.012.014-.022.016 0 0-.009 0-.015.008-.007.009 0 0 0 0h-.018a2.061 2.061 0 0 0-.125.088c-.03.022-.098.067-.129.092-.03.026-.015 0-.02.009-.005.008 0 0 0 0l-.016.015a.603.603 0 0 1-.113.07c0 .011-.02.014-.028.023 0 .009-.065.04-.075.048-.009.01-.01 0-.019 0s0 .014 0 .016c0 0-.012.015-.02.022l-.023.017a.151.151 0 0 0-.045.026h-.015s.055.12.091.13v-.008h.009a.97.97 0 0 0 .09-.052l.025-.019.135-.027ZM71.964 40.595s.004-.004 0 0ZM74.671 39.135a.014.014 0 0 0 .013 0 .01.01 0 0 0-.013 0ZM74.853 39.027h.014c.014 0 .014 0 .014-.016 0-.015 0 0 0 0s.084-.051.098-.063c.014-.012 0 0-.012 0h.017c.014-.018 0 0 .019-.016.019-.015.008-.015.015-.017.007-.002 0 0 0 0s.009 0 0-.01c-.008-.01.01 0 0 0 0 0 .014 0 .016-.014h.013a.07.07 0 0 0 .016-.017c0-.01.043-.043.046-.055v.014a.884.884 0 0 1 .096-.067v-.01c0-.011 0 0 0 0h-.008v-.014a.434.434 0 0 0 .036-.023s.019-.014.022-.024a.96.96 0 0 0-.072-.137h-.017c-.009 0 0 0 0-.01s-.009 0-.009 0 0 .01-.01.01-.009.014-.019.015c0 0-.008 0-.015.009-.007.008 0 0 0 0h-.017c-.021.012-.097.072-.117.087-.031.023-.095.067-.124.093 0 0-.012 0-.019.009-.007.008 0 0 0 0l-.013.015a.705.705 0 0 1-.107.069c0 .012-.019.015-.026.024 0 .009-.061.04-.072.048 0 .01-.008 0-.017 0-.009 0 0 .014 0 .015a.099.099 0 0 1-.017.023.074.074 0 0 1-.023.019.103.103 0 0 0-.04.024h-.016s.058.118.093.128v-.008c0-.009 0 0 .01 0a.528.528 0 0 0 .084-.052l.02-.019.141-.03ZM74.546 38.616s.004-.005 0 0ZM74.625 38.572h.008c.01 0 0 0 0 0a.159.159 0 0 0 .04-.028h-.009c-.008 0 0 0 0 0h.013c0-.01 0 0 0 0v-.01s.011-.024 0-.033c0 0 .008.012 0 .012a.197.197 0 0 1 .035-.03h-.008v-.01a.043.043 0 0 0 .014-.011v-.014c0-.014-.088-.115-.093-.123v-.01.01c-.009 0-.034.036-.041.042a.37.37 0 0 0-.043.047h-.009c-.008 0 0 0 0 0v.008a.124.124 0 0 1-.041.031v.012s-.024.017-.028.023h-.008a.024.024 0 0 1 0 .012v.012s-.016 0-.017.01h-.01c.03.043.065.084.103.122a.263.263 0 0 0 .036-.02v-.011s.056-.041.058-.041Z" fill="#FBFBFB"/><g opacity=".6" fill="#fff"><path opacity=".6" d="M71.763 39.053a.008.008 0 0 0-.001.004l.001.003v-.007Z"/><path opacity=".6" d="M71.826 39.181v.01c0 .011 0 .01.012 0a.28.28 0 0 0 .05.063v-.01c0-.011 0 0 0 0v.015c.014 0 0 0 .012.01s.012 0 .014 0h.008c.009 0 0 0 0 0s0 .01.01.009v.01h.014c.01 0 .038.019.049.017l-.01.009s.052.04.06.048c.006.008 0 0 0 0h.008c.008 0 0 0 0 0v-.01h.012c.003 0 .014.01.02.017 0 0 .013.008.021 0l.095-.122h-.009c0-.009-.012 0-.014 0v-.009l-.068-.048c-.018-.012-.05-.043-.07-.055-.018-.012 0 0 0-.01h-.011a.21.21 0 0 1-.046-.057c-.01 0-.01-.01-.016-.012 0 0-.022-.036-.03-.041v-.012c0-.012-.011 0-.013 0a.052.052 0 0 1-.017-.009s-.009-.008-.01-.012c-.002-.003 0-.018-.014-.025v-.01a.625.625 0 0 0-.134.085v.009c.01.02.02.04.033.058l.013.014.031.069Z"/></g><g opacity=".6" fill="#fff"><path opacity=".6" d="M72.168 38.682a.008.008 0 0 0-.001.003v.004s.002-.006 0-.007ZM72.232 38.833v.01c0 .01 0 .01.012 0a.445.445 0 0 0 .053.074v-.012c0-.012 0 0 0 0v.017c.014.008 0 0 .013.012.011.012.015 0 .017.008.001.009 0 0 0 0h.008c.009 0 0 .009 0 0 0 0 0 .01.014.009v.01h.014c.01 0 .043.02.053.02 0 0-.012.01-.012 0 0-.011.062.044.07.052.009.009 0 0 0 0h.009c.008 0 0 0 0 0v-.01h.012c.012 0 .017.01.026.017h.022a.925.925 0 0 0 .09-.127h.008c.008 0 0 0 0 0v-.008c0-.009 0 0 0 0h-.016v-.009c-.012-.008-.063-.04-.075-.05l-.076-.06v-.012c0-.01 0 0-.012 0a.238.238 0 0 1-.046-.065c-.01 0-.01-.012-.017-.014 0 0-.024-.041-.031-.048v-.012a.012.012 0 0 1-.007.002c-.002 0-.005 0-.007-.002 0 0-.012 0-.015-.012 0 0-.009-.01-.01-.014-.002-.003 0-.022-.013-.029v-.01a.53.53 0 0 0-.142.072.25.25 0 0 0 .03.069l.015.017.013.105Z"/></g><g opacity=".6" fill="#fff"><path opacity=".6" d="M69.472 40.822a.007.007 0 0 0 0 .004v.004s.004-.008 0-.008ZM69.612 40.924v.01c0 .01.01 0 .015 0 .005 0 0 0 0 0 .025.02.05.037.077.052v-.01c0-.01 0 0 0 0v.017h.035c.003 0 0 0 0 0h.01c.002 0 0 .008 0 .008h.014v.009a.031.031 0 0 0 .017 0c.01 0 .046.015.056.012l-.01.01c.028.014.055.03.08.048h.01c.008 0 0 0 0 0v-.012h.011c.004 0 .02.01.03.018 0 0 .017.008.026 0l.09-.126h.01-.008c-.008 0 0 0 0-.008 0-.009-.008 0-.01 0 0-.009-.014 0-.019-.009h-.01c-.01 0 0 0 0 0l-.009-.01a1.796 1.796 0 0 0-.101-.053 1.076 1.076 0 0 0-.108-.056s-.009 0-.012-.011c-.004-.013 0 0 0 0h-.017a.397.397 0 0 1-.085-.055c-.01 0-.017 0-.025-.009-.009 0-.049-.033-.059-.036-.01 0 0 0-.01-.01a.013.013 0 0 1-.016 0 .14.14 0 0 1-.022 0 .04.04 0 0 1-.02-.01s-.018-.02-.031-.023v-.014a.515.515 0 0 0-.08.138h.01c.008 0 0 0 0 0 .019.017.04.033.063.046h.02s.078.082.078.084Z"/></g><path opacity=".6" d="M69.984 40.413h.012c.002 0 0 0 0 0a.307.307 0 0 0 .069.018v-.009c0-.008 0 0 0 0v.012H70.094c.003 0 0 0 0 0H70.115s.037 0 .044-.01v.012a.39.39 0 0 1 .069.014v.008-.012s0-.008.009 0h.045c.006 0 .04-.139.042-.15v-.008c0-.008 0 0 0 0H70.3c-.009 0 0 0 0 0h-.009a.729.729 0 0 0-.085-.012.804.804 0 0 0-.093-.01h-.01c-.01 0 0 0 0 0h-.012a.275.275 0 0 1-.076-.02h-.02a.453.453 0 0 1-.052-.013h-.01a.01.01 0 0 1-.005.001.01.01 0 0 1-.004 0h-.033c-.001 0-.017-.013-.029-.011v-.012a.586.586 0 0 0-.029.156.332.332 0 0 0 .058.02h.018l.075.026Z" fill="#fff"/><g opacity=".6" fill="#fff"><path opacity=".6" d="M69.953 39.681a.013.013 0 0 0 .01 0s-.006-.002-.01 0Z"/><path opacity=".6" d="M70.113 39.652h.022a.522.522 0 0 0 .085-.022h-.009c-.009 0 0 0 0 0h.014c.013-.01 0 0 .015 0 .016 0 .01-.01.016-.01.005 0 0 0 0 0s.008 0 0 0c-.009 0 .008 0 0 0h.039c0-.01.041-.025.045-.035v.014a.779.779 0 0 1 .084-.026v-.02l.03-.01s.015 0 .02-.013a.882.882 0 0 0-.031-.151c-.009 0-.009.01-.017 0h-.012c-.012 0 0 0 0 0H70.4c-.019 0-.086.03-.103.036-.026.01-.08.026-.107.04a.023.023 0 0 0-.015 0l-.014.008a.342.342 0 0 1-.09.024c0 .009-.018 0-.023.012 0 0-.055.014-.064.019h-.013a.01.01 0 0 1 .001.006.01.01 0 0 1-.001.006.188.188 0 0 1-.026.02.025.025 0 0 1-.01.002c-.01 0-.026 0-.037.009l-.01-.009a.523.523 0 0 0 .05.151s.05-.008.074-.015c.024-.007 0 0 0 0h.019s.082-.038.082-.036Z"/></g><g opacity=".6" fill="#fff"><path opacity=".6" d="M69.765 42.447a.01.01 0 0 0 .004.001.01.01 0 0 0 .003 0h-.007Z"/><path opacity=".6" d="M69.923 42.435h.022c.002 0 0 0 0 0a.486.486 0 0 0 .086-.01h-.009c-.008 0 0 0 0 0s.009 0 .014.01c.014-.009 0 0 .017 0s.01-.01.016-.009c.005.002 0 0 0 0s.008 0 0-.009c-.009-.008 0 0 0 0h.039s.04-.018.045-.027v.015a.435.435 0 0 1 .082-.015v-.022h.031s.015 0 .02-.012a1.134 1.134 0 0 0-.013-.153v-.009c0-.008-.009 0-.009 0h-.008c-.009 0-.01.009-.017 0h-.012c-.013 0 0 0 0 0h-.013a.74.74 0 0 0-.102.024 1.083 1.083 0 0 0-.109.028.026.026 0 0 0-.015 0h-.014a.437.437 0 0 1-.09.012s-.018 0-.025.008c0 0-.053 0-.062.01h-.013a.01.01 0 0 1 0 .013s-.012.008-.02.01H69.7a.545.545 0 0 0 .03.156.51.51 0 0 0 .072 0h.021l.1-.02Z"/></g><g opacity=".6" fill="#fff"><path opacity=".6" d="M70.094 43.032s.005-.005 0 0ZM70.175 43.014a.172.172 0 0 0 .041-.016l.009.009c0-.009 0 0 0 0v-.009s.015-.02.015-.029v.014a.169.169 0 0 1 .04-.02v-.008s0-.01 0 0h.015v-.012c0-.012-.053-.134-.057-.142a.327.327 0 0 0-.048.027.442.442 0 0 0-.048.031h-.01a.1.1 0 0 1-.045.016l-.008.01s-.028 0-.031.012h-.009a.01.01 0 0 1 0 .012v.012h-.027c.018.05.04.098.067.144a.249.249 0 0 0 .038-.01h.008c.009 0 0 0 0 0s.05-.043.05-.041Z"/></g><path opacity=".6" d="M70.135 44.261s0 .01 0 0c0-.008 0 0 .01 0 .018.01.037.018.057.023v-.009c0-.008 0 0 0 0v.012H70.228c.003 0 0 0 0 0v.009h.062v.012a.6.6 0 0 1 .058.017v.009-.012s0-.01.01 0l.02.008h.018a.945.945 0 0 0 .053-.144h-.022a.576.576 0 0 1-.074-.017.386.386 0 0 0-.077-.017h-.01c-.01 0 0 0 0 0h-.012a.243.243 0 0 1-.062-.023h-.019s-.034-.015-.043-.015h-.008a.01.01 0 0 1 0 .004.01.01 0 0 1 0 .004h-.03c-.003 0-.013-.012-.024-.01V44.1c-.02.05-.034.1-.043.153.015.009.03.016.047.022h.013l.05-.014Z" fill="#fff"/><g opacity=".6" fill="#fff"><path opacity=".6" d="M70.118 45.553s.005-.005 0 0ZM70.239 45.52h.008c.009 0 0 0 0-.009 0-.008 0 0 0 0a.386.386 0 0 0 .064-.02l.012.008c.008-.01 0 0 .012 0s0-.01.008-.008c.009.002 0 0 0 0h.02l.01-.009c0-.008.027-.024.029-.032v.015c.02-.01.04-.02.061-.028v.01c0 .008 0 0 0 0V45.425h.023s.012 0 .013-.014a1.2 1.2 0 0 0-.048-.146v-.009c0-.008 0 0 0 0s0 .01-.012 0h-.01c-.01 0 0 0 0 0h-.01l-.076.038a.855.855 0 0 0-.077.041h-.012c-.01 0 0 0-.01.009a.25.25 0 0 1-.07.024s-.011 0-.015.012a.385.385 0 0 1-.046.017h-.012a.012.012 0 0 1 .002.007c0 .002 0 .005-.002.007l-.01.014s-.01 0-.014.008c-.003.009-.019 0-.026 0h-.01c.015.05.036.1.062.146a.292.292 0 0 0 .055-.015l.013-.009s.066-.038.067-.036Z"/></g><path opacity=".6" d="M70.51 48.54h.017a.288.288 0 0 0 .067 0v.01h.026c.003 0 0 0 0 0h.022s.03-.017.034-.025v.013a.401.401 0 0 1 .065-.012v-.012s0-.01 0 0h.024s.012 0 .018-.01a1.135 1.135 0 0 0-.016-.153h-.034a.656.656 0 0 0-.08.019.305.305 0 0 0-.085.022.016.016 0 0 0-.012 0h-.01a.207.207 0 0 1-.073.009s-.011 0-.017.008h-.062a.011.011 0 0 1 .003.007c0 .003-.001.005-.003.007a.048.048 0 0 1-.013.01h-.043v-.01a.68.68 0 0 0 .03.156.315.315 0 0 0 .056 0h.015l.07-.04ZM70.527 49.734a.009.009 0 0 0 .007 0 .01.01 0 0 0-.007 0Z" fill="#fff"/><g opacity=".6" fill="#fff"><path opacity=".6" d="M78.191 39.032a.01.01 0 0 0 .013 0s-.01-.002-.013 0Z"/><path opacity=".6" d="M78.39 38.975h.014c.014 0 .014 0 .016-.008a.856.856 0 0 0 .106-.033h-.012H78.54c.017-.012 0 0 .022-.01.023-.01.01-.012.017-.012.007 0 0 0 0 0h.009c.009 0 .01 0 0 0s.01 0 0 0c0 0 .014 0 .017-.009h.012a.035.035 0 0 0 .017-.01s.05-.03.055-.04v.016c0-.002.09-.036.105-.038.015-.002 0 0 0 0v-.01s0-.01.008-.012a.313.313 0 0 0 .038-.012s.02 0 .026-.017a.779.779 0 0 0-.034-.151v-.009c0-.009-.009 0-.009 0s0 .009-.01 0c-.01 0-.012.012-.023.01h-.015c-.007 0 0 0 0 0h-.015c-.023 0-.107.043-.13.052-.032.014-.1.038-.133.055a.042.042 0 0 0-.02 0l-.018.012a.748.748 0 0 1-.115.036s-.02 0-.03.015a.379.379 0 0 0-.076.028h-.02c-.008 0 0 .014 0 .015l-.022.017a.07.07 0 0 1-.024.01.157.157 0 0 0-.044.013h-.014s.027.13.057.15h.017a.787.787 0 0 0 .09-.027l.025-.012a.374.374 0 0 1 .087-.019Z"/></g><g opacity=".6" fill="#fff"><path opacity=".6" d="M78.672 39.401a.013.013 0 0 0 .01 0s-.007-.002-.01 0ZM78.863 39.386h.025c.002 0 0 0 0 0a.702.702 0 0 0 .103-.014h-.01.009c.008 0 .008 0 .013.008.018-.008 0 0 .021 0 .02 0 .012-.01.019-.008.007.002 0 0 0 0h.008c.01 0 .01 0 0-.009-.01-.008.01 0 0 0h.049s.05-.02.056-.029v.015a.711.711 0 0 1 .101-.018v-.01h.01s0-.013.008-.011h.037s.02 0 .026-.012a.889.889 0 0 0-.01-.153h-.009c-.008 0 0 0 .009-.008.008-.009-.009 0-.009 0h-.048c-.007 0 0 0 0 0h-.014l-.111.01c-.033.009-.1.019-.132.03h-.02c-.004 0 0 0 0 0h-.016a.627.627 0 0 1-.11.016c-.009 0-.02 0-.03.01-.008 0-.065 0-.075.013h-.017c0 .003 0 .006-.002.008a.011.011 0 0 1-.007.005s-.015.01-.022.012a.047.047 0 0 1-.024 0h-.043l-.012-.008c0 .053.011.106.03.156h.01c.008 0 0 0 0 0a.712.712 0 0 0 .087-.009h.024a.122.122 0 0 1 .076.006Z"/></g><path opacity=".6" d="M79.347 40.291h.02a.52.52 0 0 0 .074-.019h-.008c-.009 0 0 0 0 0l.012.009h.013c.014 0 .009-.01.013-.01v-.01c0-.008 0 0 0 0H79.505c0-.008.034-.02.04-.028v.013a.579.579 0 0 1 .073-.015v.009-.022h.026s.015 0 .019-.011c.003-.01 0-.144 0-.155 0-.01 0 0 0 0h-.009c-.008 0 0 0 0 0h-.008c-.009 0-.012.009-.02 0h.035-.014c-.035.007-.069.016-.103.026a.588.588 0 0 0-.106.034.021.021 0 0 0-.014 0h-.012a.45.45 0 0 1-.088.025s-.015 0-.022.013c0 0-.051.016-.058.02h-.014a.014.014 0 0 1 .002.009c0 .002 0 .005-.002.007l-.015.016-.016.012a.06.06 0 0 0-.032.01h-.013a.58.58 0 0 0 .073.143.503.503 0 0 0 .061-.021l.016-.01s.041-.045.043-.045Z" fill="#fff"/><g opacity=".6" fill="#fff"><path opacity=".6" d="M79.302 41.121a.01.01 0 0 0 .012 0 .014.014 0 0 0-.012 0Z"/><path opacity=".6" d="M79.501 41.089h.028c.002 0 0 0 0 0a.787.787 0 0 0 .106-.023h-.012.024c.017-.01 0 0 .02 0 .021 0 .013-.012.02-.01.007.002 0 0 0 0h.008c.009 0 .01 0 0 0s.009 0 0 0c-.008 0 0 0 0 0h.03l.018-.01c0-.009.052-.026.059-.035v.016a.859.859 0 0 1 .104-.028v.009c0 .009 0 0 0 0v-.01h.009v-.01l.04-.01s.018 0 .025-.015a.73.73 0 0 0-.02-.153h-.009s0 .01-.01 0c-.01 0-.014.01-.023.01h-.032l-.129.039a1.405 1.405 0 0 0-.136.042h-.018c-.006 0 0 0 0 0l-.018.01a.551.551 0 0 1-.115.025c-.008 0-.02 0-.029.014l-.079.017h-.019c-.008 0 0 .014-.008.014 0 0-.014.01-.023.013h-.024a.083.083 0 0 0-.044 0h-.014s.015.133.043.155H79.29a.562.562 0 0 0 .09-.016h.026l.094-.044Z"/></g><g opacity=".6" fill="#fff"><path opacity=".6" d="M79.479 41.793h.012c.012 0-.002-.002-.012 0Z"/><path opacity=".6" d="M79.695 41.769h.031c.002 0 0 0 0 0s.1-.012.118-.018c.02-.005-.008 0-.012 0-.003 0 0 0 0 0s.01 0 .018.009c.019-.01 0 0 .022 0s.015-.01.022 0c.007.01 0 0 0 0h.009c.008 0 .012 0 .008-.009-.003-.008.01 0 0 0h.035a.042.042 0 0 0 .02 0 .18.18 0 0 0 .066-.032v.015a.92.92 0 0 1 .115-.024h.008c.009 0 0 0 0 0v-.012s0-.01.01-.01h.042s.024 0 .03-.014a.463.463 0 0 0-.01-.154h.01-.011c-.002 0 0 0 0 0h-.054c-.015 0 0 0 0 0h-.017c-.024 0-.118.027-.142.032a.624.624 0 0 0-.151.036h-.021c-.007 0 0 0 0 0l-.019.009a.866.866 0 0 1-.127.02c-.01 0-.024 0-.033.01a.832.832 0 0 0-.085.016h-.021c-.01 0 0 .012-.01.014a.121.121 0 0 1-.026.012.092.092 0 0 1-.026 0 .126.126 0 0 0-.05 0h-.012s0 .132.035.154h.041c.032 0 .065 0 .1-.012l.029-.008a.35.35 0 0 1 .058-.034Z"/></g><g opacity=".6" fill="#fff"><path opacity=".6" d="M79.66 42.698h.011a.01.01 0 0 0-.01 0Z"/><path opacity=".6" d="M79.841 42.694h.131-.01.008c.009 0 .009 0 .014.01h.02c.02 0 .014-.01.02-.008h.008c.008 0 .01 0 0 0s.008 0 0 0h.047s.05-.017.058-.026v.014c.033-.006.067-.01.1-.012v-.012s0-.01.01 0h.037s.02 0 .028-.01c.007-.01 0-.145 0-.155h-.047c-.005 0 0 0 0 0h-.015l-.127.019a1.18 1.18 0 0 0-.132.022h-.02c-.005 0 0 0 0 0h-.017a.612.612 0 0 1-.111 0c-.009.009-.019 0-.03.009h-.092c-.009 0 0 .012-.01.012a.087.087 0 0 1-.023.01h-.024a.075.075 0 0 0-.043 0l-.01-.01a.446.446 0 0 0 .022.156c.03.003.059.003.088 0h.024l.096-.019Z"/></g><path opacity=".6" d="M79.977 43.417H80.004s.085.04.102.045c.017.005 0 0 0-.012s0 0 .01 0 .009 0 0 .017c.02 0 0 0 .02.009.021.008.018 0 .021 0 .004 0 0 0 0 0s.009 0 0 0h.01v.008s.01.01.02 0c0 0 .008 0 0 .01a.033.033 0 0 0 .02 0c.01 0 .055.018.067.016h.009l-.01.01a.682.682 0 0 1 .095.059h.01c.011 0 0 0 0 0v-.012h.014l.033.024s.017.012.03.012l.106-.112h.013c.014 0 0-.008-.01 0-.01.009 0 0 0-.008a.014.014 0 0 1-.007.002l-.007-.002c0-.01-.017 0-.024-.016 0 0-.008 0-.012-.01-.003-.01 0 0 0 0s-.01-.009-.012-.014a1.656 1.656 0 0 0-.134-.075 1.386 1.386 0 0 0-.144-.067l-.019-.012h-.022a1.035 1.035 0 0 1-.12-.052h-.035c-.01 0-.072-.026-.085-.027-.012 0 0 0-.017-.01-.018-.011-.01 0-.016 0h-.028a.063.063 0 0 1-.027 0 .106.106 0 0 0-.048-.014l-.01-.014s-.043.123-.028.156c0 0 .009 0 0 0h.01c.01 0 0 0 0 .009l.092.029h.025c.031.01.06.027.081.051Z" fill="#fff"/><g opacity=".6" fill="#fff"><path opacity=".6" d="m79.864 44.081.004.002c.001 0 .002 0 .003-.002h-.007Z"/><path opacity=".6" d="M80.035 44.126c.009 0 0 .009.01 0 .01-.008.013 0 .016 0 .003 0 0 0 0 0 .03.01.062.016.094.019l-.008-.009c-.009-.008 0 0 .008 0 .009 0 0 0 .01.014h.039c.005 0 0 0 0 0h.008c-.002 0 0 0 0 .009h.016a.034.034 0 0 0 .018 0s.05 0 .059-.01v.013a.792.792 0 0 1 .094.014v.008-.012s0-.008.012 0h.062a.86.86 0 0 0 .038-.149h.01-.008c-.01 0 0 0 0-.009 0-.008-.01 0-.01 0h-.035c-.004 0 0 0 0 0h-.014l-.12-.012c-.031 0-.093-.012-.125-.01h-.016c-.005 0 0 0 0 0h-.017a.392.392 0 0 1-.101-.019h-.03c-.008 0-.06-.012-.07-.012h-.014c-.013 0-.008.01-.012.01a.08.08 0 0 1-.024 0h-.022a.097.097 0 0 0-.04-.01v-.012a.475.475 0 0 0-.02.158h.008c.01 0 0 0 0 .009a.73.73 0 0 0 .08.017h.022l.082-.007Z"/></g><g opacity=".6" fill="#fff"><path opacity=".6" d="M80.253 45.518h.01-.01ZM80.396 45.46h.012c.012 0 .008 0 .008-.01a.44.44 0 0 0 .076-.036h-.01c-.01 0 0 0 0 0h.015c.01-.012 0 0 .014-.009.014-.008 0-.014.012-.014v-.008c0-.009.009 0 0 0h.01a.027.027 0 0 0 .012-.012c0-.009.031-.031.033-.041v.013a.725.725 0 0 1 .072-.04v-.02l.026-.014s.013-.008.015-.017a1.25 1.25 0 0 0-.062-.14v-.01c0-.008-.008 0 0 0 .009 0 0 0 0 0s0 .01 0 0c-.008 0 0 .011-.015.011h-.022l-.088.057c-.022.015-.07.041-.093.058h-.013l-.01.01a.32.32 0 0 1-.081.04c0 .01-.016.01-.02.017 0 0-.047.023-.054.03h-.014a.01.01 0 0 1 0 .013s-.008.014-.014.017l-.017.012c-.003.002-.024 0-.03.014h-.013c.02.05.046.096.08.137a.318.318 0 0 0 .065-.029l.017-.012a.193.193 0 0 1 .089-.017Z"/></g><g opacity=".6" fill="#fff"><path opacity=".6" d="m80.45 46.434.007.001h.006a.01.01 0 0 0-.012 0ZM80.638 46.384h.012c.012 0 .013 0 .015-.01a.77.77 0 0 0 .102-.033h-.013c-.011 0 0 0 0 0h.018c.015-.012 0 0 .019-.008.019-.009.012-.014.017-.012 0 0 .01 0 0-.01s.008 0 0 0c0 0 .013 0 .017-.01h.012a.042.042 0 0 0 .017-.01c0-.008.046-.029.052-.039v.014c0-.002.084-.035.097-.036.014-.002 0 0 0 0v-.023a.325.325 0 0 0 .037-.012s.018 0 .024-.017a.76.76 0 0 0-.038-.15h-.009s0 .01-.01 0c-.01 0-.012.011-.02.01h-.014c-.006 0 0 0 0 0h-.016c-.02 0-.1.042-.12.05-.031.015-.094.039-.125.056a.036.036 0 0 0-.02 0l-.015.012a.526.526 0 0 1-.108.034c0 .01-.02.009-.027.016a.465.465 0 0 0-.073.025h-.017c-.007 0 0 .014 0 .016 0 0-.013.012-.02.015l-.023.012a.08.08 0 0 0-.04.012h-.014a.46.46 0 0 0 .058.148h.008c.009 0 0 0 0 0a.73.73 0 0 0 .086-.026l.023-.012a.187.187 0 0 1 .108-.012Z"/></g><path opacity=".6" d="M80.679 47.216v.009c0 .008 0 0 .012 0 .02.014.041.027.063.038v-.01c0-.011 0 0 0 0v.015h.03c.003 0 0 0 0 0v.008s0 .009.012 0v.009c.004.002.009.002.013 0h.047l-.01.01c.022.01.045.02.066.033v.008c0 .01 0 0 0 0v-.011s0-.01.01 0l.025.011h.02l.081-.132h.009c.008 0 0 0 0 0v-.008c0-.009 0 0 0 0h-.016l-.084-.036a.829.829 0 0 0-.09-.036l-.008-.009h-.013a.342.342 0 0 1-.07-.04h-.02s-.04-.024-.048-.025c-.008 0 0 0-.008-.01a.012.012 0 0 1-.013 0h.004-.016c-.003 0-.015-.016-.025-.016v-.014a.63.63 0 0 0-.069.145v.008a.345.345 0 0 0 .053.033h.017l.028.02Z" fill="#fff"/><g opacity=".6" fill="#fff"><path opacity=".6" d="M80.767 48.223s.004.004 0 0ZM80.813 48.326v.008c0 .009 0 0 0 0a.317.317 0 0 0 .03.054v-.009c0-.009 0 0 0 0v.012c.011 0 0 0 .008.01s.012 0 .01 0h.009c.008 0 0 0 0 0v.009h.008c.009 0 .028.019.036.019h-.013a.35.35 0 0 1 .034.051l.008-.008h.01a.105.105 0 0 0 .011.019s0 .01.016.01l.133-.074h.009s-.01 0-.008-.01v-.009c0-.008 0 0 0 0V48.4l-.047-.06c-.014-.016-.034-.049-.05-.062-.015-.014 0-.009 0-.012 0-.004 0 0 0 0h-.008a.217.217 0 0 1-.033-.059c-.008 0-.008-.008-.014-.012 0 0-.019-.034-.024-.038v-.01a.018.018 0 0 1-.012 0h-.015s0-.008-.01-.01 0-.019-.01-.024v-.01a.78.78 0 0 0-.133.087.239.239 0 0 0 .022.048s0 .009.01.01c.011.002 0 0 0 0l.023.078Z"/></g><g opacity=".6" fill="#fff"><path opacity=".6" d="M80.533 49.06v.013a.01.01 0 0 0 0-.013Z"/><path opacity=".6" d="M80.566 49.246V49.272a.643.643 0 0 0 .022.1v-.01c0-.011 0 0 0 0v.015c.01.017 0 0 0 .02s.012.012.01.017c-.001.005 0 0 0 0v.009c0 .009 0 0 .009 0 .008 0 0 .009 0 0v.027a.033.033 0 0 0 .008.018s.024.046.033.051h-.016c.012.032.021.065.028.098h.02s0 .024.01.034c.008.01 0 0 0 0s0 .02.013.026l.153-.026v-.017c0-.008 0 0 .008.009.009.008 0-.01 0-.01v-.01c0-.011-.008-.013 0-.021v-.014c0-.005 0 0 0 0v-.014c0-.02-.032-.1-.04-.12a1.217 1.217 0 0 0-.042-.127v-.017c0-.006 0 0 0 0l-.009-.016a.48.48 0 0 1-.024-.106c-.008-.009 0-.02-.013-.028a.43.43 0 0 0-.02-.074v-.015c0-.007-.011 0-.013-.009a.136.136 0 0 1-.012.043s0-.019-.009-.022a.089.089 0 0 0-.008-.041l.008-.012s-.13.019-.15.044v.009a.727.727 0 0 0 .015.084v.023c0 .006 0 0 0 0a.251.251 0 0 1 .019.056Z"/></g><path opacity=".6" d="M80.372 49.941v.009a.126.126 0 0 0-.03.03h.01c.008 0 0 0 0 0h-.013c0 .01 0 0 0 0V50.023l-.01-.01a.157.157 0 0 1-.024.032h.01v.009s0 .009-.01.012v.012l.117.1v-.009l.025-.045c0-.012.023-.032.028-.046v-.009a.08.08 0 0 1 .03-.032v-.014s.02-.019.02-.024h.008a.01.01 0 0 1 0-.01v-.024c0-.01.014 0 .014-.012h.01a.996.996 0 0 0-.127-.096c-.008 0-.019.015-.026.023v.01l-.032.052Z" fill="#fff"/><g opacity=".6" fill="#fff"><path opacity=".6" d="M79.724 50.2h-.008c.003.002.005.002.008 0Z"/><path opacity=".6" d="M79.647 50.348h-.01c-.01 0 0 .01 0 .014 0 .003 0 0 0 0a.705.705 0 0 0-.038.082h.01c.01 0 0 0 0 .009 0 .008 0 0-.015 0V50.489c0 .003 0 0 0 0v.009h-.008s-.009.008 0 .013h-.009a.03.03 0 0 0 0 .017v.057l-.012-.008a.386.386 0 0 1-.033.084c-.007.01 0 0 0 0v.008h.012s.009 0 0 .012a.222.222 0 0 0-.013.03v.025l.137.069v.01-.008c0-.009 0 0 .009 0 .008 0 0 0 0-.01v-.032c0-.003 0 0 0 0v-.01c0-.017.029-.09.034-.106 0-.028.03-.083.034-.112a.02.02 0 0 0 .01-.014v-.015a.321.321 0 0 1 .04-.09v-.025c0-.009.024-.052.026-.062 0-.01 0 0 .01-.012s-.008-.01 0-.012V50.265c0-.004.017-.022.017-.035h.014a.526.526 0 0 0-.148-.055v.008c0 .009 0 0 0 0a.512.512 0 0 0-.034.07v.021s-.03.074-.033.074Z"/></g><g opacity=".6" fill="#fff"><path opacity=".6" d="M78.974 50.41a.012.012 0 0 0-.01 0 .009.009 0 0 0 .01 0ZM78.821 50.589h-.013c-.006 0-.01.011 0 .018.01.007 0 0 0 0v.017a.945.945 0 0 0-.074.105h.014c.013 0 0 0 0 .01s-.009 0-.02 0c0 .023 0 0-.013.023-.014.022 0 .02 0 .024 0 .003 0 0 0 0V50.804h-.009s-.012.011-.01.02c0 0 0 .01-.01.008a.041.041 0 0 0-.009.023c0 .012-.022.061-.02.073v.01s-.013-.011-.01-.011c.001 0-.049.1-.06.113-.01.014-.008 0-.008 0v.01c0 .01 0 0 0 0h.012V51.076a.448.448 0 0 0-.02.04s-.009.022 0 .034l.132.08v-.008.012-.01c0-.01 0 0 .008 0 .01 0 0-.01 0-.014.01 0 0-.019.01-.026 0 0 0-.01.008-.014.008-.003 0 0 0 0s0-.01.01-.013l.063-.138c.016-.034.055-.104.073-.14l.013-.017c.004-.006 0 0 0 0v-.021a.553.553 0 0 1 .076-.108c0-.014.012-.023.015-.033 0-.01.048-.06.054-.072 0-.012.008 0 .017-.012.008-.012 0-.014 0-.017a.326.326 0 0 1 .01-.03.085.085 0 0 1 .016-.024c.008-.01.027-.02.034-.037h.015s-.089-.096-.127-.096v.012c0 .012 0 0 0 0a.796.796 0 0 0-.072.082.216.216 0 0 0-.015.027.378.378 0 0 1-.09.056Z"/></g><g opacity=".6" fill="#fff"><path opacity=".6" d="M78.15 50.388a.02.02 0 0 0-.014 0 .017.017 0 0 0 .014 0ZM77.97 50.579c-.009.008-.009 0-.016 0-.007 0-.012.013-.01.02.002.007 0 0 0 0v.009c0 .008 0 0 0 0s-.082.089-.094.108c-.012.019.008 0 .013 0 .005 0 0 0 0 .01s-.01.009-.019 0c-.012.024 0 0-.017.024s0 .02-.013.024c-.014.004 0 0 0 0v.009c0-.002-.01.01 0 .012s-.012 0-.01 0c0 .008-.014.01-.014.019 0 0 0 .01-.014.008a.067.067 0 0 0-.014.024c0 .014-.038.064-.038.078v.008-.012s-.075.098-.089.11c-.014.012 0 0 0 0v.012c0 .012 0 0 0 0h.012v.017l-.033.04v-.01s0 .008 0 0c0-.01-.017.022-.019.034l.103.115v.014c0 .005.01 0 .01-.01-.003-.011 0 0 .008 0s0-.013.008-.014c.012 0 0-.02.02-.026 0 0 0-.009.013-.014.014-.005 0 0 0 0s0-.01.015-.014c.02-.022.091-.116.108-.14.028-.036.088-.109.114-.148l.019-.017c.005-.005 0 0 0 0l.012-.02c.03-.042.065-.081.101-.118 0-.013.017-.022.022-.036 0-.012.059-.068.067-.08 0-.012.01 0 .02-.014.008-.014 0-.016 0-.019 0 0 .008-.022.013-.03l.019-.028a.197.197 0 0 0 .041-.043h.015s-.087-.1-.127-.098c0 0 0 .01 0 0l.002.005c0 .002 0 .004-.002.005h-.01c-.01 0-.057.057-.082.088l-.02.027a.266.266 0 0 1-.114.07Z"/></g><path opacity=".6" d="M77.086 50.556h-.01c-.011 0 0 0 0 .012a.566.566 0 0 0-.057.055h.01c.01 0 0 0 0 0h-.016c0 .015 0 0-.01.013-.01.014 0 .014 0 .014v.009c0 .008-.008 0 0 0 0 0-.008 0 0 .01h-.01a.031.031 0 0 0-.009.014c0 .01-.019.037-.017.048 0 0-.008-.014 0-.012a.583.583 0 0 1-.055.058v.009c0 .008 0 0 0 0h.01v.012l-.018.019s-.01.01-.01.02.096.107.104.113v.01c0 .011.009 0 0 0v-.008c.009 0 0-.012.01-.014h.01c.01 0 0 0 0 0h.011c.012-.012.053-.063.064-.077a.779.779 0 0 0 .066-.082.018.018 0 0 0 .012 0v-.014a.338.338 0 0 1 .062-.06c0-.009.01-.012.012-.02 0 0 .038-.035.041-.042 0-.008 0 0 .013 0a.01.01 0 0 1 0-.014v-.018a.038.038 0 0 1 .011-.016s.021-.01.025-.022h.013s-.087-.1-.118-.107a.438.438 0 0 0-.052.045.112.112 0 0 1-.01.015l-.082.03Z" fill="#fff"/><g opacity=".6" fill="#fff"><path opacity=".6" d="M76.614 50.41h-.008s.007.003.008 0Z"/><path opacity=".6" d="M76.515 50.507h-.01c-.01 0 0 0 0 .012a.532.532 0 0 0-.051.056h.01c.01 0 0 0 0 0h-.016c0 .014 0 0-.008.012-.009.012 0 .014 0 .016h-.009s-.008 0 0 .012h-.008a.018.018 0 0 0 0 .014c0 .008-.016.036-.014.046l-.009-.01a.532.532 0 0 1-.046.058v.008h.01v.01l-.017.021s-.008.012 0 .021l.112.106h.008c.009 0 0-.008 0-.008v-.014h.009c.008 0 0 0 0 0h.008c.01-.012.045-.063.054-.077.013-.02.044-.059.056-.08a.03.03 0 0 0 .012-.01v-.011a.308.308 0 0 1 .055-.06c0-.01.009-.014.01-.021 0-.009.033-.036.037-.043 0-.009 0 0 .012 0v-.031s0-.012.008-.015c.009-.004.02-.01.023-.023h-.009a.616.616 0 0 0-.125-.098.284.284 0 0 0-.047.045l-.01.016-.045.048Z"/></g><path opacity=".6" d="M75.883 50.53h-.008c-.009 0 0 .012 0 .016 0 .012-.033.074-.036.087-.004.014 0 0 .01 0s0 0 0 .009 0 0-.015 0V50.679c0 .002 0 0 0 0v.008c0 .008-.009.01 0 .015h-.009a.02.02 0 0 0-.002.009c0 .003 0 .006.002.008v.059l-.012-.009a.642.642 0 0 1-.041.084h-.009v.01h.012v.014c0 .005-.01.02-.017.03-.007.008 0 0 0 0s-.008.017 0 .025l.126.091v.012-.01c0-.01 0 0 .008 0 .009 0 0-.009 0-.01 0 0 0-.016.009-.021 0 0 0-.009.008-.012 0 0 0-.01.01-.012.013-.019.045-.098.054-.117a.904.904 0 0 0 .048-.125s0-.01.01-.014c.01-.003 0 0 0 0v-.019a.684.684 0 0 1 .041-.103v-.029c0-.01.023-.062.024-.072 0-.01 0 0 .009-.014a.01.01 0 0 1-.003-.007c0-.002.001-.005.003-.006v-.05a.08.08 0 0 0 .014-.041h.012a.456.456 0 0 0-.156-.033v.008a.675.675 0 0 0-.028.076v.024l-.064.082Z" fill="#fff"/><path d="M75.616 49.277a.01.01 0 0 0-.001.004.01.01 0 0 0 0 .004.008.008 0 0 0 0-.008Z" fill="#FBFBFB"/><path d="M75.712 49.353v.009c0 .009 0 0 .01 0 0 0 .033.043.04.05.007.007 0 0 0-.009 0-.008 0 0 0 0v.014c.012 0 0 0 .008.01.009.01.012 0 .012 0v.02s.026.023.035.027h-.014c.01.02.017.041.022.063h-.008.022v.038h.155v.008-.049c0-.012 0 0 0 0v-.014a.548.548 0 0 0-.105-.204V49.3c0-.005 0 0 0 0l-.012-.008a.622.622 0 0 1-.06-.076c-.009-.012-.014-.012-.023-.014a.59.59 0 0 0-.051-.043c-.01 0 0 0-.009-.013a.012.012 0 0 1-.015 0h-.022a.049.049 0 0 1-.02-.009c-.008 0-.018-.019-.03-.02v-.012a.648.648 0 0 0-.066.144s.028.024.043.034c.016.01 0 0 0 0h.014l.074.07ZM76.243 48.887a.014.014 0 0 0 0 .013.013.013 0 0 0 0-.013ZM76.3 49.056v.012c0 .012 0 .01.011.012.01.001 0 0 0 0s.028.075.036.089c.009.014 0 0 0-.012v.015c.012.014 0 0 .01.017.01.018.013.009.013.014 0 .005 0 0 0 0h.008c.009 0 0 .009 0 0 0-.008 0 0 0 0s0 .012.009.014a.01.01 0 0 1 .002.006.01.01 0 0 1-.002.006c.003.005.007.01.012.014.008 0 .03.04.04.043h-.015a.8.8 0 0 1 .04.087h.022l.014.033s0 .017.017.02l.146-.05v-.008h.009c.008 0 0-.009 0-.009s-.009 0 0-.008c0-.01-.01-.009-.01-.019V49.306c0-.019-.047-.09-.056-.106-.015-.028-.04-.084-.06-.112-.019-.027 0-.012 0-.017 0-.005 0 0 0 0l-.012-.014a.47.47 0 0 1-.04-.096c-.008 0-.008-.017-.015-.022 0 0-.022-.057-.029-.066v-.015a.012.012 0 0 1-.008.003.012.012 0 0 1-.007-.003.155.155 0 0 1-.017-.017s-.01-.016-.01-.019a.088.088 0 0 0-.016-.038v-.014s-.126.042-.143.07c0 0 .017.052.03.076.011.025 0 0 0 0a.19.19 0 0 0 .013.021l.009.119ZM76.814 48.934v.012c0 .012 0 .012.01.012.013.03.028.06.045.089v-.01c0-.01 0 0 0 0v.017c.014.013 0 0 .01.017s.014.008.014.014v.008c0 .009 0 .009.009 0 .008-.008 0 .009 0 0 0 0 0 .012.008.014v.012c.003.006.007.01.013.014.01 0 .035.04.046.043h-.014c0 .012.045.073.048.085.004.012 0 0 0 0h.022l.016.031s.01.017.019.02l.142-.06h.009c.008 0 0-.008 0 0v-.008c0-.008 0 0 0 0 0-.008-.012-.008-.012-.017v-.014c0-.013 0 0 0 0v-.015c0-.019-.053-.088-.064-.105-.017-.027-.048-.084-.068-.11a.036.036 0 0 0 0-.019l-.012-.012a.617.617 0 0 1-.048-.096c-.009 0-.01-.017-.02-.024 0 0-.025-.056-.034-.065v-.016a.014.014 0 0 1-.015 0l-.024.01s-.01-.015-.014-.018a.074.074 0 0 0-.017-.038v-.014s-.122.05-.137.081v.009c.009.026.02.052.034.077.006.006.01.013.015.02.01.017.017.036.02.056ZM77.429 48.49v.013l.001-.006-.001-.006Z" fill="#FBFBFB"/><path d="M77.52 48.653v.012c0 .012 0 .012.012.01l.043.093v-.013c0-.012 0 0 0 0v.018c.014.013 0 0 .01.017s.012.01.012.015v.009c0 .008 0 0 .009 0s0 .01 0 0v.027a.042.042 0 0 0 .01.018c.009 0 .028.044.038.05h-.014a.498.498 0 0 1 .028.099h-.009.02v.038c0 .012 0 0 0 0s0 .019.013.026h.154V49.053v.01-.022c0-.01-.008-.015 0-.024v-.015c0-.005 0 0 0 0v-.017a1.44 1.44 0 0 0-.1-.28.06.06 0 0 0 0-.02l-.013-.015a.685.685 0 0 1-.053-.113c-.007-.019-.012-.019-.02-.026-.01-.008-.037-.063-.047-.073v-.02c0-.008-.014 0-.017 0l-.023-.017c-.008 0-.015-.015-.019-.02a.108.108 0 0 0-.027-.04v-.013s-.11.074-.119.106h.009v.009c0 .008.03.05.046.074l.016.018c.023.027.038.061.041.097ZM78.222 48.456v.01c0 .01.002-.006 0-.01Z" fill="#FBFBFB"/><path d="M78.297 48.623v.012c0 .012 0 .012.013.012.012 0 0 0 0 0 0 .014.03.08.037.093.007.014 0 0 0-.012v.015c.012.016 0 0 .009.02.009.018.014.008.012.015-.002.007 0 0 0 0s0 .008 0 0c0-.009 0 0 0 0v.027a.034.034 0 0 0 .01.016s.028.044.038.048H78.4c.013.03.023.062.031.094h.01s.013 0 .013.009a.239.239 0 0 0 .008.034s0 .019.014.024l.153-.02v-.02c0-.01-.01-.013 0-.022v-.015c0-.007 0 0 0 0v-.016c0-.022-.038-.104-.047-.127a.955.955 0 0 0-.058-.129v-.018c0-.005 0 0 0 0l-.012-.016a.929.929 0 0 1-.044-.106c-.01 0-.01-.02-.02-.026a.686.686 0 0 0-.035-.07c-.009 0 0 0 0-.018 0-.017-.014 0-.016 0a.16.16 0 0 1-.02-.017.034.034 0 0 1-.016-.02.11.11 0 0 0-.02-.04v-.014s-.119.057-.133.088v.009c0 .008.023.051.038.075l.014.02a.2.2 0 0 1 .037.095ZM78.974 48.522v.01c0 .01 0 .01.01.01.01.027.022.053.035.078v.015c.012.01 0 0 0 .014s.012.008.012.014c0 0 0 .008.008 0 .01-.01 0 0 0 0v.023a.03.03 0 0 0 .01.014c.01 0 .026.036.037.04h-.014c.01.026.02.053.028.08h.02v.03c0 .008 0 0 0 0s0 .015.012.02l.153-.026v-.017c0-.008-.009-.01 0-.019v-.013c0-.006 0 0 0 0v-.014c0-.019-.036-.09-.043-.108a.901.901 0 0 0-.051-.11.028.028 0 0 0 0-.017l-.012-.012a.69.69 0 0 1-.042-.091c-.008 0-.01-.017-.017-.023 0 0-.026-.051-.032-.06v-.015c0-.016-.012 0-.014 0 0 0-.014-.009-.017-.014a.041.041 0 0 1-.014-.017s0-.026-.019-.034v-.012s-.115.063-.129.092v.009c.01.022.02.043.033.063l.014.016.032.074ZM79.202 47.56v.01c0 .01.004-.001 0-.01ZM79.318 47.676v.01c0 .01 0 0 .012 0 .02.02.04.038.063.055v-.012c0-.012 0 0 0 0v.015c.014 0 0 0 .014.009.014.008.014 0 .015 0h.009c.009 0 0 0 0 0s0 .008.012 0v.01h.014c.01 0 .04.017.051.016l-.01.008c.008 0 .058.041.065.05h.009v-.01h.013a.118.118 0 0 0 .023.019s.014.008.022.008l.105-.113h.008c.01 0 0 0 0 0v-.009c0-.008 0 0-.008 0 0-.008-.012 0-.016-.01v-.009c0-.008 0 0 0 0l-.008-.01a.9.9 0 0 0-.084-.058c-.023-.014-.066-.048-.09-.06-.024-.013 0-.009-.008-.013-.009-.003 0 0 0 0h-.016a.365.365 0 0 1-.067-.058c-.01 0-.015 0-.022-.01 0 0-.04-.035-.048-.038v-.012c0-.012-.01 0-.014 0h-.02s-.014 0-.017-.008a.044.044 0 0 0-.026-.024v-.014a.576.576 0 0 0-.095.127.735.735 0 0 0 .052.05s.01.008.017.01c.007.002 0 0 0 0l.045.08ZM79.213 47.055s0 .009.009 0c.008-.008.01 0 .012 0 .001 0 0 0 0 0a.586.586 0 0 0 .077 0v-.008c0-.009 0 0 0 0l.008.012h.016c.015 0 .01-.009.014 0 .003.008 0 0 0 0h.036s.04-.01.046-.02v.014a.586.586 0 0 1 .077 0v-.011s0-.013.009-.01h.047c.006 0 .013-.143.013-.152h-.029c-.012 0 0 0 0 0h-.105a.973.973 0 0 0-.1 0h-.027a.265.265 0 0 1-.082 0h-.092a.01.01 0 0 1-.009.01h-.066v-.012a.57.57 0 0 0 0 .16.419.419 0 0 0 .065 0h.02l.06.017ZM78.598 46.473h.01a.013.013 0 0 0-.01 0Z" fill="#FBFBFB"/><path d="M78.753 46.449h.02a.348.348 0 0 0 .081-.026h-.009c-.008 0 0 0 0 0h.014c.012-.01 0 0 .016 0 .015 0 0-.012.012-.01 0 0 .008 0 0-.009-.009-.008.008 0 0 0-.009 0 0 0 0 0h.022a.017.017 0 0 0 .014-.01c0-.009.032-.03.034-.04v.014c0-.002.062-.038.072-.041.01-.003 0 0 0 0V46.306l.026-.013s.014-.01.015-.02c.002-.008-.07-.125-.073-.135-.01 0 0 .012-.013.012h-.01c-.01 0 0 0 0 0h-.01l-.077.05c-.021.012-.064.034-.085.048-.02.014-.01 0-.013 0-.004 0 0 0 0 0l-.01.009a.23.23 0 0 1-.078.025c0 .009-.014 0-.019.012 0 0-.046.012-.053.016h-.014a.012.012 0 0 1 .003.007c0 .002-.001.005-.003.007a.105.105 0 0 1-.013.013h-.046l-.011-.008a.515.515 0 0 0 .038.154.35.35 0 0 0 .07-.012.224.224 0 0 1 .1-.022ZM78.478 45.915h.012a.01.01 0 0 0-.012 0ZM78.668 45.852h.012c.012 0 .014 0 .014-.012a.592.592 0 0 0 .098-.052h-.012c-.012 0 0 0 0 0h.017c.014-.013 0 0 .019-.012s.009-.015.014-.015h.008c.009 0 .009 0 0-.009-.008-.008.01 0 0 0 0 0 .012 0 .014-.012h.012a.064.064 0 0 0 .015-.015c0-.01.04-.041.042-.053v.013l.084-.068v-.01c0-.011 0 0 0 0h-.01v-.014l.029-.026s.015-.016.017-.026a.896.896 0 0 0-.094-.122v-.01c0-.01-.01 0 0 0h-.01c-.008 0 0 0 0 0s0 .014-.013.015h-.012c-.012 0 0 0 0 0h-.014c-.015.012-.073.069-.09.081-.025.022-.076.058-.102.08a.05.05 0 0 0-.017 0l-.014.013a.384.384 0 0 1-.094.05c0 .01-.017.01-.024.018l-.066.03h-.017c-.007 0 0 .012 0 .013a.09.09 0 0 1-.019.017l-.02.013a.076.076 0 0 0-.041.012h-.012s.029.128.058.147h.009a.538.538 0 0 0 .089-.029.15.15 0 0 1 .022-.014l.108-.003ZM78.35 45.108a.012.012 0 0 0 .01 0s-.01-.003-.01 0ZM78.493 45.022h.012c.012 0 .01 0 .009-.012a.744.744 0 0 0 .075-.051h-.01c-.01 0 0 0 0 0h.017c.01-.014 0 0 .014-.012s0-.014.012-.016c.012-.001 0 0 0 0v-.01c0-.01.008 0 0 0-.009 0 0 0 0 0s.01 0 .01-.01h.012l.012-.014c0-.008.031-.036.031-.046v.013a.534.534 0 0 1 .072-.054l-.008-.01v-.011l.025-.019s.014-.01.016-.019c.002-.008-.074-.125-.079-.134v.009c-.009 0 0 .012-.014.012h-.012c-.012 0 0 0 0 0h-.013c-.016.01-.073.06-.088.07a.943.943 0 0 0-.091.078h-.016c-.005 0 0 0 0 0l-.01.013a.353.353 0 0 1-.08.055c0 .01-.014.012-.02.02 0 0-.047.032-.054.04 0 .009 0 0-.014 0a.016.016 0 0 1 .002.008c0 .003 0 .005-.002.008 0 0-.009.015-.014.019 0 0-.012.012-.015.013-.004.002-.024.009-.033.02h-.012s.067.114.098.126h.008a.497.497 0 0 0 .066-.041l.017-.015a.221.221 0 0 1 .077-.03ZM78.262 44.276h.01c.01 0-.007-.002-.01 0ZM78.4 44.21h.01c.01 0 .01 0 .008-.01a.571.571 0 0 0 .07-.04h-.01c-.01 0 0 0 0 0h.014c.01-.013 0 0 .013-.01.014-.01 0-.014.01-.014.011 0 0 0 0 0v-.008c0-.009.01 0 0 0 0 0 .013 0 .013-.01h.01a.027.027 0 0 0 .012-.013c0-.008.03-.032.031-.042v.013a.598.598 0 0 1 .069-.044l-.009-.01v-.013l.026-.014s.012-.01.014-.018a1.144 1.144 0 0 0-.07-.136v-.009c0-.008-.01 0 0 0 .008 0 0 0 0 0s0 .009 0 0c0 0 0 .012-.014.012h-.023c-.015 0-.069.05-.082.059a.73.73 0 0 0-.086.063h-.016c-.005 0 0 0 0 0l-.008.012a.395.395 0 0 1-.077.045s-.014.01-.018.017c0 0-.046.024-.053.031 0 .009 0 0-.013 0a.01.01 0 0 1 .002.007.01.01 0 0 1-.002.007.051.051 0 0 1-.013.017s-.011.01-.013.014c-.002.003-.024 0-.031.015h-.012a.528.528 0 0 0 .087.134.259.259 0 0 0 .062-.03l.016-.013.082-.012ZM78.176 43.652h.01s-.009-.002-.01 0ZM78.329 43.583h.01c.01 0 .012 0 .01-.012a.363.363 0 0 0 .078-.048h-.01c-.011 0 0 0 0 0h.015c.008-.014 0 0 .013-.012.014-.012 0-.014.01-.014.011 0 0 0 0 0v-.008c0-.009 0 0 0 0s.011 0 .011-.012h.01a.036.036 0 0 0 .01-.014s.03-.038.03-.048c0 0 .008.014 0 .014a.712.712 0 0 1 .065-.06h-.01v-.012l.024-.021s.012-.012.012-.022l-.1-.117v-.009c0-.008-.008 0 0 0H78.5c-.009 0 0 0 0 0-.009 0 0 .012-.012.014h-.01c-.011 0 0 0 0 0h-.011l-.072.074c-.019.019-.062.051-.08.074-.02.022-.01 0-.014 0-.006 0 0 0 0 0l-.01.012a.344.344 0 0 1-.076.048s-.014.01-.018.017c0 0-.046.024-.053.03h-.014a.017.017 0 0 1 .003.009c0 .002-.001.005-.003.007a.082.082 0 0 1-.011.018s-.013 0-.016.012a.063.063 0 0 0-.033.012h-.012s.048.121.078.139a.368.368 0 0 0 .07-.031l.017-.014.107-.026ZM76.696 38.951s.01 0 .01-.008c0-.009 0 0 0 0a.386.386 0 0 0 .072-.023h-.008c-.009 0 0 0 0 0h.013c.01-.01 0 0 .014 0s0-.01.01-.01c0 0 .009 0 0 0-.008 0 0 0 0 0h.022a.021.021 0 0 0 .013-.009s.032-.022.034-.032v.014a.57.57 0 0 1 .07-.026v-.02h.026s.014 0 .017-.015c.004-.013-.04-.139-.043-.149v-.009c0-.008 0 0 0 0h-.025c-.01 0 0 0 0 0h-.012l-.085.038c-.02.01-.067.028-.089.041h.007l-.01.009a.253.253 0 0 1-.078.024c0 .009-.013 0-.018.012 0 0-.045.012-.052.017h-.014a.012.012 0 0 1 0 .014l-.013.014h-.017a.04.04 0 0 0-.03 0h-.01a.644.644 0 0 0 .057.15.232.232 0 0 0 .061-.016l.018-.009s.058-.008.06-.007ZM68.023 42.768s.004-.002 0 0ZM68.102 42.085s0 .008 0 0c0-.009 0 0 0 0a.207.207 0 0 0 .057 0v.012h.012c.012 0 .009-.009.01 0 .002.008 0 0 0 0h.02s.03-.012.035-.021v.014a.316.316 0 0 1 .057 0V42.069h.034c.004 0 .01-.142.01-.153h-.091a.51.51 0 0 0-.082 0h-.01a.173.173 0 0 1-.06 0H68.025a.01.01 0 0 1 .001.006.01.01 0 0 1-.001.005h-.05v-.01a.835.835 0 0 0 0 .159.257.257 0 0 0 .048 0h.014l.065.009ZM68.207 41.36h.009c.008 0 0 0 0 0a.128.128 0 0 0 .04.014v-.009c0-.008 0 0 0 0v.014h.01c.008 0 0 0 0 0h.017s.024 0 .027-.014v.014c0-.002.036 0 .041.009.005.008 0 0 0 0v-.012s0-.01 0 0H68.377c.004 0 .038-.14.041-.15h-.12c-.015 0 0 0 0 0h-.008a.098.098 0 0 1-.045-.013h-.014s-.026-.01-.03 0a.01.01 0 0 1 0 .01H68.18c-.002 0-.01-.01-.018 0v-.01a1.08 1.08 0 0 0-.032.156c.01.006.022.011.034.014h.01s.033-.025.033-.023ZM68.398 40.798s.026.014.03.012c.006-.001 0 0 0 0v.012h.01s.018 0 .023-.012v.014h.033c.003 0 0 0 0 0v-.01h.02c.01 0 .045-.137.049-.148a.309.309 0 0 0-.043 0h-.045a.067.067 0 0 1-.034-.013h-.01s-.02-.01-.025 0a.016.016 0 0 1 0 .01h-.01s0-.01-.014 0v-.01a1.42 1.42 0 0 0-.043.152.068.068 0 0 0 .026.016h.009l.024-.023Z" fill="#FBFBFB"/><path opacity=".2" d="M71.232 38.678c.114.508.3.997.552 1.451a.702.702 0 0 0 .316.343c.264.109.542-.106.748-.303a.496.496 0 0 0 .431.484 1.06 1.06 0 0 0 .687-.172c.524-.325.97-.76 1.312-1.274-.305.25-.626.48-.96.687-.234.146-.529.285-.776.161-.248-.123-.356-.45-.62-.468-.343-.024-.54.515-.88.46-.193-.028-.301-.234-.377-.414l-.41-.979M74.994 51.895a.624.624 0 0 1 .065-.487.517.517 0 0 1 .39-.153c.325.017.646.084.95.2.707.21 1.445.3 2.182.27-.325.26-.725.409-1.14.426a5.832 5.832 0 0 1-1.233-.086l-1.276-.171" fill="#000"/><path d="m66.047 70.362.05 7.214 3.24-.232.725-7.027-4.015.045Z" fill="#FFBE9D"/><path d="M69.45 75.928s-2.28 1.619-3.384.218l-.288.678-1.298 4.838a.65.65 0 0 0 .365.776.625.625 0 0 0 .663-.127c.94-.893 4.373-4.192 4.34-4.635l-.013-1.189a.604.604 0 0 0-.385-.556v-.003Z" fill="#FC7387"/><path opacity=".6" d="m64.957 82.47 4.893-5.207v.26c.024.281-.098.39-.232.571-.396.534-1.492 1.73-4.09 4.222a.623.623 0 0 1-.57.16l-.001-.005ZM69.133 76.486a.38.38 0 0 0-.107.494.365.365 0 0 0 .491.11.402.402 0 0 0 .11-.525.38.38 0 0 0-.523-.057" fill="#fff"/><path d="M66.367 79.801c-.035.017-.172-.304-.535-.479-.362-.175-.697-.1-.703-.137-.007-.038.072-.062.214-.082a1.001 1.001 0 0 1 .96.477c.07.125.079.216.064.221ZM65.925 80.618c-.029.028-.224-.171-.54-.264-.316-.093-.588-.041-.598-.08-.01-.04.278-.16.637-.049.359.112.536.378.501.393ZM67.184 78.753c-.03.03-.328-.28-.809-.467-.48-.187-.906-.171-.906-.214 0-.043.444-.117.956.089.511.206.788.575.759.592ZM67.299 77.28c-.017.037-.354-.106-.795-.123-.441-.017-.788.086-.802.048-.014-.037.343-.206.809-.182.465.024.8.23.788.258Z" fill="#263238"/><path d="M66.246 77.143a.56.56 0 0 1 .035-.228c.06-.206.16-.397.293-.564a.713.713 0 0 1 .364-.278.249.249 0 0 1 .268.109c.05.087.066.19.045.288a.887.887 0 0 1-.915.664 1.03 1.03 0 0 1-.895-.716.353.353 0 0 1 .04-.293.247.247 0 0 1 .278-.083c.141.061.265.158.357.282.14.16.25.345.324.544.035.07.053.147.055.225a2.88 2.88 0 0 0-.448-.706.8.8 0 0 0-.317-.237.133.133 0 0 0-.153.043.258.258 0 0 0-.014.196.918.918 0 0 0 .783.61.769.769 0 0 0 .785-.551.298.298 0 0 0-.023-.205.137.137 0 0 0-.147-.06.634.634 0 0 0-.313.23 2.38 2.38 0 0 0-.402.73Z" fill="#263238"/><path d="m58.417 64.152-3.964 7.526 3.164 1.895 5.118-7.21-4.318-2.21Z" fill="#FFBE9D"/><path d="m54.947 70.672-.129.208s-4.42-.752-4.87-.103l7.061 4.292 1.33-2.404c-1.342-.161-2.477-.774-3.392-1.993Z" fill="#FC7387"/><path opacity=".6" d="M57.169 72.971a.343.343 0 0 1 0 .45.324.324 0 0 1-.447 0 .356.356 0 0 1 0-.478.343.343 0 0 1 .464.049M57.01 75.064l.32-.58-6.886-3.896s-.397-.055-.497.189l7.062 4.287Z" fill="#fff"/><path d="M54.78 70.885c-.019.036.145.156.246.369s.105.414.146.419c.041.005.11-.225-.02-.481-.128-.256-.36-.343-.372-.307ZM53.855 70.739c-.029.027.086.171.114.395.027.223-.031.391 0 .41.03.019.171-.163.133-.43-.037-.269-.226-.404-.247-.375ZM52.895 71.372c.028.028.172-.117.206-.359.035-.242-.089-.415-.121-.396-.033.018 0 .182-.018.38-.017.2-.098.351-.067.375Z" fill="#263238"/><path d="M62.155 65.567V81h1.05V64.34l-1.05 1.228ZM78.433 63.152h-1.021v17.85h1.021v-17.85ZM77.412 65.567H63.206v1.14h14.206v-1.14Z" fill="#E0E0E0"/><path d="M78.282 59.92H63.85a.644.644 0 0 0-.644.645v1.942c0 .355.288.644.644.644h14.432a.644.644 0 0 0 .644-.644v-1.942a.644.644 0 0 0-.644-.644Z" fill="#FC7387"/><path d="M77.752 52.263s2.136 3.791 1.82 6.44c-.316 2.65-.9 2.65-.9 2.65l-6.924-.381-.995-8.326 1.688-.946 5.31.563Z" fill="#14181B"/><path d="m59.706 43.635 1.731 8.247 8.173.757 5.27-.362-1.91-1.827-2.217.474-.788-7.98-10.259.691Z" fill="#0A0070"/><path d="M71.098 50.426c.24.66 1.364.04 1.364.04l-.078 1.174-.7.5s0 .315.462.343c.217.029.438.013.649-.048l.025.156a.367.367 0 0 0 .354.31.458.458 0 0 0 .218-.035s.491.355.955.097c.285-.168.495-.44.585-.758l.076-.97.594-.413s.49-.904-.124-1.528a1.22 1.22 0 0 0-1.253-.274l-.951.316a.972.972 0 0 0-.677.18 7.276 7.276 0 0 1-.528.355c0 .005-1.02.417-.97.555Z" fill="#FFBE9D"/><path d="M73.308 51.396c.012 0 .03.075.045.197.028.163.028.33 0 .493a.53.53 0 0 1-.129.253.445.445 0 0 1-.2.122c-.135.034-.212-.023-.205-.03.007-.007.08.012.185-.03a.459.459 0 0 0 .263-.335c.024-.155.032-.313.024-.47-.009-.123-.002-.198.017-.2ZM72.462 50.465c.03.195.03.394 0 .59.001.197-.027.395-.084.585a3.963 3.963 0 0 1 .077-1.175h.007ZM74.098 51.68a.58.58 0 0 1 .044.229.966.966 0 0 1-.102.562.883.883 0 0 1-.445.358c-.138.053-.227.062-.23.05.064-.042.132-.078.204-.106a.975.975 0 0 0 .393-.344c.08-.16.12-.336.117-.515.003-.148.005-.233.019-.233Z" fill="#EB996E"/><path d="M75.39 51.166c.063-.149.137-.292.222-.43.077-.152.124-.318.14-.489a1.214 1.214 0 0 0-.464-1.093 1.39 1.39 0 0 0-.453-.229 3.379 3.379 0 0 0-.473-.075.342.342 0 0 1 .13-.02 1.345 1.345 0 0 1 .846.258 1.252 1.252 0 0 1 .496 1.166 1.36 1.36 0 0 1-.172.515c-.06.103-.125.203-.196.299-.043.069-.07.106-.075.098Z" fill="#263238"/><path d="M65.611 47.505a.515.515 0 1 1-1.03 0 .515.515 0 0 1 1.03 0Z" fill="#FAFAFA"/><path d="m66.612 56.55-.046.027a3.261 3.261 0 0 0-1.578 2.95l.515 11.16 5.012.505.161-10.096 2.083-.252-3.47-3.892a2.12 2.12 0 0 0-2.677-.402Z" fill="#14181B"/><path d="m57.117 66.176 6.681-13.404s.946-1.39 2.272-1.325c1.325.063 9.589 2.712 9.589 2.712v6.751l-2.902-.063-6.562-.63-4.428 8.557-4.65-2.598Z" fill="#14181B"/><path d="M73.068 60.855a.32.32 0 0 1-.053-.059l-.15-.171-.565-.687-2.03-2.517c-.492-.79-1.617-1.259-2.748-1.066-.586.094-1.13.359-1.566.762-.225.21-.407.462-.534.742-.123.29-.199.6-.223.915-.028.381-.037.764-.026 1.147 0 .38 0 .753.01 1.12l.038 2.116c.03 1.348.069 2.564.107 3.582.038 1.018.077 1.839.101 2.415.012.28.02.5.028.656v.172a.3.3 0 0 1 0 .058.283.283 0 0 1 0-.056c0-.043 0-.1-.014-.172-.012-.154-.026-.374-.045-.654-.036-.57-.084-1.394-.129-2.414-.044-1.02-.092-2.232-.127-3.583-.013-.675-.027-1.383-.043-2.117 0-.368-.004-.741-.012-1.12-.01-.386-.002-.772.026-1.157a3 3 0 0 1 .23-.943c.133-.29.322-.552.556-.769a3.09 3.09 0 0 1 1.613-.783c1.153-.194 2.31.29 2.814 1.113l2.009 2.529c.233.3.419.535.547.7l.141.184a.498.498 0 0 1 .045.057Z" fill="#455A64"/><path d="M70.594 65.588c-.026 0-.045-1.404-.045-3.137 0-1.732.019-3.135.044-3.135.026 0 .045 1.404.045 3.135 0 1.73-.02 3.137-.044 3.137ZM77.242 55.07a.324.324 0 0 1-.095-.03l-.263-.106-.965-.395c-.815-.33-1.948-.769-3.215-1.201a84.71 84.71 0 0 0-3.273-1.05l-1-.29-.272-.08a.327.327 0 0 1-.093-.035.59.59 0 0 1 .098.017l.276.066c.24.056.584.146 1.008.262a54.649 54.649 0 0 1 6.495 2.266c.406.172.732.318.955.421l.256.122c.03.008.06.02.088.033Z" fill="#455A64"/><path d="M77.443 53.623a4.699 4.699 0 0 1-.617-.024c-.378-.023-.901-.05-1.482-.064l-1.483-.03a4.239 4.239 0 0 1-.615-.032.558.558 0 0 1 .172-.017c.106 0 .261-.01.45-.014.381 0 .906-.012 1.487 0 .58.012 1.105.05 1.483.09.19.019.344.037.448.055a.693.693 0 0 1 .157.036ZM62.582 67.075c-.014 0-.19-.242-.527-.603a7.006 7.006 0 0 0-1.487-1.203 7.165 7.165 0 0 0-1.763-.754c-.476-.129-.78-.172-.778-.182a.84.84 0 0 1 .215.015c.084.008.168.02.25.038.098.019.21.036.328.069.284.067.563.155.835.263.33.134.652.292.96.473a6.417 6.417 0 0 1 1.49 1.238c.086.091.153.182.215.26.054.064.104.132.15.202a.938.938 0 0 1 .112.184ZM70.745 69.607c0 .016-.278-.133-.738-.324a8.497 8.497 0 0 0-3.8-.618c-.496.034-.802.09-.803.074.068-.025.139-.042.21-.052.195-.038.39-.067.588-.084a7.705 7.705 0 0 1 3.83.622c.181.079.358.168.53.267.065.032.126.07.183.115Z" fill="#455A64"/></svg>