<svg width="46" height="60" fill="none" xmlns="http://www.w3.org/2000/svg"><path d="M43.855 44.496h2v-2h-2v2Zm0 9.504v2h2v-2h-2ZM5.767 54h-2v2h2v-2Zm0-7.56-1.374-1.454-.626.592v.862h2Zm19.44-18.36 1.373 1.454.007-.006-1.38-1.448Zm4.176-5.04 1.776.919.006-.012.007-.013-1.79-.894Zm-1.008-8.856-1.27 1.546.03.024.03.023 1.21-1.593Zm-11.952-.36.835 1.817.02-.009.02-.01-.875-1.798Zm-4.464 3.744-1.083 1.681 1.602 1.033 1.108-1.552-1.627-1.162Zm-8.496-5.472-1.66-1.116-1.138 1.693 1.715 1.104 1.083-1.681Zm8.136-6.84.854 1.808.01-.004.01-.005-.874-1.799Zm21.672-.648-.819 1.825.02.008.018.008.78-1.841Zm6.552 5.184-1.654 1.126.014.02.015.02 1.625-1.166Zm.648 15.552 1.803.865-1.803-.865Zm-6.696 8.208-1.36-1.466-.007.006-.006.006 1.373 1.454ZM22.183 44.496l-1.373-1.454-3.66 3.454h5.033v-2Zm19.672 0V54h4v-9.504h-4Zm2 7.504H5.767v4h38.088v-4ZM7.767 54v-7.56h-4V54h4Zm-.627-6.106 19.44-18.36-2.747-2.908-19.44 18.36 2.747 2.908Zm19.447-18.366c2.115-2.018 3.699-3.88 4.572-5.57l-3.553-1.837c-.566 1.095-1.767 2.593-3.78 4.512l2.76 2.895Zm4.585-5.594c.837-1.674 1.29-3.394 1.29-5.142h-4c0 1.036-.265 2.148-.868 3.354l3.578 1.788Zm1.29-5.142c0-2.532-.907-4.706-2.879-6.201l-2.417 3.186c.812.617 1.297 1.515 1.297 3.015h4Zm-2.818-6.154c-1.846-1.516-4.372-2.11-7.245-2.11v4c2.406 0 3.864.51 4.706 1.201l2.54-3.09Zm-7.245-2.11c-2.475 0-4.772.486-6.851 1.497l1.75 3.598c1.472-.717 3.16-1.095 5.1-1.095v-4Zm-6.811 1.479c-2.111.97-3.866 2.452-5.257 4.399l3.255 2.325c1.01-1.414 2.23-2.427 3.672-3.09l-1.67-3.634Zm-2.546 3.88-8.496-5.472-2.166 3.362 8.496 5.472 2.166-3.362Zm-7.92-2.675c1.75-2.604 4.173-4.656 7.33-6.148l-1.707-3.617C6.99 5.22 3.989 7.728 1.803 10.98l3.32 2.232Zm7.351-6.157c3.143-1.528 6.796-2.319 11.006-2.319v-4c-4.718 0-8.986.889-12.755 2.721l1.749 3.598Zm11.006-2.319c3.524 0 6.498.587 8.974 1.697l1.636-3.65C30.996 1.397 27.442.736 23.479.736v4Zm9.011 1.713c2.525 1.07 4.386 2.57 5.68 4.469l3.306-2.252c-1.779-2.612-4.286-4.57-7.425-5.9L32.49 6.45Zm5.708 4.509c1.313 1.83 2 4.027 2 6.682h4c0-3.393-.895-6.428-2.75-9.014l-3.25 2.332Zm2 6.682c0 2.445-.512 4.716-1.53 6.838l3.606 1.731c1.285-2.677 1.925-5.542 1.925-8.569h-4Zm-1.53 6.838c-.994 2.07-3.015 4.604-6.254 7.608l2.72 2.932c3.387-3.14 5.829-6.078 7.14-8.809l-3.606-1.73Zm-6.266 7.62L20.81 43.042l2.746 2.908 11.592-10.944-2.746-2.908Zm-10.22 14.398h21.673v-4H22.183v4Z" fill="#273CFD"/></svg>