<svg width="45" height="58" fill="none" xmlns="http://www.w3.org/2000/svg"><path d="M28.743 23.12 27.24 21.8l-2.381 2.713 3.562.58.322-1.973Zm10.152 4.968-1.482 1.344.007.007.006.007 1.469-1.358Zm1.224 17.64 1.694 1.063.004-.007.005-.008-1.703-1.048Zm-7.056 5.904-.85-1.81-.011.005.86 1.805Zm-22.032.864-.543 1.925.016.005.016.004.51-1.934Zm-8.712-4.032-1.783-.906-.777 1.528 1.391 1.001 1.169-1.623Zm4.536-8.928 1.2-1.6-1.905-1.428-1.078 2.122 1.783.906Zm6.624 3.384-.622 1.901.022.007.022.007.578-1.915Zm14.688-.504 1.098 1.671.016-.01.017-.011-1.131-1.65ZM15.927 31.4h-2v2h2v-2Zm0-7.704-1.5-1.324-.5.567v.757h2ZM26.295 11.96l1.498 1.324L30.73 9.96h-4.435v2Zm-21.456 0h-2v2h2v-2Zm0-9.36v-2h-2v2h2Zm35.28 0h2v-2h-2v2Zm0 7.56 1.503 1.32.497-.567v-.753h-2ZM28.42 25.094c4.095.668 7.02 2.165 8.992 4.338l2.963-2.688c-2.732-3.01-6.575-4.826-11.311-5.598l-.644 3.948Zm9.005 4.352c1.977 2.138 2.997 4.806 2.997 8.146h4c0-4.244-1.333-7.912-4.06-10.862l-2.937 2.716Zm2.997 8.146c0 2.558-.666 4.907-2.008 7.088l3.407 2.096c1.73-2.81 2.6-5.886 2.6-9.184h-4Zm-1.998 7.073c-1.293 2.06-3.318 3.797-6.213 5.157l1.7 3.62c3.442-1.616 6.121-3.815 7.9-6.651l-3.387-2.126Zm-6.223 5.162c-2.78 1.325-6.306 2.037-10.66 2.037v4c4.768 0 8.921-.776 12.382-2.427l-1.722-3.61Zm-10.66 2.037c-3.378 0-6.71-.433-10.001-1.302l-1.02 3.868a43.03 43.03 0 0 0 11.022 1.434v-4Zm-9.97-1.293c-3.225-.909-5.908-2.163-8.085-3.73L1.15 50.087c2.623 1.888 5.749 3.323 9.338 4.334l1.085-3.85Zm-7.47-1.201 4.536-8.928-3.566-1.812-4.536 8.928 3.566 1.812Zm1.553-8.234c2.11 1.583 4.518 2.807 7.202 3.685l1.243-3.802c-2.307-.754-4.316-1.786-6.045-3.083l-2.4 3.2Zm7.246 3.699a28.765 28.765 0 0 0 8.354 1.237v-4c-2.443 0-4.84-.355-7.198-1.067l-1.156 3.83Zm8.354 1.237c3.15 0 5.887-.59 8.01-1.985l-2.197-3.342c-1.236.812-3.107 1.327-5.813 1.327v4Zm8.043-2.007c2.232-1.53 3.389-3.76 3.389-6.473h-4c0 1.415-.524 2.401-1.651 3.175l2.262 3.298Zm3.389-6.473c0-2.66-1.063-4.873-3.26-6.316-2.051-1.346-4.873-1.876-8.172-1.876v4c2.988 0 4.883.502 5.976 1.22.947.621 1.456 1.504 1.456 2.972h4ZM21.255 29.4h-5.328v4h5.328v-4Zm-3.328 2v-7.704h-4V31.4h4Zm-.502-6.38 10.369-11.736-2.998-2.648-10.368 11.736 2.997 2.648Zm8.87-15.06H4.839v4h21.456v-4Zm-19.456 2V2.6h-4v9.36h4Zm-2-7.36h35.28v-4H4.839v4Zm33.28-2v7.56h4V2.6h-4Zm.496 6.24L27.24 21.8l3.007 2.64 11.376-12.96-3.007-2.64Z" fill="#273CFD"/></svg>