<svg width="52" height="58" fill="none" xmlns="http://www.w3.org/2000/svg"><path d="M48.96 42.416v2h2v-2h-2Zm-8.208 0v-2h-2v2h2Zm0 10.584v2h2v-2h-2Zm-11.376 0h-2v2h2v-2Zm0-10.584h2v-2h-2v2Zm-27.144 0h-2v2h2v-2Zm0-7.848L.627 33.375l-.395.531v.662h2ZM25.992 2.6v-2h-1.005l-.6.807L25.992 2.6Zm12.24 0 1.618 1.176L42.158.6h-3.926v2ZM16.2 32.912l-1.618-1.176-2.308 3.176H16.2v-2Zm13.536 0v2h2v-2h-2Zm0-9.432v-2h-2v2h2Zm11.016 0h2v-2h-2v2Zm0 9.432h-2v2h2v-2Zm8.208 0h2v-2h-2v2Zm0 7.504h-8.208v4h8.208v-4Zm-10.208 2V53h4V42.416h-4Zm2 8.584H29.376v4h11.376v-4Zm-9.376 2V42.416h-4V53h4Zm-2-12.584H2.232v4h27.144v-4Zm-25.144 2v-7.848h-4v7.848h4Zm-.395-6.655 23.76-31.968-3.21-2.386L.627 33.375l3.21 2.386ZM25.992 4.6h12.24v-4h-12.24v4Zm10.622-3.176L14.582 31.736l3.236 2.352L39.85 3.776l-3.236-2.352ZM16.2 34.912h13.536v-4H16.2v4Zm15.536-2V23.48h-4v9.432h4Zm-2-7.432h11.016v-4H29.736v4Zm9.016-2v9.432h4V23.48h-4Zm2 11.432h8.208v-4h-8.208v4Zm6.208-2v9.504h4v-9.504h-4Z" fill="#273CFD"/></svg>