<svg width="122" height="290" fill="none" xmlns="http://www.w3.org/2000/svg"><path d="M145.692 197.227c-15.246 6.665-33.827 2.742-49.423-9.064 1.61 22.171 24.795 41.456 34.978 47.134.708.394 1.24.997 1.585 1.709.042.086.085.172.134.258 1.077 1.898 3.294 2.681 4.956 1.748.82-.459 1.348-1.251 1.547-2.16 1.214 1.336 3.006 1.871 4.522 1.296.16-.059.319-.13.471-.215 1.056-.593 1.69-1.666 1.834-2.875 1.321 1.106 3.092 1.405 4.51.609a3.27 3.27 0 0 0 .384-.254c1.18-.885 1.694-2.451 1.401-4.028.788.255 1.628.211 2.353-.195 1.501-.842 1.932-2.917.957-4.635l-.003-.004a2.063 2.063 0 0 1-.285-1.136c.472-8.731-9.811-28.042-9.811-28.042l-.11-.146Z" fill="#E8B17E"/><path d="M145.59 197.597c-.966.416-1.868.824-2.869 1.177l-1.602.477-.802.239-.401.118-.41.086-1.636.346c-.546.117-1.09.242-1.644.299l-1.655.219-.829.108-.833.045c-4.438.32-8.905-.069-13.222-1.015-4.321-.947-8.498-2.449-12.454-4.361-3.961-1.913-7.702-4.236-11.201-6.866l.63-.338v.002c.545 5.907 2.59 11.568 5.425 16.746 2.862 5.178 6.456 9.949 10.502 14.302 4.066 4.332 8.494 8.357 13.304 11.877 1.204.874 2.419 1.739 3.672 2.543l.944.592.956.567a4.416 4.416 0 0 1 1.762 1.801c.106.204.166.338.249.484.086.141.17.283.272.413.195.266.423.508.683.714.507.421 1.14.689 1.788.748a2.85 2.85 0 0 0 .961-.084c.308-.09.606-.23.863-.426.521-.387.887-.98 1.046-1.635l.192-.706.481.522a4.439 4.439 0 0 0 1.687 1.159c.642.239 1.348.307 2.005.155.331-.072.638-.213.933-.376.288-.174.54-.401.756-.659.43-.519.687-1.177.77-1.856l.086-.717.557.464a4.14 4.14 0 0 0 1.996.927 3.165 3.165 0 0 0 2.114-.385 3.174 3.174 0 0 0 1.368-1.65 4.074 4.074 0 0 0 .178-2.184l-.002-.008-.1-.656.61.217c.68.242 1.456.223 2.083-.135.636-.344 1.086-.991 1.248-1.714.169-.725.069-1.506-.231-2.199l-.126-.256c-.043-.086-.103-.193-.144-.292a2.325 2.325 0 0 1-.173-.652 2.143 2.143 0 0 1-.009-.34l.008-.301.012-.594c-.036-1.593-.301-3.183-.652-4.749a48.065 48.065 0 0 0-1.319-4.641c-1.022-3.054-2.231-6.049-3.524-8.999-1.306-2.947-2.75-5.843-4.422-8.597l.03.047c.001.012.047.023.089-.003Zm.205-.745c.116.072.235.183.313.298l.024.038.006.01 3.98 8.847c1.317 2.949 2.545 5.939 3.592 9.001a60.17 60.17 0 0 1 1.389 4.654c.387 1.573.69 3.179.759 4.82l-.002.619-.001.306a1.746 1.746 0 0 0 .161.778c.036.086.078.154.128.248l.151.282c.366.773.513 1.665.342 2.534-.162.864-.691 1.705-1.5 2.177-.798.487-1.811.56-2.674.289l.509-.441.003.011a4.842 4.842 0 0 1-.218 2.593 3.996 3.996 0 0 1-1.706 2.049 3.984 3.984 0 0 1-2.631.485 4.907 4.907 0 0 1-2.377-1.096l.643-.254c-.098.807-.404 1.605-.943 2.255a3.84 3.84 0 0 1-.951.827c-.366.208-.76.383-1.173.475-.826.191-1.691.101-2.456-.185a5.197 5.197 0 0 1-1.986-1.361l.674-.182c-.157.809-.579 1.611-1.266 2.161a3.58 3.58 0 0 1-1.151.618c-.42.129-.862.181-1.294.161a4.316 4.316 0 0 1-2.36-.886 4.564 4.564 0 0 1-.897-.875 4.726 4.726 0 0 1-.353-.514c-.11-.177-.208-.382-.279-.507a3.265 3.265 0 0 0-1.366-1.336l-.997-.562-.978-.585a69.272 69.272 0 0 1-3.788-2.517 90.246 90.246 0 0 1-13.53-12.005c-4.076-4.439-7.741-9.293-10.559-14.639-2.82-5.322-4.801-11.18-5.15-17.242l-.001-.002-.091-.881.719.541c3.461 2.602 7.162 4.899 11.072 6.788 3.909 1.888 8.028 3.366 12.282 4.299 4.25.932 8.641 1.314 12.995.999l.817-.046.81-.106 1.624-.214c.544-.054 1.077-.176 1.611-.292l1.602-.339.401-.085.393-.116.786-.233 1.57-.468c.53-.172 1.099-.412 1.651-.606l1.671-.588Z" fill="#281400"/><path opacity=".7" d="M145.672 197.32c-4.511 1.971-9.312 3.01-14.243 3.2 3.072.055 9.974.853 13.62 6.64 4.781 7.586 15.812 20.623-5.601 29.789 1.214 1.336 3.007 1.871 4.522 1.296.16-.059.32-.13.471-.215 1.056-.593 1.69-1.666 1.835-2.875 1.32 1.106 3.091 1.405 4.51.609.135-.075.261-.161.383-.254 1.18-.885 1.694-2.451 1.401-4.028.788.255 1.628.211 2.353-.195 1.501-.842 1.932-2.917.957-4.635l-.002-.004a2.064 2.064 0 0 1-.286-1.136c.472-8.731-9.81-28.042-9.81-28.042l-.11-.15Z" fill="#E8B17E"/><path d="M125.101 88.144c-4.633 9.23-12.862 17.897-23.812 24.041-10.93 6.133-22.622 8.658-32.948 7.839a205.5 205.5 0 0 0-2.744 2.729 3.925 3.925 0 0 1-.62.519c-.713 12.988 2.57 27.357 10.181 40.781 5.56 9.804 12.749 17.904 20.72 23.942 15.568 11.791 34.113 15.708 49.338 9.051a37.535 37.535 0 0 0 3.337-1.661c23.308-13.078 28.237-48.308 11.011-78.687-7.611-13.424-18.275-23.651-29.816-29.764-.228.11-.489.195-.769.26-1.278.297-2.573.614-3.878.95Z" fill="#FFF9C5"/><path d="M125.343 88.442c-.296.6-.569 1.168-.907 1.77-.367.617-.711 1.246-1.094 1.852a52.593 52.593 0 0 1-2.42 3.564 57.241 57.241 0 0 1-5.646 6.516c-4.085 4.058-8.753 7.532-13.778 10.361-5.033 2.815-10.433 4.999-16.035 6.381-5.6 1.382-11.413 1.964-17.161 1.521l.307-.112-1.654 1.645-.826.824c-.266.262-.568.587-.94.823l-.001.001.176-.303a63.15 63.15 0 0 0-.02 8.098c.049.675.084 1.347.145 2.021l.211 2.015c.075.672.193 1.335.287 2.006.09.67.21 1.334.34 1.997.228 1.331.54 2.645.83 3.965.342 1.307.66 2.618 1.063 3.908.368 1.298.814 2.574 1.252 3.851.486 1.259.94 2.531 1.482 3.768.506 1.25 1.086 2.47 1.653 3.695.285.613.606 1.207.91 1.809l.461.901.487.886a76.657 76.657 0 0 0 4.214 6.91l1.167 1.652 1.208 1.624 1.26 1.585 1.3 1.55a75.463 75.463 0 0 0 5.625 5.804 75.269 75.269 0 0 0 12.931 9.575c.573.346 1.17.652 1.742 1 .577.341 1.139.706 1.72 1.039.592.318 1.185.627 1.783.935l.898.457c.301.151.613.273.92.412l1.846.81.461.203.472.174.946.348c.634.227 1.255.483 1.895.688l1.931.586a45.716 45.716 0 0 0 15.991 1.813c2.688-.239 5.383-.631 7.973-1.434 1.317-.327 2.569-.856 3.84-1.324 1.265-.49 2.479-1.102 3.671-1.749a38.515 38.515 0 0 0 6.635-4.693l.758-.682.377-.34.359-.362c.471-.488.954-.966 1.419-1.459l1.329-1.543c.439-.517.828-1.074 1.243-1.612a44.643 44.643 0 0 0 4.159-6.978c1.152-2.453 2.081-5.004 2.829-7.603.768-2.597 1.246-5.267 1.595-7.944.367-2.678.449-5.385.433-8.08l-.052-2.021-.143-2.016a30.768 30.768 0 0 0-.192-2.01c-.083-.668-.139-1.339-.24-2.005-.208-1.33-.394-2.663-.675-3.979-.237-1.323-.571-2.628-.881-3.934-2.714-10.397-7.413-20.239-13.757-28.911-.777-1.096-1.633-2.132-2.458-3.192-.871-1.025-1.722-2.064-2.634-3.051-.882-1.016-1.828-1.971-2.758-2.945-.965-.938-1.919-1.89-2.928-2.779a72.75 72.75 0 0 0-13.116-9.462h-.004l.353.006c-.405.197-.858.29-1.208.376l-1.116.269-2.243.529Zm-.486-.594 2.424-.628 1.217-.304c.427-.105.764-.175 1.082-.33l.175-.086.178.093.003.001c2.453 1.236 4.813 2.65 7.089 4.18 2.288 1.518 4.442 3.223 6.515 5.015 1.048.886 2.034 1.834 3.037 2.766.964.97 1.95 1.924 2.867 2.942.948.99 1.814 2.049 2.709 3.085.848 1.071 1.727 2.122 2.526 3.233a81.371 81.371 0 0 1 8.432 14.031 77.151 77.151 0 0 1 5.32 15.466c.283 1.336.587 2.667.793 4.016.255 1.34.412 2.699.59 4.052.088.677.128 1.359.193 2.039.064.679.125 1.359.146 2.043l.094 2.046.015 2.049c-.004 5.462-.665 10.941-2.109 16.244-.738 2.644-1.662 5.247-2.821 7.756a45.447 45.447 0 0 1-4.192 7.155c-3.205 4.539-7.453 8.363-12.3 11.177-1.22.69-2.468 1.336-3.766 1.872-1.304.515-2.592 1.085-3.952 1.451-2.67.885-5.457 1.347-8.244 1.647a47.367 47.367 0 0 1-16.619-1.552l-2.012-.564c-.668-.199-1.317-.448-1.976-.671l-.987-.343-.493-.172-.481-.2-1.925-.8c-.318-.139-.646-.26-.958-.409l-.936-.454c-.625-.299-1.255-.596-1.886-.885-.631-.294-1.235-.632-1.851-.955-.607-.334-1.224-.659-1.798-1.045l-1.722-1.157-.862-.579c-.287-.193-.554-.412-.834-.615-1.098-.837-2.222-1.637-3.273-2.528a73.219 73.219 0 0 1-6.018-5.623c-7.537-7.944-13.587-17.175-17.73-27.218-4.14-10.028-6.34-20.906-5.937-31.84l.007-.187.17-.117.002-.001c.288-.186.526-.436.81-.721l.832-.826 1.66-1.651.125-.126.182.014c5.652.436 11.383-.136 16.908-1.5 5.531-1.364 10.863-3.52 15.836-6.304 4.965-2.797 9.575-6.226 13.605-10.233a55.955 55.955 0 0 0 5.566-6.425 52.681 52.681 0 0 0 2.383-3.51c.378-.597.715-1.216 1.078-1.825.367-.633.738-1.336 1.113-1.989Z" fill="#281400"/><path opacity=".5" d="M125.09 88.143c-4.634 9.232-12.864 17.9-23.816 24.044-10.932 6.134-22.626 8.661-32.954 7.842-.937.913-1.85 1.826-2.744 2.73-.2.203-.406.377-.616.513-.339 6.142.211 12.593 1.697 19.106 1.4 1.799 3.638 3.006 6.612 3.535 1.848.334 3.085 1.538 3.45 3.274.032.15.069.298.114.443.898 3.009 4.334 4.362 9.576 4.036 2.918-.175 5.011 1.223 5.629 3.572.032.116.064.229.106.34 1.016 2.787 5.256 3.421 11.355 2.083 6.403-1.395 12.559-1.166 17.874.571 4.273 1.417 10.962-2.449 11.707-6.77.923-5.2 3.671-10.407 7.972-15.015 4.098-4.374 5.631-8.189 3.804-10.444a3.178 3.178 0 0 0-.238-.266c-1.699-1.742-1.817-4.249-.157-6.642 1.981-2.839 2.913-5.385 2.707-7.458l.006-.001s1.979-9.219 5.985-3.358c4.007 5.862 26.659 66.805-18.408 81.37-13.151 4.25-24.459 3.291-33.884-.192 14.429 9.041 30.713 11.554 44.336 5.595a37.41 37.41 0 0 0 3.337-1.662c23.313-13.08 28.244-48.313 11.016-78.695-4.178-7.368-9.278-13.769-14.936-19.057l-.007-.012c-.066-.06-.134-.12-.201-.183a56.177 56.177 0 0 0-.762-.696c-.218-.198-.44-.397-.662-.59a51.67 51.67 0 0 0-.748-.648 84.86 84.86 0 0 0-1.435-1.2c-.245-.202-.493-.398-.739-.596a47.88 47.88 0 0 0-.718-.561c-.259-.2-.52-.395-.78-.59-.158-.12-.315-.243-.472-.36l-.004.004a66.341 66.341 0 0 0-8.379-5.267 3.993 3.993 0 0 1-.751.254 186.86 186.86 0 0 0-3.872.95Z" fill="#E8B17E"/><path opacity=".5" d="m80.993 162.469 2.425.521-.264.148.79-2.326-.392 2.419a.194.194 0 0 1-.265.149l-2.294-.911ZM99.64 166.177c.436.088.86.21 1.28.34.419.13.833.273 1.24.432l-.278.168c.047-.532.118-1.06.202-1.589.089-.529.189-1.054.339-1.575.039.54.025 1.075-.001 1.608a22.968 22.968 0 0 1-.139 1.593v.006a.202.202 0 0 1-.224.175.153.153 0 0 1-.054-.013 20.293 20.293 0 0 1-1.204-.525 15.889 15.889 0 0 1-1.16-.62ZM95.957 180.458c.446.116.875.268 1.295.434.421.166.833.349 1.24.545l-.288.134c.223-.808.473-1.607.839-2.379-.061.848-.238 1.667-.445 2.477a.207.207 0 0 1-.245.15l-.039-.014-.004-.001c-.407-.192-.809-.396-1.202-.618a10.25 10.25 0 0 1-1.15-.728ZM119.933 170.273c1.074.236 2.1.59 3.116.975l-.282.217c-.112-1.048-.19-2.099-.146-3.164.277 1.028.432 2.069.556 3.113a.204.204 0 0 1-.18.226.181.181 0 0 1-.101-.013c-1.01-.391-2.01-.815-2.963-1.354ZM113.274 187.636c.267.048.527.122.788.182a27.312 27.312 0 0 1 2.289.736l-.279.171c.107-.986.247-1.969.504-2.943.057 1.001-.005 1.99-.095 2.979a.208.208 0 0 1-.279.172c-.5-.186-.998-.378-1.486-.592a20.823 20.823 0 0 1-.729-.331c-.237-.126-.48-.237-.713-.374ZM106.776 205.02c1.06.308 2.061.726 3.052 1.161.493.221.983.453 1.466.694.488.233.958.497 1.437.748l-.584.367c-.002-.686.008-1.372.041-2.062.04-.687.092-1.376.201-2.068.163.677.263 1.359.356 2.04.084.682.147 1.364.195 2.048a.393.393 0 0 1-.566.375l-.016-.006c-.483-.242-.974-.47-1.448-.729-.48-.246-.95-.51-1.419-.781-.93-.546-1.852-1.112-2.715-1.787Z" fill="#E8B17E"/><path opacity=".7" d="M119.674 199.206c-8.014-1.786-16.023-5.599-23.373-11.161 1.079 14.866 11.855 28.44 21.918 37.489-4.532-7.154-11.137-18.048-12.12-22.291-1.523-6.551 13.575-4.037 13.575-4.037Z" fill="#E8B17E"/><path d="M110.003 30.776c.609-1.763 1.299-4.762 1.658-6.396.076-.344-.361-.532-.62-.27-.749.752-1.795 1.806-2.338 2.358-.806.818-1.602 1.627-2.394 2.42a257.027 257.027 0 0 1-5.567 5.38c-4.868 4.543-10.959 7.642-17.455 9.067-4.73 1.037-9.522 2.7-14.216 5.009-1.088-.307-.79-2.251-.428-3.622.126-.48-.462-.853-.798-.506-1.382 1.431-1.59 3.703-1.605 4.809a1.067 1.067 0 0 1-.57.944c-.402.208-.906.01-1.11-.425-1.54-3.29-4.123-3.635-5.818-3.443-.313.036-.328.486-.024.59 2.94 1.004 3.21 5.449 3.21 5.449l.044.265c-4.107 2.696-7.762 5.756-10.905 9.06-4.5 4.727-10.218 8.254-16.538 10.021-.262.075-.524.145-.785.218a244.08 244.08 0 0 1-6.8 1.76c-1.116.27-2.246.533-3.39.8-.736.173-2.146.507-3.163.749-.36.085-.423.554-.088.668 1.592.536 4.524 1.493 6.354 1.883.802.174 1.625.33 2.467.471.302.05.3.457-.002.55-1.22.374-2.429.745-3.616 1.13-.258.084-.26.433-.005.482 2.23.419 4.405.694 6.554.884 1.291.116 2.572.195 3.844.243 1.744.07 2.91 1.49 2.595 3.146l-.006.034c-1.361 7.013-.522 13.933 2.883 19.94 9.655 17.035 36.289 20.286 59.489 7.262 23.2-13.024 34.18-37.39 24.524-54.425-3.391-5.984-8.879-10.264-15.575-12.738-.015-.004-.027-.01-.043-.016-1.584-.598-2.138-2.42-1.297-3.94a76.21 76.21 0 0 0 1.767-3.389 65.65 65.65 0 0 0 2.627-6.053c.09-.242-.208-.422-.413-.246-.937.8-1.875 1.628-2.815 2.461-.237.209-.588 0-.475-.282.299-.775.585-1.544.843-2.302Z" fill="#9B4F1C"/><path d="M109.525 30.62c.381-1.084.69-2.214.989-3.345.149-.565.291-1.133.422-1.703l.196-.857.095-.419a.14.14 0 0 0 .016.077c.017.03.038.045.053.05.026.012.06-.004.062-.005l-.297.298-.629.63-1.256 1.26-2.516 2.528-5.14 4.952a37.244 37.244 0 0 1-5.655 4.446 39.82 39.82 0 0 1-3.128 1.795 41.582 41.582 0 0 1-3.283 1.486c-1.12.434-2.254.839-3.408 1.17a52.059 52.059 0 0 1-3.483.864 59.313 59.313 0 0 0-6.797 2.03 59.356 59.356 0 0 0-6.518 2.808l-.005.002-.152.077-.128-.05c-.096-.038-.193-.072-.286-.12-.084-.06-.18-.113-.247-.188a1.449 1.449 0 0 1-.318-.48c-.138-.336-.172-.665-.184-.978-.007-.627.089-1.22.217-1.801l.103-.433c.023-.092.025-.1.024-.117.003-.017-.005-.031-.01-.05-.015-.034-.054-.07-.086-.076-.034-.005-.023-.008-.041.005l-.01.005-.032.036-.067.074-.13.15c-.076.106-.163.21-.234.323a4.938 4.938 0 0 0-.386.707c-.444.99-.62 2.113-.647 3.217a1.49 1.49 0 0 1-.419 1.051 1.35 1.35 0 0 1-.517.334 1.16 1.16 0 0 1-.653.028 1.262 1.262 0 0 1-.744-.527c-.057-.084-.103-.187-.129-.233-.128-.242-.241-.492-.394-.717-.56-.933-1.37-1.694-2.357-2.106a4.968 4.968 0 0 0-1.564-.36 5.482 5.482 0 0 0-.817.002l-.205.017-.05.005c-.006.002.009 0 .01-.004a.134.134 0 0 0 .05-.027c.065-.07.04-.081.036-.1-.006-.012-.023-.024-.029-.024l.215.093c.144.069.3.118.433.205l.402.259c.128.093.24.204.363.305.46.431.821.938 1.101 1.476.544 1.091.836 2.238.95 3.448l-.005-.04.041.242.003.022.046.234-.217.155a83.806 83.806 0 0 0-3.424 2.59 65.677 65.677 0 0 0-3.246 2.788 62.162 62.162 0 0 0-3.055 2.977l-1.486 1.566a34.873 34.873 0 0 1-1.582 1.537c-4.33 3.97-9.706 6.9-15.407 8.36l-4.205 1.083c-1.402.36-2.8.731-4.21 1.05l-4.212.99-.525.123-.233.055a.492.492 0 0 0 .35-.529.555.555 0 0 0-.32-.439.224.224 0 0 0-.004 0l.127.041.253.084c.672.226 1.348.447 2.025.658 1.355.42 2.71.838 4.06 1.113l2.078.4.195.04a1.097 1.097 0 0 1 .827 1.261 1.182 1.182 0 0 1-.79.907l-.09.03-.13.039-1.029.321-2.056.643-.257.08-.063.02c-.042.014.056-.016.072-.032a.599.599 0 0 0 .216-.19.58.58 0 0 0 .035-.603.614.614 0 0 0-.406-.32c-.049-.01.025.004.03.004l1.045.185c1.394.235 2.8.421 4.213.57.707.078 1.415.135 2.124.173l2.128.137c.364.028.666.032 1.163.091.454.066.9.22 1.303.455a3.362 3.362 0 0 1 1.612 2.2c.096.456.106.929.02 1.376l-.182 1.04c-.067.344-.105.688-.153 1.032-.048.344-.096.688-.124 1.033a29.123 29.123 0 0 0-.146 4.145c.143 5.522 2.033 10.944 5.41 15.297a27.648 27.648 0 0 0 5.996 5.655c2.268 1.596 4.792 2.827 7.42 3.779 5.27 1.893 10.982 2.57 16.638 2.306 5.665-.267 11.293-1.472 16.65-3.397a64.456 64.456 0 0 0 15.144-7.834c4.67-3.262 8.912-7.143 12.456-11.574 3.538-4.424 6.385-9.415 8.1-14.767.856-2.672 1.421-5.43 1.628-8.211.202-2.78.01-5.577-.581-8.284-1.15-5.426-4.141-10.407-8.333-14.064-2.094-1.833-4.475-3.35-7.014-4.546-.314-.159-.641-.286-.96-.43a16.044 16.044 0 0 0-.975-.404l-.492-.193-.251-.096-.295-.13a3.083 3.083 0 0 1-1.008-.791 3.212 3.212 0 0 1-.72-2.379 3.65 3.65 0 0 1 .341-1.204c.098-.2.178-.346.259-.504l.249-.472c.651-1.262 1.346-2.506 1.94-3.796a64.18 64.18 0 0 0 1.694-3.902l.193-.495.095-.248.048-.125c.014-.035.003-.017-.001.01a.279.279 0 0 0-.005.079c.035.276.307.306.421.215l-.375.326-1.625 1.415-.83.722a.846.846 0 0 1-.666.182.777.777 0 0 1-.586-.43.743.743 0 0 1-.067-.389c.009-.127.067-.254.068-.27l.091-.25.748-1.992Zm.963.31-.745 2.03-.093.253c-.023.068-.005.024-.002-.014a.254.254 0 0 0-.023-.13.221.221 0 0 0-.332-.092l.798-.7 1.627-1.429.203-.178.102-.09.05-.044c.018-.016.022-.021.083-.068a.808.808 0 0 1 .752-.111.745.745 0 0 1 .493.64.684.684 0 0 1-.015.21 1.041 1.041 0 0 1-.041.136l-.046.127-.096.254-.193.505a67.457 67.457 0 0 1-1.704 3.97c-.598 1.312-1.295 2.575-1.952 3.858l-.247.48c-.084.16-.172.329-.23.452-.127.27-.209.554-.235.843a2.124 2.124 0 0 0 .481 1.583c.179.213.405.385.659.51l.196.089.251.096.507.198c.341.128.676.264 1.009.412.33.15.671.278.994.441 2.632 1.224 5.108 2.787 7.299 4.687 4.385 3.79 7.541 8.99 8.77 14.654.631 2.826.841 5.744.645 8.633-.203 2.89-.778 5.752-1.648 8.515-1.747 5.537-4.655 10.678-8.265 15.234-3.616 4.563-7.942 8.552-12.706 11.912a66.059 66.059 0 0 1-15.471 8.088c-5.49 1.993-11.269 3.238-17.11 3.524-5.83.282-11.75-.402-17.262-2.37-2.748-.988-5.4-2.275-7.796-3.954a29.236 29.236 0 0 1-6.36-5.979c-3.593-4.609-5.611-10.387-5.772-16.216a30.363 30.363 0 0 1 .146-4.364c.03-.364.075-.725.125-1.086.051-.36.09-.724.16-1.08l.182-1.062c.05-.253.04-.504-.012-.74-.1-.474-.402-.88-.828-1.126a1.94 1.94 0 0 0-.71-.244c-.219-.027-.638-.048-.987-.071l-2.175-.136c-.726-.04-1.449-.098-2.17-.174a69.05 69.05 0 0 1-4.323-.576l-1.075-.19-.1-.019a1.069 1.069 0 0 1-.716-.55 1.097 1.097 0 0 1 .077-1.11c.106-.157.257-.287.415-.37.06-.033.2-.081.2-.081l.065-.022.26-.08 2.07-.651 1.035-.326.13-.04c.011-.002.07-.02.04-.012a.578.578 0 0 0-.366.43.578.578 0 0 0 .432.658l-.067-.014-2.15-.41c-1.46-.292-2.843-.723-4.222-1.147a135.35 135.35 0 0 1-2.057-.665l-.256-.084-.128-.044c-.012-.005-.042-.013-.128-.05a.95.95 0 0 1-.203-.112 1.142 1.142 0 0 1-.496-.83 1.203 1.203 0 0 1 .235-.849c.174-.241.442-.41.697-.477l.292-.072.527-.125 4.208-.997c1.403-.319 2.79-.689 4.182-1.05l4.172-1.082a36.483 36.483 0 0 0 14.795-7.849 33.868 33.868 0 0 0 1.559-1.426l1.53-1.518a56.451 56.451 0 0 1 6.705-5.584 54.1 54.1 0 0 1 3.64-2.396l-.172.389-.004-.023-.04-.242-.001-.012-.004-.028c-.099-1.075-.383-2.187-.868-3.146a4.73 4.73 0 0 0-.943-1.269c-.1-.081-.193-.175-.295-.252l-.326-.207c-.106-.071-.235-.106-.349-.164l-.182-.08a.682.682 0 0 1-.36-.29.69.69 0 0 1 .13-.89.673.673 0 0 1 .36-.15l.057-.004.231-.02a6.66 6.66 0 0 1 .927-.002 5.722 5.722 0 0 1 1.811.419c1.157.481 2.095 1.378 2.712 2.407.168.253.294.523.433.786.041.078.054.11.078.143a.463.463 0 0 0 .286.208c.147.04.274-.01.418-.146a.706.706 0 0 0 .195-.524c.03-1.188.21-2.39.715-3.52.123-.282.277-.555.446-.817.083-.132.184-.256.278-.382l.157-.18.08-.09.04-.043.074-.067a.826.826 0 0 1 .78-.148.907.907 0 0 1 .545.477c.052.114.083.24.08.367.005.128-.038.262-.048.31l-.098.409c-.121.544-.206 1.097-.2 1.618.01.257.043.51.125.704.086.195.193.306.357.354l-.28.027.004-.003a72.169 72.169 0 0 1 6.623-2.776 62.85 62.85 0 0 1 6.883-2.032c1.174-.266 2.304-.535 3.438-.872a38.65 38.65 0 0 0 3.338-1.167 41.105 41.105 0 0 0 3.213-1.474 39.07 39.07 0 0 0 3.052-1.774 36.53 36.53 0 0 0 5.515-4.39l5.093-4.964 2.493-2.536 1.25-1.27.627-.634.331-.333a.84.84 0 0 1 .888-.163.76.76 0 0 1 .377.337.75.75 0 0 1 .073.502l-.096.44-.192.864-.397 1.726c-.285 1.144-.571 2.292-.943 3.44Z" fill="#281400"/><path d="M132.113 58.929c.161-.556.134-1.101-.128-1.58-.264-.482-.711-.806-1.275-.98a.647.647 0 0 1-.471-.71c.072-.541-.048-1.055-.402-1.483-.357-.433-.884-.694-1.497-.8-.342-.06-.581-.313-.593-.62a1.846 1.846 0 0 0-.675-1.37c-.447-.379-1.04-.576-1.696-.615-.349-.02-.63-.236-.697-.524-.116-.5-.425-.936-.941-1.249-.532-.325-1.179-.458-1.859-.432-.347.013-.654-.162-.772-.424-.209-.473-.603-.867-1.19-1.125-.605-.268-1.294-.338-1.987-.25-.33.042-.659-.095-.818-.332-.294-.443-.77-.794-1.412-.996a4.048 4.048 0 0 0-2.037-.082c-.326.067-.678-.04-.882-.257-.375-.404-.912-.705-1.588-.851a4.277 4.277 0 0 0-2.98.462c-2.418 1.352-4.901 2.63-7.461 3.715-15.306 6.357-20.574 16.55-21.952 24.197-7.288-2.781-18.774-3.563-32.155 6.191-2.256 1.62-4.64 3.075-7.052 4.436a4.248 4.248 0 0 0-1.94 2.3c-.223.652-.242 1.265-.089 1.793.082.286-.007.64-.235.884a4.008 4.008 0 0 0-.983 1.779c-.159.652-.103 1.238.126 1.718.121.258.069.61-.138.87-.431.543-.728 1.165-.813 1.822-.082.633.053 1.172.352 1.595.167.235.157.59-.034.877-.375.567-.595 1.186-.591 1.808.003.603.218 1.092.587 1.447.213.206.252.555.09.866-.306.579-.443 1.186-.35 1.763.094.565.39.995.83 1.284.258.169.352.505.226.825-.225.578-.273 1.161-.086 1.689.183.521.563.889 1.067 1.111a.649.649 0 0 1 .367.768c-.14.569-.096 1.119.182 1.593.276.471.731.776 1.292.926.326.088.531.368.5.693-.05.552.088 1.064.453 1.477.366.416.893.655 1.499.738.347.048.6.293.623.602.042.528.272.995.716 1.351.453.361 1.035.533 1.676.547.356.007.648.217.726.508.133.498.449.923.966 1.217.527.3 1.159.411 1.819.36.351-.027.675.144.801.411.22.464.615.844 1.193 1.08.595.244 1.258.291 1.924.179.338-.056.68.075.847.316.301.433.766.765 1.392.943.645.186 1.33.172 1.987.004.313-.082.66.013.86.226.373.399.902.687 1.56.813a3.899 3.899 0 0 0 1.983-.158.954.954 0 0 1 .893.152c.435.356 1.003.597 1.678.665.602.06 1.196-.291 1.742-.845 3.24-3.283 6.746-6.691 10.718-9.777 8.65-6.726 12.46-14.855 13.224-21.428 6.047 2.748 15.006 3.705 25.259-.185 4.708-1.786 9.451-3.013 13.949-4.076.758-.179 1.367-.503 1.627-1.047.288-.61.378-1.217.296-1.773a.944.944 0 0 1 .331-.84 3.83 3.83 0 0 0 1.161-1.608c.235-.628.259-1.226.108-1.75-.081-.28.019-.625.252-.85.483-.472.85-1.047 1.024-1.695.168-.624.124-1.196-.092-1.674-.12-.267-.056-.626.167-.885.439-.508.743-1.1.841-1.732.094-.613-.026-1.148-.311-1.575-.164-.246-.144-.61.061-.895.382-.538.616-1.132.631-1.737.013-.591-.187-1.081-.546-1.452-.21-.217-.239-.575-.062-.881.317-.553.472-1.141.397-1.711a1.857 1.857 0 0 0-.791-1.309c-.254-.18-.337-.523-.195-.843.242-.559.31-1.13.141-1.658-.168-.527-.537-.91-1.036-1.15a.656.656 0 0 1-.332-.787Z" fill="#FFF9C5"/><path d="M64.713 123.187c-.405.228-.807.323-1.203.283-.725-.073-1.374-.332-1.88-.748a.574.574 0 0 0-.522-.088 4.289 4.289 0 0 1-2.184.174c-.717-.136-1.33-.455-1.77-.926-.104-.112-.307-.163-.48-.117-.75.193-1.51.191-2.193-.007-.687-.198-1.24-.576-1.601-1.094-.085-.123-.281-.189-.466-.158-.763.127-1.503.055-2.137-.203-.644-.265-1.125-.704-1.39-1.27-.06-.128-.239-.207-.424-.195-.765.059-1.47-.084-2.04-.411-.585-.336-.98-.835-1.143-1.447-.034-.13-.185-.221-.365-.227-.753-.018-1.41-.236-1.908-.632a2.237 2.237 0 0 1-.857-1.616c-.009-.132-.127-.236-.294-.257-.724-.099-1.325-.398-1.735-.864-.418-.475-.608-1.083-.544-1.761.012-.138-.076-.253-.222-.292-.68-.181-1.208-.564-1.52-1.1-.318-.537-.395-1.184-.224-1.874.037-.149-.022-.274-.15-.33-.62-.272-1.06-.731-1.272-1.33-.21-.589-.177-1.267.092-1.954.06-.152.025-.3-.084-.373a2.225 2.225 0 0 1-.993-1.539c-.104-.632.031-1.326.388-2.001.08-.154.074-.324-.02-.414-.458-.44-.701-1.034-.704-1.718-.002-.668.223-1.366.657-2.02.114-.171.105-.358.037-.45-.365-.514-.51-1.157-.417-1.86.088-.695.396-1.388.89-2.013.13-.16.143-.357.09-.467-.273-.574-.327-1.256-.151-1.972.17-.702.54-1.375 1.075-1.95a.576.576 0 0 0 .145-.516c-.18-.62-.144-1.319.097-2.023a4.621 4.621 0 0 1 2.119-2.514c2.768-1.56 4.997-2.965 7.016-4.412 14.258-10.393 26.062-8.58 32.085-6.404 1.243-6.258 5.789-17.255 22.102-24.028 2.285-.97 4.646-2.144 7.419-3.695a4.654 4.654 0 0 1 3.257-.506c.73.16 1.348.494 1.789.965.114.124.328.184.519.143a4.442 4.442 0 0 1 2.232.092c.704.222 1.263.617 1.617 1.149.067.102.245.191.448.165.791-.1 1.548-.002 2.193.28.654.288 1.13.745 1.383 1.318.047.105.201.207.406.201.788-.029 1.504.138 2.077.486.584.357.969.871 1.113 1.487.028.127.171.22.345.232.766.048 1.431.29 1.921.705.502.424.781.994.81 1.642.005.13.117.235.277.264.729.126 1.329.45 1.727.932.405.49.572 1.103.484 1.77-.018.138.06.255.206.298.681.211 1.198.612 1.495 1.16.297.545.352 1.19.159 1.864-.042.146.013.28.137.34.615.297 1.041.773 1.232 1.375.189.59.135 1.257-.154 1.925-.066.152-.04.308.068.384.532.38.86.92.946 1.566.086.627-.069 1.302-.443 1.953-.088.156-.088.332.007.428.441.455.668 1.049.653 1.724-.015.653-.257 1.328-.701 1.952-.109.152-.13.346-.052.461.349.519.477 1.156.372 1.842-.103.673-.426 1.341-.93 1.926-.122.141-.167.342-.106.476.259.572.299 1.24.112 1.93a4.132 4.132 0 0 1-1.129 1.873c-.128.124-.19.322-.147.469.177.619.137 1.305-.119 1.987a4.235 4.235 0 0 1-1.28 1.771.56.56 0 0 0-.195.488c.095.646-.02 1.335-.328 1.992-.289.609-.924 1.033-1.892 1.26-4.407 1.041-9.14 2.254-13.899 4.06-8.789 3.335-17.893 3.47-25.079.39-1.07 7.716-5.894 15.404-13.306 21.167-4.017 3.123-7.507 6.529-10.681 9.745a3.864 3.864 0 0 1-.862.682Zm-12.93-47.231a49.338 49.338 0 0 0-4.905 3.162c-2.044 1.467-4.297 2.885-7.092 4.46a3.844 3.844 0 0 0-1.76 2.088c-.193.555-.22 1.097-.086 1.566.123.418-.006.91-.323 1.25a3.627 3.627 0 0 0-.889 1.604c-.132.545-.096 1.052.1 1.469.185.388.107.897-.185 1.269-.406.51-.658 1.075-.732 1.63-.067.523.03.967.287 1.328.26.365.246.89-.028 1.306-.347.527-.53 1.08-.527 1.596.003.482.161.877.473 1.18.337.327.403.853.16 1.312-.279.528-.385 1.053-.308 1.524.072.44.295.79.666 1.032.406.268.558.794.368 1.281-.204.523-.231 1.001-.08 1.425.141.404.432.703.861.891.467.204.707.699.583 1.204-.124.498-.076.94.143 1.31.218.368.575.62 1.062.751.506.136.829.585.78 1.09-.044.472.077.873.36 1.195.29.333.717.537 1.262.612.522.072.916.459.953.947.034.443.228.809.575 1.086.364.291.863.449 1.443.464.53.013.966.328 1.087.79.11.419.376.75.79.987.435.248.988.357 1.595.311.51-.037.983.216 1.18.629.187.396.52.699.992.891.499.206 1.09.258 1.712.155.482-.082.975.11 1.226.474.257.373.667.648 1.183.796.55.16 1.167.157 1.78.001.448-.114.947.02 1.24.336.33.351.797.594 1.353.698a3.492 3.492 0 0 0 1.78-.141 1.345 1.345 0 0 1 1.27.218c.389.32.897.521 1.47.579.423.043.902-.202 1.42-.727 3.193-3.235 6.707-6.664 10.759-9.813 7.414-5.764 12.182-13.481 13.077-21.166l.061-.533.49.223c7.07 3.215 16.169 3.141 24.959-.195 4.803-1.824 9.567-3.045 14-4.092.72-.17 1.18-.45 1.359-.833.247-.52.337-1.057.263-1.554a1.335 1.335 0 0 1 .469-1.195 3.445 3.445 0 0 0 1.043-1.443c.198-.528.231-1.05.099-1.513-.12-.414.023-.908.353-1.23.455-.442.772-.967.919-1.518.14-.516.116-1.008-.071-1.42-.182-.404-.091-.923.226-1.29.41-.477.669-1.006.752-1.54.076-.501-.009-.94-.253-1.306-.256-.38-.226-.914.07-1.33.354-.493.548-1.022.557-1.52.012-.473-.138-.87-.44-1.183-.334-.343-.379-.877-.117-1.335.29-.503.409-1.011.348-1.47a1.489 1.489 0 0 0-.637-1.052c-.399-.283-.533-.82-.321-1.301.218-.503.261-.971.128-1.392-.129-.409-.413-.718-.841-.925a1.023 1.023 0 0 1-.534-1.228c.14-.487.108-.922-.097-1.294-.205-.378-.558-.645-1.052-.8-.498-.155-.802-.614-.736-1.117.061-.463-.046-.866-.319-1.193-.28-.342-.719-.573-1.266-.668-.516-.087-.889-.49-.911-.976a1.481 1.481 0 0 0-.543-1.101c-.363-.307-.87-.489-1.469-.526-.52-.03-.94-.361-1.046-.816-.098-.42-.357-.761-.77-1.013-.441-.27-1.012-.4-1.644-.376-.501.02-.958-.244-1.137-.652-.177-.406-.513-.72-.993-.93-.513-.226-1.128-.304-1.78-.22-.472.06-.949-.14-1.187-.5-.254-.383-.675-.677-1.211-.844-.564-.18-1.201-.202-1.839-.072-.456.095-.945-.05-1.241-.371-.333-.358-.814-.614-1.39-.738a3.873 3.873 0 0 0-2.706.421c-2.799 1.566-5.183 2.753-7.5 3.734-16.376 6.803-20.637 17.899-21.72 23.908l-.084.465-.443-.168c-5.054-1.937-14.806-3.806-26.874 2.972Z" fill="#281400"/><path d="M132.113 58.93c.16-.556.134-1.101-.129-1.58-.263-.482-.711-.806-1.275-.98a.645.645 0 0 1-.47-.71c.071-.541-.049-1.055-.403-1.483-.357-.433-.882-.691-1.497-.8-.342-.06-.581-.313-.593-.62a1.845 1.845 0 0 0-.674-1.37c-.448-.379-1.041-.576-1.696-.615-.35-.02-.631-.236-.698-.524-.116-.501-.425-.936-.941-1.25-.532-.324-1.181-.456-1.859-.431-.346.015-.654-.162-.772-.425-.209-.473-.603-.866-1.19-1.124-.605-.269-1.294-.338-1.986-.25-.33.042-.66-.096-.819-.332-.294-.444-.77-.794-1.412-.997a4.047 4.047 0 0 0-2.037-.082c-.326.067-.678-.04-.882-.257-.375-.404-.912-.705-1.588-.851a4.277 4.277 0 0 0-2.98.462c-2.418 1.352-4.901 2.63-7.461 3.715-15.305 6.356-20.574 16.549-21.952 24.197-7.287-2.782-18.774-3.565-32.154 6.19-2.256 1.62-4.64 3.074-7.053 4.435a4.248 4.248 0 0 0-1.938 2.3c-.224.652-.243 1.265-.09 1.794.082.286-.007.64-.235.884a4.009 4.009 0 0 0-.983 1.778c-.158.652-.103 1.239.126 1.719.121.258.069.61-.138.869-.431.543-.728 1.166-.812 1.822-.082.634.052 1.173.35 1.596.168.234.158.59-.033.877-.375.566-.595 1.186-.59 1.808.003.603.217 1.091.586 1.447.213.206.253.555.09.866-.305.579-.443 1.186-.349 1.763.094.565.39.995.83 1.283.257.169.352.506.226.826-.226.577-.274 1.161-.087 1.689.184.521.563.889 1.068 1.111a.649.649 0 0 1 .366.768c-.14.569-.096 1.119.182 1.593.277.471.732.776 1.292.927.327.087.532.368.502.692-.051.552.087 1.065.452 1.478.366.415.893.655 1.498.737.348.049.601.293.624.603.041.527.272.994.716 1.351.453.36 1.035.532 1.676.546.355.008.648.218.726.509.133.497.449.922.966 1.216.527.301 1.159.412 1.819.36.351-.027.675.145.801.412.22.464.615.844 1.193 1.08.595.244 1.258.291 1.924.179.338-.056.68.075.847.315.301.434.766.766 1.392.944.645.186 1.33.172 1.987.004.313-.082.66.013.86.226.373.4.902.687 1.56.813a3.9 3.9 0 0 0 1.983-.158.95.95 0 0 1 .893.153c.435.355 1 .591 1.67.662.003-.001.005.001.008.002.603.06 1.196-.291 1.742-.844.89-.902 1.802-1.813 2.736-2.724 2.468-2.408 5.101-4.815 7.982-7.054 8.649-6.726 12.46-14.855 13.223-21.428 6.047 2.748 15.006 3.706 25.259-.183 3.379-1.283 6.774-2.274 10.084-3.125 1.303-.337 2.594-.65 3.865-.95.758-.18 1.367-.504 1.627-1.048a.082.082 0 0 1 .007-.02c.281-.601.369-1.202.288-1.75a.945.945 0 0 1 .332-.84 3.827 3.827 0 0 0 1.16-1.608c.235-.627.259-1.226.108-1.75-.081-.28.019-.625.252-.85.483-.472.85-1.047 1.024-1.695.168-.624.123-1.195-.092-1.674-.12-.267-.056-.626.167-.885.438-.508.743-1.099.841-1.732.094-.613-.026-1.148-.312-1.575-.164-.245-.143-.61.061-.895.382-.537.617-1.132.632-1.736.012-.592-.188-1.082-.547-1.453-.21-.216-.237-.572-.061-.881.317-.552.471-1.141.397-1.711a1.857 1.857 0 0 0-.791-1.309c-.254-.18-.337-.523-.195-.843.242-.559.31-1.13.141-1.658-.168-.527-.538-.91-1.037-1.15a.662.662 0 0 1-.33-.791Z" fill="#FFF9C5"/><path d="M131.88 58.864c.095-.336.117-.687.037-1.01a1.556 1.556 0 0 0-.516-.827 1.911 1.911 0 0 0-.425-.27 2.914 2.914 0 0 0-.241-.095l-.134-.044a.938.938 0 0 1-.646-.724c-.028-.133-.007-.297-.003-.357a2.546 2.546 0 0 0-.004-.247c-.041-.653-.516-1.18-1.136-1.392a2.48 2.48 0 0 0-.487-.12l-.068-.01c-.035-.007-.072-.011-.106-.022a1.226 1.226 0 0 1-.206-.073 1.088 1.088 0 0 1-.365-.267.992.992 0 0 1-.229-.414 1.242 1.242 0 0 1-.039-.227c-.002-.038-.008-.075-.014-.114a1.405 1.405 0 0 0-.135-.414c-.262-.51-.851-.837-1.496-.919a2.766 2.766 0 0 0-.246-.023 1.71 1.71 0 0 1-.391-.054 1.256 1.256 0 0 1-.768-.588 1.112 1.112 0 0 1-.101-.248l-.035-.123a1.337 1.337 0 0 0-.311-.523c-.384-.414-1.032-.64-1.694-.653-.094-.002-.146 0-.272.001a1.498 1.498 0 0 1-.458-.068 1.273 1.273 0 0 1-.755-.614l-.065-.137-.051-.09a1.288 1.288 0 0 0-.119-.17 1.704 1.704 0 0 0-.313-.296c-.483-.36-1.165-.521-1.839-.483-.088.003-.167.011-.259.02a1.446 1.446 0 0 1-.448-.019 1.343 1.343 0 0 1-.791-.463l-.066-.09-.033-.046c-.023-.03-.043-.06-.065-.088a1.983 1.983 0 0 0-.515-.444c-.548-.325-1.256-.451-1.94-.387a6.31 6.31 0 0 0-.258.033l-.139.023a1.462 1.462 0 0 1-1.015-.19 1.21 1.21 0 0 1-.177-.133c-.029-.023-.055-.051-.082-.078l-.041-.044a2.29 2.29 0 0 0-.58-.426c-.585-.305-1.311-.412-1.997-.33a3.783 3.783 0 0 0-1.012.264 4.254 4.254 0 0 0-.479.235l-.51.283a86.159 86.159 0 0 1-4.155 2.15c-1.401.684-2.859 1.284-4.252 1.918l-1.056.47c-.353.156-.685.349-1.031.522l-1.025.533c-.34.178-.688.347-1.012.553a37.626 37.626 0 0 0-7.409 5.43c-2.23 2.099-4.153 4.514-5.629 7.178-.18.333-.371.665-.547 1.002l-.485 1.03-.242.516-.21.528-.415 1.059a29.652 29.652 0 0 0-1.177 4.38l-.009.035-.097.468-.43-.172c-5.572-2.23-11.917-2.422-17.777-.881-2.937.776-5.758 1.962-8.422 3.421-.682.337-1.322.748-1.972 1.14l-.967.602c-.327.196-.626.43-.939.646l-1.852 1.335c-.614.467-1.235.922-1.867 1.365-1.26.89-2.554 1.73-3.864 2.541l-.985.602a3.744 3.744 0 0 0-.792.588c-.46.45-.8 1.01-.963 1.61a2.44 2.44 0 0 0-.051 1.078l.02.101.023.1c.009.044.014.086.021.131.04.343-.046.659-.198.933a1.784 1.784 0 0 1-.279.37l-.18.17a4.596 4.596 0 0 0-.327.37c-.207.26-.38.548-.5.86-.118.312-.192.642-.166.969.01.161.041.324.094.477l.052.131a.883.883 0 0 1 .051.194 1.17 1.17 0 0 1-.126.731c-.056.11-.144.218-.188.276a3.756 3.756 0 0 0-.292.444 3.208 3.208 0 0 0-.368.974c-.066.338-.073.683.008 1 .037.159.1.309.18.45.04.075.08.113.157.255.06.122.087.252.095.382.014.254-.072.509-.203.704a4.095 4.095 0 0 0-.26.463c-.15.316-.245.652-.271.99-.024.335.02.672.156.961.07.144.159.28.266.399l.091.094c.05.049.09.105.127.164.07.116.11.248.124.377.014.129.003.258-.03.382a1.493 1.493 0 0 1-.129.319 3.444 3.444 0 0 0-.198.483 2.218 2.218 0 0 0-.088.996 1.585 1.585 0 0 0 .568 1.02c.033.024.063.05.098.073l.05.033c.026.019.055.038.083.06.221.176.34.457.34.725 0 .133-.024.266-.07.388-.034.093-.059.165-.083.248a2.41 2.41 0 0 0-.09.492c-.026.328.035.65.177.927.14.276.37.498.651.65l.258.126c.123.071.234.167.319.284.17.236.218.544.155.81-.08.337-.091.657-.012.956a1.5 1.5 0 0 0 .484.76c.118.099.25.183.395.248.071.032.147.063.223.087.038.012.078.023.119.034.029.008.124.033.182.059.263.108.497.339.587.629.048.134.053.314.043.423-.007.08-.006.159-.002.236.022.62.434 1.14 1.027 1.364.148.057.303.101.467.128l.123.019a1.229 1.229 0 0 1 .593.236c.12.091.222.21.296.348.037.07.066.143.085.22.009.038.019.078.022.116l.01.085c.017.149.052.293.109.426.219.534.791.898 1.433.994.079.013.161.022.246.029l.291.016c.283.027.573.144.79.369.108.113.196.252.248.409l.04.132c.013.033.024.069.039.1.054.134.13.256.222.365.372.449 1.026.687 1.684.692.084.001.168 0 .252-.004.06-.004.225-.02.366-.002.286.034.57.152.792.38.055.057.103.121.149.19.02.031.044.079.055.103l.024.048a1.582 1.582 0 0 0 .415.497c.469.373 1.151.525 1.81.475.084-.005.165-.014.25-.025l.143-.02a1.31 1.31 0 0 1 .217-.012c.289.005.578.093.825.282.061.048.12.103.172.162.026.029.054.067.072.094l.03.043c.046.057.092.117.142.168.101.107.221.198.35.281.522.325 1.217.439 1.876.352a3.09 3.09 0 0 0 .25-.04l.281-.063c.292-.055.586-.025.855.095.133.059.265.143.376.257a2.168 2.168 0 0 0 .56.435c.552.295 1.255.384 1.908.276.166-.026.33-.066.49-.117l.137-.043c.071-.022.143-.038.215-.048a1.471 1.471 0 0 1 1.026.233l.132.1c.122.096.256.179.398.248.285.141.601.228.932.265.258.038.51-.04.78-.204.131-.08.265-.179.39-.292.124-.109.246-.235.388-.373l.814-.81 1.63-1.619c2.19-2.142 4.456-4.222 6.843-6.165.59-.487 1.216-.956 1.795-1.437.587-.476 1.177-.947 1.73-1.462.279-.253.568-.501.841-.758l.808-.794c.55-.52 1.038-1.095 1.554-1.643.986-1.138 1.936-2.311 2.768-3.56.44-.612.818-1.26 1.215-1.897.193-.321.365-.655.548-.983l.27-.493.245-.506a27.303 27.303 0 0 0 1.677-4.155c.445-1.425.788-2.88.967-4.356l.017-.107.077-.521.474.211c1.346.599 2.75 1.07 4.182 1.434.715.192 1.444.322 2.173.463.735.102 1.464.228 2.205.28 2.957.296 5.955.107 8.895-.384.731-.14 1.465-.281 2.191-.452.721-.192 1.453-.347 2.162-.58l1.072-.329c.356-.112.705-.247 1.058-.369l1.055-.38 1.069-.399c2.859-1.043 5.777-1.912 8.71-2.682l2.204-.556 1.101-.278.55-.141.277-.07c.084-.023.162-.043.242-.066.312-.097.598-.233.783-.4a.82.82 0 0 0 .205-.268c.057-.126.122-.284.163-.432a2.393 2.393 0 0 0 .079-1c-.002-.014-.02-.135-.019-.203a1.564 1.564 0 0 1 .554-1.22 3.193 3.193 0 0 0 1.022-1.552 2.216 2.216 0 0 0 .046-1.07c-.007-.034-.017-.063-.025-.104a1.373 1.373 0 0 1-.045-.254 1.529 1.529 0 0 1 .451-1.194l.052-.05a3.265 3.265 0 0 0 .452-.553c.17-.263.301-.543.379-.837.084-.29.111-.582.073-.853a1.52 1.52 0 0 0-.107-.39 1.373 1.373 0 0 1-.048-.947 1.485 1.485 0 0 1 .327-.58l.078-.092c.103-.125.198-.254.282-.39.167-.27.288-.56.35-.857a1.92 1.92 0 0 0-.002-.863 1.475 1.475 0 0 0-.152-.383l-.026-.047c-.015-.027-.043-.07-.06-.106a1.238 1.238 0 0 1-.116-.687 1.452 1.452 0 0 1 .315-.733c.098-.134.183-.273.258-.416a2.48 2.48 0 0 0 .275-.9c.03-.31-.009-.61-.134-.874a1.52 1.52 0 0 0-.244-.365 1.046 1.046 0 0 1-.286-.79 1.222 1.222 0 0 1 .18-.57l.063-.107c.082-.147.151-.298.206-.454a2.13 2.13 0 0 0 .115-.947 1.536 1.536 0 0 0-.536-1.008c-.03-.025-.063-.05-.095-.074a.946.946 0 0 1-.371-.878c.012-.123.064-.261.102-.347.037-.078.066-.158.092-.237.055-.162.09-.324.109-.488a1.682 1.682 0 0 0-.157-.946 1.684 1.684 0 0 0-.658-.695c-.073-.048-.133-.066-.256-.146a.871.871 0 0 1-.343-.988Zm.47.128a.45.45 0 0 0 .042.348c.064.107.14.132.354.246.358.204.673.514.863.894.192.376.261.806.231 1.218a2.897 2.897 0 0 1-.219.896.667.667 0 0 0-.053.191.37.37 0 0 0 .095.294.281.281 0 0 0 .059.05c.042.03.087.06.128.094a2.169 2.169 0 0 1 .808 1.36 2.75 2.75 0 0 1-.087 1.26c-.06.202-.14.396-.231.58l-.071.138c-.017.03-.024.05-.036.078a.399.399 0 0 0-.025.148c.006.103.025.154.098.222.157.158.292.341.399.54.214.4.295.856.277 1.29a3.39 3.39 0 0 1-.306 1.252 4.238 4.238 0 0 1-.305.558.787.787 0 0 0-.098.167.437.437 0 0 0-.025.12c0 .038.003.072.013.094a.056.056 0 0 0 .016.028c.002.004.003 0 .01.012l.048.074c.125.194.225.409.293.633.138.446.138.917.063 1.35a3.85 3.85 0 0 1-.452 1.23 4.498 4.498 0 0 1-.361.537l-.099.126c-.029.037-.026.036-.04.056a.313.313 0 0 0-.039.095c-.015.072-.007.107.011.146.1.214.169.44.211.673a3.3 3.3 0 0 1-.059 1.36c-.11.43-.298.84-.534 1.206a4.561 4.561 0 0 1-.616.76l-.05.05-.014.013a.147.147 0 0 0-.023.035.271.271 0 0 0-.041.153.025.025 0 0 0 .005.02c.013.05.031.11.042.167.027.113.043.229.059.345.048.463-.012.922-.141 1.347a4.418 4.418 0 0 1-1.456 2.139.347.347 0 0 0-.111.166.322.322 0 0 0-.017.095c.002.026-.002-.002.005.076.008.056.011.112.016.17.032.451-.03.9-.163 1.319a4.143 4.143 0 0 1-.248.614 2 2 0 0 1-.492.61c-.389.329-.815.498-1.226.616l-4.425 1.07c-2.918.744-5.809 1.577-8.639 2.585l-1.057.386-1.081.379c-.363.122-.72.258-1.086.37l-1.101.326c-.728.232-1.48.386-2.22.577-.745.169-1.498.309-2.25.445-3.017.48-6.096.648-9.133.32-.76-.06-1.514-.193-2.267-.306-.748-.152-1.497-.291-2.23-.494a26.55 26.55 0 0 1-4.302-1.513l.551-.31-.015.11c-.17 1.525-.511 3.028-.954 4.5a28.06 28.06 0 0 1-1.683 4.293l-.247.522-.273.51c-.185.338-.36.682-.553 1.013-.4.66-.785 1.33-1.23 1.96-.85 1.289-1.824 2.491-2.832 3.66-.53.562-1.03 1.154-1.592 1.685l-.824.816c-.281.265-.572.519-.86.778-.565.527-1.169 1.013-1.768 1.501-.6.498-1.197.946-1.784 1.434-2.355 1.922-4.593 3.986-6.766 6.119l-1.62 1.616-.809.807c-.259.261-.58.588-.963.815-.373.237-.897.413-1.4.342a3.823 3.823 0 0 1-1.25-.357 3.162 3.162 0 0 1-.561-.351l-.094-.072c-.019-.011-.035-.023-.054-.031a.485.485 0 0 0-.277-.039c-.023.004-.046.007-.064.014l-.137.044a4.998 4.998 0 0 1-.626.15c-.85.137-1.74.041-2.531-.373a3.04 3.04 0 0 1-.553-.378c-.08-.065-.18-.17-.229-.218a.306.306 0 0 0-.09-.059.444.444 0 0 0-.261-.03l-.279.062c-.105.023-.21.039-.318.054-.852.107-1.75-.015-2.524-.487a2.901 2.901 0 0 1-.53-.427 2.42 2.42 0 0 1-.223-.261l-.064-.086c-.01-.01-.018-.021-.033-.03a.378.378 0 0 0-.235-.075.404.404 0 0 0-.069.005l-.14.021a5.737 5.737 0 0 1-.32.033c-.854.06-1.765-.128-2.488-.702a2.5 2.5 0 0 1-.655-.801l-.05-.1a.133.133 0 0 0-.025-.032.362.362 0 0 0-.214-.098c-.04-.015-.329.017-.527.007-.853-.02-1.772-.32-2.372-1.045a2.307 2.307 0 0 1-.355-.599c-.021-.054-.04-.108-.059-.164l-.04-.136a.164.164 0 0 0-.042-.07.353.353 0 0 0-.218-.1l-.28-.017a3.505 3.505 0 0 1-.322-.041c-.845-.134-1.737-.655-2.083-1.545a2.349 2.349 0 0 1-.153-.665l-.006-.055c0-.009-.002-.014-.004-.022-.004-.013-.007-.03-.015-.043a.226.226 0 0 0-.064-.08.32.32 0 0 0-.11-.059c-.027-.007-.038-.01-.079-.018l-.158-.026a3.1 3.1 0 0 1-.627-.187 2.465 2.465 0 0 1-1.055-.814 2.248 2.248 0 0 1-.43-1.268 2.43 2.43 0 0 1 .01-.328c.008-.08.005-.091-.006-.137a.272.272 0 0 0-.157-.173c-.03-.014-.025-.01-.088-.03a2.48 2.48 0 0 1-.46-.174 2.517 2.517 0 0 1-.553-.364 2.211 2.211 0 0 1-.687-1.13c-.11-.431-.074-.887.025-1.283a.324.324 0 0 0-.041-.269.325.325 0 0 0-.098-.091l-.033-.019-.072-.035c-.05-.023-.097-.049-.145-.074a2.2 2.2 0 0 1-.908-.939 2.374 2.374 0 0 1-.226-1.266c.018-.215.062-.422.123-.621.029-.098.069-.202.101-.288a.45.45 0 0 0 .033-.167.343.343 0 0 0-.115-.267l-.029-.024-.067-.047a2.376 2.376 0 0 1-.362-.327 2.151 2.151 0 0 1-.521-1.167c-.059-.421 0-.85.123-1.241.06-.199.14-.389.233-.569.054-.107.07-.134.089-.206a.484.484 0 0 0 .012-.18.418.418 0 0 0-.05-.154c-.015-.022-.027-.043-.046-.06l-.105-.108a2.145 2.145 0 0 1-.359-.535 2.485 2.485 0 0 1-.209-1.24c.032-.416.148-.82.324-1.19.087-.185.185-.362.297-.532a.605.605 0 0 0 .112-.367c-.007-.139-.04-.163-.18-.385a2.27 2.27 0 0 1-.238-.594 2.859 2.859 0 0 1-.012-1.244c.077-.406.232-.79.432-1.144.101-.178.213-.348.337-.508.072-.092.105-.132.136-.193a.612.612 0 0 0 .06-.185.47.47 0 0 0-.005-.183c-.013-.057-.032-.085-.087-.204a2.652 2.652 0 0 1-.2-.61 3.634 3.634 0 0 1-.015-1.272 4.305 4.305 0 0 1 .917-2.048c.032-.043.034-.06.047-.097a.325.325 0 0 0 .009-.166c-.002-.002-.002-.008-.006-.01 0-.002 0 .004-.01-.035-.018-.058-.035-.115-.046-.173a3.528 3.528 0 0 1-.059-.35c-.05-.472.01-.937.127-1.371.24-.86.729-1.642 1.39-2.233.321-.295.71-.557 1.07-.744l1.006-.537a84.255 84.255 0 0 0 3.957-2.27 65.108 65.108 0 0 0 1.92-1.225l1.93-1.27c.323-.209.633-.44.968-.632l.997-.587c.661-.396 1.314-.805 2.007-1.145 2.712-1.462 5.59-2.65 8.583-3.417 5.966-1.568 12.414-1.418 18.205.71l-.526.295.008-.034c.29-1.53.707-3.03 1.225-4.499l.432-1.085.218-.542.25-.53.5-1.057c.18-.345.377-.683.564-1.026.358-.694.808-1.337 1.222-1.998.202-.336.444-.642.674-.96l.695-.944a72.804 72.804 0 0 1 1.517-1.79c.55-.558 1.077-1.137 1.645-1.675a38.593 38.593 0 0 1 7.547-5.562c.331-.21.683-.384 1.028-.565l1.04-.544c.35-.176.688-.375 1.046-.533l1.068-.482c1.431-.654 2.843-1.237 4.232-1.92a83.751 83.751 0 0 0 4.108-2.14l.508-.282a5 5 0 0 1 1.795-.615c.847-.11 1.719-.007 2.509.383.196.1.384.217.559.356.088.069.171.144.251.224l.058.059.021.021a.521.521 0 0 0 .356.107c.028 0 .053-.005.076-.008l.147-.031c.104-.019.21-.036.317-.05.851-.104 1.745.012 2.537.444.198.108.386.242.557.396a2.57 2.57 0 0 1 .35.388l.069.095a.336.336 0 0 0 .191.09.518.518 0 0 0 .128.001c.101-.014.213-.025.32-.033.863-.061 1.784.096 2.555.635a2.624 2.624 0 0 1 .727.784c.033.052.06.106.088.16l.058.12c.007.018.05.06.121.082a.378.378 0 0 0 .112.016c.065 0 .206-.003.306-.002.871.02 1.812.292 2.482 1.004a2.428 2.428 0 0 1 .533.952l.043.168c.011.024.053.067.122.09.009.016.308.027.51.072.864.148 1.777.658 2.155 1.562.093.219.148.453.17.684l.012.173c.002.038-.001.037.003.056a.185.185 0 0 0 .038.088.323.323 0 0 0 .151.107c.012.006.023.009.034.012l.074.016c.21.046.42.11.62.2.402.172.779.448 1.043.81.269.36.417.813.421 1.252.011.207-.05.482-.036.54.01.105.068.203.171.264a.35.35 0 0 0 .081.04l.14.049c.1.038.197.078.291.129.189.097.37.215.53.36.319.289.558.672.656 1.092.117.415.079.853-.04 1.251Z" fill="#281400"/><path d="M65.1 121.675a3.352 3.352 0 0 1-1.922-.003 3.3 3.3 0 0 1-1.596-1.015c-.212-.248-.56-.38-.86-.319a3.425 3.425 0 0 1-1.939-.177 3.076 3.076 0 0 1-1.443-1.143.952.952 0 0 0-.855-.415 3.335 3.335 0 0 1-1.895-.364 2.842 2.842 0 0 1-1.26-1.273.937.937 0 0 0-.819-.514 3.212 3.212 0 0 1-1.81-.55 2.659 2.659 0 0 1-1.05-1.399.908.908 0 0 0-.754-.612 3.002 3.002 0 0 1-1.686-.738 2.547 2.547 0 0 1-.82-1.523.871.871 0 0 0-.664-.705c-.6-.142-1.131-.446-1.527-.928a2.518 2.518 0 0 1-.573-1.637.855.855 0 0 0-.549-.791 2.575 2.575 0 0 1-1.345-1.113 2.64 2.64 0 0 1-.32-1.736.848.848 0 0 0-.425-.86 2.494 2.494 0 0 1-1.14-1.291c-.23-.588-.234-1.212-.065-1.818a.872.872 0 0 0-.293-.913 2.5 2.5 0 0 1-.924-1.462c-.143-.632-.062-1.277.184-1.874a.899.899 0 0 0-.166-.941 2.632 2.632 0 0 1-.702-1.617 3.362 3.362 0 0 1 .418-1.902.93.93 0 0 0-.046-.947c-.33-.482-.508-1.077-.486-1.753.025-.7.258-1.347.632-1.896.179-.263.2-.639.058-.926-.265-.54-.371-1.178-.276-1.87.009-.067.028-.127.041-.192-.181.276-.33.574-.442.896-.225.656-.244 1.272-.09 1.803.082.288-.006.644-.236.889a4.026 4.026 0 0 0-.99 1.787c-.16.656-.103 1.245.127 1.728.122.26.07.613-.139.874-.434.546-.732 1.172-.818 1.832-.082.636.053 1.178.354 1.604.169.236.159.593-.034.881-.377.57-.599 1.193-.594 1.818.003.606.22 1.097.591 1.455.215.207.254.558.09.87-.307.582-.445 1.192-.35 1.772.094.569.392 1.001.836 1.291.259.17.354.508.227.83-.227.581-.276 1.168-.087 1.698.185.524.567.894 1.075 1.117.3.132.449.443.37.772-.142.572-.097 1.125.183 1.602.279.474.737.78 1.302.931.328.089.535.371.505.697-.052.555.088 1.07.455 1.485.368.418.9.659 1.51.742.35.049.605.295.628.606.042.53.274 1 .721 1.358.456.363 1.042.536 1.688.55.358.008.653.219.732.511.133.5.451.928.972 1.224.532.302 1.167.413 1.832.362.354-.027.68.145.808.413.22.467.62.85 1.2 1.087.6.245 1.268.293 1.94.18.34-.056.683.076.852.318.303.435.771.77 1.402.949.65.186 1.34.173 2 .004.317-.082.665.014.868.227.375.402.908.691 1.571.818a3.931 3.931 0 0 0 1.996-.158.956.956 0 0 1 .9.153c.438.358 1.008.595 1.683.667.002-.002.004.001.007.002.607.06 1.204-.293 1.755-.849.111-.111.224-.227.336-.338-.24-.23-.58-.324-.859-.241ZM131.982 59.018c.161-.558.135-1.107-.13-1.589-.265-.484-.716-.81-1.284-.984a.65.65 0 0 1-.474-.714c.072-.545-.049-1.061-.406-1.492-.36-.434-.889-.695-1.508-.804-.344-.06-.585-.314-.597-.623a1.855 1.855 0 0 0-.68-1.378c-.45-.38-1.047-.579-1.708-.618-.352-.02-.635-.238-.703-.528-.117-.503-.428-.94-.947-1.255-.536-.327-1.19-.46-1.873-.435-.349.015-.659-.163-.778-.427-.21-.475-.607-.871-1.198-1.13-.61-.27-1.304-.34-2.001-.253-.333.043-.665-.095-.825-.333-.296-.446-.775-.799-1.422-1.002a4.084 4.084 0 0 0-2.052-.083c-.328.067-.683-.04-.888-.258a2.591 2.591 0 0 0-.438-.364c.076.09.151.182.214.278.175.27.51.446.829.43a3.632 3.632 0 0 1 1.959.443c.595.33 1.015.79 1.26 1.32a.946.946 0 0 0 .791.53 3.418 3.418 0 0 1 1.855.627c.531.385.873.882 1.029 1.434.09.317.383.574.726.627.644.098 1.239.364 1.71.814.461.438.715.973.781 1.541a.872.872 0 0 0 .635.721c.609.17 1.145.497 1.531.996.383.492.544 1.057.524 1.638a.857.857 0 0 0 .52.806c.564.238 1.032.628 1.33 1.17.298.54.371 1.133.263 1.72a.853.853 0 0 0 .398.875c.51.304.902.752 1.113 1.334.211.586.198 1.196.01 1.779a.873.873 0 0 0 .264.928c.448.37.765.869.887 1.486.126.624.028 1.245-.236 1.815a.902.902 0 0 0 .137.957c.385.43.624.979.662 1.618a3.16 3.16 0 0 1-.463 1.823.926.926 0 0 0 .021.962c.318.489.482 1.076.444 1.73a3.32 3.32 0 0 1-.667 1.8.939.939 0 0 0-.085.941c.255.537.348 1.158.238 1.819a3.344 3.344 0 0 1-.85 1.74c-.208.224-.274.588-.17.897.192.58.223 1.224.049 1.882a3.303 3.303 0 0 1-.992 1.636c-.222.198-.321.553-.25.88.013.063.017.125.025.188.63-.19 1.124-.498 1.349-.973.002-.007.004-.015.008-.02.282-.605.371-1.208.289-1.76a.946.946 0 0 1 .334-.844c.512-.425.928-.97 1.168-1.616.236-.63.261-1.232.109-1.759-.082-.281.018-.628.253-.854.487-.475.857-1.053 1.031-1.704.169-.627.125-1.202-.092-1.683-.122-.269-.057-.63.167-.89.442-.51.749-1.105.847-1.741.095-.616-.026-1.154-.314-1.583-.165-.247-.145-.614.061-.9.385-.54.621-1.138.636-1.746.013-.594-.189-1.087-.551-1.46-.211-.218-.239-.576-.062-.886.32-.555.475-1.147.4-1.72a1.869 1.869 0 0 0-.797-1.316c-.256-.18-.34-.526-.197-.847.244-.562.312-1.136.142-1.668-.169-.529-.541-.914-1.044-1.156a.664.664 0 0 1-.317-.789Z" fill="#E8B17E"/><g opacity=".5"><path opacity=".5" d="M71.035 110.011c8.408-4.718 11.185-15.666 6.203-24.453C72.254 76.77 61.4 73.473 52.992 78.19c-8.408 4.718-11.185 15.666-6.203 24.453 4.982 8.787 15.837 12.085 24.246 7.367ZM114.963 85.332c8.409-4.719 11.186-15.667 6.203-24.453-4.982-8.787-15.837-12.086-24.245-7.367-8.409 4.718-11.186 15.666-6.203 24.453 4.982 8.787 15.837 12.085 24.245 7.367Z" fill="#E8B17E"/></g><path d="M71.647 106.656c7.676-4.308 10.457-13.87 6.212-21.358-4.245-7.487-13.91-10.065-21.586-5.757-7.676 4.308-10.457 13.87-6.211 21.357 4.245 7.487 13.91 10.065 21.585 5.758Z" fill="#492100"/><path d="M78.546 84.913a15.998 15.998 0 0 1 1.887 6.092 16.22 16.22 0 0 1-.628 6.338 16.515 16.515 0 0 1-3.018 5.623 16.764 16.764 0 0 1-4.922 4.071 17.008 17.008 0 0 1-6.066 1.934 16.464 16.464 0 0 1-6.3-.473 15.928 15.928 0 0 1-5.58-2.809c-1.648-1.28-3-2.901-4.024-4.697-1.01-1.803-1.72-3.787-1.99-5.855-.279-2.064-.11-4.194.455-6.221a16.336 16.336 0 0 1 2.851-5.63 16.722 16.722 0 0 1 4.82-4.182 16.909 16.909 0 0 1 6.073-2.084 16.785 16.785 0 0 1 6.418.346c4.173 1.047 7.904 3.804 10.024 7.547Zm-1.376.772c-.972-1.681-2.228-3.21-3.773-4.414a14.92 14.92 0 0 0-5.238-2.65 15.447 15.447 0 0 0-5.924-.458c-1.99.23-3.94.854-5.712 1.815a15.838 15.838 0 0 0-4.633 3.835 15.57 15.57 0 0 0-2.84 5.294c-1.17 3.846-.812 8.166 1.183 11.695 2.002 3.52 5.498 6.116 9.436 7.104 3.933 1.014 8.26.413 11.762-1.635a15.846 15.846 0 0 0 4.53-3.945 15.366 15.366 0 0 0 2.672-5.302 14.76 14.76 0 0 0 .42-5.846 14.642 14.642 0 0 0-1.883-5.493Z" fill="#281400"/><path d="M70.083 103.892c4.194-2.353 4.852-9.092 1.47-15.053-3.38-5.961-9.522-8.886-13.715-6.534-4.194 2.352-4.853 9.092-1.471 15.053 3.381 5.961 9.522 8.886 13.716 6.534Z" fill="#F7931E"/><path d="M71.733 88.739c1.387 2.417 2.3 5.164 2.304 8.017-.003 1.42-.242 2.867-.84 4.204-.59 1.333-1.582 2.549-2.895 3.313-1.322.751-2.887 1.011-4.362.858-1.486-.144-2.892-.669-4.147-1.391-2.511-1.462-4.498-3.644-5.905-6.114a18.559 18.559 0 0 1-1.624-3.942c-.383-1.373-.595-2.803-.553-4.247.04-1.436.32-2.895.959-4.227.628-1.33 1.655-2.517 2.976-3.246 1.33-.715 2.875-.928 4.317-.745 1.454.18 2.818.72 4.035 1.448a14.706 14.706 0 0 1 3.254 2.69c.954 1.037 1.759 2.186 2.48 3.382Zm-.355.2a15.522 15.522 0 0 0-2.45-3.279c-.952-.98-2.028-1.843-3.215-2.512-1.186-.666-2.491-1.135-3.83-1.263-1.337-.133-2.703.104-3.85.76-1.139.672-2.007 1.727-2.542 2.929-.54 1.204-.771 2.54-.774 3.87.002 2.672.822 5.312 2.136 7.644 1.36 2.3 3.178 4.388 5.492 5.744 1.151.671 2.415 1.156 3.723 1.321 1.303.163 2.648-.029 3.802-.646 1.144-.635 2.05-1.66 2.625-2.859.58-1.199.852-2.546.895-3.895.072-2.71-.723-5.41-2.012-7.815Z" fill="#281400"/><path d="M67.488 99.316c2.099-1.177 2.22-4.914.272-8.348-1.949-3.434-5.229-5.263-7.327-4.087-2.098 1.177-2.22 4.914-.271 8.348 1.948 3.434 5.228 5.263 7.326 4.087Z" fill="#000"/><path d="M58.958 90.683c1.096-.615 1.529-1.918.967-2.91-.563-.99-1.907-1.296-3.003-.68-1.096.614-1.529 1.917-.967 2.908.563.992 1.907 1.297 3.003.682ZM63.288 89.565c.398-.223.555-.696.351-1.057-.204-.36-.693-.47-1.09-.248-.399.224-.556.697-.352 1.057.205.36.693.472 1.091.248Z" fill="#fff"/><path d="M111.76 84.121c7.676-4.308 10.457-13.87 6.212-21.357-4.246-7.488-13.91-10.066-21.586-5.758-7.676 4.308-10.457 13.87-6.212 21.357 4.246 7.488 13.91 10.066 21.586 5.758Z" fill="#492100"/><path d="M118.144 62.669a15.019 15.019 0 0 1 2.024 5.85c.258 2.07.096 4.202-.478 6.23a16.384 16.384 0 0 1-2.865 5.628 16.733 16.733 0 0 1-4.826 4.17 16.9 16.9 0 0 1-6.07 2.07 16.755 16.755 0 0 1-6.402-.359 16.309 16.309 0 0 1-5.765-2.762 16.004 16.004 0 0 1-4.231-4.77c-2.147-3.72-2.576-8.324-1.32-12.412a16.526 16.526 0 0 1 3.015-5.633 16.816 16.816 0 0 1 4.926-4.086 16.818 16.818 0 0 1 6.079-1.938 16.527 16.527 0 0 1 6.311.483 15.948 15.948 0 0 1 5.585 2.818 15.705 15.705 0 0 1 4.017 4.71Zm-.343.192a15.151 15.151 0 0 0-4.001-4.49 15.419 15.419 0 0 0-5.44-2.592 15.721 15.721 0 0 0-6.031-.322c-2.006.28-3.953.955-5.707 1.96a15.74 15.74 0 0 0-4.525 3.931 15.28 15.28 0 0 0-2.677 5.291 14.807 14.807 0 0 0-.432 5.844A15.37 15.37 0 0 0 90.821 78a14.788 14.788 0 0 0 3.784 4.433 15.03 15.03 0 0 0 5.26 2.646c1.917.529 3.946.684 5.939.447a15.815 15.815 0 0 0 5.717-1.83 15.825 15.825 0 0 0 4.626-3.846 15.482 15.482 0 0 0 2.826-5.296c1.186-3.859.728-8.129-1.172-11.694Z" fill="#281400"/><path d="M110.196 81.357c4.194-2.352 4.852-9.092 1.471-15.053-3.382-5.96-9.523-8.886-13.716-6.534-4.194 2.352-4.853 9.092-1.471 15.053 3.381 5.96 9.522 8.886 13.716 6.534Z" fill="#F7931E"/><path d="M112.298 65.95c1.358 2.525 2.182 5.37 2.095 8.275-.048 1.444-.35 2.908-1.002 4.239-.645 1.327-1.684 2.509-3.008 3.227-1.331.707-2.872.917-4.312.726-1.449-.183-2.804-.73-4.021-1.455-1.221-.723-2.306-1.642-3.261-2.67a18.068 18.068 0 0 1-2.48-3.376c-1.354-2.436-2.227-5.18-2.227-8.012.012-1.409.237-2.845.83-4.17.582-1.322 1.557-2.523 2.851-3.289 1.301-.754 2.852-1.028 4.328-.89 1.483.133 2.895.632 4.166 1.337 2.545 1.428 4.557 3.607 6.041 6.058Zm-1.273.714c-1.281-2.318-3.074-4.412-5.352-5.804-1.133-.69-2.39-1.2-3.7-1.375-1.305-.178-2.662 0-3.84.611-1.162.637-2.081 1.678-2.664 2.884-.587 1.209-.873 2.57-.905 3.926-.067 2.731.767 5.433 2.086 7.818 1.372 2.358 3.267 4.462 5.651 5.816 1.19.667 2.502 1.132 3.846 1.257 1.339.129 2.709-.114 3.853-.774 1.134-.685 1.988-1.744 2.51-2.947.528-1.203.736-2.536.732-3.856-.016-2.658-.899-5.26-2.217-7.556Z" fill="#281400"/><path d="M107.601 76.781c2.098-1.176 2.219-4.914.271-8.348-1.948-3.433-5.229-5.263-7.327-4.087-2.098 1.177-2.22 4.914-.271 8.348 1.948 3.434 5.229 5.264 7.327 4.087Z" fill="#000"/><path d="M99.07 68.148c1.096-.615 1.529-1.917.967-2.909-.562-.992-1.906-1.297-3.002-.682-1.096.616-1.53 1.918-.967 2.91.562.991 1.906 1.297 3.002.681ZM103.398 67.032c.398-.224.555-.697.351-1.057-.204-.36-.693-.471-1.091-.248-.398.224-.555.697-.351 1.057.205.36.693.471 1.091.248Z" fill="#fff"/><path opacity=".5" d="M96.6 86.628c-.824-.29-1.633-.61-2.427-.956l-2.57-1.128c-3.845-1.688-8.597.981-9.135 5.13l-.36 2.773a33.47 33.47 0 0 1-.432 2.56l-1.285 6.178c-.414 1.986.911 3.798 2.962 4.026 3.624-4.816 5.446-9.792 5.948-14.101 3.966 1.802 9.188 2.824 15.201 2.226.863-1.868-.008-3.931-1.93-4.607l-5.973-2.101Z" fill="#E8B17E"/><path opacity=".5" d="M89.37 91.192c-.764 6.569-4.57 14.691-13.209 21.41-2.878 2.237-5.51 4.646-7.976 7.05 2.803.222 5.706.198 8.67-.081.43-.04 1.466-2.657 1.693-3.116a32.865 32.865 0 0 1 2.298-3.897c1.713-2.507 3.72-4.808 5.796-7.032 2.027-2.172 4.148-4.303 6.67-5.887 4.435-2.786 9.468-3.354 14.415-4.594a50.226 50.226 0 0 1 6.804-1.2c.728-.079 2.76-.523 3.354.125 1.041 1.142-2.66 7.013-2.66 7.013 3.975-4.067 7.164-8.515 9.464-13.103-3.309.852-6.701 1.842-10.078 3.121-10.248 3.893-19.198 2.936-25.24.19Z" fill="#9B4F1C"/><path d="M94.03 103.926s6.178-5.59 4.217-10.39c-1.239-3.031-4.456-1.806-6.66-.493-1.441.86-2.16 2.457-1.755 3.93.555 2.03 1.742 4.935 4.199 6.953Z" fill="#CC9466"/><path d="M94.026 103.737a.125.125 0 0 0-.08.014c-.011.007-.023.013-.031.021l.005-.006.021-.024.042-.048.083-.095.167-.189.329-.383c.214-.26.434-.515.64-.777.413-.531.815-1.065 1.187-1.618.37-.553.715-1.12 1.03-1.702a9.75 9.75 0 0 0 .792-1.814c.404-1.255.341-2.658-.242-3.823-.282-.58-.737-1.076-1.337-1.32-.596-.254-1.288-.226-1.939-.098-.654.132-1.292.377-1.9.666-.306.144-.607.304-.9.475-.302.166-.57.347-.82.566-1.005.86-1.485 2.29-1.05 3.531.37 1.28.882 2.522 1.56 3.664.342.568.728 1.111 1.156 1.619.21.257.44.495.675.729.116.106.253.243.35.326.095.08.175.176.262.286Zm.008.383a4.749 4.749 0 0 1-.497-.377c-.157-.138-.25-.248-.38-.373a10.747 10.747 0 0 1-.684-.761c-.433-.526-.82-1.09-1.162-1.676a15.995 15.995 0 0 1-1.567-3.742 3.362 3.362 0 0 1-.002-2.065 3.828 3.828 0 0 1 1.155-1.738 4.81 4.81 0 0 1 .867-.593c.3-.171.606-.334.918-.482.624-.295 1.276-.548 1.964-.687.678-.133 1.42-.165 2.086.106.671.26 1.184.813 1.49 1.43.649 1.242.668 2.7.406 4.052a9.788 9.788 0 0 1-.631 1.987 11.36 11.36 0 0 1-1.03 1.814c-.39.574-.829 1.115-1.297 1.625-.236.255-.47.508-.724.746l-.385.35-.196.171-.103.082-.051.041-.026.02-.007.004a.34.34 0 0 1-.045.032.229.229 0 0 1-.099.034Z" fill="#281400"/><path d="M93.838 101.9s5.105-4.62 3.487-8.585c-1.022-2.506-3.683-1.492-5.502-.408-1.19.71-1.785 2.03-1.451 3.247.458 1.678 1.436 4.077 3.466 5.746Z" fill="#A50E0E"/><path d="M90.636 106.462s-7.073-6.592-5.964-13.034c1.109-6.442 3.006-7.947 8.033-5.48 5.026 2.466 6.333 5.61 2.709 6.783-3.622 1.17-5.363 8.181-4.778 11.731Z" fill="#E8B17E"/><path d="M90.726 106.631c-.05.028-.174.018-.228-.034-.038-.034-.02-.019-.034-.033l-.036-.035-.068-.071-.139-.145-.275-.292-.532-.593a27.519 27.519 0 0 1-1.026-1.22 27.632 27.632 0 0 1-1.86-2.587c-.58-.894-1.136-1.815-1.554-2.811a10.85 10.85 0 0 1-.77-3.162c-.06-.546-.042-1.1.002-1.65.07-.559.165-1.08.279-1.604.225-1.049.5-2.098.939-3.113a6.41 6.41 0 0 1 .851-1.452c.355-.447.837-.84 1.393-1.053.559-.22 1.157-.259 1.716-.197.564.06 1.098.203 1.611.388 1.022.377 1.977.867 2.9 1.415.913.556 1.797 1.178 2.539 1.96.364.393.703.82.925 1.322.23.487.325 1.084.108 1.621-.21.537-.67.92-1.15 1.18-.243.13-.497.239-.756.326-.258.09-.493.182-.725.306-.92.505-1.625 1.342-2.171 2.238-.543.906-.943 1.89-1.255 2.897a16.464 16.464 0 0 0-.63 3.086 14.724 14.724 0 0 0-.079 1.565c.002.261.012.521.033.778.009.13.027.257.038.385.003.044.027.186.014.289-.01.115-.04.217-.06.296Zm-.182-.338c-.037-.049-.088-.078-.115-.097-.029-.03-.03-.016-.037-.104-.01-.135-.025-.27-.029-.403a11.134 11.134 0 0 1-.013-.804c.01-.538.053-1.068.121-1.601.145-1.059.37-2.108.691-3.127.328-1.017.744-2.015 1.311-2.934.568-.908 1.28-1.78 2.255-2.316.242-.13.508-.233.757-.32.25-.083.491-.19.722-.311.456-.247.868-.6 1.048-1.067.186-.465.11-.996-.106-1.452-.208-.467-.543-.871-.902-1.244-.727-.743-1.611-1.335-2.533-1.837a16.713 16.713 0 0 0-2.882-1.26c-.498-.151-1.004-.274-1.507-.309-.502-.039-1.003.013-1.443.205-.894.377-1.46 1.28-1.841 2.22-.384.952-.622 1.974-.82 2.999a19.211 19.211 0 0 0-.246 1.53c-.026.503-.048 1.01.005 1.515.072 1.013.353 2.003.672 2.979.328.973.72 1.944 1.228 2.856.512.91 1.119 1.77 1.76 2.598.326.409.668.81 1.02 1.199.176.194.357.382.544.568l.278.277.142.134.072.067.037.031s.029.024.001.003c-.04-.037-.152-.031-.19.005Z" fill="#281400"/><path opacity=".7" d="M88.576 93.19s-.037-3.53 1.576-3.671c1.613-.14-1.576 3.67-1.576 3.67Z" fill="#E8B17E"/><path opacity=".7" d="M90.15 89.518c-1.201.105-1.488 2.085-1.555 3.091.51-.64 1.803-2.322 1.823-3.062a.616.616 0 0 0-.269-.029Z" fill="#E8B17E"/><path opacity=".5" d="M95.045 106.548c.63-.144 1.254-.19 1.873-.209.621-.011 1.237.002 1.85.059l-.42.283c.165-.471.349-.936.563-1.391.103-.229.222-.453.343-.677.123-.221.255-.444.407-.658-.002.26-.026.514-.054.765-.033.249-.068.5-.119.745-.093.493-.218.974-.36 1.453a.398.398 0 0 1-.401.283l-.02-.001a17.234 17.234 0 0 1-1.84-.193c-.613-.103-1.223-.229-1.822-.459Z" fill="#9B4F1C"/><path opacity=".4" d="M46.511 78.583c13.358-9.741 24.827-8.96 32.103-6.181 1.375-7.638 6.635-17.817 21.916-24.164 2.555-1.083 5.034-2.36 7.448-3.71.296-.166.615-.293.946-.388-1.114-.778-1.43-2.31-.705-3.619a74.878 74.878 0 0 0 1.761-3.378 65.332 65.332 0 0 0 2.618-6.035c.089-.242-.208-.421-.412-.246-.934.798-1.868 1.624-2.805 2.454-.236.209-.586.001-.473-.281.306-.774.591-1.541.85-2.298.608-1.758 1.295-4.748 1.652-6.377.076-.344-.359-.53-.617-.27a710.27 710.27 0 0 0-2.33 2.351c-.803.816-1.596 1.623-2.385 2.413a266.544 266.544 0 0 1-3.229 3.162c1.176-.317 2.391-.367 3.207.433.522.512.727 1.263.813 1.99.599 5.09-3.664 9.58-8.199 12.148-4.535 2.569-9.739 4.127-13.585 7.632-2.986 2.716-4.886 6.367-7.223 9.642-.782 1.1-1.657 2.193-2.85 2.835-1.665.896-3.66.78-5.548.868-11.454.535-21.164 9.354-32.563 10.698-2.116.25-4.245.235-6.369.225-.299-.002-.596-.002-.894-.002l-.765.001c-1.114.343-2.223.684-3.312 1.04-.256.083-.258.43-.004.48 2.221.417 4.389.691 6.53.88 1.287.116 2.563.196 3.83.244 1.538.06 2.622 1.174 2.635 2.57.279-.274.589-.51.925-.698 2.404-1.35 4.782-2.802 7.034-4.42Z" fill="#9B4F1C"/><path opacity=".5" d="M51.354 63.809c.787.343 1.53.757 2.253 1.197l-.309.176c-.07-1.213-.097-2.427.04-3.653.243 1.204.322 2.415.36 3.63v.006a.197.197 0 0 1-.191.202.206.206 0 0 1-.118-.032 18.276 18.276 0 0 1-2.035-1.526ZM77.808 58.212c.806.221 1.56.557 2.297.924l-.294.15c.127-.785.286-1.566.567-2.322.043.818-.042 1.612-.153 2.4a.199.199 0 0 1-.234.168.25.25 0 0 1-.062-.02c-.734-.374-1.455-.777-2.121-1.3ZM36.19 75.941c.667.184 1.291.461 1.902.764l-.244.125c.105-.65.235-1.293.47-1.922.035.676-.035 1.333-.127 1.983a.166.166 0 0 1-.195.14.127.127 0 0 1-.05-.018c-.61-.307-1.208-.642-1.756-1.072ZM94.591 40.32c.123.81.153 1.623.162 2.435l.002.002a.127.127 0 0 1-.177.118 16.199 16.199 0 0 1-1.819-.922c.662.183 1.296.428 1.925.691l-.178.12c-.023-.815-.014-1.629.085-2.443Z" fill="#E8B17E"/><path opacity=".3" d="M76.744 44.9a63.96 63.96 0 0 0-7.879 3.245c-1.088-.306-.79-2.25-.428-3.62.127-.48-.461-.853-.797-.507-1.382 1.431-1.59 3.703-1.605 4.808a1.067 1.067 0 0 1-.569.944c-.402.207-.906.01-1.109-.426-1.54-3.288-4.122-3.633-5.816-3.44-.313.035-.328.486-.024.59 2.939 1.003 3.208 5.446 3.208 5.446l.044.265c-.083.056-.165.108-.249.164a1.492 1.492 0 0 0-.283 2.261c.054.056.104.113.161.17 1.823 1.864 4.84 1.959 6.904.297 2.59-2.087 6.408-5.307 9.523-8.525.753-.785-.05-2.02-1.08-1.672Z" fill="#9B4F1C"/><path d="M160.192 82.351c-16.019-5.505-30.081 3.857-30.081 3.857s.163.535.473 1.521c11.063 6.194 21.237 16.169 28.579 29.101 10.142 17.866 12.63 37.404 8.237 53.148 4.193 3.768 8.045 3.829 11.097-2.008 14.77-28.271-2.287-80.113-18.305-85.619Z" fill="#60300F"/><path d="M175.213 172.351a4.98 4.98 0 0 1-1.537.565c-1.974.366-4.175-.526-6.542-2.653a.38.38 0 0 1-.112-.384c4.569-16.365 1.579-35.63-8.201-52.857-7.097-12.503-16.93-22.515-28.434-28.957a.366.366 0 0 1-.177-.22c-.311-.987-.474-1.523-.474-1.523a.387.387 0 0 1 .157-.434c.143-.095 14.411-9.407 30.429-3.902 5.946 2.044 12.143 10.2 16.998 22.382 7.504 18.824 10.883 45.846 1.518 63.773-1.069 2.049-2.283 3.458-3.625 4.21Zm-7.374-2.504c2.11 1.845 4.028 2.624 5.702 2.312 1.709-.315 3.258-1.783 4.605-4.361 9.253-17.712 5.887-44.474-1.552-63.139-4.703-11.799-10.885-20-16.537-21.944-14.515-4.99-27.555 2.472-29.485 3.659.07.23.184.6.341 1.096 11.567 6.51 21.45 16.596 28.589 29.17 9.836 17.321 12.867 36.698 8.337 53.207Z" fill="#281400"/><path opacity=".7" d="M186.557 120.854a47.21 47.21 0 0 0-1.323-6.483c-.256 9.735-1.167 20.394-3.816 23.708-5.24 6.556-32.708-42.282-35.929-48.38-1.992-3.769 3.063-8.14 7.216-10.93-12.733-.877-22.598 7.445-22.598 7.445s.163.536.473 1.522c11.062 6.193 21.234 16.166 28.575 29.098.249.438.488.876.729 1.316a106.956 106.956 0 0 1 1.044 1.978l.232.457a141.134 141.134 0 0 1 .477.962l.316.655c.148.312.292.626.438.938l.305.664c.147.325.288.65.43.977l.208.477.19.45c.142.339.281.677.417 1.017l.177.442c.072.183.141.365.213.547.077.202.158.405.235.606.033.086.066.171.096.258.097.258.191.517.285.777.08.218.156.435.235.651.112.319.224.636.33.956.064.19.128.38.19.572.104.309.204.617.301.926.025.078.048.157.074.234a85.107 85.107 0 0 1 .466 1.543c.113.387.22.773.326 1.158l.072.259c.11.409.218.82.319 1.228.017.064.031.127.048.19.106.424.208.85.306 1.276.013.056.028.116.039.174.099.433.193.864.283 1.297.038.183.078.363.114.548.063.31.123.619.181.929l.106.573c.058.323.116.645.169.97.025.142.045.287.07.432.188 1.173.348 2.341.475 3.502l.04.351c.038.364.075.726.105 1.088.012.119.02.239.032.358.032.377.061.752.086 1.127l.009.148a66.198 66.198 0 0 1 .138 5.122l-.003.203a62.317 62.317 0 0 1-.282 5.098 56.498 56.498 0 0 1-1.784 9.705c4.192 3.767 8.044 3.829 11.095-2.007a43.036 43.036 0 0 0 2.52-5.903c.694.204 1.46.142 1.792-.347 7.97-11.759 7.766-26.919 3.758-40.862Z" fill="#E8B17E"/><path d="M45.922 146.522c3.564-16.565 18.99-23.723 18.99-23.723s.38.419 1.072 1.196c-.39 12.685 2.959 26.576 10.343 39.583 10.201 17.969 25.833 30.261 41.757 34.694 1.083 5.546-.868 8.873-7.512 8.447-32.175-2.075-68.213-43.632-64.65-60.197Z" fill="#60300F"/><path d="M116.075 206.189c.499-.28.929-.619 1.289-1.021 1.344-1.498 1.716-3.844 1.105-6.975a.383.383 0 0 0-.275-.296c-16.553-4.606-31.687-17.185-41.523-34.512-7.139-12.575-10.697-26.193-10.293-39.384a.371.371 0 0 0-.098-.266c-.694-.779-1.073-1.198-1.073-1.198a.395.395 0 0 0-.457-.091c-.157.073-15.647 7.432-19.21 23.996-1.323 6.15 2.52 15.693 10.546 26.183 12.404 16.211 34.054 33.158 54.457 34.474 2.331.152 4.182-.153 5.532-.91Zm1.667-7.61c.5 2.765.177 4.81-.963 6.08-1.163 1.298-3.24 1.859-6.174 1.67-20.157-1.3-41.59-18.101-53.89-34.174-7.774-10.16-11.663-19.714-10.406-25.559 3.229-15.011 16.476-22.283 18.508-23.317.162.18.424.47.772.862-.378 13.281 3.218 26.981 10.397 39.628 9.889 17.424 25.097 30.096 41.756 34.81Z" fill="#281400"/><path d="M45.95 146.49c3.563-16.567 18.992-23.725 18.992-23.725s.38.419 1.073 1.196c-.39 12.687 2.96 26.58 10.346 39.589 8.194 14.433 19.892 25.198 32.428 31.176 2.216 2.955.718 5.336-12.452 4.009 0 0 4.761 2.624 7.569 5.3.822.782.2 3.039-.95 3.096-33.778 1.656-60.304-45.315-57.007-60.641Z" fill="#7A421C"/><path d="M46.459 146.589c.544-2.492 1.365-4.934 2.498-7.237.558-1.156 1.207-2.267 1.894-3.356a38.545 38.545 0 0 1 2.279-3.127 39.168 39.168 0 0 1 5.5-5.473 39.664 39.664 0 0 1 3.133-2.313c1.077-.718 2.206-1.4 3.345-1.964l-.458-.091 1.07 1.193-.095-.263c-.205 7.306.796 14.603 2.768 21.605 1.978 7.006 4.926 13.723 8.676 19.956 3.75 6.234 8.291 12.012 13.582 17.05 5.294 5.026 11.325 9.329 17.962 12.505l-.142-.117c.376.512.715 1.082.761 1.628.054.539-.279.972-.819 1.272-.542.291-1.186.47-1.84.588-.656.118-1.33.182-2.008.224-1.354.079-2.723.055-4.09-.01a79.12 79.12 0 0 1-4.096-.313.4.4 0 0 0-.436.346.382.382 0 0 0 .195.377l.001.002c1.905 1 3.764 2.131 5.492 3.408.433.32.861.647 1.27.99.209.169.41.346.608.524.089.085.222.186.274.261a.846.846 0 0 1 .162.279c.16.427.101.965-.068 1.426-.167.453-.507.902-.915.925-4.341.236-8.722-.462-12.813-1.834-4.101-1.369-7.94-3.39-11.51-5.762a69.548 69.548 0 0 1-9.98-8.086c-6.12-6.004-11.318-12.937-15.44-20.442-2.053-3.754-3.84-7.662-5.172-11.719-.656-2.03-1.209-4.095-1.536-6.189-.318-2.083-.461-4.23-.052-6.263Zm-1.011-.196c-.469 2.232-.33 4.471-.018 6.637.316 2.174.863 4.295 1.51 6.376 1.316 4.158 3.088 8.143 5.134 11.974a88.139 88.139 0 0 0 6.985 11.002 80.362 80.362 0 0 0 8.599 9.833c3.133 3.038 6.531 5.838 10.257 8.169 3.722 2.329 7.76 4.195 11.996 5.415 4.239 1.218 8.662 1.779 13.091 1.561.356-.027.664-.227.869-.459.209-.235.353-.503.458-.777.108-.276.162-.568.182-.859a2.075 2.075 0 0 0-.118-.89 1.239 1.239 0 0 0-.245-.414 1.008 1.008 0 0 0-.157-.161l-.149-.141c-.199-.19-.401-.373-.611-.55a25.18 25.18 0 0 0-1.271-1.036c-1.738-1.327-3.552-2.529-5.426-3.669l-.001-.003-.24.725c1.374.138 2.755.25 4.14.317 1.384.068 2.775.091 4.175.011a18.63 18.63 0 0 0 2.103-.234c.7-.131 1.411-.314 2.088-.678.335-.191.665-.44.908-.798.246-.354.351-.812.312-1.218-.084-.824-.501-1.448-.913-2.024a.333.333 0 0 0-.132-.11l-.009-.005c-6.554-3.136-12.522-7.394-17.761-12.368-5.238-4.988-9.739-10.711-13.454-16.89-3.718-6.178-6.64-12.836-8.597-19.773-1.954-6.932-2.945-14.155-2.741-21.374l-.002-.002a.381.381 0 0 0-.095-.264l-1.074-1.198a.392.392 0 0 0-.457-.091l-.003.001c-1.22.592-2.352 1.269-3.466 1.998a41.886 41.886 0 0 0-3.22 2.337 40.108 40.108 0 0 0-5.67 5.559 38.041 38.041 0 0 0-2.363 3.193c-.714 1.113-1.39 2.253-1.978 3.44-1.183 2.353-2.055 4.866-2.636 7.438Z" fill="#281400"/><path d="M45.958 146.467C49.52 129.906 64.94 122.75 64.94 122.75s.378.418 1.071 1.196c-.39 12.681 2.957 26.568 10.338 39.572 4.302 7.578 9.572 14.144 15.418 19.537.757 3.704-1.1 5.35-10.26-.748 0 0 18.012 26.339-6.745 12.372-22.66-10.317-31.066-37.703-28.805-48.212Z" fill="#9B4F1C"/><path d="M46.701 146.612a31.476 31.476 0 0 1 2.423-7.205c.545-1.155 1.182-2.265 1.856-3.353a37.172 37.172 0 0 1 2.244-3.128 39.138 39.138 0 0 1 5.442-5.502 40.565 40.565 0 0 1 3.11-2.334c1.073-.724 2.193-1.414 3.326-1.987l-.457-.092 1.07 1.193-.096-.263a70.81 70.81 0 0 0 1.531 16.587 79.621 79.621 0 0 0 2.153 8.044 87.97 87.97 0 0 0 2.987 7.771 92.699 92.699 0 0 0 3.755 7.429 85.246 85.246 0 0 0 4.472 7.027A80.208 80.208 0 0 0 91.5 183.337l-.115-.203c.104.544.181 1.1.124 1.609-.053.516-.258.935-.655 1.099-.401.179-.962.149-1.493.038a9.637 9.637 0 0 1-1.605-.506c-1.055-.436-2.079-.972-3.077-1.551-.999-.581-1.979-1.2-2.943-1.841a.399.399 0 0 0-.545.097.382.382 0 0 0-.02.42l.015.026a102.542 102.542 0 0 1 3.696 6.672 38.698 38.698 0 0 1 1.518 3.454c.43 1.162.792 2.377.82 3.523.01.567-.101 1.1-.375 1.444-.14.168-.322.295-.547.393-.22.099-.494.141-.77.17-.563.051-1.175-.027-1.78-.152a14.987 14.987 0 0 1-1.811-.498c-2.407-.807-4.695-2.009-6.992-3.161l-.027-.013a42.081 42.081 0 0 1-1.682-.788 9.818 9.818 0 0 1-.819-.439l-.805-.462c-.267-.155-.538-.304-.801-.464l-.779-.502c-.515-.338-1.045-.657-1.539-1.029a42.357 42.357 0 0 1-5.668-4.72c-3.505-3.445-6.483-7.386-8.895-11.634-2.445-4.23-4.347-8.761-5.704-13.433a48.497 48.497 0 0 1-1.548-7.113c-.291-2.395-.406-4.847.024-7.161Zm-1.478-.291c-.549 2.578-.48 5.147-.237 7.668.267 2.52.788 4.993 1.465 7.415 1.388 4.838 3.495 9.442 6.098 13.728 2.626 4.273 5.833 8.2 9.547 11.576 1.857 1.688 3.828 3.255 5.935 4.627.511.362 1.061.672 1.597 1.002l.805.487c.273.155.553.299.83.448 1.093.621 2.245 1.128 3.352 1.726l-.027-.013c2.213 1.356 4.514 2.581 6.995 3.513.62.233 1.262.43 1.921.589.663.155 1.351.27 2.092.23.37-.029.754-.078 1.138-.232.38-.151.754-.395 1.035-.725.559-.682.678-1.496.687-2.199-.022-1.43-.433-2.707-.873-3.943-.453-1.235-1.021-2.408-1.616-3.56a44.934 44.934 0 0 0-1.937-3.364 44.833 44.833 0 0 0-2.189-3.202l-.55.542a58.417 58.417 0 0 0 2.986 1.866 26.763 26.763 0 0 0 3.174 1.601c.558.223 1.132.42 1.745.548.305.062.622.106.955.104.326.005.683-.048 1.024-.199.343-.149.647-.428.824-.748.18-.319.258-.658.295-.981.072-.649-.021-1.255-.134-1.847a.359.359 0 0 0-.11-.199l-.005-.004A79.137 79.137 0 0 1 81.17 170.36a84.688 84.688 0 0 1-4.431-6.965 92.022 92.022 0 0 1-3.722-7.365 88.1 88.1 0 0 1-2.957-7.697 79.554 79.554 0 0 1-2.131-7.968 70.153 70.153 0 0 1-1.518-16.406l.001-.004a.38.38 0 0 0-.096-.263l-1.072-1.198a.394.394 0 0 0-.457-.091c-1.225.584-2.36 1.252-3.48 1.972a39.918 39.918 0 0 0-3.239 2.317 40.163 40.163 0 0 0-5.722 5.527 39.52 39.52 0 0 0-2.397 3.186c-.726 1.114-1.415 2.254-2.011 3.44-1.218 2.368-2.114 4.891-2.715 7.476Z" fill="#281400"/><path d="M44.828 142.816c4.42-14.876 20.047-20.08 20.047-20.08s.378.418 1.07 1.194c-.39 12.669 2.95 26.542 10.32 39.531.42.742.852 1.47 1.292 2.195.44 4.34-1.426 6.665-11.157-2.558 0 0 11.227 30.65-15.073.475-4.118-4.726-8.4-13.119-6.499-20.757Z" fill="#A55D2B"/><path d="M45.239 142.921a26.014 26.014 0 0 1 3.152-6.405c1.336-1.978 2.85-3.835 4.574-5.505 1.718-1.674 3.624-3.167 5.64-4.5 2.022-1.309 4.173-2.497 6.392-3.41l-.416-.108 1.069 1.192-.096-.263c-.208 7.38.815 14.749 2.827 21.815 2.015 7.07 5.024 13.841 8.84 20.12l-.052-.159c.06.652.092 1.313-.008 1.928-.089.613-.34 1.183-.802 1.353-.463.196-1.12.057-1.709-.169-.6-.228-1.182-.55-1.744-.899-1.127-.704-2.189-1.534-3.22-2.397a68.494 68.494 0 0 1-3.01-2.697.398.398 0 0 0-.555.017.38.38 0 0 0-.087.399c.689 2.299 1.376 4.618 1.87 6.955.237 1.17.426 2.355.436 3.523.002.579-.04 1.162-.202 1.674-.155.523-.458.908-.9 1.027-.45.129-1.025.007-1.557-.19a9.101 9.101 0 0 1-1.574-.788c-1.02-.618-1.978-1.361-2.91-2.129-1.854-1.554-3.592-3.252-5.286-4.987a129.77 129.77 0 0 1-4.898-5.38c-1.565-1.841-2.835-3.919-3.904-6.075-1.022-2.183-1.796-4.487-2.172-6.854-.348-2.363-.294-4.806.302-7.088Zm-.825-.207c-.542 2.473-.485 4.982-.03 7.397.493 2.409 1.336 4.719 2.418 6.903.557 1.082 1.134 2.16 1.81 3.173.316.519.686 1.006 1.027 1.513.369.484.72.985 1.118 1.45 1.565 1.868 3.193 3.669 4.845 5.458 1.658 1.783 3.358 3.53 5.199 5.153.922.807 1.871 1.589 2.923 2.265a9.578 9.578 0 0 0 1.677.897c.598.23 1.277.442 2.043.265.376-.095.733-.317.983-.607.257-.289.407-.622.52-.943.216-.653.267-1.299.278-1.932.01-1.266-.162-2.493-.383-3.703a36.822 36.822 0 0 0-2.066-7.038l-.643.415a67.846 67.846 0 0 0 3.045 2.729c1.05.877 2.13 1.724 3.308 2.462.591.366 1.205.707 1.882.966.335.135.697.227 1.074.288.382.048.807.04 1.217-.129.413-.164.746-.505.936-.863.194-.36.287-.732.346-1.094.114-.728.076-1.431.013-2.124a.362.362 0 0 0-.05-.154l-.003-.004c-3.784-6.223-6.765-12.933-8.76-19.935-1.992-6.997-3.003-14.289-2.798-21.581l-.002-.003a.381.381 0 0 0-.095-.263l-1.072-1.196a.39.39 0 0 0-.415-.108c-2.402.769-4.642 1.86-6.785 3.145a34.24 34.24 0 0 0-5.972 4.517c-1.812 1.726-3.45 3.658-4.709 5.821-.166.265-.315.539-.46.814-.145.276-.3.546-.438.827-.26.566-.542 1.121-.764 1.703-.492 1.14-.871 2.32-1.217 3.516Z" fill="#281400"/><path d="M58.794 160.921c.529.393 1.095.679 1.67.948.576.256 1.164.487 1.77.671l.029.008a.4.4 0 0 0 .493-.256l.007-.022c.116-.445.217-.897.293-1.354.071-.459.129-.921.119-1.403a8.253 8.253 0 0 0-.682 1.244c-.19.426-.359.858-.509 1.294l.527-.268a16.082 16.082 0 0 0-1.809-.569c-.619-.143-1.245-.27-1.908-.293ZM75.287 179.607a19.685 19.685 0 0 0-.636 2.415c-.09.404-.154.81-.227 1.217-.07.407-.128.813-.184 1.222l.625-.305a38.353 38.353 0 0 0-1.11-.628c-.38-.195-.75-.404-1.137-.585-.381-.192-.772-.368-1.164-.54-.397-.164-.794-.334-1.207-.467.317.295.656.555.993.82a25.6 25.6 0 0 0 1.04.744c.346.247.709.467 1.065.703.36.227.725.445 1.091.66l.004.001a.417.417 0 0 0 .622-.306c.05-.409.1-.817.133-1.228.034-.411.074-.821.09-1.234.047-.824.065-1.653.002-2.489ZM60.229 140.328c-.55.65-1.03 1.334-1.485 2.031-.233.345-.444.703-.664 1.057-.216.354-.422.715-.624 1.077l.693-.06c-.26-.333-.526-.663-.796-.99-.281-.318-.546-.648-.838-.957-.283-.317-.579-.624-.876-.927-.307-.297-.611-.596-.947-.874.186.39.403.756.617 1.127.222.364.447.722.687 1.073.23.356.484.695.725 1.042.25.341.506.676.768 1.011l.001.002a.417.417 0 0 0 .692-.062c.198-.363.396-.729.579-1.102.183-.373.373-.74.542-1.123.35-.749.673-1.517.926-2.325ZM93.617 191.244c.131.862.336 1.698.564 2.527.111.416.239.823.365 1.234.123.41.272.811.407 1.22l.404-.546a40.45 40.45 0 0 0-2.83.005c-.472.017-.945.046-1.418.084-.473.045-.947.087-1.42.171.468.106.936.174 1.404.243.468.063.937.116 1.409.158.939.086 1.88.132 2.822.153h.01a.408.408 0 0 0 .394-.547c-.151-.399-.29-.806-.456-1.201-.162-.397-.32-.796-.497-1.187a22.522 22.522 0 0 0-1.159-2.314Z" fill="#E8B17E"/><path opacity=".7" d="M65.562 189.104a47.856 47.856 0 0 1-4.927-4.504c8.567 4.846 18.274 9.612 22.522 9.07 8.406-1.072-19.612-49.973-23.219-55.901-2.227-3.664-8.644-1.614-13.221.486C52.58 126.908 64.922 122.8 64.922 122.8s.379.418 1.072 1.196c-.39 12.683 2.958 26.573 10.341 39.579.25.441.506.873.762 1.308.16.272.324.544.487.813.186.307.374.615.563.921.04.064.078.125.12.188l.275.436c.195.303.388.604.583.904a324.312 324.312 0 0 1 .406.616c.192.289.39.575.584.863.14.201.277.404.416.606.205.294.413.584.623.875.103.143.203.286.305.426l.291.397c.22.298.44.593.663.886l.292.381c.12.157.242.311.363.468.135.17.268.345.403.515a74.047 74.047 0 0 0 .698.864c.147.182.295.36.441.54a65.935 65.935 0 0 0 1.053 1.24c.214.25.43.495.646.739l.165.185a96.605 96.605 0 0 0 1.094 1.202 68.966 68.966 0 0 0 1.02 1.077c.297.307.597.613.898.912.046.048.093.092.14.14.311.311.628.62.946.925.042.041.085.084.13.124.324.31.648.615.976.917.14.128.274.255.416.382.235.216.472.428.71.638l.442.39c.249.217.498.434.752.649.11.095.226.187.337.284a72.88 72.88 0 0 0 3.958 3.101c.097.072.197.142.294.213.31.224.62.444.931.66l.124.085a68.242 68.242 0 0 0 3.228 2.103l.102.063c.345.21.688.414 1.035.616l.178.104a63.43 63.43 0 0 0 4.563 2.41 57.666 57.666 0 0 0 9.335 3.523c1.082 5.546-.868 8.873-7.511 8.446a43.811 43.811 0 0 1-6.424-.915c-.185.7-.636 1.322-1.232 1.352-14.333.7-27.36-7.361-37.354-18.043Z" fill="#E8B17E"/><path d="M128.829 87.128c-1.273.3-2.565.618-3.872.952-4.624 9.217-12.834 17.87-23.759 24.004-10.909 6.124-22.576 8.643-32.88 7.828a206.25 206.25 0 0 0-2.74 2.727c-.548.554-1.142.906-1.746.846-.002.001-.003-.001-.007-.002a82.418 82.418 0 0 0-1.46 7.91c-.183 1.133.418 2.106 1.485 2.347l.043.01c1.332.303 2.285 1.222 2.562 2.523.038.182.082.365.134.543.879 3.127 3.475 5.167 7.513 5.886 1.74.315 2.91 1.453 3.253 3.089.03.141.065.28.106.418.849 2.836 4.09 4.115 9.032 3.806 2.752-.165 4.725 1.153 5.31 3.369.027.11.06.219.1.321.958 2.629 4.955 3.227 10.706 1.964 6.038-1.317 11.844-1.1 16.854.539 4.029 1.336 10.336-2.311 11.037-6.386.87-4.903 3.463-9.817 7.518-14.166 3.863-4.128 5.307-7.727 3.584-9.855a3.583 3.583 0 0 0-.224-.253c-1.601-1.645-1.714-4.007-.149-6.266 2.822-4.05 3.402-7.471 1.405-9.662a5.19 5.19 0 0 0-.305-.307c-1.228-1.142-1.599-2.722-.969-4.371 1.474-3.811 1.065-7.079-1.165-9.444a9.972 9.972 0 0 0-.407-.405c-.965-.896-1.266-2.163-.841-3.443a.238.238 0 0 1 .014-.042c.408-1.228-.258-2.43-1.525-2.937a82.421 82.421 0 0 0-6.977-2.613l-.008.02c-.253.547-.862.87-1.622 1.05Z" fill="#E8B17E"/><path d="m128.915 87.502-3.863.95.254-.204c-2.547 5.132-6.019 9.802-10.071 13.887-4.056 4.09-8.682 7.617-13.682 10.525-5.005 2.892-10.415 5.137-16.05 6.521-5.62 1.397-11.512 1.917-17.222 1.112l.307-.111-2.075 2.063-.519.517a6.23 6.23 0 0 1-.574.53c-.417.328-.984.634-1.632.572h-.006l.424-.299a77.543 77.543 0 0 0-.965 4.701 85.146 85.146 0 0 0-.38 2.371c-.052.386-.132.827-.142 1.143-.001.339.086.668.26.938a1.5 1.5 0 0 0 .745.588c.077.033.153.045.24.073.105.026.214.053.318.083.212.067.422.141.621.246a3.547 3.547 0 0 1 1.777 1.933c.078.204.14.437.184.626.051.184.084.373.147.551.11.364.247.721.412 1.061.33.68.77 1.304 1.305 1.842 1.07 1.081 2.488 1.799 3.991 2.223.377.099.757.2 1.145.269l.61.123c.216.05.429.113.638.191a4.232 4.232 0 0 1 2.077 1.634c.246.374.427.787.549 1.209l.15.583c.039.179.121.341.178.513.27.668.74 1.229 1.323 1.664.584.437 1.278.746 2.008.957.73.215 1.501.34 2.285.393.782.058 1.571.057 2.363.005.38-.015.83-.061 1.27-.037a6.8 6.8 0 0 1 1.318.169c.436.099.863.259 1.27.457.404.212.782.472 1.124.78.334.315.622.675.864 1.063.23.395.416.811.545 1.248.204.656.564 1.155 1.119 1.523.549.365 1.246.58 1.976.694.73.114 1.497.138 2.265.115.773-.041 1.548-.11 2.327-.24.778-.116 1.551-.288 2.326-.458a42.223 42.223 0 0 1 2.456-.474 34.948 34.948 0 0 1 4.985-.431c3.339-.041 6.694.434 9.858 1.505l.41.29-.406-.29c.914.307 1.978.325 3.025.136a10.176 10.176 0 0 0 3.052-1.103c.959-.53 1.846-1.199 2.574-1.994.364-.396.684-.826.945-1.281.142-.222.22-.467.337-.701.058-.117.073-.239.111-.358l.152-.517-.046.144c.638-3.195 1.945-6.217 3.664-8.952a33.235 33.235 0 0 1 2.866-3.907c.515-.615 1.083-1.211 1.613-1.796a26.69 26.69 0 0 0 1.526-1.804c.942-1.245 1.791-2.59 2.213-4.042.202-.724.267-1.476.079-2.16l-.073-.254c-.031-.083-.074-.16-.111-.24-.062-.166-.17-.306-.268-.452a1.308 1.308 0 0 0-.163-.211l-.191-.215a4.467 4.467 0 0 1-.399-.49 4.503 4.503 0 0 1-.851-2.358c-.066-.847.129-1.694.453-2.461.173-.381.362-.755.597-1.097l.661-.992a18.82 18.82 0 0 0 1.133-2.051c.629-1.404 1.072-2.954.781-4.424a4.174 4.174 0 0 0-.97-1.957c-.124-.143-.249-.259-.396-.408a4.923 4.923 0 0 1-.423-.467 4.057 4.057 0 0 1-.624-1.1c-.302-.797-.318-1.687-.104-2.501.049-.204.123-.408.19-.597l.196-.549c.117-.371.237-.74.322-1.117.367-1.498.445-3.074.019-4.532a6.909 6.909 0 0 0-.97-2.036c-.115-.153-.223-.305-.342-.455l-.376-.428-.411-.406a3.561 3.561 0 0 1-.425-.481 3.425 3.425 0 0 1-.646-2.447c.036-.425.22-.867.265-1.167a1.864 1.864 0 0 0-.115-.989 2.101 2.101 0 0 0-.615-.804 2.366 2.366 0 0 0-.438-.284c-.153-.079-.329-.147-.517-.227a83.42 83.42 0 0 0-2.206-.883 76.195 76.195 0 0 0-4.48-1.562l-.024-.008.477-.207c-.082.19-.217.375-.364.521a2.4 2.4 0 0 1-.485.368c-.345.205-.702.32-1.055.406Zm-.17-.746a3.2 3.2 0 0 0 .839-.313c.122-.07.232-.151.321-.24a.91.91 0 0 0 .209-.301l.139-.321.337.112.023.008a85 85 0 0 1 4.5 1.64c.742.293 1.481.597 2.21.907.174.076.371.154.569.256.195.104.382.225.55.368.345.279.617.65.794 1.066.163.42.225.885.145 1.332-.025.219-.118.456-.16.611-.054.174-.088.351-.114.53a2.802 2.802 0 0 0 .513 2.019c.102.147.224.28.354.405l.427.43.405.462c.128.16.248.327.368.49a7.44 7.44 0 0 1 1.05 2.209c.457 1.58.366 3.265-.021 4.832-.089.397-.213.781-.338 1.165l-.206.569c-.064.183-.127.352-.172.536-.189.715-.173 1.474.084 2.153.128.339.308.658.534.946.112.144.237.282.368.409.129.135.293.286.427.44a4.716 4.716 0 0 1 1.098 2.223c.163.82.124 1.662-.037 2.465-.159.805-.434 1.578-.759 2.321-.341.737-.731 1.45-1.16 2.136l-.657 1.002a6.481 6.481 0 0 0-.538 1c-.286.691-.448 1.437-.387 2.165.048.728.312 1.43.746 2.019.103.149.223.289.348.423l.204.227c.074.077.141.161.202.252.125.177.253.354.337.557.047.099.098.195.136.295l.094.313c.234.841.153 1.719-.065 2.52-.454 1.608-1.339 3.01-2.305 4.308a26.978 26.978 0 0 1-1.555 1.867c-.542.602-1.062 1.178-1.566 1.793-1.001 1.22-1.926 2.501-2.717 3.856a27.1 27.1 0 0 0-2.036 4.218 24.22 24.22 0 0 0-1.187 4.481l-.045.145c.094-.312.026-.085.046-.155l-.001.004-.002.007-.004.015-.007.031-.013.059-.029.12-.057.239c-.044.159-.067.327-.129.475-.126.293-.225.608-.38.884a8.607 8.607 0 0 1-1.064 1.569c-.817.956-1.795 1.745-2.862 2.387a11.708 11.708 0 0 1-3.482 1.397c-1.24.267-2.587.331-3.896-.079l.003.001c-2.987-.919-6.14-1.334-9.296-1.272a36.475 36.475 0 0 0-4.729.379 41.68 41.68 0 0 0-2.346.409c-.817.163-1.643.307-2.478.404-1.668.196-3.379.273-5.11-.06-.858-.173-1.738-.465-2.51-1.025-.375-.289-.737-.62-1-1.033l-.195-.307-.146-.33c-.105-.212-.168-.46-.226-.662a4.524 4.524 0 0 0-.369-.963 3.884 3.884 0 0 0-.62-.813 4.195 4.195 0 0 0-.835-.613 4.706 4.706 0 0 0-.994-.387 5.587 5.587 0 0 0-1.084-.168c-.373-.031-.733-.003-1.167.006-.83.033-1.667.006-2.503-.07a11.749 11.749 0 0 1-2.486-.463c-.814-.25-1.616-.61-2.311-1.146-.696-.53-1.277-1.249-1.597-2.071-.069-.209-.16-.41-.208-.624l-.141-.579a3.581 3.581 0 0 0-.426-.971 3.34 3.34 0 0 0-1.629-1.31 4.077 4.077 0 0 0-.522-.164l-.577-.124c-.409-.078-.81-.188-1.213-.3-1.593-.474-3.14-1.26-4.327-2.47a7.533 7.533 0 0 1-1.443-2.064 7.966 7.966 0 0 1-.448-1.174c-.066-.198-.105-.405-.157-.607a4.472 4.472 0 0 0-.148-.523 2.772 2.772 0 0 0-1.392-1.529 3.483 3.483 0 0 0-.503-.202l-.268-.072c-.106-.028-.23-.056-.338-.102a2.265 2.265 0 0 1-1.107-.884 2.448 2.448 0 0 1-.38-1.341c.02-.486.097-.837.148-1.247a80.486 80.486 0 0 1 1.345-7.139l.084-.355.34.056.007.002c.342.037.721-.133 1.062-.404.33-.264.672-.648 1.023-.983l2.082-2.074.1-.114.207.003a66.874 66.874 0 0 0 16.776-1.904c5.478-1.357 10.778-3.442 15.758-6.144 4.97-2.711 9.602-6.076 13.645-10.04 4.037-3.964 7.508-8.515 10.081-13.53l.087-.165.169-.043 3.886-.954Z" fill="#281400"/><path opacity=".5" d="M128.795 87.108c-1.273.3-2.563.617-3.869.952-4.622 9.212-12.827 17.86-23.746 23.991-10.902 6.121-22.562 8.639-32.86 7.824-.934.912-1.848 1.824-2.738 2.726-.548.554-1.141.905-1.744.845-.003.001-.004-.001-.008-.002a82.328 82.328 0 0 0-1.46 7.907c-.182 1.131.418 2.104 1.485 2.345l.042.01c1.332.303 2.284 1.221 2.56 2.521.039.183.083.365.134.543.879 3.125 3.474 5.164 7.509 5.883 1.739.315 2.908 1.452 3.25 3.087.03.141.066.28.107.418.847 2.835 4.087 4.113 9.025 3.804 2.75-.165 4.722 1.152 5.306 3.368.028.109.061.218.1.32.954 2.62 4.934 3.221 10.655 1.973 0-.006.004-.011.003-.017.007-.032.014-.063.018-.095a101.669 101.669 0 0 1-25.83-22.912c-.846-1.058-1.707-2.249-1.66-3.603.068-1.96 1.966-3.355 3.761-4.219 9.119-4.392 19.992-3.231 29.453-6.82 10.975-4.161 18.761-14.35 22.736-25.27a65.118 65.118 0 0 0 1.803-5.83 74.575 74.575 0 0 0-2.403-.813c-.004.005-.005.01-.004.015-.257.546-.866.87-1.625 1.05Z" fill="#E8B17E"/><path opacity=".5" d="M82.597 134.313c1.192.058 2.356.23 3.516.417 1.157.199 2.306.438 3.447.711l-.479.302c.09-.394.209-.784.31-1.176.101-.392.227-.779.341-1.169.126-.387.244-.777.385-1.16.133-.385.279-.769.438-1.148-.021.408-.058.815-.105 1.22-.042.404-.104.804-.159 1.207-.068.401-.122.799-.201 1.197-.08.398-.142.798-.234 1.191a.405.405 0 0 1-.47.304l-.008-.002a53.18 53.18 0 0 1-3.427-.802c-1.13-.312-2.258-.644-3.354-1.092ZM105.696 128.036c1.32-.028 2.623.062 3.925.165 1.299.117 2.592.27 3.879.464l-.442.294c.115-.433.258-.86.384-1.29.126-.43.277-.856.416-1.284.15-.426.294-.853.456-1.273.158-.424.327-.844.512-1.259-.047.45-.107.898-.182 1.341-.068.446-.153.887-.235 1.329-.094.439-.172.882-.276 1.318-.104.436-.192.878-.307 1.311a.407.407 0 0 1-.435.296l-.008-.002a67.556 67.556 0 0 1-3.865-.554c-1.281-.237-2.561-.489-3.822-.856ZM101.065 147.526c.914.054 1.807.18 2.694.334.445.071.885.162 1.324.25.443.084.876.195 1.317.291l-.511.363c.084-.961.197-1.921.346-2.876.075-.478.159-.955.253-1.431.104-.476.202-.951.34-1.425.05.487.06.972.074 1.458.004.485.004.967-.012 1.451a43.014 43.014 0 0 1-.187 2.891l-.001.009a.405.405 0 0 1-.439.362.629.629 0 0 1-.072-.011c-.433-.116-.871-.215-1.301-.342-.431-.124-.863-.244-1.29-.382-.853-.28-1.704-.574-2.535-.942ZM100.554 181.584c.088-.319.201-.626.32-.928.057-.152.125-.302.187-.451.064-.151.135-.295.204-.444l.093.202a16.3 16.3 0 0 1-1.017-.307 9.562 9.562 0 0 1-.499-.181 6.197 6.197 0 0 1-.492-.213c.18.015.357.041.534.067a14.911 14.911 0 0 1 1.556.35l.004.001c.077.02.122.099.097.177l-.009.023c-.073.145-.142.294-.219.438-.078.144-.151.29-.234.43a9.16 9.16 0 0 1-.525.836ZM69.56 197.707c.289-1.057.694-2.062 1.13-3.058l.204.283c-1.066.088-2.135.148-3.214.086 1.052-.255 2.116-.389 3.18-.492a.201.201 0 0 1 .204.283c-.439.99-.915 1.969-1.504 2.898ZM92.563 154.612c-.686-.845-1.263-1.754-1.81-2.68l.353.003c-.572.898-1.168 1.782-1.872 2.601.429-.986.963-1.908 1.523-2.811a.204.204 0 0 1 .354.003c.538.928 1.05 1.874 1.451 2.884ZM71.668 185.325c.383-.768.836-1.491 1.314-2.196l.165.307c-1.229.047-2.46.049-3.691-.108 1.228-.217 2.457-.272 3.688-.287h.006a.192.192 0 0 1 .159.307c-.51.689-1.04 1.356-1.641 1.977ZM91.212 197.85a19.737 19.737 0 0 1 2.002-1.621l.044.348c-1.165-.378-2.316-.797-3.41-1.37 1.223.217 2.39.587 3.545.998l.008.002a.191.191 0 0 1 .039.344c-.713.474-1.448.92-2.228 1.299ZM115.762 177.727c.459-.73.977-1.408 1.521-2.064l.132.322c-1.226-.071-2.451-.182-3.66-.458 1.242-.1 2.47-.039 3.697.066l.006-.001a.193.193 0 0 1 .126.323 19.242 19.242 0 0 1-1.822 1.812ZM83.311 127.564a19.2 19.2 0 0 1-1.76-1.825l.347-.075c-.313 1.179-.662 2.348-1.176 3.475.145-1.222.447-2.404.79-3.575l.001-.008a.202.202 0 0 1 .244-.136c.04.011.076.036.1.068.527.659 1.02 1.343 1.454 2.076ZM90.491 180.783c-.03-.807.067-1.597.194-2.38l.228.232c-.78.097-1.563.163-2.36.11.76-.261 1.533-.403 2.312-.513a.201.201 0 0 1 .23.17.216.216 0 0 1-.002.062c-.139.783-.306 1.56-.602 2.319ZM93.965 137.694c-.826-.973-1.473-2.041-2.076-3.134l.514.072c-.893.861-1.817 1.688-2.881 2.377.706-1.047 1.55-1.954 2.425-2.829a.327.327 0 0 1 .517.07c.59 1.1 1.134 2.225 1.5 3.444ZM77.31 188.959c-.023-.619.051-1.225.15-1.826l.176.178c-.598.073-1.2.127-1.814.084.584-.202 1.177-.31 1.775-.394a.156.156 0 0 1 .176.129.1.1 0 0 1-.001.047c-.105.602-.234 1.199-.462 1.782ZM117.045 197.066c-.086-.979-.084-1.95-.067-2.922a47.93 47.93 0 0 1 .163-2.911l.247.308c-.338-.055-.668-.13-1.005-.195-.333-.064-.667-.146-.999-.22-.331-.081-.664-.157-.993-.251-.33-.086-.658-.184-.984-.292.345.003.69.017 1.031.04.342.019.683.051 1.024.08.341.038.682.067 1.018.114.339.046.678.082 1.016.137a.292.292 0 0 1 .246.303v.006c-.046.97-.124 1.938-.231 2.906-.119.969-.246 1.936-.466 2.897ZM82.018 169.03c.555-.22 1.119-.371 1.687-.509a22.963 22.963 0 0 1 1.706-.327.386.386 0 0 1 .383.17l.01.018c.408.624.772 1.272 1.117 1.935.33.67.646 1.348.866 2.083-.558-.533-1.018-1.124-1.464-1.724a22.698 22.698 0 0 1-1.216-1.872l.397.187c-.576.057-1.153.097-1.733.11-.582.009-1.165.003-1.753-.071ZM99.907 205.511c.647-.152 1.284-.189 1.92-.21.635-.008 1.267.012 1.896.081l.029.002a.383.383 0 0 1 .341.425l-.003.023c-.084.45-.182.899-.309 1.346a8.44 8.44 0 0 1-.489 1.321 8.15 8.15 0 0 1-.09-1.396c.006-.462.037-.919.087-1.374l.368.45a16.14 16.14 0 0 1-1.887-.187c-.625-.113-1.248-.239-1.862-.481Z" fill="#E8B17E"/></svg>